<svg width="560" height="608" viewBox="0 0 560 608" fill="none" xmlns="http://www.w3.org/2000/svg">
<rect x="349.5" y="472.5" width="209" height="134" fill="#00646E" stroke="white" stroke-width="3"/>
<rect x="26.5" y="89.5" width="209" height="225" fill="#575757" stroke="white" stroke-width="3"/>
<rect x="26.5" y="89.5" width="209" height="516" fill="#303030" stroke="white" stroke-width="3"/>
<path d="M393.539 437.655V445H390.042V426.202H395.775C397.058 426.202 398.154 426.336 399.064 426.605C399.983 426.865 400.733 427.233 401.313 427.71C401.903 428.187 402.332 428.759 402.6 429.426C402.878 430.085 403.016 430.813 403.016 431.61C403.016 432.243 402.921 432.841 402.73 433.404C402.548 433.967 402.28 434.479 401.924 434.938C401.578 435.397 401.144 435.8 400.624 436.147C400.113 436.494 399.528 436.771 398.869 436.979C399.311 437.23 399.693 437.59 400.013 438.058L404.719 445H401.573C401.27 445 401.01 444.939 400.793 444.818C400.585 444.697 400.408 444.523 400.26 444.298L396.308 438.279C396.161 438.054 395.996 437.893 395.814 437.798C395.641 437.703 395.381 437.655 395.034 437.655H393.539ZM393.539 435.146H395.723C396.382 435.146 396.954 435.064 397.439 434.899C397.933 434.734 398.336 434.509 398.648 434.223C398.969 433.928 399.207 433.582 399.363 433.183C399.519 432.784 399.597 432.347 399.597 431.87C399.597 430.917 399.281 430.184 398.648 429.673C398.024 429.162 397.067 428.906 395.775 428.906H393.539V435.146ZM412.292 431.454C413.133 431.454 413.904 431.588 414.606 431.857C415.317 432.126 415.928 432.52 416.439 433.04C416.951 433.551 417.349 434.184 417.635 434.938C417.921 435.683 418.064 436.537 418.064 437.499C418.064 437.742 418.051 437.945 418.025 438.11C418.008 438.266 417.969 438.392 417.908 438.487C417.856 438.574 417.783 438.639 417.687 438.682C417.592 438.717 417.471 438.734 417.323 438.734H409.081C409.177 440.103 409.545 441.109 410.186 441.75C410.828 442.391 411.677 442.712 412.734 442.712C413.254 442.712 413.701 442.651 414.073 442.53C414.455 442.409 414.784 442.274 415.061 442.127C415.347 441.98 415.594 441.845 415.802 441.724C416.019 441.603 416.227 441.542 416.426 441.542C416.556 441.542 416.669 441.568 416.764 441.62C416.86 441.672 416.942 441.746 417.011 441.841L417.947 443.011C417.592 443.427 417.193 443.778 416.751 444.064C416.309 444.341 415.846 444.567 415.36 444.74C414.884 444.905 414.394 445.022 413.891 445.091C413.397 445.16 412.916 445.195 412.448 445.195C411.521 445.195 410.659 445.043 409.861 444.74C409.064 444.428 408.371 443.973 407.781 443.375C407.192 442.768 406.728 442.023 406.39 441.139C406.052 440.246 405.883 439.215 405.883 438.045C405.883 437.135 406.031 436.281 406.325 435.484C406.62 434.678 407.04 433.98 407.586 433.391C408.141 432.793 408.813 432.321 409.601 431.974C410.399 431.627 411.296 431.454 412.292 431.454ZM412.357 433.755C411.421 433.755 410.689 434.019 410.16 434.548C409.632 435.077 409.294 435.826 409.146 436.797H415.178C415.178 436.381 415.122 435.991 415.009 435.627C414.897 435.254 414.723 434.929 414.489 434.652C414.255 434.375 413.961 434.158 413.605 434.002C413.25 433.837 412.834 433.755 412.357 433.755ZM428.586 434.262C428.499 434.401 428.408 434.5 428.313 434.561C428.218 434.613 428.096 434.639 427.949 434.639C427.793 434.639 427.624 434.596 427.442 434.509C427.269 434.422 427.065 434.327 426.831 434.223C426.597 434.11 426.328 434.011 426.025 433.924C425.73 433.837 425.379 433.794 424.972 433.794C424.339 433.794 423.841 433.928 423.477 434.197C423.113 434.466 422.931 434.817 422.931 435.25C422.931 435.536 423.022 435.779 423.204 435.978C423.395 436.169 423.642 436.338 423.945 436.485C424.257 436.632 424.608 436.767 424.998 436.888C425.388 437.001 425.787 437.126 426.194 437.265C426.601 437.404 427 437.564 427.39 437.746C427.78 437.919 428.127 438.145 428.43 438.422C428.742 438.691 428.989 439.016 429.171 439.397C429.362 439.778 429.457 440.238 429.457 440.775C429.457 441.416 429.34 442.01 429.106 442.556C428.872 443.093 428.53 443.561 428.079 443.96C427.628 444.35 427.069 444.658 426.402 444.883C425.743 445.1 424.985 445.208 424.127 445.208C423.668 445.208 423.217 445.165 422.775 445.078C422.342 445 421.921 444.887 421.514 444.74C421.115 444.593 420.743 444.419 420.396 444.22C420.058 444.021 419.759 443.804 419.499 443.57L420.24 442.348C420.335 442.201 420.448 442.088 420.578 442.01C420.708 441.932 420.873 441.893 421.072 441.893C421.271 441.893 421.458 441.949 421.631 442.062C421.813 442.175 422.021 442.296 422.255 442.426C422.489 442.556 422.762 442.677 423.074 442.79C423.395 442.903 423.798 442.959 424.283 442.959C424.664 442.959 424.989 442.916 425.258 442.829C425.535 442.734 425.761 442.612 425.934 442.465C426.116 442.318 426.246 442.149 426.324 441.958C426.411 441.759 426.454 441.555 426.454 441.347C426.454 441.035 426.359 440.779 426.168 440.58C425.986 440.381 425.739 440.207 425.427 440.06C425.124 439.913 424.773 439.783 424.374 439.67C423.984 439.549 423.581 439.419 423.165 439.28C422.758 439.141 422.355 438.981 421.956 438.799C421.566 438.608 421.215 438.37 420.903 438.084C420.6 437.798 420.353 437.447 420.162 437.031C419.98 436.615 419.889 436.112 419.889 435.523C419.889 434.977 419.997 434.457 420.214 433.963C420.431 433.469 420.747 433.04 421.163 432.676C421.588 432.303 422.112 432.009 422.736 431.792C423.369 431.567 424.097 431.454 424.92 431.454C425.839 431.454 426.675 431.606 427.429 431.909C428.183 432.212 428.811 432.611 429.314 433.105L428.586 434.262ZM435.438 431.662V445H432.227V431.662H435.438ZM435.919 427.775C435.919 428.052 435.862 428.312 435.75 428.555C435.637 428.798 435.485 429.01 435.295 429.192C435.113 429.374 434.896 429.521 434.645 429.634C434.393 429.738 434.125 429.79 433.839 429.79C433.561 429.79 433.297 429.738 433.046 429.634C432.803 429.521 432.591 429.374 432.409 429.192C432.227 429.01 432.079 428.798 431.967 428.555C431.863 428.312 431.811 428.052 431.811 427.775C431.811 427.489 431.863 427.22 431.967 426.969C432.079 426.718 432.227 426.501 432.409 426.319C432.591 426.137 432.803 425.994 433.046 425.89C433.297 425.777 433.561 425.721 433.839 425.721C434.125 425.721 434.393 425.777 434.645 425.89C434.896 425.994 435.113 426.137 435.295 426.319C435.485 426.501 435.637 426.718 435.75 426.969C435.862 427.22 435.919 427.489 435.919 427.775ZM448.463 445C448.047 445 447.774 444.805 447.644 444.415L447.384 443.128C447.107 443.44 446.817 443.722 446.513 443.973C446.21 444.224 445.881 444.441 445.525 444.623C445.179 444.805 444.802 444.944 444.394 445.039C443.996 445.143 443.562 445.195 443.094 445.195C442.366 445.195 441.699 445.043 441.092 444.74C440.486 444.437 439.961 443.999 439.519 443.427C439.086 442.846 438.748 442.131 438.505 441.282C438.271 440.433 438.154 439.462 438.154 438.37C438.154 437.382 438.289 436.463 438.557 435.614C438.826 434.765 439.212 434.028 439.714 433.404C440.217 432.78 440.819 432.295 441.521 431.948C442.223 431.593 443.012 431.415 443.887 431.415C444.633 431.415 445.27 431.536 445.798 431.779C446.327 432.013 446.799 432.329 447.215 432.728V425.682H450.426V445H448.463ZM444.186 442.647C444.854 442.647 445.421 442.508 445.889 442.231C446.357 441.954 446.799 441.559 447.215 441.048V435.068C446.851 434.626 446.453 434.314 446.019 434.132C445.595 433.95 445.135 433.859 444.641 433.859C444.156 433.859 443.714 433.95 443.315 434.132C442.925 434.314 442.592 434.591 442.314 434.964C442.046 435.328 441.838 435.796 441.69 436.368C441.543 436.931 441.469 437.599 441.469 438.37C441.469 439.15 441.53 439.813 441.651 440.359C441.781 440.896 441.963 441.338 442.197 441.685C442.431 442.023 442.717 442.27 443.055 442.426C443.393 442.573 443.77 442.647 444.186 442.647ZM459.417 431.454C460.258 431.454 461.029 431.588 461.731 431.857C462.442 432.126 463.053 432.52 463.564 433.04C464.076 433.551 464.474 434.184 464.76 434.938C465.046 435.683 465.189 436.537 465.189 437.499C465.189 437.742 465.176 437.945 465.15 438.11C465.133 438.266 465.094 438.392 465.033 438.487C464.981 438.574 464.908 438.639 464.812 438.682C464.717 438.717 464.596 438.734 464.448 438.734H456.206C456.302 440.103 456.67 441.109 457.311 441.75C457.953 442.391 458.802 442.712 459.859 442.712C460.379 442.712 460.826 442.651 461.198 442.53C461.58 442.409 461.909 442.274 462.186 442.127C462.472 441.98 462.719 441.845 462.927 441.724C463.144 441.603 463.352 441.542 463.551 441.542C463.681 441.542 463.794 441.568 463.889 441.62C463.985 441.672 464.067 441.746 464.136 441.841L465.072 443.011C464.717 443.427 464.318 443.778 463.876 444.064C463.434 444.341 462.971 444.567 462.485 444.74C462.009 444.905 461.519 445.022 461.016 445.091C460.522 445.16 460.041 445.195 459.573 445.195C458.646 445.195 457.784 445.043 456.986 444.74C456.189 444.428 455.496 443.973 454.906 443.375C454.317 442.768 453.853 442.023 453.515 441.139C453.177 440.246 453.008 439.215 453.008 438.045C453.008 437.135 453.156 436.281 453.45 435.484C453.745 434.678 454.165 433.98 454.711 433.391C455.266 432.793 455.938 432.321 456.726 431.974C457.524 431.627 458.421 431.454 459.417 431.454ZM459.482 433.755C458.546 433.755 457.814 434.019 457.285 434.548C456.757 435.077 456.419 435.826 456.271 436.797H462.303C462.303 436.381 462.247 435.991 462.134 435.627C462.022 435.254 461.848 434.929 461.614 434.652C461.38 434.375 461.086 434.158 460.73 434.002C460.375 433.837 459.959 433.755 459.482 433.755ZM467.794 445V431.662H469.757C470.173 431.662 470.446 431.857 470.576 432.247L470.797 433.3C471.066 433.023 471.347 432.771 471.642 432.546C471.945 432.321 472.262 432.126 472.591 431.961C472.929 431.796 473.289 431.671 473.67 431.584C474.051 431.497 474.467 431.454 474.918 431.454C475.646 431.454 476.292 431.58 476.855 431.831C477.418 432.074 477.886 432.42 478.259 432.871C478.64 433.313 478.926 433.846 479.117 434.47C479.316 435.085 479.416 435.766 479.416 436.511V445H476.205V436.511C476.205 435.696 476.014 435.068 475.633 434.626C475.26 434.175 474.697 433.95 473.943 433.95C473.388 433.95 472.868 434.076 472.383 434.327C471.898 434.578 471.438 434.921 471.005 435.354V445H467.794ZM491.944 434.483C491.849 434.604 491.754 434.7 491.658 434.769C491.572 434.838 491.442 434.873 491.268 434.873C491.104 434.873 490.943 434.825 490.787 434.73C490.631 434.626 490.445 434.513 490.228 434.392C490.012 434.262 489.752 434.149 489.448 434.054C489.154 433.95 488.785 433.898 488.343 433.898C487.78 433.898 487.286 434.002 486.861 434.21C486.437 434.409 486.081 434.7 485.795 435.081C485.518 435.462 485.31 435.926 485.171 436.472C485.033 437.009 484.963 437.62 484.963 438.305C484.963 439.016 485.037 439.648 485.184 440.203C485.34 440.758 485.561 441.226 485.847 441.607C486.133 441.98 486.48 442.266 486.887 442.465C487.295 442.656 487.754 442.751 488.265 442.751C488.777 442.751 489.188 442.69 489.5 442.569C489.821 442.439 490.09 442.3 490.306 442.153C490.523 441.997 490.709 441.858 490.865 441.737C491.03 441.607 491.212 441.542 491.411 441.542C491.671 441.542 491.866 441.642 491.996 441.841L492.919 443.011C492.564 443.427 492.178 443.778 491.762 444.064C491.346 444.341 490.913 444.567 490.462 444.74C490.02 444.905 489.561 445.022 489.084 445.091C488.608 445.16 488.135 445.195 487.667 445.195C486.844 445.195 486.068 445.043 485.34 444.74C484.612 444.428 483.975 443.977 483.429 443.388C482.892 442.799 482.463 442.079 482.142 441.23C481.83 440.372 481.674 439.397 481.674 438.305C481.674 437.326 481.813 436.42 482.09 435.588C482.376 434.747 482.792 434.024 483.338 433.417C483.884 432.802 484.56 432.321 485.366 431.974C486.172 431.627 487.1 431.454 488.148 431.454C489.145 431.454 490.016 431.614 490.761 431.935C491.515 432.256 492.191 432.715 492.789 433.313L491.944 434.483ZM498.381 431.662V445H495.17V431.662H498.381ZM498.862 427.775C498.862 428.052 498.806 428.312 498.693 428.555C498.58 428.798 498.429 429.01 498.238 429.192C498.056 429.374 497.839 429.521 497.588 429.634C497.337 429.738 497.068 429.79 496.782 429.79C496.505 429.79 496.24 429.738 495.989 429.634C495.746 429.521 495.534 429.374 495.352 429.192C495.17 429.01 495.023 428.798 494.91 428.555C494.806 428.312 494.754 428.052 494.754 427.775C494.754 427.489 494.806 427.22 494.91 426.969C495.023 426.718 495.17 426.501 495.352 426.319C495.534 426.137 495.746 425.994 495.989 425.89C496.24 425.777 496.505 425.721 496.782 425.721C497.068 425.721 497.337 425.777 497.588 425.89C497.839 425.994 498.056 426.137 498.238 426.319C498.429 426.501 498.58 426.718 498.693 426.969C498.806 427.22 498.862 427.489 498.862 427.775ZM512.473 445H511.03C510.726 445 510.488 444.957 510.315 444.87C510.141 444.775 510.011 444.588 509.925 444.311L509.639 443.362C509.301 443.665 508.967 443.934 508.638 444.168C508.317 444.393 507.983 444.584 507.637 444.74C507.29 444.896 506.922 445.013 506.532 445.091C506.142 445.169 505.708 445.208 505.232 445.208C504.668 445.208 504.148 445.134 503.672 444.987C503.195 444.831 502.783 444.601 502.437 444.298C502.099 443.995 501.834 443.618 501.644 443.167C501.453 442.716 501.358 442.192 501.358 441.594C501.358 441.091 501.488 440.597 501.748 440.112C502.016 439.618 502.458 439.176 503.074 438.786C503.689 438.387 504.508 438.058 505.531 437.798C506.553 437.538 507.823 437.391 509.34 437.356V436.576C509.34 435.683 509.149 435.025 508.768 434.6C508.395 434.167 507.849 433.95 507.13 433.95C506.61 433.95 506.176 434.011 505.83 434.132C505.483 434.253 505.18 434.392 504.92 434.548C504.668 434.695 504.434 434.83 504.218 434.951C504.001 435.072 503.763 435.133 503.503 435.133C503.286 435.133 503.1 435.077 502.944 434.964C502.788 434.851 502.662 434.713 502.567 434.548L501.982 433.521C503.516 432.117 505.366 431.415 507.533 431.415C508.313 431.415 509.006 431.545 509.613 431.805C510.228 432.056 510.748 432.412 511.173 432.871C511.597 433.322 511.918 433.863 512.135 434.496C512.36 435.129 512.473 435.822 512.473 436.576V445ZM506.233 442.998C506.562 442.998 506.865 442.968 507.143 442.907C507.42 442.846 507.68 442.755 507.923 442.634C508.174 442.513 508.412 442.365 508.638 442.192C508.872 442.01 509.106 441.798 509.34 441.555V439.306C508.404 439.349 507.619 439.432 506.987 439.553C506.363 439.666 505.86 439.813 505.479 439.995C505.097 440.177 504.824 440.389 504.66 440.632C504.504 440.875 504.426 441.139 504.426 441.425C504.426 441.988 504.59 442.391 504.92 442.634C505.258 442.877 505.695 442.998 506.233 442.998ZM519.049 425.682V445H515.838V425.682H519.049Z" fill="#2F4F4F"/>
<path d="M431.829 407.864H435.749V397.574C435.749 397.07 435.763 396.543 435.791 395.992L433.481 397.91C433.331 398.031 433.182 398.12 433.033 398.176C432.883 398.223 432.739 398.246 432.599 398.246C432.356 398.246 432.137 398.195 431.941 398.092C431.754 397.98 431.614 397.863 431.521 397.742L430.149 395.922L436.505 390.588H440.089V407.864H443.449V411H431.829V407.864ZM454.175 398.078C454.912 398.078 455.64 398.199 456.359 398.442C457.078 398.685 457.722 399.058 458.291 399.562C458.86 400.066 459.318 400.705 459.663 401.48C460.018 402.245 460.195 403.151 460.195 404.196C460.195 405.148 460.018 406.053 459.663 406.912C459.308 407.761 458.804 408.508 458.151 409.152C457.507 409.787 456.728 410.291 455.813 410.664C454.898 411.037 453.886 411.224 452.775 411.224C451.636 411.224 450.614 411.047 449.709 410.692C448.804 410.328 448.034 409.824 447.399 409.18C446.774 408.536 446.293 407.766 445.957 406.87C445.63 405.974 445.467 404.989 445.467 403.916C445.467 402.899 445.663 401.886 446.055 400.878C446.447 399.87 447.026 398.843 447.791 397.798L452.383 391.596C452.588 391.316 452.896 391.083 453.307 390.896C453.718 390.7 454.184 390.602 454.707 390.602H458.571L452.523 397.826C452.43 397.929 452.336 398.036 452.243 398.148C452.159 398.251 452.075 398.353 451.991 398.456C452.318 398.335 452.658 398.241 453.013 398.176C453.377 398.111 453.764 398.078 454.175 398.078ZM449.639 404.504C449.639 405.008 449.7 405.461 449.821 405.862C449.942 406.263 450.129 406.609 450.381 406.898C450.633 407.187 450.95 407.411 451.333 407.57C451.716 407.719 452.168 407.794 452.691 407.794C453.139 407.794 453.554 407.71 453.937 407.542C454.329 407.374 454.665 407.145 454.945 406.856C455.225 406.557 455.444 406.212 455.603 405.82C455.771 405.419 455.855 404.985 455.855 404.518C455.855 403.995 455.776 403.529 455.617 403.118C455.468 402.707 455.253 402.362 454.973 402.082C454.693 401.802 454.352 401.587 453.951 401.438C453.559 401.289 453.12 401.214 452.635 401.214C452.196 401.214 451.795 401.293 451.431 401.452C451.067 401.601 450.75 401.821 450.479 402.11C450.218 402.399 450.012 402.745 449.863 403.146C449.714 403.547 449.639 404 449.639 404.504ZM471.257 395.544C471.257 396.291 471.122 396.972 470.851 397.588C470.58 398.204 470.221 398.736 469.773 399.184C469.325 399.623 468.802 399.963 468.205 400.206C467.617 400.449 467.001 400.57 466.357 400.57C465.648 400.57 464.994 400.449 464.397 400.206C463.809 399.963 463.296 399.623 462.857 399.184C462.428 398.736 462.092 398.204 461.849 397.588C461.606 396.972 461.485 396.291 461.485 395.544C461.485 394.769 461.606 394.069 461.849 393.444C462.092 392.809 462.428 392.268 462.857 391.82C463.296 391.372 463.809 391.027 464.397 390.784C464.994 390.532 465.648 390.406 466.357 390.406C467.066 390.406 467.72 390.532 468.317 390.784C468.924 391.027 469.442 391.372 469.871 391.82C470.31 392.268 470.65 392.809 470.893 393.444C471.136 394.069 471.257 394.769 471.257 395.544ZM467.925 395.544C467.925 395.068 467.883 394.676 467.799 394.368C467.724 394.051 467.617 393.799 467.477 393.612C467.337 393.425 467.169 393.295 466.973 393.22C466.786 393.145 466.581 393.108 466.357 393.108C466.133 393.108 465.928 393.145 465.741 393.22C465.554 393.295 465.396 393.425 465.265 393.612C465.134 393.799 465.032 394.051 464.957 394.368C464.882 394.676 464.845 395.068 464.845 395.544C464.845 395.992 464.882 396.365 464.957 396.664C465.032 396.963 465.134 397.201 465.265 397.378C465.396 397.555 465.554 397.681 465.741 397.756C465.928 397.831 466.133 397.868 466.357 397.868C466.581 397.868 466.786 397.831 466.973 397.756C467.169 397.681 467.337 397.555 467.477 397.378C467.617 397.201 467.724 396.963 467.799 396.664C467.883 396.365 467.925 395.992 467.925 395.544ZM477.669 391.246C477.809 391.087 477.982 390.943 478.187 390.812C478.392 390.672 478.677 390.602 479.041 390.602H482.205L466.833 410.384C466.693 410.561 466.516 410.711 466.301 410.832C466.096 410.944 465.844 411 465.545 411H462.297L477.669 391.246ZM482.989 406.212C482.989 406.959 482.854 407.645 482.583 408.27C482.312 408.886 481.953 409.418 481.505 409.866C481.057 410.305 480.534 410.645 479.937 410.888C479.349 411.131 478.733 411.252 478.089 411.252C477.38 411.252 476.726 411.131 476.129 410.888C475.541 410.645 475.028 410.305 474.589 409.866C474.16 409.418 473.824 408.886 473.581 408.27C473.338 407.645 473.217 406.959 473.217 406.212C473.217 405.437 473.338 404.737 473.581 404.112C473.824 403.477 474.16 402.936 474.589 402.488C475.028 402.04 475.541 401.695 476.129 401.452C476.726 401.2 477.38 401.074 478.089 401.074C478.798 401.074 479.452 401.2 480.049 401.452C480.656 401.695 481.174 402.04 481.603 402.488C482.042 402.936 482.382 403.477 482.625 404.112C482.868 404.737 482.989 405.437 482.989 406.212ZM479.657 406.212C479.657 405.745 479.615 405.358 479.531 405.05C479.456 404.733 479.349 404.481 479.209 404.294C479.069 404.107 478.901 403.977 478.705 403.902C478.518 403.827 478.313 403.79 478.089 403.79C477.865 403.79 477.66 403.827 477.473 403.902C477.286 403.977 477.128 404.107 476.997 404.294C476.866 404.481 476.764 404.733 476.689 405.05C476.614 405.358 476.577 405.745 476.577 406.212C476.577 406.66 476.614 407.033 476.689 407.332C476.764 407.631 476.866 407.869 476.997 408.046C477.128 408.223 477.286 408.349 477.473 408.424C477.66 408.499 477.865 408.536 478.089 408.536C478.313 408.536 478.518 408.499 478.705 408.424C478.901 408.349 479.069 408.223 479.209 408.046C479.349 407.869 479.456 407.631 479.531 407.332C479.615 407.033 479.657 406.66 479.657 406.212Z" fill="#00646E"/>
<path d="M7.15688 66H3.10688V44.31H7.15688V66ZM11.8355 66V50.61H14.1005C14.5805 50.61 14.8955 50.835 15.0455 51.285L15.3005 52.5C15.6105 52.18 15.9355 51.89 16.2755 51.63C16.6255 51.37 16.9905 51.145 17.3705 50.955C17.7605 50.765 18.1755 50.62 18.6155 50.52C19.0555 50.42 19.5355 50.37 20.0555 50.37C20.8955 50.37 21.6405 50.515 22.2905 50.805C22.9405 51.085 23.4805 51.485 23.9105 52.005C24.3505 52.515 24.6805 53.13 24.9005 53.85C25.1305 54.56 25.2455 55.345 25.2455 56.205V66H21.5405V56.205C21.5405 55.265 21.3205 54.54 20.8805 54.03C20.4505 53.51 19.8005 53.25 18.9305 53.25C18.2905 53.25 17.6905 53.395 17.1305 53.685C16.5705 53.975 16.0405 54.37 15.5405 54.87V66H11.8355ZM39.7163 66C39.2363 66 38.9213 65.775 38.7713 65.325L38.4713 63.84C38.1513 64.2 37.8163 64.525 37.4663 64.815C37.1163 65.105 36.7363 65.355 36.3263 65.565C35.9263 65.775 35.4913 65.935 35.0213 66.045C34.5613 66.165 34.0613 66.225 33.5213 66.225C32.6813 66.225 31.9113 66.05 31.2113 65.7C30.5113 65.35 29.9063 64.845 29.3963 64.185C28.8963 63.515 28.5063 62.69 28.2263 61.71C27.9563 60.73 27.8213 59.61 27.8213 58.35C27.8213 57.21 27.9763 56.15 28.2863 55.17C28.5963 54.19 29.0413 53.34 29.6213 52.62C30.2013 51.9 30.8963 51.34 31.7063 50.94C32.5163 50.53 33.4263 50.325 34.4363 50.325C35.2963 50.325 36.0313 50.465 36.6413 50.745C37.2513 51.015 37.7963 51.38 38.2763 51.84V43.71H41.9812V66H39.7163ZM34.7813 63.285C35.5513 63.285 36.2063 63.125 36.7463 62.805C37.2863 62.485 37.7963 62.03 38.2763 61.44V54.54C37.8563 54.03 37.3963 53.67 36.8963 53.46C36.4063 53.25 35.8763 53.145 35.3063 53.145C34.7463 53.145 34.2363 53.25 33.7763 53.46C33.3263 53.67 32.9413 53.99 32.6213 54.42C32.3113 54.84 32.0713 55.38 31.9013 56.04C31.7313 56.69 31.6463 57.46 31.6463 58.35C31.6463 59.25 31.7163 60.015 31.8563 60.645C32.0063 61.265 32.2163 61.775 32.4863 62.175C32.7563 62.565 33.0863 62.85 33.4763 63.03C33.8663 63.2 34.3013 63.285 34.7813 63.285ZM49.3856 50.61V60.39C49.3856 61.33 49.6006 62.06 50.0306 62.58C50.4706 63.09 51.1256 63.345 51.9956 63.345C52.6356 63.345 53.2356 63.205 53.7956 62.925C54.3556 62.635 54.8856 62.24 55.3856 61.74V50.61H59.0906V66H56.8256C56.3456 66 56.0306 65.775 55.8806 65.325L55.6256 64.095C55.3056 64.415 54.9756 64.71 54.6356 64.98C54.2956 65.24 53.9306 65.465 53.5406 65.655C53.1606 65.835 52.7456 65.975 52.2956 66.075C51.8556 66.185 51.3806 66.24 50.8706 66.24C50.0306 66.24 49.2856 66.1 48.6356 65.82C47.9956 65.53 47.4556 65.125 47.0156 64.605C46.5756 64.085 46.2406 63.47 46.0106 62.76C45.7906 62.04 45.6806 61.25 45.6806 60.39V50.61H49.3856ZM72.1814 53.61C72.0814 53.77 71.9764 53.885 71.8664 53.955C71.7564 54.015 71.6164 54.045 71.4464 54.045C71.2664 54.045 71.0714 53.995 70.8614 53.895C70.6614 53.795 70.4264 53.685 70.1564 53.565C69.8864 53.435 69.5764 53.32 69.2264 53.22C68.8864 53.12 68.4814 53.07 68.0114 53.07C67.2814 53.07 66.7064 53.225 66.2864 53.535C65.8664 53.845 65.6564 54.25 65.6564 54.75C65.6564 55.08 65.7614 55.36 65.9714 55.59C66.1914 55.81 66.4764 56.005 66.8264 56.175C67.1864 56.345 67.5914 56.5 68.0414 56.64C68.4914 56.77 68.9514 56.915 69.4214 57.075C69.8914 57.235 70.3514 57.42 70.8014 57.63C71.2514 57.83 71.6514 58.09 72.0014 58.41C72.3614 58.72 72.6464 59.095 72.8564 59.535C73.0764 59.975 73.1864 60.505 73.1864 61.125C73.1864 61.865 73.0514 62.55 72.7814 63.18C72.5114 63.8 72.1164 64.34 71.5964 64.8C71.0764 65.25 70.4314 65.605 69.6614 65.865C68.9014 66.115 68.0264 66.24 67.0364 66.24C66.5064 66.24 65.9864 66.19 65.4764 66.09C64.9764 66 64.4914 65.87 64.0214 65.7C63.5614 65.53 63.1314 65.33 62.7314 65.1C62.3414 64.87 61.9964 64.62 61.6964 64.35L62.5514 62.94C62.6614 62.77 62.7914 62.64 62.9414 62.55C63.0914 62.46 63.2814 62.415 63.5114 62.415C63.7414 62.415 63.9564 62.48 64.1564 62.61C64.3664 62.74 64.6064 62.88 64.8764 63.03C65.1464 63.18 65.4614 63.32 65.8214 63.45C66.1914 63.58 66.6564 63.645 67.2164 63.645C67.6564 63.645 68.0314 63.595 68.3414 63.495C68.6614 63.385 68.9214 63.245 69.1214 63.075C69.3314 62.905 69.4814 62.71 69.5714 62.49C69.6714 62.26 69.7214 62.025 69.7214 61.785C69.7214 61.425 69.6114 61.13 69.3914 60.9C69.1814 60.67 68.8964 60.47 68.5364 60.3C68.1864 60.13 67.7814 59.98 67.3214 59.85C66.8714 59.71 66.4064 59.56 65.9264 59.4C65.4564 59.24 64.9914 59.055 64.5314 58.845C64.0814 58.625 63.6764 58.35 63.3164 58.02C62.9664 57.69 62.6814 57.285 62.4614 56.805C62.2514 56.325 62.1464 55.745 62.1464 55.065C62.1464 54.435 62.2714 53.835 62.5214 53.265C62.7714 52.695 63.1364 52.2 63.6164 51.78C64.1064 51.35 64.7114 51.01 65.4314 50.76C66.1614 50.5 67.0014 50.37 67.9514 50.37C69.0114 50.37 69.9764 50.545 70.8464 50.895C71.7164 51.245 72.4414 51.705 73.0214 52.275L72.1814 53.61ZM81.1971 66.24C79.8671 66.24 78.8421 65.865 78.1221 65.115C77.4021 64.355 77.0421 63.31 77.0421 61.98V53.385H75.4821C75.2821 53.385 75.1071 53.32 74.9571 53.19C74.8171 53.06 74.7471 52.865 74.7471 52.605V51.135L77.2221 50.73L78.0021 46.53C78.0421 46.33 78.1321 46.175 78.2721 46.065C78.4221 45.955 78.6071 45.9 78.8271 45.9H80.7471V50.745H84.7971V53.385H80.7471V61.725C80.7471 62.205 80.8671 62.58 81.1071 62.85C81.3471 63.12 81.6671 63.255 82.0671 63.255C82.2971 63.255 82.4871 63.23 82.6371 63.18C82.7971 63.12 82.9321 63.06 83.0421 63C83.1621 62.94 83.2671 62.885 83.3571 62.835C83.4471 62.775 83.5371 62.745 83.6271 62.745C83.7371 62.745 83.8271 62.775 83.8971 62.835C83.9671 62.885 84.0421 62.965 84.1221 63.075L85.2321 64.875C84.6921 65.325 84.0721 65.665 83.3721 65.895C82.6721 66.125 81.9471 66.24 81.1971 66.24ZM87.7437 66V50.61H89.9187C90.2987 50.61 90.5637 50.68 90.7137 50.82C90.8637 50.96 90.9637 51.2 91.0137 51.54L91.2387 53.4C91.7887 52.45 92.4337 51.7 93.1737 51.15C93.9137 50.6 94.7437 50.325 95.6637 50.325C96.4237 50.325 97.0537 50.5 97.5537 50.85L97.0737 53.625C97.0437 53.805 96.9787 53.935 96.8787 54.015C96.7787 54.085 96.6437 54.12 96.4737 54.12C96.3237 54.12 96.1187 54.085 95.8587 54.015C95.5987 53.945 95.2537 53.91 94.8237 53.91C94.0537 53.91 93.3937 54.125 92.8437 54.555C92.2937 54.975 91.8287 55.595 91.4487 56.415V66H87.7437ZM103.935 50.61V66H100.23V50.61H103.935ZM104.49 46.125C104.49 46.445 104.425 46.745 104.295 47.025C104.165 47.305 103.99 47.55 103.77 47.76C103.56 47.97 103.31 48.14 103.02 48.27C102.73 48.39 102.42 48.45 102.09 48.45C101.77 48.45 101.465 48.39 101.175 48.27C100.895 48.14 100.65 47.97 100.44 47.76C100.23 47.55 100.06 47.305 99.9298 47.025C99.8098 46.745 99.7498 46.445 99.7498 46.125C99.7498 45.795 99.8098 45.485 99.9298 45.195C100.06 44.905 100.23 44.655 100.44 44.445C100.65 44.235 100.895 44.07 101.175 43.95C101.465 43.82 101.77 43.755 102.09 43.755C102.42 43.755 102.73 43.82 103.02 43.95C103.31 44.07 103.56 44.235 103.77 44.445C103.99 44.655 104.165 44.905 104.295 45.195C104.425 45.485 104.49 45.795 104.49 46.125ZM120.194 66H118.529C118.179 66 117.904 65.95 117.704 65.85C117.504 65.74 117.354 65.525 117.254 65.205L116.924 64.11C116.534 64.46 116.149 64.77 115.769 65.04C115.399 65.3 115.014 65.52 114.614 65.7C114.214 65.88 113.789 66.015 113.339 66.105C112.889 66.195 112.389 66.24 111.839 66.24C111.189 66.24 110.589 66.155 110.039 65.985C109.489 65.805 109.014 65.54 108.614 65.19C108.224 64.84 107.919 64.405 107.699 63.885C107.479 63.365 107.369 62.76 107.369 62.07C107.369 61.49 107.519 60.92 107.819 60.36C108.129 59.79 108.639 59.28 109.349 58.83C110.059 58.37 111.004 57.99 112.184 57.69C113.364 57.39 114.829 57.22 116.579 57.18V56.28C116.579 55.25 116.359 54.49 115.919 54C115.489 53.5 114.859 53.25 114.029 53.25C113.429 53.25 112.929 53.32 112.529 53.46C112.129 53.6 111.779 53.76 111.479 53.94C111.189 54.11 110.919 54.265 110.669 54.405C110.419 54.545 110.144 54.615 109.844 54.615C109.594 54.615 109.379 54.55 109.199 54.42C109.019 54.29 108.874 54.13 108.764 53.94L108.089 52.755C109.859 51.135 111.994 50.325 114.494 50.325C115.394 50.325 116.194 50.475 116.894 50.775C117.604 51.065 118.204 51.475 118.694 52.005C119.184 52.525 119.554 53.15 119.804 53.88C120.064 54.61 120.194 55.41 120.194 56.28V66ZM112.994 63.69C113.374 63.69 113.724 63.655 114.044 63.585C114.364 63.515 114.664 63.41 114.944 63.27C115.234 63.13 115.509 62.96 115.769 62.76C116.039 62.55 116.309 62.305 116.579 62.025V59.43C115.499 59.48 114.594 59.575 113.864 59.715C113.144 59.845 112.564 60.015 112.124 60.225C111.684 60.435 111.369 60.68 111.179 60.96C110.999 61.24 110.909 61.545 110.909 61.875C110.909 62.525 111.099 62.99 111.479 63.27C111.869 63.55 112.374 63.69 112.994 63.69ZM137.828 48.405V54.555H143.663V57.3H137.828V63.48H134.828V57.3H129.023V54.555H134.828V48.405H137.828ZM163.941 57C164.111 57.32 164.266 57.655 164.406 58.005C164.556 58.345 164.701 58.69 164.841 59.04C164.981 58.68 165.126 58.325 165.276 57.975C165.426 57.625 165.586 57.29 165.756 56.97L172.176 44.955C172.256 44.805 172.336 44.685 172.416 44.595C172.506 44.505 172.601 44.44 172.701 44.4C172.811 44.36 172.931 44.335 173.061 44.325C173.191 44.315 173.346 44.31 173.526 44.31H176.571V66H173.016V51.99C173.016 51.73 173.021 51.445 173.031 51.135C173.051 50.825 173.076 50.51 173.106 50.19L166.551 62.49C166.401 62.77 166.206 62.99 165.966 63.15C165.726 63.3 165.446 63.375 165.126 63.375H164.571C164.251 63.375 163.971 63.3 163.731 63.15C163.491 62.99 163.296 62.77 163.146 62.49L156.501 50.145C156.541 50.475 156.566 50.8 156.576 51.12C156.596 51.43 156.606 51.72 156.606 51.99V66H153.051V44.31H156.096C156.276 44.31 156.431 44.315 156.561 44.325C156.691 44.335 156.806 44.36 156.906 44.4C157.016 44.44 157.116 44.505 157.206 44.595C157.296 44.685 157.381 44.805 157.461 44.955L163.941 57ZM184.677 50.61V66H180.972V50.61H184.677ZM185.232 46.125C185.232 46.445 185.167 46.745 185.037 47.025C184.907 47.305 184.732 47.55 184.512 47.76C184.302 47.97 184.052 48.14 183.762 48.27C183.472 48.39 183.162 48.45 182.832 48.45C182.512 48.45 182.207 48.39 181.917 48.27C181.637 48.14 181.392 47.97 181.182 47.76C180.972 47.55 180.802 47.305 180.672 47.025C180.552 46.745 180.492 46.445 180.492 46.125C180.492 45.795 180.552 45.485 180.672 45.195C180.802 44.905 180.972 44.655 181.182 44.445C181.392 44.235 181.637 44.07 181.917 43.95C182.207 43.82 182.512 43.755 182.832 43.755C183.162 43.755 183.472 43.82 183.762 43.95C184.052 44.07 184.302 44.235 184.512 44.445C184.732 44.655 184.907 44.905 185.037 45.195C185.167 45.485 185.232 45.795 185.232 46.125ZM188.876 66V50.61H191.141C191.621 50.61 191.936 50.835 192.086 51.285L192.341 52.5C192.651 52.18 192.976 51.89 193.316 51.63C193.666 51.37 194.031 51.145 194.411 50.955C194.801 50.765 195.216 50.62 195.656 50.52C196.096 50.42 196.576 50.37 197.096 50.37C197.936 50.37 198.681 50.515 199.331 50.805C199.981 51.085 200.521 51.485 200.951 52.005C201.391 52.515 201.721 53.13 201.941 53.85C202.171 54.56 202.286 55.345 202.286 56.205V66H198.581V56.205C198.581 55.265 198.361 54.54 197.921 54.03C197.491 53.51 196.841 53.25 195.971 53.25C195.331 53.25 194.731 53.395 194.171 53.685C193.611 53.975 193.081 54.37 192.581 54.87V66H188.876ZM212.287 50.37C213.257 50.37 214.147 50.525 214.957 50.835C215.777 51.145 216.482 51.6 217.072 52.2C217.662 52.79 218.122 53.52 218.452 54.39C218.782 55.25 218.947 56.235 218.947 57.345C218.947 57.625 218.932 57.86 218.902 58.05C218.882 58.23 218.837 58.375 218.767 58.485C218.707 58.585 218.622 58.66 218.512 58.71C218.402 58.75 218.262 58.77 218.092 58.77H208.582C208.692 60.35 209.117 61.51 209.857 62.25C210.597 62.99 211.577 63.36 212.797 63.36C213.397 63.36 213.912 63.29 214.342 63.15C214.782 63.01 215.162 62.855 215.482 62.685C215.812 62.515 216.097 62.36 216.337 62.22C216.587 62.08 216.827 62.01 217.057 62.01C217.207 62.01 217.337 62.04 217.447 62.1C217.557 62.16 217.652 62.245 217.732 62.355L218.812 63.705C218.402 64.185 217.942 64.59 217.432 64.92C216.922 65.24 216.387 65.5 215.827 65.7C215.277 65.89 214.712 66.025 214.132 66.105C213.562 66.185 213.007 66.225 212.467 66.225C211.397 66.225 210.402 66.05 209.482 65.7C208.562 65.34 207.762 64.815 207.082 64.125C206.402 63.425 205.867 62.565 205.477 61.545C205.087 60.515 204.892 59.325 204.892 57.975C204.892 56.925 205.062 55.94 205.402 55.02C205.742 54.09 206.227 53.285 206.857 52.605C207.497 51.915 208.272 51.37 209.182 50.97C210.102 50.57 211.137 50.37 212.287 50.37ZM212.362 53.025C211.282 53.025 210.437 53.33 209.827 53.94C209.217 54.55 208.827 55.415 208.657 56.535H215.617C215.617 56.055 215.552 55.605 215.422 55.185C215.292 54.755 215.092 54.38 214.822 54.06C214.552 53.74 214.212 53.49 213.802 53.31C213.392 53.12 212.912 53.025 212.362 53.025ZM221.953 66V50.61H224.128C224.508 50.61 224.773 50.68 224.923 50.82C225.073 50.96 225.173 51.2 225.223 51.54L225.448 53.4C225.998 52.45 226.643 51.7 227.383 51.15C228.123 50.6 228.953 50.325 229.873 50.325C230.633 50.325 231.263 50.5 231.763 50.85L231.283 53.625C231.253 53.805 231.188 53.935 231.088 54.015C230.988 54.085 230.853 54.12 230.683 54.12C230.533 54.12 230.328 54.085 230.068 54.015C229.808 53.945 229.463 53.91 229.033 53.91C228.263 53.91 227.603 54.125 227.053 54.555C226.503 54.975 226.038 55.595 225.658 56.415V66H221.953ZM245.819 66H244.154C243.804 66 243.529 65.95 243.329 65.85C243.129 65.74 242.979 65.525 242.879 65.205L242.549 64.11C242.159 64.46 241.774 64.77 241.394 65.04C241.024 65.3 240.639 65.52 240.239 65.7C239.839 65.88 239.414 66.015 238.964 66.105C238.514 66.195 238.014 66.24 237.464 66.24C236.814 66.24 236.214 66.155 235.664 65.985C235.114 65.805 234.639 65.54 234.239 65.19C233.849 64.84 233.544 64.405 233.324 63.885C233.104 63.365 232.994 62.76 232.994 62.07C232.994 61.49 233.144 60.92 233.444 60.36C233.754 59.79 234.264 59.28 234.974 58.83C235.684 58.37 236.629 57.99 237.809 57.69C238.989 57.39 240.454 57.22 242.204 57.18V56.28C242.204 55.25 241.984 54.49 241.544 54C241.114 53.5 240.484 53.25 239.654 53.25C239.054 53.25 238.554 53.32 238.154 53.46C237.754 53.6 237.404 53.76 237.104 53.94C236.814 54.11 236.544 54.265 236.294 54.405C236.044 54.545 235.769 54.615 235.469 54.615C235.219 54.615 235.004 54.55 234.824 54.42C234.644 54.29 234.499 54.13 234.389 53.94L233.714 52.755C235.484 51.135 237.619 50.325 240.119 50.325C241.019 50.325 241.819 50.475 242.519 50.775C243.229 51.065 243.829 51.475 244.319 52.005C244.809 52.525 245.179 53.15 245.429 53.88C245.689 54.61 245.819 55.41 245.819 56.28V66ZM238.619 63.69C238.999 63.69 239.349 63.655 239.669 63.585C239.989 63.515 240.289 63.41 240.569 63.27C240.859 63.13 241.134 62.96 241.394 62.76C241.664 62.55 241.934 62.305 242.204 62.025V59.43C241.124 59.48 240.219 59.575 239.489 59.715C238.769 59.845 238.189 60.015 237.749 60.225C237.309 60.435 236.994 60.68 236.804 60.96C236.624 61.24 236.534 61.545 236.534 61.875C236.534 62.525 236.724 62.99 237.104 63.27C237.494 63.55 237.999 63.69 238.619 63.69ZM258.597 53.61C258.497 53.77 258.392 53.885 258.282 53.955C258.172 54.015 258.032 54.045 257.862 54.045C257.682 54.045 257.487 53.995 257.277 53.895C257.077 53.795 256.842 53.685 256.572 53.565C256.302 53.435 255.992 53.32 255.642 53.22C255.302 53.12 254.897 53.07 254.427 53.07C253.697 53.07 253.122 53.225 252.702 53.535C252.282 53.845 252.072 54.25 252.072 54.75C252.072 55.08 252.177 55.36 252.387 55.59C252.607 55.81 252.892 56.005 253.242 56.175C253.602 56.345 254.007 56.5 254.457 56.64C254.907 56.77 255.367 56.915 255.837 57.075C256.307 57.235 256.767 57.42 257.217 57.63C257.667 57.83 258.067 58.09 258.417 58.41C258.777 58.72 259.062 59.095 259.272 59.535C259.492 59.975 259.602 60.505 259.602 61.125C259.602 61.865 259.467 62.55 259.197 63.18C258.927 63.8 258.532 64.34 258.012 64.8C257.492 65.25 256.847 65.605 256.077 65.865C255.317 66.115 254.442 66.24 253.452 66.24C252.922 66.24 252.402 66.19 251.892 66.09C251.392 66 250.907 65.87 250.437 65.7C249.977 65.53 249.547 65.33 249.147 65.1C248.757 64.87 248.412 64.62 248.112 64.35L248.967 62.94C249.077 62.77 249.207 62.64 249.357 62.55C249.507 62.46 249.697 62.415 249.927 62.415C250.157 62.415 250.372 62.48 250.572 62.61C250.782 62.74 251.022 62.88 251.292 63.03C251.562 63.18 251.877 63.32 252.237 63.45C252.607 63.58 253.072 63.645 253.632 63.645C254.072 63.645 254.447 63.595 254.757 63.495C255.077 63.385 255.337 63.245 255.537 63.075C255.747 62.905 255.897 62.71 255.987 62.49C256.087 62.26 256.137 62.025 256.137 61.785C256.137 61.425 256.027 61.13 255.807 60.9C255.597 60.67 255.312 60.47 254.952 60.3C254.602 60.13 254.197 59.98 253.737 59.85C253.287 59.71 252.822 59.56 252.342 59.4C251.872 59.24 251.407 59.055 250.947 58.845C250.497 58.625 250.092 58.35 249.732 58.02C249.382 57.69 249.097 57.285 248.877 56.805C248.667 56.325 248.562 55.745 248.562 55.065C248.562 54.435 248.687 53.835 248.937 53.265C249.187 52.695 249.552 52.2 250.032 51.78C250.522 51.35 251.127 51.01 251.847 50.76C252.577 50.5 253.417 50.37 254.367 50.37C255.427 50.37 256.392 50.545 257.262 50.895C258.132 51.245 258.857 51.705 259.437 52.275L258.597 53.61Z" fill="#2F4F4F"/>
<path d="M112.642 16.155C113.432 16.155 114.212 16.285 114.982 16.545C115.752 16.805 116.442 17.205 117.052 17.745C117.662 18.285 118.152 18.97 118.522 19.8C118.902 20.62 119.092 21.59 119.092 22.71C119.092 23.73 118.902 24.7 118.522 25.62C118.142 26.53 117.602 27.33 116.902 28.02C116.212 28.7 115.377 29.24 114.397 29.64C113.417 30.04 112.332 30.24 111.142 30.24C109.922 30.24 108.827 30.05 107.857 29.67C106.887 29.28 106.062 28.74 105.382 28.05C104.712 27.36 104.197 26.535 103.837 25.575C103.487 24.615 103.312 23.56 103.312 22.41C103.312 21.32 103.522 20.235 103.942 19.155C104.362 18.075 104.982 16.975 105.802 15.855L110.722 9.21C110.942 8.91 111.272 8.66 111.712 8.46C112.152 8.25 112.652 8.145 113.212 8.145H117.352L110.872 15.885C110.772 15.995 110.672 16.11 110.572 16.23C110.482 16.34 110.392 16.45 110.302 16.56C110.652 16.43 111.017 16.33 111.397 16.26C111.787 16.19 112.202 16.155 112.642 16.155ZM107.782 23.04C107.782 23.58 107.847 24.065 107.977 24.495C108.107 24.925 108.307 25.295 108.577 25.605C108.847 25.915 109.187 26.155 109.597 26.325C110.007 26.485 110.492 26.565 111.052 26.565C111.532 26.565 111.977 26.475 112.387 26.295C112.807 26.115 113.167 25.87 113.467 25.56C113.767 25.24 114.002 24.87 114.172 24.45C114.352 24.02 114.442 23.555 114.442 23.055C114.442 22.495 114.357 21.995 114.187 21.555C114.027 21.115 113.797 20.745 113.497 20.445C113.197 20.145 112.832 19.915 112.402 19.755C111.982 19.595 111.512 19.515 110.992 19.515C110.522 19.515 110.092 19.6 109.702 19.77C109.312 19.93 108.972 20.165 108.682 20.475C108.402 20.785 108.182 21.155 108.022 21.585C107.862 22.015 107.782 22.5 107.782 23.04ZM128.755 7.905C129.835 7.905 130.805 8.065 131.665 8.385C132.535 8.695 133.275 9.13 133.885 9.69C134.495 10.25 134.96 10.92 135.28 11.7C135.61 12.47 135.775 13.32 135.775 14.25C135.775 15.05 135.66 15.79 135.43 16.47C135.21 17.15 134.905 17.8 134.515 18.42C134.125 19.03 133.67 19.625 133.15 20.205C132.64 20.775 132.095 21.355 131.515 21.945L127.24 26.325C127.79 26.165 128.33 26.04 128.86 25.95C129.4 25.85 129.905 25.8 130.375 25.8H134.455C134.955 25.8 135.35 25.94 135.64 26.22C135.93 26.49 136.075 26.85 136.075 27.3V30H120.715V28.5C120.715 28.21 120.775 27.9 120.895 27.57C121.015 27.24 121.225 26.94 121.525 26.67L127.825 20.325C128.365 19.785 128.835 19.27 129.235 18.78C129.635 18.29 129.965 17.81 130.225 17.34C130.485 16.86 130.68 16.385 130.81 15.915C130.94 15.435 131.005 14.93 131.005 14.4C131.005 13.53 130.795 12.865 130.375 12.405C129.965 11.935 129.335 11.7 128.485 11.7C128.135 11.7 127.815 11.75 127.525 11.85C127.235 11.95 126.975 12.085 126.745 12.255C126.515 12.425 126.315 12.625 126.145 12.855C125.985 13.085 125.855 13.335 125.755 13.605C125.595 14.055 125.39 14.38 125.14 14.58C124.9 14.78 124.57 14.88 124.15 14.88C124.05 14.88 123.94 14.875 123.82 14.865C123.71 14.855 123.595 14.84 123.475 14.82L121.015 14.385C121.175 13.295 121.48 12.345 121.93 11.535C122.39 10.725 122.955 10.05 123.625 9.51C124.305 8.97 125.08 8.57 125.95 8.31C126.82 8.04 127.755 7.905 128.755 7.905ZM148.347 13.44C148.347 14.24 148.202 14.97 147.912 15.63C147.622 16.29 147.237 16.86 146.757 17.34C146.277 17.81 145.717 18.175 145.077 18.435C144.447 18.695 143.787 18.825 143.097 18.825C142.337 18.825 141.637 18.695 140.997 18.435C140.367 18.175 139.817 17.81 139.347 17.34C138.887 16.86 138.527 16.29 138.267 15.63C138.007 14.97 137.877 14.24 137.877 13.44C137.877 12.61 138.007 11.86 138.267 11.19C138.527 10.51 138.887 9.93 139.347 9.45C139.817 8.97 140.367 8.6 140.997 8.34C141.637 8.07 142.337 7.935 143.097 7.935C143.857 7.935 144.557 8.07 145.197 8.34C145.847 8.6 146.402 8.97 146.862 9.45C147.332 9.93 147.697 10.51 147.957 11.19C148.217 11.86 148.347 12.61 148.347 13.44ZM144.777 13.44C144.777 12.93 144.732 12.51 144.642 12.18C144.562 11.84 144.447 11.57 144.297 11.37C144.147 11.17 143.967 11.03 143.757 10.95C143.557 10.87 143.337 10.83 143.097 10.83C142.857 10.83 142.637 10.87 142.437 10.95C142.237 11.03 142.067 11.17 141.927 11.37C141.787 11.57 141.677 11.84 141.597 12.18C141.517 12.51 141.477 12.93 141.477 13.44C141.477 13.92 141.517 14.32 141.597 14.64C141.677 14.96 141.787 15.215 141.927 15.405C142.067 15.595 142.237 15.73 142.437 15.81C142.637 15.89 142.857 15.93 143.097 15.93C143.337 15.93 143.557 15.89 143.757 15.81C143.967 15.73 144.147 15.595 144.297 15.405C144.447 15.215 144.562 14.96 144.642 14.64C144.732 14.32 144.777 13.92 144.777 13.44ZM155.217 8.835C155.367 8.665 155.552 8.51 155.772 8.37C155.992 8.22 156.297 8.145 156.687 8.145H160.077L143.607 29.34C143.457 29.53 143.267 29.69 143.037 29.82C142.817 29.94 142.547 30 142.227 30H138.747L155.217 8.835ZM160.917 24.87C160.917 25.67 160.772 26.405 160.482 27.075C160.192 27.735 159.807 28.305 159.327 28.785C158.847 29.255 158.287 29.62 157.647 29.88C157.017 30.14 156.357 30.27 155.667 30.27C154.907 30.27 154.207 30.14 153.567 29.88C152.937 29.62 152.387 29.255 151.917 28.785C151.457 28.305 151.097 27.735 150.837 27.075C150.577 26.405 150.447 25.67 150.447 24.87C150.447 24.04 150.577 23.29 150.837 22.62C151.097 21.94 151.457 21.36 151.917 20.88C152.387 20.4 152.937 20.03 153.567 19.77C154.207 19.5 154.907 19.365 155.667 19.365C156.427 19.365 157.127 19.5 157.767 19.77C158.417 20.03 158.972 20.4 159.432 20.88C159.902 21.36 160.267 21.94 160.527 22.62C160.787 23.29 160.917 24.04 160.917 24.87ZM157.347 24.87C157.347 24.37 157.302 23.955 157.212 23.625C157.132 23.285 157.017 23.015 156.867 22.815C156.717 22.615 156.537 22.475 156.327 22.395C156.127 22.315 155.907 22.275 155.667 22.275C155.427 22.275 155.207 22.315 155.007 22.395C154.807 22.475 154.637 22.615 154.497 22.815C154.357 23.015 154.247 23.285 154.167 23.625C154.087 23.955 154.047 24.37 154.047 24.87C154.047 25.35 154.087 25.75 154.167 26.07C154.247 26.39 154.357 26.645 154.497 26.835C154.637 27.025 154.807 27.16 155.007 27.24C155.207 27.32 155.427 27.36 155.667 27.36C155.907 27.36 156.127 27.32 156.327 27.24C156.537 27.16 156.717 27.025 156.867 26.835C157.017 26.645 157.132 26.39 157.212 26.07C157.302 25.75 157.347 25.35 157.347 24.87Z" fill="#303030"/>
</svg>
