<svg width="682" height="219" viewBox="0 0 682 219" fill="none" xmlns="http://www.w3.org/2000/svg">
<rect width="682" height="219" fill="white"/>
<rect x="178" y="15" width="327" height="189.071" fill="#F0F0F0"/>
<rect x="182" y="19" width="180" height="182" fill="#181615"/>
<rect x="362" y="19" width="139" height="182" fill="#418694"/>
<path d="M261.655 31.432C261.751 31.432 261.831 31.4373 261.895 31.448C261.959 31.4533 262.015 31.4693 262.063 31.496C262.117 31.5173 262.167 31.552 262.215 31.6C262.263 31.6427 262.317 31.7013 262.375 31.776L268.447 39.512C268.426 39.3253 268.41 39.144 268.399 38.968C268.394 38.7867 268.391 38.6187 268.391 38.464V31.432H270.287V43H269.175C269.005 43 268.863 42.9733 268.751 42.92C268.639 42.8667 268.53 42.7707 268.423 42.632L262.375 34.928C262.391 35.0987 262.402 35.2693 262.407 35.44C262.418 35.6053 262.423 35.7573 262.423 35.896V43H260.527V31.432H261.655ZM276.013 34.664C276.626 34.664 277.181 34.7627 277.677 34.96C278.178 35.1573 278.605 35.4373 278.957 35.8C279.309 36.1627 279.581 36.6053 279.773 37.128C279.965 37.6507 280.061 38.2347 280.061 38.88C280.061 39.5307 279.965 40.1173 279.773 40.64C279.581 41.1627 279.309 41.608 278.957 41.976C278.605 42.344 278.178 42.6267 277.677 42.824C277.181 43.0213 276.626 43.12 276.013 43.12C275.4 43.12 274.842 43.0213 274.341 42.824C273.84 42.6267 273.41 42.344 273.053 41.976C272.701 41.608 272.426 41.1627 272.229 40.64C272.037 40.1173 271.941 39.5307 271.941 38.88C271.941 38.2347 272.037 37.6507 272.229 37.128C272.426 36.6053 272.701 36.1627 273.053 35.8C273.41 35.4373 273.84 35.1573 274.341 34.96C274.842 34.7627 275.4 34.664 276.013 34.664ZM276.013 41.6C276.696 41.6 277.2 41.3707 277.525 40.912C277.856 40.4533 278.021 39.7813 278.021 38.896C278.021 38.0107 277.856 37.336 277.525 36.872C277.2 36.408 276.696 36.176 276.013 36.176C275.32 36.176 274.808 36.4107 274.477 36.88C274.146 37.344 273.981 38.016 273.981 38.896C273.981 39.776 274.146 40.448 274.477 40.912C274.808 41.3707 275.32 41.6 276.013 41.6ZM233.462 57.48V62H231.31V50.432H234.838C235.628 50.432 236.302 50.5147 236.862 50.68C237.428 50.84 237.889 51.0667 238.246 51.36C238.609 51.6533 238.873 52.0053 239.038 52.416C239.209 52.8213 239.294 53.2693 239.294 53.76C239.294 54.1493 239.236 54.5173 239.118 54.864C239.006 55.2107 238.841 55.5253 238.622 55.808C238.409 56.0907 238.142 56.3387 237.822 56.552C237.508 56.7653 237.148 56.936 236.742 57.064C237.014 57.2187 237.249 57.44 237.446 57.728L240.342 62H238.406C238.22 62 238.06 61.9627 237.926 61.888C237.798 61.8133 237.689 61.7067 237.598 61.568L235.166 57.864C235.076 57.7253 234.974 57.6267 234.862 57.568C234.756 57.5093 234.596 57.48 234.382 57.48H233.462ZM233.462 55.936H234.806C235.212 55.936 235.564 55.8853 235.862 55.784C236.166 55.6827 236.414 55.544 236.606 55.368C236.804 55.1867 236.95 54.9733 237.046 54.728C237.142 54.4827 237.19 54.2133 237.19 53.92C237.19 53.3333 236.996 52.8827 236.606 52.568C236.222 52.2533 235.633 52.096 234.838 52.096H233.462V55.936ZM245.003 53.664C245.52 53.664 245.995 53.7467 246.427 53.912C246.864 54.0773 247.24 54.32 247.555 54.64C247.869 54.9547 248.115 55.344 248.291 55.808C248.467 56.2667 248.555 56.792 248.555 57.384C248.555 57.5333 248.547 57.6587 248.531 57.76C248.52 57.856 248.496 57.9333 248.459 57.992C248.427 58.0453 248.381 58.0853 248.323 58.112C248.264 58.1333 248.189 58.144 248.099 58.144H243.027C243.085 58.9867 243.312 59.6053 243.707 60C244.101 60.3947 244.624 60.592 245.275 60.592C245.595 60.592 245.869 60.5547 246.099 60.48C246.333 60.4053 246.536 60.3227 246.707 60.232C246.883 60.1413 247.035 60.0587 247.163 59.984C247.296 59.9093 247.424 59.872 247.547 59.872C247.627 59.872 247.696 59.888 247.755 59.92C247.813 59.952 247.864 59.9973 247.907 60.056L248.483 60.776C248.264 61.032 248.019 61.248 247.747 61.424C247.475 61.5947 247.189 61.7333 246.891 61.84C246.597 61.9413 246.296 62.0133 245.987 62.056C245.683 62.0987 245.387 62.12 245.099 62.12C244.528 62.12 243.997 62.0267 243.507 61.84C243.016 61.648 242.589 61.368 242.227 61C241.864 60.6267 241.579 60.168 241.371 59.624C241.163 59.0747 241.059 58.44 241.059 57.72C241.059 57.16 241.149 56.6347 241.331 56.144C241.512 55.648 241.771 55.2187 242.107 54.856C242.448 54.488 242.861 54.1973 243.347 53.984C243.837 53.7707 244.389 53.664 245.003 53.664ZM245.043 55.08C244.467 55.08 244.016 55.2427 243.691 55.568C243.365 55.8933 243.157 56.3547 243.067 56.952H246.779C246.779 56.696 246.744 56.456 246.675 56.232C246.605 56.0027 246.499 55.8027 246.355 55.632C246.211 55.4613 246.029 55.328 245.811 55.232C245.592 55.1307 245.336 55.08 245.043 55.08ZM250.158 62V53.792H251.366C251.622 53.792 251.79 53.912 251.87 54.152L252.006 54.8C252.171 54.6293 252.344 54.4747 252.526 54.336C252.712 54.1973 252.907 54.0773 253.11 53.976C253.318 53.8747 253.539 53.7973 253.774 53.744C254.008 53.6907 254.264 53.664 254.542 53.664C254.99 53.664 255.387 53.7413 255.734 53.896C256.08 54.0453 256.368 54.2587 256.598 54.536C256.832 54.808 257.008 55.136 257.126 55.52C257.248 55.8987 257.31 56.3173 257.31 56.776V62H255.334V56.776C255.334 56.2747 255.216 55.888 254.982 55.616C254.752 55.3387 254.406 55.2 253.942 55.2C253.6 55.2 253.28 55.2773 252.982 55.432C252.683 55.5867 252.4 55.7973 252.134 56.064V62H250.158ZM262.755 53.664C263.369 53.664 263.923 53.7627 264.419 53.96C264.921 54.1573 265.347 54.4373 265.699 54.8C266.051 55.1627 266.323 55.6053 266.515 56.128C266.707 56.6507 266.803 57.2347 266.803 57.88C266.803 58.5307 266.707 59.1173 266.515 59.64C266.323 60.1627 266.051 60.608 265.699 60.976C265.347 61.344 264.921 61.6267 264.419 61.824C263.923 62.0213 263.369 62.12 262.755 62.12C262.142 62.12 261.585 62.0213 261.083 61.824C260.582 61.6267 260.153 61.344 259.795 60.976C259.443 60.608 259.169 60.1627 258.971 59.64C258.779 59.1173 258.683 58.5307 258.683 57.88C258.683 57.2347 258.779 56.6507 258.971 56.128C259.169 55.6053 259.443 55.1627 259.795 54.8C260.153 54.4373 260.582 54.1573 261.083 53.96C261.585 53.7627 262.142 53.664 262.755 53.664ZM262.755 60.6C263.438 60.6 263.942 60.3707 264.267 59.912C264.598 59.4533 264.763 58.7813 264.763 57.896C264.763 57.0107 264.598 56.336 264.267 55.872C263.942 55.408 263.438 55.176 262.755 55.176C262.062 55.176 261.55 55.4107 261.219 55.88C260.889 56.344 260.723 57.016 260.723 57.896C260.723 58.776 260.889 59.448 261.219 59.912C261.55 60.3707 262.062 60.6 262.755 60.6ZM272.191 62H270.399L267.135 53.792H268.775C268.919 53.792 269.039 53.8267 269.135 53.896C269.237 53.9653 269.306 54.0533 269.343 54.16L270.927 58.544C271.018 58.8 271.093 59.0507 271.151 59.296C271.215 59.5413 271.271 59.7867 271.319 60.032C271.367 59.7867 271.421 59.5413 271.479 59.296C271.543 59.0507 271.623 58.8 271.719 58.544L273.343 54.16C273.381 54.0533 273.447 53.9653 273.543 53.896C273.639 53.8267 273.754 53.792 273.887 53.792H275.447L272.191 62ZM283.043 62H282.155C281.968 62 281.821 61.9733 281.715 61.92C281.608 61.8613 281.528 61.7467 281.475 61.576L281.299 60.992C281.091 61.1787 280.885 61.344 280.683 61.488C280.485 61.6267 280.28 61.744 280.067 61.84C279.853 61.936 279.627 62.008 279.387 62.056C279.147 62.104 278.88 62.128 278.587 62.128C278.24 62.128 277.92 62.0827 277.627 61.992C277.333 61.896 277.08 61.7547 276.867 61.568C276.659 61.3813 276.496 61.1493 276.379 60.872C276.261 60.5947 276.203 60.272 276.203 59.904C276.203 59.5947 276.283 59.2907 276.443 58.992C276.608 58.688 276.88 58.416 277.259 58.176C277.637 57.9307 278.141 57.728 278.771 57.568C279.4 57.408 280.181 57.3173 281.115 57.296V56.816C281.115 56.2667 280.997 55.8613 280.763 55.6C280.533 55.3333 280.197 55.2 279.755 55.2C279.435 55.2 279.168 55.2373 278.955 55.312C278.741 55.3867 278.555 55.472 278.395 55.568C278.24 55.6587 278.096 55.7413 277.963 55.816C277.829 55.8907 277.683 55.928 277.523 55.928C277.389 55.928 277.275 55.8933 277.179 55.824C277.083 55.7547 277.005 55.6693 276.947 55.568L276.587 54.936C277.531 54.072 278.669 53.64 280.003 53.64C280.483 53.64 280.909 53.72 281.283 53.88C281.661 54.0347 281.981 54.2533 282.243 54.536C282.504 54.8133 282.701 55.1467 282.835 55.536C282.973 55.9253 283.043 56.352 283.043 56.816V62ZM279.203 60.768C279.405 60.768 279.592 60.7493 279.763 60.712C279.933 60.6747 280.093 60.6187 280.243 60.544C280.397 60.4693 280.544 60.3787 280.683 60.272C280.827 60.16 280.971 60.0293 281.115 59.88V58.496C280.539 58.5227 280.056 58.5733 279.667 58.648C279.283 58.7173 278.973 58.808 278.739 58.92C278.504 59.032 278.336 59.1627 278.235 59.312C278.139 59.4613 278.091 59.624 278.091 59.8C278.091 60.1467 278.192 60.3947 278.395 60.544C278.603 60.6933 278.872 60.768 279.203 60.768ZM285.01 62V50.112H286.986V54.8C287.311 54.4533 287.679 54.1787 288.09 53.976C288.5 53.768 288.98 53.664 289.53 53.664C289.978 53.664 290.386 53.7573 290.754 53.944C291.127 54.1253 291.447 54.392 291.714 54.744C291.986 55.096 292.194 55.5307 292.338 56.048C292.487 56.5653 292.562 57.16 292.562 57.832C292.562 58.4453 292.479 59.0133 292.314 59.536C292.148 60.0587 291.911 60.512 291.602 60.896C291.298 61.28 290.927 61.5813 290.49 61.8C290.058 62.0133 289.572 62.12 289.034 62.12C288.783 62.12 288.554 62.0933 288.346 62.04C288.138 61.992 287.948 61.9227 287.778 61.832C287.607 61.7413 287.447 61.632 287.298 61.504C287.154 61.3707 287.015 61.224 286.882 61.064L286.794 61.616C286.762 61.7547 286.706 61.8533 286.626 61.912C286.551 61.9707 286.447 62 286.314 62H285.01ZM288.85 55.2C288.439 55.2 288.087 55.288 287.794 55.464C287.506 55.6347 287.236 55.8773 286.986 56.192V59.872C287.21 60.1493 287.452 60.344 287.714 60.456C287.98 60.5627 288.268 60.616 288.578 60.616C288.876 60.616 289.146 60.56 289.386 60.448C289.626 60.336 289.828 60.1653 289.994 59.936C290.164 59.7067 290.295 59.4187 290.386 59.072C290.476 58.72 290.522 58.3067 290.522 57.832C290.522 57.352 290.482 56.9467 290.402 56.616C290.327 56.28 290.218 56.008 290.074 55.8C289.93 55.592 289.754 55.44 289.546 55.344C289.343 55.248 289.111 55.2 288.85 55.2ZM296.215 50.112V62H294.239V50.112H296.215ZM301.846 53.664C302.364 53.664 302.838 53.7467 303.27 53.912C303.708 54.0773 304.084 54.32 304.398 54.64C304.713 54.9547 304.958 55.344 305.134 55.808C305.31 56.2667 305.398 56.792 305.398 57.384C305.398 57.5333 305.39 57.6587 305.374 57.76C305.364 57.856 305.34 57.9333 305.302 57.992C305.27 58.0453 305.225 58.0853 305.166 58.112C305.108 58.1333 305.033 58.144 304.942 58.144H299.87C299.929 58.9867 300.156 59.6053 300.55 60C300.945 60.3947 301.468 60.592 302.118 60.592C302.438 60.592 302.713 60.5547 302.942 60.48C303.177 60.4053 303.38 60.3227 303.55 60.232C303.726 60.1413 303.878 60.0587 304.006 59.984C304.14 59.9093 304.268 59.872 304.39 59.872C304.47 59.872 304.54 59.888 304.598 59.92C304.657 59.952 304.708 59.9973 304.75 60.056L305.326 60.776C305.108 61.032 304.862 61.248 304.59 61.424C304.318 61.5947 304.033 61.7333 303.734 61.84C303.441 61.9413 303.14 62.0133 302.83 62.056C302.526 62.0987 302.23 62.12 301.942 62.12C301.372 62.12 300.841 62.0267 300.35 61.84C299.86 61.648 299.433 61.368 299.07 61C298.708 60.6267 298.422 60.168 298.214 59.624C298.006 59.0747 297.902 58.44 297.902 57.72C297.902 57.16 297.993 56.6347 298.174 56.144C298.356 55.648 298.614 55.2187 298.95 54.856C299.292 54.488 299.705 54.1973 300.19 53.984C300.681 53.7707 301.233 53.664 301.846 53.664ZM301.886 55.08C301.31 55.08 300.86 55.2427 300.534 55.568C300.209 55.8933 300.001 56.3547 299.91 56.952H303.622C303.622 56.696 303.588 56.456 303.518 56.232C303.449 56.0027 303.342 55.8027 303.198 55.632C303.054 55.4613 302.873 55.328 302.654 55.232C302.436 55.1307 302.18 55.08 301.886 55.08ZM311.873 55.392C311.82 55.4773 311.764 55.5387 311.705 55.576C311.647 55.608 311.572 55.624 311.481 55.624C311.385 55.624 311.281 55.5973 311.169 55.544C311.063 55.4907 310.937 55.432 310.793 55.368C310.649 55.2987 310.484 55.2373 310.297 55.184C310.116 55.1307 309.9 55.104 309.649 55.104C309.26 55.104 308.953 55.1867 308.729 55.352C308.505 55.5173 308.393 55.7333 308.393 56C308.393 56.176 308.449 56.3253 308.561 56.448C308.679 56.5653 308.831 56.6693 309.017 56.76C309.209 56.8507 309.425 56.9333 309.665 57.008C309.905 57.0773 310.151 57.1547 310.401 57.24C310.652 57.3253 310.897 57.424 311.137 57.536C311.377 57.6427 311.591 57.7813 311.777 57.952C311.969 58.1173 312.121 58.3173 312.233 58.552C312.351 58.7867 312.409 59.0693 312.409 59.4C312.409 59.7947 312.337 60.16 312.193 60.496C312.049 60.8267 311.839 61.1147 311.561 61.36C311.284 61.6 310.94 61.7893 310.529 61.928C310.124 62.0613 309.657 62.128 309.129 62.128C308.847 62.128 308.569 62.1013 308.297 62.048C308.031 62 307.772 61.9307 307.521 61.84C307.276 61.7493 307.047 61.6427 306.833 61.52C306.625 61.3973 306.441 61.264 306.281 61.12L306.737 60.368C306.796 60.2773 306.865 60.208 306.945 60.16C307.025 60.112 307.127 60.088 307.249 60.088C307.372 60.088 307.487 60.1227 307.593 60.192C307.705 60.2613 307.833 60.336 307.977 60.416C308.121 60.496 308.289 60.5707 308.481 60.64C308.679 60.7093 308.927 60.744 309.225 60.744C309.46 60.744 309.66 60.7173 309.825 60.664C309.996 60.6053 310.135 60.5307 310.241 60.44C310.353 60.3493 310.433 60.2453 310.481 60.128C310.535 60.0053 310.561 59.88 310.561 59.752C310.561 59.56 310.503 59.4027 310.385 59.28C310.273 59.1573 310.121 59.0507 309.929 58.96C309.743 58.8693 309.527 58.7893 309.281 58.72C309.041 58.6453 308.793 58.5653 308.537 58.48C308.287 58.3947 308.039 58.296 307.793 58.184C307.553 58.0667 307.337 57.92 307.145 57.744C306.959 57.568 306.807 57.352 306.689 57.096C306.577 56.84 306.521 56.5307 306.521 56.168C306.521 55.832 306.588 55.512 306.721 55.208C306.855 54.904 307.049 54.64 307.305 54.416C307.567 54.1867 307.889 54.0053 308.273 53.872C308.663 53.7333 309.111 53.664 309.617 53.664C310.183 53.664 310.697 53.7573 311.161 53.944C311.625 54.1307 312.012 54.376 312.321 54.68L311.873 55.392Z" fill="white"/>
<path d="M264.156 115.368C264.156 115.539 264.129 115.693 264.076 115.832C264.023 115.971 263.937 116.093 263.82 116.2C263.708 116.301 263.559 116.381 263.372 116.44C263.185 116.493 262.961 116.52 262.7 116.52H259.916L259.588 118.448C259.807 118.411 260.017 118.384 260.22 118.368C260.423 118.347 260.62 118.336 260.812 118.336C261.425 118.336 261.967 118.429 262.436 118.616C262.905 118.803 263.3 119.059 263.62 119.384C263.94 119.704 264.18 120.083 264.34 120.52C264.505 120.952 264.588 121.416 264.588 121.912C264.588 122.536 264.476 123.107 264.252 123.624C264.033 124.136 263.727 124.579 263.332 124.952C262.937 125.325 262.465 125.616 261.916 125.824C261.372 126.027 260.775 126.128 260.124 126.128C259.745 126.128 259.383 126.088 259.036 126.008C258.695 125.928 258.372 125.821 258.068 125.688C257.769 125.549 257.492 125.392 257.236 125.216C256.98 125.035 256.748 124.843 256.54 124.64L257.308 123.616C257.388 123.509 257.481 123.429 257.588 123.376C257.695 123.317 257.809 123.288 257.932 123.288C258.092 123.288 258.241 123.333 258.38 123.424C258.524 123.509 258.679 123.605 258.844 123.712C259.015 123.813 259.212 123.907 259.436 123.992C259.66 124.077 259.937 124.12 260.268 124.12C260.599 124.12 260.881 124.067 261.116 123.96C261.351 123.848 261.54 123.699 261.684 123.512C261.833 123.32 261.94 123.099 262.004 122.848C262.073 122.592 262.108 122.32 262.108 122.032C262.108 121.467 261.948 121.037 261.628 120.744C261.308 120.445 260.855 120.296 260.268 120.296C259.745 120.296 259.233 120.395 258.732 120.592L257.196 120.176L258.188 114.344H264.156V115.368ZM274.301 114.344V115.384C274.301 115.677 274.269 115.915 274.205 116.096C274.141 116.277 274.08 116.432 274.021 116.56L269.949 125.184C269.842 125.413 269.685 125.608 269.477 125.768C269.269 125.923 268.994 126 268.653 126H266.845L271.005 117.656C271.117 117.427 271.237 117.221 271.365 117.04C271.498 116.859 271.642 116.685 271.797 116.52H266.669C266.594 116.52 266.522 116.507 266.453 116.48C266.389 116.448 266.33 116.408 266.277 116.36C266.229 116.307 266.189 116.248 266.157 116.184C266.125 116.115 266.109 116.045 266.109 115.976V114.344H274.301ZM280.718 117.168C280.718 117.595 280.641 117.984 280.486 118.336C280.332 118.688 280.126 118.992 279.87 119.248C279.614 119.499 279.316 119.693 278.974 119.832C278.638 119.971 278.286 120.04 277.918 120.04C277.513 120.04 277.14 119.971 276.798 119.832C276.462 119.693 276.169 119.499 275.918 119.248C275.673 118.992 275.481 118.688 275.342 118.336C275.204 117.984 275.134 117.595 275.134 117.168C275.134 116.725 275.204 116.325 275.342 115.968C275.481 115.605 275.673 115.296 275.918 115.04C276.169 114.784 276.462 114.587 276.798 114.448C277.14 114.304 277.513 114.232 277.918 114.232C278.324 114.232 278.697 114.304 279.038 114.448C279.385 114.587 279.681 114.784 279.926 115.04C280.177 115.296 280.372 115.605 280.51 115.968C280.649 116.325 280.718 116.725 280.718 117.168ZM278.814 117.168C278.814 116.896 278.79 116.672 278.742 116.496C278.7 116.315 278.638 116.171 278.558 116.064C278.478 115.957 278.382 115.883 278.27 115.84C278.164 115.797 278.046 115.776 277.918 115.776C277.79 115.776 277.673 115.797 277.566 115.84C277.46 115.883 277.369 115.957 277.294 116.064C277.22 116.171 277.161 116.315 277.118 116.496C277.076 116.672 277.054 116.896 277.054 117.168C277.054 117.424 277.076 117.637 277.118 117.808C277.161 117.979 277.22 118.115 277.294 118.216C277.369 118.317 277.46 118.389 277.566 118.432C277.673 118.475 277.79 118.496 277.918 118.496C278.046 118.496 278.164 118.475 278.27 118.432C278.382 118.389 278.478 118.317 278.558 118.216C278.638 118.115 278.7 117.979 278.742 117.808C278.79 117.637 278.814 117.424 278.814 117.168ZM284.382 114.712C284.462 114.621 284.561 114.539 284.678 114.464C284.796 114.384 284.958 114.344 285.166 114.344H286.974L278.19 125.648C278.11 125.749 278.009 125.835 277.886 125.904C277.769 125.968 277.625 126 277.454 126H275.598L284.382 114.712ZM287.422 123.264C287.422 123.691 287.345 124.083 287.19 124.44C287.036 124.792 286.83 125.096 286.574 125.352C286.318 125.603 286.02 125.797 285.678 125.936C285.342 126.075 284.99 126.144 284.622 126.144C284.217 126.144 283.844 126.075 283.502 125.936C283.166 125.797 282.873 125.603 282.622 125.352C282.377 125.096 282.185 124.792 282.046 124.44C281.908 124.083 281.838 123.691 281.838 123.264C281.838 122.821 281.908 122.421 282.046 122.064C282.185 121.701 282.377 121.392 282.622 121.136C282.873 120.88 283.166 120.683 283.502 120.544C283.844 120.4 284.217 120.328 284.622 120.328C285.028 120.328 285.401 120.4 285.742 120.544C286.089 120.683 286.385 120.88 286.63 121.136C286.881 121.392 287.076 121.701 287.214 122.064C287.353 122.421 287.422 122.821 287.422 123.264ZM285.518 123.264C285.518 122.997 285.494 122.776 285.446 122.6C285.404 122.419 285.342 122.275 285.262 122.168C285.182 122.061 285.086 121.987 284.974 121.944C284.868 121.901 284.75 121.88 284.622 121.88C284.494 121.88 284.377 121.901 284.27 121.944C284.164 121.987 284.073 122.061 283.998 122.168C283.924 122.275 283.865 122.419 283.822 122.6C283.78 122.776 283.758 122.997 283.758 123.264C283.758 123.52 283.78 123.733 283.822 123.904C283.865 124.075 283.924 124.211 283.998 124.312C284.073 124.413 284.164 124.485 284.27 124.528C284.377 124.571 284.494 124.592 284.622 124.592C284.75 124.592 284.868 124.571 284.974 124.528C285.086 124.485 285.182 124.413 285.262 124.312C285.342 124.211 285.404 124.075 285.446 123.904C285.494 123.733 285.518 123.52 285.518 123.264Z" fill="white"/>
<path d="M423.98 121.472H425.18V122.864C425.18 122.987 425.137 123.093 425.052 123.184C424.972 123.275 424.855 123.32 424.7 123.32H423.98V126H421.82V123.32H417.132C416.977 123.32 416.836 123.272 416.708 123.176C416.585 123.08 416.508 122.96 416.476 122.816L416.22 121.592L421.612 114.344H423.98V121.472ZM421.82 118.432C421.82 118.245 421.825 118.045 421.836 117.832C421.852 117.613 421.873 117.389 421.9 117.16L418.82 121.472H421.82V118.432ZM430.493 114.216C431.069 114.216 431.581 114.299 432.029 114.464C432.477 114.624 432.856 114.843 433.165 115.12C433.474 115.397 433.709 115.72 433.869 116.088C434.029 116.451 434.109 116.835 434.109 117.24C434.109 117.608 434.072 117.933 433.997 118.216C433.922 118.493 433.81 118.736 433.661 118.944C433.517 119.147 433.336 119.32 433.117 119.464C432.904 119.608 432.658 119.728 432.381 119.824C433.672 120.272 434.317 121.149 434.317 122.456C434.317 123.075 434.205 123.613 433.981 124.072C433.757 124.531 433.456 124.912 433.077 125.216C432.704 125.52 432.269 125.749 431.773 125.904C431.277 126.053 430.76 126.128 430.221 126.128C429.666 126.128 429.173 126.069 428.741 125.952C428.309 125.829 427.925 125.643 427.589 125.392C427.253 125.136 426.957 124.811 426.701 124.416C426.45 124.021 426.232 123.552 426.045 123.008L427.149 122.56C427.245 122.517 427.338 122.488 427.429 122.472C427.525 122.456 427.618 122.448 427.709 122.448C427.88 122.448 428.032 122.483 428.165 122.552C428.304 122.616 428.408 122.712 428.477 122.84C428.717 123.283 428.97 123.605 429.237 123.808C429.509 124.005 429.826 124.104 430.189 124.104C430.466 124.104 430.706 124.059 430.909 123.968C431.117 123.872 431.288 123.752 431.421 123.608C431.56 123.459 431.664 123.291 431.733 123.104C431.802 122.917 431.837 122.728 431.837 122.536C431.837 122.285 431.818 122.061 431.781 121.864C431.749 121.661 431.653 121.488 431.493 121.344C431.333 121.2 431.09 121.091 430.765 121.016C430.445 120.936 429.997 120.896 429.421 120.896V119.184C429.906 119.184 430.298 119.147 430.597 119.072C430.896 118.997 431.125 118.896 431.285 118.768C431.45 118.635 431.56 118.475 431.613 118.288C431.666 118.101 431.693 117.896 431.693 117.672C431.693 117.213 431.581 116.861 431.357 116.616C431.138 116.365 430.802 116.24 430.349 116.24C430.162 116.24 429.992 116.267 429.837 116.32C429.682 116.373 429.544 116.445 429.421 116.536C429.298 116.627 429.192 116.733 429.101 116.856C429.016 116.979 428.946 117.112 428.893 117.256C428.808 117.496 428.698 117.669 428.565 117.776C428.437 117.883 428.261 117.936 428.037 117.936C427.984 117.936 427.925 117.933 427.861 117.928C427.802 117.923 427.741 117.915 427.677 117.904L426.365 117.672C426.45 117.091 426.613 116.584 426.853 116.152C427.098 115.72 427.4 115.36 427.757 115.072C428.12 114.784 428.533 114.571 428.997 114.432C429.461 114.288 429.96 114.216 430.493 114.216ZM440.718 117.168C440.718 117.595 440.641 117.984 440.486 118.336C440.332 118.688 440.126 118.992 439.87 119.248C439.614 119.499 439.316 119.693 438.974 119.832C438.638 119.971 438.286 120.04 437.918 120.04C437.513 120.04 437.14 119.971 436.798 119.832C436.462 119.693 436.169 119.499 435.918 119.248C435.673 118.992 435.481 118.688 435.342 118.336C435.204 117.984 435.134 117.595 435.134 117.168C435.134 116.725 435.204 116.325 435.342 115.968C435.481 115.605 435.673 115.296 435.918 115.04C436.169 114.784 436.462 114.587 436.798 114.448C437.14 114.304 437.513 114.232 437.918 114.232C438.324 114.232 438.697 114.304 439.038 114.448C439.385 114.587 439.681 114.784 439.926 115.04C440.177 115.296 440.372 115.605 440.51 115.968C440.649 116.325 440.718 116.725 440.718 117.168ZM438.814 117.168C438.814 116.896 438.79 116.672 438.742 116.496C438.7 116.315 438.638 116.171 438.558 116.064C438.478 115.957 438.382 115.883 438.27 115.84C438.164 115.797 438.046 115.776 437.918 115.776C437.79 115.776 437.673 115.797 437.566 115.84C437.46 115.883 437.369 115.957 437.294 116.064C437.22 116.171 437.161 116.315 437.118 116.496C437.076 116.672 437.054 116.896 437.054 117.168C437.054 117.424 437.076 117.637 437.118 117.808C437.161 117.979 437.22 118.115 437.294 118.216C437.369 118.317 437.46 118.389 437.566 118.432C437.673 118.475 437.79 118.496 437.918 118.496C438.046 118.496 438.164 118.475 438.27 118.432C438.382 118.389 438.478 118.317 438.558 118.216C438.638 118.115 438.7 117.979 438.742 117.808C438.79 117.637 438.814 117.424 438.814 117.168ZM444.382 114.712C444.462 114.621 444.561 114.539 444.678 114.464C444.796 114.384 444.958 114.344 445.166 114.344H446.974L438.19 125.648C438.11 125.749 438.009 125.835 437.886 125.904C437.769 125.968 437.625 126 437.454 126H435.598L444.382 114.712ZM447.422 123.264C447.422 123.691 447.345 124.083 447.19 124.44C447.036 124.792 446.83 125.096 446.574 125.352C446.318 125.603 446.02 125.797 445.678 125.936C445.342 126.075 444.99 126.144 444.622 126.144C444.217 126.144 443.844 126.075 443.502 125.936C443.166 125.797 442.873 125.603 442.622 125.352C442.377 125.096 442.185 124.792 442.046 124.44C441.908 124.083 441.838 123.691 441.838 123.264C441.838 122.821 441.908 122.421 442.046 122.064C442.185 121.701 442.377 121.392 442.622 121.136C442.873 120.88 443.166 120.683 443.502 120.544C443.844 120.4 444.217 120.328 444.622 120.328C445.028 120.328 445.401 120.4 445.742 120.544C446.089 120.683 446.385 120.88 446.63 121.136C446.881 121.392 447.076 121.701 447.214 122.064C447.353 122.421 447.422 122.821 447.422 123.264ZM445.518 123.264C445.518 122.997 445.494 122.776 445.446 122.6C445.404 122.419 445.342 122.275 445.262 122.168C445.182 122.061 445.086 121.987 444.974 121.944C444.868 121.901 444.75 121.88 444.622 121.88C444.494 121.88 444.377 121.901 444.27 121.944C444.164 121.987 444.073 122.061 443.998 122.168C443.924 122.275 443.865 122.419 443.822 122.6C443.78 122.776 443.758 122.997 443.758 123.264C443.758 123.52 443.78 123.733 443.822 123.904C443.865 124.075 443.924 124.211 443.998 124.312C444.073 124.413 444.164 124.485 444.27 124.528C444.377 124.571 444.494 124.592 444.622 124.592C444.75 124.592 444.868 124.571 444.974 124.528C445.086 124.485 445.182 124.413 445.262 124.312C445.342 124.211 445.404 124.075 445.446 123.904C445.494 123.733 445.518 123.52 445.518 123.264Z" fill="white"/>
<path d="M393.462 38.48V43H391.31V31.432H394.838C395.628 31.432 396.302 31.5147 396.862 31.68C397.428 31.84 397.889 32.0667 398.246 32.36C398.609 32.6533 398.873 33.0053 399.038 33.416C399.209 33.8213 399.294 34.2693 399.294 34.76C399.294 35.1493 399.236 35.5173 399.118 35.864C399.006 36.2107 398.841 36.5253 398.622 36.808C398.409 37.0907 398.142 37.3387 397.822 37.552C397.508 37.7653 397.148 37.936 396.742 38.064C397.014 38.2187 397.249 38.44 397.446 38.728L400.342 43H398.406C398.22 43 398.06 42.9627 397.926 42.888C397.798 42.8133 397.689 42.7067 397.598 42.568L395.166 38.864C395.076 38.7253 394.974 38.6267 394.862 38.568C394.756 38.5093 394.596 38.48 394.382 38.48H393.462ZM393.462 36.936H394.806C395.212 36.936 395.564 36.8853 395.862 36.784C396.166 36.6827 396.414 36.544 396.606 36.368C396.804 36.1867 396.95 35.9733 397.046 35.728C397.142 35.4827 397.19 35.2133 397.19 34.92C397.19 34.3333 396.996 33.8827 396.606 33.568C396.222 33.2533 395.633 33.096 394.838 33.096H393.462V36.936ZM405.003 34.664C405.52 34.664 405.995 34.7467 406.427 34.912C406.864 35.0773 407.24 35.32 407.555 35.64C407.869 35.9547 408.115 36.344 408.291 36.808C408.467 37.2667 408.555 37.792 408.555 38.384C408.555 38.5333 408.547 38.6587 408.531 38.76C408.52 38.856 408.496 38.9333 408.459 38.992C408.427 39.0453 408.381 39.0853 408.323 39.112C408.264 39.1333 408.189 39.144 408.099 39.144H403.027C403.085 39.9867 403.312 40.6053 403.707 41C404.101 41.3947 404.624 41.592 405.275 41.592C405.595 41.592 405.869 41.5547 406.099 41.48C406.333 41.4053 406.536 41.3227 406.707 41.232C406.883 41.1413 407.035 41.0587 407.163 40.984C407.296 40.9093 407.424 40.872 407.547 40.872C407.627 40.872 407.696 40.888 407.755 40.92C407.813 40.952 407.864 40.9973 407.907 41.056L408.483 41.776C408.264 42.032 408.019 42.248 407.747 42.424C407.475 42.5947 407.189 42.7333 406.891 42.84C406.597 42.9413 406.296 43.0133 405.987 43.056C405.683 43.0987 405.387 43.12 405.099 43.12C404.528 43.12 403.997 43.0267 403.507 42.84C403.016 42.648 402.589 42.368 402.227 42C401.864 41.6267 401.579 41.168 401.371 40.624C401.163 40.0747 401.059 39.44 401.059 38.72C401.059 38.16 401.149 37.6347 401.331 37.144C401.512 36.648 401.771 36.2187 402.107 35.856C402.448 35.488 402.861 35.1973 403.347 34.984C403.837 34.7707 404.389 34.664 405.003 34.664ZM405.043 36.08C404.467 36.08 404.016 36.2427 403.691 36.568C403.365 36.8933 403.157 37.3547 403.067 37.952H406.779C406.779 37.696 406.744 37.456 406.675 37.232C406.605 37.0027 406.499 36.8027 406.355 36.632C406.211 36.4613 406.029 36.328 405.811 36.232C405.592 36.1307 405.336 36.08 405.043 36.08ZM410.158 43V34.792H411.366C411.622 34.792 411.79 34.912 411.87 35.152L412.006 35.8C412.171 35.6293 412.344 35.4747 412.526 35.336C412.712 35.1973 412.907 35.0773 413.11 34.976C413.318 34.8747 413.539 34.7973 413.774 34.744C414.008 34.6907 414.264 34.664 414.542 34.664C414.99 34.664 415.387 34.7413 415.734 34.896C416.08 35.0453 416.368 35.2587 416.598 35.536C416.832 35.808 417.008 36.136 417.126 36.52C417.248 36.8987 417.31 37.3173 417.31 37.776V43H415.334V37.776C415.334 37.2747 415.216 36.888 414.982 36.616C414.752 36.3387 414.406 36.2 413.942 36.2C413.6 36.2 413.28 36.2773 412.982 36.432C412.683 36.5867 412.4 36.7973 412.134 37.064V43H410.158ZM422.755 34.664C423.369 34.664 423.923 34.7627 424.419 34.96C424.921 35.1573 425.347 35.4373 425.699 35.8C426.051 36.1627 426.323 36.6053 426.515 37.128C426.707 37.6507 426.803 38.2347 426.803 38.88C426.803 39.5307 426.707 40.1173 426.515 40.64C426.323 41.1627 426.051 41.608 425.699 41.976C425.347 42.344 424.921 42.6267 424.419 42.824C423.923 43.0213 423.369 43.12 422.755 43.12C422.142 43.12 421.585 43.0213 421.083 42.824C420.582 42.6267 420.153 42.344 419.795 41.976C419.443 41.608 419.169 41.1627 418.971 40.64C418.779 40.1173 418.683 39.5307 418.683 38.88C418.683 38.2347 418.779 37.6507 418.971 37.128C419.169 36.6053 419.443 36.1627 419.795 35.8C420.153 35.4373 420.582 35.1573 421.083 34.96C421.585 34.7627 422.142 34.664 422.755 34.664ZM422.755 41.6C423.438 41.6 423.942 41.3707 424.267 40.912C424.598 40.4533 424.763 39.7813 424.763 38.896C424.763 38.0107 424.598 37.336 424.267 36.872C423.942 36.408 423.438 36.176 422.755 36.176C422.062 36.176 421.55 36.4107 421.219 36.88C420.889 37.344 420.723 38.016 420.723 38.896C420.723 39.776 420.889 40.448 421.219 40.912C421.55 41.3707 422.062 41.6 422.755 41.6ZM432.191 43H430.399L427.135 34.792H428.775C428.919 34.792 429.039 34.8267 429.135 34.896C429.237 34.9653 429.306 35.0533 429.343 35.16L430.927 39.544C431.018 39.8 431.093 40.0507 431.151 40.296C431.215 40.5413 431.271 40.7867 431.319 41.032C431.367 40.7867 431.421 40.5413 431.479 40.296C431.543 40.0507 431.623 39.8 431.719 39.544L433.343 35.16C433.381 35.0533 433.447 34.9653 433.543 34.896C433.639 34.8267 433.754 34.792 433.887 34.792H435.447L432.191 43ZM443.043 43H442.155C441.968 43 441.821 42.9733 441.715 42.92C441.608 42.8613 441.528 42.7467 441.475 42.576L441.299 41.992C441.091 42.1787 440.885 42.344 440.683 42.488C440.485 42.6267 440.28 42.744 440.067 42.84C439.853 42.936 439.627 43.008 439.387 43.056C439.147 43.104 438.88 43.128 438.587 43.128C438.24 43.128 437.92 43.0827 437.627 42.992C437.333 42.896 437.08 42.7547 436.867 42.568C436.659 42.3813 436.496 42.1493 436.379 41.872C436.261 41.5947 436.203 41.272 436.203 40.904C436.203 40.5947 436.283 40.2907 436.443 39.992C436.608 39.688 436.88 39.416 437.259 39.176C437.637 38.9307 438.141 38.728 438.771 38.568C439.4 38.408 440.181 38.3173 441.115 38.296V37.816C441.115 37.2667 440.997 36.8613 440.763 36.6C440.533 36.3333 440.197 36.2 439.755 36.2C439.435 36.2 439.168 36.2373 438.955 36.312C438.741 36.3867 438.555 36.472 438.395 36.568C438.24 36.6587 438.096 36.7413 437.963 36.816C437.829 36.8907 437.683 36.928 437.523 36.928C437.389 36.928 437.275 36.8933 437.179 36.824C437.083 36.7547 437.005 36.6693 436.947 36.568L436.587 35.936C437.531 35.072 438.669 34.64 440.003 34.64C440.483 34.64 440.909 34.72 441.283 34.88C441.661 35.0347 441.981 35.2533 442.243 35.536C442.504 35.8133 442.701 36.1467 442.835 36.536C442.973 36.9253 443.043 37.352 443.043 37.816V43ZM439.203 41.768C439.405 41.768 439.592 41.7493 439.763 41.712C439.933 41.6747 440.093 41.6187 440.243 41.544C440.397 41.4693 440.544 41.3787 440.683 41.272C440.827 41.16 440.971 41.0293 441.115 40.88V39.496C440.539 39.5227 440.056 39.5733 439.667 39.648C439.283 39.7173 438.973 39.808 438.739 39.92C438.504 40.032 438.336 40.1627 438.235 40.312C438.139 40.4613 438.091 40.624 438.091 40.8C438.091 41.1467 438.192 41.3947 438.395 41.544C438.603 41.6933 438.872 41.768 439.203 41.768ZM445.01 43V31.112H446.986V35.8C447.311 35.4533 447.679 35.1787 448.09 34.976C448.5 34.768 448.98 34.664 449.53 34.664C449.978 34.664 450.386 34.7573 450.754 34.944C451.127 35.1253 451.447 35.392 451.714 35.744C451.986 36.096 452.194 36.5307 452.338 37.048C452.487 37.5653 452.562 38.16 452.562 38.832C452.562 39.4453 452.479 40.0133 452.314 40.536C452.148 41.0587 451.911 41.512 451.602 41.896C451.298 42.28 450.927 42.5813 450.49 42.8C450.058 43.0133 449.572 43.12 449.034 43.12C448.783 43.12 448.554 43.0933 448.346 43.04C448.138 42.992 447.948 42.9227 447.778 42.832C447.607 42.7413 447.447 42.632 447.298 42.504C447.154 42.3707 447.015 42.224 446.882 42.064L446.794 42.616C446.762 42.7547 446.706 42.8533 446.626 42.912C446.551 42.9707 446.447 43 446.314 43H445.01ZM448.85 36.2C448.439 36.2 448.087 36.288 447.794 36.464C447.506 36.6347 447.236 36.8773 446.986 37.192V40.872C447.21 41.1493 447.452 41.344 447.714 41.456C447.98 41.5627 448.268 41.616 448.578 41.616C448.876 41.616 449.146 41.56 449.386 41.448C449.626 41.336 449.828 41.1653 449.994 40.936C450.164 40.7067 450.295 40.4187 450.386 40.072C450.476 39.72 450.522 39.3067 450.522 38.832C450.522 38.352 450.482 37.9467 450.402 37.616C450.327 37.28 450.218 37.008 450.074 36.8C449.93 36.592 449.754 36.44 449.546 36.344C449.343 36.248 449.111 36.2 448.85 36.2ZM456.215 31.112V43H454.239V31.112H456.215ZM461.846 34.664C462.364 34.664 462.838 34.7467 463.27 34.912C463.708 35.0773 464.084 35.32 464.398 35.64C464.713 35.9547 464.958 36.344 465.134 36.808C465.31 37.2667 465.398 37.792 465.398 38.384C465.398 38.5333 465.39 38.6587 465.374 38.76C465.364 38.856 465.34 38.9333 465.302 38.992C465.27 39.0453 465.225 39.0853 465.166 39.112C465.108 39.1333 465.033 39.144 464.942 39.144H459.87C459.929 39.9867 460.156 40.6053 460.55 41C460.945 41.3947 461.468 41.592 462.118 41.592C462.438 41.592 462.713 41.5547 462.942 41.48C463.177 41.4053 463.38 41.3227 463.55 41.232C463.726 41.1413 463.878 41.0587 464.006 40.984C464.14 40.9093 464.268 40.872 464.39 40.872C464.47 40.872 464.54 40.888 464.598 40.92C464.657 40.952 464.708 40.9973 464.75 41.056L465.326 41.776C465.108 42.032 464.862 42.248 464.59 42.424C464.318 42.5947 464.033 42.7333 463.734 42.84C463.441 42.9413 463.14 43.0133 462.83 43.056C462.526 43.0987 462.23 43.12 461.942 43.12C461.372 43.12 460.841 43.0267 460.35 42.84C459.86 42.648 459.433 42.368 459.07 42C458.708 41.6267 458.422 41.168 458.214 40.624C458.006 40.0747 457.902 39.44 457.902 38.72C457.902 38.16 457.993 37.6347 458.174 37.144C458.356 36.648 458.614 36.2187 458.95 35.856C459.292 35.488 459.705 35.1973 460.19 34.984C460.681 34.7707 461.233 34.664 461.846 34.664ZM461.886 36.08C461.31 36.08 460.86 36.2427 460.534 36.568C460.209 36.8933 460.001 37.3547 459.91 37.952H463.622C463.622 37.696 463.588 37.456 463.518 37.232C463.449 37.0027 463.342 36.8027 463.198 36.632C463.054 36.4613 462.873 36.328 462.654 36.232C462.436 36.1307 462.18 36.08 461.886 36.08ZM471.873 36.392C471.82 36.4773 471.764 36.5387 471.705 36.576C471.647 36.608 471.572 36.624 471.481 36.624C471.385 36.624 471.281 36.5973 471.169 36.544C471.063 36.4907 470.937 36.432 470.793 36.368C470.649 36.2987 470.484 36.2373 470.297 36.184C470.116 36.1307 469.9 36.104 469.649 36.104C469.26 36.104 468.953 36.1867 468.729 36.352C468.505 36.5173 468.393 36.7333 468.393 37C468.393 37.176 468.449 37.3253 468.561 37.448C468.679 37.5653 468.831 37.6693 469.017 37.76C469.209 37.8507 469.425 37.9333 469.665 38.008C469.905 38.0773 470.151 38.1547 470.401 38.24C470.652 38.3253 470.897 38.424 471.137 38.536C471.377 38.6427 471.591 38.7813 471.777 38.952C471.969 39.1173 472.121 39.3173 472.233 39.552C472.351 39.7867 472.409 40.0693 472.409 40.4C472.409 40.7947 472.337 41.16 472.193 41.496C472.049 41.8267 471.839 42.1147 471.561 42.36C471.284 42.6 470.94 42.7893 470.529 42.928C470.124 43.0613 469.657 43.128 469.129 43.128C468.847 43.128 468.569 43.1013 468.297 43.048C468.031 43 467.772 42.9307 467.521 42.84C467.276 42.7493 467.047 42.6427 466.833 42.52C466.625 42.3973 466.441 42.264 466.281 42.12L466.737 41.368C466.796 41.2773 466.865 41.208 466.945 41.16C467.025 41.112 467.127 41.088 467.249 41.088C467.372 41.088 467.487 41.1227 467.593 41.192C467.705 41.2613 467.833 41.336 467.977 41.416C468.121 41.496 468.289 41.5707 468.481 41.64C468.679 41.7093 468.927 41.744 469.225 41.744C469.46 41.744 469.66 41.7173 469.825 41.664C469.996 41.6053 470.135 41.5307 470.241 41.44C470.353 41.3493 470.433 41.2453 470.481 41.128C470.535 41.0053 470.561 40.88 470.561 40.752C470.561 40.56 470.503 40.4027 470.385 40.28C470.273 40.1573 470.121 40.0507 469.929 39.96C469.743 39.8693 469.527 39.7893 469.281 39.72C469.041 39.6453 468.793 39.5653 468.537 39.48C468.287 39.3947 468.039 39.296 467.793 39.184C467.553 39.0667 467.337 38.92 467.145 38.744C466.959 38.568 466.807 38.352 466.689 38.096C466.577 37.84 466.521 37.5307 466.521 37.168C466.521 36.832 466.588 36.512 466.721 36.208C466.855 35.904 467.049 35.64 467.305 35.416C467.567 35.1867 467.889 35.0053 468.273 34.872C468.663 34.7333 469.111 34.664 469.617 34.664C470.183 34.664 470.697 34.7573 471.161 34.944C471.625 35.1307 472.012 35.376 472.321 35.68L471.873 36.392Z" fill="white"/>
</svg>
