<svg width="682" height="219" viewBox="0 0 682 219" fill="none" xmlns="http://www.w3.org/2000/svg">
<rect width="682" height="219" fill="white"/>
<rect x="178" y="15" width="327" height="189.071" fill="#F0F0F0"/>
<rect x="182" y="19" width="180" height="182" fill="#211915"/>
<rect x="362" y="19" width="139" height="182" fill="#73B3C0"/>
<path d="M262.655 79.432C262.751 79.432 262.831 79.4373 262.895 79.448C262.959 79.4533 263.015 79.4693 263.063 79.496C263.117 79.5173 263.167 79.552 263.215 79.6C263.263 79.6427 263.317 79.7013 263.375 79.776L269.447 87.512C269.426 87.3253 269.41 87.144 269.399 86.968C269.394 86.7867 269.391 86.6187 269.391 86.464V79.432H271.287V91H270.175C270.005 91 269.863 90.9733 269.751 90.92C269.639 90.8667 269.53 90.7707 269.423 90.632L263.375 82.928C263.391 83.0987 263.402 83.2693 263.407 83.44C263.418 83.6053 263.423 83.7573 263.423 83.896V91H261.527V79.432H262.655ZM277.013 82.664C277.626 82.664 278.181 82.7627 278.677 82.96C279.178 83.1573 279.605 83.4373 279.957 83.8C280.309 84.1627 280.581 84.6053 280.773 85.128C280.965 85.6507 281.061 86.2347 281.061 86.88C281.061 87.5307 280.965 88.1173 280.773 88.64C280.581 89.1627 280.309 89.608 279.957 89.976C279.605 90.344 279.178 90.6267 278.677 90.824C278.181 91.0213 277.626 91.12 277.013 91.12C276.4 91.12 275.842 91.0213 275.341 90.824C274.84 90.6267 274.41 90.344 274.053 89.976C273.701 89.608 273.426 89.1627 273.229 88.64C273.037 88.1173 272.941 87.5307 272.941 86.88C272.941 86.2347 273.037 85.6507 273.229 85.128C273.426 84.6053 273.701 84.1627 274.053 83.8C274.41 83.4373 274.84 83.1573 275.341 82.96C275.842 82.7627 276.4 82.664 277.013 82.664ZM277.013 89.6C277.696 89.6 278.2 89.3707 278.525 88.912C278.856 88.4533 279.021 87.7813 279.021 86.896C279.021 86.0107 278.856 85.336 278.525 84.872C278.2 84.408 277.696 84.176 277.013 84.176C276.32 84.176 275.808 84.4107 275.477 84.88C275.146 85.344 274.981 86.016 274.981 86.896C274.981 87.776 275.146 88.448 275.477 88.912C275.808 89.3707 276.32 89.6 277.013 89.6ZM234.462 102.48V107H232.31V95.432H235.838C236.628 95.432 237.302 95.5147 237.862 95.68C238.428 95.84 238.889 96.0667 239.246 96.36C239.609 96.6533 239.873 97.0053 240.038 97.416C240.209 97.8213 240.294 98.2693 240.294 98.76C240.294 99.1493 240.236 99.5173 240.118 99.864C240.006 100.211 239.841 100.525 239.622 100.808C239.409 101.091 239.142 101.339 238.822 101.552C238.508 101.765 238.148 101.936 237.742 102.064C238.014 102.219 238.249 102.44 238.446 102.728L241.342 107H239.406C239.22 107 239.06 106.963 238.926 106.888C238.798 106.813 238.689 106.707 238.598 106.568L236.166 102.864C236.076 102.725 235.974 102.627 235.862 102.568C235.756 102.509 235.596 102.48 235.382 102.48H234.462ZM234.462 100.936H235.806C236.212 100.936 236.564 100.885 236.862 100.784C237.166 100.683 237.414 100.544 237.606 100.368C237.804 100.187 237.95 99.9733 238.046 99.728C238.142 99.4827 238.19 99.2133 238.19 98.92C238.19 98.3333 237.996 97.8827 237.606 97.568C237.222 97.2533 236.633 97.096 235.838 97.096H234.462V100.936ZM246.003 98.664C246.52 98.664 246.995 98.7467 247.427 98.912C247.864 99.0773 248.24 99.32 248.555 99.64C248.869 99.9547 249.115 100.344 249.291 100.808C249.467 101.267 249.555 101.792 249.555 102.384C249.555 102.533 249.547 102.659 249.531 102.76C249.52 102.856 249.496 102.933 249.459 102.992C249.427 103.045 249.381 103.085 249.323 103.112C249.264 103.133 249.189 103.144 249.099 103.144H244.027C244.085 103.987 244.312 104.605 244.707 105C245.101 105.395 245.624 105.592 246.275 105.592C246.595 105.592 246.869 105.555 247.099 105.48C247.333 105.405 247.536 105.323 247.707 105.232C247.883 105.141 248.035 105.059 248.163 104.984C248.296 104.909 248.424 104.872 248.547 104.872C248.627 104.872 248.696 104.888 248.755 104.92C248.813 104.952 248.864 104.997 248.907 105.056L249.483 105.776C249.264 106.032 249.019 106.248 248.747 106.424C248.475 106.595 248.189 106.733 247.891 106.84C247.597 106.941 247.296 107.013 246.987 107.056C246.683 107.099 246.387 107.12 246.099 107.12C245.528 107.12 244.997 107.027 244.507 106.84C244.016 106.648 243.589 106.368 243.227 106C242.864 105.627 242.579 105.168 242.371 104.624C242.163 104.075 242.059 103.44 242.059 102.72C242.059 102.16 242.149 101.635 242.331 101.144C242.512 100.648 242.771 100.219 243.107 99.856C243.448 99.488 243.861 99.1973 244.347 98.984C244.837 98.7707 245.389 98.664 246.003 98.664ZM246.043 100.08C245.467 100.08 245.016 100.243 244.691 100.568C244.365 100.893 244.157 101.355 244.067 101.952H247.779C247.779 101.696 247.744 101.456 247.675 101.232C247.605 101.003 247.499 100.803 247.355 100.632C247.211 100.461 247.029 100.328 246.811 100.232C246.592 100.131 246.336 100.08 246.043 100.08ZM251.158 107V98.792H252.366C252.622 98.792 252.79 98.912 252.87 99.152L253.006 99.8C253.171 99.6293 253.344 99.4747 253.526 99.336C253.712 99.1973 253.907 99.0773 254.11 98.976C254.318 98.8747 254.539 98.7973 254.774 98.744C255.008 98.6907 255.264 98.664 255.542 98.664C255.99 98.664 256.387 98.7413 256.734 98.896C257.08 99.0453 257.368 99.2587 257.598 99.536C257.832 99.808 258.008 100.136 258.126 100.52C258.248 100.899 258.31 101.317 258.31 101.776V107H256.334V101.776C256.334 101.275 256.216 100.888 255.982 100.616C255.752 100.339 255.406 100.2 254.942 100.2C254.6 100.2 254.28 100.277 253.982 100.432C253.683 100.587 253.4 100.797 253.134 101.064V107H251.158ZM263.755 98.664C264.369 98.664 264.923 98.7627 265.419 98.96C265.921 99.1573 266.347 99.4373 266.699 99.8C267.051 100.163 267.323 100.605 267.515 101.128C267.707 101.651 267.803 102.235 267.803 102.88C267.803 103.531 267.707 104.117 267.515 104.64C267.323 105.163 267.051 105.608 266.699 105.976C266.347 106.344 265.921 106.627 265.419 106.824C264.923 107.021 264.369 107.12 263.755 107.12C263.142 107.12 262.585 107.021 262.083 106.824C261.582 106.627 261.153 106.344 260.795 105.976C260.443 105.608 260.169 105.163 259.971 104.64C259.779 104.117 259.683 103.531 259.683 102.88C259.683 102.235 259.779 101.651 259.971 101.128C260.169 100.605 260.443 100.163 260.795 99.8C261.153 99.4373 261.582 99.1573 262.083 98.96C262.585 98.7627 263.142 98.664 263.755 98.664ZM263.755 105.6C264.438 105.6 264.942 105.371 265.267 104.912C265.598 104.453 265.763 103.781 265.763 102.896C265.763 102.011 265.598 101.336 265.267 100.872C264.942 100.408 264.438 100.176 263.755 100.176C263.062 100.176 262.55 100.411 262.219 100.88C261.889 101.344 261.723 102.016 261.723 102.896C261.723 103.776 261.889 104.448 262.219 104.912C262.55 105.371 263.062 105.6 263.755 105.6ZM273.191 107H271.399L268.135 98.792H269.775C269.919 98.792 270.039 98.8267 270.135 98.896C270.237 98.9653 270.306 99.0533 270.343 99.16L271.927 103.544C272.018 103.8 272.093 104.051 272.151 104.296C272.215 104.541 272.271 104.787 272.319 105.032C272.367 104.787 272.421 104.541 272.479 104.296C272.543 104.051 272.623 103.8 272.719 103.544L274.343 99.16C274.381 99.0533 274.447 98.9653 274.543 98.896C274.639 98.8267 274.754 98.792 274.887 98.792H276.447L273.191 107ZM284.043 107H283.155C282.968 107 282.821 106.973 282.715 106.92C282.608 106.861 282.528 106.747 282.475 106.576L282.299 105.992C282.091 106.179 281.885 106.344 281.683 106.488C281.485 106.627 281.28 106.744 281.067 106.84C280.853 106.936 280.627 107.008 280.387 107.056C280.147 107.104 279.88 107.128 279.587 107.128C279.24 107.128 278.92 107.083 278.627 106.992C278.333 106.896 278.08 106.755 277.867 106.568C277.659 106.381 277.496 106.149 277.379 105.872C277.261 105.595 277.203 105.272 277.203 104.904C277.203 104.595 277.283 104.291 277.443 103.992C277.608 103.688 277.88 103.416 278.259 103.176C278.637 102.931 279.141 102.728 279.771 102.568C280.4 102.408 281.181 102.317 282.115 102.296V101.816C282.115 101.267 281.997 100.861 281.763 100.6C281.533 100.333 281.197 100.2 280.755 100.2C280.435 100.2 280.168 100.237 279.955 100.312C279.741 100.387 279.555 100.472 279.395 100.568C279.24 100.659 279.096 100.741 278.963 100.816C278.829 100.891 278.683 100.928 278.523 100.928C278.389 100.928 278.275 100.893 278.179 100.824C278.083 100.755 278.005 100.669 277.947 100.568L277.587 99.936C278.531 99.072 279.669 98.64 281.003 98.64C281.483 98.64 281.909 98.72 282.283 98.88C282.661 99.0347 282.981 99.2533 283.243 99.536C283.504 99.8133 283.701 100.147 283.835 100.536C283.973 100.925 284.043 101.352 284.043 101.816V107ZM280.203 105.768C280.405 105.768 280.592 105.749 280.763 105.712C280.933 105.675 281.093 105.619 281.243 105.544C281.397 105.469 281.544 105.379 281.683 105.272C281.827 105.16 281.971 105.029 282.115 104.88V103.496C281.539 103.523 281.056 103.573 280.667 103.648C280.283 103.717 279.973 103.808 279.739 103.92C279.504 104.032 279.336 104.163 279.235 104.312C279.139 104.461 279.091 104.624 279.091 104.8C279.091 105.147 279.192 105.395 279.395 105.544C279.603 105.693 279.872 105.768 280.203 105.768ZM286.01 107V95.112H287.986V99.8C288.311 99.4533 288.679 99.1787 289.09 98.976C289.5 98.768 289.98 98.664 290.53 98.664C290.978 98.664 291.386 98.7573 291.754 98.944C292.127 99.1253 292.447 99.392 292.714 99.744C292.986 100.096 293.194 100.531 293.338 101.048C293.487 101.565 293.562 102.16 293.562 102.832C293.562 103.445 293.479 104.013 293.314 104.536C293.148 105.059 292.911 105.512 292.602 105.896C292.298 106.28 291.927 106.581 291.49 106.8C291.058 107.013 290.572 107.12 290.034 107.12C289.783 107.12 289.554 107.093 289.346 107.04C289.138 106.992 288.948 106.923 288.778 106.832C288.607 106.741 288.447 106.632 288.298 106.504C288.154 106.371 288.015 106.224 287.882 106.064L287.794 106.616C287.762 106.755 287.706 106.853 287.626 106.912C287.551 106.971 287.447 107 287.314 107H286.01ZM289.85 100.2C289.439 100.2 289.087 100.288 288.794 100.464C288.506 100.635 288.236 100.877 287.986 101.192V104.872C288.21 105.149 288.452 105.344 288.714 105.456C288.98 105.563 289.268 105.616 289.578 105.616C289.876 105.616 290.146 105.56 290.386 105.448C290.626 105.336 290.828 105.165 290.994 104.936C291.164 104.707 291.295 104.419 291.386 104.072C291.476 103.72 291.522 103.307 291.522 102.832C291.522 102.352 291.482 101.947 291.402 101.616C291.327 101.28 291.218 101.008 291.074 100.8C290.93 100.592 290.754 100.44 290.546 100.344C290.343 100.248 290.111 100.2 289.85 100.2ZM297.215 95.112V107H295.239V95.112H297.215ZM302.846 98.664C303.364 98.664 303.838 98.7467 304.27 98.912C304.708 99.0773 305.084 99.32 305.398 99.64C305.713 99.9547 305.958 100.344 306.134 100.808C306.31 101.267 306.398 101.792 306.398 102.384C306.398 102.533 306.39 102.659 306.374 102.76C306.364 102.856 306.34 102.933 306.302 102.992C306.27 103.045 306.225 103.085 306.166 103.112C306.108 103.133 306.033 103.144 305.942 103.144H300.87C300.929 103.987 301.156 104.605 301.55 105C301.945 105.395 302.468 105.592 303.118 105.592C303.438 105.592 303.713 105.555 303.942 105.48C304.177 105.405 304.38 105.323 304.55 105.232C304.726 105.141 304.878 105.059 305.006 104.984C305.14 104.909 305.268 104.872 305.39 104.872C305.47 104.872 305.54 104.888 305.598 104.92C305.657 104.952 305.708 104.997 305.75 105.056L306.326 105.776C306.108 106.032 305.862 106.248 305.59 106.424C305.318 106.595 305.033 106.733 304.734 106.84C304.441 106.941 304.14 107.013 303.83 107.056C303.526 107.099 303.23 107.12 302.942 107.12C302.372 107.12 301.841 107.027 301.35 106.84C300.86 106.648 300.433 106.368 300.07 106C299.708 105.627 299.422 105.168 299.214 104.624C299.006 104.075 298.902 103.44 298.902 102.72C298.902 102.16 298.993 101.635 299.174 101.144C299.356 100.648 299.614 100.219 299.95 99.856C300.292 99.488 300.705 99.1973 301.19 98.984C301.681 98.7707 302.233 98.664 302.846 98.664ZM302.886 100.08C302.31 100.08 301.86 100.243 301.534 100.568C301.209 100.893 301.001 101.355 300.91 101.952H304.622C304.622 101.696 304.588 101.456 304.518 101.232C304.449 101.003 304.342 100.803 304.198 100.632C304.054 100.461 303.873 100.328 303.654 100.232C303.436 100.131 303.18 100.08 302.886 100.08ZM312.873 100.392C312.82 100.477 312.764 100.539 312.705 100.576C312.647 100.608 312.572 100.624 312.481 100.624C312.385 100.624 312.281 100.597 312.169 100.544C312.063 100.491 311.937 100.432 311.793 100.368C311.649 100.299 311.484 100.237 311.297 100.184C311.116 100.131 310.9 100.104 310.649 100.104C310.26 100.104 309.953 100.187 309.729 100.352C309.505 100.517 309.393 100.733 309.393 101C309.393 101.176 309.449 101.325 309.561 101.448C309.679 101.565 309.831 101.669 310.017 101.76C310.209 101.851 310.425 101.933 310.665 102.008C310.905 102.077 311.151 102.155 311.401 102.24C311.652 102.325 311.897 102.424 312.137 102.536C312.377 102.643 312.591 102.781 312.777 102.952C312.969 103.117 313.121 103.317 313.233 103.552C313.351 103.787 313.409 104.069 313.409 104.4C313.409 104.795 313.337 105.16 313.193 105.496C313.049 105.827 312.839 106.115 312.561 106.36C312.284 106.6 311.94 106.789 311.529 106.928C311.124 107.061 310.657 107.128 310.129 107.128C309.847 107.128 309.569 107.101 309.297 107.048C309.031 107 308.772 106.931 308.521 106.84C308.276 106.749 308.047 106.643 307.833 106.52C307.625 106.397 307.441 106.264 307.281 106.12L307.737 105.368C307.796 105.277 307.865 105.208 307.945 105.16C308.025 105.112 308.127 105.088 308.249 105.088C308.372 105.088 308.487 105.123 308.593 105.192C308.705 105.261 308.833 105.336 308.977 105.416C309.121 105.496 309.289 105.571 309.481 105.64C309.679 105.709 309.927 105.744 310.225 105.744C310.46 105.744 310.66 105.717 310.825 105.664C310.996 105.605 311.135 105.531 311.241 105.44C311.353 105.349 311.433 105.245 311.481 105.128C311.535 105.005 311.561 104.88 311.561 104.752C311.561 104.56 311.503 104.403 311.385 104.28C311.273 104.157 311.121 104.051 310.929 103.96C310.743 103.869 310.527 103.789 310.281 103.72C310.041 103.645 309.793 103.565 309.537 103.48C309.287 103.395 309.039 103.296 308.793 103.184C308.553 103.067 308.337 102.92 308.145 102.744C307.959 102.568 307.807 102.352 307.689 102.096C307.577 101.84 307.521 101.531 307.521 101.168C307.521 100.832 307.588 100.512 307.721 100.208C307.855 99.904 308.049 99.64 308.305 99.416C308.567 99.1867 308.889 99.0053 309.273 98.872C309.663 98.7333 310.111 98.664 310.617 98.664C311.183 98.664 311.697 98.7573 312.161 98.944C312.625 99.1307 313.012 99.376 313.321 99.68L312.873 100.392Z" fill="white"/>
<path d="M265.156 129.368C265.156 129.539 265.129 129.693 265.076 129.832C265.023 129.971 264.937 130.093 264.82 130.2C264.708 130.301 264.559 130.381 264.372 130.44C264.185 130.493 263.961 130.52 263.7 130.52H260.916L260.588 132.448C260.807 132.411 261.017 132.384 261.22 132.368C261.423 132.347 261.62 132.336 261.812 132.336C262.425 132.336 262.967 132.429 263.436 132.616C263.905 132.803 264.3 133.059 264.62 133.384C264.94 133.704 265.18 134.083 265.34 134.52C265.505 134.952 265.588 135.416 265.588 135.912C265.588 136.536 265.476 137.107 265.252 137.624C265.033 138.136 264.727 138.579 264.332 138.952C263.937 139.325 263.465 139.616 262.916 139.824C262.372 140.027 261.775 140.128 261.124 140.128C260.745 140.128 260.383 140.088 260.036 140.008C259.695 139.928 259.372 139.821 259.068 139.688C258.769 139.549 258.492 139.392 258.236 139.216C257.98 139.035 257.748 138.843 257.54 138.64L258.308 137.616C258.388 137.509 258.481 137.429 258.588 137.376C258.695 137.317 258.809 137.288 258.932 137.288C259.092 137.288 259.241 137.333 259.38 137.424C259.524 137.509 259.679 137.605 259.844 137.712C260.015 137.813 260.212 137.907 260.436 137.992C260.66 138.077 260.937 138.12 261.268 138.12C261.599 138.12 261.881 138.067 262.116 137.96C262.351 137.848 262.54 137.699 262.684 137.512C262.833 137.32 262.94 137.099 263.004 136.848C263.073 136.592 263.108 136.32 263.108 136.032C263.108 135.467 262.948 135.037 262.628 134.744C262.308 134.445 261.855 134.296 261.268 134.296C260.745 134.296 260.233 134.395 259.732 134.592L258.196 134.176L259.188 128.344H265.156V129.368ZM275.301 128.344V129.384C275.301 129.677 275.269 129.915 275.205 130.096C275.141 130.277 275.08 130.432 275.021 130.56L270.949 139.184C270.842 139.413 270.685 139.608 270.477 139.768C270.269 139.923 269.994 140 269.653 140H267.845L272.005 131.656C272.117 131.427 272.237 131.221 272.365 131.04C272.498 130.859 272.642 130.685 272.797 130.52H267.669C267.594 130.52 267.522 130.507 267.453 130.48C267.389 130.448 267.33 130.408 267.277 130.36C267.229 130.307 267.189 130.248 267.157 130.184C267.125 130.115 267.109 130.045 267.109 129.976V128.344H275.301ZM281.718 131.168C281.718 131.595 281.641 131.984 281.486 132.336C281.332 132.688 281.126 132.992 280.87 133.248C280.614 133.499 280.316 133.693 279.974 133.832C279.638 133.971 279.286 134.04 278.918 134.04C278.513 134.04 278.14 133.971 277.798 133.832C277.462 133.693 277.169 133.499 276.918 133.248C276.673 132.992 276.481 132.688 276.342 132.336C276.204 131.984 276.134 131.595 276.134 131.168C276.134 130.725 276.204 130.325 276.342 129.968C276.481 129.605 276.673 129.296 276.918 129.04C277.169 128.784 277.462 128.587 277.798 128.448C278.14 128.304 278.513 128.232 278.918 128.232C279.324 128.232 279.697 128.304 280.038 128.448C280.385 128.587 280.681 128.784 280.926 129.04C281.177 129.296 281.372 129.605 281.51 129.968C281.649 130.325 281.718 130.725 281.718 131.168ZM279.814 131.168C279.814 130.896 279.79 130.672 279.742 130.496C279.7 130.315 279.638 130.171 279.558 130.064C279.478 129.957 279.382 129.883 279.27 129.84C279.164 129.797 279.046 129.776 278.918 129.776C278.79 129.776 278.673 129.797 278.566 129.84C278.46 129.883 278.369 129.957 278.294 130.064C278.22 130.171 278.161 130.315 278.118 130.496C278.076 130.672 278.054 130.896 278.054 131.168C278.054 131.424 278.076 131.637 278.118 131.808C278.161 131.979 278.22 132.115 278.294 132.216C278.369 132.317 278.46 132.389 278.566 132.432C278.673 132.475 278.79 132.496 278.918 132.496C279.046 132.496 279.164 132.475 279.27 132.432C279.382 132.389 279.478 132.317 279.558 132.216C279.638 132.115 279.7 131.979 279.742 131.808C279.79 131.637 279.814 131.424 279.814 131.168ZM285.382 128.712C285.462 128.621 285.561 128.539 285.678 128.464C285.796 128.384 285.958 128.344 286.166 128.344H287.974L279.19 139.648C279.11 139.749 279.009 139.835 278.886 139.904C278.769 139.968 278.625 140 278.454 140H276.598L285.382 128.712ZM288.422 137.264C288.422 137.691 288.345 138.083 288.19 138.44C288.036 138.792 287.83 139.096 287.574 139.352C287.318 139.603 287.02 139.797 286.678 139.936C286.342 140.075 285.99 140.144 285.622 140.144C285.217 140.144 284.844 140.075 284.502 139.936C284.166 139.797 283.873 139.603 283.622 139.352C283.377 139.096 283.185 138.792 283.046 138.44C282.908 138.083 282.838 137.691 282.838 137.264C282.838 136.821 282.908 136.421 283.046 136.064C283.185 135.701 283.377 135.392 283.622 135.136C283.873 134.88 284.166 134.683 284.502 134.544C284.844 134.4 285.217 134.328 285.622 134.328C286.028 134.328 286.401 134.4 286.742 134.544C287.089 134.683 287.385 134.88 287.63 135.136C287.881 135.392 288.076 135.701 288.214 136.064C288.353 136.421 288.422 136.821 288.422 137.264ZM286.518 137.264C286.518 136.997 286.494 136.776 286.446 136.6C286.404 136.419 286.342 136.275 286.262 136.168C286.182 136.061 286.086 135.987 285.974 135.944C285.868 135.901 285.75 135.88 285.622 135.88C285.494 135.88 285.377 135.901 285.27 135.944C285.164 135.987 285.073 136.061 284.998 136.168C284.924 136.275 284.865 136.419 284.822 136.6C284.78 136.776 284.758 136.997 284.758 137.264C284.758 137.52 284.78 137.733 284.822 137.904C284.865 138.075 284.924 138.211 284.998 138.312C285.073 138.413 285.164 138.485 285.27 138.528C285.377 138.571 285.494 138.592 285.622 138.592C285.75 138.592 285.868 138.571 285.974 138.528C286.086 138.485 286.182 138.413 286.262 138.312C286.342 138.211 286.404 138.075 286.446 137.904C286.494 137.733 286.518 137.52 286.518 137.264Z" fill="white"/>
<path d="M423.98 128.472H425.18V129.864C425.18 129.987 425.137 130.093 425.052 130.184C424.972 130.275 424.855 130.32 424.7 130.32H423.98V133H421.82V130.32H417.132C416.977 130.32 416.836 130.272 416.708 130.176C416.585 130.08 416.508 129.96 416.476 129.816L416.22 128.592L421.612 121.344H423.98V128.472ZM421.82 125.432C421.82 125.245 421.825 125.045 421.836 124.832C421.852 124.613 421.873 124.389 421.9 124.16L418.82 128.472H421.82V125.432ZM430.493 121.216C431.069 121.216 431.581 121.299 432.029 121.464C432.477 121.624 432.856 121.843 433.165 122.12C433.474 122.397 433.709 122.72 433.869 123.088C434.029 123.451 434.109 123.835 434.109 124.24C434.109 124.608 434.072 124.933 433.997 125.216C433.922 125.493 433.81 125.736 433.661 125.944C433.517 126.147 433.336 126.32 433.117 126.464C432.904 126.608 432.658 126.728 432.381 126.824C433.672 127.272 434.317 128.149 434.317 129.456C434.317 130.075 434.205 130.613 433.981 131.072C433.757 131.531 433.456 131.912 433.077 132.216C432.704 132.52 432.269 132.749 431.773 132.904C431.277 133.053 430.76 133.128 430.221 133.128C429.666 133.128 429.173 133.069 428.741 132.952C428.309 132.829 427.925 132.643 427.589 132.392C427.253 132.136 426.957 131.811 426.701 131.416C426.45 131.021 426.232 130.552 426.045 130.008L427.149 129.56C427.245 129.517 427.338 129.488 427.429 129.472C427.525 129.456 427.618 129.448 427.709 129.448C427.88 129.448 428.032 129.483 428.165 129.552C428.304 129.616 428.408 129.712 428.477 129.84C428.717 130.283 428.97 130.605 429.237 130.808C429.509 131.005 429.826 131.104 430.189 131.104C430.466 131.104 430.706 131.059 430.909 130.968C431.117 130.872 431.288 130.752 431.421 130.608C431.56 130.459 431.664 130.291 431.733 130.104C431.802 129.917 431.837 129.728 431.837 129.536C431.837 129.285 431.818 129.061 431.781 128.864C431.749 128.661 431.653 128.488 431.493 128.344C431.333 128.2 431.09 128.091 430.765 128.016C430.445 127.936 429.997 127.896 429.421 127.896V126.184C429.906 126.184 430.298 126.147 430.597 126.072C430.896 125.997 431.125 125.896 431.285 125.768C431.45 125.635 431.56 125.475 431.613 125.288C431.666 125.101 431.693 124.896 431.693 124.672C431.693 124.213 431.581 123.861 431.357 123.616C431.138 123.365 430.802 123.24 430.349 123.24C430.162 123.24 429.992 123.267 429.837 123.32C429.682 123.373 429.544 123.445 429.421 123.536C429.298 123.627 429.192 123.733 429.101 123.856C429.016 123.979 428.946 124.112 428.893 124.256C428.808 124.496 428.698 124.669 428.565 124.776C428.437 124.883 428.261 124.936 428.037 124.936C427.984 124.936 427.925 124.933 427.861 124.928C427.802 124.923 427.741 124.915 427.677 124.904L426.365 124.672C426.45 124.091 426.613 123.584 426.853 123.152C427.098 122.72 427.4 122.36 427.757 122.072C428.12 121.784 428.533 121.571 428.997 121.432C429.461 121.288 429.96 121.216 430.493 121.216ZM440.718 124.168C440.718 124.595 440.641 124.984 440.486 125.336C440.332 125.688 440.126 125.992 439.87 126.248C439.614 126.499 439.316 126.693 438.974 126.832C438.638 126.971 438.286 127.04 437.918 127.04C437.513 127.04 437.14 126.971 436.798 126.832C436.462 126.693 436.169 126.499 435.918 126.248C435.673 125.992 435.481 125.688 435.342 125.336C435.204 124.984 435.134 124.595 435.134 124.168C435.134 123.725 435.204 123.325 435.342 122.968C435.481 122.605 435.673 122.296 435.918 122.04C436.169 121.784 436.462 121.587 436.798 121.448C437.14 121.304 437.513 121.232 437.918 121.232C438.324 121.232 438.697 121.304 439.038 121.448C439.385 121.587 439.681 121.784 439.926 122.04C440.177 122.296 440.372 122.605 440.51 122.968C440.649 123.325 440.718 123.725 440.718 124.168ZM438.814 124.168C438.814 123.896 438.79 123.672 438.742 123.496C438.7 123.315 438.638 123.171 438.558 123.064C438.478 122.957 438.382 122.883 438.27 122.84C438.164 122.797 438.046 122.776 437.918 122.776C437.79 122.776 437.673 122.797 437.566 122.84C437.46 122.883 437.369 122.957 437.294 123.064C437.22 123.171 437.161 123.315 437.118 123.496C437.076 123.672 437.054 123.896 437.054 124.168C437.054 124.424 437.076 124.637 437.118 124.808C437.161 124.979 437.22 125.115 437.294 125.216C437.369 125.317 437.46 125.389 437.566 125.432C437.673 125.475 437.79 125.496 437.918 125.496C438.046 125.496 438.164 125.475 438.27 125.432C438.382 125.389 438.478 125.317 438.558 125.216C438.638 125.115 438.7 124.979 438.742 124.808C438.79 124.637 438.814 124.424 438.814 124.168ZM444.382 121.712C444.462 121.621 444.561 121.539 444.678 121.464C444.796 121.384 444.958 121.344 445.166 121.344H446.974L438.19 132.648C438.11 132.749 438.009 132.835 437.886 132.904C437.769 132.968 437.625 133 437.454 133H435.598L444.382 121.712ZM447.422 130.264C447.422 130.691 447.345 131.083 447.19 131.44C447.036 131.792 446.83 132.096 446.574 132.352C446.318 132.603 446.02 132.797 445.678 132.936C445.342 133.075 444.99 133.144 444.622 133.144C444.217 133.144 443.844 133.075 443.502 132.936C443.166 132.797 442.873 132.603 442.622 132.352C442.377 132.096 442.185 131.792 442.046 131.44C441.908 131.083 441.838 130.691 441.838 130.264C441.838 129.821 441.908 129.421 442.046 129.064C442.185 128.701 442.377 128.392 442.622 128.136C442.873 127.88 443.166 127.683 443.502 127.544C443.844 127.4 444.217 127.328 444.622 127.328C445.028 127.328 445.401 127.4 445.742 127.544C446.089 127.683 446.385 127.88 446.63 128.136C446.881 128.392 447.076 128.701 447.214 129.064C447.353 129.421 447.422 129.821 447.422 130.264ZM445.518 130.264C445.518 129.997 445.494 129.776 445.446 129.6C445.404 129.419 445.342 129.275 445.262 129.168C445.182 129.061 445.086 128.987 444.974 128.944C444.868 128.901 444.75 128.88 444.622 128.88C444.494 128.88 444.377 128.901 444.27 128.944C444.164 128.987 444.073 129.061 443.998 129.168C443.924 129.275 443.865 129.419 443.822 129.6C443.78 129.776 443.758 129.997 443.758 130.264C443.758 130.52 443.78 130.733 443.822 130.904C443.865 131.075 443.924 131.211 443.998 131.312C444.073 131.413 444.164 131.485 444.27 131.528C444.377 131.571 444.494 131.592 444.622 131.592C444.75 131.592 444.868 131.571 444.974 131.528C445.086 131.485 445.182 131.413 445.262 131.312C445.342 131.211 445.404 131.075 445.446 130.904C445.494 130.733 445.518 130.52 445.518 130.264Z" fill="white"/>
<path d="M393.462 95.48V100H391.31V88.432H394.838C395.628 88.432 396.302 88.5147 396.862 88.68C397.428 88.84 397.889 89.0667 398.246 89.36C398.609 89.6533 398.873 90.0053 399.038 90.416C399.209 90.8213 399.294 91.2693 399.294 91.76C399.294 92.1493 399.236 92.5173 399.118 92.864C399.006 93.2107 398.841 93.5253 398.622 93.808C398.409 94.0907 398.142 94.3387 397.822 94.552C397.508 94.7653 397.148 94.936 396.742 95.064C397.014 95.2187 397.249 95.44 397.446 95.728L400.342 100H398.406C398.22 100 398.06 99.9627 397.926 99.888C397.798 99.8133 397.689 99.7067 397.598 99.568L395.166 95.864C395.076 95.7253 394.974 95.6267 394.862 95.568C394.756 95.5093 394.596 95.48 394.382 95.48H393.462ZM393.462 93.936H394.806C395.212 93.936 395.564 93.8853 395.862 93.784C396.166 93.6827 396.414 93.544 396.606 93.368C396.804 93.1867 396.95 92.9733 397.046 92.728C397.142 92.4827 397.19 92.2133 397.19 91.92C397.19 91.3333 396.996 90.8827 396.606 90.568C396.222 90.2533 395.633 90.096 394.838 90.096H393.462V93.936ZM405.003 91.664C405.52 91.664 405.995 91.7467 406.427 91.912C406.864 92.0773 407.24 92.32 407.555 92.64C407.869 92.9547 408.115 93.344 408.291 93.808C408.467 94.2667 408.555 94.792 408.555 95.384C408.555 95.5333 408.547 95.6587 408.531 95.76C408.52 95.856 408.496 95.9333 408.459 95.992C408.427 96.0453 408.381 96.0853 408.323 96.112C408.264 96.1333 408.189 96.144 408.099 96.144H403.027C403.085 96.9867 403.312 97.6053 403.707 98C404.101 98.3947 404.624 98.592 405.275 98.592C405.595 98.592 405.869 98.5547 406.099 98.48C406.333 98.4053 406.536 98.3227 406.707 98.232C406.883 98.1413 407.035 98.0587 407.163 97.984C407.296 97.9093 407.424 97.872 407.547 97.872C407.627 97.872 407.696 97.888 407.755 97.92C407.813 97.952 407.864 97.9973 407.907 98.056L408.483 98.776C408.264 99.032 408.019 99.248 407.747 99.424C407.475 99.5947 407.189 99.7333 406.891 99.84C406.597 99.9413 406.296 100.013 405.987 100.056C405.683 100.099 405.387 100.12 405.099 100.12C404.528 100.12 403.997 100.027 403.507 99.84C403.016 99.648 402.589 99.368 402.227 99C401.864 98.6267 401.579 98.168 401.371 97.624C401.163 97.0747 401.059 96.44 401.059 95.72C401.059 95.16 401.149 94.6347 401.331 94.144C401.512 93.648 401.771 93.2187 402.107 92.856C402.448 92.488 402.861 92.1973 403.347 91.984C403.837 91.7707 404.389 91.664 405.003 91.664ZM405.043 93.08C404.467 93.08 404.016 93.2427 403.691 93.568C403.365 93.8933 403.157 94.3547 403.067 94.952H406.779C406.779 94.696 406.744 94.456 406.675 94.232C406.605 94.0027 406.499 93.8027 406.355 93.632C406.211 93.4613 406.029 93.328 405.811 93.232C405.592 93.1307 405.336 93.08 405.043 93.08ZM410.158 100V91.792H411.366C411.622 91.792 411.79 91.912 411.87 92.152L412.006 92.8C412.171 92.6293 412.344 92.4747 412.526 92.336C412.712 92.1973 412.907 92.0773 413.11 91.976C413.318 91.8747 413.539 91.7973 413.774 91.744C414.008 91.6907 414.264 91.664 414.542 91.664C414.99 91.664 415.387 91.7413 415.734 91.896C416.08 92.0453 416.368 92.2587 416.598 92.536C416.832 92.808 417.008 93.136 417.126 93.52C417.248 93.8987 417.31 94.3173 417.31 94.776V100H415.334V94.776C415.334 94.2747 415.216 93.888 414.982 93.616C414.752 93.3387 414.406 93.2 413.942 93.2C413.6 93.2 413.28 93.2773 412.982 93.432C412.683 93.5867 412.4 93.7973 412.134 94.064V100H410.158ZM422.755 91.664C423.369 91.664 423.923 91.7627 424.419 91.96C424.921 92.1573 425.347 92.4373 425.699 92.8C426.051 93.1627 426.323 93.6053 426.515 94.128C426.707 94.6507 426.803 95.2347 426.803 95.88C426.803 96.5307 426.707 97.1173 426.515 97.64C426.323 98.1627 426.051 98.608 425.699 98.976C425.347 99.344 424.921 99.6267 424.419 99.824C423.923 100.021 423.369 100.12 422.755 100.12C422.142 100.12 421.585 100.021 421.083 99.824C420.582 99.6267 420.153 99.344 419.795 98.976C419.443 98.608 419.169 98.1627 418.971 97.64C418.779 97.1173 418.683 96.5307 418.683 95.88C418.683 95.2347 418.779 94.6507 418.971 94.128C419.169 93.6053 419.443 93.1627 419.795 92.8C420.153 92.4373 420.582 92.1573 421.083 91.96C421.585 91.7627 422.142 91.664 422.755 91.664ZM422.755 98.6C423.438 98.6 423.942 98.3707 424.267 97.912C424.598 97.4533 424.763 96.7813 424.763 95.896C424.763 95.0107 424.598 94.336 424.267 93.872C423.942 93.408 423.438 93.176 422.755 93.176C422.062 93.176 421.55 93.4107 421.219 93.88C420.889 94.344 420.723 95.016 420.723 95.896C420.723 96.776 420.889 97.448 421.219 97.912C421.55 98.3707 422.062 98.6 422.755 98.6ZM432.191 100H430.399L427.135 91.792H428.775C428.919 91.792 429.039 91.8267 429.135 91.896C429.237 91.9653 429.306 92.0533 429.343 92.16L430.927 96.544C431.018 96.8 431.093 97.0507 431.151 97.296C431.215 97.5413 431.271 97.7867 431.319 98.032C431.367 97.7867 431.421 97.5413 431.479 97.296C431.543 97.0507 431.623 96.8 431.719 96.544L433.343 92.16C433.381 92.0533 433.447 91.9653 433.543 91.896C433.639 91.8267 433.754 91.792 433.887 91.792H435.447L432.191 100ZM443.043 100H442.155C441.968 100 441.821 99.9733 441.715 99.92C441.608 99.8613 441.528 99.7467 441.475 99.576L441.299 98.992C441.091 99.1787 440.885 99.344 440.683 99.488C440.485 99.6267 440.28 99.744 440.067 99.84C439.853 99.936 439.627 100.008 439.387 100.056C439.147 100.104 438.88 100.128 438.587 100.128C438.24 100.128 437.92 100.083 437.627 99.992C437.333 99.896 437.08 99.7547 436.867 99.568C436.659 99.3813 436.496 99.1493 436.379 98.872C436.261 98.5947 436.203 98.272 436.203 97.904C436.203 97.5947 436.283 97.2907 436.443 96.992C436.608 96.688 436.88 96.416 437.259 96.176C437.637 95.9307 438.141 95.728 438.771 95.568C439.4 95.408 440.181 95.3173 441.115 95.296V94.816C441.115 94.2667 440.997 93.8613 440.763 93.6C440.533 93.3333 440.197 93.2 439.755 93.2C439.435 93.2 439.168 93.2373 438.955 93.312C438.741 93.3867 438.555 93.472 438.395 93.568C438.24 93.6587 438.096 93.7413 437.963 93.816C437.829 93.8907 437.683 93.928 437.523 93.928C437.389 93.928 437.275 93.8933 437.179 93.824C437.083 93.7547 437.005 93.6693 436.947 93.568L436.587 92.936C437.531 92.072 438.669 91.64 440.003 91.64C440.483 91.64 440.909 91.72 441.283 91.88C441.661 92.0347 441.981 92.2533 442.243 92.536C442.504 92.8133 442.701 93.1467 442.835 93.536C442.973 93.9253 443.043 94.352 443.043 94.816V100ZM439.203 98.768C439.405 98.768 439.592 98.7493 439.763 98.712C439.933 98.6747 440.093 98.6187 440.243 98.544C440.397 98.4693 440.544 98.3787 440.683 98.272C440.827 98.16 440.971 98.0293 441.115 97.88V96.496C440.539 96.5227 440.056 96.5733 439.667 96.648C439.283 96.7173 438.973 96.808 438.739 96.92C438.504 97.032 438.336 97.1627 438.235 97.312C438.139 97.4613 438.091 97.624 438.091 97.8C438.091 98.1467 438.192 98.3947 438.395 98.544C438.603 98.6933 438.872 98.768 439.203 98.768ZM445.01 100V88.112H446.986V92.8C447.311 92.4533 447.679 92.1787 448.09 91.976C448.5 91.768 448.98 91.664 449.53 91.664C449.978 91.664 450.386 91.7573 450.754 91.944C451.127 92.1253 451.447 92.392 451.714 92.744C451.986 93.096 452.194 93.5307 452.338 94.048C452.487 94.5653 452.562 95.16 452.562 95.832C452.562 96.4453 452.479 97.0133 452.314 97.536C452.148 98.0587 451.911 98.512 451.602 98.896C451.298 99.28 450.927 99.5813 450.49 99.8C450.058 100.013 449.572 100.12 449.034 100.12C448.783 100.12 448.554 100.093 448.346 100.04C448.138 99.992 447.948 99.9227 447.778 99.832C447.607 99.7413 447.447 99.632 447.298 99.504C447.154 99.3707 447.015 99.224 446.882 99.064L446.794 99.616C446.762 99.7547 446.706 99.8533 446.626 99.912C446.551 99.9707 446.447 100 446.314 100H445.01ZM448.85 93.2C448.439 93.2 448.087 93.288 447.794 93.464C447.506 93.6347 447.236 93.8773 446.986 94.192V97.872C447.21 98.1493 447.452 98.344 447.714 98.456C447.98 98.5627 448.268 98.616 448.578 98.616C448.876 98.616 449.146 98.56 449.386 98.448C449.626 98.336 449.828 98.1653 449.994 97.936C450.164 97.7067 450.295 97.4187 450.386 97.072C450.476 96.72 450.522 96.3067 450.522 95.832C450.522 95.352 450.482 94.9467 450.402 94.616C450.327 94.28 450.218 94.008 450.074 93.8C449.93 93.592 449.754 93.44 449.546 93.344C449.343 93.248 449.111 93.2 448.85 93.2ZM456.215 88.112V100H454.239V88.112H456.215ZM461.846 91.664C462.364 91.664 462.838 91.7467 463.27 91.912C463.708 92.0773 464.084 92.32 464.398 92.64C464.713 92.9547 464.958 93.344 465.134 93.808C465.31 94.2667 465.398 94.792 465.398 95.384C465.398 95.5333 465.39 95.6587 465.374 95.76C465.364 95.856 465.34 95.9333 465.302 95.992C465.27 96.0453 465.225 96.0853 465.166 96.112C465.108 96.1333 465.033 96.144 464.942 96.144H459.87C459.929 96.9867 460.156 97.6053 460.55 98C460.945 98.3947 461.468 98.592 462.118 98.592C462.438 98.592 462.713 98.5547 462.942 98.48C463.177 98.4053 463.38 98.3227 463.55 98.232C463.726 98.1413 463.878 98.0587 464.006 97.984C464.14 97.9093 464.268 97.872 464.39 97.872C464.47 97.872 464.54 97.888 464.598 97.92C464.657 97.952 464.708 97.9973 464.75 98.056L465.326 98.776C465.108 99.032 464.862 99.248 464.59 99.424C464.318 99.5947 464.033 99.7333 463.734 99.84C463.441 99.9413 463.14 100.013 462.83 100.056C462.526 100.099 462.23 100.12 461.942 100.12C461.372 100.12 460.841 100.027 460.35 99.84C459.86 99.648 459.433 99.368 459.07 99C458.708 98.6267 458.422 98.168 458.214 97.624C458.006 97.0747 457.902 96.44 457.902 95.72C457.902 95.16 457.993 94.6347 458.174 94.144C458.356 93.648 458.614 93.2187 458.95 92.856C459.292 92.488 459.705 92.1973 460.19 91.984C460.681 91.7707 461.233 91.664 461.846 91.664ZM461.886 93.08C461.31 93.08 460.86 93.2427 460.534 93.568C460.209 93.8933 460.001 94.3547 459.91 94.952H463.622C463.622 94.696 463.588 94.456 463.518 94.232C463.449 94.0027 463.342 93.8027 463.198 93.632C463.054 93.4613 462.873 93.328 462.654 93.232C462.436 93.1307 462.18 93.08 461.886 93.08ZM471.873 93.392C471.82 93.4773 471.764 93.5387 471.705 93.576C471.647 93.608 471.572 93.624 471.481 93.624C471.385 93.624 471.281 93.5973 471.169 93.544C471.063 93.4907 470.937 93.432 470.793 93.368C470.649 93.2987 470.484 93.2373 470.297 93.184C470.116 93.1307 469.9 93.104 469.649 93.104C469.26 93.104 468.953 93.1867 468.729 93.352C468.505 93.5173 468.393 93.7333 468.393 94C468.393 94.176 468.449 94.3253 468.561 94.448C468.679 94.5653 468.831 94.6693 469.017 94.76C469.209 94.8507 469.425 94.9333 469.665 95.008C469.905 95.0773 470.151 95.1547 470.401 95.24C470.652 95.3253 470.897 95.424 471.137 95.536C471.377 95.6427 471.591 95.7813 471.777 95.952C471.969 96.1173 472.121 96.3173 472.233 96.552C472.351 96.7867 472.409 97.0693 472.409 97.4C472.409 97.7947 472.337 98.16 472.193 98.496C472.049 98.8267 471.839 99.1147 471.561 99.36C471.284 99.6 470.94 99.7893 470.529 99.928C470.124 100.061 469.657 100.128 469.129 100.128C468.847 100.128 468.569 100.101 468.297 100.048C468.031 100 467.772 99.9307 467.521 99.84C467.276 99.7493 467.047 99.6427 466.833 99.52C466.625 99.3973 466.441 99.264 466.281 99.12L466.737 98.368C466.796 98.2773 466.865 98.208 466.945 98.16C467.025 98.112 467.127 98.088 467.249 98.088C467.372 98.088 467.487 98.1227 467.593 98.192C467.705 98.2613 467.833 98.336 467.977 98.416C468.121 98.496 468.289 98.5707 468.481 98.64C468.679 98.7093 468.927 98.744 469.225 98.744C469.46 98.744 469.66 98.7173 469.825 98.664C469.996 98.6053 470.135 98.5307 470.241 98.44C470.353 98.3493 470.433 98.2453 470.481 98.128C470.535 98.0053 470.561 97.88 470.561 97.752C470.561 97.56 470.503 97.4027 470.385 97.28C470.273 97.1573 470.121 97.0507 469.929 96.96C469.743 96.8693 469.527 96.7893 469.281 96.72C469.041 96.6453 468.793 96.5653 468.537 96.48C468.287 96.3947 468.039 96.296 467.793 96.184C467.553 96.0667 467.337 95.92 467.145 95.744C466.959 95.568 466.807 95.352 466.689 95.096C466.577 94.84 466.521 94.5307 466.521 94.168C466.521 93.832 466.588 93.512 466.721 93.208C466.855 92.904 467.049 92.64 467.305 92.416C467.567 92.1867 467.889 92.0053 468.273 91.872C468.663 91.7333 469.111 91.664 469.617 91.664C470.183 91.664 470.697 91.7573 471.161 91.944C471.625 92.1307 472.012 92.376 472.321 92.68L471.873 93.392Z" fill="white"/>
</svg>
