<svg width="405" height="348" viewBox="0 0 405 348" fill="none" xmlns="http://www.w3.org/2000/svg">
<rect width="405" height="348" fill="white"/>
<rect x="39" y="15" width="327" height="189.071" fill="#F0F0F0"/>
<rect x="222.131" y="18.5586" width="0.630868" height="182.383" fill="#8A8079"/>
<rect x="219.604" y="18.5586" width="2.52347" height="182.383" fill="#645A54"/>
<rect x="159.996" y="18.5586" width="59.9325" height="182.383" fill="#3E3734"/>
<rect x="43.4482" y="18.5591" width="116.711" height="182.383" fill="#211915"/>
<rect x="275.209" y="18.5586" width="86.429" height="182.383" fill="#73B3C0"/>
<rect x="250.031" y="18.5586" width="25.2223" height="182.383" fill="#8DC5D0"/>
<rect x="222.718" y="18.5591" width="0.934159" height="182.383" fill="#F3FDFF"/>
<rect x="223.607" y="18.5586" width="7.16188" height="182.383" fill="#BCF2FD"/>
<rect x="230.725" y="18.5586" width="19.3059" height="182.383" fill="#9CE3F1"/>
<path d="M305.902 107.561C310.715 105.32 313.365 104.971 317.913 107.561C322.61 111.01 325.239 111.136 329.924 107.561" stroke="white" stroke-width="2" stroke-linecap="round"/>
<path d="M305.902 115.569C310.715 113.327 313.365 112.978 317.913 115.569C322.61 119.018 325.239 119.143 329.924 115.569" stroke="white" stroke-width="2" stroke-linecap="round"/>
<path d="M305.902 123.576C310.715 121.334 313.365 120.985 317.913 123.576C322.61 127.024 325.239 127.15 329.924 123.576" stroke="white" stroke-width="2" stroke-linecap="round"/>
<circle cx="263.198" cy="115.089" r="3.19837" stroke="white" stroke-width="2.5"/>
<path d="M264.923 105.747C264.923 105.057 264.363 104.497 263.673 104.497C262.983 104.497 262.423 105.057 262.423 105.747H264.923ZM262.423 108.504C262.423 109.194 262.983 109.754 263.673 109.754C264.363 109.754 264.923 109.194 264.923 108.504H262.423ZM255.837 121.388C255.341 121.868 255.328 122.659 255.808 123.155C256.288 123.652 257.079 123.665 257.575 123.185L255.837 121.388ZM259.475 121.347C259.972 120.867 259.985 120.076 259.505 119.58C259.025 119.083 258.234 119.07 257.737 119.55L259.475 121.347ZM256.073 116.492C256.763 116.492 257.323 115.932 257.323 115.242C257.323 114.551 256.763 113.992 256.073 113.992V116.492ZM253.856 113.992C253.166 113.992 252.606 114.551 252.606 115.242C252.606 115.932 253.166 116.492 253.856 116.492V113.992ZM269.207 118.863C268.67 118.43 267.883 118.514 267.45 119.052C267.017 119.589 267.101 120.376 267.639 120.809L269.207 118.863ZM269.539 122.341C270.076 122.774 270.863 122.689 271.296 122.152C271.729 121.614 271.645 120.827 271.107 120.394L269.539 122.341ZM267.554 109.443C267.058 109.923 267.045 110.714 267.524 111.21C268.004 111.707 268.796 111.72 269.292 111.24L267.554 109.443ZM271.192 109.402C271.688 108.922 271.701 108.131 271.221 107.635C270.742 107.138 269.95 107.125 269.454 107.605L271.192 109.402ZM257.491 107.53C256.953 107.097 256.166 107.182 255.733 107.719C255.3 108.257 255.384 109.044 255.922 109.477L257.491 107.53ZM257.822 111.008C258.359 111.441 259.146 111.357 259.58 110.819C260.013 110.282 259.928 109.495 259.391 109.062L257.822 111.008ZM264.923 121.98C264.923 121.29 264.363 120.73 263.673 120.73C262.983 120.73 262.423 121.29 262.423 121.98H264.923ZM262.423 124.43C262.423 125.121 262.983 125.68 263.673 125.68C264.363 125.68 264.923 125.121 264.923 124.43H262.423ZM272.54 116.492C273.23 116.492 273.79 115.932 273.79 115.242C273.79 114.551 273.23 113.992 272.54 113.992V116.492ZM270.323 113.992C269.633 113.992 269.073 114.551 269.073 115.242C269.073 115.932 269.633 116.492 270.323 116.492V113.992ZM262.423 105.747V108.504H264.923V105.747H262.423ZM257.575 123.185L259.475 121.347L257.737 119.55L255.837 121.388L257.575 123.185ZM256.073 113.992H253.856V116.492H256.073V113.992ZM267.639 120.809L269.539 122.341L271.107 120.394L269.207 118.863L267.639 120.809ZM269.292 111.24L271.192 109.402L269.454 107.605L267.554 109.443L269.292 111.24ZM255.922 109.477L257.822 111.008L259.391 109.062L257.491 107.53L255.922 109.477ZM262.423 121.98V124.43H264.923V121.98H262.423ZM272.54 113.992H270.323V116.492H272.54V113.992Z" fill="white"/>
<path d="M120.949 130.658H111.558L111.063 128.624L113.535 126.082L118.477 124.557L122.184 125.574M120.949 130.658H137.754L136.271 123.54L131.823 122.523L127.868 119.981L124.409 121.507L122.432 124.557L122.184 125.574M120.949 130.658L122.184 125.574" stroke="white" stroke-width="2" stroke-linecap="round" stroke-linejoin="round"/>
<mask id="path-18-outside-1" maskUnits="userSpaceOnUse" x="93.3848" y="93.0703" width="18" height="10" fill="black">
<rect fill="white" x="93.3848" y="93.0703" width="18" height="10"/>
<path d="M96.3848 95.0703C98.609 96.4048 101.605 98.1191 104.392 100.408L107.506 97.7393C103.505 95.8358 101.123 95.2208 96.3848 95.0703Z"/>
</mask>
<path d="M104.392 100.408L103.122 101.954L104.419 103.019L105.693 101.927L104.392 100.408ZM96.3848 95.0703L96.4482 93.0713C95.5379 93.0424 94.7231 93.6322 94.4661 94.5059C94.209 95.3797 94.5748 96.3167 95.3558 96.7853L96.3848 95.0703ZM107.506 97.7393L108.807 99.2579L111.143 97.2554L108.365 95.9334L107.506 97.7393ZM105.661 98.863C102.735 96.4589 99.5908 94.6616 97.4138 93.3553L95.3558 96.7853C97.6271 98.1481 100.476 99.7793 103.122 101.954L105.661 98.863ZM96.3213 97.0693C98.6163 97.1422 100.246 97.3252 101.749 97.6908C103.251 98.0561 104.709 98.6234 106.646 99.5453L108.365 95.9334C106.302 94.9517 104.568 94.2598 102.694 93.8041C100.822 93.3487 98.8911 93.1489 96.4482 93.0713L96.3213 97.0693ZM106.204 96.2208L103.09 98.8898L105.693 101.927L108.807 99.2579L106.204 96.2208Z" fill="white" mask="url(#path-18-outside-1)"/>
<mask id="path-20-outside-2" maskUnits="userSpaceOnUse" x="105.323" y="98.4062" width="12.5213" height="19.2673" fill="black">
<rect fill="white" x="105.323" y="98.4062" width="12.5213" height="19.2673"/>
<path d="M113.676 114.414C112.68 112.018 111.422 108.804 109.564 105.713L112.659 103.022C113.958 107.258 114.219 109.705 113.676 114.414Z"/>
</mask>
<path d="M109.564 105.713L107.85 106.743L106.985 105.305L108.252 104.203L109.564 105.713ZM113.676 114.414L115.663 114.643C115.558 115.547 114.856 116.267 113.954 116.394C113.052 116.521 112.178 116.022 111.829 115.181L113.676 114.414ZM112.659 103.022L111.347 101.513L113.669 99.494L114.571 102.436L112.659 103.022ZM111.278 104.682C113.229 107.928 114.548 111.302 115.523 113.646L111.829 115.181C110.812 112.735 109.615 109.679 107.85 106.743L111.278 104.682ZM111.689 114.184C111.952 111.903 112.009 110.265 111.867 108.724C111.725 107.185 111.376 105.66 110.747 103.608L114.571 102.436C115.241 104.62 115.673 106.436 115.85 108.357C116.027 110.275 115.943 112.215 115.663 114.643L111.689 114.184ZM113.971 104.531L110.876 107.222L108.252 104.203L111.347 101.513L113.971 104.531Z" fill="white" mask="url(#path-20-outside-2)"/>
<path d="M103.947 100.853L108.84 106.191" stroke="white" stroke-width="2"/>
<path d="M107.506 97.2944C112.335 98.3495 113.32 99.4418 112.399 102.632" stroke="white" stroke-width="2"/>
<rect x="105.465" y="102.245" width="3.45428" height="32.6973" rx="1.72714" transform="rotate(55.0978 105.465 102.245)" stroke="white" stroke-width="2"/>
<path d="M186.774 130.638C182.996 129.172 176.264 123.984 179.561 114.966C183.683 103.692 190.637 104.242 188.319 99.5679C186.001 94.8936 198.623 108.917 200.168 114.416C201.714 119.915 201.971 131.188 189.865 130.638M186.774 130.638H189.865M186.774 130.638C185.743 129.263 183.837 125.799 184.455 122.939C185.074 120.08 185.572 118.998 185.743 118.815C186.087 119.548 186.928 121.015 187.546 121.015C188.319 121.015 189.865 116.89 189.865 114.966C189.865 113.426 189.521 112.674 189.349 112.491C194.244 116.432 201.198 125.579 189.865 130.638" stroke="white" stroke-width="2" stroke-linecap="round" stroke-linejoin="round"/>
<rect x="37" y="15" width="327" height="189.071" fill="#F0F0F0"/>
<rect x="41" y="19" width="180" height="182" fill="#211915"/>
<rect x="221" y="19" width="139" height="182" fill="#73B3C0"/>
<path d="M121.655 79.432C121.751 79.432 121.831 79.4373 121.895 79.448C121.959 79.4533 122.015 79.4693 122.063 79.496C122.117 79.5173 122.167 79.552 122.215 79.6C122.263 79.6427 122.317 79.7013 122.375 79.776L128.447 87.512C128.426 87.3253 128.41 87.144 128.399 86.968C128.394 86.7867 128.391 86.6187 128.391 86.464V79.432H130.287V91H129.175C129.005 91 128.863 90.9733 128.751 90.92C128.639 90.8667 128.53 90.7707 128.423 90.632L122.375 82.928C122.391 83.0987 122.402 83.2693 122.407 83.44C122.418 83.6053 122.423 83.7573 122.423 83.896V91H120.527V79.432H121.655ZM136.013 82.664C136.626 82.664 137.181 82.7627 137.677 82.96C138.178 83.1573 138.605 83.4373 138.957 83.8C139.309 84.1627 139.581 84.6053 139.773 85.128C139.965 85.6507 140.061 86.2347 140.061 86.88C140.061 87.5307 139.965 88.1173 139.773 88.64C139.581 89.1627 139.309 89.608 138.957 89.976C138.605 90.344 138.178 90.6267 137.677 90.824C137.181 91.0213 136.626 91.12 136.013 91.12C135.4 91.12 134.842 91.0213 134.341 90.824C133.84 90.6267 133.41 90.344 133.053 89.976C132.701 89.608 132.426 89.1627 132.229 88.64C132.037 88.1173 131.941 87.5307 131.941 86.88C131.941 86.2347 132.037 85.6507 132.229 85.128C132.426 84.6053 132.701 84.1627 133.053 83.8C133.41 83.4373 133.84 83.1573 134.341 82.96C134.842 82.7627 135.4 82.664 136.013 82.664ZM136.013 89.6C136.696 89.6 137.2 89.3707 137.525 88.912C137.856 88.4533 138.021 87.7813 138.021 86.896C138.021 86.0107 137.856 85.336 137.525 84.872C137.2 84.408 136.696 84.176 136.013 84.176C135.32 84.176 134.808 84.4107 134.477 84.88C134.146 85.344 133.981 86.016 133.981 86.896C133.981 87.776 134.146 88.448 134.477 88.912C134.808 89.3707 135.32 89.6 136.013 89.6ZM93.4623 102.48V107H91.3103V95.432H94.8383C95.6276 95.432 96.3023 95.5147 96.8623 95.68C97.4276 95.84 97.889 96.0667 98.2463 96.36C98.609 96.6533 98.873 97.0053 99.0383 97.416C99.209 97.8213 99.2943 98.2693 99.2943 98.76C99.2943 99.1493 99.2356 99.5173 99.1183 99.864C99.0063 100.211 98.841 100.525 98.6223 100.808C98.409 101.091 98.1423 101.339 97.8223 101.552C97.5076 101.765 97.1476 101.936 96.7423 102.064C97.0143 102.219 97.249 102.44 97.4463 102.728L100.342 107H98.4063C98.2196 107 98.0596 106.963 97.9263 106.888C97.7983 106.813 97.689 106.707 97.5983 106.568L95.1663 102.864C95.0756 102.725 94.9743 102.627 94.8623 102.568C94.7556 102.509 94.5956 102.48 94.3823 102.48H93.4623ZM93.4623 100.936H94.8063C95.2116 100.936 95.5636 100.885 95.8623 100.784C96.1663 100.683 96.4143 100.544 96.6063 100.368C96.8036 100.187 96.9503 99.9733 97.0463 99.728C97.1423 99.4827 97.1903 99.2133 97.1903 98.92C97.1903 98.3333 96.9956 97.8827 96.6063 97.568C96.2223 97.2533 95.633 97.096 94.8383 97.096H93.4623V100.936ZM105.003 98.664C105.52 98.664 105.995 98.7467 106.427 98.912C106.864 99.0773 107.24 99.32 107.555 99.64C107.869 99.9547 108.115 100.344 108.291 100.808C108.467 101.267 108.555 101.792 108.555 102.384C108.555 102.533 108.547 102.659 108.531 102.76C108.52 102.856 108.496 102.933 108.459 102.992C108.427 103.045 108.381 103.085 108.323 103.112C108.264 103.133 108.189 103.144 108.099 103.144H103.027C103.085 103.987 103.312 104.605 103.707 105C104.101 105.395 104.624 105.592 105.275 105.592C105.595 105.592 105.869 105.555 106.099 105.48C106.333 105.405 106.536 105.323 106.707 105.232C106.883 105.141 107.035 105.059 107.163 104.984C107.296 104.909 107.424 104.872 107.547 104.872C107.627 104.872 107.696 104.888 107.755 104.92C107.813 104.952 107.864 104.997 107.907 105.056L108.483 105.776C108.264 106.032 108.019 106.248 107.747 106.424C107.475 106.595 107.189 106.733 106.891 106.84C106.597 106.941 106.296 107.013 105.987 107.056C105.683 107.099 105.387 107.12 105.099 107.12C104.528 107.12 103.997 107.027 103.507 106.84C103.016 106.648 102.589 106.368 102.227 106C101.864 105.627 101.579 105.168 101.371 104.624C101.163 104.075 101.059 103.44 101.059 102.72C101.059 102.16 101.149 101.635 101.331 101.144C101.512 100.648 101.771 100.219 102.107 99.856C102.448 99.488 102.861 99.1973 103.347 98.984C103.837 98.7707 104.389 98.664 105.003 98.664ZM105.043 100.08C104.467 100.08 104.016 100.243 103.691 100.568C103.365 100.893 103.157 101.355 103.067 101.952H106.779C106.779 101.696 106.744 101.456 106.675 101.232C106.605 101.003 106.499 100.803 106.355 100.632C106.211 100.461 106.029 100.328 105.811 100.232C105.592 100.131 105.336 100.08 105.043 100.08ZM110.158 107V98.792H111.366C111.622 98.792 111.79 98.912 111.87 99.152L112.006 99.8C112.171 99.6293 112.344 99.4747 112.526 99.336C112.712 99.1973 112.907 99.0773 113.11 98.976C113.318 98.8747 113.539 98.7973 113.774 98.744C114.008 98.6907 114.264 98.664 114.542 98.664C114.99 98.664 115.387 98.7413 115.734 98.896C116.08 99.0453 116.368 99.2587 116.598 99.536C116.832 99.808 117.008 100.136 117.126 100.52C117.248 100.899 117.31 101.317 117.31 101.776V107H115.334V101.776C115.334 101.275 115.216 100.888 114.982 100.616C114.752 100.339 114.406 100.2 113.942 100.2C113.6 100.2 113.28 100.277 112.982 100.432C112.683 100.587 112.4 100.797 112.134 101.064V107H110.158ZM122.755 98.664C123.369 98.664 123.923 98.7627 124.419 98.96C124.921 99.1573 125.347 99.4373 125.699 99.8C126.051 100.163 126.323 100.605 126.515 101.128C126.707 101.651 126.803 102.235 126.803 102.88C126.803 103.531 126.707 104.117 126.515 104.64C126.323 105.163 126.051 105.608 125.699 105.976C125.347 106.344 124.921 106.627 124.419 106.824C123.923 107.021 123.369 107.12 122.755 107.12C122.142 107.12 121.585 107.021 121.083 106.824C120.582 106.627 120.153 106.344 119.795 105.976C119.443 105.608 119.169 105.163 118.971 104.64C118.779 104.117 118.683 103.531 118.683 102.88C118.683 102.235 118.779 101.651 118.971 101.128C119.169 100.605 119.443 100.163 119.795 99.8C120.153 99.4373 120.582 99.1573 121.083 98.96C121.585 98.7627 122.142 98.664 122.755 98.664ZM122.755 105.6C123.438 105.6 123.942 105.371 124.267 104.912C124.598 104.453 124.763 103.781 124.763 102.896C124.763 102.011 124.598 101.336 124.267 100.872C123.942 100.408 123.438 100.176 122.755 100.176C122.062 100.176 121.55 100.411 121.219 100.88C120.889 101.344 120.723 102.016 120.723 102.896C120.723 103.776 120.889 104.448 121.219 104.912C121.55 105.371 122.062 105.6 122.755 105.6ZM132.191 107H130.399L127.135 98.792H128.775C128.919 98.792 129.039 98.8267 129.135 98.896C129.237 98.9653 129.306 99.0533 129.343 99.16L130.927 103.544C131.018 103.8 131.093 104.051 131.151 104.296C131.215 104.541 131.271 104.787 131.319 105.032C131.367 104.787 131.421 104.541 131.479 104.296C131.543 104.051 131.623 103.8 131.719 103.544L133.343 99.16C133.381 99.0533 133.447 98.9653 133.543 98.896C133.639 98.8267 133.754 98.792 133.887 98.792H135.447L132.191 107ZM143.043 107H142.155C141.968 107 141.821 106.973 141.715 106.92C141.608 106.861 141.528 106.747 141.475 106.576L141.299 105.992C141.091 106.179 140.885 106.344 140.683 106.488C140.485 106.627 140.28 106.744 140.067 106.84C139.853 106.936 139.627 107.008 139.387 107.056C139.147 107.104 138.88 107.128 138.587 107.128C138.24 107.128 137.92 107.083 137.627 106.992C137.333 106.896 137.08 106.755 136.867 106.568C136.659 106.381 136.496 106.149 136.379 105.872C136.261 105.595 136.203 105.272 136.203 104.904C136.203 104.595 136.283 104.291 136.443 103.992C136.608 103.688 136.88 103.416 137.259 103.176C137.637 102.931 138.141 102.728 138.771 102.568C139.4 102.408 140.181 102.317 141.115 102.296V101.816C141.115 101.267 140.997 100.861 140.763 100.6C140.533 100.333 140.197 100.2 139.755 100.2C139.435 100.2 139.168 100.237 138.955 100.312C138.741 100.387 138.555 100.472 138.395 100.568C138.24 100.659 138.096 100.741 137.963 100.816C137.829 100.891 137.683 100.928 137.523 100.928C137.389 100.928 137.275 100.893 137.179 100.824C137.083 100.755 137.005 100.669 136.947 100.568L136.587 99.936C137.531 99.072 138.669 98.64 140.003 98.64C140.483 98.64 140.909 98.72 141.283 98.88C141.661 99.0347 141.981 99.2533 142.243 99.536C142.504 99.8133 142.701 100.147 142.835 100.536C142.973 100.925 143.043 101.352 143.043 101.816V107ZM139.203 105.768C139.405 105.768 139.592 105.749 139.763 105.712C139.933 105.675 140.093 105.619 140.243 105.544C140.397 105.469 140.544 105.379 140.683 105.272C140.827 105.16 140.971 105.029 141.115 104.88V103.496C140.539 103.523 140.056 103.573 139.667 103.648C139.283 103.717 138.973 103.808 138.739 103.92C138.504 104.032 138.336 104.163 138.235 104.312C138.139 104.461 138.091 104.624 138.091 104.8C138.091 105.147 138.192 105.395 138.395 105.544C138.603 105.693 138.872 105.768 139.203 105.768ZM145.01 107V95.112H146.986V99.8C147.311 99.4533 147.679 99.1787 148.09 98.976C148.5 98.768 148.98 98.664 149.53 98.664C149.978 98.664 150.386 98.7573 150.754 98.944C151.127 99.1253 151.447 99.392 151.714 99.744C151.986 100.096 152.194 100.531 152.338 101.048C152.487 101.565 152.562 102.16 152.562 102.832C152.562 103.445 152.479 104.013 152.314 104.536C152.148 105.059 151.911 105.512 151.602 105.896C151.298 106.28 150.927 106.581 150.49 106.8C150.058 107.013 149.572 107.12 149.034 107.12C148.783 107.12 148.554 107.093 148.346 107.04C148.138 106.992 147.948 106.923 147.778 106.832C147.607 106.741 147.447 106.632 147.298 106.504C147.154 106.371 147.015 106.224 146.882 106.064L146.794 106.616C146.762 106.755 146.706 106.853 146.626 106.912C146.551 106.971 146.447 107 146.314 107H145.01ZM148.85 100.2C148.439 100.2 148.087 100.288 147.794 100.464C147.506 100.635 147.236 100.877 146.986 101.192V104.872C147.21 105.149 147.452 105.344 147.714 105.456C147.98 105.563 148.268 105.616 148.578 105.616C148.876 105.616 149.146 105.56 149.386 105.448C149.626 105.336 149.828 105.165 149.994 104.936C150.164 104.707 150.295 104.419 150.386 104.072C150.476 103.72 150.522 103.307 150.522 102.832C150.522 102.352 150.482 101.947 150.402 101.616C150.327 101.28 150.218 101.008 150.074 100.8C149.93 100.592 149.754 100.44 149.546 100.344C149.343 100.248 149.111 100.2 148.85 100.2ZM156.215 95.112V107H154.239V95.112H156.215ZM161.846 98.664C162.364 98.664 162.838 98.7467 163.27 98.912C163.708 99.0773 164.084 99.32 164.398 99.64C164.713 99.9547 164.958 100.344 165.134 100.808C165.31 101.267 165.398 101.792 165.398 102.384C165.398 102.533 165.39 102.659 165.374 102.76C165.364 102.856 165.34 102.933 165.302 102.992C165.27 103.045 165.225 103.085 165.166 103.112C165.108 103.133 165.033 103.144 164.942 103.144H159.87C159.929 103.987 160.156 104.605 160.55 105C160.945 105.395 161.468 105.592 162.118 105.592C162.438 105.592 162.713 105.555 162.942 105.48C163.177 105.405 163.38 105.323 163.55 105.232C163.726 105.141 163.878 105.059 164.006 104.984C164.14 104.909 164.268 104.872 164.39 104.872C164.47 104.872 164.54 104.888 164.598 104.92C164.657 104.952 164.708 104.997 164.75 105.056L165.326 105.776C165.108 106.032 164.862 106.248 164.59 106.424C164.318 106.595 164.033 106.733 163.734 106.84C163.441 106.941 163.14 107.013 162.83 107.056C162.526 107.099 162.23 107.12 161.942 107.12C161.372 107.12 160.841 107.027 160.35 106.84C159.86 106.648 159.433 106.368 159.07 106C158.708 105.627 158.422 105.168 158.214 104.624C158.006 104.075 157.902 103.44 157.902 102.72C157.902 102.16 157.993 101.635 158.174 101.144C158.356 100.648 158.614 100.219 158.95 99.856C159.292 99.488 159.705 99.1973 160.19 98.984C160.681 98.7707 161.233 98.664 161.846 98.664ZM161.886 100.08C161.31 100.08 160.86 100.243 160.534 100.568C160.209 100.893 160.001 101.355 159.91 101.952H163.622C163.622 101.696 163.588 101.456 163.518 101.232C163.449 101.003 163.342 100.803 163.198 100.632C163.054 100.461 162.873 100.328 162.654 100.232C162.436 100.131 162.18 100.08 161.886 100.08ZM171.873 100.392C171.82 100.477 171.764 100.539 171.705 100.576C171.647 100.608 171.572 100.624 171.481 100.624C171.385 100.624 171.281 100.597 171.169 100.544C171.063 100.491 170.937 100.432 170.793 100.368C170.649 100.299 170.484 100.237 170.297 100.184C170.116 100.131 169.9 100.104 169.649 100.104C169.26 100.104 168.953 100.187 168.729 100.352C168.505 100.517 168.393 100.733 168.393 101C168.393 101.176 168.449 101.325 168.561 101.448C168.679 101.565 168.831 101.669 169.017 101.76C169.209 101.851 169.425 101.933 169.665 102.008C169.905 102.077 170.151 102.155 170.401 102.24C170.652 102.325 170.897 102.424 171.137 102.536C171.377 102.643 171.591 102.781 171.777 102.952C171.969 103.117 172.121 103.317 172.233 103.552C172.351 103.787 172.409 104.069 172.409 104.4C172.409 104.795 172.337 105.16 172.193 105.496C172.049 105.827 171.839 106.115 171.561 106.36C171.284 106.6 170.94 106.789 170.529 106.928C170.124 107.061 169.657 107.128 169.129 107.128C168.847 107.128 168.569 107.101 168.297 107.048C168.031 107 167.772 106.931 167.521 106.84C167.276 106.749 167.047 106.643 166.833 106.52C166.625 106.397 166.441 106.264 166.281 106.12L166.737 105.368C166.796 105.277 166.865 105.208 166.945 105.16C167.025 105.112 167.127 105.088 167.249 105.088C167.372 105.088 167.487 105.123 167.593 105.192C167.705 105.261 167.833 105.336 167.977 105.416C168.121 105.496 168.289 105.571 168.481 105.64C168.679 105.709 168.927 105.744 169.225 105.744C169.46 105.744 169.66 105.717 169.825 105.664C169.996 105.605 170.135 105.531 170.241 105.44C170.353 105.349 170.433 105.245 170.481 105.128C170.535 105.005 170.561 104.88 170.561 104.752C170.561 104.56 170.503 104.403 170.385 104.28C170.273 104.157 170.121 104.051 169.929 103.96C169.743 103.869 169.527 103.789 169.281 103.72C169.041 103.645 168.793 103.565 168.537 103.48C168.287 103.395 168.039 103.296 167.793 103.184C167.553 103.067 167.337 102.92 167.145 102.744C166.959 102.568 166.807 102.352 166.689 102.096C166.577 101.84 166.521 101.531 166.521 101.168C166.521 100.832 166.588 100.512 166.721 100.208C166.855 99.904 167.049 99.64 167.305 99.416C167.567 99.1867 167.889 99.0053 168.273 98.872C168.663 98.7333 169.111 98.664 169.617 98.664C170.183 98.664 170.697 98.7573 171.161 98.944C171.625 99.1307 172.012 99.376 172.321 99.68L171.873 100.392Z" fill="white"/>
<path d="M124.156 129.368C124.156 129.539 124.129 129.693 124.076 129.832C124.023 129.971 123.937 130.093 123.82 130.2C123.708 130.301 123.559 130.381 123.372 130.44C123.185 130.493 122.961 130.52 122.7 130.52H119.916L119.588 132.448C119.807 132.411 120.017 132.384 120.22 132.368C120.423 132.347 120.62 132.336 120.812 132.336C121.425 132.336 121.967 132.429 122.436 132.616C122.905 132.803 123.3 133.059 123.62 133.384C123.94 133.704 124.18 134.083 124.34 134.52C124.505 134.952 124.588 135.416 124.588 135.912C124.588 136.536 124.476 137.107 124.252 137.624C124.033 138.136 123.727 138.579 123.332 138.952C122.937 139.325 122.465 139.616 121.916 139.824C121.372 140.027 120.775 140.128 120.124 140.128C119.745 140.128 119.383 140.088 119.036 140.008C118.695 139.928 118.372 139.821 118.068 139.688C117.769 139.549 117.492 139.392 117.236 139.216C116.98 139.035 116.748 138.843 116.54 138.64L117.308 137.616C117.388 137.509 117.481 137.429 117.588 137.376C117.695 137.317 117.809 137.288 117.932 137.288C118.092 137.288 118.241 137.333 118.38 137.424C118.524 137.509 118.679 137.605 118.844 137.712C119.015 137.813 119.212 137.907 119.436 137.992C119.66 138.077 119.937 138.12 120.268 138.12C120.599 138.12 120.881 138.067 121.116 137.96C121.351 137.848 121.54 137.699 121.684 137.512C121.833 137.32 121.94 137.099 122.004 136.848C122.073 136.592 122.108 136.32 122.108 136.032C122.108 135.467 121.948 135.037 121.628 134.744C121.308 134.445 120.855 134.296 120.268 134.296C119.745 134.296 119.233 134.395 118.732 134.592L117.196 134.176L118.188 128.344H124.156V129.368ZM134.301 128.344V129.384C134.301 129.677 134.269 129.915 134.205 130.096C134.141 130.277 134.08 130.432 134.021 130.56L129.949 139.184C129.842 139.413 129.685 139.608 129.477 139.768C129.269 139.923 128.994 140 128.653 140H126.845L131.005 131.656C131.117 131.427 131.237 131.221 131.365 131.04C131.498 130.859 131.642 130.685 131.797 130.52H126.669C126.594 130.52 126.522 130.507 126.453 130.48C126.389 130.448 126.33 130.408 126.277 130.36C126.229 130.307 126.189 130.248 126.157 130.184C126.125 130.115 126.109 130.045 126.109 129.976V128.344H134.301ZM140.718 131.168C140.718 131.595 140.641 131.984 140.486 132.336C140.332 132.688 140.126 132.992 139.87 133.248C139.614 133.499 139.316 133.693 138.974 133.832C138.638 133.971 138.286 134.04 137.918 134.04C137.513 134.04 137.14 133.971 136.798 133.832C136.462 133.693 136.169 133.499 135.918 133.248C135.673 132.992 135.481 132.688 135.342 132.336C135.204 131.984 135.134 131.595 135.134 131.168C135.134 130.725 135.204 130.325 135.342 129.968C135.481 129.605 135.673 129.296 135.918 129.04C136.169 128.784 136.462 128.587 136.798 128.448C137.14 128.304 137.513 128.232 137.918 128.232C138.324 128.232 138.697 128.304 139.038 128.448C139.385 128.587 139.681 128.784 139.926 129.04C140.177 129.296 140.372 129.605 140.51 129.968C140.649 130.325 140.718 130.725 140.718 131.168ZM138.814 131.168C138.814 130.896 138.79 130.672 138.742 130.496C138.7 130.315 138.638 130.171 138.558 130.064C138.478 129.957 138.382 129.883 138.27 129.84C138.164 129.797 138.046 129.776 137.918 129.776C137.79 129.776 137.673 129.797 137.566 129.84C137.46 129.883 137.369 129.957 137.294 130.064C137.22 130.171 137.161 130.315 137.118 130.496C137.076 130.672 137.054 130.896 137.054 131.168C137.054 131.424 137.076 131.637 137.118 131.808C137.161 131.979 137.22 132.115 137.294 132.216C137.369 132.317 137.46 132.389 137.566 132.432C137.673 132.475 137.79 132.496 137.918 132.496C138.046 132.496 138.164 132.475 138.27 132.432C138.382 132.389 138.478 132.317 138.558 132.216C138.638 132.115 138.7 131.979 138.742 131.808C138.79 131.637 138.814 131.424 138.814 131.168ZM144.382 128.712C144.462 128.621 144.561 128.539 144.678 128.464C144.796 128.384 144.958 128.344 145.166 128.344H146.974L138.19 139.648C138.11 139.749 138.009 139.835 137.886 139.904C137.769 139.968 137.625 140 137.454 140H135.598L144.382 128.712ZM147.422 137.264C147.422 137.691 147.345 138.083 147.19 138.44C147.036 138.792 146.83 139.096 146.574 139.352C146.318 139.603 146.02 139.797 145.678 139.936C145.342 140.075 144.99 140.144 144.622 140.144C144.217 140.144 143.844 140.075 143.502 139.936C143.166 139.797 142.873 139.603 142.622 139.352C142.377 139.096 142.185 138.792 142.046 138.44C141.908 138.083 141.838 137.691 141.838 137.264C141.838 136.821 141.908 136.421 142.046 136.064C142.185 135.701 142.377 135.392 142.622 135.136C142.873 134.88 143.166 134.683 143.502 134.544C143.844 134.4 144.217 134.328 144.622 134.328C145.028 134.328 145.401 134.4 145.742 134.544C146.089 134.683 146.385 134.88 146.63 135.136C146.881 135.392 147.076 135.701 147.214 136.064C147.353 136.421 147.422 136.821 147.422 137.264ZM145.518 137.264C145.518 136.997 145.494 136.776 145.446 136.6C145.404 136.419 145.342 136.275 145.262 136.168C145.182 136.061 145.086 135.987 144.974 135.944C144.868 135.901 144.75 135.88 144.622 135.88C144.494 135.88 144.377 135.901 144.27 135.944C144.164 135.987 144.073 136.061 143.998 136.168C143.924 136.275 143.865 136.419 143.822 136.6C143.78 136.776 143.758 136.997 143.758 137.264C143.758 137.52 143.78 137.733 143.822 137.904C143.865 138.075 143.924 138.211 143.998 138.312C144.073 138.413 144.164 138.485 144.27 138.528C144.377 138.571 144.494 138.592 144.622 138.592C144.75 138.592 144.868 138.571 144.974 138.528C145.086 138.485 145.182 138.413 145.262 138.312C145.342 138.211 145.404 138.075 145.446 137.904C145.494 137.733 145.518 137.52 145.518 137.264Z" fill="white"/>
<path d="M282.98 128.472H284.18V129.864C284.18 129.987 284.137 130.093 284.052 130.184C283.972 130.275 283.855 130.32 283.7 130.32H282.98V133H280.82V130.32H276.132C275.977 130.32 275.836 130.272 275.708 130.176C275.585 130.08 275.508 129.96 275.476 129.816L275.22 128.592L280.612 121.344H282.98V128.472ZM280.82 125.432C280.82 125.245 280.825 125.045 280.836 124.832C280.852 124.613 280.873 124.389 280.9 124.16L277.82 128.472H280.82V125.432ZM289.493 121.216C290.069 121.216 290.581 121.299 291.029 121.464C291.477 121.624 291.856 121.843 292.165 122.12C292.474 122.397 292.709 122.72 292.869 123.088C293.029 123.451 293.109 123.835 293.109 124.24C293.109 124.608 293.072 124.933 292.997 125.216C292.922 125.493 292.81 125.736 292.661 125.944C292.517 126.147 292.336 126.32 292.117 126.464C291.904 126.608 291.658 126.728 291.381 126.824C292.672 127.272 293.317 128.149 293.317 129.456C293.317 130.075 293.205 130.613 292.981 131.072C292.757 131.531 292.456 131.912 292.077 132.216C291.704 132.52 291.269 132.749 290.773 132.904C290.277 133.053 289.76 133.128 289.221 133.128C288.666 133.128 288.173 133.069 287.741 132.952C287.309 132.829 286.925 132.643 286.589 132.392C286.253 132.136 285.957 131.811 285.701 131.416C285.45 131.021 285.232 130.552 285.045 130.008L286.149 129.56C286.245 129.517 286.338 129.488 286.429 129.472C286.525 129.456 286.618 129.448 286.709 129.448C286.88 129.448 287.032 129.483 287.165 129.552C287.304 129.616 287.408 129.712 287.477 129.84C287.717 130.283 287.97 130.605 288.237 130.808C288.509 131.005 288.826 131.104 289.189 131.104C289.466 131.104 289.706 131.059 289.909 130.968C290.117 130.872 290.288 130.752 290.421 130.608C290.56 130.459 290.664 130.291 290.733 130.104C290.802 129.917 290.837 129.728 290.837 129.536C290.837 129.285 290.818 129.061 290.781 128.864C290.749 128.661 290.653 128.488 290.493 128.344C290.333 128.2 290.09 128.091 289.765 128.016C289.445 127.936 288.997 127.896 288.421 127.896V126.184C288.906 126.184 289.298 126.147 289.597 126.072C289.896 125.997 290.125 125.896 290.285 125.768C290.45 125.635 290.56 125.475 290.613 125.288C290.666 125.101 290.693 124.896 290.693 124.672C290.693 124.213 290.581 123.861 290.357 123.616C290.138 123.365 289.802 123.24 289.349 123.24C289.162 123.24 288.992 123.267 288.837 123.32C288.682 123.373 288.544 123.445 288.421 123.536C288.298 123.627 288.192 123.733 288.101 123.856C288.016 123.979 287.946 124.112 287.893 124.256C287.808 124.496 287.698 124.669 287.565 124.776C287.437 124.883 287.261 124.936 287.037 124.936C286.984 124.936 286.925 124.933 286.861 124.928C286.802 124.923 286.741 124.915 286.677 124.904L285.365 124.672C285.45 124.091 285.613 123.584 285.853 123.152C286.098 122.72 286.4 122.36 286.757 122.072C287.12 121.784 287.533 121.571 287.997 121.432C288.461 121.288 288.96 121.216 289.493 121.216ZM299.718 124.168C299.718 124.595 299.641 124.984 299.486 125.336C299.332 125.688 299.126 125.992 298.87 126.248C298.614 126.499 298.316 126.693 297.974 126.832C297.638 126.971 297.286 127.04 296.918 127.04C296.513 127.04 296.14 126.971 295.798 126.832C295.462 126.693 295.169 126.499 294.918 126.248C294.673 125.992 294.481 125.688 294.342 125.336C294.204 124.984 294.134 124.595 294.134 124.168C294.134 123.725 294.204 123.325 294.342 122.968C294.481 122.605 294.673 122.296 294.918 122.04C295.169 121.784 295.462 121.587 295.798 121.448C296.14 121.304 296.513 121.232 296.918 121.232C297.324 121.232 297.697 121.304 298.038 121.448C298.385 121.587 298.681 121.784 298.926 122.04C299.177 122.296 299.372 122.605 299.51 122.968C299.649 123.325 299.718 123.725 299.718 124.168ZM297.814 124.168C297.814 123.896 297.79 123.672 297.742 123.496C297.7 123.315 297.638 123.171 297.558 123.064C297.478 122.957 297.382 122.883 297.27 122.84C297.164 122.797 297.046 122.776 296.918 122.776C296.79 122.776 296.673 122.797 296.566 122.84C296.46 122.883 296.369 122.957 296.294 123.064C296.22 123.171 296.161 123.315 296.118 123.496C296.076 123.672 296.054 123.896 296.054 124.168C296.054 124.424 296.076 124.637 296.118 124.808C296.161 124.979 296.22 125.115 296.294 125.216C296.369 125.317 296.46 125.389 296.566 125.432C296.673 125.475 296.79 125.496 296.918 125.496C297.046 125.496 297.164 125.475 297.27 125.432C297.382 125.389 297.478 125.317 297.558 125.216C297.638 125.115 297.7 124.979 297.742 124.808C297.79 124.637 297.814 124.424 297.814 124.168ZM303.382 121.712C303.462 121.621 303.561 121.539 303.678 121.464C303.796 121.384 303.958 121.344 304.166 121.344H305.974L297.19 132.648C297.11 132.749 297.009 132.835 296.886 132.904C296.769 132.968 296.625 133 296.454 133H294.598L303.382 121.712ZM306.422 130.264C306.422 130.691 306.345 131.083 306.19 131.44C306.036 131.792 305.83 132.096 305.574 132.352C305.318 132.603 305.02 132.797 304.678 132.936C304.342 133.075 303.99 133.144 303.622 133.144C303.217 133.144 302.844 133.075 302.502 132.936C302.166 132.797 301.873 132.603 301.622 132.352C301.377 132.096 301.185 131.792 301.046 131.44C300.908 131.083 300.838 130.691 300.838 130.264C300.838 129.821 300.908 129.421 301.046 129.064C301.185 128.701 301.377 128.392 301.622 128.136C301.873 127.88 302.166 127.683 302.502 127.544C302.844 127.4 303.217 127.328 303.622 127.328C304.028 127.328 304.401 127.4 304.742 127.544C305.089 127.683 305.385 127.88 305.63 128.136C305.881 128.392 306.076 128.701 306.214 129.064C306.353 129.421 306.422 129.821 306.422 130.264ZM304.518 130.264C304.518 129.997 304.494 129.776 304.446 129.6C304.404 129.419 304.342 129.275 304.262 129.168C304.182 129.061 304.086 128.987 303.974 128.944C303.868 128.901 303.75 128.88 303.622 128.88C303.494 128.88 303.377 128.901 303.27 128.944C303.164 128.987 303.073 129.061 302.998 129.168C302.924 129.275 302.865 129.419 302.822 129.6C302.78 129.776 302.758 129.997 302.758 130.264C302.758 130.52 302.78 130.733 302.822 130.904C302.865 131.075 302.924 131.211 302.998 131.312C303.073 131.413 303.164 131.485 303.27 131.528C303.377 131.571 303.494 131.592 303.622 131.592C303.75 131.592 303.868 131.571 303.974 131.528C304.086 131.485 304.182 131.413 304.262 131.312C304.342 131.211 304.404 131.075 304.446 130.904C304.494 130.733 304.518 130.52 304.518 130.264Z" fill="white"/>
<path d="M252.462 95.48V100H250.31V88.432H253.838C254.628 88.432 255.302 88.5147 255.862 88.68C256.428 88.84 256.889 89.0667 257.246 89.36C257.609 89.6533 257.873 90.0053 258.038 90.416C258.209 90.8213 258.294 91.2693 258.294 91.76C258.294 92.1493 258.236 92.5173 258.118 92.864C258.006 93.2107 257.841 93.5253 257.622 93.808C257.409 94.0907 257.142 94.3387 256.822 94.552C256.508 94.7653 256.148 94.936 255.742 95.064C256.014 95.2187 256.249 95.44 256.446 95.728L259.342 100H257.406C257.22 100 257.06 99.9627 256.926 99.888C256.798 99.8133 256.689 99.7067 256.598 99.568L254.166 95.864C254.076 95.7253 253.974 95.6267 253.862 95.568C253.756 95.5093 253.596 95.48 253.382 95.48H252.462ZM252.462 93.936H253.806C254.212 93.936 254.564 93.8853 254.862 93.784C255.166 93.6827 255.414 93.544 255.606 93.368C255.804 93.1867 255.95 92.9733 256.046 92.728C256.142 92.4827 256.19 92.2133 256.19 91.92C256.19 91.3333 255.996 90.8827 255.606 90.568C255.222 90.2533 254.633 90.096 253.838 90.096H252.462V93.936ZM264.003 91.664C264.52 91.664 264.995 91.7467 265.427 91.912C265.864 92.0773 266.24 92.32 266.555 92.64C266.869 92.9547 267.115 93.344 267.291 93.808C267.467 94.2667 267.555 94.792 267.555 95.384C267.555 95.5333 267.547 95.6587 267.531 95.76C267.52 95.856 267.496 95.9333 267.459 95.992C267.427 96.0453 267.381 96.0853 267.323 96.112C267.264 96.1333 267.189 96.144 267.099 96.144H262.027C262.085 96.9867 262.312 97.6053 262.707 98C263.101 98.3947 263.624 98.592 264.275 98.592C264.595 98.592 264.869 98.5547 265.099 98.48C265.333 98.4053 265.536 98.3227 265.707 98.232C265.883 98.1413 266.035 98.0587 266.163 97.984C266.296 97.9093 266.424 97.872 266.547 97.872C266.627 97.872 266.696 97.888 266.755 97.92C266.813 97.952 266.864 97.9973 266.907 98.056L267.483 98.776C267.264 99.032 267.019 99.248 266.747 99.424C266.475 99.5947 266.189 99.7333 265.891 99.84C265.597 99.9413 265.296 100.013 264.987 100.056C264.683 100.099 264.387 100.12 264.099 100.12C263.528 100.12 262.997 100.027 262.507 99.84C262.016 99.648 261.589 99.368 261.227 99C260.864 98.6267 260.579 98.168 260.371 97.624C260.163 97.0747 260.059 96.44 260.059 95.72C260.059 95.16 260.149 94.6347 260.331 94.144C260.512 93.648 260.771 93.2187 261.107 92.856C261.448 92.488 261.861 92.1973 262.347 91.984C262.837 91.7707 263.389 91.664 264.003 91.664ZM264.043 93.08C263.467 93.08 263.016 93.2427 262.691 93.568C262.365 93.8933 262.157 94.3547 262.067 94.952H265.779C265.779 94.696 265.744 94.456 265.675 94.232C265.605 94.0027 265.499 93.8027 265.355 93.632C265.211 93.4613 265.029 93.328 264.811 93.232C264.592 93.1307 264.336 93.08 264.043 93.08ZM269.158 100V91.792H270.366C270.622 91.792 270.79 91.912 270.87 92.152L271.006 92.8C271.171 92.6293 271.344 92.4747 271.526 92.336C271.712 92.1973 271.907 92.0773 272.11 91.976C272.318 91.8747 272.539 91.7973 272.774 91.744C273.008 91.6907 273.264 91.664 273.542 91.664C273.99 91.664 274.387 91.7413 274.734 91.896C275.08 92.0453 275.368 92.2587 275.598 92.536C275.832 92.808 276.008 93.136 276.126 93.52C276.248 93.8987 276.31 94.3173 276.31 94.776V100H274.334V94.776C274.334 94.2747 274.216 93.888 273.982 93.616C273.752 93.3387 273.406 93.2 272.942 93.2C272.6 93.2 272.28 93.2773 271.982 93.432C271.683 93.5867 271.4 93.7973 271.134 94.064V100H269.158ZM281.755 91.664C282.369 91.664 282.923 91.7627 283.419 91.96C283.921 92.1573 284.347 92.4373 284.699 92.8C285.051 93.1627 285.323 93.6053 285.515 94.128C285.707 94.6507 285.803 95.2347 285.803 95.88C285.803 96.5307 285.707 97.1173 285.515 97.64C285.323 98.1627 285.051 98.608 284.699 98.976C284.347 99.344 283.921 99.6267 283.419 99.824C282.923 100.021 282.369 100.12 281.755 100.12C281.142 100.12 280.585 100.021 280.083 99.824C279.582 99.6267 279.153 99.344 278.795 98.976C278.443 98.608 278.169 98.1627 277.971 97.64C277.779 97.1173 277.683 96.5307 277.683 95.88C277.683 95.2347 277.779 94.6507 277.971 94.128C278.169 93.6053 278.443 93.1627 278.795 92.8C279.153 92.4373 279.582 92.1573 280.083 91.96C280.585 91.7627 281.142 91.664 281.755 91.664ZM281.755 98.6C282.438 98.6 282.942 98.3707 283.267 97.912C283.598 97.4533 283.763 96.7813 283.763 95.896C283.763 95.0107 283.598 94.336 283.267 93.872C282.942 93.408 282.438 93.176 281.755 93.176C281.062 93.176 280.55 93.4107 280.219 93.88C279.889 94.344 279.723 95.016 279.723 95.896C279.723 96.776 279.889 97.448 280.219 97.912C280.55 98.3707 281.062 98.6 281.755 98.6ZM291.191 100H289.399L286.135 91.792H287.775C287.919 91.792 288.039 91.8267 288.135 91.896C288.237 91.9653 288.306 92.0533 288.343 92.16L289.927 96.544C290.018 96.8 290.093 97.0507 290.151 97.296C290.215 97.5413 290.271 97.7867 290.319 98.032C290.367 97.7867 290.421 97.5413 290.479 97.296C290.543 97.0507 290.623 96.8 290.719 96.544L292.343 92.16C292.381 92.0533 292.447 91.9653 292.543 91.896C292.639 91.8267 292.754 91.792 292.887 91.792H294.447L291.191 100ZM302.043 100H301.155C300.968 100 300.821 99.9733 300.715 99.92C300.608 99.8613 300.528 99.7467 300.475 99.576L300.299 98.992C300.091 99.1787 299.885 99.344 299.683 99.488C299.485 99.6267 299.28 99.744 299.067 99.84C298.853 99.936 298.627 100.008 298.387 100.056C298.147 100.104 297.88 100.128 297.587 100.128C297.24 100.128 296.92 100.083 296.627 99.992C296.333 99.896 296.08 99.7547 295.867 99.568C295.659 99.3813 295.496 99.1493 295.379 98.872C295.261 98.5947 295.203 98.272 295.203 97.904C295.203 97.5947 295.283 97.2907 295.443 96.992C295.608 96.688 295.88 96.416 296.259 96.176C296.637 95.9307 297.141 95.728 297.771 95.568C298.4 95.408 299.181 95.3173 300.115 95.296V94.816C300.115 94.2667 299.997 93.8613 299.763 93.6C299.533 93.3333 299.197 93.2 298.755 93.2C298.435 93.2 298.168 93.2373 297.955 93.312C297.741 93.3867 297.555 93.472 297.395 93.568C297.24 93.6587 297.096 93.7413 296.963 93.816C296.829 93.8907 296.683 93.928 296.523 93.928C296.389 93.928 296.275 93.8933 296.179 93.824C296.083 93.7547 296.005 93.6693 295.947 93.568L295.587 92.936C296.531 92.072 297.669 91.64 299.003 91.64C299.483 91.64 299.909 91.72 300.283 91.88C300.661 92.0347 300.981 92.2533 301.243 92.536C301.504 92.8133 301.701 93.1467 301.835 93.536C301.973 93.9253 302.043 94.352 302.043 94.816V100ZM298.203 98.768C298.405 98.768 298.592 98.7493 298.763 98.712C298.933 98.6747 299.093 98.6187 299.243 98.544C299.397 98.4693 299.544 98.3787 299.683 98.272C299.827 98.16 299.971 98.0293 300.115 97.88V96.496C299.539 96.5227 299.056 96.5733 298.667 96.648C298.283 96.7173 297.973 96.808 297.739 96.92C297.504 97.032 297.336 97.1627 297.235 97.312C297.139 97.4613 297.091 97.624 297.091 97.8C297.091 98.1467 297.192 98.3947 297.395 98.544C297.603 98.6933 297.872 98.768 298.203 98.768ZM304.01 100V88.112H305.986V92.8C306.311 92.4533 306.679 92.1787 307.09 91.976C307.5 91.768 307.98 91.664 308.53 91.664C308.978 91.664 309.386 91.7573 309.754 91.944C310.127 92.1253 310.447 92.392 310.714 92.744C310.986 93.096 311.194 93.5307 311.338 94.048C311.487 94.5653 311.562 95.16 311.562 95.832C311.562 96.4453 311.479 97.0133 311.314 97.536C311.148 98.0587 310.911 98.512 310.602 98.896C310.298 99.28 309.927 99.5813 309.49 99.8C309.058 100.013 308.572 100.12 308.034 100.12C307.783 100.12 307.554 100.093 307.346 100.04C307.138 99.992 306.948 99.9227 306.778 99.832C306.607 99.7413 306.447 99.632 306.298 99.504C306.154 99.3707 306.015 99.224 305.882 99.064L305.794 99.616C305.762 99.7547 305.706 99.8533 305.626 99.912C305.551 99.9707 305.447 100 305.314 100H304.01ZM307.85 93.2C307.439 93.2 307.087 93.288 306.794 93.464C306.506 93.6347 306.236 93.8773 305.986 94.192V97.872C306.21 98.1493 306.452 98.344 306.714 98.456C306.98 98.5627 307.268 98.616 307.578 98.616C307.876 98.616 308.146 98.56 308.386 98.448C308.626 98.336 308.828 98.1653 308.994 97.936C309.164 97.7067 309.295 97.4187 309.386 97.072C309.476 96.72 309.522 96.3067 309.522 95.832C309.522 95.352 309.482 94.9467 309.402 94.616C309.327 94.28 309.218 94.008 309.074 93.8C308.93 93.592 308.754 93.44 308.546 93.344C308.343 93.248 308.111 93.2 307.85 93.2ZM315.215 88.112V100H313.239V88.112H315.215ZM320.846 91.664C321.364 91.664 321.838 91.7467 322.27 91.912C322.708 92.0773 323.084 92.32 323.398 92.64C323.713 92.9547 323.958 93.344 324.134 93.808C324.31 94.2667 324.398 94.792 324.398 95.384C324.398 95.5333 324.39 95.6587 324.374 95.76C324.364 95.856 324.34 95.9333 324.302 95.992C324.27 96.0453 324.225 96.0853 324.166 96.112C324.108 96.1333 324.033 96.144 323.942 96.144H318.87C318.929 96.9867 319.156 97.6053 319.55 98C319.945 98.3947 320.468 98.592 321.118 98.592C321.438 98.592 321.713 98.5547 321.942 98.48C322.177 98.4053 322.38 98.3227 322.55 98.232C322.726 98.1413 322.878 98.0587 323.006 97.984C323.14 97.9093 323.268 97.872 323.39 97.872C323.47 97.872 323.54 97.888 323.598 97.92C323.657 97.952 323.708 97.9973 323.75 98.056L324.326 98.776C324.108 99.032 323.862 99.248 323.59 99.424C323.318 99.5947 323.033 99.7333 322.734 99.84C322.441 99.9413 322.14 100.013 321.83 100.056C321.526 100.099 321.23 100.12 320.942 100.12C320.372 100.12 319.841 100.027 319.35 99.84C318.86 99.648 318.433 99.368 318.07 99C317.708 98.6267 317.422 98.168 317.214 97.624C317.006 97.0747 316.902 96.44 316.902 95.72C316.902 95.16 316.993 94.6347 317.174 94.144C317.356 93.648 317.614 93.2187 317.95 92.856C318.292 92.488 318.705 92.1973 319.19 91.984C319.681 91.7707 320.233 91.664 320.846 91.664ZM320.886 93.08C320.31 93.08 319.86 93.2427 319.534 93.568C319.209 93.8933 319.001 94.3547 318.91 94.952H322.622C322.622 94.696 322.588 94.456 322.518 94.232C322.449 94.0027 322.342 93.8027 322.198 93.632C322.054 93.4613 321.873 93.328 321.654 93.232C321.436 93.1307 321.18 93.08 320.886 93.08ZM330.873 93.392C330.82 93.4773 330.764 93.5387 330.705 93.576C330.647 93.608 330.572 93.624 330.481 93.624C330.385 93.624 330.281 93.5973 330.169 93.544C330.063 93.4907 329.937 93.432 329.793 93.368C329.649 93.2987 329.484 93.2373 329.297 93.184C329.116 93.1307 328.9 93.104 328.649 93.104C328.26 93.104 327.953 93.1867 327.729 93.352C327.505 93.5173 327.393 93.7333 327.393 94C327.393 94.176 327.449 94.3253 327.561 94.448C327.679 94.5653 327.831 94.6693 328.017 94.76C328.209 94.8507 328.425 94.9333 328.665 95.008C328.905 95.0773 329.151 95.1547 329.401 95.24C329.652 95.3253 329.897 95.424 330.137 95.536C330.377 95.6427 330.591 95.7813 330.777 95.952C330.969 96.1173 331.121 96.3173 331.233 96.552C331.351 96.7867 331.409 97.0693 331.409 97.4C331.409 97.7947 331.337 98.16 331.193 98.496C331.049 98.8267 330.839 99.1147 330.561 99.36C330.284 99.6 329.94 99.7893 329.529 99.928C329.124 100.061 328.657 100.128 328.129 100.128C327.847 100.128 327.569 100.101 327.297 100.048C327.031 100 326.772 99.9307 326.521 99.84C326.276 99.7493 326.047 99.6427 325.833 99.52C325.625 99.3973 325.441 99.264 325.281 99.12L325.737 98.368C325.796 98.2773 325.865 98.208 325.945 98.16C326.025 98.112 326.127 98.088 326.249 98.088C326.372 98.088 326.487 98.1227 326.593 98.192C326.705 98.2613 326.833 98.336 326.977 98.416C327.121 98.496 327.289 98.5707 327.481 98.64C327.679 98.7093 327.927 98.744 328.225 98.744C328.46 98.744 328.66 98.7173 328.825 98.664C328.996 98.6053 329.135 98.5307 329.241 98.44C329.353 98.3493 329.433 98.2453 329.481 98.128C329.535 98.0053 329.561 97.88 329.561 97.752C329.561 97.56 329.503 97.4027 329.385 97.28C329.273 97.1573 329.121 97.0507 328.929 96.96C328.743 96.8693 328.527 96.7893 328.281 96.72C328.041 96.6453 327.793 96.5653 327.537 96.48C327.287 96.3947 327.039 96.296 326.793 96.184C326.553 96.0667 326.337 95.92 326.145 95.744C325.959 95.568 325.807 95.352 325.689 95.096C325.577 94.84 325.521 94.5307 325.521 94.168C325.521 93.832 325.588 93.512 325.721 93.208C325.855 92.904 326.049 92.64 326.305 92.416C326.567 92.1867 326.889 92.0053 327.273 91.872C327.663 91.7333 328.111 91.664 328.617 91.664C329.183 91.664 329.697 91.7573 330.161 91.944C330.625 92.1307 331.012 92.376 331.321 92.68L330.873 93.392Z" fill="white"/>
</svg>
