<svg width="602" height="293" viewBox="0 0 602 293" fill="none" xmlns="http://www.w3.org/2000/svg">
<path d="M600.97 292.214H332.562V175.402H365.587V103.626L444.985 175.402V103.626L496.98 151.05L523.68 175.402V103.626L551.083 129.074L600.97 175.402V292.214Z" fill="#4B4B4B" stroke="#393939" stroke-width="1.3"/>
<path d="M523.872 104.936V176.43L497.467 152.173L505.665 43.2554L507.195 22.9287H539.855L541.96 43.2554L550.973 130.284L523.872 104.936Z" fill="#3C3C3C"/>
<path d="M541.96 43.2554L539.855 22.9287H507.195L505.665 43.2554M541.96 43.2554L550.973 130.284L523.872 104.936V176.43L497.467 152.173L505.665 43.2554M541.96 43.2554H505.665" stroke="#393939" stroke-width="1.3"/>
<path d="M412.049 230.813V210.639H434.427V230.813H412.049Z" fill="#73B3C0"/>
<path d="M456.105 230.813V210.639H478.483V230.813H456.105Z" fill="#73B3C0"/>
<path d="M500.861 230.813V210.639H523.239V230.813H500.861Z" fill="#73B3C0"/>
<path d="M547.015 230.813V210.639H569.393V230.813H547.015Z" fill="#73B3C0"/>
<path d="M365.895 230.813V210.639H388.272V230.813H365.895Z" fill="#73B3C0"/>
<path d="M412.049 230.813V210.639H434.427V230.813H412.049Z" stroke="#393939" stroke-width="1.3"/>
<path d="M456.105 230.813V210.639H478.483V230.813H456.105Z" stroke="#393939" stroke-width="1.3"/>
<path d="M500.861 230.813V210.639H523.239V230.813H500.861Z" stroke="#393939" stroke-width="1.3"/>
<path d="M547.015 230.813V210.639H569.393V230.813H547.015Z" stroke="#393939" stroke-width="1.3"/>
<path d="M365.895 230.813V210.639H388.272V230.813H365.895Z" stroke="#393939" stroke-width="1.3"/>
<path d="M286.074 107.715L240.434 238.707H43.8313L1 107.715H11.1812C15.6282 88.9186 26.8392 49.7144 36.1076 43.2698C47.6931 35.2141 46.2888 36.2649 62.7894 46.0718C79.2899 55.8787 88.0668 56.5795 95.4394 49.9246C102.812 43.2698 137.217 5.79357 157.229 2.29111C177.24 -1.21136 199.709 18.7527 207.784 15.2502C215.859 11.7478 232.71 -0.861058 241.838 13.4991C250.966 27.8592 267.116 50.2749 256.583 59.7316C246.051 69.1883 240.785 75.1424 251.317 80.3961C261.849 85.6498 286.776 101.411 278.35 107.715H286.074Z" fill="#73B3C0"/>
<path d="M11.1812 107.715H1L43.8313 238.707H240.434L286.074 107.715H278.35M11.1812 107.715C15.6282 88.9186 26.8392 49.7144 36.1076 43.2698C47.6931 35.2141 46.2888 36.2649 62.7894 46.0718C79.2899 55.8787 88.0668 56.5795 95.4394 49.9246C102.812 43.2698 137.217 5.79357 157.229 2.29111C177.24 -1.21136 199.709 18.7527 207.784 15.2502C215.858 11.7478 232.71 -0.861058 241.838 13.4991C250.966 27.8592 267.116 50.2749 256.583 59.7316C246.051 69.1883 240.785 75.1424 251.317 80.3961C261.849 85.6498 286.776 101.411 278.35 107.715M11.1812 107.715H278.35" stroke="#393939" stroke-width="1.3"/>
<path d="M36.3269 42.1659C27.1049 48.5751 15.9501 87.5645 11.5254 106.258H277.356C285.74 99.9879 260.938 84.3136 250.458 79.0887C239.979 73.8638 245.219 67.9423 255.698 58.5375C266.178 49.1326 250.109 26.8398 241.027 12.5584C231.945 -1.723 215.177 10.8167 207.143 14.3C199.109 17.7832 176.752 -2.07138 156.841 1.41188C136.93 4.89515 102.697 42.1659 95.3615 48.7843C88.0259 55.4026 79.293 54.7057 62.875 44.9525C46.4571 35.1994 47.8544 34.1544 36.3269 42.1659Z" fill="#4B4B4B" stroke="#393939" stroke-width="1.3"/>
<circle cx="52.3138" cy="243.532" r="44.5232" fill="#4B4B4B" stroke="#393939" stroke-width="1.3"/>
<circle cx="234.761" cy="243.532" r="44.5232" fill="#4B4B4B" stroke="#393939" stroke-width="1.3"/>
</svg>
