<?xml version="1.0" encoding="utf-8"?>
<!-- Generator: Adobe Illustrator 22.1.0, SVG Export Plug-In . SVG Version: 6.00 Build 0)  -->
<svg version="1.1" id="Layer_1" xmlns="http://www.w3.org/2000/svg" xmlns:xlink="http://www.w3.org/1999/xlink" x="0px" y="0px"
	 viewBox="0 0 1600 2196.2" style="enable-background:new 0 0 1600 2196.2;" xml:space="preserve">
<style type="text/css">
	.st0{fill:#00616C;}
	.st1{fill:none;stroke:#FFFFFF;stroke-width:0.6206;stroke-linecap:round;stroke-linejoin:round;}
	.st2{fill:none;stroke:#FFFFFF;stroke-width:0.6206;stroke-miterlimit:10;}
	.st3{fill:#EA7903;stroke:#FFFFFF;stroke-miterlimit:10;}
	.st4{fill:#E01D14;stroke:#FFFFFF;stroke-miterlimit:10;}
	.st5{fill:none;stroke:#EA7903;stroke-width:1.655;stroke-linecap:round;stroke-linejoin:round;stroke-miterlimit:10;}
	.st6{fill:#EA7903;}
	.st7{fill:#FFFFFF;}
	.st8{font-family:'OpenSans-Regular';}
	.st9{font-size:18.3368px;}
</style>
<g>
	<path class="st0" d="M893.8,290.8c0,1.6-2.1,2.4-3.1,3.6c-1.4,2.2-2.1,4.8-2,7.5c-0.7,4.6-3.1,8.7-6.8,11.6c-1.1,1-2.4,1.6-3.8,1.9
		c-1.4,0.3-2.9,0.1-4.2-0.5c-1.8-1-2.7-3.2-4.3-4.5c-0.8-0.5-1.6-0.9-2.5-1.1s-1.8-0.2-2.7,0s-1.7,0.5-2.5,1s-1.4,1.2-1.9,1.9
		c-0.9,1.6-1.1,3.5-0.6,5.3s1.7,3.3,3.2,4.2c0.7,0.4,1.6,1,1.3,1.7c-0.2,0.3-0.5,0.6-0.8,0.8c-2.3,0.9-4.4,2-6.4,3.4
		c-1,0.7-1.8,1.7-2.2,2.8s-0.5,2.4-0.1,3.6c1.8,4.4-3.4,9-4.8,13.7c-1.4,4.7,0,8-1.3,11.8c-0.5,1.8-1.2,3.5-1.9,5.3
		c-2.5,6.8-1,15.7-5.3,21.8c-0.5,0.6-1,1.3-1.2,2.1c-1,3.4,4.4,5.9,3.8,9.4c-0.2,0.8-0.6,1.6-1.2,2.3l-5.1,6.8
		c-0.2,0.3-0.4,0.5-0.7,0.7c-0.8,0.5-1.9,0-2.6-0.7c-0.7-0.7-1.2-1.6-2.1-2c-0.8-0.2-1.7-0.1-2.5,0.2c-0.8,0.3-1.5,0.8-2,1.5
		c-4.2,4.4-6.9,10.1-7.5,16.2c0,2.9,0,5.8-0.8,8.5c-0.7,2-1,4.2-1,6.3c0,0.8,0.5,1.6,0.6,2.5c0.1,2.2-0.2,4.4-1,6.5
		c-2.1,10.2-2.5,20.7-1.2,31c2-0.9,3.6,1.4,4.1,3.4s0.8,4.4,2.5,5.7c1.7,1.3,1.7,0.8,2.5,1.2c2.6,1.7,2.4,5.5,1.5,8.5
		c-0.9,2.9-1.9,6.4,0,9s5.7,3.1,8.8,4.5c3,1.4,5.3,4.2,8.6,4.9c3.2,0.8,6.4,0,7.7,2.5c0.3,1,0.3,2.1,0.1,3.1s-0.7,2-1.4,2.7
		c-0.2,0.5-0.5,0.9-1,1.1c-0.6,0.2-1.2,0.2-1.7,0c-1.4-0.9-3.1-1.4-4.8-1.4c-1.7-0.1-3.4,0.3-4.9,1.1c-1.2,1.1-2,2.7-2.2,4.3
		c-0.2,1.7,0.3,3.3,1.2,4.7c1.2,1.6,2.9,2.8,4.2,4.4c1,1.3,1.8,2.8,2.5,4.4c1.2,2.4,2,4.9,2.3,7.6c0,1.7,0,3.5,0,5.1
		s0.2,3.1,0.7,4.6c-8.6-0.7-16.8-3.8-23.7-8.8c-5.5-4.9-11.4-9.5-17.5-13.7c-4.8-2.6-10.2-3.9-15.7-3.7c-5.5,0.2-10.8,1.8-15.4,4.7
		c-6,3.8-10.5,9.6-16.4,13.7c-10.4,5.8-22.7,7.3-34.2,4.1c-0.8-1.4-1-3-0.8-4.5c0.6-2.7,0.9-5.5,0.6-8.3c-0.6-2.5-2.6-4.9-2.2-7.5
		c0.4-1.3,1-2.6,1.8-3.8c0.8-2.1,1.2-4.4,1-6.7c-0.1-2.3-0.8-4.5-1.9-6.5c-0.4-0.9-0.7-1.8-0.8-2.8c0-2.4,1.9-4.2,2.7-6.5
		c0.6-2.5,0.3-5.1-0.7-7.4c-0.6-2.4-1.5-4.7-2.6-6.8c-0.7-1.2-1.4-2.4-2-3.6c-1.4-3.8,0.6-8.2-0.5-12c-0.8-2.3-2.6-4.2-3.3-6.8
		c-0.3-1.7-0.5-3.5-0.5-5.3c-0.5-2.4-1.2-4.7-2.3-6.8c-1.8-4.6-2.8-9.5-3-14.4c1.3-1.4,2-3.1,2.2-5c0.1-1.9-0.4-3.7-1.4-5.2
		c-1.7-2.9-5.1-4.9-6-8.1c-0.1-2.6,0.1-5.1,0.6-7.7c-0.1-1.9-0.3-3.8-0.6-5.7c0-2.8,0.3-5.7,0.8-8.5c0.4-7.3-0.7-14.6-3.1-21.5
		c-1.5-3.9-2.3-8.1-2.5-12.3c0.8-4.4,1-8.8,0.5-13.2c-0.4-1.1-0.8-2.3-1.1-3.5c-0.1-1.1-0.1-2.2,0-3.4c1.5-12.5-1-25.6,2.7-37.6
		c1.9,1.3,4.1,2.2,6.3,2.5c2.3,0.4,4.6,0.3,6.8-0.3c2.1-1.1,3.9-2.8,5.2-4.8s2-4.4,2.1-6.8c0-0.7,0.2-1.3,0.6-1.9
		c0.6-0.6,1.4-0.9,2.2-1.1c2-0.6,3.8-1.7,5.3-3.1s2.8-3.1,3.6-4.9c0.9-1.9,1.3-3.9,1.3-6s-0.4-4.1-1.2-6c-1-1.7-1.6-3.6-1.8-5.6
		c0.2-1.2,0.8-2.3,1.5-3.2c0.7-0.9,1.7-1.7,2.8-2.2c2.2-1,4.1-2.4,5.7-4.2c1.1-2.1,1.5-4.5,1.4-6.8c0-2.9,0-5.8,0-8.8
		c0.2-1.6-0.1-3.1-0.9-4.5c-1-1.2-2.7-1.8-3.7-2.9c-1-1.5-1.4-3.2-1.2-5c-0.3-3.1,0.3-6.1,1.6-8.9c1-1.7,2.6-3,3.5-4.8
		c0.8-1.8,0.9-3.8,0.2-5.6c-0.7-1.8-2-3.3-3.7-4.2c-2.3-4.9,1.2-11.8-0.5-16.9c-0.8-1.6-1.5-3.2-2.1-4.9c-0.7-2.9,0.6-6,0-8.8
		s-4.7-5.3-7.9-7.3c-2.6-1.8-4.9-3.9-6.8-6.2c-0.9-1-1.5-2.2-1.8-3.4c-0.5-2.5,1.1-4.9,1.7-7.4c4.9,0,9.7,1.4,13.7,4.2
		c4,2.8,7.2,6.7,8.9,11.2c0.9,4.5,2.7,8.7,5.1,12.5c6,6.8,17.2,3.2,23.7-2.9s11.3-14.3,19.5-17.9c10.1-4.5,21.9,0,32.2,3.8
		c2.2,0.8,4.3,2,6,3.6c3.9,4.3,2.5,11.6,6.4,16.1c3.8,4.4,12.8,3.5,18.7,6.8c5.9,3.4,7.6,9.6,12,13.7c3.6,3.4,8.2,5.3,13.1,5.5
		c0,0.3,0,0.8,0,1.1c-0.3,2.5-0.1,5,0.7,7.4c0.3,1.2,0.9,2.3,1.8,3.3c0.8,1,1.8,1.8,3,2.3c1,0.4,2.1,0.6,3,1.1
		c0.5,0.2,0.9,0.6,1.2,1.1s0.4,1,0.3,1.5c-0.3,0.6-0.7,1.2-1.2,1.7c-1.2,1.3-1.9,3-2.1,4.7c-0.2,1.8,0.2,3.5,1.1,5.1
		c-1.3,8.8-3.2,17.6-5.4,26.2c-0.2,1-0.5,1.9-1,2.7c-0.5,0.8-1.2,1.3-1.7,2.1c-1.6,2.2-0.5,5.2,0.4,7.7c0.3,0.9,0.8,1.7,1.5,2.3
		c0.6,0.4,1.4,0.5,2.1,0.5c1.9-0.3,3.8-0.4,5.7-0.5c1.8,0,3.8,1.8,3.5,3.6"/>
	<path class="st1" d="M893.8,290.8c0,1.6-2.1,2.4-3.1,3.6c-1.4,2.2-2.1,4.8-2,7.5c-0.7,4.6-3.1,8.7-6.8,11.6c-1.1,1-2.4,1.6-3.8,1.9
		c-1.4,0.3-2.9,0.1-4.2-0.5c-1.8-1-2.7-3.2-4.3-4.5c-0.8-0.5-1.6-0.9-2.5-1.1s-1.8-0.2-2.7,0s-1.7,0.5-2.5,1s-1.4,1.2-1.9,1.9
		c-0.9,1.6-1.1,3.5-0.6,5.3s1.7,3.3,3.2,4.2c0.7,0.4,1.6,1,1.3,1.7c-0.2,0.3-0.5,0.6-0.8,0.8c-2.3,0.9-4.4,2-6.4,3.4
		c-1,0.7-1.8,1.7-2.2,2.8s-0.5,2.4-0.1,3.6c1.8,4.4-3.4,9-4.8,13.7c-1.4,4.7,0,8-1.3,11.8c-0.5,1.8-1.2,3.5-1.9,5.3
		c-2.5,6.8-1,15.7-5.3,21.8c-0.5,0.6-1,1.3-1.2,2.1c-1,3.4,4.4,5.9,3.8,9.4c-0.2,0.8-0.6,1.6-1.2,2.3l-5.1,6.8
		c-0.2,0.3-0.4,0.5-0.7,0.7c-0.8,0.5-1.9,0-2.6-0.7c-0.7-0.7-1.2-1.6-2.1-2c-0.8-0.2-1.7-0.1-2.5,0.2c-0.8,0.3-1.5,0.8-2,1.5
		c-4.2,4.4-6.9,10.1-7.5,16.2c0,2.9,0,5.8-0.8,8.5c-0.7,2-1,4.2-1,6.3c0,0.8,0.5,1.6,0.6,2.5c0.1,2.2-0.2,4.4-1,6.5
		c-2.1,10.2-2.5,20.7-1.2,31c2-0.9,3.6,1.4,4.1,3.4s0.8,4.4,2.5,5.7c1.7,1.3,1.7,0.8,2.5,1.2c2.6,1.7,2.4,5.5,1.5,8.5
		c-0.9,2.9-1.9,6.4,0,9s5.7,3.1,8.8,4.5c3,1.4,5.3,4.2,8.6,4.9c3.2,0.8,6.4,0,7.7,2.5c0.3,1,0.3,2.1,0.1,3.1s-0.7,2-1.4,2.7
		c-0.2,0.5-0.5,0.9-1,1.1c-0.6,0.2-1.2,0.2-1.7,0c-1.4-0.9-3.1-1.4-4.8-1.4c-1.7-0.1-3.4,0.3-4.9,1.1c-1.2,1.1-2,2.7-2.2,4.3
		c-0.2,1.7,0.3,3.3,1.2,4.7c1.2,1.6,2.9,2.8,4.2,4.4c1,1.3,1.8,2.8,2.5,4.4c1.2,2.4,2,4.9,2.3,7.6c0,1.7,0,3.5,0,5.1
		s0.2,3.1,0.7,4.6c-8.6-0.7-16.8-3.8-23.7-8.8c-5.5-4.9-11.4-9.5-17.5-13.7c-4.8-2.6-10.2-3.9-15.7-3.7c-5.5,0.2-10.8,1.8-15.4,4.7
		c-6,3.8-10.5,9.6-16.4,13.7c-10.4,5.8-22.7,7.3-34.2,4.1c-0.8-1.4-1-3-0.8-4.5c0.6-2.7,0.9-5.5,0.6-8.3c-0.6-2.5-2.6-4.9-2.2-7.5
		c0.4-1.3,1-2.6,1.8-3.8c0.8-2.1,1.2-4.4,1-6.7c-0.1-2.3-0.8-4.5-1.9-6.5c-0.4-0.9-0.7-1.8-0.8-2.8c0-2.4,1.9-4.2,2.7-6.5
		c0.6-2.5,0.3-5.1-0.7-7.4c-0.6-2.4-1.5-4.7-2.6-6.8c-0.7-1.2-1.4-2.4-2-3.6c-1.4-3.8,0.6-8.2-0.5-12c-0.8-2.3-2.6-4.2-3.3-6.8
		c-0.3-1.7-0.5-3.5-0.5-5.3c-0.5-2.4-1.2-4.7-2.3-6.8c-1.8-4.6-2.8-9.5-3-14.4c1.3-1.4,2-3.1,2.2-5c0.1-1.9-0.4-3.7-1.4-5.2
		c-1.7-2.9-5.1-4.9-6-8.1c-0.1-2.6,0.1-5.1,0.6-7.7c-0.1-1.9-0.3-3.8-0.6-5.7c0-2.8,0.3-5.7,0.8-8.5c0.4-7.3-0.7-14.6-3.1-21.5
		c-1.5-3.9-2.3-8.1-2.5-12.3c0.8-4.4,1-8.8,0.5-13.2c-0.4-1.1-0.8-2.3-1.1-3.5c-0.1-1.1-0.1-2.2,0-3.4c1.5-12.5-1-25.6,2.7-37.6
		c1.9,1.3,4.1,2.2,6.3,2.5c2.3,0.4,4.6,0.3,6.8-0.3c2.1-1.1,3.9-2.8,5.2-4.8s2-4.4,2.1-6.8c0-0.7,0.2-1.3,0.6-1.9
		c0.6-0.6,1.4-0.9,2.2-1.1c2-0.6,3.8-1.7,5.3-3.1s2.8-3.1,3.6-4.9c0.9-1.9,1.3-3.9,1.3-6s-0.4-4.1-1.2-6c-1-1.7-1.6-3.6-1.8-5.6
		c0.2-1.2,0.8-2.3,1.5-3.2c0.7-0.9,1.7-1.7,2.8-2.2c2.2-1,4.1-2.4,5.7-4.2c1.1-2.1,1.5-4.5,1.4-6.8c0-2.9,0-5.8,0-8.8
		c0.2-1.6-0.1-3.1-0.9-4.5c-1-1.2-2.7-1.8-3.7-2.9c-1-1.5-1.4-3.2-1.2-5c-0.3-3.1,0.3-6.1,1.6-8.9c1-1.7,2.6-3,3.5-4.8
		c0.8-1.8,0.9-3.8,0.2-5.6c-0.7-1.8-2-3.3-3.7-4.2c-2.3-4.9,1.2-11.8-0.5-16.9c-0.8-1.6-1.5-3.2-2.1-4.9c-0.7-2.9,0.6-6,0-8.8
		s-4.7-5.3-7.9-7.3c-2.6-1.8-4.9-3.9-6.8-6.2c-0.9-1-1.5-2.2-1.8-3.4c-0.5-2.5,1.1-4.9,1.7-7.4c4.9,0,9.7,1.4,13.7,4.2
		c4,2.8,7.2,6.7,8.9,11.2c0.9,4.5,2.7,8.7,5.1,12.5c6,6.8,17.2,3.2,23.7-2.9s11.3-14.3,19.5-17.9c10.1-4.5,21.9,0,32.2,3.8
		c2.2,0.8,4.3,2,6,3.6c3.9,4.3,2.5,11.6,6.4,16.1c3.8,4.4,12.8,3.5,18.7,6.8c5.9,3.4,7.6,9.6,12,13.7c3.6,3.4,8.2,5.3,13.1,5.5
		c0,0.3,0,0.8,0,1.1c-0.3,2.5-0.1,5,0.7,7.4c0.3,1.2,0.9,2.3,1.8,3.3c0.8,1,1.8,1.8,3,2.3c1,0.4,2.1,0.6,3,1.1
		c0.5,0.2,0.9,0.6,1.2,1.1s0.4,1,0.3,1.5c-0.3,0.6-0.7,1.2-1.2,1.7c-1.2,1.3-1.9,3-2.1,4.7c-0.2,1.8,0.2,3.5,1.1,5.1
		c-1.3,8.8-3.2,17.6-5.4,26.2c-0.2,1-0.5,1.9-1,2.7c-0.5,0.8-1.2,1.3-1.7,2.1c-1.6,2.2-0.5,5.2,0.4,7.7c0.3,0.9,0.8,1.7,1.5,2.3
		c0.6,0.4,1.4,0.5,2.1,0.5c1.9-0.3,3.8-0.4,5.7-0.5C892.2,287.4,894.2,288.9,893.8,290.8z"/>
	<path class="st0" d="M910.7,703.4c-0.7,0.4-1.5,0-2.3,0c-0.6-0.1-1.2,0.1-1.7,0.4s-0.9,0.8-1.1,1.4c-0.2,0.6-0.2,1.2,0,1.8
		c0.2,0.6,0.6,1.1,1.1,1.4s1.2,0.5,1.4,1.2c0.1,0.3,0.1,0.7,0,1c-1.4,6.3-3.7,12.3-6.8,17.9c-1.7,4.4-1.9,9.2-0.8,13.7
		c0.3,1.8,0.5,3.7,0.4,5.5c-0.4,4.2-3.9,8.2-2.3,12.2c0.4,0.8,0.8,1.6,1,2.4c0.7,2.7-2.2,5.6-0.9,8.1c0.7,1.2,2.3,1.9,2.5,3.4
		c0.2,1.4-0.9,2.3-1.6,3.4c-0.5,0.8-0.9,1.8-1,2.8s-0.1,2,0.2,2.9c0.3,1,0.8,1.8,1.5,2.6c0.7,0.7,1.5,1.3,2.4,1.7
		c1,0.4,2.1,0.6,2.7,1.4c0.2,0.6,0.4,1.2,0.4,1.8c0.1,2.4-0.4,4.7-1.4,6.8c-1.2,2.7-3.3,5.2-2.8,8.1c0.5,1.8,1.4,3.4,2.8,4.7
		c1.7,2,3.4,3.8,5.2,5.8c-2.7,2.9-8.1-0.3-11.2,2.1c-1.4,1-1.8,2.9-3.2,4.1c-1.4,1.2-3.6,1.3-5.4,2.1l-0.9,0.5
		c-5.9-7.7-13.8-13.5-22.9-16.8c-6.5-1.3-12.6-4.2-17.8-8.4c-3-3.4-4.2-8.1-6.8-11.5c-8.6-10.1-25.9-4.6-34.2,5.7
		c-4.5,5.5-8.1,12.3-14.5,15.3c-7.7,3.4-16.4,0-24.2-2.7c-17.1-6-35-9.4-53.2-10.3c-9.6,0.3-19.2-0.8-28.5-3.4c0.5-1,0.9-2,1.4-2.9
		c0.4-0.9,0.8-1.7,1.4-2.5c5.2,1,10.6,0.9,15.8-0.4c5.2-1.2,10-3.6,14.2-6.9c4.2-3.3,7.7-7.4,10.2-12.1c2.5-4.7,4-9.9,4.3-15.2
		c0.7-10.7-2.7-23.3,4.7-31.1c4.4-4.7,12.1-6.8,13.2-13.2c0-3.3-0.6-6.6-1.6-9.8c-0.4-4.2,0.5-8.4,2.6-12.1s5.3-6.6,9.1-8.4
		c7.6-3.5,15.8-5.3,24.2-5.5c-1.6-2.8-2.2-6-1.8-9.2s1.9-6.1,4.2-8.4c2.4-2.2,5.3-3.6,8.5-4s6.4,0.2,9.3,1.7c2.8,2.4,6,4.2,9.4,5.5
		c3.5,0,6.9-0.4,10.3-1c6,0,10.5,5.1,14.9,9.1s10.9,7.6,16,4.6c3.3-2,5.4-6.3,9.2-6.4c2.6,0,4.5,2,6.8,3.4c1.5,1.1,3.3,1.8,5.1,2.3
		c-0.3,4-0.3,7.9,0,11.9c-0.1,3.2,0.7,6.3,2.4,9c1.1,1.2,2.2,2.6,3.1,4c1.3,2.7,0,6.8,2.6,8.4s5.6,0,8.1-1.3
		c2.7-1.4,5.5-2.5,8.4-3.1c3.1-0.7,6.8-0.5,8.3,2.4c0.2,0.4,0.3,0.8,0.2,1.2c-0.1,0.4-0.3,0.7-0.6,1"/>
	<path class="st2" d="M910.7,703.4c-0.7,0.4-1.5,0-2.3,0c-0.6-0.1-1.2,0.1-1.7,0.4s-0.9,0.8-1.1,1.4c-0.2,0.6-0.2,1.2,0,1.8
		c0.2,0.6,0.6,1.1,1.1,1.4s1.2,0.5,1.4,1.2c0.1,0.3,0.1,0.7,0,1c-1.4,6.3-3.7,12.3-6.8,17.9c-1.7,4.4-1.9,9.2-0.8,13.7
		c0.3,1.8,0.5,3.7,0.4,5.5c-0.4,4.2-3.9,8.2-2.3,12.2c0.4,0.8,0.8,1.6,1,2.4c0.7,2.7-2.2,5.6-0.9,8.1c0.7,1.2,2.3,1.9,2.5,3.4
		c0.2,1.4-0.9,2.3-1.6,3.4c-0.5,0.8-0.9,1.8-1,2.8s-0.1,2,0.2,2.9c0.3,1,0.8,1.8,1.5,2.6c0.7,0.7,1.5,1.3,2.4,1.7
		c1,0.4,2.1,0.6,2.7,1.4c0.2,0.6,0.4,1.2,0.4,1.8c0.1,2.4-0.4,4.7-1.4,6.8c-1.2,2.7-3.3,5.2-2.8,8.1c0.5,1.8,1.4,3.4,2.8,4.7
		c1.7,2,3.4,3.8,5.2,5.8c-2.7,2.9-8.1-0.3-11.2,2.1c-1.4,1-1.8,2.9-3.2,4.1c-1.4,1.2-3.6,1.3-5.4,2.1l-0.9,0.5
		c-5.9-7.7-13.8-13.5-22.9-16.8c-6.5-1.3-12.6-4.2-17.8-8.4c-3-3.4-4.2-8.1-6.8-11.5c-8.6-10.1-25.9-4.6-34.2,5.7
		c-4.5,5.5-8.1,12.3-14.5,15.3c-7.7,3.4-16.4,0-24.2-2.7c-17.1-6-35-9.4-53.2-10.3c-9.6,0.3-19.2-0.8-28.5-3.4c0.5-1,0.9-2,1.4-2.9
		c0.4-0.9,0.8-1.7,1.4-2.5c5.2,1,10.6,0.9,15.8-0.4c5.2-1.2,10-3.6,14.2-6.9c4.2-3.3,7.7-7.4,10.2-12.1c2.5-4.7,4-9.9,4.3-15.2
		c0.7-10.7-2.7-23.3,4.7-31.1c4.4-4.7,12.1-6.8,13.2-13.2c0-3.3-0.6-6.6-1.6-9.8c-0.4-4.2,0.5-8.4,2.6-12.1s5.3-6.6,9.1-8.4
		c7.6-3.5,15.8-5.3,24.2-5.5c-1.6-2.8-2.2-6-1.8-9.2s1.9-6.1,4.2-8.4c2.4-2.2,5.3-3.6,8.5-4s6.4,0.2,9.3,1.7c2.8,2.4,6,4.2,9.4,5.5
		c3.5,0,6.9-0.4,10.3-1c6,0,10.5,5.1,14.9,9.1s10.9,7.6,16,4.6c3.3-2,5.4-6.3,9.2-6.4c2.6,0,4.5,2,6.8,3.4c1.5,1.1,3.3,1.8,5.1,2.3
		c-0.3,4-0.3,7.9,0,11.9c-0.1,3.2,0.7,6.3,2.4,9c1.1,1.2,2.2,2.6,3.1,4c1.3,2.7,0,6.8,2.6,8.4s5.6,0,8.1-1.3
		c2.7-1.4,5.5-2.5,8.4-3.1c3.1-0.7,6.8-0.5,8.3,2.4c0.2,0.4,0.3,0.8,0.3,1.2C911.3,702.8,911,703.2,910.7,703.4L910.7,703.4z"/>
	<path class="st0" d="M883.4,645.5c0,0.7-0.2,1.5-0.4,2.2c-0.4,1.5-0.8,3-1.2,4.5c-1.9,5.8-3.2,11.7-3.9,17.8
		c-1.8-0.5-3.5-1.3-5.1-2.3c-2.1-1.4-4-3.4-6.8-3.4c-3.8,0-6,4.4-9.2,6.4c-5.1,3-11.7-0.5-16-4.6c-4.3-4-8.9-9-14.9-9.1
		c-3.4,0.6-6.9,0.9-10.3,1c-3.4-1.3-6.6-3.2-9.4-5.5c-2.8-1.5-6.1-2.1-9.3-1.7s-6.2,1.8-8.5,4c-2.2,2.3-3.7,5.3-4.1,8.4
		c-0.4,3.2,0.2,6.4,1.7,9.2c-8.3,0.2-16.6,2.1-24.2,5.5c-3.8,1.8-7,4.7-9.1,8.4c-2.1,3.7-3,7.9-2.6,12.1c1.1,3.2,1.6,6.5,1.6,9.8
		c-1.1,6.3-8.8,8.6-13.2,13.2c-7.4,7.8-4,20.5-4.7,31.1c-0.3,5.4-1.7,10.6-4.3,15.4c-2.5,4.8-6,9-10.3,12.2
		c-4.3,3.3-9.2,5.6-14.4,6.9c-5.3,1.2-10.7,1.3-16,0.2c0.6-0.8,1.4-1.5,2.3-1.9c2.7-0.9,3.1-5.2,2.4-7.9c-0.5-1.2-0.7-2.4-0.8-3.6
		c0.2-1,0.6-1.9,1.2-2.7c3.8-5.5,8.4-10.3,13.7-14.4c2.3-1.5,4.1-3.5,5.3-5.9c0.4-1.9,0.7-3.9,0.9-5.9c0.7-2.2,1.6-4.4,2.6-6.5
		c1.1-4.1,1.1-8.4,0.1-12.5s-3.1-7.9-6-11c-1.4-1.3-2.2-3-2.5-4.8c0-3.6,4.4-5.8,4.7-9.2c0.3-3.4-1.8-5.4-0.6-7.7
		c1.2-2.3,2.4-1.8,3.7-2.7c1.3-0.9,2.3-2.7,1.3-3.8c-0.5-0.5-1.2-0.7-1.9-0.8c-1.8-0.1-3.6,0.3-5.1,1.2c-0.4,0.2-0.7,0.4-1.2,0.5
		c-0.8,0-1.6-0.7-1.8-1.6c-0.1-0.9,0-1.8,0.3-2.7c0.2-0.8,0.6-1.6,1.3-2.1s1.5-0.8,2.4-0.8l2,0.3c0.3,0,0.7,0,1-0.2s0.6-0.4,0.7-0.7
		c0.1-0.2,0.2-0.4,0.2-0.7c0-0.2-0.1-0.5-0.2-0.7c-0.3-0.7-0.7-1.4-1.2-1.9s-1.2-0.9-1.9-1.2c-1.2-0.4-2.7-0.5-3.1-1.6
		c3.1-6.1,10.8-8.1,15.6-12.8c0.6-0.5,1-1.2,1.2-2c0-1.2-0.7-2.5-0.6-3.7c0.1-1.2,2.4-3.4,3.4-5.3c1.8-3.5-1.6-7.8-0.4-11.4
		c0-0.8,0.6-1.7,0-2.3c-0.3-0.2-0.6-0.4-0.9-0.5c-1.8-1-1.3-3.8,0-5.3s3.4-2.5,4.4-4.3c0.7-2.4,0.9-4.9,0.5-7.4
		c0-4.2,2.6-8.4,1.2-12.5c-0.6-1.5-1.4-2.9-2.4-4.2c-0.5-0.7-0.8-1.5-0.9-2.3c-0.1-0.8,0-1.7,0.2-2.4c0.6-1.4,2.1-2.3,2.5-3.8
		s-0.6-3.4-0.5-5.1s2.6-3.9,3.5-6.2c0.3-1,0.4-2,0.2-3s-0.6-1.9-1.2-2.7c-1.2-1.6-2.8-2.9-4.7-3.8c-1-0.5-2.3-1.2-2.6-2.4
		c-0.3-1.2,0.5-2.4,1-3.6c0.6-1.6,0.7-3.5,0.2-5.1c-0.5-1.7-1.6-3.2-3-4.2c-0.8-0.5-1.5-1.2-1.8-2.1c11.5,3.2,23.8,1.7,34.2-4.1
		c6-3.9,10.5-9.8,16.5-13.7c4.6-2.9,9.9-4.5,15.4-4.7s10.9,1.1,15.7,3.7c6.1,4.2,12,8.7,17.5,13.7c7,5,15.2,8.1,23.7,8.8
		c0,0.4,0,0.9,0,1.3c0.2,0.6,0.4,1.2,0.8,1.7c0.4,0.5,0.9,1,1.4,1.3c0.8,0.3,1.6,0,2.5,0.5c0.9,0.3,1.7,0.9,2.3,1.7
		c0.6,0.7,1,1.6,1.1,2.6c0.1,1.9,0.1,3.9,0,5.8c0.2,2.9,1,5.7,2.4,8.2s3.3,4.7,5.7,6.4c1.7,1.2,3.8,2.2,4.5,4.1
		c1.6,4.4-4.4,9.4-2.1,13.3c-0.8,6.6,0.3,13.4,3.1,19.4c2.2,3.1,4.6,6,7.3,8.7c2.3,2.8,4.2,5.7,5.9,8.9c0.5,0.8,0.8,1.6,1,2.5"/>
	<path class="st2" d="M883.4,645.5c0,0.7-0.2,1.5-0.4,2.2c-0.4,1.5-0.8,3-1.2,4.5c-1.9,5.8-3.2,11.7-3.9,17.8
		c-1.8-0.5-3.5-1.3-5.1-2.3c-2.1-1.4-4-3.4-6.8-3.4c-3.8,0-6,4.4-9.2,6.4c-5.1,3-11.7-0.5-16-4.6c-4.3-4-8.9-9-14.9-9.1
		c-3.4,0.6-6.9,0.9-10.3,1c-3.4-1.3-6.6-3.2-9.4-5.5c-2.8-1.5-6.1-2.1-9.3-1.7s-6.2,1.8-8.5,4c-2.2,2.3-3.7,5.3-4.1,8.4
		c-0.4,3.2,0.2,6.4,1.7,9.2c-8.3,0.2-16.6,2.1-24.2,5.5c-3.8,1.8-7,4.7-9.1,8.4c-2.1,3.7-3,7.9-2.6,12.1c1.1,3.2,1.6,6.5,1.6,9.8
		c-1.1,6.3-8.8,8.6-13.2,13.2c-7.4,7.8-4,20.5-4.7,31.1c-0.3,5.4-1.7,10.6-4.3,15.4c-2.5,4.8-6,9-10.3,12.2
		c-4.3,3.3-9.2,5.6-14.4,6.9c-5.3,1.2-10.7,1.3-16,0.2c0.6-0.8,1.4-1.5,2.3-1.9c2.7-0.9,3.1-5.2,2.4-7.9c-0.5-1.2-0.7-2.4-0.8-3.6
		c0.2-1,0.6-1.9,1.2-2.7c3.8-5.5,8.4-10.3,13.7-14.4c2.3-1.5,4.1-3.5,5.3-5.9c0.4-1.9,0.7-3.9,0.9-5.9c0.7-2.2,1.6-4.4,2.6-6.5
		c1.1-4.1,1.1-8.4,0.1-12.5s-3.1-7.9-6-11c-1.4-1.3-2.2-3-2.5-4.8c0-3.6,4.4-5.8,4.7-9.2c0.3-3.4-1.8-5.4-0.6-7.7
		c1.2-2.3,2.4-1.8,3.7-2.7c1.3-0.9,2.3-2.7,1.3-3.8c-0.5-0.5-1.2-0.7-1.9-0.8c-1.8-0.1-3.6,0.3-5.1,1.2c-0.4,0.2-0.7,0.4-1.2,0.5
		c-0.8,0-1.6-0.7-1.8-1.6c-0.1-0.9,0-1.8,0.3-2.7c0.2-0.8,0.6-1.6,1.3-2.1s1.5-0.8,2.4-0.8l2,0.3c0.3,0,0.7,0,1-0.2s0.6-0.4,0.7-0.7
		c0.1-0.2,0.2-0.4,0.2-0.7c0-0.2-0.1-0.5-0.2-0.7c-0.3-0.7-0.7-1.4-1.2-1.9s-1.2-0.9-1.9-1.2c-1.2-0.4-2.7-0.5-3.1-1.6
		c3.1-6.1,10.8-8.1,15.6-12.8c0.6-0.5,1-1.2,1.2-2c0-1.2-0.7-2.5-0.6-3.7c0.1-1.2,2.4-3.4,3.4-5.3c1.8-3.5-1.6-7.8-0.4-11.4
		c0-0.8,0.6-1.7,0-2.3c-0.3-0.2-0.6-0.4-0.9-0.5c-1.8-1-1.3-3.8,0-5.3s3.4-2.5,4.4-4.3c0.7-2.4,0.9-4.9,0.5-7.4
		c0-4.2,2.6-8.4,1.2-12.5c-0.6-1.5-1.4-2.9-2.4-4.2c-0.5-0.7-0.8-1.5-0.9-2.3c-0.1-0.8,0-1.7,0.2-2.4c0.6-1.4,2.1-2.3,2.5-3.8
		s-0.6-3.4-0.5-5.1s2.6-3.9,3.5-6.2c0.3-1,0.4-2,0.2-3s-0.6-1.9-1.2-2.7c-1.2-1.6-2.8-2.9-4.7-3.8c-1-0.5-2.3-1.2-2.6-2.4
		c-0.3-1.2,0.5-2.4,1-3.6c0.6-1.6,0.7-3.5,0.2-5.1c-0.5-1.7-1.6-3.2-3-4.2c-0.8-0.5-1.5-1.2-1.8-2.1c11.5,3.2,23.8,1.7,34.2-4.1
		c6-3.9,10.5-9.8,16.5-13.7c4.6-2.9,9.9-4.5,15.4-4.7s10.9,1.1,15.7,3.7c6.1,4.2,12,8.7,17.5,13.7c7,5,15.2,8.1,23.7,8.8
		c0,0.4,0,0.9,0,1.3c0.2,0.6,0.4,1.2,0.8,1.7c0.4,0.5,0.9,1,1.4,1.3c0.8,0.3,1.6,0,2.5,0.5c0.9,0.3,1.7,0.9,2.3,1.7
		c0.6,0.7,1,1.6,1.1,2.6c0.1,1.9,0.1,3.9,0,5.8c0.2,2.9,1,5.7,2.4,8.2s3.3,4.7,5.7,6.4c1.7,1.2,3.8,2.2,4.5,4.1
		c1.6,4.4-4.4,9.4-2.1,13.3c-0.8,6.6,0.3,13.4,3.1,19.4c2.2,3.1,4.6,6,7.3,8.7c2.3,2.8,4.2,5.7,5.9,8.9
		C882.4,643.7,883,644.5,883.4,645.5L883.4,645.5z"/>
	<path class="st0" d="M888.8,824.3c-1.7,1.4-3.1,3.1-4.1,5s-1.6,4.1-1.7,6.2c-0.1,2.2-0.6,4.4-1.4,6.5c-1.2,2.1-3.8,2.9-5.7,4.2
		c-1.5,0.9-2.7,2.2-3.7,3.6c-1,1.4-1.6,3.1-1.9,4.8c-0.7,4.2-5.5,5.2-7.3,9c-1.2,2.6,0,5.7-0.8,8.5c-1.1,3.6-3,6.9-5.4,9.7
		c-1.2,1.4-2,3.1-2.3,5c-0.3,1.8,0,3.7,0.8,5.4c1.2,1.7,3.3,2.9,3.8,4.9c0.5,2.1-1.2,4.2-2.5,6c-1.8,2.4-3.1,5.2-4,8.1
		c-0.4,1.8-1,3.6-1.6,5.3c-0.8,1.3-1.6,2.6-2.2,4c0,0.4,0,0.8,0,1.2c-13.1-7.5-23.9-21.4-39-21.7c-4.1,0-8.3,1-12.6,1.2
		c-12.7,0.4-25-7.4-37.5-5c-11,2.1-19.7,11.7-30.9,12.4c-5.5,0-10.7-1.6-16.2-1.9c-7.3-0.3-14.8,2.4-21.9,0.8
		c-8.8-1.9-14.2-9.2-19.5-16.9l1.7-1.2c3-1.9,2.5-6.8,1.1-9.9c-0.7-1.2-1.2-2.5-1.6-3.8c-0.8-3.8,2.7-7.5,2.3-11.5
		c0-2.3-1.8-4.1-1.9-6.4c-0.1-2.3,1.1-3.8,0.8-5.8s-0.7-2-0.8-3c-0.4-3.9,5.1-5.8,6.4-9.5c0.4-1.2,0.5-2.4,0.4-3.7
		c0-3.2,0-6.3,0-9.5c0-2.7-0.2-5.4-0.7-8c-0.4-1.6-0.7-3.2-0.8-4.8c0.2-2.7,0.9-5.3,2.2-7.6l6.8-13.7c9.3,2.6,18.9,3.7,28.5,3.4
		c18.1,0.8,36,4.3,53.2,10.3c7.8,2.7,16.5,6,24.2,2.7c6.4-2.9,10-9.8,14.5-15.3c8.3-10.3,25.6-15.8,34.2-5.7
		c2.9,3.4,4.1,8.1,6.8,11.5c5.2,4.2,11.3,7.1,17.8,8.4c9.1,3.3,17.1,9.1,23.1,16.7"/>
	<path class="st1" d="M888.8,824.3c-1.7,1.4-3.1,3.1-4.1,5s-1.6,4.1-1.7,6.2c-0.1,2.2-0.6,4.4-1.4,6.5c-1.2,2.1-3.8,2.9-5.7,4.2
		c-1.5,0.9-2.7,2.2-3.7,3.6c-1,1.4-1.6,3.1-1.9,4.8c-0.7,4.2-5.5,5.2-7.3,9c-1.2,2.6,0,5.7-0.8,8.5c-1.1,3.6-3,6.9-5.4,9.7
		c-1.2,1.4-2,3.1-2.3,5c-0.3,1.8,0,3.7,0.8,5.4c1.2,1.7,3.3,2.9,3.8,4.9c0.5,2.1-1.2,4.2-2.5,6c-1.8,2.4-3.1,5.2-4,8.1
		c-0.4,1.8-1,3.6-1.6,5.3c-0.8,1.3-1.6,2.6-2.2,4c0,0.4,0,0.8,0,1.2c-13.1-7.5-23.9-21.4-39-21.7c-4.1,0-8.3,1-12.6,1.2
		c-12.7,0.4-25-7.4-37.5-5c-11,2.1-19.7,11.7-30.9,12.4c-5.5,0-10.7-1.6-16.2-1.9c-7.3-0.3-14.8,2.4-21.9,0.8
		c-8.8-1.9-14.2-9.2-19.5-16.9l1.7-1.2c3-1.9,2.5-6.8,1.1-9.9c-0.7-1.2-1.2-2.5-1.6-3.8c-0.8-3.8,2.7-7.5,2.3-11.5
		c0-2.3-1.8-4.1-1.9-6.4c-0.1-2.3,1.1-3.8,0.8-5.8s-0.7-2-0.8-3c-0.4-3.9,5.1-5.8,6.4-9.5c0.4-1.2,0.5-2.4,0.4-3.7
		c0-3.2,0-6.3,0-9.5c0-2.7-0.2-5.4-0.7-8c-0.4-1.6-0.7-3.2-0.8-4.8c0.2-2.7,0.9-5.3,2.2-7.6l6.8-13.7c9.3,2.6,18.9,3.7,28.5,3.4
		c18.1,0.8,36,4.3,53.2,10.3c7.8,2.7,16.5,6,24.2,2.7c6.4-2.9,10-9.8,14.5-15.3c8.3-10.3,25.6-15.8,34.2-5.7
		c2.9,3.4,4.1,8.1,6.8,11.5c5.2,4.2,11.3,7.1,17.8,8.4C875.2,811.3,882.9,816.9,888.8,824.3L888.8,824.3z"/>
	<path class="st0" d="M847.9,1051.6c1,1.2,2.4,2.2,2.4,3.7s-1.2,2.3-2,3.4c-1.8,3-2.3,6.5-1.6,9.9c-5.1-0.6-9.6-5.5-14.4-4
		c-1.5,0.6-2.7,1.7-3.6,3.1c-0.9,1.4-1.3,2.9-1.2,4.5c0.1,1.2,0.1,2.3,0,3.5c-0.6,3.1-3.8,4.9-6,6.8c-2.7,2.8-4.3,6.5-4.4,10.3
		c0.1,1.7,0.1,3.4,0,5.1c-0.1,0.9-0.4,1.7-0.9,2.4s-1.2,1.2-2,1.6c-1.8,0.5-3.7-0.5-5.6-1.1c-2.2-0.5-4.6-0.2-6.6,0.9
		c-2,1.1-3.5,2.9-4.3,5.1c-0.8,2.3-0.8,5.5-2.9,6.5c-1.6,0.3-3.2,0.3-4.7,0l0,0c-1.5-2.3-3.1-4.4-4.8-6.5c-2.1-3-4.9-5.3-8.3-6.7
		c-3.3-1.4-7-1.8-10.6-1.2c-9.4,2.9-14.4,16.4-24.1,15.5c-11-1.2-14.4-20.5-25.4-19.4c-3.1,0-5.9,2.1-8.9,2.4
		c-6.2,0.7-11.3-4.7-14.3-10.1c-2.2-5.8-5.9-10.9-10.7-14.9c-11.6-6.8-24.6,5.5-37.6,7.9c-5.2,0.7-10.4,0.1-15.4-1.5
		s-9.5-4.3-13.3-7.9c-5-4.6-9.4-9.8-13.1-15.5c0.8-2.3,1.9-4.4,3.3-6.4c2-3.4,4.4-6.6,7.3-9.2c1.4-1.1,2.8-2.2,4.1-3.4
		c2.1-2.6,3.4-5.8,3.7-9.2c1-3.5,1-7.3,0-10.8c-1.4-3.9-5.2-6.8-5.7-10.8c0-2.3,0.6-4.5,1.6-6.5c1.1-2,2.6-3.7,4.5-4.9
		c3.8-2.5,6.6-6.3,7.9-10.7c-0.6-1.1-0.9-2.4-0.9-3.7s0.3-2.6,0.9-3.7c1.3-2.3,2.9-4.5,4.8-6.4c3.6-3.6,6.4-8,8-12.9
		c0.3-2,1-3.9,1.8-5.8c1.3-1.7,2.9-3,4.7-4c3-1.6,5.5-4,7.3-6.9s2.8-6.2,3-9.6c0-2.1-0.8-4.2-1-6.4c-0.6-4.6,0.6-9.3,3.4-13.1
		c0.7-0.8,1.2-1.7,1.6-2.7c0.1-0.7,0.1-1.4,0-2.1c-0.2-2.9,0.4-5.8,1.6-8.5s3-5,5.3-6.9c5.3,7.7,10.7,15,19.5,16.9
		c6.8,1.6,14.6-1.2,21.9-0.8c5.5,0,10.7,2.1,16.2,1.8c11.2-0.7,19.9-10.3,30.9-12.4c12.5-2.4,24.8,5.4,37.5,5
		c4.2,0,8.5-1.2,12.6-1.2c15.1,0.3,25.9,14.2,39,21.7c-0.7,4.7,3.6,10.1,1.4,14.5c-1,1.4-2.3,2.4-3.9,3.1c-1.6,0.6-3.3,0.8-4.9,0.5
		c-0.5-0.1-1-0.1-1.5,0c-0.5,0.3-1,0.7-1.4,1.2c-2.5,2.8-6.8,3.1-9.6,6c-0.9,1.1-1.5,2.4-1.7,3.8c-0.3,1.4-0.2,2.9,0.2,4.2
		c0.9,3.3,3,6.1,5.8,8s6.2,2.7,9.6,2.4c-0.3,3.9-0.9,7.8-1.8,11.6c-0.5,1.2-1.4,2.4-1,3.6s3.1,2.1,3.4,3.8c0,0.5,0,0.9,0,1.4
		c0.2,0.6,0.6,1.1,1.1,1.5c2.4,2.4,3.8,5.7,3.8,9.2c0.1,0.6-0.1,1.3-0.5,1.8c-1.5,2.1-5.3-0.5-6.8,1.2c-1.6,1.8,0,3.6,1.4,5l5.3,5.6
		c0.5,0.4,0.9,1,1.2,1.6c1,2.4-1.5,4.6-2.7,6.8c-0.5,1-0.5,2.4,0.4,2.8c1,0.4,0.9,0,1.3,0c0.4,0,1.5,1.4,1.8,2.5
		c0.6,1.6,0.6,3.4,0,5.1c-0.6,0.7-1.2,1.4-1.9,1.9c-1.3,1.2-2.1,2.9-2.4,4.7c-0.3,1.8,0,3.6,0.8,5.2c0.7,1.1,1.2,2.3,1.4,3.6
		c-0.1,0.7-0.2,1.4-0.5,2.1c-0.2,0.8-0.2,1.6,0,2.4c0.2,0.8,0.5,1.6,1,2.2"/>
	<path class="st1" d="M847.9,1051.6c1,1.2,2.4,2.2,2.4,3.7s-1.2,2.3-2,3.4c-1.8,3-2.3,6.5-1.6,9.9c-5.1-0.6-9.6-5.5-14.4-4
		c-1.5,0.6-2.7,1.7-3.6,3.1c-0.9,1.4-1.3,2.9-1.2,4.5c0.1,1.2,0.1,2.3,0,3.5c-0.6,3.1-3.8,4.9-6,6.8c-2.7,2.8-4.3,6.5-4.4,10.3
		c0.1,1.7,0.1,3.4,0,5.1c-0.1,0.9-0.4,1.7-0.9,2.4s-1.2,1.2-2,1.6c-1.8,0.5-3.7-0.5-5.6-1.1c-2.2-0.5-4.6-0.2-6.6,0.9
		c-2,1.1-3.5,2.9-4.3,5.1c-0.8,2.3-0.8,5.5-2.9,6.5c-1.6,0.3-3.2,0.3-4.7,0l0,0c-1.5-2.3-3.1-4.4-4.8-6.5c-2.1-3-4.9-5.3-8.3-6.7
		c-3.3-1.4-7-1.8-10.6-1.2c-9.4,2.9-14.4,16.4-24.1,15.5c-11-1.2-14.4-20.5-25.4-19.4c-3.1,0-5.9,2.1-8.9,2.4
		c-6.2,0.7-11.3-4.7-14.3-10.1c-2.2-5.8-5.9-10.9-10.7-14.9c-11.6-6.8-24.6,5.5-37.6,7.9c-5.2,0.7-10.4,0.1-15.4-1.5
		s-9.5-4.3-13.3-7.9c-5-4.6-9.4-9.8-13.1-15.5c0.8-2.3,1.9-4.4,3.3-6.4c2-3.4,4.4-6.6,7.3-9.2c1.4-1.1,2.8-2.2,4.1-3.4
		c2.1-2.6,3.4-5.8,3.7-9.2c1-3.5,1-7.3,0-10.8c-1.4-3.9-5.2-6.8-5.7-10.8c0-2.3,0.6-4.5,1.6-6.5c1.1-2,2.6-3.7,4.5-4.9
		c3.8-2.5,6.6-6.3,7.9-10.7c-0.6-1.1-0.9-2.4-0.9-3.7s0.3-2.6,0.9-3.7c1.3-2.3,2.9-4.5,4.8-6.4c3.6-3.6,6.4-8,8-12.9
		c0.3-2,1-3.9,1.8-5.8c1.3-1.7,2.9-3,4.7-4c3-1.6,5.5-4,7.3-6.9s2.8-6.2,3-9.6c0-2.1-0.8-4.2-1-6.4c-0.6-4.6,0.6-9.3,3.4-13.1
		c0.7-0.8,1.2-1.7,1.6-2.7c0.1-0.7,0.1-1.4,0-2.1c-0.2-2.9,0.4-5.8,1.6-8.5s3-5,5.3-6.9c5.3,7.7,10.7,15,19.5,16.9
		c6.8,1.6,14.6-1.2,21.9-0.8c5.5,0,10.7,2.1,16.2,1.8c11.2-0.7,19.9-10.3,30.9-12.4c12.5-2.4,24.8,5.4,37.5,5
		c4.2,0,8.5-1.2,12.6-1.2c15.1,0.3,25.9,14.2,39,21.7c-0.7,4.7,3.6,10.1,1.4,14.5c-1,1.4-2.3,2.4-3.9,3.1c-1.6,0.6-3.3,0.8-4.9,0.5
		c-0.5-0.1-1-0.1-1.5,0c-0.5,0.3-1,0.7-1.4,1.2c-2.5,2.8-6.8,3.1-9.6,6c-0.9,1.1-1.5,2.4-1.7,3.8c-0.3,1.4-0.2,2.9,0.2,4.2
		c0.9,3.3,3,6.1,5.8,8s6.2,2.7,9.6,2.4c-0.3,3.9-0.9,7.8-1.8,11.6c-0.5,1.2-1.4,2.4-1,3.6s3.1,2.1,3.4,3.8c0,0.5,0,0.9,0,1.4
		c0.2,0.6,0.6,1.1,1.1,1.5c2.4,2.4,3.8,5.7,3.8,9.2c0.1,0.6-0.1,1.3-0.5,1.8c-1.5,2.1-5.3-0.5-6.8,1.2c-1.6,1.8,0,3.6,1.4,5l5.3,5.6
		c0.5,0.4,0.9,1,1.2,1.6c1,2.4-1.5,4.6-2.7,6.8c-0.5,1-0.5,2.4,0.4,2.8c1,0.4,0.9,0,1.3,0c0.4,0,1.5,1.4,1.8,2.5
		c0.6,1.6,0.6,3.4,0,5.1c-0.6,0.7-1.2,1.4-1.9,1.9c-1.3,1.2-2.1,2.9-2.4,4.7c-0.3,1.8,0,3.6,0.8,5.2c0.7,1.1,1.2,2.3,1.4,3.6
		c-0.1,0.7-0.2,1.4-0.5,2.1c-0.3,0.9-0.3,1.8-0.1,2.6C847,1050,847.4,1050.8,847.9,1051.6L847.9,1051.6z"/>
	<path class="st0" d="M780.1,1123.2c-0.4,1-0.6,2.1-0.8,3.2c0,4,2.4,8.4,0,11.9c-1.2-0.3-2.5-0.3-3.8,0c-0.6,0.2-1.2,0.6-1.5,1.1
		c-0.3,0.6-0.4,1.2-0.3,1.8v14.8c-1,0.4-2,1.1-2.7,1.9c-0.8,0.8-1.4,1.8-1.7,2.8c-0.4,1-0.6,2.2-0.5,3.3s0.4,2.2,0.9,3.2
		c0.9,1.1,1.6,2.3,2,3.7c0,0.8-0.2,1.5-0.5,2.2s-0.9,1.3-1.5,1.7c-1.2,1-2.6,1.7-3.8,2.7c-1.5,1.3-2.4,3.1-2.6,5
		c-0.1,1,0.1,1.9,0.5,2.8c0.4,0.9,1,1.6,1.8,2.2c1.7,1.2,4.1,1.3,5.5,2.8c0.6,0.8,1.1,1.6,1.4,2.6c0.6,1.5,1.2,2.9,1.8,4.5
		c0.5,1.5,1.1,3.1,0,4.3s-2.4,1.2-3.3,2.2c-1.8,2.1,0.6,5.5-0.5,8.1s-3.8,2.9-4.5,5.1c-0.4,1.1,0,2.5-1,3.3s-1.4,0.7-2.1,1.2
		c-0.6,0.5-1,3.2-0.4,4.9c1.5,5.8,4.3,11.1,8.2,15.6c1.8,1.7,4.1,3.5,4.1,5.9s-2.7,4.9-2.3,7.6c0.3,0.9,0.7,1.8,1.1,2.6
		c0.2,0.4,0.3,0.9,0.2,1.4s-0.3,0.9-0.6,1.3c-2.7,2.5-6.5,4.2-7.8,7.7c-0.6,1.7-0.9,3.5-0.8,5.3c0.1,1.8,0.7,3.6,1.5,5.2
		c1.2,1.8,2.3,3.7,3.1,5.7c0.5,1.6,0.3,3.4,0.8,5c0.3,0.7,0.5,1.4,0.6,2.2c0,2.3-2.3,4-3.2,6.3c-0.3,0.9-0.3,1.8-0.1,2.7
		s0.7,1.7,1.3,2.3s1.5,1,2.3,1.2c0.9,0.2,1.8,0.1,2.6-0.2s1.9-0.9,2.5,0c0.2,0.5,0.2,1,0,1.5c-0.1,3.1,0.8,6.1,2.6,8.6
		c1.2,1.2,2.1,2.6,2.7,4.1c0.5,1.9-0.5,4,0,6c0.3,1.3,0.8,2.5,1.3,3.7c0.5,1.8,0.7,3.7,0.5,5.6c-7-0.3-13.9-1.6-20.5-3.9
		c-3.3-1.6-6.8-2.4-10.5-2.3c-13.7,1.6-16.1,27.4-29.8,25.8c-0.8-9.5-3.3-18.7-7.3-27.4c-2-4.3-5-8-8.8-10.9s-8.2-4.8-12.8-5.6
		c-12.5-1.3-27.4,7.7-36.4-1.4c-6.8-6.8-4.7-22-14.2-25.1c-2.3-0.4-4.6-0.6-6.8-0.5c-12.7,0-23.7-8.3-35.9-11.6
		c-12.2-3.4-29,1.4-29.9,13.7c0,3.8,1,7.5,0.6,11.2c-1.1,9.3-12.3,16.4-10,25.3c1.7,7.2,11.4,11.4,10.5,18.8
		c-1.3,9.4-19.4,11.8-16.8,21c0.8,2.7,3.5,4.7,4.5,7.3c2.1,5.6-3.6,10.9-8.8,14.1l-6.3,3.8c-0.5-1.7-2.7-2.7-4.1-3.9
		c-0.9-1-1.6-2.1-2-3.3s-0.6-2.5-0.5-3.9c0-2.7,0.9-5.2,1.2-7.7c0.7-6.2-0.9-12.7,2.1-18.2c5-9.3,0-21.8-5.4-31.1
		c-3.9-7.2-9.6-13.1-13.7-20c-2.4-3.3-4.1-7-4.8-11c-0.8-4-0.7-8.1,0.3-12c1.2-3.7,3.6-6.8,4.7-10.6c1.2-6.1,0.1-12.5-2.9-18
		c-1.5-3-2.5-6.3-2.9-9.6c0-2.1,0.3-4,0-6c-0.3-2.1-0.7-3-0.8-4.5c-0.2-0.6-0.2-1.3,0-1.9c0.2-0.6,0.5-1.2,1-1.7s1-0.8,1.7-1
		c0.6-0.2,1.3-0.2,1.9,0c4.7,0.4,8.7,4,13.3,5.3c6.4,0.9,12.9-0.3,18.5-3.6c5-2,9.6-4.8,13.7-8.3c2-1.8,3.6-4.1,4.5-6.7
		c0.9-2.6,1.2-5.3,0.7-8c-0.6-3.1-1.8-6.1-3.6-8.8c-0.9-1-1.6-2.1-2.2-3.4c-1.3-3.4,1.1-6.8,1.1-10.6c-0.3-2.4-0.9-4.7-1.8-6.8
		c-0.5-1.1-0.7-2.2-0.7-3.4s0.2-2.4,0.7-3.4c0.8-1,1.7-1.7,2.8-2.3s2.3-0.9,3.5-0.9c2.3-0.1,4.7-0.6,6.8-1.4
		c2.1-1.4,3.9-3.3,5.1-5.5c1.2-2.2,1.8-4.7,1.8-7.2c0.3-1.8,0.3-3.7,0-5.5c-0.3-1.4-0.9-2.6-1.2-4c-0.2-0.6-0.2-1.3,0-2
		s0.5-1.2,1-1.7c0.7-0.5,1.5-1,2.3-1.3c1-0.6,1.8-1.4,2.4-2.4c0.6-1,1-2,1.2-3.2c0.4-2.3,0.3-4.5,0.7-6.8c1.2-5.1,3.2-10,6-14.5
		c2.7-4.6,4-9.8,3.6-15.1c-0.8-4.9-0.9-10.3-1.4-15.3c-0.4-2.3-0.2-4.7,0.7-6.8c1.2-1.6,2.3-3.4,3.4-5.1c0.4-1.6,0.5-3.3,0.5-4.9
		c0.1-0.7,0.2-1.4,0.4-2.1c3.7,5.7,8.1,10.9,13.1,15.5c3.8,3.6,8.3,6.3,13.3,7.9c5,1.6,10.2,2.1,15.4,1.5
		c13.1-2.5,26.1-14.6,37.6-7.9c4.8,4,8.5,9.2,10.7,15.1c3,5.4,8.1,10.8,14.3,10.1c3-0.3,5.7-2.2,8.9-2.4c11-0.8,14.4,18.2,25.4,19.4
		c9.7,1,14.7-12.6,24.1-15.5c3.6-0.6,7.3-0.2,10.6,1.2s6.2,3.7,8.3,6.7c1.7,2.1,3.4,4.2,4.8,6.5l0,0c-1.3,0-2.6,0.3-3.8,0.9
		c-1.2,0.6-2.2,1.4-3,2.4c-1.5,2-2.7,4.4-3.3,6.8"/>
	<path class="st1" d="M780.1,1123.2c-0.4,1-0.6,2.1-0.8,3.2c0,4,2.4,8.4,0,11.9c-1.2-0.3-2.5-0.3-3.8,0c-0.6,0.2-1.2,0.6-1.5,1.1
		c-0.3,0.6-0.4,1.2-0.3,1.8v14.8c-1,0.4-2,1.1-2.7,1.9c-0.8,0.8-1.4,1.8-1.7,2.8c-0.4,1-0.6,2.2-0.5,3.3s0.4,2.2,0.9,3.2
		c0.9,1.1,1.6,2.3,2,3.7c0,0.8-0.2,1.5-0.5,2.2s-0.9,1.3-1.5,1.7c-1.2,1-2.6,1.7-3.8,2.7c-1.5,1.3-2.4,3.1-2.6,5
		c-0.1,1,0.1,1.9,0.5,2.8c0.4,0.9,1,1.6,1.8,2.2c1.7,1.2,4.1,1.3,5.5,2.8c0.6,0.8,1.1,1.6,1.4,2.6c0.6,1.5,1.2,2.9,1.8,4.5
		c0.5,1.5,1.1,3.1,0,4.3s-2.4,1.2-3.3,2.2c-1.8,2.1,0.6,5.5-0.5,8.1s-3.8,2.9-4.5,5.1c-0.4,1.1,0,2.5-1,3.3s-1.4,0.7-2.1,1.2
		c-0.6,0.5-1,3.2-0.4,4.9c1.5,5.8,4.3,11.1,8.2,15.6c1.8,1.7,4.1,3.5,4.1,5.9s-2.7,4.9-2.3,7.6c0.3,0.9,0.7,1.8,1.1,2.6
		c0.2,0.4,0.3,0.9,0.2,1.4s-0.3,0.9-0.6,1.3c-2.7,2.5-6.5,4.2-7.8,7.7c-0.6,1.7-0.9,3.5-0.8,5.3c0.1,1.8,0.7,3.6,1.5,5.2
		c1.2,1.8,2.3,3.7,3.1,5.7c0.5,1.6,0.3,3.4,0.8,5c0.3,0.7,0.5,1.4,0.6,2.2c0,2.3-2.3,4-3.2,6.3c-0.3,0.9-0.3,1.8-0.1,2.7
		s0.7,1.7,1.3,2.3s1.5,1,2.3,1.2c0.9,0.2,1.8,0.1,2.6-0.2s1.9-0.9,2.5,0c0.2,0.5,0.2,1,0,1.5c-0.1,3.1,0.8,6.1,2.6,8.6
		c1.2,1.2,2.1,2.6,2.7,4.1c0.5,1.9-0.5,4,0,6c0.3,1.3,0.8,2.5,1.3,3.7c0.5,1.8,0.7,3.7,0.5,5.6c-7-0.3-13.9-1.6-20.5-3.9
		c-3.3-1.6-6.8-2.4-10.5-2.3c-13.7,1.6-16.1,27.4-29.8,25.8c-0.8-9.5-3.3-18.7-7.3-27.4c-2-4.3-5-8-8.8-10.9s-8.2-4.8-12.8-5.6
		c-12.5-1.3-27.4,7.7-36.4-1.4c-6.8-6.8-4.7-22-14.2-25.1c-2.3-0.4-4.6-0.6-6.8-0.5c-12.7,0-23.7-8.3-35.9-11.6
		c-12.2-3.4-29,1.4-29.9,13.7c0,3.8,1,7.5,0.6,11.2c-1.1,9.3-12.3,16.4-10,25.3c1.7,7.2,11.4,11.4,10.5,18.8
		c-1.3,9.4-19.4,11.8-16.8,21c0.8,2.7,3.5,4.7,4.5,7.3c2.1,5.6-3.6,10.9-8.8,14.1l-6.3,3.8c-0.5-1.7-2.7-2.7-4.1-3.9
		c-0.9-1-1.6-2.1-2-3.3s-0.6-2.5-0.5-3.9c0-2.7,0.9-5.2,1.2-7.7c0.7-6.2-0.9-12.7,2.1-18.2c5-9.3,0-21.8-5.4-31.1
		c-3.9-7.2-9.6-13.1-13.7-20c-2.4-3.3-4.1-7-4.8-11c-0.8-4-0.7-8.1,0.3-12c1.2-3.7,3.6-6.8,4.7-10.6c1.2-6.1,0.1-12.5-2.9-18
		c-1.5-3-2.5-6.3-2.9-9.6c0-2.1,0.3-4,0-6c-0.3-2.1-0.7-3-0.8-4.5c-0.2-0.6-0.2-1.3,0-1.9c0.2-0.6,0.5-1.2,1-1.7s1-0.8,1.7-1
		c0.6-0.2,1.3-0.2,1.9,0c4.7,0.4,8.7,4,13.3,5.3c6.4,0.9,12.9-0.3,18.5-3.6c5-2,9.6-4.8,13.7-8.3c2-1.8,3.6-4.1,4.5-6.7
		c0.9-2.6,1.2-5.3,0.7-8c-0.6-3.1-1.8-6.1-3.6-8.8c-0.9-1-1.6-2.1-2.2-3.4c-1.3-3.4,1.1-6.8,1.1-10.6c-0.3-2.4-0.9-4.7-1.8-6.8
		c-0.5-1.1-0.7-2.2-0.7-3.4s0.2-2.4,0.7-3.4c0.8-1,1.7-1.7,2.8-2.3s2.3-0.9,3.5-0.9c2.3-0.1,4.7-0.6,6.8-1.4
		c2.1-1.4,3.9-3.3,5.1-5.5c1.2-2.2,1.8-4.7,1.8-7.2c0.3-1.8,0.3-3.7,0-5.5c-0.3-1.4-0.9-2.6-1.2-4c-0.2-0.6-0.2-1.3,0-2
		s0.5-1.2,1-1.7c0.7-0.5,1.5-1,2.3-1.3c1-0.6,1.8-1.4,2.4-2.4c0.6-1,1-2,1.2-3.2c0.4-2.3,0.3-4.5,0.7-6.8c1.2-5.1,3.2-10,6-14.5
		c2.7-4.6,4-9.8,3.6-15.1c-0.8-4.9-0.9-10.3-1.4-15.3c-0.4-2.3-0.2-4.7,0.7-6.8c1.2-1.6,2.3-3.4,3.4-5.1c0.4-1.6,0.5-3.3,0.5-4.9
		c0.1-0.7,0.2-1.4,0.4-2.1c3.7,5.7,8.1,10.9,13.1,15.5c3.8,3.6,8.3,6.3,13.3,7.9c5,1.6,10.2,2.1,15.4,1.5
		c13.1-2.5,26.1-14.6,37.6-7.9c4.8,4,8.5,9.2,10.7,15.1c3,5.4,8.1,10.8,14.3,10.1c3-0.3,5.7-2.2,8.9-2.4c11-0.8,14.4,18.2,25.4,19.4
		c9.7,1,14.7-12.6,24.1-15.5c3.6-0.6,7.3-0.2,10.6,1.2s6.2,3.7,8.3,6.7c1.7,2.1,3.4,4.2,4.8,6.5l0,0c-1.3,0-2.6,0.3-3.8,0.9
		c-1.2,0.6-2.2,1.4-3,2.4C781.8,1118.8,780.8,1121,780.1,1123.2L780.1,1123.2z"/>
	<path class="st0" d="M807.2,1390c0.1,0.7,0.1,1.4-0.1,2.1c-0.2,0.7-0.5,1.3-1,1.9c-0.9,1.1-2.1,2-3.1,3c-1.4,1.4-2.4,3.1-3,4.9
		c-0.6,1.8-0.9,3.8-0.7,5.8c0,1.6,0.5,3.5-0.8,4.5c-0.5,0.3-1,0.5-1.6,0.6s-1.1,0.1-1.7-0.1l-11.6-1.4c-2.1,1.9-4.9,4.3-6.8,6.2
		c-0.8,0.9-1.7,1.5-2.8,2c-1.6,0.3-3.1,0.6-4.7,0.7c-2.9,1-5.3,3-6.8,5.7c-0.7,1-1.5,1.9-2.4,2.6c-0.8,0.5-1.8,0.9-2.8,1s-2,0-3-0.3
		c-1.9-0.7-3.6-1.9-4.9-3.4c-2.6,4.5-3.8,9.7-3.6,14.9c-0.1,1.5,0.1,3,0.4,4.5c0.4,1.2,1.2,2.2,1.6,3.3c0.5,2.2,0.5,4.6,0,6.8
		c-0.4,2.6-0.8,5.3-1.1,8.1c-0.2,1.4-0.2,2.9,0,4.3c0.6,2.8,3.1,5,3.8,7.8s-1.2,7.3-1.3,11c0,2.5,0.8,5.6-1.2,7.2l-1.7,1.1
		c-0.8,0.9-1.4,2-1.6,3.2c-0.2,1.2-0.2,2.4,0.3,3.6c0.7,2.3,0.5,4.7-0.6,6.8c-1.4,1.6-3.8,2.1-5.4,3.5c-1.3,1.5-1.9,3.5-1.8,5.5
		c0.1,2,0.9,3.9,2.3,5.3c0.7,0.8,1.4,1.7,1.9,2.7c0.3,0.5,0.4,1,0.4,1.5s-0.2,1.1-0.4,1.5c-3.6-2.3-6.8-4.9-9.8-7.9
		c-3.3-3.7-7.1-7-11.2-9.7c-16.9-9-37,9.5-55.8,5.9c-13.3-2.5-24.8-16-37.7-12c-5.4,1.6-11.5,6.4-16.1,2.9s-2.5-10.2-6-13.7
		c-3.6-3.5-11.7-0.7-16.6,3.1l-9.7,7.6c-1.4-1.4-3-2.6-3.1-4.4c0-0.8,0-1.4,0-2.2c-0.1-2.1-0.8-4-1.9-5.8c-1.8-3.7-2.6-7.8-2.4-12
		c-0.8-6.6-2.8-13.1-5.7-19.1c-1.6-4.8-3.3-9.5-4.9-14.3c-1.6-4.8-3.2-9.5-5.1-14.2c-3.8-9.2-8.8-17.9-13.2-26.9
		c-1.3-2.3-2.2-4.8-2.7-7.5c-0.2-1.3-0.2-2.6,0-3.9c0.3-1.3,0.8-2.5,1.6-3.6c1-1.3,2.7-2.5,2.7-4.2c0-0.2,0-0.5,0-0.8l6.3-3.8
		c5.1-3.2,10.9-8.5,8.8-14.1c-1-2.7-3.7-4.6-4.5-7.3c-2.7-9.2,15.5-11.6,16.8-21c1-7.3-8.8-11.6-10.5-18.8c-2.3-9,8.9-16,10-25.3
		c0.4-3.8-0.9-7.5-0.6-11.3c0.9-12.6,17.7-17.3,29.9-13.7s23.2,11.4,35.9,11.6c2.3-0.1,4.6,0.1,6.8,0.6c9.4,3.1,6.8,17.9,14.2,25.1
		c8.8,9.1,23.9,0,36.4,1.4c4.8,0.7,9.3,2.6,13.2,5.4c3.9,2.8,7,6.6,9.1,10.9c4,8.6,6.4,17.9,7.3,27.4c13.7,1.9,16-24.2,29.8-25.8
		c3.6,0,7.2,0.8,10.5,2.3c6.6,2.3,13.5,3.6,20.5,3.9c0,1.5,0.1,3,0.5,4.5c1.1,2.4,2,4.9,2.7,7.4c0.5,10.6,2.2,21.1,4.9,31.3
		c0.2,0.8,0.5,1.6,1.1,2.2c0.7,0.7,1.8,0.9,2.4,1.6c0.6,0.8,0.6,2.1,1.1,3.2c0.5,1,3.4,2.6,5.5,3.1s4.5,1.4,5.1,3.5"/>
	<path class="st1" d="M807.2,1390c0.1,0.7,0.1,1.4-0.1,2.1c-0.2,0.7-0.5,1.3-1,1.9c-0.9,1.1-2.1,2-3.1,3c-1.4,1.4-2.4,3.1-3,4.9
		c-0.6,1.8-0.9,3.8-0.7,5.8c0,1.6,0.5,3.5-0.8,4.5c-0.5,0.3-1,0.5-1.6,0.6s-1.1,0.1-1.7-0.1l-11.6-1.4c-2.1,1.9-4.9,4.3-6.8,6.2
		c-0.8,0.9-1.7,1.5-2.8,2c-1.6,0.3-3.1,0.6-4.7,0.7c-2.9,1-5.3,3-6.8,5.7c-0.7,1-1.5,1.9-2.4,2.6c-0.8,0.5-1.8,0.9-2.8,1s-2,0-3-0.3
		c-1.9-0.7-3.6-1.9-4.9-3.4c-2.6,4.5-3.8,9.7-3.6,14.9c-0.1,1.5,0.1,3,0.4,4.5c0.4,1.2,1.2,2.2,1.6,3.3c0.5,2.2,0.5,4.6,0,6.8
		c-0.4,2.6-0.8,5.3-1.1,8.1c-0.2,1.4-0.2,2.9,0,4.3c0.6,2.8,3.1,5,3.8,7.8s-1.2,7.3-1.3,11c0,2.5,0.8,5.6-1.2,7.2l-1.7,1.1
		c-0.8,0.9-1.4,2-1.6,3.2c-0.2,1.2-0.2,2.4,0.3,3.6c0.7,2.3,0.5,4.7-0.6,6.8c-1.4,1.6-3.8,2.1-5.4,3.5c-1.3,1.5-1.9,3.5-1.8,5.5
		c0.1,2,0.9,3.9,2.3,5.3c0.7,0.8,1.4,1.7,1.9,2.7c0.3,0.5,0.4,1,0.4,1.5s-0.2,1.1-0.4,1.5c-3.6-2.3-6.8-4.9-9.8-7.9
		c-3.3-3.7-7.1-7-11.2-9.7c-16.9-9-37,9.5-55.8,5.9c-13.3-2.5-24.8-16-37.7-12c-5.4,1.6-11.5,6.4-16.1,2.9s-2.5-10.2-6-13.7
		c-3.6-3.5-11.7-0.7-16.6,3.1l-9.7,7.6c-1.4-1.4-3-2.6-3.1-4.4c0-0.8,0-1.4,0-2.2c-0.1-2.1-0.8-4-1.9-5.8c-1.8-3.7-2.6-7.8-2.4-12
		c-0.8-6.6-2.8-13.1-5.7-19.1c-1.6-4.8-3.3-9.5-4.9-14.3c-1.6-4.8-3.2-9.5-5.1-14.2c-3.8-9.2-8.8-17.9-13.2-26.9
		c-1.3-2.3-2.2-4.8-2.7-7.5c-0.2-1.3-0.2-2.6,0-3.9c0.3-1.3,0.8-2.5,1.6-3.6c1-1.3,2.7-2.5,2.7-4.2c0-0.2,0-0.5,0-0.8l6.3-3.8
		c5.1-3.2,10.9-8.5,8.8-14.1c-1-2.7-3.7-4.6-4.5-7.3c-2.7-9.2,15.5-11.6,16.8-21c1-7.3-8.8-11.6-10.5-18.8c-2.3-9,8.9-16,10-25.3
		c0.4-3.8-0.9-7.5-0.6-11.3c0.9-12.6,17.7-17.3,29.9-13.7s23.2,11.4,35.9,11.6c2.3-0.1,4.6,0.1,6.8,0.6c9.4,3.1,6.8,17.9,14.2,25.1
		c8.8,9.1,23.9,0,36.4,1.4c4.8,0.7,9.3,2.6,13.2,5.4c3.9,2.8,7,6.6,9.1,10.9c4,8.6,6.4,17.9,7.3,27.4c13.7,1.9,16-24.2,29.8-25.8
		c3.6,0,7.2,0.8,10.5,2.3c6.6,2.3,13.5,3.6,20.5,3.9c0,1.5,0.1,3,0.5,4.5c1.1,2.4,2,4.9,2.7,7.4c0.5,10.6,2.2,21.1,4.9,31.3
		c0.2,0.8,0.5,1.6,1.1,2.2c0.7,0.7,1.8,0.9,2.4,1.6c0.6,0.8,0.6,2.1,1.1,3.2c0.5,1,3.4,2.6,5.5,3.1
		C803.8,1387,806.6,1387.9,807.2,1390z"/>
	<path class="st0" d="M741.4,1528.6c-1.2,1.4-3.6,0.6-5.2-0.3c-2.5-1.7-5.5-2.4-8.5-1.9c-2.1,0.8-4,2.3-5.3,4.1
		c-1,1.1-1.8,2.4-2.4,3.8c-0.3,0.7-0.4,1.5-0.3,2.3c0.1,0.8,0.4,1.5,0.9,2.1c0.1,0.5,0.1,1.1,0,1.6c-0.9,1.8-1.5,3.8-1.6,5.8
		s0.1,4,0.8,5.9c0.6,0.9,1.1,1.7,1.5,2.7c1.3,3.1-0.4,7.7,2.4,9.6c1.2,0.8,2.7,0.8,3.8,1.6s1.1,3.8,0,5.5c-1.3,1.5-2.5,3.2-3.5,4.9
		c-1.5,3.8,1,9-2.3,11.6c-3.2,2.6-9.2-1-12.1,2.1c-0.6,0.8-0.9,1.8-1,2.8s0,2,0.4,2.9c0.8,1.9,1.2,3.9,1.4,5.9c0,1.8-1,3.6-1.2,5.4
		c0.1,3.1,1.3,6,3.5,8.3c2.1,2.7,4.4,5.3,6.8,7.8c0.5,0.4,0.8,0.9,1,1.4c0.1,0.5,0,1.1-0.3,1.5c-0.3,0.5-0.7,0.8-1.2,1.1
		c-1,0.4-2,0.7-3.1,1c-4.2,1.4-6.2,6-7.7,10.1c-1.6,3.3-2.2,7-1.7,10.7c0.9,2.2,1.7,4.5,2.3,6.8l0,0c-18.1,9.6-38,15.4-58.4,16.8
		c-8.8,1.4-17.8-0.6-25.3-5.4c-9.4-7.6-11.4-22.9-22.4-28c-12.1-5.5-25.5,5.1-38.7,5.1c-11.4,0-20.9-7.5-30.9-12.9
		c-4-2.2-8.3-3.7-12.8-4.5c0.8-0.3,1.7-0.4,2.5-0.3c0.8,0.1,1.7,0.4,2.4,0.9l3.8-5.1c0.6-0.6,1-1.5,1.2-2.3c0-1-0.5-2-0.4-3
		s1.8-2.7,2.9-3.9c1.7-2.6,2.5-5.8,2.1-9c0-1.5-0.2-3-0.5-4.5c-0.7-1.5-1.5-3-2.4-4.4c-0.5-0.7-0.8-1.4-1-2.2s-0.2-1.6,0-2.4
		c0.1-0.4,0.3-0.8,0.6-1.1s0.6-0.6,1-0.8s0.8-0.3,1.2-0.3s0.8,0,1.2,0.2c1.6,1,1.8,3.8,3.7,4s2.3-1.5,2.8-2.8l2.7-7.5
		c0.1-0.6,0.5-1.2,1-1.6c0.6-0.3,1.2-0.5,1.9-0.4c2.6,0.1,5.2,0.8,7.4,2.2c0.6,0.5,1.4,0.7,2.1,0.7c1.4,0,1.8-2.1,1.8-3.5V1559
		c-0.2-1.5-0.1-3,0.3-4.5c0.4-1.5,1.1-2.8,2.1-4c2.5-2.7,3.9-6.2,4-9.8c0.1-0.9,0.3-1.8,0.5-2.7c1.4-3.6,6-5.5,6.2-9.3
		c0-2.1-1.3-4-1.3-6c0.1-1.1,0.4-2.2,1-3.1s1.3-1.8,2.3-2.4c1.9-1.2,3.7-2.5,5.5-3.9c0.9-0.7,1.5-1.7,1.9-2.8
		c0.3-1.1,0.4-2.2,0.1-3.3c-0.4-1-1.1-1.9-2-2.6l9.4-7.5c4.9-3.8,12.3-7.5,16.6-3.2c4.4,4.4,2,10.7,6,13.7c4,2.9,10.7-1.2,16.1-2.9
		c12.9-4,24.4,9.5,37.7,12c18.8,3.7,38.9-14.8,55.8-5.8c4.2,2.7,7.9,6,11.2,9.7c2.9,3,6.2,5.7,9.8,7.9"/>
	<path class="st1" d="M741.4,1528.6c-1.2,1.4-3.6,0.6-5.2-0.3c-2.5-1.7-5.5-2.4-8.5-1.9c-2.1,0.8-4,2.3-5.3,4.1
		c-1,1.1-1.8,2.4-2.4,3.8c-0.3,0.7-0.4,1.5-0.3,2.3c0.1,0.8,0.4,1.5,0.9,2.1c0.1,0.5,0.1,1.1,0,1.6c-0.9,1.8-1.5,3.8-1.6,5.8
		s0.1,4,0.8,5.9c0.6,0.9,1.1,1.7,1.5,2.7c1.3,3.1-0.4,7.7,2.4,9.6c1.2,0.8,2.7,0.8,3.8,1.6s1.1,3.8,0,5.5c-1.3,1.5-2.5,3.2-3.5,4.9
		c-1.5,3.8,1,9-2.3,11.6c-3.2,2.6-9.2-1-12.1,2.1c-0.6,0.8-0.9,1.8-1,2.8s0,2,0.4,2.9c0.8,1.9,1.2,3.9,1.4,5.9c0,1.8-1,3.6-1.2,5.4
		c0.1,3.1,1.3,6,3.5,8.3c2.1,2.7,4.4,5.3,6.8,7.8c0.5,0.4,0.8,0.9,1,1.4c0.1,0.5,0,1.1-0.3,1.5c-0.3,0.5-0.7,0.8-1.2,1.1
		c-1,0.4-2,0.7-3.1,1c-4.2,1.4-6.2,6-7.7,10.1c-1.6,3.3-2.2,7-1.7,10.7c0.9,2.2,1.7,4.5,2.3,6.8l0,0c-18.1,9.6-38,15.4-58.4,16.8
		c-8.8,1.4-17.8-0.6-25.3-5.4c-9.4-7.6-11.4-22.9-22.4-28c-12.1-5.5-25.5,5.1-38.7,5.1c-11.4,0-20.9-7.5-30.9-12.9
		c-4-2.2-8.3-3.7-12.8-4.5c0.8-0.3,1.7-0.4,2.5-0.3c0.8,0.1,1.7,0.4,2.4,0.9l3.8-5.1c0.6-0.6,1-1.5,1.2-2.3c0-1-0.5-2-0.4-3
		s1.8-2.7,2.9-3.9c1.7-2.6,2.5-5.8,2.1-9c0-1.5-0.2-3-0.5-4.5c-0.7-1.5-1.5-3-2.4-4.4c-0.5-0.7-0.8-1.4-1-2.2s-0.2-1.6,0-2.4
		c0.1-0.4,0.3-0.8,0.6-1.1s0.6-0.6,1-0.8s0.8-0.3,1.2-0.3s0.8,0,1.2,0.2c1.6,1,1.8,3.8,3.7,4s2.3-1.5,2.8-2.8l2.7-7.5
		c0.1-0.6,0.5-1.2,1-1.6c0.6-0.3,1.2-0.5,1.9-0.4c2.6,0.1,5.2,0.8,7.4,2.2c0.6,0.5,1.4,0.7,2.1,0.7c1.4,0,1.8-2.1,1.8-3.5V1559
		c-0.2-1.5-0.1-3,0.3-4.5c0.4-1.5,1.1-2.8,2.1-4c2.5-2.7,3.9-6.2,4-9.8c0.1-0.9,0.3-1.8,0.5-2.7c1.4-3.6,6-5.5,6.2-9.3
		c0-2.1-1.3-4-1.3-6c0.1-1.1,0.4-2.2,1-3.1s1.3-1.8,2.3-2.4c1.9-1.2,3.7-2.5,5.5-3.9c0.9-0.7,1.5-1.7,1.9-2.8
		c0.3-1.1,0.4-2.2,0.1-3.3c-0.4-1-1.1-1.9-2-2.6l9.4-7.5c4.9-3.8,12.3-7.5,16.6-3.2c4.4,4.4,2,10.7,6,13.7c4,2.9,10.7-1.2,16.1-2.9
		c12.9-4,24.4,9.5,37.7,12c18.8,3.7,38.9-14.8,55.8-5.8c4.2,2.7,7.9,6,11.2,9.7C734.5,1523.7,737.8,1526.4,741.4,1528.6
		L741.4,1528.6z"/>
	<path class="st0" d="M737.5,2081.2c-0.4,1.7-0.4,3.5,0.1,5.1c0.5,1.7,1.4,3.2,2.6,4.4c1.7,1.5,4.4,3,3.9,5.3
		c-0.2,0.5-0.3,1-0.3,1.5c0,1.4,2.1,1.4,3.2,2.3c1.1,0.8,0.9,4-0.6,5.5c-1.5,1.4-2.7,2-3.9,3.1l-12.2,2.3c-2.4,0.5-4.8,0.5-7.2,0
		c-7.4-1.8-8.1-11.8-11.2-18.8c-1.2-2.8-3-5.3-5.3-7.3c-2.2-2.1-4.9-3.6-7.7-4.7c-6.1-1.7-12.4-2.1-18.7-1.2
		c-9.5,0.8-19.1,1.6-28.7,1.6c-6.7,0.1-13.4-0.2-20.1-0.8c0-0.3,0-0.6,0-0.9c-1.2-2.4-3.1-4.7-2.9-7.2c0.3-2.5,1.2-3.1,0.9-4.6
		s-1.9-2.7-3.4-3.6c-6.1-3.8-11.3-8.9-15.3-14.9c-0.7-1-1.2-2.2-1.2-3.5c0-2.7,3.4-4.1,4.3-6.8c0.9-2.7-2.7-6.9-2.9-10.6
		c-0.3-3.8,4.2-7.5,8.1-9.4c4-1.9,8.6-4.5,9-8.9c0.3-4.4-4.8-9.1-3.1-13.7c0.8-2.1,2.8-3.5,3.1-5.7c-0.1-0.6-0.1-1.1,0-1.7
		c0.3-0.7,0.8-1.2,1.4-1.5c0.6-0.3,1.4-0.4,2.1-0.2c0.7,0.2,1.4,0.5,1.9,0.9c0.6,0.4,1.1,1,1.4,1.6c0.5,0.9,1.2,1.8,2.2,2.1
		c0.6,0.1,1.2-0.1,1.7-0.4c0.5-0.3,0.9-0.8,1.1-1.4c0.3-1.4,0.3-2.8-0.2-4.2c-0.4-1.4-1.2-2.6-2.3-3.5c-2.1-1.9-3.8-4.2-4.9-6.8
		c-0.1-0.3-0.2-0.6-0.2-1c0-0.3,0.1-0.7,0.2-1c0.3-0.5,0.7-0.8,1.2-1s1-0.2,1.5,0c1,0.4,1.9,1,2.7,1.8c0.9,0.9,2.6,0,3-1.2
		c0.2-0.6,0.2-1.2,0.1-1.9c-0.1-0.6-0.4-1.2-0.7-1.7c-1.7-3.1-4.3-5.8-7.4-7.5c-1-0.5-1.9-1.1-2.7-1.8c-0.7-0.9-1.3-2-1.6-3.1
		c-0.6-1.8-1.3-3.6-1.9-5.4c-0.4-0.9-0.6-1.8-0.5-2.8c0.2-0.8,0.5-1.5,1-2.2l3.6-6.2c-1.4-2.7-2.3-5.7-3.6-8.3
		c-0.3-0.7-0.5-1.3-0.7-2.1c0-1.7,1.2-3.2,1.7-4.8c0.2-1.5,0.2-2.9,0-4.4c0-0.7,0.1-1.5,0.5-2.1c0.4-0.7,0.9-1.2,1.5-1.6
		c0.8-0.2,1.6-0.2,2.4,0c6.8,0.1,13.5,1.9,19.4,5.3c1,0.9,2.2,1.6,3.6,2.1c0.3,0.2,0.6,0.3,0.9,0.3c0.3,0,0.7,0,1-0.1
		s0.6-0.3,0.9-0.5c0.2-0.2,0.5-0.5,0.6-0.8s0.2-0.6,0.2-1c0-0.3,0-0.7-0.2-1c-0.1-0.3-0.3-0.6-0.5-0.8s-0.5-0.4-0.8-0.5
		c-0.9-0.6-1.9-1-3-1.2c-3.2-0.9-6.1-2.6-8.5-5c-2.4-2.3-4.2-5.2-5.2-8.3c-0.3-1.5-0.9-2.9-1.6-4.2c-1.1-1.8-3.1-2.9-4.2-4.7
		c-0.7-1.9-1.6-3.6-2.7-5.3c-1-1-2.3-1.6-3-2.7c-0.3-0.8-0.4-1.6-0.2-2.5c0.2-0.8,0.6-1.6,1.3-2.1c1.3-1.1,2.7-2,4.2-2.7
		c4.6-1.9,8.8-4.6,12.5-7.9c0.7-0.8,1.6-1.6,2.7-1.4c0.4,0.2,0.7,0.4,1,0.7c2.8,2.8,1.2,7.6,2.7,11.3c0.5,1.1,1.1,2.2,1.7,3.2
		c1.1,2.9,2.6,5.6,4.4,8.1c1.1,1.2,2.7,2.1,4,3.3c0.6,0.6,1.1,1.2,1.4,2l-1.8-16.6c-0.3-3-0.8-6-1.5-9c-0.7-1.9-1.1-3.9-1.1-5.9
		c0.3-1.5,0.7-3.1,1.3-4.5c1-3.4,1.6-7,1.8-10.6c0.3-2.1,0.1-4.2-0.6-6.2c-0.4-1-1.1-1.7-2.1-2.2c-0.9-0.4-2-0.5-3-0.1
		c-1.7,0.8-2.3,2.9-3.9,4c-3,1.8-6.8-1.4-10.3-1.2c-2,0-3.8,1.4-5.7,1.3c-0.9-0.1-1.8-0.4-2.6-0.9l-4.9-2.3
		c-1.2-0.5-2.3-1.2-3.1-2.1c-0.5-0.7-0.9-1.6-1.4-2.3c-0.6-0.9-1.4-1.6-2.3-2.1c-0.9-0.5-2-0.7-3-0.6c-0.6-4,5.7-4.5,6.8-8.4
		c0-0.9,0-1.8,0.4-2.7c0.5-1.5,1.5-2.9,2.8-3.9l9.1-8.5c1.5-1.6,3.4-2.9,5.5-3.6c1.4-0.2,2.8-0.2,4.2,0c5.2-0.2,10-2.4,13.7-6
		c1.1-1.3,2.3-2.4,3.7-3.4c1.1-0.8,2.5-1.1,3.6-1.8c1.2-1.2,2.2-2.8,2.6-4.5c0.5-1.7,0.5-3.5,0.1-5.2c-0.8-3.4-0.6-7,0.6-10.3
		c0.5-0.7,0.8-1.5,1-2.3c-0.1-0.6-0.2-1.1-0.4-1.6c-0.1-2.5,0.3-5,1.2-7.3c0.5-2.5-0.8-5.8-3.3-5.4c-0.7,0.2-1.4,0.6-1.8,1.2
		c-0.5,0.6-0.7,1.3-0.8,2.1c0,1.6,0.3,3.1,0.7,4.7c0.6,4.6,0.1,9.3-1.5,13.7c-1,3.6-2.4,7.1-4.2,10.3c-2.2,4-5.9,7.1-10.2,8.7
		c-2.2,0.8-4.5,0.9-6.7,0.5s-4.3-1.5-6-3c-1.3-1.3-2.4-2.8-3.3-4.5c-2-3.1-3.7-6.4-5.2-9.7c-0.7-1.9-1.7-3.6-2.9-5.1
		c-1-0.9-2.1-1.7-3.4-2.2c-4-2.4-8.4-4.1-13-4.9c-2.3-0.4-4.7-0.1-6.9,0.8c-2.2,0.9-4.1,2.3-5.5,4.1c-3.9,6.1,0,14.8-3.6,21.1
		c-1.5,3.1-4.7,5.8-4,9.2c0,1.2,1,2.3,0.9,3.5c-0.2,0.6-0.5,1.2-1,1.7s-1,0.9-1.6,1.1c-2,1-4.2,1.6-6.4,1.8s-4.5-0.1-6.6-0.8
		c-3.4-1.2-6.8-3.6-10.2-2.3c-3.4,1.2-4.7,4.7-7.7,5.8c-1.7,0.4-3.4,0.4-5.1,0l-22.8-4.3c0.8-3.7,2.5-7.1,4.9-9.9
		c1.4-1.6,3.1-3.2,3.1-5.2c-0.2-1.1-0.6-2-1.3-2.9c-0.7-0.8-1.5-1.5-2.5-1.9c-2-0.8-3.8-1.9-5.4-3.3c-1.2,2.4-5.1,1.2-6.5-1.2
		c-0.9-2.5-1.9-4.9-3.1-7.3c-1.2-1.4-3-2.3-3.8-3.9c-0.6-1.9-0.6-4,0-6c1.3-5.5,0.8-11.3-1.5-16.6c-1.5-3.6-1.3-8-2.9-11.6
		c-2.3-3.4-4.3-7-6-10.7c-0.2-2.6-0.6-5.1-1.1-7.6c-0.8-2.1-2.5-3.8-2.5-6c0-3.2,3.2-5.4,6-6.8c2.7-1.4,5.7-4.5,4.7-7.6
		c-0.5-1.6-2.2-2.7-2.9-4.4c-1.3-2.9,0.9-6.2,2.4-9c2.2-4.4,2.8-9.5,1.6-14.2c-0.2-0.5-0.3-1-0.3-1.5s0.1-1,0.4-1.5
		c0.2-0.5,0.5-0.9,0.9-1.2s0.9-0.6,1.3-0.7c3.6-1.9,6.4-5,7.9-8.7c0.7-1.9,0.8-3.9,0.3-5.8c-0.5-1.9-1.7-3.6-3.2-4.9
		c-1-0.5-1.9-1.2-2.6-2.1c-0.6-1.3-0.8-2.8-0.4-4.2c0.8-7-0.2-14-2.9-20.5c0.2-0.7,0.6-1.3,1.1-1.9c0.5-0.5,1.1-0.9,1.8-1.1
		c4.5,0.8,8.8,2.3,12.8,4.5c9.9,5.4,19.5,13,30.9,12.9c13.3,0,26.6-10.7,38.7-5.1c11,5.1,13,20.5,22.4,28c7.5,4.9,16.5,6.8,25.3,5.4
		c20.6-1.6,40.5-7.6,58.6-17.6c0,2.5-0.9,5.1,0,7.3c0.5,0.9,1.3,1.6,1.2,2.7c-0.2,0.6-0.5,1.2-1,1.6c-1.2,1.3-2.8,2.5-4,4
		c-0.6,0.7-1,1.6-1.2,2.5s-0.3,1.9-0.1,2.8c0.8,2.8,0.5,5.5,1.1,8.5c0.2,3,1.4,5.9,3.4,8.2c1.2,1.3,3,2.1,4.2,3.4
		c0.5,0.7,0.9,1.5,1.1,2.4c0.2,0.9,0.1,1.8-0.1,2.6c-0.2,0.9-0.6,1.7-1.2,2.3c-0.6,0.7-1.3,1.2-2.1,1.6c-0.7,0.2-1.4,0.5-2,1
		c-1.4,1.4,0,3.8,1.7,4.7c1.9,0.5,3.7,1.2,5.4,2.1c1.1,1,1.7,2.3,1.9,3.7s-0.1,2.9-0.9,4.1c-0.8,1.1-1.3,2.4-1.5,3.8
		c0,1.7,1.5,3.2,1.1,4.9s-4,2.3-5.4,4.2c-0.5,0.7-0.7,1.6-0.7,2.4s0.2,1.7,0.7,2.4c1,1.3,2.2,2.6,3.4,3.8c0.8,1,1.5,2.5,0.6,3.5
		s-1.4,0.7-2.2,1c-0.6,0.3-1.1,0.9-1.3,1.6c-0.2,0.7-0.2,1.4,0,2.1c0.5,1,1.6,1.7,1.8,2.9c0.3,1.2-1.8,3.4-2.5,5.3
		c-0.3,1.1-0.2,2.2,0.1,3.2c0.4,1,1,1.9,1.8,2.6c1.7,1.4,3.2,3,4.4,4.9c0.7,1.9,0.9,4,0.6,6.1c0,3.8-0.5,7.6-0.8,11.4
		c-1.4,1.3-2.3,3.1-2.6,4.9c-0.3,1.9,0,3.8,0.8,5.5c1.7,2.2,3.6,4.2,5.6,6c2.7,3.9,4.3,8.3,4.7,13c0.2,0.8,0.2,1.6,0,2.4
		c-0.2,0.8-0.6,1.5-1,2.3c-2.5,5.3,2.4,11.4,1.3,17.1c-0.3,1.1-0.5,2.2-0.4,3.4c0,1.8,1.9,2.9,2.9,4.3c1.3,1.9,2.1,4.1,2.4,6.4
		c0.8,2.8,0.5,5.8-0.9,8.3c-2.7,3.7-8.9,3.2-11.9,6.8c-0.4,0.5-0.8,0.9-1.2,1.2c-0.6,0.2-1.2,0.2-1.8,0s-1.1-0.5-1.4-1
		c-0.7-1-1.3-2.1-1.8-3.3c-0.8-1.3-1.9-2.3-3.2-3.1c-1.3-0.7-2.8-1.1-4.3-1.2c-1.5,0.1-3,0.5-4.3,1.3s-2.4,1.9-3.1,3.2
		c0,0.5-0.4,1-1,1.2c-0.4,0.1-0.7,0.1-1.1,0c-1.6-0.2-3.2-0.6-4.7-1.3c-2-0.8-3.3,2.5-2.5,4.5c1.2,1.9,2.2,3.8,3,5.8
		c0.6,2.5-0.8,5.3,0,7.9c0.8,2.7,3.3,5.4,2.9,8.4c0,1.5-1.2,3.1-0.6,4.5c0.5,1.4,4.3,1.5,6.3,2.8c1.1,0.9,1.9,2.2,2.3,3.6
		c1.4,3.2,1.9,6.7,1.3,10.2c-1.2,3.9-5.1,6.8-6,10.8c-0.5,2.9,0.6,6.1,0,9s-2.9,4.7-3.5,6.8c-0.5,2.2,1.4,6.8,1.3,10.3
		c-0.3,2.1-0.6,4.3-1.2,6.4c0.1,5,2,9.9,5.3,13.7c3.3,5.3,7.5,9.9,12.5,13.7c1.5,0.8,2.8,1.9,3.8,3.3c0.5,1.1,0.5,2.3,1,3.4
		c1.3,2.7,5,2.8,7.9,2.6c2.5,2.2,4.7,4.9,6.8,6.8c1.3,1.2,2.8,2.6,2.7,4.4c-0.1,1.8-1,2.3-1,3.5s2.5,3.7,1.8,5.8
		c-0.6,2.1-5.5,1.1-7.4,3.3c-1.8,2.2-0.9,3.3-2.3,3.9c-1.4,0.6-2.8-0.6-4.2-0.4c-1.4,0.2-2.6,2.7-2.3,4.4c0.6,1.8,0.8,3.7,0.5,5.5
		c-0.7,2-2.9,3.6-2.3,5.6c0.5,2,6.3,1.6,8.1,4.2c1.8,2.7,0,4-1,5.9c-1,1.8-1.6,4.5,0,5.6s4-0.5,4.9-2.3c1-1.9,2.1-3.2,3.4-2.4
		c1.3,0.8,0,2.7,1,4.1c1.1,2.5,5.9,0.4,7.3,2.8c1.4,2.4-0.3,3.5,0,5.1c1.3,2.9,6.8,0.7,8.3,3.5c0.2,0.6,0.2,1.2,0.2,1.9
		c-0.1,0.6-0.3,1.2-0.7,1.7c-1.5,2.2-3.3,4.2-5.3,6c-2.5,2.4-4.3,5.5-5.2,8.9"/>
	<path class="st1" d="M737.5,2081.2c-0.4,1.7-0.4,3.5,0.1,5.1c0.5,1.7,1.4,3.2,2.6,4.4c1.7,1.5,4.4,3,3.9,5.3
		c-0.2,0.5-0.3,1-0.3,1.5c0,1.4,2.1,1.4,3.2,2.3c1.1,0.8,0.9,4-0.6,5.5c-1.5,1.4-2.7,2-3.9,3.1l-12.2,2.3c-2.4,0.5-4.8,0.5-7.2,0
		c-7.4-1.8-8.1-11.8-11.2-18.8c-1.2-2.8-3-5.3-5.3-7.3c-2.2-2.1-4.9-3.6-7.7-4.7c-6.1-1.7-12.4-2.1-18.7-1.2
		c-9.5,0.8-19.1,1.6-28.7,1.6c-6.7,0.1-13.4-0.2-20.1-0.8c0-0.3,0-0.6,0-0.9c-1.2-2.4-3.1-4.7-2.9-7.2c0.3-2.5,1.2-3.1,0.9-4.6
		s-1.9-2.7-3.4-3.6c-6.1-3.8-11.3-8.9-15.3-14.9c-0.7-1-1.2-2.2-1.2-3.5c0-2.7,3.4-4.1,4.3-6.8c0.9-2.7-2.7-6.9-2.9-10.6
		c-0.3-3.8,4.2-7.5,8.1-9.4c4-1.9,8.6-4.5,9-8.9c0.3-4.4-4.8-9.1-3.1-13.7c0.8-2.1,2.8-3.5,3.1-5.7c-0.1-0.6-0.1-1.1,0-1.7
		c0.3-0.7,0.8-1.2,1.4-1.5c0.6-0.3,1.4-0.4,2.1-0.2c0.7,0.2,1.4,0.5,1.9,0.9c0.6,0.4,1.1,1,1.4,1.6c0.5,0.9,1.2,1.8,2.2,2.1
		c0.6,0.1,1.2-0.1,1.7-0.4c0.5-0.3,0.9-0.8,1.1-1.4c0.3-1.4,0.3-2.8-0.2-4.2c-0.4-1.4-1.2-2.6-2.3-3.5c-2.1-1.9-3.8-4.2-4.9-6.8
		c-0.1-0.3-0.2-0.6-0.2-1c0-0.3,0.1-0.7,0.2-1c0.3-0.5,0.7-0.8,1.2-1s1-0.2,1.5,0c1,0.4,1.9,1,2.7,1.8c0.9,0.9,2.6,0,3-1.2
		c0.2-0.6,0.2-1.2,0.1-1.9c-0.1-0.6-0.4-1.2-0.7-1.7c-1.7-3.1-4.3-5.8-7.4-7.5c-1-0.5-1.9-1.1-2.7-1.8c-0.7-0.9-1.3-2-1.6-3.1
		c-0.6-1.8-1.3-3.6-1.9-5.4c-0.4-0.9-0.6-1.8-0.5-2.8c0.2-0.8,0.5-1.5,1-2.2l3.6-6.2c-1.4-2.7-2.3-5.7-3.6-8.3
		c-0.3-0.7-0.5-1.3-0.7-2.1c0-1.7,1.2-3.2,1.7-4.8c0.2-1.5,0.2-2.9,0-4.4c0-0.7,0.1-1.5,0.5-2.1c0.4-0.7,0.9-1.2,1.5-1.6
		c0.8-0.2,1.6-0.2,2.4,0c6.8,0.1,13.5,1.9,19.4,5.3c1,0.9,2.2,1.6,3.6,2.1c0.3,0.2,0.6,0.3,0.9,0.3c0.3,0,0.7,0,1-0.1
		s0.6-0.3,0.9-0.5c0.2-0.2,0.5-0.5,0.6-0.8s0.2-0.6,0.2-1c0-0.3,0-0.7-0.2-1c-0.1-0.3-0.3-0.6-0.5-0.8s-0.5-0.4-0.8-0.5
		c-0.9-0.6-1.9-1-3-1.2c-3.2-0.9-6.1-2.6-8.5-5c-2.4-2.3-4.2-5.2-5.2-8.3c-0.3-1.5-0.9-2.9-1.6-4.2c-1.1-1.8-3.1-2.9-4.2-4.7
		c-0.7-1.9-1.6-3.6-2.7-5.3c-1-1-2.3-1.6-3-2.7c-0.3-0.8-0.4-1.6-0.2-2.5c0.2-0.8,0.6-1.6,1.3-2.1c1.3-1.1,2.7-2,4.2-2.7
		c4.6-1.9,8.8-4.6,12.5-7.9c0.7-0.8,1.6-1.6,2.7-1.4c0.4,0.2,0.7,0.4,1,0.7c2.8,2.8,1.2,7.6,2.7,11.3c0.5,1.1,1.1,2.2,1.7,3.2
		c1.1,2.9,2.6,5.6,4.4,8.1c1.1,1.2,2.7,2.1,4,3.3c0.6,0.6,1.1,1.2,1.4,2l-1.8-16.6c-0.3-3-0.8-6-1.5-9c-0.7-1.9-1.1-3.9-1.1-5.9
		c0.3-1.5,0.7-3.1,1.3-4.5c1-3.4,1.6-7,1.8-10.6c0.3-2.1,0.1-4.2-0.6-6.2c-0.4-1-1.1-1.7-2.1-2.2c-0.9-0.4-2-0.5-3-0.1
		c-1.7,0.8-2.3,2.9-3.9,4c-3,1.8-6.8-1.4-10.3-1.2c-2,0-3.8,1.4-5.7,1.3c-0.9-0.1-1.8-0.4-2.6-0.9l-4.9-2.3
		c-1.2-0.5-2.3-1.2-3.1-2.1c-0.5-0.7-0.9-1.6-1.4-2.3c-0.6-0.9-1.4-1.6-2.3-2.1c-0.9-0.5-2-0.7-3-0.6c-0.6-4,5.7-4.5,6.8-8.4
		c0-0.9,0-1.8,0.4-2.7c0.5-1.5,1.5-2.9,2.8-3.9l9.1-8.5c1.5-1.6,3.4-2.9,5.5-3.6c1.4-0.2,2.8-0.2,4.2,0c5.2-0.2,10-2.4,13.7-6
		c1.1-1.3,2.3-2.4,3.7-3.4c1.1-0.8,2.5-1.1,3.6-1.8c1.2-1.2,2.2-2.8,2.6-4.5c0.5-1.7,0.5-3.5,0.1-5.2c-0.8-3.4-0.6-7,0.6-10.3
		c0.5-0.7,0.8-1.5,1-2.3c-0.1-0.6-0.2-1.1-0.4-1.6c-0.1-2.5,0.3-5,1.2-7.3c0.5-2.5-0.8-5.8-3.3-5.4c-0.7,0.2-1.4,0.6-1.8,1.2
		c-0.5,0.6-0.7,1.3-0.8,2.1c0,1.6,0.3,3.1,0.7,4.7c0.6,4.6,0.1,9.3-1.5,13.7c-1,3.6-2.4,7.1-4.2,10.3c-2.2,4-5.9,7.1-10.2,8.7
		c-2.2,0.8-4.5,0.9-6.7,0.5s-4.3-1.5-6-3c-1.3-1.3-2.4-2.8-3.3-4.5c-2-3.1-3.7-6.4-5.2-9.7c-0.7-1.9-1.7-3.6-2.9-5.1
		c-1-0.9-2.1-1.7-3.4-2.2c-4-2.4-8.4-4.1-13-4.9c-2.3-0.4-4.7-0.1-6.9,0.8c-2.2,0.9-4.1,2.3-5.5,4.1c-3.9,6.1,0,14.8-3.6,21.1
		c-1.5,3.1-4.7,5.8-4,9.2c0,1.2,1,2.3,0.9,3.5c-0.2,0.6-0.5,1.2-1,1.7s-1,0.9-1.6,1.1c-2,1-4.2,1.6-6.4,1.8s-4.5-0.1-6.6-0.8
		c-3.4-1.2-6.8-3.6-10.2-2.3c-3.4,1.2-4.7,4.7-7.7,5.8c-1.7,0.4-3.4,0.4-5.1,0l-22.8-4.3c0.8-3.7,2.5-7.1,4.9-9.9
		c1.4-1.6,3.1-3.2,3.1-5.2c-0.2-1.1-0.6-2-1.3-2.9c-0.7-0.8-1.5-1.5-2.5-1.9c-2-0.8-3.8-1.9-5.4-3.3c-1.2,2.4-5.1,1.2-6.5-1.2
		c-0.9-2.5-1.9-4.9-3.1-7.3c-1.2-1.4-3-2.3-3.8-3.9c-0.6-1.9-0.6-4,0-6c1.3-5.5,0.8-11.3-1.5-16.6c-1.5-3.6-1.3-8-2.9-11.6
		c-2.3-3.4-4.3-7-6-10.7c-0.2-2.6-0.6-5.1-1.1-7.6c-0.8-2.1-2.5-3.8-2.5-6c0-3.2,3.2-5.4,6-6.8c2.7-1.4,5.7-4.5,4.7-7.6
		c-0.5-1.6-2.2-2.7-2.9-4.4c-1.3-2.9,0.9-6.2,2.4-9c2.2-4.4,2.8-9.5,1.6-14.2c-0.2-0.5-0.3-1-0.3-1.5s0.1-1,0.4-1.5
		c0.2-0.5,0.5-0.9,0.9-1.2s0.9-0.6,1.3-0.7c3.6-1.9,6.4-5,7.9-8.7c0.7-1.9,0.8-3.9,0.3-5.8c-0.5-1.9-1.7-3.6-3.2-4.9
		c-1-0.5-1.9-1.2-2.6-2.1c-0.6-1.3-0.8-2.8-0.4-4.2c0.8-7-0.2-14-2.9-20.5c0.2-0.7,0.6-1.3,1.1-1.9c0.5-0.5,1.1-0.9,1.8-1.1
		c4.5,0.8,8.8,2.3,12.8,4.5c9.9,5.4,19.5,13,30.9,12.9c13.3,0,26.6-10.7,38.7-5.1c11,5.1,13,20.5,22.4,28c7.5,4.9,16.5,6.8,25.3,5.4
		c20.6-1.6,40.5-7.6,58.6-17.6c0,2.5-0.9,5.1,0,7.3c0.5,0.9,1.3,1.6,1.2,2.7c-0.2,0.6-0.5,1.2-1,1.6c-1.2,1.3-2.8,2.5-4,4
		c-0.6,0.7-1,1.6-1.2,2.5s-0.3,1.9-0.1,2.8c0.8,2.8,0.5,5.5,1.1,8.5c0.2,3,1.4,5.9,3.4,8.2c1.2,1.3,3,2.1,4.2,3.4
		c0.5,0.7,0.9,1.5,1.1,2.4c0.2,0.9,0.1,1.8-0.1,2.6c-0.2,0.9-0.6,1.7-1.2,2.3c-0.6,0.7-1.3,1.2-2.1,1.6c-0.7,0.2-1.4,0.5-2,1
		c-1.4,1.4,0,3.8,1.7,4.7c1.9,0.5,3.7,1.2,5.4,2.1c1.1,1,1.7,2.3,1.9,3.7s-0.1,2.9-0.9,4.1c-0.8,1.1-1.3,2.4-1.5,3.8
		c0,1.7,1.5,3.2,1.1,4.9s-4,2.3-5.4,4.2c-0.5,0.7-0.7,1.6-0.7,2.4s0.2,1.7,0.7,2.4c1,1.3,2.2,2.6,3.4,3.8c0.8,1,1.5,2.5,0.6,3.5
		s-1.4,0.7-2.2,1c-0.6,0.3-1.1,0.9-1.3,1.6c-0.2,0.7-0.2,1.4,0,2.1c0.5,1,1.6,1.7,1.8,2.9c0.3,1.2-1.8,3.4-2.5,5.3
		c-0.3,1.1-0.2,2.2,0.1,3.2c0.4,1,1,1.9,1.8,2.6c1.7,1.4,3.2,3,4.4,4.9c0.7,1.9,0.9,4,0.6,6.1c0,3.8-0.5,7.6-0.8,11.4
		c-1.4,1.3-2.3,3.1-2.6,4.9c-0.3,1.9,0,3.8,0.8,5.5c1.7,2.2,3.6,4.2,5.6,6c2.7,3.9,4.3,8.3,4.7,13c0.2,0.8,0.2,1.6,0,2.4
		c-0.2,0.8-0.6,1.5-1,2.3c-2.5,5.3,2.4,11.4,1.3,17.1c-0.3,1.1-0.5,2.2-0.4,3.4c0,1.8,1.9,2.9,2.9,4.3c1.3,1.9,2.1,4.1,2.4,6.4
		c0.8,2.8,0.5,5.8-0.9,8.3c-2.7,3.7-8.9,3.2-11.9,6.8c-0.4,0.5-0.8,0.9-1.2,1.2c-0.6,0.2-1.2,0.2-1.8,0s-1.1-0.5-1.4-1
		c-0.7-1-1.3-2.1-1.8-3.3c-0.8-1.3-1.9-2.3-3.2-3.1c-1.3-0.7-2.8-1.1-4.3-1.2c-1.5,0.1-3,0.5-4.3,1.3s-2.4,1.9-3.1,3.2
		c0,0.5-0.4,1-1,1.2c-0.4,0.1-0.7,0.1-1.1,0c-1.6-0.2-3.2-0.6-4.7-1.3c-2-0.8-3.3,2.5-2.5,4.5c1.2,1.9,2.2,3.8,3,5.8
		c0.6,2.5-0.8,5.3,0,7.9c0.8,2.7,3.3,5.4,2.9,8.4c0,1.5-1.2,3.1-0.6,4.5c0.5,1.4,4.3,1.5,6.3,2.8c1.1,0.9,1.9,2.2,2.3,3.6
		c1.4,3.2,1.9,6.7,1.3,10.2c-1.2,3.9-5.1,6.8-6,10.8c-0.5,2.9,0.6,6.1,0,9s-2.9,4.7-3.5,6.8c-0.5,2.2,1.4,6.8,1.3,10.3
		c-0.3,2.1-0.6,4.3-1.2,6.4c0.1,5,2,9.9,5.3,13.7c3.3,5.3,7.5,9.9,12.5,13.7c1.5,0.8,2.8,1.9,3.8,3.3c0.5,1.1,0.5,2.3,1,3.4
		c1.3,2.7,5,2.8,7.9,2.6c2.5,2.2,4.7,4.9,6.8,6.8c1.3,1.2,2.8,2.6,2.7,4.4c-0.1,1.8-1,2.3-1,3.5s2.5,3.7,1.8,5.8
		c-0.6,2.1-5.5,1.1-7.4,3.3c-1.8,2.2-0.9,3.3-2.3,3.9c-1.4,0.6-2.8-0.6-4.2-0.4c-1.4,0.2-2.6,2.7-2.3,4.4c0.6,1.8,0.8,3.7,0.5,5.5
		c-0.7,2-2.9,3.6-2.3,5.6c0.5,2,6.3,1.6,8.1,4.2c1.8,2.7,0,4-1,5.9c-1,1.8-1.6,4.5,0,5.6s4-0.5,4.9-2.3c1-1.9,2.1-3.2,3.4-2.4
		c1.3,0.8,0,2.7,1,4.1c1.1,2.5,5.9,0.4,7.3,2.8c1.4,2.4-0.3,3.5,0,5.1c1.3,2.9,6.8,0.7,8.3,3.5c0.2,0.6,0.2,1.2,0.2,1.9
		c-0.1,0.6-0.3,1.2-0.7,1.7c-1.5,2.2-3.3,4.2-5.3,6C739.7,2074.4,738.1,2077.7,737.5,2081.2L737.5,2081.2z"/>
	<path class="st0" d="M503.8,1935.8c-1.8-6.8-8.4-12.7-8-19.9c0-4.7,3.4-9,2.7-13.7c-0.5-3.6-3.5-6.8-3.1-10.3s5.9-6.8,8.8-10.3
		c5.3-6.4,2.5-15.8,2.3-24c-0.1-4.7,0.7-9.4,2.5-13.7c0.4-0.8,0.7-1.7,0.7-2.6c0-2.2-2.9-3.1-4-4.9c-1.2-1.9,0.5-6.8,3.6-7.7
		c3.2-0.7,6.6-0.4,9.6,0.9c-0.9,2.4-2.6,4.4-4.9,5.7c3.4,2,7.3,2.8,11.2,2.4c3.9-0.5,7.5-2.3,10.3-5c2.6-2.8,5.5-6.8,9.2-6
		c2.1,0.6,3.8,2.9,6,2.4s2.3-1.9,3.8-2.2c0.9-0.1,1.8,0.1,2.6,0.7c0.7,0.5,1.2,1.4,1.3,2.3c0.2,1.8-0.1,3.7-1,5.3
		c-1.7,4-4,7.7-6.8,11.1c3.3,2.7,6.8,5,10.6,6.8c3.5,2.4,6.2,7.2,3.9,10.8c-0.8,1.1-1.9,1.9-2.5,3.1c-1.7,3.5,2.3,6.8,5.1,9.7
		c3.2,3.2,5.2,7.3,5.7,11.8c0.2,0.7,0.2,1.5,0,2.2c-0.1,0.7-0.4,1.4-0.9,2c-1,0.9-2.2,1.5-3.5,1.6l-11.5,2.8
		c-3.8,0.4-7.3,2.3-9.6,5.3c-0.9,1.6-1.1,3.5-0.7,5.3c0.4,1.8,1.5,3.3,3.1,4.3c-2.1,0.6-4.7,1.8-4.5,4c0,3.6,6.8,3.1,7.7,6.8
		c-4.3,0.7-8.4,2.1-12.2,4.2c-3.4,2.5-5,8.3-1.6,11.1c3.4,2.7,8.3,1,11,4c2.6,2.9,1.4,5.1,3.1,6.8c1.2,1.1,2.7,1.9,4.2,2.4
		c3.3,1.5,6.1,3.9,8.1,6.8c1,1.2,1.5,2.6,1.5,4.2c0,3.2-4,5-6.8,4.3c-3-1-5.7-2.8-7.7-5.3c-1.4,1.2-3,2-4.7,2.6
		c-1.7,0.5-3.5,0.7-5.3,0.6c-1.2,1.8,1.6,3.8,3.8,3.8c2.2-0.1,4.8-1,6.4,0.5c1.6,1.5,1,4.5,1.5,6.8c0.8,3.4,4,5.3,6.3,7.9
		s2.8,7.5-0.5,8.6c-1.1,4,7.2,4.4,7.9,8.5c0.1,0.5,0,1.1-0.1,1.6c-0.2,0.5-0.4,1-0.8,1.4c-0.4,0.4-0.8,0.7-1.3,0.9s-1,0.3-1.6,0.3
		c-0.9,0.1-1.9,0-2.8-0.3s-1.7-0.8-2.5-1.4c-1.3-1-2.8-2.4-4.4-2c-1.6,0.4-2.9,4.5-5.5,5.1c-0.8-1.2-1.3-2.6-1.4-4
		c-0.3-1.4-1.6-2.9-2.9-2.5c-0.5,0.2-1,0.6-1.3,1.1c-0.8,1.7-1.1,3.6-0.9,5.5c0.2,1.9,1,3.7,2.2,5.1c2.5,2.9,4.4,6.2,5.8,9.7
		c0.9,3.7-1.3,8.5-5.1,8.4c1.9,1.2,3.6,2.7,4.8,4.7c0.6,1,0.8,2.1,0.6,3.2c-0.2,1.1-0.7,2.1-1.5,2.9c-2.3,1.7-5.8,0-8.3,1.5
		c-1.2,0.5-2.1,1.6-3.3,1.9c-1.3,0.1-2.6-0.2-3.7-1c-5.2-2.8-9.8-6.5-13.7-10.9c-3.1-1-4.8,4.4-8,4.4c-1.5,0-2.9-1.2-4.4-1.1
		c-1.5,0.1-2,1-3.1,1.1s-3.4-1.7-4.9-2.9c-4.2-3.3-10.4-1.4-15.7-2.3c-1.6-0.2-3.1-1-4.1-2.2c-2.2-3,0.5-6.8,3.1-9.7
		s5.5-6.9,3.6-9.7c-1-1.6-3.1-2.7-3.1-4.6c-0.1-1.9,1.5-2.9,2.9-3.9c3.8-2.8,7-6.3,9.3-10.4c0.8-1.2,1.3-2.5,1.5-4
		c-0.1-2-0.5-3.9-1.2-5.8c-0.3-0.9-0.4-1.9-0.1-2.9c0.3-1,0.9-1.8,1.6-2.4c0.8-0.4,1.8-0.4,2.7-0.8c1-0.4,1.8-1.2,2.3-2.1
		c0.6-0.9,0.9-1.9,0.9-3c0-2-0.4-4-1-5.9c-1.1-5-1.2-10.2-0.3-15.3c1.2-4,1.5-8.2,0.8-12.3"/>
	<path class="st1" d="M503.8,1935.8c-1.8-6.8-8.4-12.7-8-19.9c0-4.7,3.4-9,2.7-13.7c-0.5-3.6-3.5-6.8-3.1-10.3s5.9-6.8,8.8-10.3
		c5.3-6.4,2.5-15.8,2.3-24c-0.1-4.7,0.7-9.4,2.5-13.7c0.4-0.8,0.7-1.7,0.7-2.6c0-2.2-2.9-3.1-4-4.9c-1.2-1.9,0.5-6.8,3.6-7.7
		c3.2-0.7,6.6-0.4,9.6,0.9c-0.9,2.4-2.6,4.4-4.9,5.7c3.4,2,7.3,2.8,11.2,2.4c3.9-0.5,7.5-2.3,10.3-5c2.6-2.8,5.5-6.8,9.2-6
		c2.1,0.6,3.8,2.9,6,2.4s2.3-1.9,3.8-2.2c0.9-0.1,1.8,0.1,2.6,0.7c0.7,0.5,1.2,1.4,1.3,2.3c0.2,1.8-0.1,3.7-1,5.3
		c-1.7,4-4,7.7-6.8,11.1c3.3,2.7,6.8,5,10.6,6.8c3.5,2.4,6.2,7.2,3.9,10.8c-0.8,1.1-1.9,1.9-2.5,3.1c-1.7,3.5,2.3,6.8,5.1,9.7
		c3.2,3.2,5.2,7.3,5.7,11.8c0.2,0.7,0.2,1.5,0,2.2c-0.1,0.7-0.4,1.4-0.9,2c-1,0.9-2.2,1.5-3.5,1.6l-11.5,2.8
		c-3.8,0.4-7.3,2.3-9.6,5.3c-0.9,1.6-1.1,3.5-0.7,5.3c0.4,1.8,1.5,3.3,3.1,4.3c-2.1,0.6-4.7,1.8-4.5,4c0,3.6,6.8,3.1,7.7,6.8
		c-4.3,0.7-8.4,2.1-12.2,4.2c-3.4,2.5-5,8.3-1.6,11.1c3.4,2.7,8.3,1,11,4c2.6,2.9,1.4,5.1,3.1,6.8c1.2,1.1,2.7,1.9,4.2,2.4
		c3.3,1.5,6.1,3.9,8.1,6.8c1,1.2,1.5,2.6,1.5,4.2c0,3.2-4,5-6.8,4.3c-3-1-5.7-2.8-7.7-5.3c-1.4,1.2-3,2-4.7,2.6
		c-1.7,0.5-3.5,0.7-5.3,0.6c-1.2,1.8,1.6,3.8,3.8,3.8c2.2-0.1,4.8-1,6.4,0.5c1.6,1.5,1,4.5,1.5,6.8c0.8,3.4,4,5.3,6.3,7.9
		s2.8,7.5-0.5,8.6c-1.1,4,7.2,4.4,7.9,8.5c0.1,0.5,0,1.1-0.1,1.6c-0.2,0.5-0.4,1-0.8,1.4c-0.4,0.4-0.8,0.7-1.3,0.9s-1,0.3-1.6,0.3
		c-0.9,0.1-1.9,0-2.8-0.3s-1.7-0.8-2.5-1.4c-1.3-1-2.8-2.4-4.4-2c-1.6,0.4-2.9,4.5-5.5,5.1c-0.8-1.2-1.3-2.6-1.4-4
		c-0.3-1.4-1.6-2.9-2.9-2.5c-0.5,0.2-1,0.6-1.3,1.1c-0.8,1.7-1.1,3.6-0.9,5.5c0.2,1.9,1,3.7,2.2,5.1c2.5,2.9,4.4,6.2,5.8,9.7
		c0.9,3.7-1.3,8.5-5.1,8.4c1.9,1.2,3.6,2.7,4.8,4.7c0.6,1,0.8,2.1,0.6,3.2c-0.2,1.1-0.7,2.1-1.5,2.9c-2.3,1.7-5.8,0-8.3,1.5
		c-1.2,0.5-2.1,1.6-3.3,1.9c-1.3,0.1-2.6-0.2-3.7-1c-5.2-2.8-9.8-6.5-13.7-10.9c-3.1-1-4.8,4.4-8,4.4c-1.5,0-2.9-1.2-4.4-1.1
		c-1.5,0.1-2,1-3.1,1.1s-3.4-1.7-4.9-2.9c-4.2-3.3-10.4-1.4-15.7-2.3c-1.6-0.2-3.1-1-4.1-2.2c-2.2-3,0.5-6.8,3.1-9.7
		s5.5-6.9,3.6-9.7c-1-1.6-3.1-2.7-3.1-4.6c-0.1-1.9,1.5-2.9,2.9-3.9c3.8-2.8,7-6.3,9.3-10.4c0.8-1.2,1.3-2.5,1.5-4
		c-0.1-2-0.5-3.9-1.2-5.8c-0.3-0.9-0.4-1.9-0.1-2.9c0.3-1,0.9-1.8,1.6-2.4c0.8-0.4,1.8-0.4,2.7-0.8c1-0.4,1.8-1.2,2.3-2.1
		c0.6-0.9,0.9-1.9,0.9-3c0-2-0.4-4-1-5.9c-1.1-5-1.2-10.2-0.3-15.3C504.1,1944.3,504.5,1940,503.8,1935.8L503.8,1935.8z"/>
	<path class="st3" d="M774.6,286.7c6.4,0,11.6-5.2,11.6-11.6s-5.2-11.6-11.6-11.6c-6.4,0-11.6,5.2-11.6,11.6
		C763.1,281.5,768.2,286.7,774.6,286.7z"/>
	<path class="st3" d="M807.9,362.8c6.4,0,11.6-5.2,11.6-11.6s-5.2-11.6-11.6-11.6c-6.4,0-11.6,5.2-11.6,11.6
		C796.3,357.6,801.5,362.8,807.9,362.8z"/>
	<path class="st3" d="M805.8,637c6.4,0,11.6-5.2,11.6-11.6s-5.2-11.6-11.6-11.6c-6.4,0-11.6,5.2-11.6,11.6
		C794.2,631.8,799.4,637,805.8,637z"/>
	<path class="st3" d="M824.6,640.4c6.4,0,11.6-5.2,11.6-11.6s-5.2-11.6-11.6-11.6c-6.4,0-11.6,5.2-11.6,11.6
		C813.1,635.3,818.3,640.4,824.6,640.4z"/>
	<path class="st3" d="M841.3,648.5c6.4,0,11.6-5.2,11.6-11.6s-5.2-11.6-11.6-11.6c-6.4,0-11.6,5.2-11.6,11.6
		C829.8,643.3,835,648.5,841.3,648.5z"/>
	<path class="st3" d="M865.8,723.9c6.4,0,11.6-5.2,11.6-11.6s-5.2-11.6-11.6-11.6c-6.4,0-11.6,5.2-11.6,11.6
		C854.3,718.7,859.5,723.9,865.8,723.9z"/>
	<path class="st3" d="M854.3,730.5c6.4,0,11.6-5.2,11.6-11.6c0-6.4-5.2-11.6-11.6-11.6c-6.4,0-11.6,5.2-11.6,11.6
		C842.7,725.3,847.9,730.5,854.3,730.5z"/>
	<path class="st3" d="M829.4,752.5c6.4,0,11.6-5.2,11.6-11.6c0-6.4-5.2-11.6-11.6-11.6c-6.4,0-11.6,5.2-11.6,11.6
		C817.8,747.4,823,752.5,829.4,752.5z"/>
	<path class="st3" d="M864.5,778.5c6.4,0,11.6-5.2,11.6-11.6s-5.2-11.6-11.6-11.6c-6.4,0-11.6,5.2-11.6,11.6
		S858.1,778.5,864.5,778.5z"/>
	<path class="st3" d="M779.9,728.9c6.4,0,11.6-5.2,11.6-11.6s-5.2-11.6-11.6-11.6c-6.4,0-11.6,5.2-11.6,11.6
		S773.5,728.9,779.9,728.9z"/>
	<path class="st3" d="M820.7,895.7c6.4,0,11.6-5.2,11.6-11.6s-5.2-11.6-11.6-11.6c-6.4,0-11.6,5.2-11.6,11.6
		S814.3,895.7,820.7,895.7z"/>
	<path class="st3" d="M795,890.9c6.4,0,11.6-5.2,11.6-11.6s-5.2-11.6-11.6-11.6c-6.4,0-11.6,5.2-11.6,11.6S788.6,890.9,795,890.9z"
		/>
	<path class="st3" d="M818.4,860.1c6.4,0,11.6-5.2,11.6-11.6c0-6.4-5.2-11.6-11.6-11.6c-6.4,0-11.6,5.2-11.6,11.6
		C806.9,854.9,812,860.1,818.4,860.1z"/>
	<path class="st3" d="M837,841.7c6.4,0,11.6-5.2,11.6-11.6c0-6.4-5.2-11.6-11.6-11.6c-6.4,0-11.6,5.2-11.6,11.6
		S830.6,841.7,837,841.7z"/>
	<path class="st3" d="M825.4,827.3c6.4,0,11.6-5.2,11.6-11.6c0-6.4-5.2-11.6-11.6-11.6c-6.4,0-11.6,5.2-11.6,11.6
		S819,827.3,825.4,827.3z"/>
	<path class="st3" d="M798.8,848.5c6.4,0,11.6-5.2,11.6-11.6c0-6.4-5.2-11.6-11.6-11.6c-6.4,0-11.6,5.2-11.6,11.6
		C787.3,843.3,792.5,848.5,798.8,848.5z"/>
	<path class="st3" d="M786.9,841.7c6.4,0,11.6-5.2,11.6-11.6c0-6.4-5.2-11.6-11.6-11.6c-6.4,0-11.6,5.2-11.6,11.6
		C775.4,836.5,780.5,841.7,786.9,841.7z"/>
	<path class="st3" d="M734,991.1c6.4,0,11.6-5.2,11.6-11.6s-5.2-11.6-11.6-11.6c-6.4,0-11.6,5.2-11.6,11.6S727.6,991.1,734,991.1z"
		/>
	<path class="st3" d="M697.1,972.6c6.4,0,11.6-5.2,11.6-11.6c0-6.4-5.2-11.6-11.6-11.6c-6.4,0-11.6,5.2-11.6,11.6
		C685.6,967.5,690.8,972.6,697.1,972.6z"/>
	<path class="st3" d="M732.9,965.8c6.4,0,11.6-5.2,11.6-11.6c0-6.4-5.2-11.6-11.6-11.6c-6.4,0-11.6,5.2-11.6,11.6
		S726.5,965.8,732.9,965.8z"/>
	<path class="st3" d="M758.9,952.1c6.4,0,11.6-5.2,11.6-11.6s-5.2-11.6-11.6-11.6c-6.4,0-11.6,5.2-11.6,11.6
		S752.5,952.1,758.9,952.1z"/>
	<path class="st3" d="M787.8,1019.1c6.4,0,11.6-5.2,11.6-11.6s-5.2-11.6-11.6-11.6c-6.4,0-11.6,5.2-11.6,11.6
		S781.4,1019.1,787.8,1019.1z"/>
	<path class="st3" d="M813.8,1026.6c6.4,0,11.6-5.2,11.6-11.6c0-6.4-5.2-11.6-11.6-11.6c-6.4,0-11.6,5.2-11.6,11.6
		C802.3,1021.4,807.4,1026.6,813.8,1026.6z"/>
	<path class="st3" d="M813.8,998.4c6.4,0,11.6-5.2,11.6-11.6c0-6.4-5.2-11.6-11.6-11.6c-6.4,0-11.6,5.2-11.6,11.6
		C802.3,993.3,807.4,998.4,813.8,998.4z"/>
	<path class="st3" d="M729.8,1297.5c6.4,0,11.6-5.2,11.6-11.6c0-6.4-5.2-11.6-11.6-11.6c-6.4,0-11.6,5.2-11.6,11.6
		C718.2,1292.3,723.4,1297.5,729.8,1297.5z"/>
	<path class="st3" d="M718.8,1203.3c6.4,0,11.6-5.2,11.6-11.6c0-6.4-5.2-11.6-11.6-11.6c-6.4,0-11.6,5.2-11.6,11.6
		C707.2,1198.2,712.4,1203.3,718.8,1203.3z"/>
	<path class="st3" d="M704.5,1203.3c6.4,0,11.6-5.2,11.6-11.6c0-6.4-5.2-11.6-11.6-11.6c-6.4,0-11.6,5.2-11.6,11.6
		C693,1198.2,698.1,1203.3,704.5,1203.3z"/>
	<path class="st3" d="M629.9,1172.4c6.4,0,11.6-5.2,11.6-11.6c0-6.4-5.2-11.6-11.6-11.6c-6.4,0-11.6,5.2-11.6,11.6
		S623.5,1172.4,629.9,1172.4z"/>
	<path class="st3" d="M653.1,1149.1c6.4,0,11.6-5.2,11.6-11.6s-5.2-11.6-11.6-11.6c-6.4,0-11.6,5.2-11.6,11.6
		S646.7,1149.1,653.1,1149.1z"/>
	<path class="st3" d="M665.6,1160.9c6.4,0,11.6-5.2,11.6-11.6c0-6.4-5.2-11.6-11.6-11.6c-6.4,0-11.6,5.2-11.6,11.6
		C654,1155.7,659.2,1160.9,665.6,1160.9z"/>
	<path class="st3" d="M734,1158.9c6.4,0,11.6-5.2,11.6-11.6s-5.2-11.6-11.6-11.6c-6.4,0-11.6,5.2-11.6,11.6S727.6,1158.9,734,1158.9
		z"/>
	<path class="st3" d="M656.7,1392c6.4,0,11.6-5.2,11.6-11.6c0-6.4-5.2-11.6-11.6-11.6s-11.6,5.2-11.6,11.6S650.3,1392,656.7,1392z"
		/>
	<path class="st3" d="M647,1540.2c6.4,0,11.6-5.2,11.6-11.6c0-6.4-5.2-11.6-11.6-11.6c-6.4,0-11.6,5.2-11.6,11.6
		C635.5,1535,640.7,1540.2,647,1540.2z"/>
	<path class="st3" d="M665.5,1638.1c6.4,0,11.6-5.2,11.6-11.6s-5.2-11.6-11.6-11.6c-6.4,0-11.6,5.2-11.6,11.6
		S659.1,1638.1,665.5,1638.1z"/>
	<path class="st3" d="M633.7,1660.8c6.4,0,11.6-5.2,11.6-11.6s-5.2-11.6-11.6-11.6c-6.4,0-11.6,5.2-11.6,11.6
		S627.3,1660.8,633.7,1660.8z"/>
	<path class="st3" d="M648.2,1705.5c6.4,0,11.6-5.2,11.6-11.6s-5.2-11.6-11.6-11.6c-6.4,0-11.6,5.2-11.6,11.6
		S641.8,1705.5,648.2,1705.5z"/>
	<path class="st3" d="M520.8,1929.8c6.4,0,11.6-5.2,11.6-11.6s-5.2-11.6-11.6-11.6c-6.4,0-11.6,5.2-11.6,11.6
		S514.4,1929.8,520.8,1929.8z"/>
	<path class="st4" d="M869.1,752.5c6.4,0,11.6-5.2,11.6-11.6c0-6.4-5.2-11.6-11.6-11.6c-6.4,0-11.6,5.2-11.6,11.6
		C857.5,747.4,862.7,752.5,869.1,752.5z"/>
	<polyline class="st5" points="962.5,191.2 807.9,191.2 807.9,351.2 	"/>
	<path class="st6" d="M1156.2,219.8H962.5c-1.9,0-3.4-1.5-3.4-3.4v-51.1c0-1.9,1.5-3.4,3.4-3.4h193.7c1.9,0,3.4,1.5,3.4,3.4v51.1
		C1159.6,218.3,1158.1,219.8,1156.2,219.8z"/>
	<polyline class="st5" points="620.2,104.5 774.9,104.5 774.9,275.1 	"/>
	<path class="st6" d="M424.7,134h193.7c1.9,0,3.4-1.5,3.4-3.4V79.5c0-1.9-1.5-3.4-3.4-3.4H424.7c-1.9,0-3.4,1.5-3.4,3.4v51.1
		C421.3,132.5,422.8,134,424.7,134z"/>
	<text transform="matrix(1 0 0 1 460.6069 111.9208)" class="st7 st8 st9">Puclaro - 2008</text>
	<text transform="matrix(1 0 0 1 987.4329 198.5057)" class="st7 st8 st9">Los Molles - 1952</text>
	<path class="st6" d="M396.4,223.2h193.7c1.9,0,3.4-1.5,3.4-3.4v-51.1c0-1.9-1.5-3.4-3.4-3.4H396.4c-1.9,0-3.4,1.5-3.4,3.4v51.1
		C393,221.7,394.5,223.2,396.4,223.2z"/>
	<path class="st6" d="M1155,503.5H961.3c-1.9,0-3.4-1.5-3.4-3.4V449c0-1.9,1.5-3.4,3.4-3.4H1155c1.9,0,3.4,1.5,3.4,3.4v51.1
		C1158.4,502,1156.9,503.5,1155,503.5z"/>
	<polyline class="st5" points="824.4,630.3 824.4,430.8 915.2,430.8 915.2,384.2 1016.9,384.2 	"/>
	<path class="st6" d="M1196.5,414.3h-193.6c-1.9,0-3.4-1.5-3.4-3.4v-51.1c0-1.9,1.5-3.4,3.4-3.4h193.7c1.9,0,3.4,1.5,3.4,3.4v51.1
		C1199.9,412.7,1198.4,414.3,1196.5,414.3z"/>
	<polyline class="st5" points="779.4,711.2 779.4,393.8 694.8,393.8 694.8,283.2 589.6,283.2 	"/>
	<path class="st6" d="M438.4,312.1h193.7c1.9,0,3.4-1.5,3.4-3.4v-51.1c0-1.9-1.5-3.4-3.4-3.4H438.4c-1.9,0-3.4,1.5-3.4,3.4v51.1
		C435,310.6,436.5,312.1,438.4,312.1z"/>
	<text transform="matrix(1 0 0 1 995.5779 482.2318)" class="st7 st8 st9">Hornitos - 2008</text>
	<text transform="matrix(1 0 0 1 1028.1223 392.9855)" class="st7 st8 st9">Los Quilos - 1943</text>
	<text transform="matrix(1 0 0 1 404.5254 201.0831)" class="st7 st8 st9">Chacabuquito - 2002</text>
	<text transform="matrix(1 0 0 1 459.3877 290.1759)" class="st7 st8 st9">Mallarauco - 2011</text>
	<path class="st6" d="M1258.4,593h-193.7c-1.9,0-3.4-1.5-3.4-3.4v-51.1c0-1.9,1.5-3.4,3.4-3.4h193.7c1.9,0,3.4,1.5,3.4,3.4v51.1
		C1261.8,591.5,1260.3,593,1258.4,593z"/>
	<text transform="matrix(1 0 0 1 1109.3025 571.7367)" class="st7 st8 st9">Alfalfal - 1991</text>
	<polyline class="st5" points="827.4,741.1 737.8,741.1 737.8,425.4 655.2,425.4 655.2,373.1 574.8,373.1 	"/>
	<path class="st6" d="M392.1,402.4h193.7c1.9,0,3.4-1.5,3.4-3.4v-51.1c0-1.9-1.5-3.4-3.4-3.4H392.1c-1.9,0-3.4,1.5-3.4,3.4V399
		C388.7,400.8,390.2,402.4,392.1,402.4z"/>
	<polyline class="st5" points="840.7,631.1 840.7,474.6 957.9,474.6 	"/>
	<polyline class="st5" points="866.1,705.7 866.1,564.2 1075.6,564.2 	"/>
	<path class="st6" d="M1168,682.7H974.3c-1.9,0-3.4-1.5-3.4-3.4v-51.1c0-1.9,1.5-3.4,3.4-3.4H1168c1.9,0,3.4,1.5,3.4,3.4v51.1
		C1171.4,681.1,1169.9,682.7,1168,682.7z"/>
	<text transform="matrix(1 0 0 1 1005.5383 661.4022)" class="st7 st8 st9">Maitenes - 1923</text>
	<path class="st6" d="M1295,769.8h-193.7c-1.9,0-3.4-1.5-3.4-3.4v-51.1c0-1.9,1.5-3.4,3.4-3.4H1295c1.9,0,3.4,1.5,3.4,3.4v51.1
		C1298.3,768.3,1296.8,769.8,1295,769.8z"/>
	<polyline class="st5" points="853.7,723.3 853.7,653.7 971,653.7 	"/>
	<text transform="matrix(1 0 0 1 420.1245 379.5553)" class="st7 st8 st9">Guayacn - 2010</text>
	<text transform="matrix(1 0 0 1 1146.2964 747.7972)" class="st7 st8 st9">Volcn - 1949</text>
	<polyline class="st5" points="814.4,1015.6 814.4,1093.2 910.7,1093.2 910.7,1203.2 1122.7,1203.2 	"/>
	<path class="st6" d="M1286.7,1233.1H1093c-1.9,0-3.4-1.5-3.4-3.4v-51.1c0-1.9,1.5-3.4,3.4-3.4h193.7c1.9,0,3.4,1.5,3.4,3.4v51.1
		C1290.1,1231.6,1288.6,1233.1,1286.7,1233.1z"/>
	<path class="st6" d="M1123.4,1420.8H929.7c-1.9,0-3.4-1.5-3.4-3.4v-51.1c0-1.9,1.5-3.4,3.4-3.4h193.7c1.9,0,3.4,1.5,3.4,3.4v51.1
		C1126.8,1419.3,1125.3,1420.8,1123.4,1420.8z"/>
	<path class="st6" d="M1219.7,1140.4H1026c-1.9,0-3.4-1.5-3.4-3.4v-51c0-1.9,1.5-3.4,3.4-3.4h193.7c1.9,0,3.4,1.5,3.4,3.4v51.1
		C1223.1,1138.9,1221.6,1140.4,1219.7,1140.4z"/>
	<path class="st6" d="M1086.1,1612.3H892.4c-1.9,0-3.4-1.5-3.4-3.4v-51.1c0-1.9,1.5-3.4,3.4-3.4h193.7c1.9,0,3.4,1.5,3.4,3.4v51.1
		C1089.5,1610.8,1088,1612.3,1086.1,1612.3z"/>
	<polyline class="st5" points="646.3,1539.3 646.3,1591.1 736,1591.1 736,1680.8 811.5,1680.8 	"/>
	<path class="st6" d="M998.4,1708.2H804.7c-1.9,0-3.4-1.5-3.4-3.4v-51.1c0-1.9,1.5-3.4,3.4-3.4h193.7c1.9,0,3.4,1.5,3.4,3.4v51.1
		C1001.8,1706.7,1000.2,1708.2,998.4,1708.2z"/>
	<polyline class="st5" points="648.7,1693.9 648.7,1876.5 827.9,1876.5 	"/>
	<path class="st6" d="M991,1903.4H797.3c-1.9,0-3.4-1.5-3.4-3.4v-51.1c0-1.9,1.5-3.4,3.4-3.4H991c1.9,0,3.4,1.5,3.4,3.4v51.1
		C994.4,1901.8,992.9,1903.4,991,1903.4z"/>
	<path class="st6" d="M216.3,1634.9h193.6c1.9,0,3.4-1.5,3.4-3.4v-51.1c0-1.9-1.5-3.4-3.4-3.4H216.2c-1.9,0-3.4,1.5-3.4,3.4v51.1
		C212.9,1633.4,214.4,1634.9,216.3,1634.9z"/>
	<line class="st5" x1="397.8" y1="1918.6" x2="520.4" y2="1918.6"/>
	<path class="st6" d="M212.3,1948.2H406c1.9,0,3.4-1.5,3.4-3.4v-51.1c0-1.9-1.5-3.4-3.4-3.4H212.3c-1.9,0-3.4,1.5-3.4,3.4v51.1
		C208.9,1946.7,210.4,1948.2,212.3,1948.2z"/>
	<path class="st6" d="M193.6,1541.2h193.7c1.9,0,3.4-1.5,3.4-3.4v-51.1c0-1.9-1.5-3.4-3.4-3.4H193.6c-1.9,0-3.4,1.5-3.4,3.4v51.1
		C190.2,1539.7,191.7,1541.2,193.6,1541.2z"/>
	<path class="st6" d="M246.3,1453.3h193.6c1.9,0,3.4-1.5,3.4-3.4v-51.1c0-1.9-1.5-3.4-3.4-3.4H246.2c-1.9,0-3.4,1.5-3.4,3.4v51.1
		C242.9,1451.7,244.4,1453.3,246.3,1453.3z"/>
	<line class="st5" x1="836.4" y1="830.7" x2="1039" y2="830.7"/>
	<path class="st6" d="M1230.4,859.6h-193.7c-1.9,0-3.4-1.5-3.4-3.4v-51.1c0-1.9,1.5-3.4,3.4-3.4h193.7c1.9,0,3.4,1.5,3.4,3.4v51.1
		C1233.8,858.1,1232.3,859.6,1230.4,859.6z"/>
	<polyline class="st5" points="493.1,463.1 711.9,463.1 711.9,787.3 824.5,787.3 824.5,814 	"/>
	<path class="st6" d="M310.4,492h193.7c1.9,0,3.4-1.5,3.4-3.4v-51.1c0-1.9-1.5-3.4-3.4-3.4H310.4c-1.9,0-3.4,1.5-3.4,3.4v51.1
		C307,490.5,308.5,492,310.4,492z"/>
	<polyline class="st5" points="666.3,1627.5 666.3,1779.1 925.5,1779.1 	"/>
	<path class="st6" d="M1098.5,1806H904.9c-1.9,0-3.4-1.5-3.4-3.4v-51.1c0-1.9,1.5-3.4,3.4-3.4h193.7c1.9,0,3.4,1.5,3.4,3.4v51.1
		C1101.9,1804.5,1100.4,1806,1098.5,1806z"/>
	<polyline class="st5" points="720.4,1193.4 720.4,1245.2 810,1245.2 810,1484.9 1001.5,1484.9 	"/>
	<path class="st6" d="M1181.6,1513.8H987.9c-1.9,0-3.4-1.5-3.4-3.4v-51.1c0-1.9,1.5-3.4,3.4-3.4h193.7c1.9,0,3.4,1.5,3.4,3.4v51.1
		C1185,1512.3,1183.5,1513.8,1181.6,1513.8z"/>
	<polyline class="st5" points="733.9,1151.3 733.9,1173.2 843.5,1173.2 843.5,1392.9 1009.1,1392.9 	"/>
	<polyline class="st5" points="787.4,1009.5 787.4,1137 876.7,1137 876.7,1298.4 1062.7,1298.4 	"/>
	<path class="st6" d="M1185.9,1326.3H992.2c-1.9,0-3.4-1.5-3.4-3.4v-51.1c0-1.9,1.5-3.4,3.4-3.4h193.7c1.9,0,3.4,1.5,3.4,3.4v51.1
		C1189.3,1324.8,1187.8,1326.3,1185.9,1326.3z"/>
	<polyline class="st5" points="799.3,837.6 799.3,860.1 653.7,860.1 653.7,637.4 511.1,637.4 	"/>
	<path class="st6" d="M321.6,666.3h193.7c1.9,0,3.4-1.5,3.4-3.4v-51.1c0-1.9-1.5-3.4-3.4-3.4H321.6c-1.9,0-3.4,1.5-3.4,3.4v51.1
		C318.2,664.8,319.7,666.3,321.6,666.3z"/>
	<polyline class="st5" points="864.5,766.9 1016.1,766.9 1016.1,741.1 1099.3,741.1 	"/>
	<polyline class="st5" points="729.8,1284.3 729.8,1536.4 774.1,1536.4 774.1,1583.4 892.9,1583.4 	"/>
	<polyline class="st5" points="812.3,986.9 863.4,986.9 863.4,1040.9 938.1,1040.9 938.1,1112.6 1029.1,1112.6 	"/>
	<polyline class="st5" points="818.4,848.5 906.4,848.5 906.4,919.2 1081.8,919.2 	"/>
	<path class="st6" d="M1268.9,954.1h-193.7c-1.9,0-3.4-1.5-3.4-3.4v-51.1c0-1.9,1.5-3.4,3.4-3.4h193.7c1.9,0,3.4,1.5,3.4,3.4v51.1
		C1272.2,952.6,1270.7,954.1,1268.9,954.1z"/>
	<polyline class="st5" points="820.7,884.1 820.7,957.1 977.5,957.1 977.5,1018.6 1108.1,1018.6 	"/>
	<path class="st6" d="M1302.8,1045.8h-193.7c-1.9,0-3.4-1.5-3.4-3.4v-51.1c0-1.9,1.5-3.4,3.4-3.4h193.7c1.9,0,3.4,1.5,3.4,3.4v51.1
		C1306.2,1044.3,1304.7,1045.8,1302.8,1045.8z"/>
	<polyline class="st5" points="707.2,1193.8 707.2,1426.7 393.1,1426.7 	"/>
	<path class="st6" d="M153.2,1356.8h193.7c1.9,0,3.4-1.5,3.4-3.4v-51.1c0-1.9-1.5-3.4-3.4-3.4H153.2c-1.9,0-3.4,1.5-3.4,3.4v51.1
		C149.8,1355.2,151.3,1356.8,153.2,1356.8z"/>
	<polyline class="st5" points="805.8,618.4 805.8,366 727,366 727,192.8 589.6,192.8 	"/>
	<polyline class="st5" points="784.9,830.7 672.3,830.7 672.3,550.5 563.5,550.5 	"/>
	<path class="st6" d="M396.4,578.4h193.7c1.9,0,3.4-1.5,3.4-3.4v-51c0-1.9-1.5-3.4-3.4-3.4H396.4c-1.9,0-3.4,1.5-3.4,3.4v51.1
		C393,576.9,394.5,578.4,396.4,578.4z"/>
	<polyline class="st5" points="795,881.4 634,881.4 634,724.7 574.8,724.7 	"/>
	<path class="st6" d="M386.7,754.4h193.7c1.9,0,3.4-1.5,3.4-3.4v-51c0-1.9-1.5-3.4-3.4-3.4H386.7c-1.9,0-3.4,1.5-3.4,3.4v51.1
		C383.3,752.9,384.8,754.4,386.7,754.4z"/>
	<polyline class="st5" points="758.9,943.6 758.9,902.3 563.5,902.3 563.5,811.7 443.1,811.7 	"/>
	<path class="st6" d="M257.1,840.6h193.7c1.9,0,3.4-1.5,3.4-3.4v-51.1c0-1.9-1.5-3.4-3.4-3.4H257.1c-1.9,0-3.4,1.5-3.4,3.4v51.1
		C253.7,839,255.2,840.6,257.1,840.6z"/>
	<polyline class="st5" points="732.9,954.2 732.9,923 526.3,923 526.3,895.7 441.9,895.7 	"/>
	<path class="st6" d="M291.4,924.9h193.7c1.9,0,3.4-1.5,3.4-3.4v-51.1c0-1.9-1.5-3.4-3.4-3.4H291.4c-1.9,0-3.4,1.5-3.4,3.4v51.1
		C288.1,923.4,289.6,924.9,291.4,924.9z"/>
	<polyline class="st5" points="697.1,961.1 489.4,961.1 489.4,977.5 424.5,977.5 	"/>
	<path class="st6" d="M234.8,1009.5h193.7c1.9,0,3.4-1.5,3.4-3.4V955c0-1.9-1.5-3.4-3.4-3.4H234.8c-1.9,0-3.4,1.5-3.4,3.4v51.1
		C231.4,1007.9,232.9,1009.5,234.8,1009.5z"/>
	<polyline class="st5" points="734,981.5 734,1064.8 549.3,1064.8 	"/>
	<path class="st6" d="M359.4,1093.7h193.7c1.9,0,3.4-1.5,3.4-3.4v-51.1c0-1.9-1.5-3.4-3.4-3.4H359.4c-1.9,0-3.4,1.5-3.4,3.4v51.1
		C356,1092.2,357.5,1093.7,359.4,1093.7z"/>
	<line class="st5" x1="652.6" y1="1137.5" x2="399.6" y2="1137.5"/>
	<path class="st6" d="M209.9,1166.4h193.7c1.9,0,3.4-1.5,3.4-3.4v-51c0-1.9-1.5-3.4-3.4-3.4H209.9c-1.9,0-3.4,1.5-3.4,3.4v51.1
		C206.5,1164.9,208,1166.4,209.9,1166.4z"/>
	<polyline class="st5" points="629.9,1161.9 629.9,1203.2 492.2,1203.2 492.2,1235.7 424.5,1235.7 	"/>
	<path class="st6" d="M246.8,1263.6h193.7c1.9,0,3.4-1.5,3.4-3.4v-51.1c0-1.9-1.5-3.4-3.4-3.4H246.8c-1.9,0-3.4,1.5-3.4,3.4v51.1
		C243.4,1262.1,244.9,1263.6,246.8,1263.6z"/>
	<polyline class="st5" points="665.5,1149.3 665.5,1327.8 349.7,1327.8 	"/>
	<polyline class="st5" points="656.7,1380.4 656.7,1460.5 507.6,1460.5 507.6,1512.3 373.3,1512.3 	"/>
	<polyline class="st5" points="633.7,1650.3 584.3,1650.3 584.3,1606 373.3,1606 	"/>
	<text transform="matrix(1 0 0 1 360.8677 469.208)" class="st7 st8 st9">Coya - 1911</text>
	<text transform="matrix(1 0 0 1 430.353 556.6295)" class="st7 st8 st9">Sauzalito - 1959</text>
	<text transform="matrix(1 0 0 1 1080.7605 837.5916)" class="st7 st8 st9">Pangal - 1921</text>
	<text transform="matrix(1 0 0 1 362.5181 643.4926)" class="st7 st8 st9">Sauzal - 1948</text>
	<text transform="matrix(1 0 0 1 1109.3025 932.0488)" class="st7 st8 st9">Chacayes - 2011</text>
	<text transform="matrix(1 0 0 1 1115.2292 1023.7656)" class="st7 st8 st9">La Confluencia - 2010</text>
	<text transform="matrix(1 0 0 1 409.7563 731.6007)" class="st7 st8 st9">La Higuera - 2010</text>
	<text transform="matrix(1 0 0 1 255.6621 986.8337)" class="st7 st8 st9">San Ignacio - 1996</text>
	<text transform="matrix(1 0 0 1 388.2266 1070.937)" class="st7 st8 st9">Chiburgo - 2007</text>
	<text transform="matrix(1 0 0 1 301.5762 901.5825)" class="st7 st8 st9">San Clemente - 2010</text>
	<text transform="matrix(1 0 0 1 305.5762 816.9934)" class="st7 st8 st9">Lircay- 2008</text>
	<text transform="matrix(1 0 0 1 1018.6282 1304.2358)" class="st7 st8 st9">Curilinque - 1993</text>
	<text transform="matrix(1 0 0 1 1151.2349 1211.0383)" class="st7 st8 st9">Isla - 1963</text>
	<text transform="matrix(1 0 0 1 1038.5002 1118.3982)" class="st7 st8 st9">Ojos de Agua - 2008</text>
	<text transform="matrix(1 0 0 1 1019.0007 1491.7952)" class="st7 st8 st9">Peuchn - 2000</text>
	<text transform="matrix(1 0 0 1 284.1372 1431.6785)" class="st7 st8 st9">Mampil - 2000</text>
	<text transform="matrix(1 0 0 1 920.2117 1590.2998)" class="st7 st8 st9">Palmucho - 2007</text>
	<text transform="matrix(1 0 0 1 284.1372 1242.0466)" class="st7 st8 st9">El Diuto - 2011</text>
	<text transform="matrix(1 0 0 1 242.9609 1143.6057)" class="st7 st8 st9">Quilleco - 2007</text>
	<text transform="matrix(1 0 0 1 199.3892 1335.1736)" class="st7 st8 st9">Rice - 1998</text>
	<text transform="matrix(1 0 0 1 965.2009 1398.7502)" class="st7 st8 st9">Abanico - 1948</text>
	<text transform="matrix(1 0 0 1 232.2549 1519.634)" class="st7 st8 st9">Trueno - 2010</text>
	<text transform="matrix(1 0 0 1 833.2209 1686.136)" class="st7 st8 st9">Pullinque - 1962</text>
	<text transform="matrix(1 0 0 1 956.5618 1785.1431)" class="st7 st8 st9">Licn - 2011</text>
	<text transform="matrix(1 0 0 1 237.917 1612.0933)" class="st7 st8 st9">Pilmaiqun - 1944</text>
	<text transform="matrix(1 0 0 1 835.8235 1881.3296)" class="st7 st8 st9">Capullo - 1995</text>
	<text transform="matrix(1 0 0 1 255.6621 1925.3721)" class="st7 st8 st9">Dongo - 2011</text>
</g>
</svg>
