<?xml version="1.0" encoding="utf-8"?>
<!-- Generator: Adobe Illustrator 22.1.0, SVG Export Plug-In . SVG Version: 6.00 Build 0)  -->
<svg version="1.1" id="Layer_1" xmlns="http://www.w3.org/2000/svg" xmlns:xlink="http://www.w3.org/1999/xlink" x="0px" y="0px"
	 viewBox="0 0 1207.1 2196.2" style="enable-background:new 0 0 1207.1 2196.2;" xml:space="preserve">
<style type="text/css">
	.st0{fill:#00616C;}
	.st1{fill:none;stroke:#FFFFFF;stroke-width:0.6206;stroke-linecap:round;stroke-linejoin:round;}
	.st2{fill:none;stroke:#FFFFFF;stroke-width:0.6206;stroke-miterlimit:10;}
	.st3{fill:#EA7903;stroke:#FFFFFF;stroke-miterlimit:10;}
	.st4{fill:#E01D14;stroke:#FFFFFF;stroke-miterlimit:10;}
	.st5{fill:none;stroke:#EA7903;stroke-width:1.655;stroke-linecap:round;stroke-linejoin:round;stroke-miterlimit:10;}
	.st6{fill:#EA7903;}
	.st7{fill:#FFFFFF;}
	.st8{font-family:'OpenSans-Regular';}
	.st9{font-size:18.3368px;}
</style>
<g>
	<path class="st0" d="M769,290.8c0,1.6-2.1,2.4-3.1,3.6c-1.4,2.2-2.1,4.8-2,7.5c-0.7,4.6-3.1,8.7-6.8,11.6c-1.1,1-2.4,1.6-3.8,1.9
		c-1.4,0.3-2.9,0.1-4.2-0.5c-1.8-1-2.7-3.2-4.3-4.5c-0.8-0.5-1.6-0.9-2.5-1.1s-1.8-0.2-2.7,0s-1.7,0.5-2.5,1s-1.4,1.2-1.9,1.9
		c-0.9,1.6-1.1,3.5-0.6,5.3s1.7,3.3,3.2,4.2c0.7,0.4,1.6,1,1.3,1.7c-0.2,0.3-0.5,0.6-0.8,0.8c-2.3,0.9-4.4,2-6.4,3.4
		c-1,0.7-1.8,1.7-2.2,2.8s-0.5,2.4-0.1,3.6c1.8,4.4-3.4,9-4.8,13.7c-1.4,4.7,0,8-1.3,11.8c-0.5,1.8-1.2,3.5-1.9,5.3
		c-2.5,6.8-1,15.7-5.3,21.8c-0.5,0.6-1,1.3-1.2,2.1c-1,3.4,4.4,5.9,3.8,9.4c-0.2,0.8-0.6,1.6-1.2,2.3l-5.1,6.8
		c-0.2,0.3-0.4,0.5-0.7,0.7c-0.8,0.5-1.9,0-2.6-0.7c-0.7-0.7-1.2-1.6-2.1-2c-0.8-0.2-1.7-0.1-2.5,0.2c-0.8,0.3-1.5,0.8-2,1.5
		c-4.2,4.4-6.9,10.1-7.5,16.2c0,2.9,0,5.8-0.8,8.5c-0.7,2-1,4.2-1,6.3c0,0.8,0.5,1.6,0.6,2.5c0.1,2.2-0.2,4.4-1,6.5
		c-2.1,10.2-2.5,20.7-1.2,31c2-0.9,3.6,1.4,4.1,3.4s0.8,4.4,2.5,5.7c1.7,1.3,1.7,0.8,2.5,1.2c2.6,1.7,2.4,5.5,1.5,8.5
		c-0.9,2.9-1.9,6.4,0,9s5.7,3.1,8.8,4.5c3,1.4,5.3,4.2,8.6,4.9c3.2,0.8,6.4,0,7.7,2.5c0.3,1,0.3,2.1,0.1,3.1s-0.7,2-1.4,2.7
		c-0.2,0.5-0.5,0.9-1,1.1c-0.6,0.2-1.2,0.2-1.7,0c-1.4-0.9-3.1-1.4-4.8-1.4c-1.7-0.1-3.4,0.3-4.9,1.1c-1.2,1.1-2,2.7-2.2,4.3
		c-0.2,1.7,0.3,3.3,1.2,4.7c1.2,1.6,2.9,2.8,4.2,4.4c1,1.3,1.8,2.8,2.5,4.4c1.2,2.4,2,4.9,2.3,7.6c0,1.7,0,3.5,0,5.1
		s0.2,3.1,0.7,4.6c-8.6-0.7-16.8-3.8-23.7-8.8c-5.5-4.9-11.4-9.5-17.5-13.7c-4.8-2.6-10.2-3.9-15.7-3.7s-10.8,1.8-15.4,4.7
		c-6,3.8-10.5,9.6-16.4,13.7c-10.4,5.8-22.7,7.3-34.2,4.1c-0.8-1.4-1-3-0.8-4.5c0.6-2.7,0.9-5.5,0.6-8.3c-0.6-2.5-2.6-4.9-2.2-7.5
		c0.4-1.3,1-2.6,1.8-3.8c0.8-2.1,1.2-4.4,1-6.7c-0.1-2.3-0.8-4.5-1.9-6.5c-0.4-0.9-0.7-1.8-0.8-2.8c0-2.4,1.9-4.2,2.7-6.5
		c0.6-2.5,0.3-5.1-0.7-7.4c-0.6-2.4-1.5-4.7-2.6-6.8c-0.7-1.2-1.4-2.4-2-3.6c-1.4-3.8,0.6-8.2-0.5-12c-0.8-2.3-2.6-4.2-3.3-6.8
		c-0.3-1.7-0.5-3.5-0.5-5.3c-0.5-2.4-1.2-4.7-2.3-6.8c-1.8-4.6-2.8-9.5-3-14.4c1.3-1.4,2-3.1,2.2-5c0.1-1.9-0.4-3.7-1.4-5.2
		c-1.7-2.9-5.1-4.9-6-8.1c-0.1-2.6,0.1-5.1,0.6-7.7c-0.1-1.9-0.3-3.8-0.6-5.7c0-2.8,0.3-5.7,0.8-8.5c0.4-7.3-0.7-14.6-3.1-21.5
		c-1.5-3.9-2.3-8.1-2.5-12.3c0.8-4.4,1-8.8,0.5-13.2c-0.4-1.1-0.8-2.3-1.1-3.5c-0.1-1.1-0.1-2.2,0-3.4c1.5-12.5-1-25.6,2.7-37.6
		c1.9,1.3,4.1,2.2,6.3,2.5c2.3,0.4,4.6,0.3,6.8-0.3c2.1-1.1,3.9-2.8,5.2-4.8s2-4.4,2.1-6.8c0-0.7,0.2-1.3,0.6-1.9
		c0.6-0.6,1.4-0.9,2.2-1.1c2-0.6,3.8-1.7,5.3-3.1s2.8-3.1,3.6-4.9c0.9-1.9,1.3-3.9,1.3-6s-0.4-4.1-1.2-6c-1-1.7-1.6-3.6-1.8-5.6
		c0.2-1.2,0.8-2.3,1.5-3.2c0.7-0.9,1.7-1.7,2.8-2.2c2.2-1,4.1-2.4,5.7-4.2c1.1-2.1,1.5-4.5,1.4-6.8c0-2.9,0-5.8,0-8.8
		c0.2-1.6-0.1-3.1-0.9-4.5c-1-1.2-2.7-1.8-3.7-2.9c-1-1.5-1.4-3.2-1.2-5c-0.3-3.1,0.3-6.1,1.6-8.9c1-1.7,2.6-3,3.5-4.8
		c0.8-1.8,0.9-3.8,0.2-5.6s-2-3.3-3.7-4.2c-2.3-4.9,1.2-11.8-0.5-16.9c-0.8-1.6-1.5-3.2-2.1-4.9c-0.7-2.9,0.6-6,0-8.8
		s-4.7-5.3-7.9-7.3c-2.6-1.8-4.9-3.9-6.8-6.2c-0.9-1-1.5-2.2-1.8-3.4c-0.5-2.5,1.1-4.9,1.7-7.4c4.9,0,9.7,1.4,13.7,4.2
		s7.2,6.7,8.9,11.2c0.9,4.5,2.7,8.7,5.1,12.5c6,6.8,17.2,3.2,23.7-2.9s11.3-14.3,19.5-17.9c10.1-4.5,21.9,0,32.2,3.8
		c2.2,0.8,4.3,2,6,3.6c3.9,4.3,2.5,11.6,6.4,16.1c3.8,4.4,12.8,3.5,18.7,6.8c5.9,3.4,7.6,9.6,12,13.7c3.6,3.4,8.2,5.3,13.1,5.5
		c0,0.3,0,0.8,0,1.1c-0.3,2.5-0.1,5,0.7,7.4c0.3,1.2,0.9,2.3,1.8,3.3c0.8,1,1.8,1.8,3,2.3c1,0.4,2.1,0.6,3,1.1
		c0.5,0.2,0.9,0.6,1.2,1.1s0.4,1,0.3,1.5c-0.3,0.6-0.7,1.2-1.2,1.7c-1.2,1.3-1.9,3-2.1,4.7c-0.2,1.8,0.2,3.5,1.1,5.1
		c-1.3,8.8-3.2,17.6-5.4,26.2c-0.2,1-0.5,1.9-1,2.7c-0.5,0.8-1.2,1.3-1.7,2.1c-1.6,2.2-0.5,5.2,0.4,7.7c0.3,0.9,0.8,1.7,1.5,2.3
		c0.6,0.4,1.4,0.5,2.1,0.5c1.9-0.3,3.8-0.4,5.7-0.5c1.8,0,3.8,1.8,3.5,3.6"/>
	<path class="st1" d="M769,290.8c0,1.6-2.1,2.4-3.1,3.6c-1.4,2.2-2.1,4.8-2,7.5c-0.7,4.6-3.1,8.7-6.8,11.6c-1.1,1-2.4,1.6-3.8,1.9
		c-1.4,0.3-2.9,0.1-4.2-0.5c-1.8-1-2.7-3.2-4.3-4.5c-0.8-0.5-1.6-0.9-2.5-1.1s-1.8-0.2-2.7,0s-1.7,0.5-2.5,1s-1.4,1.2-1.9,1.9
		c-0.9,1.6-1.1,3.5-0.6,5.3s1.7,3.3,3.2,4.2c0.7,0.4,1.6,1,1.3,1.7c-0.2,0.3-0.5,0.6-0.8,0.8c-2.3,0.9-4.4,2-6.4,3.4
		c-1,0.7-1.8,1.7-2.2,2.8s-0.5,2.4-0.1,3.6c1.8,4.4-3.4,9-4.8,13.7c-1.4,4.7,0,8-1.3,11.8c-0.5,1.8-1.2,3.5-1.9,5.3
		c-2.5,6.8-1,15.7-5.3,21.8c-0.5,0.6-1,1.3-1.2,2.1c-1,3.4,4.4,5.9,3.8,9.4c-0.2,0.8-0.6,1.6-1.2,2.3l-5.1,6.8
		c-0.2,0.3-0.4,0.5-0.7,0.7c-0.8,0.5-1.9,0-2.6-0.7c-0.7-0.7-1.2-1.6-2.1-2c-0.8-0.2-1.7-0.1-2.5,0.2c-0.8,0.3-1.5,0.8-2,1.5
		c-4.2,4.4-6.9,10.1-7.5,16.2c0,2.9,0,5.8-0.8,8.5c-0.7,2-1,4.2-1,6.3c0,0.8,0.5,1.6,0.6,2.5c0.1,2.2-0.2,4.4-1,6.5
		c-2.1,10.2-2.5,20.7-1.2,31c2-0.9,3.6,1.4,4.1,3.4s0.8,4.4,2.5,5.7c1.7,1.3,1.7,0.8,2.5,1.2c2.6,1.7,2.4,5.5,1.5,8.5
		c-0.9,2.9-1.9,6.4,0,9s5.7,3.1,8.8,4.5c3,1.4,5.3,4.2,8.6,4.9c3.2,0.8,6.4,0,7.7,2.5c0.3,1,0.3,2.1,0.1,3.1s-0.7,2-1.4,2.7
		c-0.2,0.5-0.5,0.9-1,1.1c-0.6,0.2-1.2,0.2-1.7,0c-1.4-0.9-3.1-1.4-4.8-1.4c-1.7-0.1-3.4,0.3-4.9,1.1c-1.2,1.1-2,2.7-2.2,4.3
		c-0.2,1.7,0.3,3.3,1.2,4.7c1.2,1.6,2.9,2.8,4.2,4.4c1,1.3,1.8,2.8,2.5,4.4c1.2,2.4,2,4.9,2.3,7.6c0,1.7,0,3.5,0,5.1
		s0.2,3.1,0.7,4.6c-8.6-0.7-16.8-3.8-23.7-8.8c-5.5-4.9-11.4-9.5-17.5-13.7c-4.8-2.6-10.2-3.9-15.7-3.7s-10.8,1.8-15.4,4.7
		c-6,3.8-10.5,9.6-16.4,13.7c-10.4,5.8-22.7,7.3-34.2,4.1c-0.8-1.4-1-3-0.8-4.5c0.6-2.7,0.9-5.5,0.6-8.3c-0.6-2.5-2.6-4.9-2.2-7.5
		c0.4-1.3,1-2.6,1.8-3.8c0.8-2.1,1.2-4.4,1-6.7c-0.1-2.3-0.8-4.5-1.9-6.5c-0.4-0.9-0.7-1.8-0.8-2.8c0-2.4,1.9-4.2,2.7-6.5
		c0.6-2.5,0.3-5.1-0.7-7.4c-0.6-2.4-1.5-4.7-2.6-6.8c-0.7-1.2-1.4-2.4-2-3.6c-1.4-3.8,0.6-8.2-0.5-12c-0.8-2.3-2.6-4.2-3.3-6.8
		c-0.3-1.7-0.5-3.5-0.5-5.3c-0.5-2.4-1.2-4.7-2.3-6.8c-1.8-4.6-2.8-9.5-3-14.4c1.3-1.4,2-3.1,2.2-5c0.1-1.9-0.4-3.7-1.4-5.2
		c-1.7-2.9-5.1-4.9-6-8.1c-0.1-2.6,0.1-5.1,0.6-7.7c-0.1-1.9-0.3-3.8-0.6-5.7c0-2.8,0.3-5.7,0.8-8.5c0.4-7.3-0.7-14.6-3.1-21.5
		c-1.5-3.9-2.3-8.1-2.5-12.3c0.8-4.4,1-8.8,0.5-13.2c-0.4-1.1-0.8-2.3-1.1-3.5c-0.1-1.1-0.1-2.2,0-3.4c1.5-12.5-1-25.6,2.7-37.6
		c1.9,1.3,4.1,2.2,6.3,2.5c2.3,0.4,4.6,0.3,6.8-0.3c2.1-1.1,3.9-2.8,5.2-4.8s2-4.4,2.1-6.8c0-0.7,0.2-1.3,0.6-1.9
		c0.6-0.6,1.4-0.9,2.2-1.1c2-0.6,3.8-1.7,5.3-3.1s2.8-3.1,3.6-4.9c0.9-1.9,1.3-3.9,1.3-6s-0.4-4.1-1.2-6c-1-1.7-1.6-3.6-1.8-5.6
		c0.2-1.2,0.8-2.3,1.5-3.2c0.7-0.9,1.7-1.7,2.8-2.2c2.2-1,4.1-2.4,5.7-4.2c1.1-2.1,1.5-4.5,1.4-6.8c0-2.9,0-5.8,0-8.8
		c0.2-1.6-0.1-3.1-0.9-4.5c-1-1.2-2.7-1.8-3.7-2.9c-1-1.5-1.4-3.2-1.2-5c-0.3-3.1,0.3-6.1,1.6-8.9c1-1.7,2.6-3,3.5-4.8
		c0.8-1.8,0.9-3.8,0.2-5.6s-2-3.3-3.7-4.2c-2.3-4.9,1.2-11.8-0.5-16.9c-0.8-1.6-1.5-3.2-2.1-4.9c-0.7-2.9,0.6-6,0-8.8
		s-4.7-5.3-7.9-7.3c-2.6-1.8-4.9-3.9-6.8-6.2c-0.9-1-1.5-2.2-1.8-3.4c-0.5-2.5,1.1-4.9,1.7-7.4c4.9,0,9.7,1.4,13.7,4.2
		s7.2,6.7,8.9,11.2c0.9,4.5,2.7,8.7,5.1,12.5c6,6.8,17.2,3.2,23.7-2.9s11.3-14.3,19.5-17.9c10.1-4.5,21.9,0,32.2,3.8
		c2.2,0.8,4.3,2,6,3.6c3.9,4.3,2.5,11.6,6.4,16.1c3.8,4.4,12.8,3.5,18.7,6.8c5.9,3.4,7.6,9.6,12,13.7c3.6,3.4,8.2,5.3,13.1,5.5
		c0,0.3,0,0.8,0,1.1c-0.3,2.5-0.1,5,0.7,7.4c0.3,1.2,0.9,2.3,1.8,3.3c0.8,1,1.8,1.8,3,2.3c1,0.4,2.1,0.6,3,1.1
		c0.5,0.2,0.9,0.6,1.2,1.1s0.4,1,0.3,1.5c-0.3,0.6-0.7,1.2-1.2,1.7c-1.2,1.3-1.9,3-2.1,4.7c-0.2,1.8,0.2,3.5,1.1,5.1
		c-1.3,8.8-3.2,17.6-5.4,26.2c-0.2,1-0.5,1.9-1,2.7c-0.5,0.8-1.2,1.3-1.7,2.1c-1.6,2.2-0.5,5.2,0.4,7.7c0.3,0.9,0.8,1.7,1.5,2.3
		c0.6,0.4,1.4,0.5,2.1,0.5c1.9-0.3,3.8-0.4,5.7-0.5C767.4,287.4,769.4,288.9,769,290.8z"/>
	<path class="st0" d="M785.9,703.4c-0.7,0.4-1.5,0-2.3,0c-0.6-0.1-1.2,0.1-1.7,0.4s-0.9,0.8-1.1,1.4c-0.2,0.6-0.2,1.2,0,1.8
		s0.6,1.1,1.1,1.4s1.2,0.5,1.4,1.2c0.1,0.3,0.1,0.7,0,1c-1.4,6.3-3.7,12.3-6.8,17.9c-1.7,4.4-1.9,9.2-0.8,13.7
		c0.3,1.8,0.5,3.7,0.4,5.5c-0.4,4.2-3.9,8.2-2.3,12.2c0.4,0.8,0.8,1.6,1,2.4c0.7,2.7-2.2,5.6-0.9,8.1c0.7,1.2,2.3,1.9,2.5,3.4
		c0.2,1.4-0.9,2.3-1.6,3.4c-0.5,0.8-0.9,1.8-1,2.8s-0.1,2,0.2,2.9c0.3,1,0.8,1.8,1.5,2.6c0.7,0.7,1.5,1.3,2.4,1.7
		c1,0.4,2.1,0.6,2.7,1.4c0.2,0.6,0.4,1.2,0.4,1.8c0.1,2.4-0.4,4.7-1.4,6.8c-1.2,2.7-3.3,5.2-2.8,8.1c0.5,1.8,1.4,3.4,2.8,4.7
		c1.7,2,3.4,3.8,5.2,5.8c-2.7,2.9-8.1-0.3-11.2,2.1c-1.4,1-1.8,2.9-3.2,4.1c-1.4,1.2-3.6,1.3-5.4,2.1l-0.9,0.5
		c-5.9-7.7-13.8-13.5-22.9-16.8c-6.5-1.3-12.6-4.2-17.8-8.4c-3-3.4-4.2-8.1-6.8-11.5c-8.6-10.1-25.9-4.6-34.2,5.7
		c-4.5,5.5-8.1,12.3-14.5,15.3c-7.7,3.4-16.4,0-24.2-2.7c-17.1-6-35-9.4-53.2-10.3c-9.6,0.3-19.2-0.8-28.5-3.4c0.5-1,0.9-2,1.4-2.9
		c0.4-0.9,0.8-1.7,1.4-2.5c5.2,1,10.6,0.9,15.8-0.4c5.2-1.2,10-3.6,14.2-6.9c4.2-3.3,7.7-7.4,10.2-12.1c2.5-4.7,4-9.9,4.3-15.2
		c0.7-10.7-2.7-23.3,4.7-31.1c4.4-4.7,12.1-6.8,13.2-13.2c0-3.3-0.6-6.6-1.6-9.8c-0.4-4.2,0.5-8.4,2.6-12.1s5.3-6.6,9.1-8.4
		c7.6-3.5,15.8-5.3,24.2-5.5c-1.6-2.8-2.2-6-1.8-9.2s1.9-6.1,4.2-8.4c2.4-2.2,5.3-3.6,8.5-4s6.4,0.2,9.3,1.7c2.8,2.4,6,4.2,9.4,5.5
		c3.5,0,6.9-0.4,10.3-1c6,0,10.5,5.1,14.9,9.1s10.9,7.6,16,4.6c3.3-2,5.4-6.3,9.2-6.4c2.6,0,4.5,2,6.8,3.4c1.5,1.1,3.3,1.8,5.1,2.3
		c-0.3,4-0.3,7.9,0,11.9c-0.1,3.2,0.7,6.3,2.4,9c1.1,1.2,2.2,2.6,3.1,4c1.3,2.7,0,6.8,2.6,8.4s5.6,0,8.1-1.3
		c2.7-1.4,5.5-2.5,8.4-3.1c3.1-0.7,6.8-0.5,8.3,2.4c0.2,0.4,0.3,0.8,0.2,1.2s-0.3,0.7-0.6,1"/>
	<path class="st2" d="M785.9,703.4c-0.7,0.4-1.5,0-2.3,0c-0.6-0.1-1.2,0.1-1.7,0.4s-0.9,0.8-1.1,1.4c-0.2,0.6-0.2,1.2,0,1.8
		s0.6,1.1,1.1,1.4s1.2,0.5,1.4,1.2c0.1,0.3,0.1,0.7,0,1c-1.4,6.3-3.7,12.3-6.8,17.9c-1.7,4.4-1.9,9.2-0.8,13.7
		c0.3,1.8,0.5,3.7,0.4,5.5c-0.4,4.2-3.9,8.2-2.3,12.2c0.4,0.8,0.8,1.6,1,2.4c0.7,2.7-2.2,5.6-0.9,8.1c0.7,1.2,2.3,1.9,2.5,3.4
		c0.2,1.4-0.9,2.3-1.6,3.4c-0.5,0.8-0.9,1.8-1,2.8s-0.1,2,0.2,2.9c0.3,1,0.8,1.8,1.5,2.6c0.7,0.7,1.5,1.3,2.4,1.7
		c1,0.4,2.1,0.6,2.7,1.4c0.2,0.6,0.4,1.2,0.4,1.8c0.1,2.4-0.4,4.7-1.4,6.8c-1.2,2.7-3.3,5.2-2.8,8.1c0.5,1.8,1.4,3.4,2.8,4.7
		c1.7,2,3.4,3.8,5.2,5.8c-2.7,2.9-8.1-0.3-11.2,2.1c-1.4,1-1.8,2.9-3.2,4.1c-1.4,1.2-3.6,1.3-5.4,2.1l-0.9,0.5
		c-5.9-7.7-13.8-13.5-22.9-16.8c-6.5-1.3-12.6-4.2-17.8-8.4c-3-3.4-4.2-8.1-6.8-11.5c-8.6-10.1-25.9-4.6-34.2,5.7
		c-4.5,5.5-8.1,12.3-14.5,15.3c-7.7,3.4-16.4,0-24.2-2.7c-17.1-6-35-9.4-53.2-10.3c-9.6,0.3-19.2-0.8-28.5-3.4c0.5-1,0.9-2,1.4-2.9
		c0.4-0.9,0.8-1.7,1.4-2.5c5.2,1,10.6,0.9,15.8-0.4c5.2-1.2,10-3.6,14.2-6.9c4.2-3.3,7.7-7.4,10.2-12.1c2.5-4.7,4-9.9,4.3-15.2
		c0.7-10.7-2.7-23.3,4.7-31.1c4.4-4.7,12.1-6.8,13.2-13.2c0-3.3-0.6-6.6-1.6-9.8c-0.4-4.2,0.5-8.4,2.6-12.1s5.3-6.6,9.1-8.4
		c7.6-3.5,15.8-5.3,24.2-5.5c-1.6-2.8-2.2-6-1.8-9.2s1.9-6.1,4.2-8.4c2.4-2.2,5.3-3.6,8.5-4s6.4,0.2,9.3,1.7c2.8,2.4,6,4.2,9.4,5.5
		c3.5,0,6.9-0.4,10.3-1c6,0,10.5,5.1,14.9,9.1s10.9,7.6,16,4.6c3.3-2,5.4-6.3,9.2-6.4c2.6,0,4.5,2,6.8,3.4c1.5,1.1,3.3,1.8,5.1,2.3
		c-0.3,4-0.3,7.9,0,11.9c-0.1,3.2,0.7,6.3,2.4,9c1.1,1.2,2.2,2.6,3.1,4c1.3,2.7,0,6.8,2.6,8.4s5.6,0,8.1-1.3
		c2.7-1.4,5.5-2.5,8.4-3.1c3.1-0.7,6.8-0.5,8.3,2.4c0.2,0.4,0.3,0.8,0.3,1.2C786.5,702.8,786.2,703.2,785.9,703.4L785.9,703.4z"/>
	<path class="st0" d="M758.6,645.5c0,0.7-0.2,1.5-0.4,2.2c-0.4,1.5-0.8,3-1.2,4.5c-1.9,5.8-3.2,11.7-3.9,17.8
		c-1.8-0.5-3.5-1.3-5.1-2.3c-2.1-1.4-4-3.4-6.8-3.4c-3.8,0-6,4.4-9.2,6.4c-5.1,3-11.7-0.5-16-4.6c-4.3-4-8.9-9-14.9-9.1
		c-3.4,0.6-6.9,0.9-10.3,1c-3.4-1.3-6.6-3.2-9.4-5.5c-2.8-1.5-6.1-2.1-9.3-1.7s-6.2,1.8-8.5,4c-2.2,2.3-3.7,5.3-4.1,8.4
		c-0.4,3.2,0.2,6.4,1.7,9.2c-8.3,0.2-16.6,2.1-24.2,5.5c-3.8,1.8-7,4.7-9.1,8.4s-3,7.9-2.6,12.1c1.1,3.2,1.6,6.5,1.6,9.8
		c-1.1,6.3-8.8,8.6-13.2,13.2c-7.4,7.8-4,20.5-4.7,31.1c-0.3,5.4-1.7,10.6-4.3,15.4c-2.5,4.8-6,9-10.3,12.2
		c-4.3,3.3-9.2,5.6-14.4,6.9c-5.3,1.2-10.7,1.3-16,0.2c0.6-0.8,1.4-1.5,2.3-1.9c2.7-0.9,3.1-5.2,2.4-7.9c-0.5-1.2-0.7-2.4-0.8-3.6
		c0.2-1,0.6-1.9,1.2-2.7c3.8-5.5,8.4-10.3,13.7-14.4c2.3-1.5,4.1-3.5,5.3-5.9c0.4-1.9,0.7-3.9,0.9-5.9c0.7-2.2,1.6-4.4,2.6-6.5
		c1.1-4.1,1.1-8.4,0.1-12.5s-3.1-7.9-6-11c-1.4-1.3-2.2-3-2.5-4.8c0-3.6,4.4-5.8,4.7-9.2s-1.8-5.4-0.6-7.7s2.4-1.8,3.7-2.7
		s2.3-2.7,1.3-3.8c-0.5-0.5-1.2-0.7-1.9-0.8c-1.8-0.1-3.6,0.3-5.1,1.2c-0.4,0.2-0.7,0.4-1.2,0.5c-0.8,0-1.6-0.7-1.8-1.6
		c-0.1-0.9,0-1.8,0.3-2.7c0.2-0.8,0.6-1.6,1.3-2.1s1.5-0.8,2.4-0.8l2,0.3c0.3,0,0.7,0,1-0.2s0.6-0.4,0.7-0.7
		c0.1-0.2,0.2-0.4,0.2-0.7c0-0.2-0.1-0.5-0.2-0.7c-0.3-0.7-0.7-1.4-1.2-1.9s-1.2-0.9-1.9-1.2c-1.2-0.4-2.7-0.5-3.1-1.6
		c3.1-6.1,10.8-8.1,15.6-12.8c0.6-0.5,1-1.2,1.2-2c0-1.2-0.7-2.5-0.6-3.7c0.1-1.2,2.4-3.4,3.4-5.3c1.8-3.5-1.6-7.8-0.4-11.4
		c0-0.8,0.6-1.7,0-2.3c-0.3-0.2-0.6-0.4-0.9-0.5c-1.8-1-1.3-3.8,0-5.3s3.4-2.5,4.4-4.3c0.7-2.4,0.9-4.9,0.5-7.4
		c0-4.2,2.6-8.4,1.2-12.5c-0.6-1.5-1.4-2.9-2.4-4.2c-0.5-0.7-0.8-1.5-0.9-2.3c-0.1-0.8,0-1.7,0.2-2.4c0.6-1.4,2.1-2.3,2.5-3.8
		s-0.6-3.4-0.5-5.1s2.6-3.9,3.5-6.2c0.3-1,0.4-2,0.2-3s-0.6-1.9-1.2-2.7c-1.2-1.6-2.8-2.9-4.7-3.8c-1-0.5-2.3-1.2-2.6-2.4
		s0.5-2.4,1-3.6c0.6-1.6,0.7-3.5,0.2-5.1c-0.5-1.7-1.6-3.2-3-4.2c-0.8-0.5-1.5-1.2-1.8-2.1c11.5,3.2,23.8,1.7,34.2-4.1
		c6-3.9,10.5-9.8,16.5-13.7c4.6-2.9,9.9-4.5,15.4-4.7s10.9,1.1,15.7,3.7c6.1,4.2,12,8.7,17.5,13.7c7,5,15.2,8.1,23.7,8.8
		c0,0.4,0,0.9,0,1.3c0.2,0.6,0.4,1.2,0.8,1.7c0.4,0.5,0.9,1,1.4,1.3c0.8,0.3,1.6,0,2.5,0.5c0.9,0.3,1.7,0.9,2.3,1.7
		c0.6,0.7,1,1.6,1.1,2.6c0.1,1.9,0.1,3.9,0,5.8c0.2,2.9,1,5.7,2.4,8.2s3.3,4.7,5.7,6.4c1.7,1.2,3.8,2.2,4.5,4.1
		c1.6,4.4-4.4,9.4-2.1,13.3c-0.8,6.6,0.3,13.4,3.1,19.4c2.2,3.1,4.6,6,7.3,8.7c2.3,2.8,4.2,5.7,5.9,8.9c0.5,0.8,0.8,1.6,1,2.5"/>
	<path class="st2" d="M758.6,645.5c0,0.7-0.2,1.5-0.4,2.2c-0.4,1.5-0.8,3-1.2,4.5c-1.9,5.8-3.2,11.7-3.9,17.8
		c-1.8-0.5-3.5-1.3-5.1-2.3c-2.1-1.4-4-3.4-6.8-3.4c-3.8,0-6,4.4-9.2,6.4c-5.1,3-11.7-0.5-16-4.6c-4.3-4-8.9-9-14.9-9.1
		c-3.4,0.6-6.9,0.9-10.3,1c-3.4-1.3-6.6-3.2-9.4-5.5c-2.8-1.5-6.1-2.1-9.3-1.7s-6.2,1.8-8.5,4c-2.2,2.3-3.7,5.3-4.1,8.4
		c-0.4,3.2,0.2,6.4,1.7,9.2c-8.3,0.2-16.6,2.1-24.2,5.5c-3.8,1.8-7,4.7-9.1,8.4s-3,7.9-2.6,12.1c1.1,3.2,1.6,6.5,1.6,9.8
		c-1.1,6.3-8.8,8.6-13.2,13.2c-7.4,7.8-4,20.5-4.7,31.1c-0.3,5.4-1.7,10.6-4.3,15.4c-2.5,4.8-6,9-10.3,12.2
		c-4.3,3.3-9.2,5.6-14.4,6.9c-5.3,1.2-10.7,1.3-16,0.2c0.6-0.8,1.4-1.5,2.3-1.9c2.7-0.9,3.1-5.2,2.4-7.9c-0.5-1.2-0.7-2.4-0.8-3.6
		c0.2-1,0.6-1.9,1.2-2.7c3.8-5.5,8.4-10.3,13.7-14.4c2.3-1.5,4.1-3.5,5.3-5.9c0.4-1.9,0.7-3.9,0.9-5.9c0.7-2.2,1.6-4.4,2.6-6.5
		c1.1-4.1,1.1-8.4,0.1-12.5s-3.1-7.9-6-11c-1.4-1.3-2.2-3-2.5-4.8c0-3.6,4.4-5.8,4.7-9.2s-1.8-5.4-0.6-7.7s2.4-1.8,3.7-2.7
		s2.3-2.7,1.3-3.8c-0.5-0.5-1.2-0.7-1.9-0.8c-1.8-0.1-3.6,0.3-5.1,1.2c-0.4,0.2-0.7,0.4-1.2,0.5c-0.8,0-1.6-0.7-1.8-1.6
		c-0.1-0.9,0-1.8,0.3-2.7c0.2-0.8,0.6-1.6,1.3-2.1s1.5-0.8,2.4-0.8l2,0.3c0.3,0,0.7,0,1-0.2s0.6-0.4,0.7-0.7
		c0.1-0.2,0.2-0.4,0.2-0.7c0-0.2-0.1-0.5-0.2-0.7c-0.3-0.7-0.7-1.4-1.2-1.9s-1.2-0.9-1.9-1.2c-1.2-0.4-2.7-0.5-3.1-1.6
		c3.1-6.1,10.8-8.1,15.6-12.8c0.6-0.5,1-1.2,1.2-2c0-1.2-0.7-2.5-0.6-3.7c0.1-1.2,2.4-3.4,3.4-5.3c1.8-3.5-1.6-7.8-0.4-11.4
		c0-0.8,0.6-1.7,0-2.3c-0.3-0.2-0.6-0.4-0.9-0.5c-1.8-1-1.3-3.8,0-5.3s3.4-2.5,4.4-4.3c0.7-2.4,0.9-4.9,0.5-7.4
		c0-4.2,2.6-8.4,1.2-12.5c-0.6-1.5-1.4-2.9-2.4-4.2c-0.5-0.7-0.8-1.5-0.9-2.3c-0.1-0.8,0-1.7,0.2-2.4c0.6-1.4,2.1-2.3,2.5-3.8
		s-0.6-3.4-0.5-5.1s2.6-3.9,3.5-6.2c0.3-1,0.4-2,0.2-3s-0.6-1.9-1.2-2.7c-1.2-1.6-2.8-2.9-4.7-3.8c-1-0.5-2.3-1.2-2.6-2.4
		s0.5-2.4,1-3.6c0.6-1.6,0.7-3.5,0.2-5.1c-0.5-1.7-1.6-3.2-3-4.2c-0.8-0.5-1.5-1.2-1.8-2.1c11.5,3.2,23.8,1.7,34.2-4.1
		c6-3.9,10.5-9.8,16.5-13.7c4.6-2.9,9.9-4.5,15.4-4.7s10.9,1.1,15.7,3.7c6.1,4.2,12,8.7,17.5,13.7c7,5,15.2,8.1,23.7,8.8
		c0,0.4,0,0.9,0,1.3c0.2,0.6,0.4,1.2,0.8,1.7c0.4,0.5,0.9,1,1.4,1.3c0.8,0.3,1.6,0,2.5,0.5c0.9,0.3,1.7,0.9,2.3,1.7
		c0.6,0.7,1,1.6,1.1,2.6c0.1,1.9,0.1,3.9,0,5.8c0.2,2.9,1,5.7,2.4,8.2s3.3,4.7,5.7,6.4c1.7,1.2,3.8,2.2,4.5,4.1
		c1.6,4.4-4.4,9.4-2.1,13.3c-0.8,6.6,0.3,13.4,3.1,19.4c2.2,3.1,4.6,6,7.3,8.7c2.3,2.8,4.2,5.7,5.9,8.9
		C757.6,643.7,758.2,644.5,758.6,645.5L758.6,645.5z"/>
	<path class="st0" d="M764,824.3c-1.7,1.4-3.1,3.1-4.1,5s-1.6,4.1-1.7,6.2c-0.1,2.2-0.6,4.4-1.4,6.5c-1.2,2.1-3.8,2.9-5.7,4.2
		c-1.5,0.9-2.7,2.2-3.7,3.6c-1,1.4-1.6,3.1-1.9,4.8c-0.7,4.2-5.5,5.2-7.3,9c-1.2,2.6,0,5.7-0.8,8.5c-1.1,3.6-3,6.9-5.4,9.7
		c-1.2,1.4-2,3.1-2.3,5c-0.3,1.8,0,3.7,0.8,5.4c1.2,1.7,3.3,2.9,3.8,4.9c0.5,2.1-1.2,4.2-2.5,6c-1.8,2.4-3.1,5.2-4,8.1
		c-0.4,1.8-1,3.6-1.6,5.3c-0.8,1.3-1.6,2.6-2.2,4c0,0.4,0,0.8,0,1.2c-13.1-7.5-23.9-21.4-39-21.7c-4.1,0-8.3,1-12.6,1.2
		c-12.7,0.4-25-7.4-37.5-5c-11,2.1-19.7,11.7-30.9,12.4c-5.5,0-10.7-1.6-16.2-1.9c-7.3-0.3-14.8,2.4-21.9,0.8
		c-8.8-1.9-14.2-9.2-19.5-16.9l1.7-1.2c3-1.9,2.5-6.8,1.1-9.9c-0.7-1.2-1.2-2.5-1.6-3.8c-0.8-3.8,2.7-7.5,2.3-11.5
		c0-2.3-1.8-4.1-1.9-6.4c-0.1-2.3,1.1-3.8,0.8-5.8s-0.7-2-0.8-3c-0.4-3.9,5.1-5.8,6.4-9.5c0.4-1.2,0.5-2.4,0.4-3.7
		c0-3.2,0-6.3,0-9.5c0-2.7-0.2-5.4-0.7-8c-0.4-1.6-0.7-3.2-0.8-4.8c0.2-2.7,0.9-5.3,2.2-7.6l6.8-13.7c9.3,2.6,18.9,3.7,28.5,3.4
		c18.1,0.8,36,4.3,53.2,10.3c7.8,2.7,16.5,6,24.2,2.7c6.4-2.9,10-9.8,14.5-15.3c8.3-10.3,25.6-15.8,34.2-5.7
		c2.9,3.4,4.1,8.1,6.8,11.5c5.2,4.2,11.3,7.1,17.8,8.4c9.1,3.3,17.1,9.1,23.1,16.7"/>
	<path class="st1" d="M764,824.3c-1.7,1.4-3.1,3.1-4.1,5s-1.6,4.1-1.7,6.2c-0.1,2.2-0.6,4.4-1.4,6.5c-1.2,2.1-3.8,2.9-5.7,4.2
		c-1.5,0.9-2.7,2.2-3.7,3.6c-1,1.4-1.6,3.1-1.9,4.8c-0.7,4.2-5.5,5.2-7.3,9c-1.2,2.6,0,5.7-0.8,8.5c-1.1,3.6-3,6.9-5.4,9.7
		c-1.2,1.4-2,3.1-2.3,5c-0.3,1.8,0,3.7,0.8,5.4c1.2,1.7,3.3,2.9,3.8,4.9c0.5,2.1-1.2,4.2-2.5,6c-1.8,2.4-3.1,5.2-4,8.1
		c-0.4,1.8-1,3.6-1.6,5.3c-0.8,1.3-1.6,2.6-2.2,4c0,0.4,0,0.8,0,1.2c-13.1-7.5-23.9-21.4-39-21.7c-4.1,0-8.3,1-12.6,1.2
		c-12.7,0.4-25-7.4-37.5-5c-11,2.1-19.7,11.7-30.9,12.4c-5.5,0-10.7-1.6-16.2-1.9c-7.3-0.3-14.8,2.4-21.9,0.8
		c-8.8-1.9-14.2-9.2-19.5-16.9l1.7-1.2c3-1.9,2.5-6.8,1.1-9.9c-0.7-1.2-1.2-2.5-1.6-3.8c-0.8-3.8,2.7-7.5,2.3-11.5
		c0-2.3-1.8-4.1-1.9-6.4c-0.1-2.3,1.1-3.8,0.8-5.8s-0.7-2-0.8-3c-0.4-3.9,5.1-5.8,6.4-9.5c0.4-1.2,0.5-2.4,0.4-3.7
		c0-3.2,0-6.3,0-9.5c0-2.7-0.2-5.4-0.7-8c-0.4-1.6-0.7-3.2-0.8-4.8c0.2-2.7,0.9-5.3,2.2-7.6l6.8-13.7c9.3,2.6,18.9,3.7,28.5,3.4
		c18.1,0.8,36,4.3,53.2,10.3c7.8,2.7,16.5,6,24.2,2.7c6.4-2.9,10-9.8,14.5-15.3c8.3-10.3,25.6-15.8,34.2-5.7
		c2.9,3.4,4.1,8.1,6.8,11.5c5.2,4.2,11.3,7.1,17.8,8.4C750.4,811.3,758.1,816.9,764,824.3L764,824.3z"/>
	<path class="st0" d="M723.1,1051.6c1,1.2,2.4,2.2,2.4,3.7s-1.2,2.3-2,3.4c-1.8,3-2.3,6.5-1.6,9.9c-5.1-0.6-9.6-5.5-14.4-4
		c-1.5,0.6-2.7,1.7-3.6,3.1c-0.9,1.4-1.3,2.9-1.2,4.5c0.1,1.2,0.1,2.3,0,3.5c-0.6,3.1-3.8,4.9-6,6.8c-2.7,2.8-4.3,6.5-4.4,10.3
		c0.1,1.7,0.1,3.4,0,5.1c-0.1,0.9-0.4,1.7-0.9,2.4s-1.2,1.2-2,1.6c-1.8,0.5-3.7-0.5-5.6-1.1c-2.2-0.5-4.6-0.2-6.6,0.9
		s-3.5,2.9-4.3,5.1c-0.8,2.3-0.8,5.5-2.9,6.5c-1.6,0.3-3.2,0.3-4.7,0l0,0c-1.5-2.3-3.1-4.4-4.8-6.5c-2.1-3-4.9-5.3-8.3-6.7
		c-3.3-1.4-7-1.8-10.6-1.2c-9.4,2.9-14.4,16.4-24.1,15.5c-11-1.2-14.4-20.5-25.4-19.4c-3.1,0-5.9,2.1-8.9,2.4
		c-6.2,0.7-11.3-4.7-14.3-10.1c-2.2-5.8-5.9-10.9-10.7-14.9c-11.6-6.8-24.6,5.5-37.6,7.9c-5.2,0.7-10.4,0.1-15.4-1.5
		s-9.5-4.3-13.3-7.9c-5-4.6-9.4-9.8-13.1-15.5c0.8-2.3,1.9-4.4,3.3-6.4c2-3.4,4.4-6.6,7.3-9.2c1.4-1.1,2.8-2.2,4.1-3.4
		c2.1-2.6,3.4-5.8,3.7-9.2c1-3.5,1-7.3,0-10.8c-1.4-3.9-5.2-6.8-5.7-10.8c0-2.3,0.6-4.5,1.6-6.5c1.1-2,2.6-3.7,4.5-4.9
		c3.8-2.5,6.6-6.3,7.9-10.7c-0.6-1.1-0.9-2.4-0.9-3.7s0.3-2.6,0.9-3.7c1.3-2.3,2.9-4.5,4.8-6.4c3.6-3.6,6.4-8,8-12.9
		c0.3-2,1-3.9,1.8-5.8c1.3-1.7,2.9-3,4.7-4c3-1.6,5.5-4,7.3-6.9s2.8-6.2,3-9.6c0-2.1-0.8-4.2-1-6.4c-0.6-4.6,0.6-9.3,3.4-13.1
		c0.7-0.8,1.2-1.7,1.6-2.7c0.1-0.7,0.1-1.4,0-2.1c-0.2-2.9,0.4-5.8,1.6-8.5s3-5,5.3-6.9c5.3,7.7,10.7,15,19.5,16.9
		c6.8,1.6,14.6-1.2,21.9-0.8c5.5,0,10.7,2.1,16.2,1.8c11.2-0.7,19.9-10.3,30.9-12.4c12.5-2.4,24.8,5.4,37.5,5
		c4.2,0,8.5-1.2,12.6-1.2c15.1,0.3,25.9,14.2,39,21.7c-0.7,4.7,3.6,10.1,1.4,14.5c-1,1.4-2.3,2.4-3.9,3.1c-1.6,0.6-3.3,0.8-4.9,0.5
		c-0.5-0.1-1-0.1-1.5,0c-0.5,0.3-1,0.7-1.4,1.2c-2.5,2.8-6.8,3.1-9.6,6c-0.9,1.1-1.5,2.4-1.7,3.8c-0.3,1.4-0.2,2.9,0.2,4.2
		c0.9,3.3,3,6.1,5.8,8s6.2,2.7,9.6,2.4c-0.3,3.9-0.9,7.8-1.8,11.6c-0.5,1.2-1.4,2.4-1,3.6s3.1,2.1,3.4,3.8c0,0.5,0,0.9,0,1.4
		c0.2,0.6,0.6,1.1,1.1,1.5c2.4,2.4,3.8,5.7,3.8,9.2c0.1,0.6-0.1,1.3-0.5,1.8c-1.5,2.1-5.3-0.5-6.8,1.2c-1.6,1.8,0,3.6,1.4,5l5.3,5.6
		c0.5,0.4,0.9,1,1.2,1.6c1,2.4-1.5,4.6-2.7,6.8c-0.5,1-0.5,2.4,0.4,2.8c1,0.4,0.9,0,1.3,0c0.4,0,1.5,1.4,1.8,2.5
		c0.6,1.6,0.6,3.4,0,5.1c-0.6,0.7-1.2,1.4-1.9,1.9c-1.3,1.2-2.1,2.9-2.4,4.7c-0.3,1.8,0,3.6,0.8,5.2c0.7,1.1,1.2,2.3,1.4,3.6
		c-0.1,0.7-0.2,1.4-0.5,2.1c-0.2,0.8-0.2,1.6,0,2.4s0.5,1.6,1,2.2"/>
	<path class="st1" d="M723.1,1051.6c1,1.2,2.4,2.2,2.4,3.7s-1.2,2.3-2,3.4c-1.8,3-2.3,6.5-1.6,9.9c-5.1-0.6-9.6-5.5-14.4-4
		c-1.5,0.6-2.7,1.7-3.6,3.1c-0.9,1.4-1.3,2.9-1.2,4.5c0.1,1.2,0.1,2.3,0,3.5c-0.6,3.1-3.8,4.9-6,6.8c-2.7,2.8-4.3,6.5-4.4,10.3
		c0.1,1.7,0.1,3.4,0,5.1c-0.1,0.9-0.4,1.7-0.9,2.4s-1.2,1.2-2,1.6c-1.8,0.5-3.7-0.5-5.6-1.1c-2.2-0.5-4.6-0.2-6.6,0.9
		s-3.5,2.9-4.3,5.1c-0.8,2.3-0.8,5.5-2.9,6.5c-1.6,0.3-3.2,0.3-4.7,0l0,0c-1.5-2.3-3.1-4.4-4.8-6.5c-2.1-3-4.9-5.3-8.3-6.7
		c-3.3-1.4-7-1.8-10.6-1.2c-9.4,2.9-14.4,16.4-24.1,15.5c-11-1.2-14.4-20.5-25.4-19.4c-3.1,0-5.9,2.1-8.9,2.4
		c-6.2,0.7-11.3-4.7-14.3-10.1c-2.2-5.8-5.9-10.9-10.7-14.9c-11.6-6.8-24.6,5.5-37.6,7.9c-5.2,0.7-10.4,0.1-15.4-1.5
		s-9.5-4.3-13.3-7.9c-5-4.6-9.4-9.8-13.1-15.5c0.8-2.3,1.9-4.4,3.3-6.4c2-3.4,4.4-6.6,7.3-9.2c1.4-1.1,2.8-2.2,4.1-3.4
		c2.1-2.6,3.4-5.8,3.7-9.2c1-3.5,1-7.3,0-10.8c-1.4-3.9-5.2-6.8-5.7-10.8c0-2.3,0.6-4.5,1.6-6.5c1.1-2,2.6-3.7,4.5-4.9
		c3.8-2.5,6.6-6.3,7.9-10.7c-0.6-1.1-0.9-2.4-0.9-3.7s0.3-2.6,0.9-3.7c1.3-2.3,2.9-4.5,4.8-6.4c3.6-3.6,6.4-8,8-12.9
		c0.3-2,1-3.9,1.8-5.8c1.3-1.7,2.9-3,4.7-4c3-1.6,5.5-4,7.3-6.9s2.8-6.2,3-9.6c0-2.1-0.8-4.2-1-6.4c-0.6-4.6,0.6-9.3,3.4-13.1
		c0.7-0.8,1.2-1.7,1.6-2.7c0.1-0.7,0.1-1.4,0-2.1c-0.2-2.9,0.4-5.8,1.6-8.5s3-5,5.3-6.9c5.3,7.7,10.7,15,19.5,16.9
		c6.8,1.6,14.6-1.2,21.9-0.8c5.5,0,10.7,2.1,16.2,1.8c11.2-0.7,19.9-10.3,30.9-12.4c12.5-2.4,24.8,5.4,37.5,5
		c4.2,0,8.5-1.2,12.6-1.2c15.1,0.3,25.9,14.2,39,21.7c-0.7,4.7,3.6,10.1,1.4,14.5c-1,1.4-2.3,2.4-3.9,3.1c-1.6,0.6-3.3,0.8-4.9,0.5
		c-0.5-0.1-1-0.1-1.5,0c-0.5,0.3-1,0.7-1.4,1.2c-2.5,2.8-6.8,3.1-9.6,6c-0.9,1.1-1.5,2.4-1.7,3.8c-0.3,1.4-0.2,2.9,0.2,4.2
		c0.9,3.3,3,6.1,5.8,8s6.2,2.7,9.6,2.4c-0.3,3.9-0.9,7.8-1.8,11.6c-0.5,1.2-1.4,2.4-1,3.6s3.1,2.1,3.4,3.8c0,0.5,0,0.9,0,1.4
		c0.2,0.6,0.6,1.1,1.1,1.5c2.4,2.4,3.8,5.7,3.8,9.2c0.1,0.6-0.1,1.3-0.5,1.8c-1.5,2.1-5.3-0.5-6.8,1.2c-1.6,1.8,0,3.6,1.4,5l5.3,5.6
		c0.5,0.4,0.9,1,1.2,1.6c1,2.4-1.5,4.6-2.7,6.8c-0.5,1-0.5,2.4,0.4,2.8c1,0.4,0.9,0,1.3,0c0.4,0,1.5,1.4,1.8,2.5
		c0.6,1.6,0.6,3.4,0,5.1c-0.6,0.7-1.2,1.4-1.9,1.9c-1.3,1.2-2.1,2.9-2.4,4.7c-0.3,1.8,0,3.6,0.8,5.2c0.7,1.1,1.2,2.3,1.4,3.6
		c-0.1,0.7-0.2,1.4-0.5,2.1c-0.3,0.9-0.3,1.8-0.1,2.6C722.2,1050,722.6,1050.8,723.1,1051.6L723.1,1051.6z"/>
	<path class="st0" d="M655.3,1123.2c-0.4,1-0.6,2.1-0.8,3.2c0,4,2.4,8.4,0,11.9c-1.2-0.3-2.5-0.3-3.8,0c-0.6,0.2-1.2,0.6-1.5,1.1
		c-0.3,0.6-0.4,1.2-0.3,1.8v14.8c-1,0.4-2,1.1-2.7,1.9c-0.8,0.8-1.4,1.8-1.7,2.8c-0.4,1-0.6,2.2-0.5,3.3s0.4,2.2,0.9,3.2
		c0.9,1.1,1.6,2.3,2,3.7c0,0.8-0.2,1.5-0.5,2.2s-0.9,1.3-1.5,1.7c-1.2,1-2.6,1.7-3.8,2.7c-1.5,1.3-2.4,3.1-2.6,5
		c-0.1,1,0.1,1.9,0.5,2.8s1,1.6,1.8,2.2c1.7,1.2,4.1,1.3,5.5,2.8c0.6,0.8,1.1,1.6,1.4,2.6c0.6,1.5,1.2,2.9,1.8,4.5
		c0.5,1.5,1.1,3.1,0,4.3s-2.4,1.2-3.3,2.2c-1.8,2.1,0.6,5.5-0.5,8.1s-3.8,2.9-4.5,5.1c-0.4,1.1,0,2.5-1,3.3s-1.4,0.7-2.1,1.2
		c-0.6,0.5-1,3.2-0.4,4.9c1.5,5.8,4.3,11.1,8.2,15.6c1.8,1.7,4.1,3.5,4.1,5.9s-2.7,4.9-2.3,7.6c0.3,0.9,0.7,1.8,1.1,2.6
		c0.2,0.4,0.3,0.9,0.2,1.4s-0.3,0.9-0.6,1.3c-2.7,2.5-6.5,4.2-7.8,7.7c-0.6,1.7-0.9,3.5-0.8,5.3c0.1,1.8,0.7,3.6,1.5,5.2
		c1.2,1.8,2.3,3.7,3.1,5.7c0.5,1.6,0.3,3.4,0.8,5c0.3,0.7,0.5,1.4,0.6,2.2c0,2.3-2.3,4-3.2,6.3c-0.3,0.9-0.3,1.8-0.1,2.7
		s0.7,1.7,1.3,2.3s1.5,1,2.3,1.2c0.9,0.2,1.8,0.1,2.6-0.2s1.9-0.9,2.5,0c0.2,0.5,0.2,1,0,1.5c-0.1,3.1,0.8,6.1,2.6,8.6
		c1.2,1.2,2.1,2.6,2.7,4.1c0.5,1.9-0.5,4,0,6c0.3,1.3,0.8,2.5,1.3,3.7c0.5,1.8,0.7,3.7,0.5,5.6c-7-0.3-13.9-1.6-20.5-3.9
		c-3.3-1.6-6.8-2.4-10.5-2.3c-13.7,1.6-16.1,27.4-29.8,25.8c-0.8-9.5-3.3-18.7-7.3-27.4c-2-4.3-5-8-8.8-10.9s-8.2-4.8-12.8-5.6
		c-12.5-1.3-27.4,7.7-36.4-1.4c-6.8-6.8-4.7-22-14.2-25.1c-2.3-0.4-4.6-0.6-6.8-0.5c-12.7,0-23.7-8.3-35.9-11.6
		c-12.2-3.4-29,1.4-29.9,13.7c0,3.8,1,7.5,0.6,11.2c-1.1,9.3-12.3,16.4-10,25.3c1.7,7.2,11.4,11.4,10.5,18.8
		c-1.3,9.4-19.4,11.8-16.8,21c0.8,2.7,3.5,4.7,4.5,7.3c2.1,5.6-3.6,10.9-8.8,14.1l-6.3,3.8c-0.5-1.7-2.7-2.7-4.1-3.9
		c-0.9-1-1.6-2.1-2-3.3s-0.6-2.5-0.5-3.9c0-2.7,0.9-5.2,1.2-7.7c0.7-6.2-0.9-12.7,2.1-18.2c5-9.3,0-21.8-5.4-31.1
		c-3.9-7.2-9.6-13.1-13.7-20c-2.4-3.3-4.1-7-4.8-11c-0.8-4-0.7-8.1,0.3-12c1.2-3.7,3.6-6.8,4.7-10.6c1.2-6.1,0.1-12.5-2.9-18
		c-1.5-3-2.5-6.3-2.9-9.6c0-2.1,0.3-4,0-6c-0.3-2.1-0.7-3-0.8-4.5c-0.2-0.6-0.2-1.3,0-1.9s0.5-1.2,1-1.7s1-0.8,1.7-1
		c0.6-0.2,1.3-0.2,1.9,0c4.7,0.4,8.7,4,13.3,5.3c6.4,0.9,12.9-0.3,18.5-3.6c5-2,9.6-4.8,13.7-8.3c2-1.8,3.6-4.1,4.5-6.7
		s1.2-5.3,0.7-8c-0.6-3.1-1.8-6.1-3.6-8.8c-0.9-1-1.6-2.1-2.2-3.4c-1.3-3.4,1.1-6.8,1.1-10.6c-0.3-2.4-0.9-4.7-1.8-6.8
		c-0.5-1.1-0.7-2.2-0.7-3.4s0.2-2.4,0.7-3.4c0.8-1,1.7-1.7,2.8-2.3s2.3-0.9,3.5-0.9c2.3-0.1,4.7-0.6,6.8-1.4
		c2.1-1.4,3.9-3.3,5.1-5.5c1.2-2.2,1.8-4.7,1.8-7.2c0.3-1.8,0.3-3.7,0-5.5c-0.3-1.4-0.9-2.6-1.2-4c-0.2-0.6-0.2-1.3,0-2
		s0.5-1.2,1-1.7c0.7-0.5,1.5-1,2.3-1.3c1-0.6,1.8-1.4,2.4-2.4c0.6-1,1-2,1.2-3.2c0.4-2.3,0.3-4.5,0.7-6.8c1.2-5.1,3.2-10,6-14.5
		c2.7-4.6,4-9.8,3.6-15.1c-0.8-4.9-0.9-10.3-1.4-15.3c-0.4-2.3-0.2-4.7,0.7-6.8c1.2-1.6,2.3-3.4,3.4-5.1c0.4-1.6,0.5-3.3,0.5-4.9
		c0.1-0.7,0.2-1.4,0.4-2.1c3.7,5.7,8.1,10.9,13.1,15.5c3.8,3.6,8.3,6.3,13.3,7.9s10.2,2.1,15.4,1.5c13.1-2.5,26.1-14.6,37.6-7.9
		c4.8,4,8.5,9.2,10.7,15.1c3,5.4,8.1,10.8,14.3,10.1c3-0.3,5.7-2.2,8.9-2.4c11-0.8,14.4,18.2,25.4,19.4c9.7,1,14.7-12.6,24.1-15.5
		c3.6-0.6,7.3-0.2,10.6,1.2s6.2,3.7,8.3,6.7c1.7,2.1,3.4,4.2,4.8,6.5l0,0c-1.3,0-2.6,0.3-3.8,0.9s-2.2,1.4-3,2.4
		c-1.5,2-2.7,4.4-3.3,6.8"/>
	<path class="st1" d="M655.3,1123.2c-0.4,1-0.6,2.1-0.8,3.2c0,4,2.4,8.4,0,11.9c-1.2-0.3-2.5-0.3-3.8,0c-0.6,0.2-1.2,0.6-1.5,1.1
		c-0.3,0.6-0.4,1.2-0.3,1.8v14.8c-1,0.4-2,1.1-2.7,1.9c-0.8,0.8-1.4,1.8-1.7,2.8c-0.4,1-0.6,2.2-0.5,3.3s0.4,2.2,0.9,3.2
		c0.9,1.1,1.6,2.3,2,3.7c0,0.8-0.2,1.5-0.5,2.2s-0.9,1.3-1.5,1.7c-1.2,1-2.6,1.7-3.8,2.7c-1.5,1.3-2.4,3.1-2.6,5
		c-0.1,1,0.1,1.9,0.5,2.8s1,1.6,1.8,2.2c1.7,1.2,4.1,1.3,5.5,2.8c0.6,0.8,1.1,1.6,1.4,2.6c0.6,1.5,1.2,2.9,1.8,4.5
		c0.5,1.5,1.1,3.1,0,4.3s-2.4,1.2-3.3,2.2c-1.8,2.1,0.6,5.5-0.5,8.1s-3.8,2.9-4.5,5.1c-0.4,1.1,0,2.5-1,3.3s-1.4,0.7-2.1,1.2
		c-0.6,0.5-1,3.2-0.4,4.9c1.5,5.8,4.3,11.1,8.2,15.6c1.8,1.7,4.1,3.5,4.1,5.9s-2.7,4.9-2.3,7.6c0.3,0.9,0.7,1.8,1.1,2.6
		c0.2,0.4,0.3,0.9,0.2,1.4s-0.3,0.9-0.6,1.3c-2.7,2.5-6.5,4.2-7.8,7.7c-0.6,1.7-0.9,3.5-0.8,5.3c0.1,1.8,0.7,3.6,1.5,5.2
		c1.2,1.8,2.3,3.7,3.1,5.7c0.5,1.6,0.3,3.4,0.8,5c0.3,0.7,0.5,1.4,0.6,2.2c0,2.3-2.3,4-3.2,6.3c-0.3,0.9-0.3,1.8-0.1,2.7
		s0.7,1.7,1.3,2.3s1.5,1,2.3,1.2c0.9,0.2,1.8,0.1,2.6-0.2s1.9-0.9,2.5,0c0.2,0.5,0.2,1,0,1.5c-0.1,3.1,0.8,6.1,2.6,8.6
		c1.2,1.2,2.1,2.6,2.7,4.1c0.5,1.9-0.5,4,0,6c0.3,1.3,0.8,2.5,1.3,3.7c0.5,1.8,0.7,3.7,0.5,5.6c-7-0.3-13.9-1.6-20.5-3.9
		c-3.3-1.6-6.8-2.4-10.5-2.3c-13.7,1.6-16.1,27.4-29.8,25.8c-0.8-9.5-3.3-18.7-7.3-27.4c-2-4.3-5-8-8.8-10.9s-8.2-4.8-12.8-5.6
		c-12.5-1.3-27.4,7.7-36.4-1.4c-6.8-6.8-4.7-22-14.2-25.1c-2.3-0.4-4.6-0.6-6.8-0.5c-12.7,0-23.7-8.3-35.9-11.6
		c-12.2-3.4-29,1.4-29.9,13.7c0,3.8,1,7.5,0.6,11.2c-1.1,9.3-12.3,16.4-10,25.3c1.7,7.2,11.4,11.4,10.5,18.8
		c-1.3,9.4-19.4,11.8-16.8,21c0.8,2.7,3.5,4.7,4.5,7.3c2.1,5.6-3.6,10.9-8.8,14.1l-6.3,3.8c-0.5-1.7-2.7-2.7-4.1-3.9
		c-0.9-1-1.6-2.1-2-3.3s-0.6-2.5-0.5-3.9c0-2.7,0.9-5.2,1.2-7.7c0.7-6.2-0.9-12.7,2.1-18.2c5-9.3,0-21.8-5.4-31.1
		c-3.9-7.2-9.6-13.1-13.7-20c-2.4-3.3-4.1-7-4.8-11c-0.8-4-0.7-8.1,0.3-12c1.2-3.7,3.6-6.8,4.7-10.6c1.2-6.1,0.1-12.5-2.9-18
		c-1.5-3-2.5-6.3-2.9-9.6c0-2.1,0.3-4,0-6c-0.3-2.1-0.7-3-0.8-4.5c-0.2-0.6-0.2-1.3,0-1.9s0.5-1.2,1-1.7s1-0.8,1.7-1
		c0.6-0.2,1.3-0.2,1.9,0c4.7,0.4,8.7,4,13.3,5.3c6.4,0.9,12.9-0.3,18.5-3.6c5-2,9.6-4.8,13.7-8.3c2-1.8,3.6-4.1,4.5-6.7
		s1.2-5.3,0.7-8c-0.6-3.1-1.8-6.1-3.6-8.8c-0.9-1-1.6-2.1-2.2-3.4c-1.3-3.4,1.1-6.8,1.1-10.6c-0.3-2.4-0.9-4.7-1.8-6.8
		c-0.5-1.1-0.7-2.2-0.7-3.4s0.2-2.4,0.7-3.4c0.8-1,1.7-1.7,2.8-2.3s2.3-0.9,3.5-0.9c2.3-0.1,4.7-0.6,6.8-1.4
		c2.1-1.4,3.9-3.3,5.1-5.5c1.2-2.2,1.8-4.7,1.8-7.2c0.3-1.8,0.3-3.7,0-5.5c-0.3-1.4-0.9-2.6-1.2-4c-0.2-0.6-0.2-1.3,0-2
		s0.5-1.2,1-1.7c0.7-0.5,1.5-1,2.3-1.3c1-0.6,1.8-1.4,2.4-2.4c0.6-1,1-2,1.2-3.2c0.4-2.3,0.3-4.5,0.7-6.8c1.2-5.1,3.2-10,6-14.5
		c2.7-4.6,4-9.8,3.6-15.1c-0.8-4.9-0.9-10.3-1.4-15.3c-0.4-2.3-0.2-4.7,0.7-6.8c1.2-1.6,2.3-3.4,3.4-5.1c0.4-1.6,0.5-3.3,0.5-4.9
		c0.1-0.7,0.2-1.4,0.4-2.1c3.7,5.7,8.1,10.9,13.1,15.5c3.8,3.6,8.3,6.3,13.3,7.9s10.2,2.1,15.4,1.5c13.1-2.5,26.1-14.6,37.6-7.9
		c4.8,4,8.5,9.2,10.7,15.1c3,5.4,8.1,10.8,14.3,10.1c3-0.3,5.7-2.2,8.9-2.4c11-0.8,14.4,18.2,25.4,19.4c9.7,1,14.7-12.6,24.1-15.5
		c3.6-0.6,7.3-0.2,10.6,1.2s6.2,3.7,8.3,6.7c1.7,2.1,3.4,4.2,4.8,6.5l0,0c-1.3,0-2.6,0.3-3.8,0.9s-2.2,1.4-3,2.4
		C657,1118.8,656,1121,655.3,1123.2L655.3,1123.2z"/>
	<path class="st0" d="M682.4,1390c0.1,0.7,0.1,1.4-0.1,2.1c-0.2,0.7-0.5,1.3-1,1.9c-0.9,1.1-2.1,2-3.1,3c-1.4,1.4-2.4,3.1-3,4.9
		s-0.9,3.8-0.7,5.8c0,1.6,0.5,3.5-0.8,4.5c-0.5,0.3-1,0.5-1.6,0.6s-1.1,0.1-1.7-0.1l-11.6-1.4c-2.1,1.9-4.9,4.3-6.8,6.2
		c-0.8,0.9-1.7,1.5-2.8,2c-1.6,0.3-3.1,0.6-4.7,0.7c-2.9,1-5.3,3-6.8,5.7c-0.7,1-1.5,1.9-2.4,2.6c-0.8,0.5-1.8,0.9-2.8,1s-2,0-3-0.3
		c-1.9-0.7-3.6-1.9-4.9-3.4c-2.6,4.5-3.8,9.7-3.6,14.9c-0.1,1.5,0.1,3,0.4,4.5c0.4,1.2,1.2,2.2,1.6,3.3c0.5,2.2,0.5,4.6,0,6.8
		c-0.4,2.6-0.8,5.3-1.1,8.1c-0.2,1.4-0.2,2.9,0,4.3c0.6,2.8,3.1,5,3.8,7.8s-1.2,7.3-1.3,11c0,2.5,0.8,5.6-1.2,7.2l-1.7,1.1
		c-0.8,0.9-1.4,2-1.6,3.2c-0.2,1.2-0.2,2.4,0.3,3.6c0.7,2.3,0.5,4.7-0.6,6.8c-1.4,1.6-3.8,2.1-5.4,3.5c-1.3,1.5-1.9,3.5-1.8,5.5
		c0.1,2,0.9,3.9,2.3,5.3c0.7,0.8,1.4,1.7,1.9,2.7c0.3,0.5,0.4,1,0.4,1.5s-0.2,1.1-0.4,1.5c-3.6-2.3-6.8-4.9-9.8-7.9
		c-3.3-3.7-7.1-7-11.2-9.7c-16.9-9-37,9.5-55.8,5.9c-13.3-2.5-24.8-16-37.7-12c-5.4,1.6-11.5,6.4-16.1,2.9s-2.5-10.2-6-13.7
		c-3.6-3.5-11.7-0.7-16.6,3.1l-9.7,7.6c-1.4-1.4-3-2.6-3.1-4.4c0-0.8,0-1.4,0-2.2c-0.1-2.1-0.8-4-1.9-5.8c-1.8-3.7-2.6-7.8-2.4-12
		c-0.8-6.6-2.8-13.1-5.7-19.1c-1.6-4.8-3.3-9.5-4.9-14.3c-1.6-4.8-3.2-9.5-5.1-14.2c-3.8-9.2-8.8-17.9-13.2-26.9
		c-1.3-2.3-2.2-4.8-2.7-7.5c-0.2-1.3-0.2-2.6,0-3.9c0.3-1.3,0.8-2.5,1.6-3.6c1-1.3,2.7-2.5,2.7-4.2c0-0.2,0-0.5,0-0.8l6.3-3.8
		c5.1-3.2,10.9-8.5,8.8-14.1c-1-2.7-3.7-4.6-4.5-7.3c-2.7-9.2,15.5-11.6,16.8-21c1-7.3-8.8-11.6-10.5-18.8c-2.3-9,8.9-16,10-25.3
		c0.4-3.8-0.9-7.5-0.6-11.3c0.9-12.6,17.7-17.3,29.9-13.7s23.2,11.4,35.9,11.6c2.3-0.1,4.6,0.1,6.8,0.6c9.4,3.1,6.8,17.9,14.2,25.1
		c8.8,9.1,23.9,0,36.4,1.4c4.8,0.7,9.3,2.6,13.2,5.4s7,6.6,9.1,10.9c4,8.6,6.4,17.9,7.3,27.4c13.7,1.9,16-24.2,29.8-25.8
		c3.6,0,7.2,0.8,10.5,2.3c6.6,2.3,13.5,3.6,20.5,3.9c0,1.5,0.1,3,0.5,4.5c1.1,2.4,2,4.9,2.7,7.4c0.5,10.6,2.2,21.1,4.9,31.3
		c0.2,0.8,0.5,1.6,1.1,2.2c0.7,0.7,1.8,0.9,2.4,1.6c0.6,0.8,0.6,2.1,1.1,3.2c0.5,1,3.4,2.6,5.5,3.1s4.5,1.4,5.1,3.5"/>
	<path class="st1" d="M682.4,1390c0.1,0.7,0.1,1.4-0.1,2.1c-0.2,0.7-0.5,1.3-1,1.9c-0.9,1.1-2.1,2-3.1,3c-1.4,1.4-2.4,3.1-3,4.9
		s-0.9,3.8-0.7,5.8c0,1.6,0.5,3.5-0.8,4.5c-0.5,0.3-1,0.5-1.6,0.6s-1.1,0.1-1.7-0.1l-11.6-1.4c-2.1,1.9-4.9,4.3-6.8,6.2
		c-0.8,0.9-1.7,1.5-2.8,2c-1.6,0.3-3.1,0.6-4.7,0.7c-2.9,1-5.3,3-6.8,5.7c-0.7,1-1.5,1.9-2.4,2.6c-0.8,0.5-1.8,0.9-2.8,1s-2,0-3-0.3
		c-1.9-0.7-3.6-1.9-4.9-3.4c-2.6,4.5-3.8,9.7-3.6,14.9c-0.1,1.5,0.1,3,0.4,4.5c0.4,1.2,1.2,2.2,1.6,3.3c0.5,2.2,0.5,4.6,0,6.8
		c-0.4,2.6-0.8,5.3-1.1,8.1c-0.2,1.4-0.2,2.9,0,4.3c0.6,2.8,3.1,5,3.8,7.8s-1.2,7.3-1.3,11c0,2.5,0.8,5.6-1.2,7.2l-1.7,1.1
		c-0.8,0.9-1.4,2-1.6,3.2c-0.2,1.2-0.2,2.4,0.3,3.6c0.7,2.3,0.5,4.7-0.6,6.8c-1.4,1.6-3.8,2.1-5.4,3.5c-1.3,1.5-1.9,3.5-1.8,5.5
		c0.1,2,0.9,3.9,2.3,5.3c0.7,0.8,1.4,1.7,1.9,2.7c0.3,0.5,0.4,1,0.4,1.5s-0.2,1.1-0.4,1.5c-3.6-2.3-6.8-4.9-9.8-7.9
		c-3.3-3.7-7.1-7-11.2-9.7c-16.9-9-37,9.5-55.8,5.9c-13.3-2.5-24.8-16-37.7-12c-5.4,1.6-11.5,6.4-16.1,2.9s-2.5-10.2-6-13.7
		c-3.6-3.5-11.7-0.7-16.6,3.1l-9.7,7.6c-1.4-1.4-3-2.6-3.1-4.4c0-0.8,0-1.4,0-2.2c-0.1-2.1-0.8-4-1.9-5.8c-1.8-3.7-2.6-7.8-2.4-12
		c-0.8-6.6-2.8-13.1-5.7-19.1c-1.6-4.8-3.3-9.5-4.9-14.3c-1.6-4.8-3.2-9.5-5.1-14.2c-3.8-9.2-8.8-17.9-13.2-26.9
		c-1.3-2.3-2.2-4.8-2.7-7.5c-0.2-1.3-0.2-2.6,0-3.9c0.3-1.3,0.8-2.5,1.6-3.6c1-1.3,2.7-2.5,2.7-4.2c0-0.2,0-0.5,0-0.8l6.3-3.8
		c5.1-3.2,10.9-8.5,8.8-14.1c-1-2.7-3.7-4.6-4.5-7.3c-2.7-9.2,15.5-11.6,16.8-21c1-7.3-8.8-11.6-10.5-18.8c-2.3-9,8.9-16,10-25.3
		c0.4-3.8-0.9-7.5-0.6-11.3c0.9-12.6,17.7-17.3,29.9-13.7s23.2,11.4,35.9,11.6c2.3-0.1,4.6,0.1,6.8,0.6c9.4,3.1,6.8,17.9,14.2,25.1
		c8.8,9.1,23.9,0,36.4,1.4c4.8,0.7,9.3,2.6,13.2,5.4s7,6.6,9.1,10.9c4,8.6,6.4,17.9,7.3,27.4c13.7,1.9,16-24.2,29.8-25.8
		c3.6,0,7.2,0.8,10.5,2.3c6.6,2.3,13.5,3.6,20.5,3.9c0,1.5,0.1,3,0.5,4.5c1.1,2.4,2,4.9,2.7,7.4c0.5,10.6,2.2,21.1,4.9,31.3
		c0.2,0.8,0.5,1.6,1.1,2.2c0.7,0.7,1.8,0.9,2.4,1.6c0.6,0.8,0.6,2.1,1.1,3.2c0.5,1,3.4,2.6,5.5,3.1
		C679,1387,681.8,1387.9,682.4,1390z"/>
	<path class="st0" d="M616.6,1528.6c-1.2,1.4-3.6,0.6-5.2-0.3c-2.5-1.7-5.5-2.4-8.5-1.9c-2.1,0.8-4,2.3-5.3,4.1
		c-1,1.1-1.8,2.4-2.4,3.8c-0.3,0.7-0.4,1.5-0.3,2.3c0.1,0.8,0.4,1.5,0.9,2.1c0.1,0.5,0.1,1.1,0,1.6c-0.9,1.8-1.5,3.8-1.6,5.8
		s0.1,4,0.8,5.9c0.6,0.9,1.1,1.7,1.5,2.7c1.3,3.1-0.4,7.7,2.4,9.6c1.2,0.8,2.7,0.8,3.8,1.6s1.1,3.8,0,5.5c-1.3,1.5-2.5,3.2-3.5,4.9
		c-1.5,3.8,1,9-2.3,11.6c-3.2,2.6-9.2-1-12.1,2.1c-0.6,0.8-0.9,1.8-1,2.8s0,2,0.4,2.9c0.8,1.9,1.2,3.9,1.4,5.9c0,1.8-1,3.6-1.2,5.4
		c0.1,3.1,1.3,6,3.5,8.3c2.1,2.7,4.4,5.3,6.8,7.8c0.5,0.4,0.8,0.9,1,1.4c0.1,0.5,0,1.1-0.3,1.5c-0.3,0.5-0.7,0.8-1.2,1.1
		c-1,0.4-2,0.7-3.1,1c-4.2,1.4-6.2,6-7.7,10.1c-1.6,3.3-2.2,7-1.7,10.7c0.9,2.2,1.7,4.5,2.3,6.8l0,0c-18.1,9.6-38,15.4-58.4,16.8
		c-8.8,1.4-17.8-0.6-25.3-5.4c-9.4-7.6-11.4-22.9-22.4-28c-12.1-5.5-25.5,5.1-38.7,5.1c-11.4,0-20.9-7.5-30.9-12.9
		c-4-2.2-8.3-3.7-12.8-4.5c0.8-0.3,1.7-0.4,2.5-0.3s1.7,0.4,2.4,0.9l3.8-5.1c0.6-0.6,1-1.5,1.2-2.3c0-1-0.5-2-0.4-3s1.8-2.7,2.9-3.9
		c1.7-2.6,2.5-5.8,2.1-9c0-1.5-0.2-3-0.5-4.5c-0.7-1.5-1.5-3-2.4-4.4c-0.5-0.7-0.8-1.4-1-2.2s-0.2-1.6,0-2.4
		c0.1-0.4,0.3-0.8,0.6-1.1s0.6-0.6,1-0.8s0.8-0.3,1.2-0.3s0.8,0,1.2,0.2c1.6,1,1.8,3.8,3.7,4s2.3-1.5,2.8-2.8l2.7-7.5
		c0.1-0.6,0.5-1.2,1-1.6c0.6-0.3,1.2-0.5,1.9-0.4c2.6,0.1,5.2,0.8,7.4,2.2c0.6,0.5,1.4,0.7,2.1,0.7c1.4,0,1.8-2.1,1.8-3.5V1559
		c-0.2-1.5-0.1-3,0.3-4.5c0.4-1.5,1.1-2.8,2.1-4c2.5-2.7,3.9-6.2,4-9.8c0.1-0.9,0.3-1.8,0.5-2.7c1.4-3.6,6-5.5,6.2-9.3
		c0-2.1-1.3-4-1.3-6c0.1-1.1,0.4-2.2,1-3.1s1.3-1.8,2.3-2.4c1.9-1.2,3.7-2.5,5.5-3.9c0.9-0.7,1.5-1.7,1.9-2.8
		c0.3-1.1,0.4-2.2,0.1-3.3c-0.4-1-1.1-1.9-2-2.6l9.4-7.5c4.9-3.8,12.3-7.5,16.6-3.2c4.4,4.4,2,10.7,6,13.7c4,2.9,10.7-1.2,16.1-2.9
		c12.9-4,24.4,9.5,37.7,12c18.8,3.7,38.9-14.8,55.8-5.8c4.2,2.7,7.9,6,11.2,9.7c2.9,3,6.2,5.7,9.8,7.9"/>
	<path class="st1" d="M616.6,1528.6c-1.2,1.4-3.6,0.6-5.2-0.3c-2.5-1.7-5.5-2.4-8.5-1.9c-2.1,0.8-4,2.3-5.3,4.1
		c-1,1.1-1.8,2.4-2.4,3.8c-0.3,0.7-0.4,1.5-0.3,2.3c0.1,0.8,0.4,1.5,0.9,2.1c0.1,0.5,0.1,1.1,0,1.6c-0.9,1.8-1.5,3.8-1.6,5.8
		s0.1,4,0.8,5.9c0.6,0.9,1.1,1.7,1.5,2.7c1.3,3.1-0.4,7.7,2.4,9.6c1.2,0.8,2.7,0.8,3.8,1.6s1.1,3.8,0,5.5c-1.3,1.5-2.5,3.2-3.5,4.9
		c-1.5,3.8,1,9-2.3,11.6c-3.2,2.6-9.2-1-12.1,2.1c-0.6,0.8-0.9,1.8-1,2.8s0,2,0.4,2.9c0.8,1.9,1.2,3.9,1.4,5.9c0,1.8-1,3.6-1.2,5.4
		c0.1,3.1,1.3,6,3.5,8.3c2.1,2.7,4.4,5.3,6.8,7.8c0.5,0.4,0.8,0.9,1,1.4c0.1,0.5,0,1.1-0.3,1.5c-0.3,0.5-0.7,0.8-1.2,1.1
		c-1,0.4-2,0.7-3.1,1c-4.2,1.4-6.2,6-7.7,10.1c-1.6,3.3-2.2,7-1.7,10.7c0.9,2.2,1.7,4.5,2.3,6.8l0,0c-18.1,9.6-38,15.4-58.4,16.8
		c-8.8,1.4-17.8-0.6-25.3-5.4c-9.4-7.6-11.4-22.9-22.4-28c-12.1-5.5-25.5,5.1-38.7,5.1c-11.4,0-20.9-7.5-30.9-12.9
		c-4-2.2-8.3-3.7-12.8-4.5c0.8-0.3,1.7-0.4,2.5-0.3s1.7,0.4,2.4,0.9l3.8-5.1c0.6-0.6,1-1.5,1.2-2.3c0-1-0.5-2-0.4-3s1.8-2.7,2.9-3.9
		c1.7-2.6,2.5-5.8,2.1-9c0-1.5-0.2-3-0.5-4.5c-0.7-1.5-1.5-3-2.4-4.4c-0.5-0.7-0.8-1.4-1-2.2s-0.2-1.6,0-2.4
		c0.1-0.4,0.3-0.8,0.6-1.1s0.6-0.6,1-0.8s0.8-0.3,1.2-0.3s0.8,0,1.2,0.2c1.6,1,1.8,3.8,3.7,4s2.3-1.5,2.8-2.8l2.7-7.5
		c0.1-0.6,0.5-1.2,1-1.6c0.6-0.3,1.2-0.5,1.9-0.4c2.6,0.1,5.2,0.8,7.4,2.2c0.6,0.5,1.4,0.7,2.1,0.7c1.4,0,1.8-2.1,1.8-3.5V1559
		c-0.2-1.5-0.1-3,0.3-4.5c0.4-1.5,1.1-2.8,2.1-4c2.5-2.7,3.9-6.2,4-9.8c0.1-0.9,0.3-1.8,0.5-2.7c1.4-3.6,6-5.5,6.2-9.3
		c0-2.1-1.3-4-1.3-6c0.1-1.1,0.4-2.2,1-3.1s1.3-1.8,2.3-2.4c1.9-1.2,3.7-2.5,5.5-3.9c0.9-0.7,1.5-1.7,1.9-2.8
		c0.3-1.1,0.4-2.2,0.1-3.3c-0.4-1-1.1-1.9-2-2.6l9.4-7.5c4.9-3.8,12.3-7.5,16.6-3.2c4.4,4.4,2,10.7,6,13.7c4,2.9,10.7-1.2,16.1-2.9
		c12.9-4,24.4,9.5,37.7,12c18.8,3.7,38.9-14.8,55.8-5.8c4.2,2.7,7.9,6,11.2,9.7C609.7,1523.7,613,1526.4,616.6,1528.6L616.6,1528.6z
		"/>
	<path class="st0" d="M612.7,2081.2c-0.4,1.7-0.4,3.5,0.1,5.1c0.5,1.7,1.4,3.2,2.6,4.4c1.7,1.5,4.4,3,3.9,5.3
		c-0.2,0.5-0.3,1-0.3,1.5c0,1.4,2.1,1.4,3.2,2.3c1.1,0.8,0.9,4-0.6,5.5c-1.5,1.4-2.7,2-3.9,3.1l-12.2,2.3c-2.4,0.5-4.8,0.5-7.2,0
		c-7.4-1.8-8.1-11.8-11.2-18.8c-1.2-2.8-3-5.3-5.3-7.3c-2.2-2.1-4.9-3.6-7.7-4.7c-6.1-1.7-12.4-2.1-18.7-1.2
		c-9.5,0.8-19.1,1.6-28.7,1.6c-6.7,0.1-13.4-0.2-20.1-0.8c0-0.3,0-0.6,0-0.9c-1.2-2.4-3.1-4.7-2.9-7.2c0.3-2.5,1.2-3.1,0.9-4.6
		s-1.9-2.7-3.4-3.6c-6.1-3.8-11.3-8.9-15.3-14.9c-0.7-1-1.2-2.2-1.2-3.5c0-2.7,3.4-4.1,4.3-6.8c0.9-2.7-2.7-6.9-2.9-10.6
		c-0.3-3.8,4.2-7.5,8.1-9.4c4-1.9,8.6-4.5,9-8.9c0.3-4.4-4.8-9.1-3.1-13.7c0.8-2.1,2.8-3.5,3.1-5.7c-0.1-0.6-0.1-1.1,0-1.7
		c0.3-0.7,0.8-1.2,1.4-1.5c0.6-0.3,1.4-0.4,2.1-0.2c0.7,0.2,1.4,0.5,1.9,0.9c0.6,0.4,1.1,1,1.4,1.6c0.5,0.9,1.2,1.8,2.2,2.1
		c0.6,0.1,1.2-0.1,1.7-0.4s0.9-0.8,1.1-1.4c0.3-1.4,0.3-2.8-0.2-4.2c-0.4-1.4-1.2-2.6-2.3-3.5c-2.1-1.9-3.8-4.2-4.9-6.8
		c-0.1-0.3-0.2-0.6-0.2-1c0-0.3,0.1-0.7,0.2-1c0.3-0.5,0.7-0.8,1.2-1s1-0.2,1.5,0c1,0.4,1.9,1,2.7,1.8c0.9,0.9,2.6,0,3-1.2
		c0.2-0.6,0.2-1.2,0.1-1.9c-0.1-0.6-0.4-1.2-0.7-1.7c-1.7-3.1-4.3-5.8-7.4-7.5c-1-0.5-1.9-1.1-2.7-1.8c-0.7-0.9-1.3-2-1.6-3.1
		c-0.6-1.8-1.3-3.6-1.9-5.4c-0.4-0.9-0.6-1.8-0.5-2.8c0.2-0.8,0.5-1.5,1-2.2l3.6-6.2c-1.4-2.7-2.3-5.7-3.6-8.3
		c-0.3-0.7-0.5-1.3-0.7-2.1c0-1.7,1.2-3.2,1.7-4.8c0.2-1.5,0.2-2.9,0-4.4c0-0.7,0.1-1.5,0.5-2.1c0.4-0.7,0.9-1.2,1.5-1.6
		c0.8-0.2,1.6-0.2,2.4,0c6.8,0.1,13.5,1.9,19.4,5.3c1,0.9,2.2,1.6,3.6,2.1c0.3,0.2,0.6,0.3,0.9,0.3c0.3,0,0.7,0,1-0.1
		s0.6-0.3,0.9-0.5c0.2-0.2,0.5-0.5,0.6-0.8s0.2-0.6,0.2-1c0-0.3,0-0.7-0.2-1c-0.1-0.3-0.3-0.6-0.5-0.8s-0.5-0.4-0.8-0.5
		c-0.9-0.6-1.9-1-3-1.2c-3.2-0.9-6.1-2.6-8.5-5c-2.4-2.3-4.2-5.2-5.2-8.3c-0.3-1.5-0.9-2.9-1.6-4.2c-1.1-1.8-3.1-2.9-4.2-4.7
		c-0.7-1.9-1.6-3.6-2.7-5.3c-1-1-2.3-1.6-3-2.7c-0.3-0.8-0.4-1.6-0.2-2.5c0.2-0.8,0.6-1.6,1.3-2.1c1.3-1.1,2.7-2,4.2-2.7
		c4.6-1.9,8.8-4.6,12.5-7.9c0.7-0.8,1.6-1.6,2.7-1.4c0.4,0.2,0.7,0.4,1,0.7c2.8,2.8,1.2,7.6,2.7,11.3c0.5,1.1,1.1,2.2,1.7,3.2
		c1.1,2.9,2.6,5.6,4.4,8.1c1.1,1.2,2.7,2.1,4,3.3c0.6,0.6,1.1,1.2,1.4,2l-1.8-16.6c-0.3-3-0.8-6-1.5-9c-0.7-1.9-1.1-3.9-1.1-5.9
		c0.3-1.5,0.7-3.1,1.3-4.5c1-3.4,1.6-7,1.8-10.6c0.3-2.1,0.1-4.2-0.6-6.2c-0.4-1-1.1-1.7-2.1-2.2c-0.9-0.4-2-0.5-3-0.1
		c-1.7,0.8-2.3,2.9-3.9,4c-3,1.8-6.8-1.4-10.3-1.2c-2,0-3.8,1.4-5.7,1.3c-0.9-0.1-1.8-0.4-2.6-0.9l-4.9-2.3
		c-1.2-0.5-2.3-1.2-3.1-2.1c-0.5-0.7-0.9-1.6-1.4-2.3c-0.6-0.9-1.4-1.6-2.3-2.1c-0.9-0.5-2-0.7-3-0.6c-0.6-4,5.7-4.5,6.8-8.4
		c0-0.9,0-1.8,0.4-2.7c0.5-1.5,1.5-2.9,2.8-3.9l9.1-8.5c1.5-1.6,3.4-2.9,5.5-3.6c1.4-0.2,2.8-0.2,4.2,0c5.2-0.2,10-2.4,13.7-6
		c1.1-1.3,2.3-2.4,3.7-3.4c1.1-0.8,2.5-1.1,3.6-1.8c1.2-1.2,2.2-2.8,2.6-4.5c0.5-1.7,0.5-3.5,0.1-5.2c-0.8-3.4-0.6-7,0.6-10.3
		c0.5-0.7,0.8-1.5,1-2.3c-0.1-0.6-0.2-1.1-0.4-1.6c-0.1-2.5,0.3-5,1.2-7.3c0.5-2.5-0.8-5.8-3.3-5.4c-0.7,0.2-1.4,0.6-1.8,1.2
		c-0.5,0.6-0.7,1.3-0.8,2.1c0,1.6,0.3,3.1,0.7,4.7c0.6,4.6,0.1,9.3-1.5,13.7c-1,3.6-2.4,7.1-4.2,10.3c-2.2,4-5.9,7.1-10.2,8.7
		c-2.2,0.8-4.5,0.9-6.7,0.5s-4.3-1.5-6-3c-1.3-1.3-2.4-2.8-3.3-4.5c-2-3.1-3.7-6.4-5.2-9.7c-0.7-1.9-1.7-3.6-2.9-5.1
		c-1-0.9-2.1-1.7-3.4-2.2c-4-2.4-8.4-4.1-13-4.9c-2.3-0.4-4.7-0.1-6.9,0.8s-4.1,2.3-5.5,4.1c-3.9,6.1,0,14.8-3.6,21.1
		c-1.5,3.1-4.7,5.8-4,9.2c0,1.2,1,2.3,0.9,3.5c-0.2,0.6-0.5,1.2-1,1.7s-1,0.9-1.6,1.1c-2,1-4.2,1.6-6.4,1.8s-4.5-0.1-6.6-0.8
		c-3.4-1.2-6.8-3.6-10.2-2.3c-3.4,1.2-4.7,4.7-7.7,5.8c-1.7,0.4-3.4,0.4-5.1,0l-22.8-4.3c0.8-3.7,2.5-7.1,4.9-9.9
		c1.4-1.6,3.1-3.2,3.1-5.2c-0.2-1.1-0.6-2-1.3-2.9c-0.7-0.8-1.5-1.5-2.5-1.9c-2-0.8-3.8-1.9-5.4-3.3c-1.2,2.4-5.1,1.2-6.5-1.2
		c-0.9-2.5-1.9-4.9-3.1-7.3c-1.2-1.4-3-2.3-3.8-3.9c-0.6-1.9-0.6-4,0-6c1.3-5.5,0.8-11.3-1.5-16.6c-1.5-3.6-1.3-8-2.9-11.6
		c-2.3-3.4-4.3-7-6-10.7c-0.2-2.6-0.6-5.1-1.1-7.6c-0.8-2.1-2.5-3.8-2.5-6c0-3.2,3.2-5.4,6-6.8c2.7-1.4,5.7-4.5,4.7-7.6
		c-0.5-1.6-2.2-2.7-2.9-4.4c-1.3-2.9,0.9-6.2,2.4-9c2.2-4.4,2.8-9.5,1.6-14.2c-0.2-0.5-0.3-1-0.3-1.5s0.1-1,0.4-1.5
		c0.2-0.5,0.5-0.9,0.9-1.2s0.9-0.6,1.3-0.7c3.6-1.9,6.4-5,7.9-8.7c0.7-1.9,0.8-3.9,0.3-5.8s-1.7-3.6-3.2-4.9c-1-0.5-1.9-1.2-2.6-2.1
		c-0.6-1.3-0.8-2.8-0.4-4.2c0.8-7-0.2-14-2.9-20.5c0.2-0.7,0.6-1.3,1.1-1.9c0.5-0.5,1.1-0.9,1.8-1.1c4.5,0.8,8.8,2.3,12.8,4.5
		c9.9,5.4,19.5,13,30.9,12.9c13.3,0,26.6-10.7,38.7-5.1c11,5.1,13,20.5,22.4,28c7.5,4.9,16.5,6.8,25.3,5.4
		c20.6-1.6,40.5-7.6,58.6-17.6c0,2.5-0.9,5.1,0,7.3c0.5,0.9,1.3,1.6,1.2,2.7c-0.2,0.6-0.5,1.2-1,1.6c-1.2,1.3-2.8,2.5-4,4
		c-0.6,0.7-1,1.6-1.2,2.5s-0.3,1.9-0.1,2.8c0.8,2.8,0.5,5.5,1.1,8.5c0.2,3,1.4,5.9,3.4,8.2c1.2,1.3,3,2.1,4.2,3.4
		c0.5,0.7,0.9,1.5,1.1,2.4c0.2,0.9,0.1,1.8-0.1,2.6c-0.2,0.9-0.6,1.7-1.2,2.3c-0.6,0.7-1.3,1.2-2.1,1.6c-0.7,0.2-1.4,0.5-2,1
		c-1.4,1.4,0,3.8,1.7,4.7c1.9,0.5,3.7,1.2,5.4,2.1c1.1,1,1.7,2.3,1.9,3.7s-0.1,2.9-0.9,4.1c-0.8,1.1-1.3,2.4-1.5,3.8
		c0,1.7,1.5,3.2,1.1,4.9s-4,2.3-5.4,4.2c-0.5,0.7-0.7,1.6-0.7,2.4s0.2,1.7,0.7,2.4c1,1.3,2.2,2.6,3.4,3.8c0.8,1,1.5,2.5,0.6,3.5
		s-1.4,0.7-2.2,1c-0.6,0.3-1.1,0.9-1.3,1.6s-0.2,1.4,0,2.1c0.5,1,1.6,1.7,1.8,2.9c0.3,1.2-1.8,3.4-2.5,5.3c-0.3,1.1-0.2,2.2,0.1,3.2
		c0.4,1,1,1.9,1.8,2.6c1.7,1.4,3.2,3,4.4,4.9c0.7,1.9,0.9,4,0.6,6.1c0,3.8-0.5,7.6-0.8,11.4c-1.4,1.3-2.3,3.1-2.6,4.9
		c-0.3,1.9,0,3.8,0.8,5.5c1.7,2.2,3.6,4.2,5.6,6c2.7,3.9,4.3,8.3,4.7,13c0.2,0.8,0.2,1.6,0,2.4s-0.6,1.5-1,2.3
		c-2.5,5.3,2.4,11.4,1.3,17.1c-0.3,1.1-0.5,2.2-0.4,3.4c0,1.8,1.9,2.9,2.9,4.3c1.3,1.9,2.1,4.1,2.4,6.4c0.8,2.8,0.5,5.8-0.9,8.3
		c-2.7,3.7-8.9,3.2-11.9,6.8c-0.4,0.5-0.8,0.9-1.2,1.2c-0.6,0.2-1.2,0.2-1.8,0s-1.1-0.5-1.4-1c-0.7-1-1.3-2.1-1.8-3.3
		c-0.8-1.3-1.9-2.3-3.2-3.1c-1.3-0.7-2.8-1.1-4.3-1.2c-1.5,0.1-3,0.5-4.3,1.3s-2.4,1.9-3.1,3.2c0,0.5-0.4,1-1,1.2
		c-0.4,0.1-0.7,0.1-1.1,0c-1.6-0.2-3.2-0.6-4.7-1.3c-2-0.8-3.3,2.5-2.5,4.5c1.2,1.9,2.2,3.8,3,5.8c0.6,2.5-0.8,5.3,0,7.9
		c0.8,2.7,3.3,5.4,2.9,8.4c0,1.5-1.2,3.1-0.6,4.5c0.5,1.4,4.3,1.5,6.3,2.8c1.1,0.9,1.9,2.2,2.3,3.6c1.4,3.2,1.9,6.7,1.3,10.2
		c-1.2,3.9-5.1,6.8-6,10.8c-0.5,2.9,0.6,6.1,0,9s-2.9,4.7-3.5,6.8c-0.5,2.2,1.4,6.8,1.3,10.3c-0.3,2.1-0.6,4.3-1.2,6.4
		c0.1,5,2,9.9,5.3,13.7c3.3,5.3,7.5,9.9,12.5,13.7c1.5,0.8,2.8,1.9,3.8,3.3c0.5,1.1,0.5,2.3,1,3.4c1.3,2.7,5,2.8,7.9,2.6
		c2.5,2.2,4.7,4.9,6.8,6.8c1.3,1.2,2.8,2.6,2.7,4.4s-1,2.3-1,3.5s2.5,3.7,1.8,5.8c-0.6,2.1-5.5,1.1-7.4,3.3
		c-1.8,2.2-0.9,3.3-2.3,3.9c-1.4,0.6-2.8-0.6-4.2-0.4s-2.6,2.7-2.3,4.4c0.6,1.8,0.8,3.7,0.5,5.5c-0.7,2-2.9,3.6-2.3,5.6
		c0.5,2,6.3,1.6,8.1,4.2c1.8,2.7,0,4-1,5.9c-1,1.8-1.6,4.5,0,5.6s4-0.5,4.9-2.3c1-1.9,2.1-3.2,3.4-2.4c1.3,0.8,0,2.7,1,4.1
		c1.1,2.5,5.9,0.4,7.3,2.8c1.4,2.4-0.3,3.5,0,5.1c1.3,2.9,6.8,0.7,8.3,3.5c0.2,0.6,0.2,1.2,0.2,1.9c-0.1,0.6-0.3,1.2-0.7,1.7
		c-1.5,2.2-3.3,4.2-5.3,6c-2.5,2.4-4.3,5.5-5.2,8.9"/>
	<path class="st1" d="M612.7,2081.2c-0.4,1.7-0.4,3.5,0.1,5.1c0.5,1.7,1.4,3.2,2.6,4.4c1.7,1.5,4.4,3,3.9,5.3
		c-0.2,0.5-0.3,1-0.3,1.5c0,1.4,2.1,1.4,3.2,2.3c1.1,0.8,0.9,4-0.6,5.5c-1.5,1.4-2.7,2-3.9,3.1l-12.2,2.3c-2.4,0.5-4.8,0.5-7.2,0
		c-7.4-1.8-8.1-11.8-11.2-18.8c-1.2-2.8-3-5.3-5.3-7.3c-2.2-2.1-4.9-3.6-7.7-4.7c-6.1-1.7-12.4-2.1-18.7-1.2
		c-9.5,0.8-19.1,1.6-28.7,1.6c-6.7,0.1-13.4-0.2-20.1-0.8c0-0.3,0-0.6,0-0.9c-1.2-2.4-3.1-4.7-2.9-7.2c0.3-2.5,1.2-3.1,0.9-4.6
		s-1.9-2.7-3.4-3.6c-6.1-3.8-11.3-8.9-15.3-14.9c-0.7-1-1.2-2.2-1.2-3.5c0-2.7,3.4-4.1,4.3-6.8c0.9-2.7-2.7-6.9-2.9-10.6
		c-0.3-3.8,4.2-7.5,8.1-9.4c4-1.9,8.6-4.5,9-8.9c0.3-4.4-4.8-9.1-3.1-13.7c0.8-2.1,2.8-3.5,3.1-5.7c-0.1-0.6-0.1-1.1,0-1.7
		c0.3-0.7,0.8-1.2,1.4-1.5c0.6-0.3,1.4-0.4,2.1-0.2c0.7,0.2,1.4,0.5,1.9,0.9c0.6,0.4,1.1,1,1.4,1.6c0.5,0.9,1.2,1.8,2.2,2.1
		c0.6,0.1,1.2-0.1,1.7-0.4s0.9-0.8,1.1-1.4c0.3-1.4,0.3-2.8-0.2-4.2c-0.4-1.4-1.2-2.6-2.3-3.5c-2.1-1.9-3.8-4.2-4.9-6.8
		c-0.1-0.3-0.2-0.6-0.2-1c0-0.3,0.1-0.7,0.2-1c0.3-0.5,0.7-0.8,1.2-1s1-0.2,1.5,0c1,0.4,1.9,1,2.7,1.8c0.9,0.9,2.6,0,3-1.2
		c0.2-0.6,0.2-1.2,0.1-1.9c-0.1-0.6-0.4-1.2-0.7-1.7c-1.7-3.1-4.3-5.8-7.4-7.5c-1-0.5-1.9-1.1-2.7-1.8c-0.7-0.9-1.3-2-1.6-3.1
		c-0.6-1.8-1.3-3.6-1.9-5.4c-0.4-0.9-0.6-1.8-0.5-2.8c0.2-0.8,0.5-1.5,1-2.2l3.6-6.2c-1.4-2.7-2.3-5.7-3.6-8.3
		c-0.3-0.7-0.5-1.3-0.7-2.1c0-1.7,1.2-3.2,1.7-4.8c0.2-1.5,0.2-2.9,0-4.4c0-0.7,0.1-1.5,0.5-2.1c0.4-0.7,0.9-1.2,1.5-1.6
		c0.8-0.2,1.6-0.2,2.4,0c6.8,0.1,13.5,1.9,19.4,5.3c1,0.9,2.2,1.6,3.6,2.1c0.3,0.2,0.6,0.3,0.9,0.3c0.3,0,0.7,0,1-0.1
		s0.6-0.3,0.9-0.5c0.2-0.2,0.5-0.5,0.6-0.8s0.2-0.6,0.2-1c0-0.3,0-0.7-0.2-1c-0.1-0.3-0.3-0.6-0.5-0.8s-0.5-0.4-0.8-0.5
		c-0.9-0.6-1.9-1-3-1.2c-3.2-0.9-6.1-2.6-8.5-5c-2.4-2.3-4.2-5.2-5.2-8.3c-0.3-1.5-0.9-2.9-1.6-4.2c-1.1-1.8-3.1-2.9-4.2-4.7
		c-0.7-1.9-1.6-3.6-2.7-5.3c-1-1-2.3-1.6-3-2.7c-0.3-0.8-0.4-1.6-0.2-2.5c0.2-0.8,0.6-1.6,1.3-2.1c1.3-1.1,2.7-2,4.2-2.7
		c4.6-1.9,8.8-4.6,12.5-7.9c0.7-0.8,1.6-1.6,2.7-1.4c0.4,0.2,0.7,0.4,1,0.7c2.8,2.8,1.2,7.6,2.7,11.3c0.5,1.1,1.1,2.2,1.7,3.2
		c1.1,2.9,2.6,5.6,4.4,8.1c1.1,1.2,2.7,2.1,4,3.3c0.6,0.6,1.1,1.2,1.4,2l-1.8-16.6c-0.3-3-0.8-6-1.5-9c-0.7-1.9-1.1-3.9-1.1-5.9
		c0.3-1.5,0.7-3.1,1.3-4.5c1-3.4,1.6-7,1.8-10.6c0.3-2.1,0.1-4.2-0.6-6.2c-0.4-1-1.1-1.7-2.1-2.2c-0.9-0.4-2-0.5-3-0.1
		c-1.7,0.8-2.3,2.9-3.9,4c-3,1.8-6.8-1.4-10.3-1.2c-2,0-3.8,1.4-5.7,1.3c-0.9-0.1-1.8-0.4-2.6-0.9l-4.9-2.3
		c-1.2-0.5-2.3-1.2-3.1-2.1c-0.5-0.7-0.9-1.6-1.4-2.3c-0.6-0.9-1.4-1.6-2.3-2.1c-0.9-0.5-2-0.7-3-0.6c-0.6-4,5.7-4.5,6.8-8.4
		c0-0.9,0-1.8,0.4-2.7c0.5-1.5,1.5-2.9,2.8-3.9l9.1-8.5c1.5-1.6,3.4-2.9,5.5-3.6c1.4-0.2,2.8-0.2,4.2,0c5.2-0.2,10-2.4,13.7-6
		c1.1-1.3,2.3-2.4,3.7-3.4c1.1-0.8,2.5-1.1,3.6-1.8c1.2-1.2,2.2-2.8,2.6-4.5c0.5-1.7,0.5-3.5,0.1-5.2c-0.8-3.4-0.6-7,0.6-10.3
		c0.5-0.7,0.8-1.5,1-2.3c-0.1-0.6-0.2-1.1-0.4-1.6c-0.1-2.5,0.3-5,1.2-7.3c0.5-2.5-0.8-5.8-3.3-5.4c-0.7,0.2-1.4,0.6-1.8,1.2
		c-0.5,0.6-0.7,1.3-0.8,2.1c0,1.6,0.3,3.1,0.7,4.7c0.6,4.6,0.1,9.3-1.5,13.7c-1,3.6-2.4,7.1-4.2,10.3c-2.2,4-5.9,7.1-10.2,8.7
		c-2.2,0.8-4.5,0.9-6.7,0.5s-4.3-1.5-6-3c-1.3-1.3-2.4-2.8-3.3-4.5c-2-3.1-3.7-6.4-5.2-9.7c-0.7-1.9-1.7-3.6-2.9-5.1
		c-1-0.9-2.1-1.7-3.4-2.2c-4-2.4-8.4-4.1-13-4.9c-2.3-0.4-4.7-0.1-6.9,0.8s-4.1,2.3-5.5,4.1c-3.9,6.1,0,14.8-3.6,21.1
		c-1.5,3.1-4.7,5.8-4,9.2c0,1.2,1,2.3,0.9,3.5c-0.2,0.6-0.5,1.2-1,1.7s-1,0.9-1.6,1.1c-2,1-4.2,1.6-6.4,1.8s-4.5-0.1-6.6-0.8
		c-3.4-1.2-6.8-3.6-10.2-2.3c-3.4,1.2-4.7,4.7-7.7,5.8c-1.7,0.4-3.4,0.4-5.1,0l-22.8-4.3c0.8-3.7,2.5-7.1,4.9-9.9
		c1.4-1.6,3.1-3.2,3.1-5.2c-0.2-1.1-0.6-2-1.3-2.9c-0.7-0.8-1.5-1.5-2.5-1.9c-2-0.8-3.8-1.9-5.4-3.3c-1.2,2.4-5.1,1.2-6.5-1.2
		c-0.9-2.5-1.9-4.9-3.1-7.3c-1.2-1.4-3-2.3-3.8-3.9c-0.6-1.9-0.6-4,0-6c1.3-5.5,0.8-11.3-1.5-16.6c-1.5-3.6-1.3-8-2.9-11.6
		c-2.3-3.4-4.3-7-6-10.7c-0.2-2.6-0.6-5.1-1.1-7.6c-0.8-2.1-2.5-3.8-2.5-6c0-3.2,3.2-5.4,6-6.8c2.7-1.4,5.7-4.5,4.7-7.6
		c-0.5-1.6-2.2-2.7-2.9-4.4c-1.3-2.9,0.9-6.2,2.4-9c2.2-4.4,2.8-9.5,1.6-14.2c-0.2-0.5-0.3-1-0.3-1.5s0.1-1,0.4-1.5
		c0.2-0.5,0.5-0.9,0.9-1.2s0.9-0.6,1.3-0.7c3.6-1.9,6.4-5,7.9-8.7c0.7-1.9,0.8-3.9,0.3-5.8s-1.7-3.6-3.2-4.9c-1-0.5-1.9-1.2-2.6-2.1
		c-0.6-1.3-0.8-2.8-0.4-4.2c0.8-7-0.2-14-2.9-20.5c0.2-0.7,0.6-1.3,1.1-1.9c0.5-0.5,1.1-0.9,1.8-1.1c4.5,0.8,8.8,2.3,12.8,4.5
		c9.9,5.4,19.5,13,30.9,12.9c13.3,0,26.6-10.7,38.7-5.1c11,5.1,13,20.5,22.4,28c7.5,4.9,16.5,6.8,25.3,5.4
		c20.6-1.6,40.5-7.6,58.6-17.6c0,2.5-0.9,5.1,0,7.3c0.5,0.9,1.3,1.6,1.2,2.7c-0.2,0.6-0.5,1.2-1,1.6c-1.2,1.3-2.8,2.5-4,4
		c-0.6,0.7-1,1.6-1.2,2.5s-0.3,1.9-0.1,2.8c0.8,2.8,0.5,5.5,1.1,8.5c0.2,3,1.4,5.9,3.4,8.2c1.2,1.3,3,2.1,4.2,3.4
		c0.5,0.7,0.9,1.5,1.1,2.4c0.2,0.9,0.1,1.8-0.1,2.6c-0.2,0.9-0.6,1.7-1.2,2.3c-0.6,0.7-1.3,1.2-2.1,1.6c-0.7,0.2-1.4,0.5-2,1
		c-1.4,1.4,0,3.8,1.7,4.7c1.9,0.5,3.7,1.2,5.4,2.1c1.1,1,1.7,2.3,1.9,3.7s-0.1,2.9-0.9,4.1c-0.8,1.1-1.3,2.4-1.5,3.8
		c0,1.7,1.5,3.2,1.1,4.9s-4,2.3-5.4,4.2c-0.5,0.7-0.7,1.6-0.7,2.4s0.2,1.7,0.7,2.4c1,1.3,2.2,2.6,3.4,3.8c0.8,1,1.5,2.5,0.6,3.5
		s-1.4,0.7-2.2,1c-0.6,0.3-1.1,0.9-1.3,1.6s-0.2,1.4,0,2.1c0.5,1,1.6,1.7,1.8,2.9c0.3,1.2-1.8,3.4-2.5,5.3c-0.3,1.1-0.2,2.2,0.1,3.2
		c0.4,1,1,1.9,1.8,2.6c1.7,1.4,3.2,3,4.4,4.9c0.7,1.9,0.9,4,0.6,6.1c0,3.8-0.5,7.6-0.8,11.4c-1.4,1.3-2.3,3.1-2.6,4.9
		c-0.3,1.9,0,3.8,0.8,5.5c1.7,2.2,3.6,4.2,5.6,6c2.7,3.9,4.3,8.3,4.7,13c0.2,0.8,0.2,1.6,0,2.4s-0.6,1.5-1,2.3
		c-2.5,5.3,2.4,11.4,1.3,17.1c-0.3,1.1-0.5,2.2-0.4,3.4c0,1.8,1.9,2.9,2.9,4.3c1.3,1.9,2.1,4.1,2.4,6.4c0.8,2.8,0.5,5.8-0.9,8.3
		c-2.7,3.7-8.9,3.2-11.9,6.8c-0.4,0.5-0.8,0.9-1.2,1.2c-0.6,0.2-1.2,0.2-1.8,0s-1.1-0.5-1.4-1c-0.7-1-1.3-2.1-1.8-3.3
		c-0.8-1.3-1.9-2.3-3.2-3.1c-1.3-0.7-2.8-1.1-4.3-1.2c-1.5,0.1-3,0.5-4.3,1.3s-2.4,1.9-3.1,3.2c0,0.5-0.4,1-1,1.2
		c-0.4,0.1-0.7,0.1-1.1,0c-1.6-0.2-3.2-0.6-4.7-1.3c-2-0.8-3.3,2.5-2.5,4.5c1.2,1.9,2.2,3.8,3,5.8c0.6,2.5-0.8,5.3,0,7.9
		c0.8,2.7,3.3,5.4,2.9,8.4c0,1.5-1.2,3.1-0.6,4.5c0.5,1.4,4.3,1.5,6.3,2.8c1.1,0.9,1.9,2.2,2.3,3.6c1.4,3.2,1.9,6.7,1.3,10.2
		c-1.2,3.9-5.1,6.8-6,10.8c-0.5,2.9,0.6,6.1,0,9s-2.9,4.7-3.5,6.8c-0.5,2.2,1.4,6.8,1.3,10.3c-0.3,2.1-0.6,4.3-1.2,6.4
		c0.1,5,2,9.9,5.3,13.7c3.3,5.3,7.5,9.9,12.5,13.7c1.5,0.8,2.8,1.9,3.8,3.3c0.5,1.1,0.5,2.3,1,3.4c1.3,2.7,5,2.8,7.9,2.6
		c2.5,2.2,4.7,4.9,6.8,6.8c1.3,1.2,2.8,2.6,2.7,4.4s-1,2.3-1,3.5s2.5,3.7,1.8,5.8c-0.6,2.1-5.5,1.1-7.4,3.3
		c-1.8,2.2-0.9,3.3-2.3,3.9c-1.4,0.6-2.8-0.6-4.2-0.4s-2.6,2.7-2.3,4.4c0.6,1.8,0.8,3.7,0.5,5.5c-0.7,2-2.9,3.6-2.3,5.6
		c0.5,2,6.3,1.6,8.1,4.2c1.8,2.7,0,4-1,5.9c-1,1.8-1.6,4.5,0,5.6s4-0.5,4.9-2.3c1-1.9,2.1-3.2,3.4-2.4c1.3,0.8,0,2.7,1,4.1
		c1.1,2.5,5.9,0.4,7.3,2.8c1.4,2.4-0.3,3.5,0,5.1c1.3,2.9,6.8,0.7,8.3,3.5c0.2,0.6,0.2,1.2,0.2,1.9c-0.1,0.6-0.3,1.2-0.7,1.7
		c-1.5,2.2-3.3,4.2-5.3,6C614.9,2074.4,613.3,2077.7,612.7,2081.2L612.7,2081.2z"/>
	<path class="st0" d="M379,1935.8c-1.8-6.8-8.4-12.7-8-19.9c0-4.7,3.4-9,2.7-13.7c-0.5-3.6-3.5-6.8-3.1-10.3s5.9-6.8,8.8-10.3
		c5.3-6.4,2.5-15.8,2.3-24c-0.1-4.7,0.7-9.4,2.5-13.7c0.4-0.8,0.7-1.7,0.7-2.6c0-2.2-2.9-3.1-4-4.9c-1.2-1.9,0.5-6.8,3.6-7.7
		c3.2-0.7,6.6-0.4,9.6,0.9c-0.9,2.4-2.6,4.4-4.9,5.7c3.4,2,7.3,2.8,11.2,2.4c3.9-0.5,7.5-2.3,10.3-5c2.6-2.8,5.5-6.8,9.2-6
		c2.1,0.6,3.8,2.9,6,2.4s2.3-1.9,3.8-2.2c0.9-0.1,1.8,0.1,2.6,0.7c0.7,0.5,1.2,1.4,1.3,2.3c0.2,1.8-0.1,3.7-1,5.3
		c-1.7,4-4,7.7-6.8,11.1c3.3,2.7,6.8,5,10.6,6.8c3.5,2.4,6.2,7.2,3.9,10.8c-0.8,1.1-1.9,1.9-2.5,3.1c-1.7,3.5,2.3,6.8,5.1,9.7
		c3.2,3.2,5.2,7.3,5.7,11.8c0.2,0.7,0.2,1.5,0,2.2c-0.1,0.7-0.4,1.4-0.9,2c-1,0.9-2.2,1.5-3.5,1.6l-11.5,2.8
		c-3.8,0.4-7.3,2.3-9.6,5.3c-0.9,1.6-1.1,3.5-0.7,5.3c0.4,1.8,1.5,3.3,3.1,4.3c-2.1,0.6-4.7,1.8-4.5,4c0,3.6,6.8,3.1,7.7,6.8
		c-4.3,0.7-8.4,2.1-12.2,4.2c-3.4,2.5-5,8.3-1.6,11.1c3.4,2.7,8.3,1,11,4c2.6,2.9,1.4,5.1,3.1,6.8c1.2,1.1,2.7,1.9,4.2,2.4
		c3.3,1.5,6.1,3.9,8.1,6.8c1,1.2,1.5,2.6,1.5,4.2c0,3.2-4,5-6.8,4.3c-3-1-5.7-2.8-7.7-5.3c-1.4,1.2-3,2-4.7,2.6
		c-1.7,0.5-3.5,0.7-5.3,0.6c-1.2,1.8,1.6,3.8,3.8,3.8c2.2-0.1,4.8-1,6.4,0.5c1.6,1.5,1,4.5,1.5,6.8c0.8,3.4,4,5.3,6.3,7.9
		s2.8,7.5-0.5,8.6c-1.1,4,7.2,4.4,7.9,8.5c0.1,0.5,0,1.1-0.1,1.6c-0.2,0.5-0.4,1-0.8,1.4c-0.4,0.4-0.8,0.7-1.3,0.9s-1,0.3-1.6,0.3
		c-0.9,0.1-1.9,0-2.8-0.3s-1.7-0.8-2.5-1.4c-1.3-1-2.8-2.4-4.4-2c-1.6,0.4-2.9,4.5-5.5,5.1c-0.8-1.2-1.3-2.6-1.4-4
		c-0.3-1.4-1.6-2.9-2.9-2.5c-0.5,0.2-1,0.6-1.3,1.1c-0.8,1.7-1.1,3.6-0.9,5.5c0.2,1.9,1,3.7,2.2,5.1c2.5,2.9,4.4,6.2,5.8,9.7
		c0.9,3.7-1.3,8.5-5.1,8.4c1.9,1.2,3.6,2.7,4.8,4.7c0.6,1,0.8,2.1,0.6,3.2s-0.7,2.1-1.5,2.9c-2.3,1.7-5.8,0-8.3,1.5
		c-1.2,0.5-2.1,1.6-3.3,1.9c-1.3,0.1-2.6-0.2-3.7-1c-5.2-2.8-9.8-6.5-13.7-10.9c-3.1-1-4.8,4.4-8,4.4c-1.5,0-2.9-1.2-4.4-1.1
		s-2,1-3.1,1.1s-3.4-1.7-4.9-2.9c-4.2-3.3-10.4-1.4-15.7-2.3c-1.6-0.2-3.1-1-4.1-2.2c-2.2-3,0.5-6.8,3.1-9.7s5.5-6.9,3.6-9.7
		c-1-1.6-3.1-2.7-3.1-4.6c-0.1-1.9,1.5-2.9,2.9-3.9c3.8-2.8,7-6.3,9.3-10.4c0.8-1.2,1.3-2.5,1.5-4c-0.1-2-0.5-3.9-1.2-5.8
		c-0.3-0.9-0.4-1.9-0.1-2.9s0.9-1.8,1.6-2.4c0.8-0.4,1.8-0.4,2.7-0.8c1-0.4,1.8-1.2,2.3-2.1c0.6-0.9,0.9-1.9,0.9-3c0-2-0.4-4-1-5.9
		c-1.1-5-1.2-10.2-0.3-15.3c1.2-4,1.5-8.2,0.8-12.3"/>
	<path class="st1" d="M379,1935.8c-1.8-6.8-8.4-12.7-8-19.9c0-4.7,3.4-9,2.7-13.7c-0.5-3.6-3.5-6.8-3.1-10.3s5.9-6.8,8.8-10.3
		c5.3-6.4,2.5-15.8,2.3-24c-0.1-4.7,0.7-9.4,2.5-13.7c0.4-0.8,0.7-1.7,0.7-2.6c0-2.2-2.9-3.1-4-4.9c-1.2-1.9,0.5-6.8,3.6-7.7
		c3.2-0.7,6.6-0.4,9.6,0.9c-0.9,2.4-2.6,4.4-4.9,5.7c3.4,2,7.3,2.8,11.2,2.4c3.9-0.5,7.5-2.3,10.3-5c2.6-2.8,5.5-6.8,9.2-6
		c2.1,0.6,3.8,2.9,6,2.4s2.3-1.9,3.8-2.2c0.9-0.1,1.8,0.1,2.6,0.7c0.7,0.5,1.2,1.4,1.3,2.3c0.2,1.8-0.1,3.7-1,5.3
		c-1.7,4-4,7.7-6.8,11.1c3.3,2.7,6.8,5,10.6,6.8c3.5,2.4,6.2,7.2,3.9,10.8c-0.8,1.1-1.9,1.9-2.5,3.1c-1.7,3.5,2.3,6.8,5.1,9.7
		c3.2,3.2,5.2,7.3,5.7,11.8c0.2,0.7,0.2,1.5,0,2.2c-0.1,0.7-0.4,1.4-0.9,2c-1,0.9-2.2,1.5-3.5,1.6l-11.5,2.8
		c-3.8,0.4-7.3,2.3-9.6,5.3c-0.9,1.6-1.1,3.5-0.7,5.3c0.4,1.8,1.5,3.3,3.1,4.3c-2.1,0.6-4.7,1.8-4.5,4c0,3.6,6.8,3.1,7.7,6.8
		c-4.3,0.7-8.4,2.1-12.2,4.2c-3.4,2.5-5,8.3-1.6,11.1c3.4,2.7,8.3,1,11,4c2.6,2.9,1.4,5.1,3.1,6.8c1.2,1.1,2.7,1.9,4.2,2.4
		c3.3,1.5,6.1,3.9,8.1,6.8c1,1.2,1.5,2.6,1.5,4.2c0,3.2-4,5-6.8,4.3c-3-1-5.7-2.8-7.7-5.3c-1.4,1.2-3,2-4.7,2.6
		c-1.7,0.5-3.5,0.7-5.3,0.6c-1.2,1.8,1.6,3.8,3.8,3.8c2.2-0.1,4.8-1,6.4,0.5c1.6,1.5,1,4.5,1.5,6.8c0.8,3.4,4,5.3,6.3,7.9
		s2.8,7.5-0.5,8.6c-1.1,4,7.2,4.4,7.9,8.5c0.1,0.5,0,1.1-0.1,1.6c-0.2,0.5-0.4,1-0.8,1.4c-0.4,0.4-0.8,0.7-1.3,0.9s-1,0.3-1.6,0.3
		c-0.9,0.1-1.9,0-2.8-0.3s-1.7-0.8-2.5-1.4c-1.3-1-2.8-2.4-4.4-2c-1.6,0.4-2.9,4.5-5.5,5.1c-0.8-1.2-1.3-2.6-1.4-4
		c-0.3-1.4-1.6-2.9-2.9-2.5c-0.5,0.2-1,0.6-1.3,1.1c-0.8,1.7-1.1,3.6-0.9,5.5c0.2,1.9,1,3.7,2.2,5.1c2.5,2.9,4.4,6.2,5.8,9.7
		c0.9,3.7-1.3,8.5-5.1,8.4c1.9,1.2,3.6,2.7,4.8,4.7c0.6,1,0.8,2.1,0.6,3.2s-0.7,2.1-1.5,2.9c-2.3,1.7-5.8,0-8.3,1.5
		c-1.2,0.5-2.1,1.6-3.3,1.9c-1.3,0.1-2.6-0.2-3.7-1c-5.2-2.8-9.8-6.5-13.7-10.9c-3.1-1-4.8,4.4-8,4.4c-1.5,0-2.9-1.2-4.4-1.1
		s-2,1-3.1,1.1s-3.4-1.7-4.9-2.9c-4.2-3.3-10.4-1.4-15.7-2.3c-1.6-0.2-3.1-1-4.1-2.2c-2.2-3,0.5-6.8,3.1-9.7s5.5-6.9,3.6-9.7
		c-1-1.6-3.1-2.7-3.1-4.6c-0.1-1.9,1.5-2.9,2.9-3.9c3.8-2.8,7-6.3,9.3-10.4c0.8-1.2,1.3-2.5,1.5-4c-0.1-2-0.5-3.9-1.2-5.8
		c-0.3-0.9-0.4-1.9-0.1-2.9s0.9-1.8,1.6-2.4c0.8-0.4,1.8-0.4,2.7-0.8c1-0.4,1.8-1.2,2.3-2.1c0.6-0.9,0.9-1.9,0.9-3c0-2-0.4-4-1-5.9
		c-1.1-5-1.2-10.2-0.3-15.3C379.3,1944.3,379.7,1940,379,1935.8L379,1935.8z"/>
	<path class="st3" d="M649.8,286.7c6.4,0,11.6-5.2,11.6-11.6s-5.2-11.6-11.6-11.6c-6.4,0-11.6,5.2-11.6,11.6
		C638.3,281.5,643.4,286.7,649.8,286.7z"/>
	<path class="st3" d="M683.1,362.8c6.4,0,11.6-5.2,11.6-11.6s-5.2-11.6-11.6-11.6c-6.4,0-11.6,5.2-11.6,11.6
		C671.5,357.6,676.7,362.8,683.1,362.8z"/>
	<path class="st3" d="M681,637c6.4,0,11.6-5.2,11.6-11.6s-5.2-11.6-11.6-11.6c-6.4,0-11.6,5.2-11.6,11.6S674.6,637,681,637z"/>
	<path class="st3" d="M699.8,640.4c6.4,0,11.6-5.2,11.6-11.6s-5.2-11.6-11.6-11.6c-6.4,0-11.6,5.2-11.6,11.6
		C688.3,635.3,693.5,640.4,699.8,640.4z"/>
	<path class="st3" d="M716.5,648.5c6.4,0,11.6-5.2,11.6-11.6s-5.2-11.6-11.6-11.6c-6.4,0-11.6,5.2-11.6,11.6
		C705,643.3,710.2,648.5,716.5,648.5z"/>
	<path class="st3" d="M741,723.9c6.4,0,11.6-5.2,11.6-11.6s-5.2-11.6-11.6-11.6c-6.4,0-11.6,5.2-11.6,11.6
		C729.5,718.7,734.7,723.9,741,723.9z"/>
	<path class="st3" d="M729.5,730.5c6.4,0,11.6-5.2,11.6-11.6c0-6.4-5.2-11.6-11.6-11.6c-6.4,0-11.6,5.2-11.6,11.6
		S723.1,730.5,729.5,730.5z"/>
	<path class="st3" d="M704.6,752.5c6.4,0,11.6-5.2,11.6-11.6c0-6.4-5.2-11.6-11.6-11.6c-6.4,0-11.6,5.2-11.6,11.6
		C693,747.4,698.2,752.5,704.6,752.5z"/>
	<path class="st3" d="M739.7,778.5c6.4,0,11.6-5.2,11.6-11.6s-5.2-11.6-11.6-11.6c-6.4,0-11.6,5.2-11.6,11.6
		S733.3,778.5,739.7,778.5z"/>
	<path class="st3" d="M655.1,728.9c6.4,0,11.6-5.2,11.6-11.6s-5.2-11.6-11.6-11.6c-6.4,0-11.6,5.2-11.6,11.6
		S648.7,728.9,655.1,728.9z"/>
	<path class="st3" d="M695.9,895.7c6.4,0,11.6-5.2,11.6-11.6s-5.2-11.6-11.6-11.6c-6.4,0-11.6,5.2-11.6,11.6
		S689.5,895.7,695.9,895.7z"/>
	<path class="st3" d="M670.2,890.9c6.4,0,11.6-5.2,11.6-11.6s-5.2-11.6-11.6-11.6c-6.4,0-11.6,5.2-11.6,11.6
		S663.8,890.9,670.2,890.9z"/>
	<path class="st3" d="M693.6,860.1c6.4,0,11.6-5.2,11.6-11.6c0-6.4-5.2-11.6-11.6-11.6c-6.4,0-11.6,5.2-11.6,11.6
		C682.1,854.9,687.2,860.1,693.6,860.1z"/>
	<path class="st3" d="M712.2,841.7c6.4,0,11.6-5.2,11.6-11.6c0-6.4-5.2-11.6-11.6-11.6c-6.4,0-11.6,5.2-11.6,11.6
		S705.8,841.7,712.2,841.7z"/>
	<path class="st3" d="M700.6,827.3c6.4,0,11.6-5.2,11.6-11.6c0-6.4-5.2-11.6-11.6-11.6c-6.4,0-11.6,5.2-11.6,11.6
		S694.2,827.3,700.6,827.3z"/>
	<path class="st3" d="M674,848.5c6.4,0,11.6-5.2,11.6-11.6c0-6.4-5.2-11.6-11.6-11.6c-6.4,0-11.6,5.2-11.6,11.6
		C662.5,843.3,667.7,848.5,674,848.5z"/>
	<path class="st3" d="M662.1,841.7c6.4,0,11.6-5.2,11.6-11.6c0-6.4-5.2-11.6-11.6-11.6c-6.4,0-11.6,5.2-11.6,11.6
		C650.6,836.5,655.7,841.7,662.1,841.7z"/>
	<path class="st3" d="M609.2,991.1c6.4,0,11.6-5.2,11.6-11.6s-5.2-11.6-11.6-11.6c-6.4,0-11.6,5.2-11.6,11.6
		S602.8,991.1,609.2,991.1z"/>
	<path class="st3" d="M572.3,972.6c6.4,0,11.6-5.2,11.6-11.6c0-6.4-5.2-11.6-11.6-11.6c-6.4,0-11.6,5.2-11.6,11.6
		C560.8,967.5,566,972.6,572.3,972.6z"/>
	<path class="st3" d="M608.1,965.8c6.4,0,11.6-5.2,11.6-11.6c0-6.4-5.2-11.6-11.6-11.6c-6.4,0-11.6,5.2-11.6,11.6
		S601.7,965.8,608.1,965.8z"/>
	<path class="st3" d="M634.1,952.1c6.4,0,11.6-5.2,11.6-11.6s-5.2-11.6-11.6-11.6c-6.4,0-11.6,5.2-11.6,11.6
		S627.7,952.1,634.1,952.1z"/>
	<path class="st3" d="M663,1019.1c6.4,0,11.6-5.2,11.6-11.6s-5.2-11.6-11.6-11.6c-6.4,0-11.6,5.2-11.6,11.6S656.6,1019.1,663,1019.1
		z"/>
	<path class="st3" d="M689,1026.6c6.4,0,11.6-5.2,11.6-11.6c0-6.4-5.2-11.6-11.6-11.6c-6.4,0-11.6,5.2-11.6,11.6
		C677.5,1021.4,682.6,1026.6,689,1026.6z"/>
	<path class="st3" d="M689,998.4c6.4,0,11.6-5.2,11.6-11.6c0-6.4-5.2-11.6-11.6-11.6c-6.4,0-11.6,5.2-11.6,11.6
		C677.5,993.3,682.6,998.4,689,998.4z"/>
	<path class="st3" d="M605,1297.5c6.4,0,11.6-5.2,11.6-11.6s-5.2-11.6-11.6-11.6c-6.4,0-11.6,5.2-11.6,11.6S598.6,1297.5,605,1297.5
		z"/>
	<path class="st3" d="M594,1203.3c6.4,0,11.6-5.2,11.6-11.6s-5.2-11.6-11.6-11.6c-6.4,0-11.6,5.2-11.6,11.6
		C582.4,1198.2,587.6,1203.3,594,1203.3z"/>
	<path class="st3" d="M579.7,1203.3c6.4,0,11.6-5.2,11.6-11.6s-5.2-11.6-11.6-11.6c-6.4,0-11.6,5.2-11.6,11.6
		C568.2,1198.2,573.3,1203.3,579.7,1203.3z"/>
	<path class="st3" d="M505.1,1172.4c6.4,0,11.6-5.2,11.6-11.6s-5.2-11.6-11.6-11.6c-6.4,0-11.6,5.2-11.6,11.6
		S498.7,1172.4,505.1,1172.4z"/>
	<path class="st3" d="M528.3,1149.1c6.4,0,11.6-5.2,11.6-11.6s-5.2-11.6-11.6-11.6c-6.4,0-11.6,5.2-11.6,11.6
		S521.9,1149.1,528.3,1149.1z"/>
	<path class="st3" d="M540.8,1160.9c6.4,0,11.6-5.2,11.6-11.6s-5.2-11.6-11.6-11.6c-6.4,0-11.6,5.2-11.6,11.6
		C529.2,1155.7,534.4,1160.9,540.8,1160.9z"/>
	<path class="st3" d="M609.2,1158.9c6.4,0,11.6-5.2,11.6-11.6s-5.2-11.6-11.6-11.6c-6.4,0-11.6,5.2-11.6,11.6
		S602.8,1158.9,609.2,1158.9z"/>
	<path class="st3" d="M531.9,1392c6.4,0,11.6-5.2,11.6-11.6s-5.2-11.6-11.6-11.6s-11.6,5.2-11.6,11.6S525.5,1392,531.9,1392z"/>
	<path class="st3" d="M522.2,1540.2c6.4,0,11.6-5.2,11.6-11.6s-5.2-11.6-11.6-11.6c-6.4,0-11.6,5.2-11.6,11.6
		C510.7,1535,515.9,1540.2,522.2,1540.2z"/>
	<path class="st3" d="M540.7,1638.1c6.4,0,11.6-5.2,11.6-11.6s-5.2-11.6-11.6-11.6c-6.4,0-11.6,5.2-11.6,11.6
		S534.3,1638.1,540.7,1638.1z"/>
	<path class="st3" d="M508.9,1660.8c6.4,0,11.6-5.2,11.6-11.6s-5.2-11.6-11.6-11.6c-6.4,0-11.6,5.2-11.6,11.6
		S502.5,1660.8,508.9,1660.8z"/>
	<path class="st3" d="M523.4,1705.5c6.4,0,11.6-5.2,11.6-11.6s-5.2-11.6-11.6-11.6c-6.4,0-11.6,5.2-11.6,11.6
		S517,1705.5,523.4,1705.5z"/>
	<path class="st3" d="M396,1929.8c6.4,0,11.6-5.2,11.6-11.6s-5.2-11.6-11.6-11.6c-6.4,0-11.6,5.2-11.6,11.6S389.6,1929.8,396,1929.8
		z"/>
	<path class="st4" d="M744.3,752.5c6.4,0,11.6-5.2,11.6-11.6c0-6.4-5.2-11.6-11.6-11.6c-6.4,0-11.6,5.2-11.6,11.6
		C732.7,747.4,737.9,752.5,744.3,752.5z"/>
	<polyline class="st5" points="837.7,191.2 683.1,191.2 683.1,351.2 	"/>
	<path class="st6" d="M1031.4,219.8H837.7c-1.9,0-3.4-1.5-3.4-3.4v-51.1c0-1.9,1.5-3.4,3.4-3.4h193.7c1.9,0,3.4,1.5,3.4,3.4v51.1
		C1034.8,218.3,1033.3,219.8,1031.4,219.8z"/>
	<polyline class="st5" points="495.4,104.5 650.1,104.5 650.1,275.1 	"/>
	<path class="st6" d="M299.9,134h193.7c1.9,0,3.4-1.5,3.4-3.4V79.5c0-1.9-1.5-3.4-3.4-3.4H299.9c-1.9,0-3.4,1.5-3.4,3.4v51.1
		C296.5,132.5,298,134,299.9,134z"/>
	<text transform="matrix(1 0 0 1 335.7632 111.9208)" class="st7 st8 st9">Puclaro - 2008</text>
	<text transform="matrix(1 0 0 1 862.5893 198.5057)" class="st7 st8 st9">Los Molles - 1952</text>
	<path class="st6" d="M271.6,223.2h193.7c1.9,0,3.4-1.5,3.4-3.4v-51.1c0-1.9-1.5-3.4-3.4-3.4H271.6c-1.9,0-3.4,1.5-3.4,3.4v51.1
		C268.2,221.7,269.7,223.2,271.6,223.2z"/>
	<path class="st6" d="M1030.2,503.5H836.5c-1.9,0-3.4-1.5-3.4-3.4V449c0-1.9,1.5-3.4,3.4-3.4h193.7c1.9,0,3.4,1.5,3.4,3.4v51.1
		C1033.6,502,1032.1,503.5,1030.2,503.5z"/>
	<polyline class="st5" points="699.6,630.3 699.6,430.8 790.4,430.8 790.4,384.2 892.1,384.2 	"/>
	<path class="st6" d="M1071.7,414.3H878.1c-1.9,0-3.4-1.5-3.4-3.4v-51.1c0-1.9,1.5-3.4,3.4-3.4h193.7c1.9,0,3.4,1.5,3.4,3.4v51.1
		C1075.1,412.7,1073.6,414.3,1071.7,414.3z"/>
	<polyline class="st5" points="654.6,711.2 654.6,393.8 570,393.8 570,283.2 464.8,283.2 	"/>
	<path class="st6" d="M313.6,312.1h193.7c1.9,0,3.4-1.5,3.4-3.4v-51.1c0-1.9-1.5-3.4-3.4-3.4H313.6c-1.9,0-3.4,1.5-3.4,3.4v51.1
		C310.2,310.6,311.7,312.1,313.6,312.1z"/>
	<text transform="matrix(1 0 0 1 870.7343 482.2318)" class="st7 st8 st9">Hornitos - 2008</text>
	<text transform="matrix(1 0 0 1 903.2787 392.9855)" class="st7 st8 st9">Los Quilos - 1943</text>
	<text transform="matrix(1 0 0 1 279.6817 201.0831)" class="st7 st8 st9">Chacabuquito - 2002</text>
	<text transform="matrix(1 0 0 1 334.544 290.1759)" class="st7 st8 st9">Mallarauco - 2011</text>
	<path class="st6" d="M1133.6,593H939.9c-1.9,0-3.4-1.5-3.4-3.4v-51.1c0-1.9,1.5-3.4,3.4-3.4h193.7c1.9,0,3.4,1.5,3.4,3.4v51.1
		C1137,591.5,1135.5,593,1133.6,593z"/>
	<text transform="matrix(1 0 0 1 984.4589 571.7367)" class="st7 st8 st9">Alfalfal - 1991</text>
	<polyline class="st5" points="702.6,741.1 613,741.1 613,425.4 530.4,425.4 530.4,373.1 450,373.1 	"/>
	<path class="st6" d="M267.3,402.4H461c1.9,0,3.4-1.5,3.4-3.4v-51.1c0-1.9-1.5-3.4-3.4-3.4H267.3c-1.9,0-3.4,1.5-3.4,3.4V399
		C263.9,400.8,265.4,402.4,267.3,402.4z"/>
	<polyline class="st5" points="715.9,631.1 715.9,474.6 833.1,474.6 	"/>
	<polyline class="st5" points="741.3,705.7 741.3,564.2 950.8,564.2 	"/>
	<path class="st6" d="M1043.2,682.7H849.5c-1.9,0-3.4-1.5-3.4-3.4v-51.1c0-1.9,1.5-3.4,3.4-3.4h193.7c1.9,0,3.4,1.5,3.4,3.4v51.1
		C1046.6,681.1,1045.1,682.7,1043.2,682.7z"/>
	<text transform="matrix(1 0 0 1 880.6947 661.4022)" class="st7 st8 st9">Maitenes - 1923</text>
	<path class="st6" d="M1170.2,769.8H976.5c-1.9,0-3.4-1.5-3.4-3.4v-51.1c0-1.9,1.5-3.4,3.4-3.4h193.7c1.9,0,3.4,1.5,3.4,3.4v51.1
		C1173.5,768.3,1172,769.8,1170.2,769.8z"/>
	<polyline class="st5" points="728.9,723.3 728.9,653.7 846.2,653.7 	"/>
	<text transform="matrix(1 0 0 1 295.2809 379.5553)" class="st7 st8 st9">Guayacn - 2010</text>
	<text transform="matrix(1 0 0 1 1021.4528 747.7971)" class="st7 st8 st9">Volcn - 1949</text>
	<polyline class="st5" points="689.6,1015.6 689.6,1093.2 785.9,1093.2 785.9,1203.2 997.9,1203.2 	"/>
	<path class="st6" d="M1161.9,1233.1H968.2c-1.9,0-3.4-1.5-3.4-3.4v-51.1c0-1.9,1.5-3.4,3.4-3.4h193.7c1.9,0,3.4,1.5,3.4,3.4v51.1
		C1165.3,1231.6,1163.8,1233.1,1161.9,1233.1z"/>
	<path class="st6" d="M998.6,1420.8H804.9c-1.9,0-3.4-1.5-3.4-3.4v-51.1c0-1.9,1.5-3.4,3.4-3.4h193.7c1.9,0,3.4,1.5,3.4,3.4v51.1
		C1002,1419.3,1000.5,1420.8,998.6,1420.8z"/>
	<path class="st6" d="M1094.9,1140.4H901.2c-1.9,0-3.4-1.5-3.4-3.4v-51c0-1.9,1.5-3.4,3.4-3.4h193.7c1.9,0,3.4,1.5,3.4,3.4v51.1
		C1098.3,1138.9,1096.8,1140.4,1094.9,1140.4z"/>
	<path class="st6" d="M961.3,1612.3H767.6c-1.9,0-3.4-1.5-3.4-3.4v-51.1c0-1.9,1.5-3.4,3.4-3.4h193.7c1.9,0,3.4,1.5,3.4,3.4v51.1
		C964.7,1610.8,963.2,1612.3,961.3,1612.3z"/>
	<polyline class="st5" points="521.5,1539.3 521.5,1591.1 611.2,1591.1 611.2,1680.8 686.7,1680.8 	"/>
	<path class="st6" d="M873.6,1708.2H679.9c-1.9,0-3.4-1.5-3.4-3.4v-51.1c0-1.9,1.5-3.4,3.4-3.4h193.7c1.9,0,3.4,1.5,3.4,3.4v51.1
		C877,1706.7,875.4,1708.2,873.6,1708.2z"/>
	<polyline class="st5" points="523.9,1693.9 523.9,1876.5 703.1,1876.5 	"/>
	<path class="st6" d="M866.2,1903.4H672.5c-1.9,0-3.4-1.5-3.4-3.4v-51.1c0-1.9,1.5-3.4,3.4-3.4h193.7c1.9,0,3.4,1.5,3.4,3.4v51.1
		C869.6,1901.8,868.1,1903.4,866.2,1903.4z"/>
	<path class="st6" d="M91.5,1634.9h193.6c1.9,0,3.4-1.5,3.4-3.4v-51.1c0-1.9-1.5-3.4-3.4-3.4H91.4c-1.9,0-3.4,1.5-3.4,3.4v51.1
		C88.1,1633.4,89.6,1634.9,91.5,1634.9z"/>
	<line class="st5" x1="273" y1="1918.6" x2="395.6" y2="1918.6"/>
	<path class="st6" d="M87.5,1948.2h193.7c1.9,0,3.4-1.5,3.4-3.4v-51.1c0-1.9-1.5-3.4-3.4-3.4H87.5c-1.9,0-3.4,1.5-3.4,3.4v51.1
		C84.1,1946.7,85.6,1948.2,87.5,1948.2z"/>
	<path class="st6" d="M68.8,1541.2h193.7c1.9,0,3.4-1.5,3.4-3.4v-51.1c0-1.9-1.5-3.4-3.4-3.4H68.8c-1.9,0-3.4,1.5-3.4,3.4v51.1
		C65.4,1539.7,66.9,1541.2,68.8,1541.2z"/>
	<path class="st6" d="M121.5,1453.3h193.6c1.9,0,3.4-1.5,3.4-3.4v-51.1c0-1.9-1.5-3.4-3.4-3.4H121.4c-1.9,0-3.4,1.5-3.4,3.4v51.1
		C118.1,1451.7,119.6,1453.3,121.5,1453.3z"/>
	<line class="st5" x1="711.6" y1="830.7" x2="914.2" y2="830.7"/>
	<path class="st6" d="M1105.6,859.6H911.9c-1.9,0-3.4-1.5-3.4-3.4v-51.1c0-1.9,1.5-3.4,3.4-3.4h193.7c1.9,0,3.4,1.5,3.4,3.4v51.1
		C1109,858.1,1107.5,859.6,1105.6,859.6z"/>
	<polyline class="st5" points="368.3,463.1 587.1,463.1 587.1,787.3 699.7,787.3 699.7,814 	"/>
	<path class="st6" d="M185.6,492h193.7c1.9,0,3.4-1.5,3.4-3.4v-51.1c0-1.9-1.5-3.4-3.4-3.4H185.6c-1.9,0-3.4,1.5-3.4,3.4v51.1
		C182.2,490.5,183.7,492,185.6,492z"/>
	<polyline class="st5" points="541.5,1627.5 541.5,1779.1 800.7,1779.1 	"/>
	<path class="st6" d="M973.7,1806H780.1c-1.9,0-3.4-1.5-3.4-3.4v-51.1c0-1.9,1.5-3.4,3.4-3.4h193.7c1.9,0,3.4,1.5,3.4,3.4v51.1
		C977.1,1804.5,975.6,1806,973.7,1806z"/>
	<polyline class="st5" points="595.6,1193.4 595.6,1245.2 685.2,1245.2 685.2,1484.9 876.7,1484.9 	"/>
	<path class="st6" d="M1056.8,1513.8H863.1c-1.9,0-3.4-1.5-3.4-3.4v-51.1c0-1.9,1.5-3.4,3.4-3.4h193.7c1.9,0,3.4,1.5,3.4,3.4v51.1
		C1060.2,1512.3,1058.7,1513.8,1056.8,1513.8z"/>
	<polyline class="st5" points="609.1,1151.3 609.1,1173.2 718.7,1173.2 718.7,1392.9 884.3,1392.9 	"/>
	<polyline class="st5" points="662.6,1009.5 662.6,1137 751.9,1137 751.9,1298.4 937.9,1298.4 	"/>
	<path class="st6" d="M1061.1,1326.3H867.4c-1.9,0-3.4-1.5-3.4-3.4v-51.1c0-1.9,1.5-3.4,3.4-3.4h193.7c1.9,0,3.4,1.5,3.4,3.4v51.1
		C1064.5,1324.8,1063,1326.3,1061.1,1326.3z"/>
	<polyline class="st5" points="674.5,837.6 674.5,860.1 528.9,860.1 528.9,637.4 386.3,637.4 	"/>
	<path class="st6" d="M196.8,666.3h193.7c1.9,0,3.4-1.5,3.4-3.4v-51.1c0-1.9-1.5-3.4-3.4-3.4H196.8c-1.9,0-3.4,1.5-3.4,3.4v51.1
		C193.4,664.8,194.9,666.3,196.8,666.3z"/>
	<polyline class="st5" points="739.7,766.9 891.3,766.9 891.3,741.1 974.5,741.1 	"/>
	<polyline class="st5" points="605,1284.3 605,1536.4 649.3,1536.4 649.3,1583.4 768.1,1583.4 	"/>
	<polyline class="st5" points="687.5,986.9 738.6,986.9 738.6,1040.9 813.3,1040.9 813.3,1112.6 904.3,1112.6 	"/>
	<polyline class="st5" points="693.6,848.5 781.6,848.5 781.6,919.2 957,919.2 	"/>
	<path class="st6" d="M1144.1,954.1H950.4c-1.9,0-3.4-1.5-3.4-3.4v-51.1c0-1.9,1.5-3.4,3.4-3.4h193.7c1.9,0,3.4,1.5,3.4,3.4v51.1
		C1147.4,952.6,1145.9,954.1,1144.1,954.1z"/>
	<polyline class="st5" points="695.9,884.1 695.9,957.1 852.7,957.1 852.7,1018.6 983.3,1018.6 	"/>
	<path class="st6" d="M1178,1045.8H984.3c-1.9,0-3.4-1.5-3.4-3.4v-51.1c0-1.9,1.5-3.4,3.4-3.4H1178c1.9,0,3.4,1.5,3.4,3.4v51.1
		C1181.4,1044.3,1179.9,1045.8,1178,1045.8z"/>
	<polyline class="st5" points="582.4,1193.8 582.4,1426.7 268.3,1426.7 	"/>
	<path class="st6" d="M28.4,1356.8h193.7c1.9,0,3.4-1.5,3.4-3.4v-51.1c0-1.9-1.5-3.4-3.4-3.4H28.4c-1.9,0-3.4,1.5-3.4,3.4v51.1
		C25,1355.2,26.5,1356.8,28.4,1356.8z"/>
	<polyline class="st5" points="681,618.4 681,366 602.2,366 602.2,192.8 464.8,192.8 	"/>
	<polyline class="st5" points="660.1,830.7 547.5,830.7 547.5,550.5 438.7,550.5 	"/>
	<path class="st6" d="M271.6,578.4h193.7c1.9,0,3.4-1.5,3.4-3.4v-51c0-1.9-1.5-3.4-3.4-3.4H271.6c-1.9,0-3.4,1.5-3.4,3.4v51.1
		C268.2,576.9,269.7,578.4,271.6,578.4z"/>
	<polyline class="st5" points="670.2,881.4 509.2,881.4 509.2,724.7 450,724.7 	"/>
	<path class="st6" d="M261.9,754.4h193.7c1.9,0,3.4-1.5,3.4-3.4v-51c0-1.9-1.5-3.4-3.4-3.4H261.9c-1.9,0-3.4,1.5-3.4,3.4v51.1
		C258.5,752.9,260,754.4,261.9,754.4z"/>
	<polyline class="st5" points="634.1,943.6 634.1,902.3 438.7,902.3 438.7,811.7 318.3,811.7 	"/>
	<path class="st6" d="M132.3,840.6H326c1.9,0,3.4-1.5,3.4-3.4v-51.1c0-1.9-1.5-3.4-3.4-3.4H132.3c-1.9,0-3.4,1.5-3.4,3.4v51.1
		C128.9,839,130.4,840.6,132.3,840.6z"/>
	<polyline class="st5" points="608.1,954.2 608.1,923 401.5,923 401.5,895.7 317.1,895.7 	"/>
	<path class="st6" d="M166.6,924.9h193.7c1.9,0,3.4-1.5,3.4-3.4v-51.1c0-1.9-1.5-3.4-3.4-3.4H166.6c-1.9,0-3.4,1.5-3.4,3.4v51.1
		C163.3,923.4,164.8,924.9,166.6,924.9z"/>
	<polyline class="st5" points="572.3,961.1 364.6,961.1 364.6,977.5 299.7,977.5 	"/>
	<path class="st6" d="M110,1009.5h193.7c1.9,0,3.4-1.5,3.4-3.4V955c0-1.9-1.5-3.4-3.4-3.4H110c-1.9,0-3.4,1.5-3.4,3.4v51.1
		C106.6,1007.9,108.1,1009.5,110,1009.5z"/>
	<polyline class="st5" points="609.2,981.5 609.2,1064.8 424.5,1064.8 	"/>
	<path class="st6" d="M234.6,1093.7h193.7c1.9,0,3.4-1.5,3.4-3.4v-51.1c0-1.9-1.5-3.4-3.4-3.4H234.6c-1.9,0-3.4,1.5-3.4,3.4v51.1
		C231.2,1092.2,232.7,1093.7,234.6,1093.7z"/>
	<line class="st5" x1="527.8" y1="1137.5" x2="274.8" y2="1137.5"/>
	<path class="st6" d="M85.1,1166.4h193.7c1.9,0,3.4-1.5,3.4-3.4v-51c0-1.9-1.5-3.4-3.4-3.4H85.1c-1.9,0-3.4,1.5-3.4,3.4v51.1
		C81.7,1164.9,83.2,1166.4,85.1,1166.4z"/>
	<polyline class="st5" points="505.1,1161.9 505.1,1203.2 367.4,1203.2 367.4,1235.7 299.7,1235.7 	"/>
	<path class="st6" d="M122,1263.6h193.7c1.9,0,3.4-1.5,3.4-3.4v-51.1c0-1.9-1.5-3.4-3.4-3.4H122c-1.9,0-3.4,1.5-3.4,3.4v51.1
		C118.6,1262.1,120.1,1263.6,122,1263.6z"/>
	<polyline class="st5" points="540.7,1149.3 540.7,1327.8 224.9,1327.8 	"/>
	<polyline class="st5" points="531.9,1380.4 531.9,1460.5 382.8,1460.5 382.8,1512.3 248.5,1512.3 	"/>
	<polyline class="st5" points="508.9,1650.3 459.5,1650.3 459.5,1606 248.5,1606 	"/>
	<text transform="matrix(1 0 0 1 236.0241 469.208)" class="st7 st8 st9">Coya - 1911</text>
	<text transform="matrix(1 0 0 1 305.5093 556.6295)" class="st7 st8 st9">Sauzalito - 1959</text>
	<text transform="matrix(1 0 0 1 955.9169 837.5916)" class="st7 st8 st9">Pangal - 1921</text>
	<text transform="matrix(1 0 0 1 237.6745 643.4927)" class="st7 st8 st9">Sauzal - 1948</text>
	<text transform="matrix(1 0 0 1 984.4589 932.0488)" class="st7 st8 st9">Chacayes - 2011</text>
	<text transform="matrix(1 0 0 1 990.3856 1023.7656)" class="st7 st8 st9">La Confluencia - 2010</text>
	<text transform="matrix(1 0 0 1 284.9126 731.6007)" class="st7 st8 st9">La Higuera - 2010</text>
	<text transform="matrix(1 0 0 1 130.8185 986.8337)" class="st7 st8 st9">San Ignacio - 1996</text>
	<text transform="matrix(1 0 0 1 263.3829 1070.937)" class="st7 st8 st9">Chiburgo - 2007</text>
	<text transform="matrix(1 0 0 1 176.7326 901.5825)" class="st7 st8 st9">San Clemente - 2010</text>
	<text transform="matrix(1 0 0 1 180.7326 816.9934)" class="st7 st8 st9">Lircay- 2008</text>
	<text transform="matrix(1 0 0 1 893.7845 1304.2358)" class="st7 st8 st9">Curilinque - 1993</text>
	<text transform="matrix(1 0 0 1 1026.3912 1211.0383)" class="st7 st8 st9">Isla - 1963</text>
	<text transform="matrix(1 0 0 1 913.6566 1118.3982)" class="st7 st8 st9">Ojos de Agua - 2008</text>
	<text transform="matrix(1 0 0 1 894.157 1491.7952)" class="st7 st8 st9">Peuchn - 2000</text>
	<text transform="matrix(1 0 0 1 159.2936 1431.6785)" class="st7 st8 st9">Mampil - 2000</text>
	<text transform="matrix(1 0 0 1 795.368 1590.2998)" class="st7 st8 st9">Palmucho - 2007</text>
	<text transform="matrix(1 0 0 1 159.2936 1242.0466)" class="st7 st8 st9">El Diuto - 2011</text>
	<text transform="matrix(1 0 0 1 118.1173 1143.6057)" class="st7 st8 st9">Quilleco - 2007</text>
	<text transform="matrix(1 0 0 1 74.5456 1335.1736)" class="st7 st8 st9">Rice - 1998</text>
	<text transform="matrix(1 0 0 1 840.3573 1398.7502)" class="st7 st8 st9">Abanico - 1948</text>
	<text transform="matrix(1 0 0 1 107.4113 1519.634)" class="st7 st8 st9">Trueno - 2010</text>
	<text transform="matrix(1 0 0 1 708.3773 1686.136)" class="st7 st8 st9">Pullinque - 1962</text>
	<text transform="matrix(1 0 0 1 831.7182 1785.1431)" class="st7 st8 st9">Licn - 2011</text>
	<text transform="matrix(1 0 0 1 113.0734 1612.0933)" class="st7 st8 st9">Pilmaiqun - 1944</text>
	<text transform="matrix(1 0 0 1 710.9799 1881.3296)" class="st7 st8 st9">Capullo - 1995</text>
	<text transform="matrix(1 0 0 1 130.8185 1925.3721)" class="st7 st8 st9">Dongo - 2011</text>
</g>
</svg>
