<svg width="550" height="494" viewBox="0 0 550 494" fill="none" xmlns="http://www.w3.org/2000/svg">
<path d="M50.5501 123.644L14.3735 222.098C13.5874 224.237 16.4183 225.815 17.8246 224.022L127.464 84.2038C128.493 82.8913 127.558 80.9697 125.89 80.9697H88.7906C87.2641 80.9697 86.3003 79.3284 87.0441 77.9953L128.341 3.97442C129.084 2.6413 128.121 1 126.594 1H52.9624C52.1101 1 51.3514 1.54016 51.0725 2.34556L10.9192 118.3C10.4693 119.599 11.4342 120.955 12.8091 120.955H48.6728C50.0636 120.955 51.0298 122.339 50.5501 123.644Z" fill="#E4C55A" stroke="#393939" stroke-width="1.3" stroke-linejoin="round"/>
<path d="M190.55 123.644L154.373 222.098C153.587 224.237 156.418 225.815 157.825 224.022L267.464 84.2038C268.493 82.8913 267.558 80.9697 265.89 80.9697H228.791C227.264 80.9697 226.3 79.3284 227.044 77.9953L268.341 3.97442C269.084 2.6413 268.121 1 266.594 1H192.962C192.11 1 191.351 1.54016 191.073 2.34556L150.919 118.3C150.469 119.599 151.434 120.955 152.809 120.955H188.673C190.064 120.955 191.03 122.339 190.55 123.644Z" fill="#E4C55A" stroke="#393939" stroke-width="1.3" stroke-linejoin="round"/>
<path d="M330.55 123.644L294.373 222.098C293.587 224.237 296.418 225.815 297.825 224.022L407.464 84.2038C408.493 82.8913 407.558 80.9697 405.89 80.9697H368.791C367.264 80.9697 366.3 79.3284 367.044 77.9953L408.341 3.97442C409.084 2.6413 408.121 1 406.594 1H332.962C332.11 1 331.351 1.54016 331.073 2.34556L290.919 118.3C290.469 119.599 291.434 120.955 292.809 120.955H328.673C330.064 120.955 331.03 122.339 330.55 123.644Z" fill="#E4C55A" stroke="#393939" stroke-width="1.3" stroke-linejoin="round"/>
<path d="M470.55 123.644L434.373 222.098C433.587 224.237 436.418 225.815 437.825 224.022L547.464 84.2038C548.493 82.8913 547.558 80.9697 545.89 80.9697H508.791C507.264 80.9697 506.3 79.3284 507.044 77.9953L548.341 3.97442C549.084 2.6413 548.121 1 546.594 1H472.962C472.11 1 471.351 1.54016 471.073 2.34556L430.919 118.3C430.469 119.599 431.434 120.955 432.809 120.955H468.673C470.064 120.955 471.03 122.339 470.55 123.644Z" fill="#E4C55A" stroke="#393939" stroke-width="1.3" stroke-linejoin="round"/>
<path d="M40.5501 383.644L4.37347 482.098C3.58742 484.237 6.41826 485.815 7.82457 484.022L117.464 344.204C118.493 342.891 117.558 340.97 115.89 340.97H78.7906C77.2641 340.97 76.3003 339.328 77.0441 337.995L118.341 263.974C119.084 262.641 118.121 261 116.594 261H42.9624C42.1101 261 41.3514 261.54 41.0725 262.346L0.919194 378.3C0.469297 379.599 1.43419 380.955 2.80909 380.955H38.6728C40.0636 380.955 41.0298 382.339 40.5501 383.644Z" fill="#E4C55A" stroke="#393939" stroke-width="1.3" stroke-linejoin="round"/>
<path d="M180.55 383.644L144.373 482.098C143.587 484.237 146.418 485.815 147.825 484.022L257.464 344.204C258.493 342.891 257.558 340.97 255.89 340.97H218.791C217.264 340.97 216.3 339.328 217.044 337.995L258.341 263.974C259.084 262.641 258.121 261 256.594 261H182.962C182.11 261 181.351 261.54 181.073 262.346L140.919 378.3C140.469 379.599 141.434 380.955 142.809 380.955H178.673C180.064 380.955 181.03 382.339 180.55 383.644Z" fill="#E4C55A" stroke="#393939" stroke-width="1.3" stroke-linejoin="round"/>
<path d="M320.55 383.644L284.373 482.098C283.587 484.237 286.418 485.815 287.825 484.022L397.464 344.204C398.493 342.891 397.558 340.97 395.89 340.97H358.791C357.264 340.97 356.3 339.328 357.044 337.995L398.341 263.974C399.084 262.641 398.121 261 396.594 261H322.962C322.11 261 321.351 261.54 321.073 262.346L280.919 378.3C280.469 379.599 281.434 380.955 282.809 380.955H318.673C320.064 380.955 321.03 382.339 320.55 383.644Z" fill="#E4C55A" stroke="#393939" stroke-width="1.3" stroke-linejoin="round"/>
<path d="M460.55 383.644L424.373 482.098C423.587 484.237 426.418 485.815 427.825 484.022L537.464 344.204C538.493 342.891 537.558 340.97 535.89 340.97H498.791C497.264 340.97 496.3 339.328 497.044 337.995L538.341 263.974C539.084 262.641 538.121 261 536.594 261H462.962C462.11 261 461.351 261.54 461.073 262.346L420.919 378.3C420.469 379.599 421.434 380.955 422.809 380.955H458.673C460.064 380.955 461.03 382.339 460.55 383.644Z" fill="#E4C55A" stroke="#393939" stroke-width="1.3" stroke-linejoin="round"/>
<path d="M446.273 422.5L424.373 482.098C423.587 484.237 426.418 485.815 427.825 484.022L476.067 422.5H446.273Z" fill="#767676" stroke="#393939" stroke-width="1.3" stroke-linejoin="round"/>
</svg>
