<svg width="723" height="866" viewBox="0 0 723 866" fill="none" xmlns="http://www.w3.org/2000/svg">
<path d="M262.149 36.18H275.439V38.94H262.149V36.18ZM262.149 30.9H275.439V33.645H262.149V30.9ZM281.547 42.225H285.942V29.58C285.942 29.09 285.957 28.575 285.987 28.035L282.867 30.645C282.737 30.755 282.602 30.83 282.462 30.87C282.332 30.91 282.202 30.93 282.072 30.93C281.872 30.93 281.687 30.89 281.517 30.81C281.357 30.72 281.237 30.62 281.157 30.51L279.987 28.905L286.602 23.28H289.647V42.225H293.547V45H281.547V42.225ZM311.564 34.155C311.564 36.045 311.359 37.69 310.949 39.09C310.549 40.48 309.989 41.63 309.269 42.54C308.559 43.45 307.714 44.13 306.734 44.58C305.764 45.02 304.714 45.24 303.584 45.24C302.454 45.24 301.404 45.02 300.434 44.58C299.474 44.13 298.639 43.45 297.929 42.54C297.219 41.63 296.664 40.48 296.264 39.09C295.864 37.69 295.664 36.045 295.664 34.155C295.664 32.255 295.864 30.61 296.264 29.22C296.664 27.83 297.219 26.68 297.929 25.77C298.639 24.86 299.474 24.185 300.434 23.745C301.404 23.295 302.454 23.07 303.584 23.07C304.714 23.07 305.764 23.295 306.734 23.745C307.714 24.185 308.559 24.86 309.269 25.77C309.989 26.68 310.549 27.83 310.949 29.22C311.359 30.61 311.564 32.255 311.564 34.155ZM307.739 34.155C307.739 32.585 307.624 31.285 307.394 30.255C307.164 29.225 306.854 28.405 306.464 27.795C306.084 27.185 305.644 26.76 305.144 26.52C304.644 26.27 304.124 26.145 303.584 26.145C303.054 26.145 302.539 26.27 302.039 26.52C301.549 26.76 301.114 27.185 300.734 27.795C300.354 28.405 300.049 29.225 299.819 30.255C299.599 31.285 299.489 32.585 299.489 34.155C299.489 35.725 299.599 37.025 299.819 38.055C300.049 39.085 300.354 39.905 300.734 40.515C301.114 41.125 301.549 41.555 302.039 41.805C302.539 42.045 303.054 42.165 303.584 42.165C304.124 42.165 304.644 42.045 305.144 41.805C305.644 41.555 306.084 41.125 306.464 40.515C306.854 39.905 307.164 39.085 307.394 38.055C307.624 37.025 307.739 35.725 307.739 34.155ZM328.966 34.155C328.966 36.045 328.761 37.69 328.351 39.09C327.951 40.48 327.391 41.63 326.671 42.54C325.961 43.45 325.116 44.13 324.136 44.58C323.166 45.02 322.116 45.24 320.986 45.24C319.856 45.24 318.806 45.02 317.836 44.58C316.876 44.13 316.041 43.45 315.331 42.54C314.621 41.63 314.066 40.48 313.666 39.09C313.266 37.69 313.066 36.045 313.066 34.155C313.066 32.255 313.266 30.61 313.666 29.22C314.066 27.83 314.621 26.68 315.331 25.77C316.041 24.86 316.876 24.185 317.836 23.745C318.806 23.295 319.856 23.07 320.986 23.07C322.116 23.07 323.166 23.295 324.136 23.745C325.116 24.185 325.961 24.86 326.671 25.77C327.391 26.68 327.951 27.83 328.351 29.22C328.761 30.61 328.966 32.255 328.966 34.155ZM325.141 34.155C325.141 32.585 325.026 31.285 324.796 30.255C324.566 29.225 324.256 28.405 323.866 27.795C323.486 27.185 323.046 26.76 322.546 26.52C322.046 26.27 321.526 26.145 320.986 26.145C320.456 26.145 319.941 26.27 319.441 26.52C318.951 26.76 318.516 27.185 318.136 27.795C317.756 28.405 317.451 29.225 317.221 30.255C317.001 31.285 316.891 32.585 316.891 34.155C316.891 35.725 317.001 37.025 317.221 38.055C317.451 39.085 317.756 39.905 318.136 40.515C318.516 41.125 318.951 41.555 319.441 41.805C319.941 42.045 320.456 42.165 320.986 42.165C321.526 42.165 322.046 42.045 322.546 41.805C323.046 41.555 323.486 41.125 323.866 40.515C324.256 39.905 324.566 39.085 324.796 38.055C325.026 37.025 325.141 35.725 325.141 34.155ZM346.369 34.155C346.369 36.045 346.164 37.69 345.754 39.09C345.354 40.48 344.794 41.63 344.074 42.54C343.364 43.45 342.519 44.13 341.539 44.58C340.569 45.02 339.519 45.24 338.389 45.24C337.259 45.24 336.209 45.02 335.239 44.58C334.279 44.13 333.444 43.45 332.734 42.54C332.024 41.63 331.469 40.48 331.069 39.09C330.669 37.69 330.469 36.045 330.469 34.155C330.469 32.255 330.669 30.61 331.069 29.22C331.469 27.83 332.024 26.68 332.734 25.77C333.444 24.86 334.279 24.185 335.239 23.745C336.209 23.295 337.259 23.07 338.389 23.07C339.519 23.07 340.569 23.295 341.539 23.745C342.519 24.185 343.364 24.86 344.074 25.77C344.794 26.68 345.354 27.83 345.754 29.22C346.164 30.61 346.369 32.255 346.369 34.155ZM342.544 34.155C342.544 32.585 342.429 31.285 342.199 30.255C341.969 29.225 341.659 28.405 341.269 27.795C340.889 27.185 340.449 26.76 339.949 26.52C339.449 26.27 338.929 26.145 338.389 26.145C337.859 26.145 337.344 26.27 336.844 26.52C336.354 26.76 335.919 27.185 335.539 27.795C335.159 28.405 334.854 29.225 334.624 30.255C334.404 31.285 334.294 32.585 334.294 34.155C334.294 35.725 334.404 37.025 334.624 38.055C334.854 39.085 335.159 39.905 335.539 40.515C335.919 41.125 336.354 41.555 336.844 41.805C337.344 42.045 337.859 42.165 338.389 42.165C338.929 42.165 339.449 42.045 339.949 41.805C340.449 41.555 340.889 41.125 341.269 40.515C341.659 39.905 341.969 39.085 342.199 38.055C342.429 37.025 342.544 35.725 342.544 34.155ZM365.072 42.03C365.982 42.03 366.772 41.95 367.442 41.79C368.122 41.62 368.767 41.39 369.377 41.1V37.155H366.662C366.402 37.155 366.197 37.085 366.047 36.945C365.897 36.795 365.822 36.615 365.822 36.405V34.125H373.037V42.9C372.487 43.3 371.912 43.65 371.312 43.95C370.722 44.24 370.087 44.48 369.407 44.67C368.737 44.86 368.017 45 367.247 45.09C366.477 45.19 365.647 45.24 364.757 45.24C363.177 45.24 361.722 44.965 360.392 44.415C359.062 43.865 357.912 43.1 356.942 42.12C355.972 41.14 355.212 39.97 354.662 38.61C354.122 37.25 353.852 35.765 353.852 34.155C353.852 32.525 354.117 31.03 354.647 29.67C355.177 28.31 355.927 27.14 356.897 26.16C357.877 25.18 359.062 24.42 360.452 23.88C361.842 23.34 363.402 23.07 365.132 23.07C366.902 23.07 368.432 23.335 369.722 23.865C371.022 24.385 372.122 25.065 373.022 25.905L371.852 27.735C371.622 28.105 371.317 28.29 370.937 28.29C370.697 28.29 370.452 28.21 370.202 28.05C369.882 27.86 369.552 27.67 369.212 27.48C368.882 27.29 368.512 27.125 368.102 26.985C367.702 26.845 367.247 26.73 366.737 26.64C366.237 26.55 365.657 26.505 364.997 26.505C363.927 26.505 362.957 26.685 362.087 27.045C361.227 27.405 360.492 27.92 359.882 28.59C359.272 29.26 358.802 30.065 358.472 31.005C358.142 31.945 357.977 32.995 357.977 34.155C357.977 35.405 358.152 36.52 358.502 37.5C358.852 38.47 359.342 39.29 359.972 39.96C360.602 40.63 361.352 41.145 362.222 41.505C363.092 41.855 364.042 42.03 365.072 42.03ZM380.527 29.61V45H376.822V29.61H380.527ZM381.082 25.125C381.082 25.445 381.017 25.745 380.887 26.025C380.757 26.305 380.582 26.55 380.362 26.76C380.152 26.97 379.902 27.14 379.612 27.27C379.322 27.39 379.012 27.45 378.682 27.45C378.362 27.45 378.057 27.39 377.767 27.27C377.487 27.14 377.242 26.97 377.032 26.76C376.822 26.55 376.652 26.305 376.522 26.025C376.402 25.745 376.342 25.445 376.342 25.125C376.342 24.795 376.402 24.485 376.522 24.195C376.652 23.905 376.822 23.655 377.032 23.445C377.242 23.235 377.487 23.07 377.767 22.95C378.057 22.82 378.362 22.755 378.682 22.755C379.012 22.755 379.322 22.82 379.612 22.95C379.902 23.07 380.152 23.235 380.362 23.445C380.582 23.655 380.757 23.905 380.887 24.195C381.017 24.485 381.082 24.795 381.082 25.125ZM390.051 29.34C390.711 29.34 391.331 29.41 391.911 29.55C392.491 29.68 393.021 29.875 393.501 30.135H397.926V31.515C397.926 31.745 397.866 31.925 397.746 32.055C397.626 32.185 397.421 32.275 397.131 32.325L395.751 32.58C395.851 32.84 395.926 33.115 395.976 33.405C396.036 33.695 396.066 34 396.066 34.32C396.066 35.08 395.911 35.77 395.601 36.39C395.301 37 394.881 37.52 394.341 37.95C393.811 38.38 393.176 38.715 392.436 38.955C391.706 39.185 390.911 39.3 390.051 39.3C389.471 39.3 388.906 39.245 388.356 39.135C387.876 39.425 387.636 39.75 387.636 40.11C387.636 40.42 387.776 40.65 388.056 40.8C388.346 40.94 388.721 41.04 389.181 41.1C389.651 41.16 390.181 41.2 390.771 41.22C391.361 41.23 391.966 41.26 392.586 41.31C393.206 41.36 393.811 41.45 394.401 41.58C394.991 41.7 395.516 41.895 395.976 42.165C396.446 42.435 396.821 42.805 397.101 43.275C397.391 43.735 397.536 44.33 397.536 45.06C397.536 45.74 397.366 46.4 397.026 47.04C396.696 47.68 396.211 48.25 395.571 48.75C394.941 49.25 394.166 49.65 393.246 49.95C392.326 50.26 391.276 50.415 390.096 50.415C388.926 50.415 387.911 50.3 387.051 50.07C386.191 49.85 385.476 49.55 384.906 49.17C384.346 48.8 383.926 48.37 383.646 47.88C383.366 47.39 383.226 46.88 383.226 46.35C383.226 45.63 383.446 45.025 383.886 44.535C384.326 44.045 384.936 43.655 385.716 43.365C385.336 43.155 385.031 42.875 384.801 42.525C384.571 42.175 384.456 41.72 384.456 41.16C384.456 40.93 384.496 40.695 384.576 40.455C384.656 40.205 384.776 39.96 384.936 39.72C385.106 39.48 385.316 39.255 385.566 39.045C385.816 38.825 386.111 38.63 386.451 38.46C385.671 38.04 385.056 37.48 384.606 36.78C384.166 36.08 383.946 35.26 383.946 34.32C383.946 33.56 384.096 32.875 384.396 32.265C384.706 31.645 385.131 31.12 385.671 30.69C386.221 30.25 386.866 29.915 387.606 29.685C388.356 29.455 389.171 29.34 390.051 29.34ZM394.116 45.69C394.116 45.39 394.026 45.145 393.846 44.955C393.666 44.765 393.421 44.62 393.111 44.52C392.801 44.41 392.436 44.33 392.016 44.28C391.606 44.23 391.166 44.195 390.696 44.175C390.236 44.145 389.756 44.12 389.256 44.1C388.766 44.07 388.291 44.025 387.831 43.965C387.411 44.195 387.071 44.47 386.811 44.79C386.561 45.1 386.436 45.46 386.436 45.87C386.436 46.14 386.501 46.39 386.631 46.62C386.771 46.86 386.986 47.065 387.276 47.235C387.576 47.405 387.961 47.535 388.431 47.625C388.901 47.725 389.476 47.775 390.156 47.775C390.846 47.775 391.441 47.72 391.941 47.61C392.441 47.51 392.851 47.365 393.171 47.175C393.501 46.995 393.741 46.775 393.891 46.515C394.041 46.265 394.116 45.99 394.116 45.69ZM390.051 36.93C390.511 36.93 390.911 36.87 391.251 36.75C391.591 36.62 391.871 36.445 392.091 36.225C392.321 36.005 392.491 35.74 392.601 35.43C392.721 35.12 392.781 34.78 392.781 34.41C392.781 33.65 392.551 33.05 392.091 32.61C391.641 32.16 390.961 31.935 390.051 31.935C389.141 31.935 388.456 32.16 387.996 32.61C387.546 33.05 387.321 33.65 387.321 34.41C387.321 34.77 387.376 35.105 387.486 35.415C387.606 35.725 387.776 35.995 387.996 36.225C388.226 36.445 388.511 36.62 388.851 36.75C389.201 36.87 389.601 36.93 390.051 36.93ZM412.313 45H410.648C410.298 45 410.023 44.95 409.823 44.85C409.623 44.74 409.473 44.525 409.373 44.205L409.043 43.11C408.653 43.46 408.268 43.77 407.888 44.04C407.518 44.3 407.133 44.52 406.733 44.7C406.333 44.88 405.908 45.015 405.458 45.105C405.008 45.195 404.508 45.24 403.958 45.24C403.308 45.24 402.708 45.155 402.158 44.985C401.608 44.805 401.133 44.54 400.733 44.19C400.343 43.84 400.038 43.405 399.818 42.885C399.598 42.365 399.488 41.76 399.488 41.07C399.488 40.49 399.638 39.92 399.938 39.36C400.248 38.79 400.758 38.28 401.468 37.83C402.178 37.37 403.123 36.99 404.303 36.69C405.483 36.39 406.948 36.22 408.698 36.18V35.28C408.698 34.25 408.478 33.49 408.038 33C407.608 32.5 406.978 32.25 406.148 32.25C405.548 32.25 405.048 32.32 404.648 32.46C404.248 32.6 403.898 32.76 403.598 32.94C403.308 33.11 403.038 33.265 402.788 33.405C402.538 33.545 402.263 33.615 401.963 33.615C401.713 33.615 401.498 33.55 401.318 33.42C401.138 33.29 400.993 33.13 400.883 32.94L400.208 31.755C401.978 30.135 404.113 29.325 406.613 29.325C407.513 29.325 408.313 29.475 409.013 29.775C409.723 30.065 410.323 30.475 410.813 31.005C411.303 31.525 411.673 32.15 411.923 32.88C412.183 33.61 412.313 34.41 412.313 35.28V45ZM405.113 42.69C405.493 42.69 405.843 42.655 406.163 42.585C406.483 42.515 406.783 42.41 407.063 42.27C407.353 42.13 407.628 41.96 407.888 41.76C408.158 41.55 408.428 41.305 408.698 41.025V38.43C407.618 38.48 406.713 38.575 405.983 38.715C405.263 38.845 404.683 39.015 404.243 39.225C403.803 39.435 403.488 39.68 403.298 39.96C403.118 40.24 403.028 40.545 403.028 40.875C403.028 41.525 403.218 41.99 403.598 42.27C403.988 42.55 404.493 42.69 405.113 42.69ZM414.157 23.31H417.547C417.897 23.31 418.187 23.395 418.417 23.565C418.657 23.725 418.817 23.945 418.897 24.225L422.587 37.2C422.677 37.52 422.757 37.87 422.827 38.25C422.907 38.62 422.982 39.015 423.052 39.435C423.132 39.015 423.217 38.62 423.307 38.25C423.407 37.87 423.512 37.52 423.622 37.2L427.882 24.225C427.962 23.995 428.117 23.785 428.347 23.595C428.587 23.405 428.877 23.31 429.217 23.31H430.402C430.752 23.31 431.042 23.395 431.272 23.565C431.502 23.725 431.662 23.945 431.752 24.225L435.982 37.2C436.202 37.84 436.392 38.55 436.552 39.33C436.622 38.94 436.692 38.565 436.762 38.205C436.842 37.845 436.922 37.51 437.002 37.2L440.692 24.225C440.762 23.975 440.917 23.76 441.157 23.58C441.397 23.4 441.687 23.31 442.027 23.31H445.192L438.457 45H434.812L430.072 30.18C430.012 29.99 429.947 29.785 429.877 29.565C429.817 29.345 429.757 29.11 429.697 28.86C429.637 29.11 429.572 29.345 429.502 29.565C429.442 29.785 429.382 29.99 429.322 30.18L424.537 45H420.892L414.157 23.31ZM457.929 45H456.264C455.914 45 455.639 44.95 455.439 44.85C455.239 44.74 455.089 44.525 454.989 44.205L454.659 43.11C454.269 43.46 453.884 43.77 453.504 44.04C453.134 44.3 452.749 44.52 452.349 44.7C451.949 44.88 451.524 45.015 451.074 45.105C450.624 45.195 450.124 45.24 449.574 45.24C448.924 45.24 448.324 45.155 447.774 44.985C447.224 44.805 446.749 44.54 446.349 44.19C445.959 43.84 445.654 43.405 445.434 42.885C445.214 42.365 445.104 41.76 445.104 41.07C445.104 40.49 445.254 39.92 445.554 39.36C445.864 38.79 446.374 38.28 447.084 37.83C447.794 37.37 448.739 36.99 449.919 36.69C451.099 36.39 452.564 36.22 454.314 36.18V35.28C454.314 34.25 454.094 33.49 453.654 33C453.224 32.5 452.594 32.25 451.764 32.25C451.164 32.25 450.664 32.32 450.264 32.46C449.864 32.6 449.514 32.76 449.214 32.94C448.924 33.11 448.654 33.265 448.404 33.405C448.154 33.545 447.879 33.615 447.579 33.615C447.329 33.615 447.114 33.55 446.934 33.42C446.754 33.29 446.609 33.13 446.499 32.94L445.824 31.755C447.594 30.135 449.729 29.325 452.229 29.325C453.129 29.325 453.929 29.475 454.629 29.775C455.339 30.065 455.939 30.475 456.429 31.005C456.919 31.525 457.289 32.15 457.539 32.88C457.799 33.61 457.929 34.41 457.929 35.28V45ZM450.729 42.69C451.109 42.69 451.459 42.655 451.779 42.585C452.099 42.515 452.399 42.41 452.679 42.27C452.969 42.13 453.244 41.96 453.504 41.76C453.774 41.55 454.044 41.305 454.314 41.025V38.43C453.234 38.48 452.329 38.575 451.599 38.715C450.879 38.845 450.299 39.015 449.859 39.225C449.419 39.435 449.104 39.68 448.914 39.96C448.734 40.24 448.644 40.545 448.644 40.875C448.644 41.525 448.834 41.99 449.214 42.27C449.604 42.55 450.109 42.69 450.729 42.69ZM466.627 45.24C465.297 45.24 464.272 44.865 463.552 44.115C462.832 43.355 462.472 42.31 462.472 40.98V32.385H460.912C460.712 32.385 460.537 32.32 460.387 32.19C460.247 32.06 460.177 31.865 460.177 31.605V30.135L462.652 29.73L463.432 25.53C463.472 25.33 463.562 25.175 463.702 25.065C463.852 24.955 464.037 24.9 464.257 24.9H466.177V29.745H470.227V32.385H466.177V40.725C466.177 41.205 466.297 41.58 466.537 41.85C466.777 42.12 467.097 42.255 467.497 42.255C467.727 42.255 467.917 42.23 468.067 42.18C468.227 42.12 468.362 42.06 468.472 42C468.592 41.94 468.697 41.885 468.787 41.835C468.877 41.775 468.967 41.745 469.057 41.745C469.167 41.745 469.257 41.775 469.327 41.835C469.397 41.885 469.472 41.965 469.552 42.075L470.662 43.875C470.122 44.325 469.502 44.665 468.802 44.895C468.102 45.125 467.377 45.24 466.627 45.24ZM478.228 45.24C476.898 45.24 475.873 44.865 475.153 44.115C474.433 43.355 474.073 42.31 474.073 40.98V32.385H472.513C472.313 32.385 472.138 32.32 471.988 32.19C471.848 32.06 471.778 31.865 471.778 31.605V30.135L474.253 29.73L475.033 25.53C475.073 25.33 475.163 25.175 475.303 25.065C475.453 24.955 475.638 24.9 475.858 24.9H477.778V29.745H481.828V32.385H477.778V40.725C477.778 41.205 477.898 41.58 478.138 41.85C478.378 42.12 478.698 42.255 479.098 42.255C479.328 42.255 479.518 42.23 479.668 42.18C479.828 42.12 479.963 42.06 480.073 42C480.193 41.94 480.298 41.885 480.388 41.835C480.478 41.775 480.568 41.745 480.658 41.745C480.768 41.745 480.858 41.775 480.928 41.835C480.998 41.885 481.073 41.965 481.153 42.075L482.263 43.875C481.723 44.325 481.103 44.665 480.403 44.895C479.703 45.125 478.978 45.24 478.228 45.24ZM493.91 32.61C493.81 32.77 493.705 32.885 493.595 32.955C493.485 33.015 493.345 33.045 493.175 33.045C492.995 33.045 492.8 32.995 492.59 32.895C492.39 32.795 492.155 32.685 491.885 32.565C491.615 32.435 491.305 32.32 490.955 32.22C490.615 32.12 490.21 32.07 489.74 32.07C489.01 32.07 488.435 32.225 488.015 32.535C487.595 32.845 487.385 33.25 487.385 33.75C487.385 34.08 487.49 34.36 487.7 34.59C487.92 34.81 488.205 35.005 488.555 35.175C488.915 35.345 489.32 35.5 489.77 35.64C490.22 35.77 490.68 35.915 491.15 36.075C491.62 36.235 492.08 36.42 492.53 36.63C492.98 36.83 493.38 37.09 493.73 37.41C494.09 37.72 494.375 38.095 494.585 38.535C494.805 38.975 494.915 39.505 494.915 40.125C494.915 40.865 494.78 41.55 494.51 42.18C494.24 42.8 493.845 43.34 493.325 43.8C492.805 44.25 492.16 44.605 491.39 44.865C490.63 45.115 489.755 45.24 488.765 45.24C488.235 45.24 487.715 45.19 487.205 45.09C486.705 45 486.22 44.87 485.75 44.7C485.29 44.53 484.86 44.33 484.46 44.1C484.07 43.87 483.725 43.62 483.425 43.35L484.28 41.94C484.39 41.77 484.52 41.64 484.67 41.55C484.82 41.46 485.01 41.415 485.24 41.415C485.47 41.415 485.685 41.48 485.885 41.61C486.095 41.74 486.335 41.88 486.605 42.03C486.875 42.18 487.19 42.32 487.55 42.45C487.92 42.58 488.385 42.645 488.945 42.645C489.385 42.645 489.76 42.595 490.07 42.495C490.39 42.385 490.65 42.245 490.85 42.075C491.06 41.905 491.21 41.71 491.3 41.49C491.4 41.26 491.45 41.025 491.45 40.785C491.45 40.425 491.34 40.13 491.12 39.9C490.91 39.67 490.625 39.47 490.265 39.3C489.915 39.13 489.51 38.98 489.05 38.85C488.6 38.71 488.135 38.56 487.655 38.4C487.185 38.24 486.72 38.055 486.26 37.845C485.81 37.625 485.405 37.35 485.045 37.02C484.695 36.69 484.41 36.285 484.19 35.805C483.98 35.325 483.875 34.745 483.875 34.065C483.875 33.435 484 32.835 484.25 32.265C484.5 31.695 484.865 31.2 485.345 30.78C485.835 30.35 486.44 30.01 487.16 29.76C487.89 29.5 488.73 29.37 489.68 29.37C490.74 29.37 491.705 29.545 492.575 29.895C493.445 30.245 494.17 30.705 494.75 31.275L493.91 32.61Z" fill="#393939"/>
<path d="M238.105 36.1155L232.352 51.9904C231.575 54.1356 234.419 55.7003 235.815 53.8954L257.507 25.8462C258.524 24.5317 257.587 22.6227 255.925 22.6227H251.486C249.964 22.6227 249 20.9915 249.734 19.6586L258.369 3.96415C259.102 2.63123 258.138 1 256.617 1H240.507C239.652 1 238.891 1.54407 238.615 2.35361L228.904 30.7877C228.461 32.0854 229.425 33.4341 230.796 33.4341H236.225C237.612 33.4341 238.578 34.8115 238.105 36.1155Z" fill="#E4C55A" stroke="#393939" stroke-width="1.3" stroke-linejoin="round"/>
<path d="M18.7459 144.834L4.36892 184.075C3.58472 186.216 6.41833 187.791 7.82243 185.995L54.4731 126.329C55.4997 125.016 54.5642 123.097 52.8975 123.097H39.2088C37.6834 123.097 36.7195 121.458 37.4611 120.125L55.3466 87.9722C56.0882 86.6392 55.1243 85 53.5989 85H21.1561C20.3031 85 19.544 85.541 19.2656 86.3473L0.915911 139.493C0.467441 140.792 1.43226 142.146 2.8064 142.146H16.868C18.258 142.146 19.2241 143.529 18.7459 144.834Z" fill="#E4C55A" stroke="#393939" stroke-width="1.3" stroke-linejoin="round"/>
<path d="M84.7459 144.834L70.3689 184.075C69.5847 186.216 72.4183 187.791 73.8224 185.995L120.473 126.329C121.5 125.016 120.564 123.097 118.898 123.097H105.209C103.683 123.097 102.72 121.458 103.461 120.125L121.347 87.9722C122.088 86.6392 121.124 85 119.599 85H87.1561C86.3031 85 85.544 85.541 85.2656 86.3473L66.9159 139.493C66.4674 140.792 67.4323 142.146 68.8064 142.146H82.868C84.258 142.146 85.2241 143.529 84.7459 144.834Z" fill="#E4C55A" stroke="#393939" stroke-width="1.3" stroke-linejoin="round"/>
<path d="M151.746 144.834L137.369 184.075C136.585 186.216 139.418 187.791 140.822 185.995L187.473 126.329C188.5 125.016 187.564 123.097 185.898 123.097H172.209C170.683 123.097 169.72 121.458 170.461 120.125L188.347 87.9722C189.088 86.6392 188.124 85 186.599 85H154.156C153.303 85 152.544 85.541 152.266 86.3473L133.916 139.493C133.467 140.792 134.432 142.146 135.806 142.146H149.868C151.258 142.146 152.224 143.529 151.746 144.834Z" fill="#E4C55A" stroke="#393939" stroke-width="1.3" stroke-linejoin="round"/>
<path d="M217.746 144.834L203.369 184.075C202.585 186.216 205.418 187.791 206.822 185.995L253.473 126.329C254.5 125.016 253.564 123.097 251.898 123.097H238.209C236.683 123.097 235.72 121.458 236.461 120.125L254.347 87.9722C255.088 86.6392 254.124 85 252.599 85H220.156C219.303 85 218.544 85.541 218.266 86.3473L199.916 139.493C199.467 140.792 200.432 142.146 201.806 142.146H215.868C217.258 142.146 218.224 143.529 217.746 144.834Z" fill="#E4C55A" stroke="#393939" stroke-width="1.3" stroke-linejoin="round"/>
<path d="M284.746 144.834L270.369 184.075C269.585 186.216 272.418 187.791 273.822 185.995L320.473 126.329C321.5 125.016 320.564 123.097 318.898 123.097H305.209C303.683 123.097 302.72 121.458 303.461 120.125L321.347 87.9722C322.088 86.6392 321.124 85 319.599 85H287.156C286.303 85 285.544 85.541 285.266 86.3473L266.916 139.493C266.467 140.792 267.432 142.146 268.806 142.146H282.868C284.258 142.146 285.224 143.529 284.746 144.834Z" fill="#E4C55A" stroke="#393939" stroke-width="1.3" stroke-linejoin="round"/>
<path d="M350.746 144.834L336.369 184.075C335.585 186.216 338.418 187.791 339.822 185.995L386.473 126.329C387.5 125.016 386.564 123.097 384.898 123.097H371.209C369.683 123.097 368.72 121.458 369.461 120.125L387.347 87.9722C388.088 86.6392 387.124 85 385.599 85H353.156C352.303 85 351.544 85.541 351.266 86.3473L332.916 139.493C332.467 140.792 333.432 142.146 334.806 142.146H348.868C350.258 142.146 351.224 143.529 350.746 144.834Z" fill="#E4C55A" stroke="#393939" stroke-width="1.3" stroke-linejoin="round"/>
<path d="M417.746 144.834L403.369 184.075C402.585 186.216 405.418 187.791 406.822 185.995L453.473 126.329C454.5 125.016 453.564 123.097 451.898 123.097H438.209C436.683 123.097 435.72 121.458 436.461 120.125L454.347 87.9722C455.088 86.6392 454.124 85 452.599 85H420.156C419.303 85 418.544 85.541 418.266 86.3473L399.916 139.493C399.467 140.792 400.432 142.146 401.806 142.146H415.868C417.258 142.146 418.224 143.529 417.746 144.834Z" fill="#E4C55A" stroke="#393939" stroke-width="1.3" stroke-linejoin="round"/>
<path d="M484.746 144.834L470.369 184.075C469.585 186.216 472.418 187.791 473.822 185.995L520.473 126.329C521.5 125.016 520.564 123.097 518.898 123.097H505.209C503.683 123.097 502.72 121.458 503.461 120.125L521.347 87.9722C522.088 86.6392 521.124 85 519.599 85H487.156C486.303 85 485.544 85.541 485.266 86.3473L466.916 139.493C466.467 140.792 467.432 142.146 468.806 142.146H482.868C484.258 142.146 485.224 143.529 484.746 144.834Z" fill="#E4C55A" stroke="#393939" stroke-width="1.3" stroke-linejoin="round"/>
<path d="M551.746 144.834L537.369 184.075C536.585 186.216 539.418 187.791 540.822 185.995L587.473 126.329C588.5 125.016 587.564 123.097 585.898 123.097H572.209C570.683 123.097 569.72 121.458 570.461 120.125L588.347 87.9722C589.088 86.6392 588.124 85 586.599 85H554.156C553.303 85 552.544 85.541 552.266 86.3473L533.916 139.493C533.467 140.792 534.432 142.146 535.806 142.146H549.868C551.258 142.146 552.224 143.529 551.746 144.834Z" fill="#E4C55A" stroke="#393939" stroke-width="1.3" stroke-linejoin="round"/>
<path d="M618.746 144.834L604.369 184.075C603.585 186.216 606.418 187.791 607.822 185.995L654.473 126.329C655.5 125.016 654.564 123.097 652.898 123.097H639.209C637.683 123.097 636.72 121.458 637.461 120.125L655.347 87.9722C656.088 86.6392 655.124 85 653.599 85H621.156C620.303 85 619.544 85.541 619.266 86.3473L600.916 139.493C600.467 140.792 601.432 142.146 602.806 142.146H616.868C618.258 142.146 619.224 143.529 618.746 144.834Z" fill="#E4C55A" stroke="#393939" stroke-width="1.3" stroke-linejoin="round"/>
<path d="M684.746 144.834L670.369 184.075C669.585 186.216 672.418 187.791 673.822 185.995L720.473 126.329C721.5 125.016 720.564 123.097 718.898 123.097H705.209C703.683 123.097 702.72 121.458 703.461 120.125L721.347 87.9722C722.088 86.6392 721.124 85 719.599 85H687.156C686.303 85 685.544 85.541 685.266 86.3473L666.916 139.493C666.467 140.792 667.432 142.146 668.806 142.146H682.868C684.258 142.146 685.224 143.529 684.746 144.834Z" fill="#E4C55A" stroke="#393939" stroke-width="1.3" stroke-linejoin="round"/>
<path d="M18.7459 255.834L4.36892 295.075C3.58472 297.216 6.41833 298.791 7.82243 296.995L54.4731 237.329C55.4997 236.016 54.5642 234.097 52.8975 234.097H39.2088C37.6834 234.097 36.7195 232.458 37.4611 231.125L55.3466 198.972C56.0882 197.639 55.1243 196 53.5989 196H21.1561C20.3031 196 19.544 196.541 19.2656 197.347L0.915911 250.493C0.467441 251.792 1.43226 253.146 2.8064 253.146H16.868C18.258 253.146 19.2241 254.529 18.7459 255.834Z" fill="#E4C55A" stroke="#393939" stroke-width="1.3" stroke-linejoin="round"/>
<path d="M84.7459 255.834L70.3689 295.075C69.5847 297.216 72.4183 298.791 73.8224 296.995L120.473 237.329C121.5 236.016 120.564 234.097 118.898 234.097H105.209C103.683 234.097 102.72 232.458 103.461 231.125L121.347 198.972C122.088 197.639 121.124 196 119.599 196H87.1561C86.3031 196 85.544 196.541 85.2656 197.347L66.9159 250.493C66.4674 251.792 67.4323 253.146 68.8064 253.146H82.868C84.258 253.146 85.2241 254.529 84.7459 255.834Z" fill="#E4C55A" stroke="#393939" stroke-width="1.3" stroke-linejoin="round"/>
<path d="M151.746 255.834L137.369 295.075C136.585 297.216 139.418 298.791 140.822 296.995L187.473 237.329C188.5 236.016 187.564 234.097 185.898 234.097H172.209C170.683 234.097 169.72 232.458 170.461 231.125L188.347 198.972C189.088 197.639 188.124 196 186.599 196H154.156C153.303 196 152.544 196.541 152.266 197.347L133.916 250.493C133.467 251.792 134.432 253.146 135.806 253.146H149.868C151.258 253.146 152.224 254.529 151.746 255.834Z" fill="#E4C55A" stroke="#393939" stroke-width="1.3" stroke-linejoin="round"/>
<path d="M217.746 255.834L203.369 295.075C202.585 297.216 205.418 298.791 206.822 296.995L253.473 237.329C254.5 236.016 253.564 234.097 251.898 234.097H238.209C236.683 234.097 235.72 232.458 236.461 231.125L254.347 198.972C255.088 197.639 254.124 196 252.599 196H220.156C219.303 196 218.544 196.541 218.266 197.347L199.916 250.493C199.467 251.792 200.432 253.146 201.806 253.146H215.868C217.258 253.146 218.224 254.529 217.746 255.834Z" fill="#E4C55A" stroke="#393939" stroke-width="1.3" stroke-linejoin="round"/>
<path d="M284.746 255.834L270.369 295.075C269.585 297.216 272.418 298.791 273.822 296.995L320.473 237.329C321.5 236.016 320.564 234.097 318.898 234.097H305.209C303.683 234.097 302.72 232.458 303.461 231.125L321.347 198.972C322.088 197.639 321.124 196 319.599 196H287.156C286.303 196 285.544 196.541 285.266 197.347L266.916 250.493C266.467 251.792 267.432 253.146 268.806 253.146H282.868C284.258 253.146 285.224 254.529 284.746 255.834Z" fill="#E4C55A" stroke="#393939" stroke-width="1.3" stroke-linejoin="round"/>
<path d="M350.746 255.834L336.369 295.075C335.585 297.216 338.418 298.791 339.822 296.995L386.473 237.329C387.5 236.016 386.564 234.097 384.898 234.097H371.209C369.683 234.097 368.72 232.458 369.461 231.125L387.347 198.972C388.088 197.639 387.124 196 385.599 196H353.156C352.303 196 351.544 196.541 351.266 197.347L332.916 250.493C332.467 251.792 333.432 253.146 334.806 253.146H348.868C350.258 253.146 351.224 254.529 350.746 255.834Z" fill="#E4C55A" stroke="#393939" stroke-width="1.3" stroke-linejoin="round"/>
<path d="M417.746 255.834L403.369 295.075C402.585 297.216 405.418 298.791 406.822 296.995L453.473 237.329C454.5 236.016 453.564 234.097 451.898 234.097H438.209C436.683 234.097 435.72 232.458 436.461 231.125L454.347 198.972C455.088 197.639 454.124 196 452.599 196H420.156C419.303 196 418.544 196.541 418.266 197.347L399.916 250.493C399.467 251.792 400.432 253.146 401.806 253.146H415.868C417.258 253.146 418.224 254.529 417.746 255.834Z" fill="#E4C55A" stroke="#393939" stroke-width="1.3" stroke-linejoin="round"/>
<path d="M484.746 255.834L470.369 295.075C469.585 297.216 472.418 298.791 473.822 296.995L520.473 237.329C521.5 236.016 520.564 234.097 518.898 234.097H505.209C503.683 234.097 502.72 232.458 503.461 231.125L521.347 198.972C522.088 197.639 521.124 196 519.599 196H487.156C486.303 196 485.544 196.541 485.266 197.347L466.916 250.493C466.467 251.792 467.432 253.146 468.806 253.146H482.868C484.258 253.146 485.224 254.529 484.746 255.834Z" fill="#E4C55A" stroke="#393939" stroke-width="1.3" stroke-linejoin="round"/>
<path d="M551.746 255.834L537.369 295.075C536.585 297.216 539.418 298.791 540.822 296.995L587.473 237.329C588.5 236.016 587.564 234.097 585.898 234.097H572.209C570.683 234.097 569.72 232.458 570.461 231.125L588.347 198.972C589.088 197.639 588.124 196 586.599 196H554.156C553.303 196 552.544 196.541 552.266 197.347L533.916 250.493C533.467 251.792 534.432 253.146 535.806 253.146H549.868C551.258 253.146 552.224 254.529 551.746 255.834Z" fill="#E4C55A" stroke="#393939" stroke-width="1.3" stroke-linejoin="round"/>
<path d="M618.746 255.834L604.369 295.075C603.585 297.216 606.418 298.791 607.822 296.995L654.473 237.329C655.5 236.016 654.564 234.097 652.898 234.097H639.209C637.683 234.097 636.72 232.458 637.461 231.125L655.347 198.972C656.088 197.639 655.124 196 653.599 196H621.156C620.303 196 619.544 196.541 619.266 197.347L600.916 250.493C600.467 251.792 601.432 253.146 602.806 253.146H616.868C618.258 253.146 619.224 254.529 618.746 255.834Z" fill="#E4C55A" stroke="#393939" stroke-width="1.3" stroke-linejoin="round"/>
<path d="M684.746 255.834L670.369 295.075C669.585 297.216 672.418 298.791 673.822 296.995L720.473 237.329C721.5 236.016 720.564 234.097 718.898 234.097H705.209C703.683 234.097 702.72 232.458 703.461 231.125L721.347 198.972C722.088 197.639 721.124 196 719.599 196H687.156C686.303 196 685.544 196.541 685.266 197.347L666.916 250.493C666.467 251.792 667.432 253.146 668.806 253.146H682.868C684.258 253.146 685.224 254.529 684.746 255.834Z" fill="#E4C55A" stroke="#393939" stroke-width="1.3" stroke-linejoin="round"/>
<path d="M18.7459 366.834L4.36892 406.075C3.58472 408.216 6.41833 409.791 7.82243 407.995L54.4731 348.329C55.4997 347.016 54.5642 345.097 52.8975 345.097H39.2088C37.6834 345.097 36.7195 343.458 37.4611 342.125L55.3466 309.972C56.0882 308.639 55.1243 307 53.5989 307H21.1561C20.3031 307 19.544 307.541 19.2656 308.347L0.915911 361.493C0.467441 362.792 1.43226 364.146 2.8064 364.146H16.868C18.258 364.146 19.2241 365.529 18.7459 366.834Z" fill="#E4C55A" stroke="#393939" stroke-width="1.3" stroke-linejoin="round"/>
<path d="M84.7459 366.834L70.3689 406.075C69.5847 408.216 72.4183 409.791 73.8224 407.995L120.473 348.329C121.5 347.016 120.564 345.097 118.898 345.097H105.209C103.683 345.097 102.72 343.458 103.461 342.125L121.347 309.972C122.088 308.639 121.124 307 119.599 307H87.1561C86.3031 307 85.544 307.541 85.2656 308.347L66.9159 361.493C66.4674 362.792 67.4323 364.146 68.8064 364.146H82.868C84.258 364.146 85.2241 365.529 84.7459 366.834Z" fill="#E4C55A" stroke="#393939" stroke-width="1.3" stroke-linejoin="round"/>
<path d="M151.746 366.834L137.369 406.075C136.585 408.216 139.418 409.791 140.822 407.995L187.473 348.329C188.5 347.016 187.564 345.097 185.898 345.097H172.209C170.683 345.097 169.72 343.458 170.461 342.125L188.347 309.972C189.088 308.639 188.124 307 186.599 307H154.156C153.303 307 152.544 307.541 152.266 308.347L133.916 361.493C133.467 362.792 134.432 364.146 135.806 364.146H149.868C151.258 364.146 152.224 365.529 151.746 366.834Z" fill="#E4C55A" stroke="#393939" stroke-width="1.3" stroke-linejoin="round"/>
<path d="M217.746 366.834L203.369 406.075C202.585 408.216 205.418 409.791 206.822 407.995L253.473 348.329C254.5 347.016 253.564 345.097 251.898 345.097H238.209C236.683 345.097 235.72 343.458 236.461 342.125L254.347 309.972C255.088 308.639 254.124 307 252.599 307H220.156C219.303 307 218.544 307.541 218.266 308.347L199.916 361.493C199.467 362.792 200.432 364.146 201.806 364.146H215.868C217.258 364.146 218.224 365.529 217.746 366.834Z" fill="#E4C55A" stroke="#393939" stroke-width="1.3" stroke-linejoin="round"/>
<path d="M284.746 366.834L270.369 406.075C269.585 408.216 272.418 409.791 273.822 407.995L320.473 348.329C321.5 347.016 320.564 345.097 318.898 345.097H305.209C303.683 345.097 302.72 343.458 303.461 342.125L321.347 309.972C322.088 308.639 321.124 307 319.599 307H287.156C286.303 307 285.544 307.541 285.266 308.347L266.916 361.493C266.467 362.792 267.432 364.146 268.806 364.146H282.868C284.258 364.146 285.224 365.529 284.746 366.834Z" fill="#E4C55A" stroke="#393939" stroke-width="1.3" stroke-linejoin="round"/>
<path d="M350.746 366.834L336.369 406.075C335.585 408.216 338.418 409.791 339.822 407.995L386.473 348.329C387.5 347.016 386.564 345.097 384.898 345.097H371.209C369.683 345.097 368.72 343.458 369.461 342.125L387.347 309.972C388.088 308.639 387.124 307 385.599 307H353.156C352.303 307 351.544 307.541 351.266 308.347L332.916 361.493C332.467 362.792 333.432 364.146 334.806 364.146H348.868C350.258 364.146 351.224 365.529 350.746 366.834Z" fill="#E4C55A" stroke="#393939" stroke-width="1.3" stroke-linejoin="round"/>
<path d="M417.746 366.834L403.369 406.075C402.585 408.216 405.418 409.791 406.822 407.995L453.473 348.329C454.5 347.016 453.564 345.097 451.898 345.097H438.209C436.683 345.097 435.72 343.458 436.461 342.125L454.347 309.972C455.088 308.639 454.124 307 452.599 307H420.156C419.303 307 418.544 307.541 418.266 308.347L399.916 361.493C399.467 362.792 400.432 364.146 401.806 364.146H415.868C417.258 364.146 418.224 365.529 417.746 366.834Z" fill="#E4C55A" stroke="#393939" stroke-width="1.3" stroke-linejoin="round"/>
<path d="M484.746 366.834L470.369 406.075C469.585 408.216 472.418 409.791 473.822 407.995L520.473 348.329C521.5 347.016 520.564 345.097 518.898 345.097H505.209C503.683 345.097 502.72 343.458 503.461 342.125L521.347 309.972C522.088 308.639 521.124 307 519.599 307H487.156C486.303 307 485.544 307.541 485.266 308.347L466.916 361.493C466.467 362.792 467.432 364.146 468.806 364.146H482.868C484.258 364.146 485.224 365.529 484.746 366.834Z" fill="#E4C55A" stroke="#393939" stroke-width="1.3" stroke-linejoin="round"/>
<path d="M551.746 366.834L537.369 406.075C536.585 408.216 539.418 409.791 540.822 407.995L587.473 348.329C588.5 347.016 587.564 345.097 585.898 345.097H572.209C570.683 345.097 569.72 343.458 570.461 342.125L588.347 309.972C589.088 308.639 588.124 307 586.599 307H554.156C553.303 307 552.544 307.541 552.266 308.347L533.916 361.493C533.467 362.792 534.432 364.146 535.806 364.146H549.868C551.258 364.146 552.224 365.529 551.746 366.834Z" fill="#E4C55A" stroke="#393939" stroke-width="1.3" stroke-linejoin="round"/>
<path d="M618.746 366.834L604.369 406.075C603.585 408.216 606.418 409.791 607.822 407.995L654.473 348.329C655.5 347.016 654.564 345.097 652.898 345.097H639.209C637.683 345.097 636.72 343.458 637.461 342.125L655.347 309.972C656.088 308.639 655.124 307 653.599 307H621.156C620.303 307 619.544 307.541 619.266 308.347L600.916 361.493C600.467 362.792 601.432 364.146 602.806 364.146H616.868C618.258 364.146 619.224 365.529 618.746 366.834Z" fill="#E4C55A" stroke="#393939" stroke-width="1.3" stroke-linejoin="round"/>
<path d="M684.746 366.834L670.369 406.075C669.585 408.216 672.418 409.791 673.822 407.995L720.473 348.329C721.5 347.016 720.564 345.097 718.898 345.097H705.209C703.683 345.097 702.72 343.458 703.461 342.125L721.347 309.972C722.088 308.639 721.124 307 719.599 307H687.156C686.303 307 685.544 307.541 685.266 308.347L666.916 361.493C666.467 362.792 667.432 364.146 668.806 364.146H682.868C684.258 364.146 685.224 365.529 684.746 366.834Z" fill="#E4C55A" stroke="#393939" stroke-width="1.3" stroke-linejoin="round"/>
<path d="M18.7459 477.834L4.36892 517.075C3.58472 519.216 6.41833 520.791 7.82243 518.995L54.4731 459.329C55.4997 458.016 54.5642 456.097 52.8975 456.097H39.2088C37.6834 456.097 36.7195 454.458 37.4611 453.125L55.3466 420.972C56.0882 419.639 55.1243 418 53.5989 418H21.1561C20.3031 418 19.544 418.541 19.2656 419.347L0.915911 472.493C0.467441 473.792 1.43226 475.146 2.8064 475.146H16.868C18.258 475.146 19.2241 476.529 18.7459 477.834Z" fill="#E4C55A" stroke="#393939" stroke-width="1.3" stroke-linejoin="round"/>
<path d="M84.7459 477.834L70.3689 517.075C69.5847 519.216 72.4183 520.791 73.8224 518.995L120.473 459.329C121.5 458.016 120.564 456.097 118.898 456.097H105.209C103.683 456.097 102.72 454.458 103.461 453.125L121.347 420.972C122.088 419.639 121.124 418 119.599 418H87.1561C86.3031 418 85.544 418.541 85.2656 419.347L66.9159 472.493C66.4674 473.792 67.4323 475.146 68.8064 475.146H82.868C84.258 475.146 85.2241 476.529 84.7459 477.834Z" fill="#E4C55A" stroke="#393939" stroke-width="1.3" stroke-linejoin="round"/>
<path d="M151.746 477.834L137.369 517.075C136.585 519.216 139.418 520.791 140.822 518.995L187.473 459.329C188.5 458.016 187.564 456.097 185.898 456.097H172.209C170.683 456.097 169.72 454.458 170.461 453.125L188.347 420.972C189.088 419.639 188.124 418 186.599 418H154.156C153.303 418 152.544 418.541 152.266 419.347L133.916 472.493C133.467 473.792 134.432 475.146 135.806 475.146H149.868C151.258 475.146 152.224 476.529 151.746 477.834Z" fill="#E4C55A" stroke="#393939" stroke-width="1.3" stroke-linejoin="round"/>
<path d="M217.746 477.834L203.369 517.075C202.585 519.216 205.418 520.791 206.822 518.995L253.473 459.329C254.5 458.016 253.564 456.097 251.898 456.097H238.209C236.683 456.097 235.72 454.458 236.461 453.125L254.347 420.972C255.088 419.639 254.124 418 252.599 418H220.156C219.303 418 218.544 418.541 218.266 419.347L199.916 472.493C199.467 473.792 200.432 475.146 201.806 475.146H215.868C217.258 475.146 218.224 476.529 217.746 477.834Z" fill="#E4C55A" stroke="#393939" stroke-width="1.3" stroke-linejoin="round"/>
<path d="M284.746 477.834L270.369 517.075C269.585 519.216 272.418 520.791 273.822 518.995L320.473 459.329C321.5 458.016 320.564 456.097 318.898 456.097H305.209C303.683 456.097 302.72 454.458 303.461 453.125L321.347 420.972C322.088 419.639 321.124 418 319.599 418H287.156C286.303 418 285.544 418.541 285.266 419.347L266.916 472.493C266.467 473.792 267.432 475.146 268.806 475.146H282.868C284.258 475.146 285.224 476.529 284.746 477.834Z" fill="#E4C55A" stroke="#393939" stroke-width="1.3" stroke-linejoin="round"/>
<path d="M350.746 477.834L336.369 517.075C335.585 519.216 338.418 520.791 339.822 518.995L386.473 459.329C387.5 458.016 386.564 456.097 384.898 456.097H371.209C369.683 456.097 368.72 454.458 369.461 453.125L387.347 420.972C388.088 419.639 387.124 418 385.599 418H353.156C352.303 418 351.544 418.541 351.266 419.347L332.916 472.493C332.467 473.792 333.432 475.146 334.806 475.146H348.868C350.258 475.146 351.224 476.529 350.746 477.834Z" fill="#E4C55A" stroke="#393939" stroke-width="1.3" stroke-linejoin="round"/>
<path d="M417.746 477.834L403.369 517.075C402.585 519.216 405.418 520.791 406.822 518.995L453.473 459.329C454.5 458.016 453.564 456.097 451.898 456.097H438.209C436.683 456.097 435.72 454.458 436.461 453.125L454.347 420.972C455.088 419.639 454.124 418 452.599 418H420.156C419.303 418 418.544 418.541 418.266 419.347L399.916 472.493C399.467 473.792 400.432 475.146 401.806 475.146H415.868C417.258 475.146 418.224 476.529 417.746 477.834Z" fill="#E4C55A" stroke="#393939" stroke-width="1.3" stroke-linejoin="round"/>
<path d="M484.746 477.834L470.369 517.075C469.585 519.216 472.418 520.791 473.822 518.995L520.473 459.329C521.5 458.016 520.564 456.097 518.898 456.097H505.209C503.683 456.097 502.72 454.458 503.461 453.125L521.347 420.972C522.088 419.639 521.124 418 519.599 418H487.156C486.303 418 485.544 418.541 485.266 419.347L466.916 472.493C466.467 473.792 467.432 475.146 468.806 475.146H482.868C484.258 475.146 485.224 476.529 484.746 477.834Z" fill="#E4C55A" stroke="#393939" stroke-width="1.3" stroke-linejoin="round"/>
<path d="M551.746 477.834L537.369 517.075C536.585 519.216 539.418 520.791 540.822 518.995L587.473 459.329C588.5 458.016 587.564 456.097 585.898 456.097H572.209C570.683 456.097 569.72 454.458 570.461 453.125L588.347 420.972C589.088 419.639 588.124 418 586.599 418H554.156C553.303 418 552.544 418.541 552.266 419.347L533.916 472.493C533.467 473.792 534.432 475.146 535.806 475.146H549.868C551.258 475.146 552.224 476.529 551.746 477.834Z" fill="#E4C55A" stroke="#393939" stroke-width="1.3" stroke-linejoin="round"/>
<path d="M618.746 477.834L604.369 517.075C603.585 519.216 606.418 520.791 607.822 518.995L654.473 459.329C655.5 458.016 654.564 456.097 652.898 456.097H639.209C637.683 456.097 636.72 454.458 637.461 453.125L655.347 420.972C656.088 419.639 655.124 418 653.599 418H621.156C620.303 418 619.544 418.541 619.266 419.347L600.916 472.493C600.467 473.792 601.432 475.146 602.806 475.146H616.868C618.258 475.146 619.224 476.529 618.746 477.834Z" fill="#E4C55A" stroke="#393939" stroke-width="1.3" stroke-linejoin="round"/>
<path d="M684.746 477.834L670.369 517.075C669.585 519.216 672.418 520.791 673.822 518.995L720.473 459.329C721.5 458.016 720.564 456.097 718.898 456.097H705.209C703.683 456.097 702.72 454.458 703.461 453.125L721.347 420.972C722.088 419.639 721.124 418 719.599 418H687.156C686.303 418 685.544 418.541 685.266 419.347L666.916 472.493C666.467 473.792 667.432 475.146 668.806 475.146H682.868C684.258 475.146 685.224 476.529 684.746 477.834Z" fill="#E4C55A" stroke="#393939" stroke-width="1.3" stroke-linejoin="round"/>
<path d="M18.7459 588.834L4.36892 628.075C3.58472 630.216 6.41833 631.791 7.82243 629.995L54.4731 570.329C55.4997 569.016 54.5642 567.097 52.8975 567.097H39.2088C37.6834 567.097 36.7195 565.458 37.4611 564.125L55.3466 531.972C56.0882 530.639 55.1243 529 53.5989 529H21.1561C20.3031 529 19.544 529.541 19.2656 530.347L0.915911 583.493C0.467441 584.792 1.43226 586.146 2.8064 586.146H16.868C18.258 586.146 19.2241 587.529 18.7459 588.834Z" fill="#E4C55A" stroke="#393939" stroke-width="1.3" stroke-linejoin="round"/>
<path d="M84.7459 588.834L70.3689 628.075C69.5847 630.216 72.4183 631.791 73.8224 629.995L120.473 570.329C121.5 569.016 120.564 567.097 118.898 567.097H105.209C103.683 567.097 102.72 565.458 103.461 564.125L121.347 531.972C122.088 530.639 121.124 529 119.599 529H87.1561C86.3031 529 85.544 529.541 85.2656 530.347L66.9159 583.493C66.4674 584.792 67.4323 586.146 68.8064 586.146H82.868C84.258 586.146 85.2241 587.529 84.7459 588.834Z" fill="#E4C55A" stroke="#393939" stroke-width="1.3" stroke-linejoin="round"/>
<path d="M151.746 588.834L137.369 628.075C136.585 630.216 139.418 631.791 140.822 629.995L187.473 570.329C188.5 569.016 187.564 567.097 185.898 567.097H172.209C170.683 567.097 169.72 565.458 170.461 564.125L188.347 531.972C189.088 530.639 188.124 529 186.599 529H154.156C153.303 529 152.544 529.541 152.266 530.347L133.916 583.493C133.467 584.792 134.432 586.146 135.806 586.146H149.868C151.258 586.146 152.224 587.529 151.746 588.834Z" fill="#E4C55A" stroke="#393939" stroke-width="1.3" stroke-linejoin="round"/>
<path d="M217.746 588.834L203.369 628.075C202.585 630.216 205.418 631.791 206.822 629.995L253.473 570.329C254.5 569.016 253.564 567.097 251.898 567.097H238.209C236.683 567.097 235.72 565.458 236.461 564.125L254.347 531.972C255.088 530.639 254.124 529 252.599 529H220.156C219.303 529 218.544 529.541 218.266 530.347L199.916 583.493C199.467 584.792 200.432 586.146 201.806 586.146H215.868C217.258 586.146 218.224 587.529 217.746 588.834Z" fill="#E4C55A" stroke="#393939" stroke-width="1.3" stroke-linejoin="round"/>
<path d="M284.746 588.834L270.369 628.075C269.585 630.216 272.418 631.791 273.822 629.995L320.473 570.329C321.5 569.016 320.564 567.097 318.898 567.097H305.209C303.683 567.097 302.72 565.458 303.461 564.125L321.347 531.972C322.088 530.639 321.124 529 319.599 529H287.156C286.303 529 285.544 529.541 285.266 530.347L266.916 583.493C266.467 584.792 267.432 586.146 268.806 586.146H282.868C284.258 586.146 285.224 587.529 284.746 588.834Z" fill="#E4C55A" stroke="#393939" stroke-width="1.3" stroke-linejoin="round"/>
<path d="M350.746 588.834L336.369 628.075C335.585 630.216 338.418 631.791 339.822 629.995L386.473 570.329C387.5 569.016 386.564 567.097 384.898 567.097H371.209C369.683 567.097 368.72 565.458 369.461 564.125L387.347 531.972C388.088 530.639 387.124 529 385.599 529H353.156C352.303 529 351.544 529.541 351.266 530.347L332.916 583.493C332.467 584.792 333.432 586.146 334.806 586.146H348.868C350.258 586.146 351.224 587.529 350.746 588.834Z" fill="#E4C55A" stroke="#393939" stroke-width="1.3" stroke-linejoin="round"/>
<path d="M417.746 588.834L403.369 628.075C402.585 630.216 405.418 631.791 406.822 629.995L453.473 570.329C454.5 569.016 453.564 567.097 451.898 567.097H438.209C436.683 567.097 435.72 565.458 436.461 564.125L454.347 531.972C455.088 530.639 454.124 529 452.599 529H420.156C419.303 529 418.544 529.541 418.266 530.347L399.916 583.493C399.467 584.792 400.432 586.146 401.806 586.146H415.868C417.258 586.146 418.224 587.529 417.746 588.834Z" fill="#E4C55A" stroke="#393939" stroke-width="1.3" stroke-linejoin="round"/>
<path d="M484.746 588.834L470.369 628.075C469.585 630.216 472.418 631.791 473.822 629.995L520.473 570.329C521.5 569.016 520.564 567.097 518.898 567.097H505.209C503.683 567.097 502.72 565.458 503.461 564.125L521.347 531.972C522.088 530.639 521.124 529 519.599 529H487.156C486.303 529 485.544 529.541 485.266 530.347L466.916 583.493C466.467 584.792 467.432 586.146 468.806 586.146H482.868C484.258 586.146 485.224 587.529 484.746 588.834Z" fill="#E4C55A" stroke="#393939" stroke-width="1.3" stroke-linejoin="round"/>
<path d="M551.746 588.834L537.369 628.075C536.585 630.216 539.418 631.791 540.822 629.995L587.473 570.329C588.5 569.016 587.564 567.097 585.898 567.097H572.209C570.683 567.097 569.72 565.458 570.461 564.125L588.347 531.972C589.088 530.639 588.124 529 586.599 529H554.156C553.303 529 552.544 529.541 552.266 530.347L533.916 583.493C533.467 584.792 534.432 586.146 535.806 586.146H549.868C551.258 586.146 552.224 587.529 551.746 588.834Z" fill="#E4C55A" stroke="#393939" stroke-width="1.3" stroke-linejoin="round"/>
<path d="M618.746 588.834L604.369 628.075C603.585 630.216 606.418 631.791 607.822 629.995L654.473 570.329C655.5 569.016 654.564 567.097 652.898 567.097H639.209C637.683 567.097 636.72 565.458 637.461 564.125L655.347 531.972C656.088 530.639 655.124 529 653.599 529H621.156C620.303 529 619.544 529.541 619.266 530.347L600.916 583.493C600.467 584.792 601.432 586.146 602.806 586.146H616.868C618.258 586.146 619.224 587.529 618.746 588.834Z" fill="#E4C55A" stroke="#393939" stroke-width="1.3" stroke-linejoin="round"/>
<path d="M684.746 588.834L670.369 628.075C669.585 630.216 672.418 631.791 673.822 629.995L720.473 570.329C721.5 569.016 720.564 567.097 718.898 567.097H705.209C703.683 567.097 702.72 565.458 703.461 564.125L721.347 531.972C722.088 530.639 721.124 529 719.599 529H687.156C686.303 529 685.544 529.541 685.266 530.347L666.916 583.493C666.467 584.792 667.432 586.146 668.806 586.146H682.868C684.258 586.146 685.224 587.529 684.746 588.834Z" fill="#E4C55A" stroke="#393939" stroke-width="1.3" stroke-linejoin="round"/>
<path d="M18.7459 703.834L4.36892 743.075C3.58472 745.216 6.41833 746.791 7.82243 744.995L54.4731 685.329C55.4997 684.016 54.5642 682.097 52.8975 682.097H39.2088C37.6834 682.097 36.7195 680.458 37.4611 679.125L55.3466 646.972C56.0882 645.639 55.1243 644 53.5989 644H21.1561C20.3031 644 19.544 644.541 19.2656 645.347L0.915911 698.493C0.467441 699.792 1.43226 701.146 2.8064 701.146H16.868C18.258 701.146 19.2241 702.529 18.7459 703.834Z" fill="#E4C55A" stroke="#393939" stroke-width="1.3" stroke-linejoin="round"/>
<path d="M84.7459 703.834L70.3689 743.075C69.5847 745.216 72.4183 746.791 73.8224 744.995L120.473 685.329C121.5 684.016 120.564 682.097 118.898 682.097H105.209C103.683 682.097 102.72 680.458 103.461 679.125L121.347 646.972C122.088 645.639 121.124 644 119.599 644H87.1561C86.3031 644 85.544 644.541 85.2656 645.347L66.9159 698.493C66.4674 699.792 67.4323 701.146 68.8064 701.146H82.868C84.258 701.146 85.2241 702.529 84.7459 703.834Z" fill="#E4C55A" stroke="#393939" stroke-width="1.3" stroke-linejoin="round"/>
<path d="M151.746 703.834L137.369 743.075C136.585 745.216 139.418 746.791 140.822 744.995L187.473 685.329C188.5 684.016 187.564 682.097 185.898 682.097H172.209C170.683 682.097 169.72 680.458 170.461 679.125L188.347 646.972C189.088 645.639 188.124 644 186.599 644H154.156C153.303 644 152.544 644.541 152.266 645.347L133.916 698.493C133.467 699.792 134.432 701.146 135.806 701.146H149.868C151.258 701.146 152.224 702.529 151.746 703.834Z" fill="#E4C55A" stroke="#393939" stroke-width="1.3" stroke-linejoin="round"/>
<path d="M217.746 703.834L203.369 743.075C202.585 745.216 205.418 746.791 206.822 744.995L253.473 685.329C254.5 684.016 253.564 682.097 251.898 682.097H238.209C236.683 682.097 235.72 680.458 236.461 679.125L254.347 646.972C255.088 645.639 254.124 644 252.599 644H220.156C219.303 644 218.544 644.541 218.266 645.347L199.916 698.493C199.467 699.792 200.432 701.146 201.806 701.146H215.868C217.258 701.146 218.224 702.529 217.746 703.834Z" fill="#E4C55A" stroke="#393939" stroke-width="1.3" stroke-linejoin="round"/>
<path d="M284.746 703.834L270.369 743.075C269.585 745.216 272.418 746.791 273.822 744.995L320.473 685.329C321.5 684.016 320.564 682.097 318.898 682.097H305.209C303.683 682.097 302.72 680.458 303.461 679.125L321.347 646.972C322.088 645.639 321.124 644 319.599 644H287.156C286.303 644 285.544 644.541 285.266 645.347L266.916 698.493C266.467 699.792 267.432 701.146 268.806 701.146H282.868C284.258 701.146 285.224 702.529 284.746 703.834Z" fill="#E4C55A" stroke="#393939" stroke-width="1.3" stroke-linejoin="round"/>
<path d="M350.746 703.834L336.369 743.075C335.585 745.216 338.418 746.791 339.822 744.995L386.473 685.329C387.5 684.016 386.564 682.097 384.898 682.097H371.209C369.683 682.097 368.72 680.458 369.461 679.125L387.347 646.972C388.088 645.639 387.124 644 385.599 644H353.156C352.303 644 351.544 644.541 351.266 645.347L332.916 698.493C332.467 699.792 333.432 701.146 334.806 701.146H348.868C350.258 701.146 351.224 702.529 350.746 703.834Z" fill="#E4C55A" stroke="#393939" stroke-width="1.3" stroke-linejoin="round"/>
<path d="M417.746 703.834L403.369 743.075C402.585 745.216 405.418 746.791 406.822 744.995L453.473 685.329C454.5 684.016 453.564 682.097 451.898 682.097H438.209C436.683 682.097 435.72 680.458 436.461 679.125L454.347 646.972C455.088 645.639 454.124 644 452.599 644H420.156C419.303 644 418.544 644.541 418.266 645.347L399.916 698.493C399.467 699.792 400.432 701.146 401.806 701.146H415.868C417.258 701.146 418.224 702.529 417.746 703.834Z" fill="#E4C55A" stroke="#393939" stroke-width="1.3" stroke-linejoin="round"/>
<path d="M484.746 703.834L470.369 743.075C469.585 745.216 472.418 746.791 473.822 744.995L520.473 685.329C521.5 684.016 520.564 682.097 518.898 682.097H505.209C503.683 682.097 502.72 680.458 503.461 679.125L521.347 646.972C522.088 645.639 521.124 644 519.599 644H487.156C486.303 644 485.544 644.541 485.266 645.347L466.916 698.493C466.467 699.792 467.432 701.146 468.806 701.146H482.868C484.258 701.146 485.224 702.529 484.746 703.834Z" fill="#E4C55A" stroke="#393939" stroke-width="1.3" stroke-linejoin="round"/>
<path d="M551.746 703.834L537.369 743.075C536.585 745.216 539.418 746.791 540.822 744.995L587.473 685.329C588.5 684.016 587.564 682.097 585.898 682.097H572.209C570.683 682.097 569.72 680.458 570.461 679.125L588.347 646.972C589.088 645.639 588.124 644 586.599 644H554.156C553.303 644 552.544 644.541 552.266 645.347L533.916 698.493C533.467 699.792 534.432 701.146 535.806 701.146H549.868C551.258 701.146 552.224 702.529 551.746 703.834Z" fill="#E4C55A" stroke="#393939" stroke-width="1.3" stroke-linejoin="round"/>
<path d="M618.746 703.834L604.369 743.075C603.585 745.216 606.418 746.791 607.822 744.995L654.473 685.329C655.5 684.016 654.564 682.097 652.898 682.097H639.209C637.683 682.097 636.72 680.458 637.461 679.125L655.347 646.972C656.088 645.639 655.124 644 653.599 644H621.156C620.303 644 619.544 644.541 619.266 645.347L600.916 698.493C600.467 699.792 601.432 701.146 602.806 701.146H616.868C618.258 701.146 619.224 702.529 618.746 703.834Z" fill="#E4C55A" stroke="#393939" stroke-width="1.3" stroke-linejoin="round"/>
<path d="M684.746 703.834L670.369 743.075C669.585 745.216 672.418 746.791 673.822 744.995L720.473 685.329C721.5 684.016 720.564 682.097 718.898 682.097H705.209C703.683 682.097 702.72 680.458 703.461 679.125L721.347 646.972C722.088 645.639 721.124 644 719.599 644H687.156C686.303 644 685.544 644.541 685.266 645.347L666.916 698.493C666.467 699.792 667.432 701.146 668.806 701.146H682.868C684.258 701.146 685.224 702.529 684.746 703.834Z" fill="#E4C55A" stroke="#393939" stroke-width="1.3" stroke-linejoin="round"/>
<path d="M18.7459 814.834L4.36892 854.075C3.58472 856.216 6.41833 857.791 7.82243 855.995L54.4731 796.329C55.4997 795.016 54.5642 793.097 52.8975 793.097H39.2088C37.6834 793.097 36.7195 791.458 37.4611 790.125L55.3466 757.972C56.0882 756.639 55.1243 755 53.5989 755H21.1561C20.3031 755 19.544 755.541 19.2656 756.347L0.915911 809.493C0.467441 810.792 1.43226 812.146 2.8064 812.146H16.868C18.258 812.146 19.2241 813.529 18.7459 814.834Z" fill="#E4C55A" stroke="#393939" stroke-width="1.3" stroke-linejoin="round"/>
<path d="M84.7459 814.834L70.3689 854.075C69.5847 856.216 72.4183 857.791 73.8224 855.995L120.473 796.329C121.5 795.016 120.564 793.097 118.898 793.097H105.209C103.683 793.097 102.72 791.458 103.461 790.125L121.347 757.972C122.088 756.639 121.124 755 119.599 755H87.1561C86.3031 755 85.544 755.541 85.2656 756.347L66.9159 809.493C66.4674 810.792 67.4323 812.146 68.8064 812.146H82.868C84.258 812.146 85.2241 813.529 84.7459 814.834Z" fill="#E4C55A" stroke="#393939" stroke-width="1.3" stroke-linejoin="round"/>
<path d="M151.746 814.834L137.369 854.075C136.585 856.216 139.418 857.791 140.822 855.995L187.473 796.329C188.5 795.016 187.564 793.097 185.898 793.097H172.209C170.683 793.097 169.72 791.458 170.461 790.125L188.347 757.972C189.088 756.639 188.124 755 186.599 755H154.156C153.303 755 152.544 755.541 152.266 756.347L133.916 809.493C133.467 810.792 134.432 812.146 135.806 812.146H149.868C151.258 812.146 152.224 813.529 151.746 814.834Z" fill="#E4C55A" stroke="#393939" stroke-width="1.3" stroke-linejoin="round"/>
<path d="M217.746 814.834L203.369 854.075C202.585 856.216 205.418 857.791 206.822 855.995L253.473 796.329C254.5 795.016 253.564 793.097 251.898 793.097H238.209C236.683 793.097 235.72 791.458 236.461 790.125L254.347 757.972C255.088 756.639 254.124 755 252.599 755H220.156C219.303 755 218.544 755.541 218.266 756.347L199.916 809.493C199.467 810.792 200.432 812.146 201.806 812.146H215.868C217.258 812.146 218.224 813.529 217.746 814.834Z" fill="#E4C55A" stroke="#393939" stroke-width="1.3" stroke-linejoin="round"/>
<path d="M284.746 814.834L270.369 854.075C269.585 856.216 272.418 857.791 273.822 855.995L320.473 796.329C321.5 795.016 320.564 793.097 318.898 793.097H305.209C303.683 793.097 302.72 791.458 303.461 790.125L321.347 757.972C322.088 756.639 321.124 755 319.599 755H287.156C286.303 755 285.544 755.541 285.266 756.347L266.916 809.493C266.467 810.792 267.432 812.146 268.806 812.146H282.868C284.258 812.146 285.224 813.529 284.746 814.834Z" fill="#E4C55A" stroke="#393939" stroke-width="1.3" stroke-linejoin="round"/>
<path d="M350.746 814.834L336.369 854.075C335.585 856.216 338.418 857.791 339.822 855.995L386.473 796.329C387.5 795.016 386.564 793.097 384.898 793.097H371.209C369.683 793.097 368.72 791.458 369.461 790.125L387.347 757.972C388.088 756.639 387.124 755 385.599 755H353.156C352.303 755 351.544 755.541 351.266 756.347L332.916 809.493C332.467 810.792 333.432 812.146 334.806 812.146H348.868C350.258 812.146 351.224 813.529 350.746 814.834Z" fill="#E4C55A" stroke="#393939" stroke-width="1.3" stroke-linejoin="round"/>
<path d="M417.746 814.834L403.369 854.075C402.585 856.216 405.418 857.791 406.822 855.995L453.473 796.329C454.5 795.016 453.564 793.097 451.898 793.097H438.209C436.683 793.097 435.72 791.458 436.461 790.125L454.347 757.972C455.088 756.639 454.124 755 452.599 755H420.156C419.303 755 418.544 755.541 418.266 756.347L399.916 809.493C399.467 810.792 400.432 812.146 401.806 812.146H415.868C417.258 812.146 418.224 813.529 417.746 814.834Z" fill="#E4C55A" stroke="#393939" stroke-width="1.3" stroke-linejoin="round"/>
<path d="M484.746 814.834L470.369 854.075C469.585 856.216 472.418 857.791 473.822 855.995L520.473 796.329C521.5 795.016 520.564 793.097 518.898 793.097H505.209C503.683 793.097 502.72 791.458 503.461 790.125L521.347 757.972C522.088 756.639 521.124 755 519.599 755H487.156C486.303 755 485.544 755.541 485.266 756.347L466.916 809.493C466.467 810.792 467.432 812.146 468.806 812.146H482.868C484.258 812.146 485.224 813.529 484.746 814.834Z" fill="#E4C55A" stroke="#393939" stroke-width="1.3" stroke-linejoin="round"/>
<path d="M551.746 814.834L537.369 854.075C536.585 856.216 539.418 857.791 540.822 855.995L587.473 796.329C588.5 795.016 587.564 793.097 585.898 793.097H572.209C570.683 793.097 569.72 791.458 570.461 790.125L588.347 757.972C589.088 756.639 588.124 755 586.599 755H554.156C553.303 755 552.544 755.541 552.266 756.347L533.916 809.493C533.467 810.792 534.432 812.146 535.806 812.146H549.868C551.258 812.146 552.224 813.529 551.746 814.834Z" fill="#E4C55A" stroke="#393939" stroke-width="1.3" stroke-linejoin="round"/>
<path d="M618.746 814.834L604.369 854.075C603.585 856.216 606.418 857.791 607.822 855.995L654.473 796.329C655.5 795.016 654.564 793.097 652.898 793.097H639.209C637.683 793.097 636.72 791.458 637.461 790.125L655.347 757.972C656.088 756.639 655.124 755 653.599 755H621.156C620.303 755 619.544 755.541 619.266 756.347L600.916 809.493C600.467 810.792 601.432 812.146 602.806 812.146H616.868C618.258 812.146 619.224 813.529 618.746 814.834Z" fill="#E4C55A" stroke="#393939" stroke-width="1.3" stroke-linejoin="round"/>
<path d="M684.746 814.834L670.369 854.075C669.585 856.216 672.418 857.791 673.822 855.995L720.473 796.329C721.5 795.016 720.564 793.097 718.898 793.097H705.209C703.683 793.097 702.72 791.458 703.461 790.125L721.347 757.972C722.088 756.639 721.124 755 719.599 755H687.156C686.303 755 685.544 755.541 685.266 756.347L666.916 809.493C666.467 810.792 667.432 812.146 668.806 812.146H682.868C684.258 812.146 685.224 813.529 684.746 814.834Z" fill="#E4C55A" stroke="#393939" stroke-width="1.3" stroke-linejoin="round"/>
</svg>
