<svg width="550" height="494" viewBox="0 0 550 494" fill="none" xmlns="http://www.w3.org/2000/svg">
<path d="M330.55 123.644L294.373 222.098C293.587 224.237 296.418 225.815 297.825 224.022L407.464 84.2038C408.493 82.8913 407.558 80.9697 405.89 80.9697H368.791C367.264 80.9697 366.3 79.3284 367.044 77.9953L408.341 3.97442C409.084 2.6413 408.121 1 406.594 1H332.962C332.11 1 331.351 1.54016 331.073 2.34556L290.919 118.3C290.469 119.599 291.434 120.955 292.809 120.955H328.673C330.064 120.955 331.03 122.339 330.55 123.644Z" fill="#E4C55A" stroke="#393939" stroke-width="1.3" stroke-linejoin="round"/>
<path d="M470.55 123.644L434.373 222.098C433.587 224.237 436.418 225.815 437.825 224.022L547.464 84.2038C548.493 82.8913 547.558 80.9697 545.89 80.9697H508.791C507.264 80.9697 506.3 79.3284 507.044 77.9953L548.341 3.97442C549.084 2.6413 548.121 1 546.594 1H472.962C472.11 1 471.351 1.54016 471.073 2.34556L430.919 118.3C430.469 119.599 431.434 120.955 432.809 120.955H468.673C470.064 120.955 471.03 122.339 470.55 123.644Z" fill="#E4C55A" stroke="#393939" stroke-width="1.3" stroke-linejoin="round"/>
<path d="M40.5501 383.644L4.37347 482.098C3.58742 484.237 6.41826 485.815 7.82457 484.022L117.464 344.204C118.493 342.891 117.558 340.97 115.89 340.97H78.7906C77.2641 340.97 76.3003 339.328 77.0441 337.995L118.341 263.974C119.084 262.641 118.121 261 116.594 261H42.9624C42.1101 261 41.3514 261.54 41.0725 262.346L0.919194 378.3C0.469297 379.599 1.43419 380.955 2.80909 380.955H38.6728C40.0636 380.955 41.0298 382.339 40.5501 383.644Z" fill="#E4C55A" stroke="#393939" stroke-width="1.3" stroke-linejoin="round"/>
<path d="M180.55 383.644L144.373 482.098C143.587 484.237 146.418 485.815 147.825 484.022L257.464 344.204C258.493 342.891 257.558 340.97 255.89 340.97H218.791C217.264 340.97 216.3 339.328 217.044 337.995L258.341 263.974C259.084 262.641 258.121 261 256.594 261H182.962C182.11 261 181.351 261.54 181.073 262.346L140.919 378.3C140.469 379.599 141.434 380.955 142.809 380.955H178.673C180.064 380.955 181.03 382.339 180.55 383.644Z" fill="#E4C55A" stroke="#393939" stroke-width="1.3" stroke-linejoin="round"/>
<path d="M320.55 383.644L284.373 482.098C283.587 484.237 286.418 485.815 287.825 484.022L397.464 344.204C398.493 342.891 397.558 340.97 395.89 340.97H358.791C357.264 340.97 356.3 339.328 357.044 337.995L398.341 263.974C399.084 262.641 398.121 261 396.594 261H322.962C322.11 261 321.351 261.54 321.073 262.346L280.919 378.3C280.469 379.599 281.434 380.955 282.809 380.955H318.673C320.064 380.955 321.03 382.339 320.55 383.644Z" fill="#E4C55A" stroke="#393939" stroke-width="1.3" stroke-linejoin="round"/>
<path d="M460.55 383.644L424.373 482.098C423.587 484.237 426.418 485.815 427.825 484.022L537.464 344.204C538.493 342.891 537.558 340.97 535.89 340.97H498.791C497.264 340.97 496.3 339.328 497.044 337.995L538.341 263.974C539.084 262.641 538.121 261 536.594 261H462.962C462.11 261 461.351 261.54 461.073 262.346L420.919 378.3C420.469 379.599 421.434 380.955 422.809 380.955H458.673C460.064 380.955 461.03 382.339 460.55 383.644Z" fill="#E4C55A" stroke="#393939" stroke-width="1.3" stroke-linejoin="round"/>
<path d="M446.273 422.5L424.373 482.098C423.587 484.237 426.418 485.815 427.825 484.022L476.067 422.5H446.273Z" fill="#767676" stroke="#393939" stroke-width="1.3" stroke-linejoin="round"/>
<path d="M303.136 198.75L294.373 222.598C293.587 224.737 296.418 226.315 297.825 224.522L318.034 198.75H303.136Z" fill="#73B3C0" stroke="#393939" stroke-width="1.3" stroke-linejoin="round"/>
<path d="M50.5501 123.644L14.3735 222.098C13.5874 224.237 16.4183 225.815 17.8246 224.022L127.464 84.2038C128.493 82.8913 127.558 80.9697 125.89 80.9697H88.7906C87.2641 80.9697 86.3003 79.3284 87.0441 77.9953L128.341 3.97442C129.084 2.6413 128.121 1 126.594 1H52.9624C52.1101 1 51.3514 1.54016 51.0725 2.34556L10.9192 118.3C10.4693 119.599 11.4342 120.955 12.8091 120.955H48.6728C50.0636 120.955 51.0298 122.339 50.5501 123.644Z" fill="#73B3C0" stroke="#393939" stroke-width="1.3" stroke-linejoin="round"/>
<mask id="mask0" mask-type="alpha" maskUnits="userSpaceOnUse" x="24" y="25" width="88" height="119">
<path d="M77 29C77 29 87.4634 24.5 93.5 29C99.5366 33.5 110 29 110 29" stroke="white" stroke-width="3" stroke-linecap="round"/>
<path d="M26 60C26 60 36.4634 55.5 42.5 60C48.5366 64.5 59 60 59 60" stroke="white" stroke-width="3" stroke-linecap="round"/>
<path d="M74 93C74 93 84.4634 88.5 90.5 93C96.5366 97.5 107 93 107 93" stroke="white" stroke-width="3" stroke-linecap="round"/>
<path d="M38 140C38 140 48.4634 135.5 54.5 140C60.5366 144.5 71 140 71 140" stroke="white" stroke-width="3" stroke-linecap="round"/>
</mask>
<g mask="url(#mask0)">
<path d="M51.5501 120.644L15.3735 219.098C14.5874 221.237 17.4183 222.815 18.8246 221.022L128.464 81.2038C129.493 79.8913 128.558 77.9697 126.89 77.9697H89.7906C88.2641 77.9697 87.3003 76.3284 88.0441 74.9953L129.341 0.974418C130.084 -0.3587 129.121 -2 127.594 -2H53.9624C53.1101 -2 52.3514 -1.45984 52.0725 -0.654441L11.9192 115.3C11.4693 116.599 12.4342 117.955 13.8091 117.955H49.6728C51.0636 117.955 52.0298 119.339 51.5501 120.644Z" fill="white" stroke="#393939" stroke-width="1.3" stroke-linejoin="round"/>
</g>
<path d="M190.55 124.644L154.373 223.098C153.587 225.237 156.418 226.815 157.825 225.022L267.464 85.2038C268.493 83.8913 267.558 81.9697 265.89 81.9697H228.791C227.264 81.9697 226.3 80.3284 227.044 78.9953L268.341 4.97442C269.084 3.6413 268.121 2 266.594 2H192.962C192.11 2 191.351 2.54016 191.073 3.34556L150.919 119.3C150.469 120.599 151.434 121.955 152.809 121.955H188.673C190.064 121.955 191.03 123.339 190.55 124.644Z" fill="#73B3C0" stroke="#393939" stroke-width="1.3" stroke-linejoin="round"/>
<mask id="mask1" mask-type="alpha" maskUnits="userSpaceOnUse" x="164" y="26" width="88" height="119">
<path d="M217 30C217 30 227.463 25.5 233.5 30C239.537 34.5 250 30 250 30" stroke="white" stroke-width="3" stroke-linecap="round"/>
<path d="M166 61C166 61 176.463 56.5 182.5 61C188.537 65.5 199 61 199 61" stroke="white" stroke-width="3" stroke-linecap="round"/>
<path d="M214 94C214 94 224.463 89.5 230.5 94C236.537 98.5 247 94 247 94" stroke="white" stroke-width="3" stroke-linecap="round"/>
<path d="M178 141C178 141 188.463 136.5 194.5 141C200.537 145.5 211 141 211 141" stroke="white" stroke-width="3" stroke-linecap="round"/>
</mask>
<g mask="url(#mask1)">
<path d="M191.55 121.644L155.373 220.098C154.587 222.237 157.418 223.815 158.825 222.022L268.464 82.2038C269.493 80.8913 268.558 78.9697 266.89 78.9697H229.791C228.264 78.9697 227.3 77.3284 228.044 75.9953L269.341 1.97442C270.084 0.6413 269.121 -1 267.594 -1H193.962C193.11 -1 192.351 -0.459841 192.073 0.345559L151.919 116.3C151.469 117.599 152.434 118.955 153.809 118.955H189.673C191.064 118.955 192.03 120.339 191.55 121.644Z" fill="white" stroke="#393939" stroke-width="1.3" stroke-linejoin="round"/>
</g>
</svg>
