<svg width="594" height="716" viewBox="0 0 594 716" fill="none" xmlns="http://www.w3.org/2000/svg">
<path d="M194.149 22.18H207.439V24.94H194.149V22.18ZM194.149 16.9H207.439V19.645H194.149V16.9ZM213.547 28.225H217.942V15.58C217.942 15.09 217.957 14.575 217.987 14.035L214.867 16.645C214.737 16.755 214.602 16.83 214.462 16.87C214.332 16.91 214.202 16.93 214.072 16.93C213.872 16.93 213.687 16.89 213.517 16.81C213.357 16.72 213.237 16.62 213.157 16.51L211.987 14.905L218.602 9.28H221.647V28.225H225.547V31H213.547V28.225ZM243.564 20.155C243.564 22.045 243.359 23.69 242.949 25.09C242.549 26.48 241.989 27.63 241.269 28.54C240.559 29.45 239.714 30.13 238.734 30.58C237.764 31.02 236.714 31.24 235.584 31.24C234.454 31.24 233.404 31.02 232.434 30.58C231.474 30.13 230.639 29.45 229.929 28.54C229.219 27.63 228.664 26.48 228.264 25.09C227.864 23.69 227.664 22.045 227.664 20.155C227.664 18.255 227.864 16.61 228.264 15.22C228.664 13.83 229.219 12.68 229.929 11.77C230.639 10.86 231.474 10.185 232.434 9.745C233.404 9.295 234.454 9.07 235.584 9.07C236.714 9.07 237.764 9.295 238.734 9.745C239.714 10.185 240.559 10.86 241.269 11.77C241.989 12.68 242.549 13.83 242.949 15.22C243.359 16.61 243.564 18.255 243.564 20.155ZM239.739 20.155C239.739 18.585 239.624 17.285 239.394 16.255C239.164 15.225 238.854 14.405 238.464 13.795C238.084 13.185 237.644 12.76 237.144 12.52C236.644 12.27 236.124 12.145 235.584 12.145C235.054 12.145 234.539 12.27 234.039 12.52C233.549 12.76 233.114 13.185 232.734 13.795C232.354 14.405 232.049 15.225 231.819 16.255C231.599 17.285 231.489 18.585 231.489 20.155C231.489 21.725 231.599 23.025 231.819 24.055C232.049 25.085 232.354 25.905 232.734 26.515C233.114 27.125 233.549 27.555 234.039 27.805C234.539 28.045 235.054 28.165 235.584 28.165C236.124 28.165 236.644 28.045 237.144 27.805C237.644 27.555 238.084 27.125 238.464 26.515C238.854 25.905 239.164 25.085 239.394 24.055C239.624 23.025 239.739 21.725 239.739 20.155ZM260.966 20.155C260.966 22.045 260.761 23.69 260.351 25.09C259.951 26.48 259.391 27.63 258.671 28.54C257.961 29.45 257.116 30.13 256.136 30.58C255.166 31.02 254.116 31.24 252.986 31.24C251.856 31.24 250.806 31.02 249.836 30.58C248.876 30.13 248.041 29.45 247.331 28.54C246.621 27.63 246.066 26.48 245.666 25.09C245.266 23.69 245.066 22.045 245.066 20.155C245.066 18.255 245.266 16.61 245.666 15.22C246.066 13.83 246.621 12.68 247.331 11.77C248.041 10.86 248.876 10.185 249.836 9.745C250.806 9.295 251.856 9.07 252.986 9.07C254.116 9.07 255.166 9.295 256.136 9.745C257.116 10.185 257.961 10.86 258.671 11.77C259.391 12.68 259.951 13.83 260.351 15.22C260.761 16.61 260.966 18.255 260.966 20.155ZM257.141 20.155C257.141 18.585 257.026 17.285 256.796 16.255C256.566 15.225 256.256 14.405 255.866 13.795C255.486 13.185 255.046 12.76 254.546 12.52C254.046 12.27 253.526 12.145 252.986 12.145C252.456 12.145 251.941 12.27 251.441 12.52C250.951 12.76 250.516 13.185 250.136 13.795C249.756 14.405 249.451 15.225 249.221 16.255C249.001 17.285 248.891 18.585 248.891 20.155C248.891 21.725 249.001 23.025 249.221 24.055C249.451 25.085 249.756 25.905 250.136 26.515C250.516 27.125 250.951 27.555 251.441 27.805C251.941 28.045 252.456 28.165 252.986 28.165C253.526 28.165 254.046 28.045 254.546 27.805C255.046 27.555 255.486 27.125 255.866 26.515C256.256 25.905 256.566 25.085 256.796 24.055C257.026 23.025 257.141 21.725 257.141 20.155ZM278.369 20.155C278.369 22.045 278.164 23.69 277.754 25.09C277.354 26.48 276.794 27.63 276.074 28.54C275.364 29.45 274.519 30.13 273.539 30.58C272.569 31.02 271.519 31.24 270.389 31.24C269.259 31.24 268.209 31.02 267.239 30.58C266.279 30.13 265.444 29.45 264.734 28.54C264.024 27.63 263.469 26.48 263.069 25.09C262.669 23.69 262.469 22.045 262.469 20.155C262.469 18.255 262.669 16.61 263.069 15.22C263.469 13.83 264.024 12.68 264.734 11.77C265.444 10.86 266.279 10.185 267.239 9.745C268.209 9.295 269.259 9.07 270.389 9.07C271.519 9.07 272.569 9.295 273.539 9.745C274.519 10.185 275.364 10.86 276.074 11.77C276.794 12.68 277.354 13.83 277.754 15.22C278.164 16.61 278.369 18.255 278.369 20.155ZM274.544 20.155C274.544 18.585 274.429 17.285 274.199 16.255C273.969 15.225 273.659 14.405 273.269 13.795C272.889 13.185 272.449 12.76 271.949 12.52C271.449 12.27 270.929 12.145 270.389 12.145C269.859 12.145 269.344 12.27 268.844 12.52C268.354 12.76 267.919 13.185 267.539 13.795C267.159 14.405 266.854 15.225 266.624 16.255C266.404 17.285 266.294 18.585 266.294 20.155C266.294 21.725 266.404 23.025 266.624 24.055C266.854 25.085 267.159 25.905 267.539 26.515C267.919 27.125 268.354 27.555 268.844 27.805C269.344 28.045 269.859 28.165 270.389 28.165C270.929 28.165 271.449 28.045 271.949 27.805C272.449 27.555 272.889 27.125 273.269 26.515C273.659 25.905 273.969 25.085 274.199 24.055C274.429 23.025 274.544 21.725 274.544 20.155ZM297.072 28.03C297.982 28.03 298.772 27.95 299.442 27.79C300.122 27.62 300.767 27.39 301.377 27.1V23.155H298.662C298.402 23.155 298.197 23.085 298.047 22.945C297.897 22.795 297.822 22.615 297.822 22.405V20.125H305.037V28.9C304.487 29.3 303.912 29.65 303.312 29.95C302.722 30.24 302.087 30.48 301.407 30.67C300.737 30.86 300.017 31 299.247 31.09C298.477 31.19 297.647 31.24 296.757 31.24C295.177 31.24 293.722 30.965 292.392 30.415C291.062 29.865 289.912 29.1 288.942 28.12C287.972 27.14 287.212 25.97 286.662 24.61C286.122 23.25 285.852 21.765 285.852 20.155C285.852 18.525 286.117 17.03 286.647 15.67C287.177 14.31 287.927 13.14 288.897 12.16C289.877 11.18 291.062 10.42 292.452 9.88C293.842 9.34 295.402 9.07 297.132 9.07C298.902 9.07 300.432 9.335 301.722 9.865C303.022 10.385 304.122 11.065 305.022 11.905L303.852 13.735C303.622 14.105 303.317 14.29 302.937 14.29C302.697 14.29 302.452 14.21 302.202 14.05C301.882 13.86 301.552 13.67 301.212 13.48C300.882 13.29 300.512 13.125 300.102 12.985C299.702 12.845 299.247 12.73 298.737 12.64C298.237 12.55 297.657 12.505 296.997 12.505C295.927 12.505 294.957 12.685 294.087 13.045C293.227 13.405 292.492 13.92 291.882 14.59C291.272 15.26 290.802 16.065 290.472 17.005C290.142 17.945 289.977 18.995 289.977 20.155C289.977 21.405 290.152 22.52 290.502 23.5C290.852 24.47 291.342 25.29 291.972 25.96C292.602 26.63 293.352 27.145 294.222 27.505C295.092 27.855 296.042 28.03 297.072 28.03ZM312.527 15.61V31H308.822V15.61H312.527ZM313.082 11.125C313.082 11.445 313.017 11.745 312.887 12.025C312.757 12.305 312.582 12.55 312.362 12.76C312.152 12.97 311.902 13.14 311.612 13.27C311.322 13.39 311.012 13.45 310.682 13.45C310.362 13.45 310.057 13.39 309.767 13.27C309.487 13.14 309.242 12.97 309.032 12.76C308.822 12.55 308.652 12.305 308.522 12.025C308.402 11.745 308.342 11.445 308.342 11.125C308.342 10.795 308.402 10.485 308.522 10.195C308.652 9.905 308.822 9.655 309.032 9.445C309.242 9.235 309.487 9.07 309.767 8.95C310.057 8.82 310.362 8.755 310.682 8.755C311.012 8.755 311.322 8.82 311.612 8.95C311.902 9.07 312.152 9.235 312.362 9.445C312.582 9.655 312.757 9.905 312.887 10.195C313.017 10.485 313.082 10.795 313.082 11.125ZM322.051 15.34C322.711 15.34 323.331 15.41 323.911 15.55C324.491 15.68 325.021 15.875 325.501 16.135H329.926V17.515C329.926 17.745 329.866 17.925 329.746 18.055C329.626 18.185 329.421 18.275 329.131 18.325L327.751 18.58C327.851 18.84 327.926 19.115 327.976 19.405C328.036 19.695 328.066 20 328.066 20.32C328.066 21.08 327.911 21.77 327.601 22.39C327.301 23 326.881 23.52 326.341 23.95C325.811 24.38 325.176 24.715 324.436 24.955C323.706 25.185 322.911 25.3 322.051 25.3C321.471 25.3 320.906 25.245 320.356 25.135C319.876 25.425 319.636 25.75 319.636 26.11C319.636 26.42 319.776 26.65 320.056 26.8C320.346 26.94 320.721 27.04 321.181 27.1C321.651 27.16 322.181 27.2 322.771 27.22C323.361 27.23 323.966 27.26 324.586 27.31C325.206 27.36 325.811 27.45 326.401 27.58C326.991 27.7 327.516 27.895 327.976 28.165C328.446 28.435 328.821 28.805 329.101 29.275C329.391 29.735 329.536 30.33 329.536 31.06C329.536 31.74 329.366 32.4 329.026 33.04C328.696 33.68 328.211 34.25 327.571 34.75C326.941 35.25 326.166 35.65 325.246 35.95C324.326 36.26 323.276 36.415 322.096 36.415C320.926 36.415 319.911 36.3 319.051 36.07C318.191 35.85 317.476 35.55 316.906 35.17C316.346 34.8 315.926 34.37 315.646 33.88C315.366 33.39 315.226 32.88 315.226 32.35C315.226 31.63 315.446 31.025 315.886 30.535C316.326 30.045 316.936 29.655 317.716 29.365C317.336 29.155 317.031 28.875 316.801 28.525C316.571 28.175 316.456 27.72 316.456 27.16C316.456 26.93 316.496 26.695 316.576 26.455C316.656 26.205 316.776 25.96 316.936 25.72C317.106 25.48 317.316 25.255 317.566 25.045C317.816 24.825 318.111 24.63 318.451 24.46C317.671 24.04 317.056 23.48 316.606 22.78C316.166 22.08 315.946 21.26 315.946 20.32C315.946 19.56 316.096 18.875 316.396 18.265C316.706 17.645 317.131 17.12 317.671 16.69C318.221 16.25 318.866 15.915 319.606 15.685C320.356 15.455 321.171 15.34 322.051 15.34ZM326.116 31.69C326.116 31.39 326.026 31.145 325.846 30.955C325.666 30.765 325.421 30.62 325.111 30.52C324.801 30.41 324.436 30.33 324.016 30.28C323.606 30.23 323.166 30.195 322.696 30.175C322.236 30.145 321.756 30.12 321.256 30.1C320.766 30.07 320.291 30.025 319.831 29.965C319.411 30.195 319.071 30.47 318.811 30.79C318.561 31.1 318.436 31.46 318.436 31.87C318.436 32.14 318.501 32.39 318.631 32.62C318.771 32.86 318.986 33.065 319.276 33.235C319.576 33.405 319.961 33.535 320.431 33.625C320.901 33.725 321.476 33.775 322.156 33.775C322.846 33.775 323.441 33.72 323.941 33.61C324.441 33.51 324.851 33.365 325.171 33.175C325.501 32.995 325.741 32.775 325.891 32.515C326.041 32.265 326.116 31.99 326.116 31.69ZM322.051 22.93C322.511 22.93 322.911 22.87 323.251 22.75C323.591 22.62 323.871 22.445 324.091 22.225C324.321 22.005 324.491 21.74 324.601 21.43C324.721 21.12 324.781 20.78 324.781 20.41C324.781 19.65 324.551 19.05 324.091 18.61C323.641 18.16 322.961 17.935 322.051 17.935C321.141 17.935 320.456 18.16 319.996 18.61C319.546 19.05 319.321 19.65 319.321 20.41C319.321 20.77 319.376 21.105 319.486 21.415C319.606 21.725 319.776 21.995 319.996 22.225C320.226 22.445 320.511 22.62 320.851 22.75C321.201 22.87 321.601 22.93 322.051 22.93ZM344.313 31H342.648C342.298 31 342.023 30.95 341.823 30.85C341.623 30.74 341.473 30.525 341.373 30.205L341.043 29.11C340.653 29.46 340.268 29.77 339.888 30.04C339.518 30.3 339.133 30.52 338.733 30.7C338.333 30.88 337.908 31.015 337.458 31.105C337.008 31.195 336.508 31.24 335.958 31.24C335.308 31.24 334.708 31.155 334.158 30.985C333.608 30.805 333.133 30.54 332.733 30.19C332.343 29.84 332.038 29.405 331.818 28.885C331.598 28.365 331.488 27.76 331.488 27.07C331.488 26.49 331.638 25.92 331.938 25.36C332.248 24.79 332.758 24.28 333.468 23.83C334.178 23.37 335.123 22.99 336.303 22.69C337.483 22.39 338.948 22.22 340.698 22.18V21.28C340.698 20.25 340.478 19.49 340.038 19C339.608 18.5 338.978 18.25 338.148 18.25C337.548 18.25 337.048 18.32 336.648 18.46C336.248 18.6 335.898 18.76 335.598 18.94C335.308 19.11 335.038 19.265 334.788 19.405C334.538 19.545 334.263 19.615 333.963 19.615C333.713 19.615 333.498 19.55 333.318 19.42C333.138 19.29 332.993 19.13 332.883 18.94L332.208 17.755C333.978 16.135 336.113 15.325 338.613 15.325C339.513 15.325 340.313 15.475 341.013 15.775C341.723 16.065 342.323 16.475 342.813 17.005C343.303 17.525 343.673 18.15 343.923 18.88C344.183 19.61 344.313 20.41 344.313 21.28V31ZM337.113 28.69C337.493 28.69 337.843 28.655 338.163 28.585C338.483 28.515 338.783 28.41 339.063 28.27C339.353 28.13 339.628 27.96 339.888 27.76C340.158 27.55 340.428 27.305 340.698 27.025V24.43C339.618 24.48 338.713 24.575 337.983 24.715C337.263 24.845 336.683 25.015 336.243 25.225C335.803 25.435 335.488 25.68 335.298 25.96C335.118 26.24 335.028 26.545 335.028 26.875C335.028 27.525 335.218 27.99 335.598 28.27C335.988 28.55 336.493 28.69 337.113 28.69ZM346.157 9.31H349.547C349.897 9.31 350.187 9.395 350.417 9.565C350.657 9.725 350.817 9.945 350.897 10.225L354.587 23.2C354.677 23.52 354.757 23.87 354.827 24.25C354.907 24.62 354.982 25.015 355.052 25.435C355.132 25.015 355.217 24.62 355.307 24.25C355.407 23.87 355.512 23.52 355.622 23.2L359.882 10.225C359.962 9.995 360.117 9.785 360.347 9.595C360.587 9.405 360.877 9.31 361.217 9.31H362.402C362.752 9.31 363.042 9.395 363.272 9.565C363.502 9.725 363.662 9.945 363.752 10.225L367.982 23.2C368.202 23.84 368.392 24.55 368.552 25.33C368.622 24.94 368.692 24.565 368.762 24.205C368.842 23.845 368.922 23.51 369.002 23.2L372.692 10.225C372.762 9.975 372.917 9.76 373.157 9.58C373.397 9.4 373.687 9.31 374.027 9.31H377.192L370.457 31H366.812L362.072 16.18C362.012 15.99 361.947 15.785 361.877 15.565C361.817 15.345 361.757 15.11 361.697 14.86C361.637 15.11 361.572 15.345 361.502 15.565C361.442 15.785 361.382 15.99 361.322 16.18L356.537 31H352.892L346.157 9.31ZM389.929 31H388.264C387.914 31 387.639 30.95 387.439 30.85C387.239 30.74 387.089 30.525 386.989 30.205L386.659 29.11C386.269 29.46 385.884 29.77 385.504 30.04C385.134 30.3 384.749 30.52 384.349 30.7C383.949 30.88 383.524 31.015 383.074 31.105C382.624 31.195 382.124 31.24 381.574 31.24C380.924 31.24 380.324 31.155 379.774 30.985C379.224 30.805 378.749 30.54 378.349 30.19C377.959 29.84 377.654 29.405 377.434 28.885C377.214 28.365 377.104 27.76 377.104 27.07C377.104 26.49 377.254 25.92 377.554 25.36C377.864 24.79 378.374 24.28 379.084 23.83C379.794 23.37 380.739 22.99 381.919 22.69C383.099 22.39 384.564 22.22 386.314 22.18V21.28C386.314 20.25 386.094 19.49 385.654 19C385.224 18.5 384.594 18.25 383.764 18.25C383.164 18.25 382.664 18.32 382.264 18.46C381.864 18.6 381.514 18.76 381.214 18.94C380.924 19.11 380.654 19.265 380.404 19.405C380.154 19.545 379.879 19.615 379.579 19.615C379.329 19.615 379.114 19.55 378.934 19.42C378.754 19.29 378.609 19.13 378.499 18.94L377.824 17.755C379.594 16.135 381.729 15.325 384.229 15.325C385.129 15.325 385.929 15.475 386.629 15.775C387.339 16.065 387.939 16.475 388.429 17.005C388.919 17.525 389.289 18.15 389.539 18.88C389.799 19.61 389.929 20.41 389.929 21.28V31ZM382.729 28.69C383.109 28.69 383.459 28.655 383.779 28.585C384.099 28.515 384.399 28.41 384.679 28.27C384.969 28.13 385.244 27.96 385.504 27.76C385.774 27.55 386.044 27.305 386.314 27.025V24.43C385.234 24.48 384.329 24.575 383.599 24.715C382.879 24.845 382.299 25.015 381.859 25.225C381.419 25.435 381.104 25.68 380.914 25.96C380.734 26.24 380.644 26.545 380.644 26.875C380.644 27.525 380.834 27.99 381.214 28.27C381.604 28.55 382.109 28.69 382.729 28.69ZM398.627 31.24C397.297 31.24 396.272 30.865 395.552 30.115C394.832 29.355 394.472 28.31 394.472 26.98V18.385H392.912C392.712 18.385 392.537 18.32 392.387 18.19C392.247 18.06 392.177 17.865 392.177 17.605V16.135L394.652 15.73L395.432 11.53C395.472 11.33 395.562 11.175 395.702 11.065C395.852 10.955 396.037 10.9 396.257 10.9H398.177V15.745H402.227V18.385H398.177V26.725C398.177 27.205 398.297 27.58 398.537 27.85C398.777 28.12 399.097 28.255 399.497 28.255C399.727 28.255 399.917 28.23 400.067 28.18C400.227 28.12 400.362 28.06 400.472 28C400.592 27.94 400.697 27.885 400.787 27.835C400.877 27.775 400.967 27.745 401.057 27.745C401.167 27.745 401.257 27.775 401.327 27.835C401.397 27.885 401.472 27.965 401.552 28.075L402.662 29.875C402.122 30.325 401.502 30.665 400.802 30.895C400.102 31.125 399.377 31.24 398.627 31.24ZM410.228 31.24C408.898 31.24 407.873 30.865 407.153 30.115C406.433 29.355 406.073 28.31 406.073 26.98V18.385H404.513C404.313 18.385 404.138 18.32 403.988 18.19C403.848 18.06 403.778 17.865 403.778 17.605V16.135L406.253 15.73L407.033 11.53C407.073 11.33 407.163 11.175 407.303 11.065C407.453 10.955 407.638 10.9 407.858 10.9H409.778V15.745H413.828V18.385H409.778V26.725C409.778 27.205 409.898 27.58 410.138 27.85C410.378 28.12 410.698 28.255 411.098 28.255C411.328 28.255 411.518 28.23 411.668 28.18C411.828 28.12 411.963 28.06 412.073 28C412.193 27.94 412.298 27.885 412.388 27.835C412.478 27.775 412.568 27.745 412.658 27.745C412.768 27.745 412.858 27.775 412.928 27.835C412.998 27.885 413.073 27.965 413.153 28.075L414.263 29.875C413.723 30.325 413.103 30.665 412.403 30.895C411.703 31.125 410.978 31.24 410.228 31.24ZM425.91 18.61C425.81 18.77 425.705 18.885 425.595 18.955C425.485 19.015 425.345 19.045 425.175 19.045C424.995 19.045 424.8 18.995 424.59 18.895C424.39 18.795 424.155 18.685 423.885 18.565C423.615 18.435 423.305 18.32 422.955 18.22C422.615 18.12 422.21 18.07 421.74 18.07C421.01 18.07 420.435 18.225 420.015 18.535C419.595 18.845 419.385 19.25 419.385 19.75C419.385 20.08 419.49 20.36 419.7 20.59C419.92 20.81 420.205 21.005 420.555 21.175C420.915 21.345 421.32 21.5 421.77 21.64C422.22 21.77 422.68 21.915 423.15 22.075C423.62 22.235 424.08 22.42 424.53 22.63C424.98 22.83 425.38 23.09 425.73 23.41C426.09 23.72 426.375 24.095 426.585 24.535C426.805 24.975 426.915 25.505 426.915 26.125C426.915 26.865 426.78 27.55 426.51 28.18C426.24 28.8 425.845 29.34 425.325 29.8C424.805 30.25 424.16 30.605 423.39 30.865C422.63 31.115 421.755 31.24 420.765 31.24C420.235 31.24 419.715 31.19 419.205 31.09C418.705 31 418.22 30.87 417.75 30.7C417.29 30.53 416.86 30.33 416.46 30.1C416.07 29.87 415.725 29.62 415.425 29.35L416.28 27.94C416.39 27.77 416.52 27.64 416.67 27.55C416.82 27.46 417.01 27.415 417.24 27.415C417.47 27.415 417.685 27.48 417.885 27.61C418.095 27.74 418.335 27.88 418.605 28.03C418.875 28.18 419.19 28.32 419.55 28.45C419.92 28.58 420.385 28.645 420.945 28.645C421.385 28.645 421.76 28.595 422.07 28.495C422.39 28.385 422.65 28.245 422.85 28.075C423.06 27.905 423.21 27.71 423.3 27.49C423.4 27.26 423.45 27.025 423.45 26.785C423.45 26.425 423.34 26.13 423.12 25.9C422.91 25.67 422.625 25.47 422.265 25.3C421.915 25.13 421.51 24.98 421.05 24.85C420.6 24.71 420.135 24.56 419.655 24.4C419.185 24.24 418.72 24.055 418.26 23.845C417.81 23.625 417.405 23.35 417.045 23.02C416.695 22.69 416.41 22.285 416.19 21.805C415.98 21.325 415.875 20.745 415.875 20.065C415.875 19.435 416 18.835 416.25 18.265C416.5 17.695 416.865 17.2 417.345 16.78C417.835 16.35 418.44 16.01 419.16 15.76C419.89 15.5 420.73 15.37 421.68 15.37C422.74 15.37 423.705 15.545 424.575 15.895C425.445 16.245 426.17 16.705 426.75 17.275L425.91 18.61Z" fill="#393939"/>
<path d="M174.121 30.3054L170.352 40.705C169.575 42.8501 172.419 44.4148 173.815 42.61L189.775 21.9729C190.791 20.6584 189.854 18.7493 188.193 18.7493H185.885C184.363 18.7493 183.399 17.1181 184.132 15.7852L190.637 3.96415C191.37 2.63123 190.406 1 188.884 1H176.523C175.668 1 174.907 1.54407 174.63 2.35362L166.904 24.9776C166.461 26.2753 167.425 27.624 168.796 27.624H172.241C173.628 27.624 174.594 29.0014 174.121 30.3054Z" fill="#E4C55A" stroke="#393939" stroke-width="1.3" stroke-linejoin="round"/>
<path d="M15.2115 124.5L4.36892 154.095C3.58472 156.235 6.41835 157.81 7.82245 156.015L44.2625 109.408C45.289 108.095 44.3536 106.176 42.6869 106.176H32.7945C31.269 106.176 30.3051 104.537 31.0467 103.204L45.136 77.8756C45.8776 76.5425 44.9137 74.9033 43.3882 74.9033H17.6216C16.7687 74.9033 16.0095 75.4443 15.7311 76.2506L0.915911 119.16C0.467441 120.458 1.43226 121.812 2.8064 121.812H13.3336C14.7235 121.812 15.6897 123.195 15.2115 124.5Z" fill="#E4C55A" stroke="#393939" stroke-width="1.3" stroke-linejoin="round"/>
<path d="M69.3892 124.5L58.5467 154.095C57.7625 156.235 60.5961 157.81 62.0002 156.015L98.4402 109.408C99.4668 108.095 98.5313 106.176 96.8646 106.176H86.9722C85.4468 106.176 84.4829 104.537 85.2244 103.204L99.3137 77.8756C100.055 76.5425 99.0914 74.9033 97.566 74.9033H71.7994C70.9464 74.9033 70.1873 75.4443 69.9089 76.2506L55.0936 119.16C54.6452 120.458 55.61 121.812 56.9841 121.812H67.5113C68.9013 121.812 69.8674 123.195 69.3892 124.5Z" fill="#E4C55A" stroke="#393939" stroke-width="1.3" stroke-linejoin="round"/>
<path d="M124.387 124.5L113.545 154.095C112.761 156.235 115.594 157.81 116.998 156.015L153.438 109.408C154.465 108.095 153.529 106.176 151.863 106.176H141.97C140.445 106.176 139.481 104.537 140.222 103.204L154.312 77.8756C155.053 76.5425 154.089 74.9033 152.564 74.9033H126.797C125.944 74.9033 125.185 75.4443 124.907 76.2506L110.092 119.16C109.643 120.458 110.608 121.812 111.982 121.812H122.509C123.899 121.812 124.865 123.195 124.387 124.5Z" fill="#E4C55A" stroke="#393939" stroke-width="1.3" stroke-linejoin="round"/>
<path d="M178.563 124.5L167.72 154.095C166.936 156.235 169.77 157.81 171.174 156.015L207.614 109.408C208.641 108.095 207.705 106.176 206.038 106.176H196.146C194.621 106.176 193.657 104.537 194.398 103.204L208.488 77.8756C209.229 76.5425 208.265 74.9033 206.74 74.9033H180.973C180.12 74.9033 179.361 75.4443 179.083 76.2506L164.267 119.16C163.819 120.458 164.784 121.812 166.158 121.812H176.685C178.075 121.812 179.041 123.195 178.563 124.5Z" fill="#E4C55A" stroke="#393939" stroke-width="1.3" stroke-linejoin="round"/>
<path d="M233.561 124.5L222.719 154.095C221.934 156.235 224.768 157.81 226.172 156.015L262.612 109.408C263.639 108.095 262.703 106.176 261.037 106.176H251.144C249.619 106.176 248.655 104.537 249.396 103.204L263.486 77.8756C264.227 76.5425 263.263 74.9033 261.738 74.9033H235.971C235.118 74.9033 234.359 75.4443 234.081 76.2506L219.266 119.16C218.817 120.458 219.782 121.812 221.156 121.812H231.683C233.073 121.812 234.039 123.195 233.561 124.5Z" fill="#E4C55A" stroke="#393939" stroke-width="1.3" stroke-linejoin="round"/>
<path d="M287.739 124.5L276.896 154.095C276.112 156.235 278.946 157.81 280.35 156.015L316.79 109.408C317.816 108.095 316.881 106.176 315.214 106.176H305.322C303.796 106.176 302.832 104.537 303.574 103.204L317.663 77.8756C318.405 76.5425 317.441 74.9033 315.916 74.9033H290.149C289.296 74.9033 288.537 75.4443 288.258 76.2506L273.443 119.16C272.995 120.458 273.96 121.812 275.334 121.812H285.861C287.251 121.812 288.217 123.195 287.739 124.5Z" fill="#E4C55A" stroke="#393939" stroke-width="1.3" stroke-linejoin="round"/>
<path d="M342.737 124.5L331.894 154.095C331.11 156.235 333.944 157.81 335.348 156.015L371.788 109.408C372.814 108.095 371.879 106.176 370.212 106.176H360.32C358.794 106.176 357.831 104.537 358.572 103.204L372.661 77.8756C373.403 76.5425 372.439 74.9033 370.914 74.9033H345.147C344.294 74.9033 343.535 75.4443 343.257 76.2506L328.441 119.16C327.993 120.458 328.958 121.812 330.332 121.812H340.859C342.249 121.812 343.215 123.195 342.737 124.5Z" fill="#E4C55A" stroke="#393939" stroke-width="1.3" stroke-linejoin="round"/>
<path d="M397.735 124.5L386.892 154.095C386.108 156.235 388.942 157.81 390.346 156.015L426.786 109.408C427.812 108.095 426.877 106.176 425.21 106.176H415.318C413.792 106.176 412.829 104.537 413.57 103.204L427.659 77.8756C428.401 76.5425 427.437 74.9033 425.912 74.9033H400.145C399.292 74.9033 398.533 75.4443 398.255 76.2506L383.439 119.16C382.991 120.458 383.956 121.812 385.33 121.812H395.857C397.247 121.812 398.213 123.195 397.735 124.5Z" fill="#E4C55A" stroke="#393939" stroke-width="1.3" stroke-linejoin="round"/>
<path d="M452.733 124.5L441.89 154.095C441.106 156.235 443.94 157.81 445.344 156.015L481.784 109.408C482.811 108.095 481.875 106.176 480.208 106.176H470.316C468.791 106.176 467.827 104.537 468.568 103.204L482.657 77.8756C483.399 76.5425 482.435 74.9033 480.91 74.9033H455.143C454.29 74.9033 453.531 75.4443 453.253 76.2506L438.437 119.16C437.989 120.458 438.954 121.812 440.328 121.812H450.855C452.245 121.812 453.211 123.195 452.733 124.5Z" fill="#E4C55A" stroke="#393939" stroke-width="1.3" stroke-linejoin="round"/>
<path d="M507.731 124.5L496.888 154.095C496.104 156.235 498.938 157.81 500.342 156.015L536.782 109.408C537.809 108.095 536.873 106.176 535.206 106.176H525.314C523.789 106.176 522.825 104.537 523.566 103.204L537.656 77.8756C538.397 76.5425 537.433 74.9033 535.908 74.9033H510.141C509.288 74.9033 508.529 75.4443 508.251 76.2506L493.435 119.16C492.987 120.458 493.952 121.812 495.326 121.812H505.853C507.243 121.812 508.209 123.195 507.731 124.5Z" fill="#E4C55A" stroke="#393939" stroke-width="1.3" stroke-linejoin="round"/>
<path d="M561.909 124.5L551.066 154.095C550.282 156.235 553.116 157.81 554.52 156.015L590.96 109.408C591.986 108.095 591.051 106.176 589.384 106.176H579.492C577.966 106.176 577.002 104.537 577.744 103.204L591.833 77.8756C592.575 76.5425 591.611 74.9033 590.085 74.9033H564.319C563.466 74.9033 562.707 75.4443 562.428 76.2506L547.613 119.16C547.165 120.458 548.13 121.812 549.504 121.812H560.031C561.421 121.812 562.387 123.195 561.909 124.5Z" fill="#E4C55A" stroke="#393939" stroke-width="1.3" stroke-linejoin="round"/>
<path d="M15.2115 215.617L4.36892 245.211C3.58472 247.351 6.41835 248.927 7.82245 247.131L44.2625 200.524C45.289 199.211 44.3536 197.292 42.6869 197.292H32.7945C31.269 197.292 30.3051 195.653 31.0467 194.32L45.136 168.992C45.8776 167.659 44.9137 166.02 43.3882 166.02H17.6216C16.7687 166.02 16.0095 166.561 15.7311 167.367L0.915911 210.276C0.467441 211.575 1.43226 212.929 2.8064 212.929H13.3336C14.7235 212.929 15.6897 214.311 15.2115 215.617Z" fill="#E4C55A" stroke="#393939" stroke-width="1.3" stroke-linejoin="round"/>
<path d="M69.3892 215.617L58.5467 245.211C57.7625 247.351 60.5961 248.927 62.0002 247.131L98.4402 200.524C99.4668 199.211 98.5313 197.292 96.8646 197.292H86.9722C85.4468 197.292 84.4829 195.653 85.2244 194.32L99.3137 168.992C100.055 167.659 99.0914 166.02 97.566 166.02H71.7994C70.9464 166.02 70.1873 166.561 69.9089 167.367L55.0936 210.276C54.6452 211.575 55.61 212.929 56.9841 212.929H67.5113C68.9013 212.929 69.8674 214.311 69.3892 215.617Z" fill="#E4C55A" stroke="#393939" stroke-width="1.3" stroke-linejoin="round"/>
<path d="M124.387 215.617L113.545 245.211C112.761 247.351 115.594 248.927 116.998 247.131L153.438 200.524C154.465 199.211 153.529 197.292 151.863 197.292H141.97C140.445 197.292 139.481 195.653 140.222 194.32L154.312 168.992C155.053 167.659 154.089 166.02 152.564 166.02H126.797C125.944 166.02 125.185 166.561 124.907 167.367L110.092 210.276C109.643 211.575 110.608 212.929 111.982 212.929H122.509C123.899 212.929 124.865 214.311 124.387 215.617Z" fill="#E4C55A" stroke="#393939" stroke-width="1.3" stroke-linejoin="round"/>
<path d="M178.563 215.617L167.72 245.211C166.936 247.351 169.77 248.927 171.174 247.131L207.614 200.524C208.641 199.211 207.705 197.292 206.038 197.292H196.146C194.621 197.292 193.657 195.653 194.398 194.32L208.488 168.992C209.229 167.659 208.265 166.02 206.74 166.02H180.973C180.12 166.02 179.361 166.561 179.083 167.367L164.267 210.276C163.819 211.575 164.784 212.929 166.158 212.929H176.685C178.075 212.929 179.041 214.311 178.563 215.617Z" fill="#E4C55A" stroke="#393939" stroke-width="1.3" stroke-linejoin="round"/>
<path d="M233.561 215.617L222.719 245.211C221.934 247.351 224.768 248.927 226.172 247.131L262.612 200.524C263.639 199.211 262.703 197.292 261.037 197.292H251.144C249.619 197.292 248.655 195.653 249.396 194.32L263.486 168.992C264.227 167.659 263.263 166.02 261.738 166.02H235.971C235.118 166.02 234.359 166.561 234.081 167.367L219.266 210.276C218.817 211.575 219.782 212.929 221.156 212.929H231.683C233.073 212.929 234.039 214.311 233.561 215.617Z" fill="#E4C55A" stroke="#393939" stroke-width="1.3" stroke-linejoin="round"/>
<path d="M287.739 215.617L276.896 245.211C276.112 247.351 278.946 248.927 280.35 247.131L316.79 200.524C317.816 199.211 316.881 197.292 315.214 197.292H305.322C303.796 197.292 302.832 195.653 303.574 194.32L317.663 168.992C318.405 167.659 317.441 166.02 315.916 166.02H290.149C289.296 166.02 288.537 166.561 288.258 167.367L273.443 210.276C272.995 211.575 273.96 212.929 275.334 212.929H285.861C287.251 212.929 288.217 214.311 287.739 215.617Z" fill="#E4C55A" stroke="#393939" stroke-width="1.3" stroke-linejoin="round"/>
<path d="M342.737 215.617L331.894 245.211C331.11 247.351 333.944 248.927 335.348 247.131L371.788 200.524C372.814 199.211 371.879 197.292 370.212 197.292H360.32C358.794 197.292 357.831 195.653 358.572 194.32L372.661 168.992C373.403 167.659 372.439 166.02 370.914 166.02H345.147C344.294 166.02 343.535 166.561 343.257 167.367L328.441 210.276C327.993 211.575 328.958 212.929 330.332 212.929H340.859C342.249 212.929 343.215 214.311 342.737 215.617Z" fill="#E4C55A" stroke="#393939" stroke-width="1.3" stroke-linejoin="round"/>
<path d="M397.735 215.617L386.892 245.211C386.108 247.351 388.942 248.927 390.346 247.131L426.786 200.524C427.812 199.211 426.877 197.292 425.21 197.292H415.318C413.792 197.292 412.829 195.653 413.57 194.32L427.659 168.992C428.401 167.659 427.437 166.02 425.912 166.02H400.145C399.292 166.02 398.533 166.561 398.255 167.367L383.439 210.276C382.991 211.575 383.956 212.929 385.33 212.929H395.857C397.247 212.929 398.213 214.311 397.735 215.617Z" fill="#E4C55A" stroke="#393939" stroke-width="1.3" stroke-linejoin="round"/>
<path d="M452.733 215.617L441.89 245.211C441.106 247.351 443.94 248.927 445.344 247.131L481.784 200.524C482.811 199.211 481.875 197.292 480.208 197.292H470.316C468.791 197.292 467.827 195.653 468.568 194.32L482.657 168.992C483.399 167.659 482.435 166.02 480.91 166.02H455.143C454.29 166.02 453.531 166.561 453.253 167.367L438.437 210.276C437.989 211.575 438.954 212.929 440.328 212.929H450.855C452.245 212.929 453.211 214.311 452.733 215.617Z" fill="#E4C55A" stroke="#393939" stroke-width="1.3" stroke-linejoin="round"/>
<path d="M507.731 215.617L496.888 245.211C496.104 247.351 498.938 248.927 500.342 247.131L536.782 200.524C537.809 199.211 536.873 197.292 535.206 197.292H525.314C523.789 197.292 522.825 195.653 523.566 194.32L537.656 168.992C538.397 167.659 537.433 166.02 535.908 166.02H510.141C509.288 166.02 508.529 166.561 508.251 167.367L493.435 210.276C492.987 211.575 493.952 212.929 495.326 212.929H505.853C507.243 212.929 508.209 214.311 507.731 215.617Z" fill="#E4C55A" stroke="#393939" stroke-width="1.3" stroke-linejoin="round"/>
<path d="M561.909 215.617L551.066 245.211C550.282 247.351 553.116 248.927 554.52 247.131L590.96 200.524C591.986 199.211 591.051 197.292 589.384 197.292H579.492C577.966 197.292 577.002 195.653 577.744 194.32L591.833 168.992C592.575 167.659 591.611 166.02 590.085 166.02H564.319C563.466 166.02 562.707 166.561 562.428 167.367L547.613 210.276C547.165 211.575 548.13 212.929 549.504 212.929H560.031C561.421 212.929 562.387 214.311 561.909 215.617Z" fill="#E4C55A" stroke="#393939" stroke-width="1.3" stroke-linejoin="round"/>
<path d="M15.2115 306.733L4.36892 336.327C3.58472 338.468 6.41835 340.043 7.82245 338.247L44.2625 291.64C45.289 290.327 44.3536 288.408 42.6869 288.408H32.7945C31.269 288.408 30.3051 286.769 31.0467 285.436L45.136 260.108C45.8776 258.775 44.9137 257.136 43.3882 257.136H17.6216C16.7687 257.136 16.0095 257.677 15.7311 258.483L0.915911 301.392C0.467441 302.691 1.43226 304.045 2.8064 304.045H13.3336C14.7235 304.045 15.6897 305.428 15.2115 306.733Z" fill="#E4C55A" stroke="#393939" stroke-width="1.3" stroke-linejoin="round"/>
<path d="M69.3892 306.733L58.5467 336.327C57.7625 338.468 60.5961 340.043 62.0002 338.247L98.4402 291.64C99.4668 290.327 98.5313 288.408 96.8646 288.408H86.9722C85.4468 288.408 84.4829 286.769 85.2244 285.436L99.3137 260.108C100.055 258.775 99.0914 257.136 97.566 257.136H71.7994C70.9464 257.136 70.1873 257.677 69.9089 258.483L55.0936 301.392C54.6452 302.691 55.61 304.045 56.9841 304.045H67.5113C68.9013 304.045 69.8674 305.428 69.3892 306.733Z" fill="#E4C55A" stroke="#393939" stroke-width="1.3" stroke-linejoin="round"/>
<path d="M124.387 306.733L113.545 336.327C112.761 338.468 115.594 340.043 116.998 338.247L153.438 291.64C154.465 290.327 153.529 288.408 151.863 288.408H141.97C140.445 288.408 139.481 286.769 140.222 285.436L154.312 260.108C155.053 258.775 154.089 257.136 152.564 257.136H126.797C125.944 257.136 125.185 257.677 124.907 258.483L110.092 301.392C109.643 302.691 110.608 304.045 111.982 304.045H122.509C123.899 304.045 124.865 305.428 124.387 306.733Z" fill="#E4C55A" stroke="#393939" stroke-width="1.3" stroke-linejoin="round"/>
<path d="M178.563 306.733L167.72 336.327C166.936 338.468 169.77 340.043 171.174 338.247L207.614 291.64C208.641 290.327 207.705 288.408 206.038 288.408H196.146C194.621 288.408 193.657 286.769 194.398 285.436L208.488 260.108C209.229 258.775 208.265 257.136 206.74 257.136H180.973C180.12 257.136 179.361 257.677 179.083 258.483L164.267 301.392C163.819 302.691 164.784 304.045 166.158 304.045H176.685C178.075 304.045 179.041 305.428 178.563 306.733Z" fill="#E4C55A" stroke="#393939" stroke-width="1.3" stroke-linejoin="round"/>
<path d="M233.561 306.733L222.719 336.327C221.934 338.468 224.768 340.043 226.172 338.247L262.612 291.64C263.639 290.327 262.703 288.408 261.037 288.408H251.144C249.619 288.408 248.655 286.769 249.396 285.436L263.486 260.108C264.227 258.775 263.263 257.136 261.738 257.136H235.971C235.118 257.136 234.359 257.677 234.081 258.483L219.266 301.392C218.817 302.691 219.782 304.045 221.156 304.045H231.683C233.073 304.045 234.039 305.428 233.561 306.733Z" fill="#E4C55A" stroke="#393939" stroke-width="1.3" stroke-linejoin="round"/>
<path d="M287.739 306.733L276.896 336.327C276.112 338.468 278.946 340.043 280.35 338.247L316.79 291.64C317.816 290.327 316.881 288.408 315.214 288.408H305.322C303.796 288.408 302.832 286.769 303.574 285.436L317.663 260.108C318.405 258.775 317.441 257.136 315.916 257.136H290.149C289.296 257.136 288.537 257.677 288.258 258.483L273.443 301.392C272.995 302.691 273.96 304.045 275.334 304.045H285.861C287.251 304.045 288.217 305.428 287.739 306.733Z" fill="#E4C55A" stroke="#393939" stroke-width="1.3" stroke-linejoin="round"/>
<path d="M342.737 306.733L331.894 336.327C331.11 338.468 333.944 340.043 335.348 338.247L371.788 291.64C372.814 290.327 371.879 288.408 370.212 288.408H360.32C358.794 288.408 357.831 286.769 358.572 285.436L372.661 260.108C373.403 258.775 372.439 257.136 370.914 257.136H345.147C344.294 257.136 343.535 257.677 343.257 258.483L328.441 301.392C327.993 302.691 328.958 304.045 330.332 304.045H340.859C342.249 304.045 343.215 305.428 342.737 306.733Z" fill="#E4C55A" stroke="#393939" stroke-width="1.3" stroke-linejoin="round"/>
<path d="M397.735 306.733L386.892 336.327C386.108 338.468 388.942 340.043 390.346 338.247L426.786 291.64C427.812 290.327 426.877 288.408 425.21 288.408H415.318C413.792 288.408 412.829 286.769 413.57 285.436L427.659 260.108C428.401 258.775 427.437 257.136 425.912 257.136H400.145C399.292 257.136 398.533 257.677 398.255 258.483L383.439 301.392C382.991 302.691 383.956 304.045 385.33 304.045H395.857C397.247 304.045 398.213 305.428 397.735 306.733Z" fill="#E4C55A" stroke="#393939" stroke-width="1.3" stroke-linejoin="round"/>
<path d="M452.733 306.733L441.89 336.327C441.106 338.468 443.94 340.043 445.344 338.247L481.784 291.64C482.811 290.327 481.875 288.408 480.208 288.408H470.316C468.791 288.408 467.827 286.769 468.568 285.436L482.657 260.108C483.399 258.775 482.435 257.136 480.91 257.136H455.143C454.29 257.136 453.531 257.677 453.253 258.483L438.437 301.392C437.989 302.691 438.954 304.045 440.328 304.045H450.855C452.245 304.045 453.211 305.428 452.733 306.733Z" fill="#E4C55A" stroke="#393939" stroke-width="1.3" stroke-linejoin="round"/>
<path d="M507.731 306.733L496.888 336.327C496.104 338.468 498.938 340.043 500.342 338.247L536.782 291.64C537.809 290.327 536.873 288.408 535.206 288.408H525.314C523.789 288.408 522.825 286.769 523.566 285.436L537.656 260.108C538.397 258.775 537.433 257.136 535.908 257.136H510.141C509.288 257.136 508.529 257.677 508.251 258.483L493.435 301.392C492.987 302.691 493.952 304.045 495.326 304.045H505.853C507.243 304.045 508.209 305.428 507.731 306.733Z" fill="#E4C55A" stroke="#393939" stroke-width="1.3" stroke-linejoin="round"/>
<path d="M561.909 306.733L551.066 336.327C550.282 338.468 553.116 340.043 554.52 338.247L590.96 291.64C591.986 290.327 591.051 288.408 589.384 288.408H579.492C577.966 288.408 577.002 286.769 577.744 285.436L591.833 260.108C592.575 258.775 591.611 257.136 590.085 257.136H564.319C563.466 257.136 562.707 257.677 562.428 258.483L547.613 301.392C547.165 302.691 548.13 304.045 549.504 304.045H560.031C561.421 304.045 562.387 305.428 561.909 306.733Z" fill="#E4C55A" stroke="#393939" stroke-width="1.3" stroke-linejoin="round"/>
<path d="M15.2115 397.849L4.36892 427.443C3.58472 429.584 6.41835 431.159 7.82245 429.363L44.2625 382.757C45.289 381.444 44.3536 379.525 42.6869 379.525H32.7945C31.269 379.525 30.3051 377.885 31.0467 376.552L45.136 351.224C45.8776 349.891 44.9137 348.252 43.3882 348.252H17.6216C16.7687 348.252 16.0095 348.793 15.7311 349.599L0.915911 392.508C0.467441 393.807 1.43226 395.161 2.8064 395.161H13.3336C14.7235 395.161 15.6897 396.544 15.2115 397.849Z" fill="#E4C55A" stroke="#393939" stroke-width="1.3" stroke-linejoin="round"/>
<path d="M69.3892 397.849L58.5467 427.443C57.7625 429.584 60.5961 431.159 62.0002 429.363L98.4402 382.757C99.4668 381.444 98.5313 379.525 96.8646 379.525H86.9722C85.4468 379.525 84.4829 377.885 85.2244 376.552L99.3137 351.224C100.055 349.891 99.0914 348.252 97.566 348.252H71.7994C70.9464 348.252 70.1873 348.793 69.9089 349.599L55.0936 392.508C54.6452 393.807 55.61 395.161 56.9841 395.161H67.5113C68.9013 395.161 69.8674 396.544 69.3892 397.849Z" fill="#E4C55A" stroke="#393939" stroke-width="1.3" stroke-linejoin="round"/>
<path d="M124.387 397.849L113.545 427.443C112.761 429.584 115.594 431.159 116.998 429.363L153.438 382.757C154.465 381.444 153.529 379.525 151.863 379.525H141.97C140.445 379.525 139.481 377.885 140.222 376.552L154.312 351.224C155.053 349.891 154.089 348.252 152.564 348.252H126.797C125.944 348.252 125.185 348.793 124.907 349.599L110.092 392.508C109.643 393.807 110.608 395.161 111.982 395.161H122.509C123.899 395.161 124.865 396.544 124.387 397.849Z" fill="#E4C55A" stroke="#393939" stroke-width="1.3" stroke-linejoin="round"/>
<path d="M178.563 397.849L167.72 427.443C166.936 429.584 169.77 431.159 171.174 429.363L207.614 382.757C208.641 381.444 207.705 379.525 206.038 379.525H196.146C194.621 379.525 193.657 377.885 194.398 376.552L208.488 351.224C209.229 349.891 208.265 348.252 206.74 348.252H180.973C180.12 348.252 179.361 348.793 179.083 349.599L164.267 392.508C163.819 393.807 164.784 395.161 166.158 395.161H176.685C178.075 395.161 179.041 396.544 178.563 397.849Z" fill="#E4C55A" stroke="#393939" stroke-width="1.3" stroke-linejoin="round"/>
<path d="M233.561 397.849L222.719 427.443C221.934 429.584 224.768 431.159 226.172 429.363L262.612 382.757C263.639 381.444 262.703 379.525 261.037 379.525H251.144C249.619 379.525 248.655 377.885 249.396 376.552L263.486 351.224C264.227 349.891 263.263 348.252 261.738 348.252H235.971C235.118 348.252 234.359 348.793 234.081 349.599L219.266 392.508C218.817 393.807 219.782 395.161 221.156 395.161H231.683C233.073 395.161 234.039 396.544 233.561 397.849Z" fill="#E4C55A" stroke="#393939" stroke-width="1.3" stroke-linejoin="round"/>
<path d="M287.739 397.849L276.896 427.443C276.112 429.584 278.946 431.159 280.35 429.363L316.79 382.757C317.816 381.444 316.881 379.525 315.214 379.525H305.322C303.796 379.525 302.832 377.885 303.574 376.552L317.663 351.224C318.405 349.891 317.441 348.252 315.916 348.252H290.149C289.296 348.252 288.537 348.793 288.258 349.599L273.443 392.508C272.995 393.807 273.96 395.161 275.334 395.161H285.861C287.251 395.161 288.217 396.544 287.739 397.849Z" fill="#E4C55A" stroke="#393939" stroke-width="1.3" stroke-linejoin="round"/>
<path d="M342.737 397.849L331.894 427.443C331.11 429.584 333.944 431.159 335.348 429.363L371.788 382.757C372.814 381.444 371.879 379.525 370.212 379.525H360.32C358.794 379.525 357.831 377.885 358.572 376.552L372.661 351.224C373.403 349.891 372.439 348.252 370.914 348.252H345.147C344.294 348.252 343.535 348.793 343.257 349.599L328.441 392.508C327.993 393.807 328.958 395.161 330.332 395.161H340.859C342.249 395.161 343.215 396.544 342.737 397.849Z" fill="#E4C55A" stroke="#393939" stroke-width="1.3" stroke-linejoin="round"/>
<path d="M397.735 397.849L386.892 427.443C386.108 429.584 388.942 431.159 390.346 429.363L426.786 382.757C427.812 381.444 426.877 379.525 425.21 379.525H415.318C413.792 379.525 412.829 377.885 413.57 376.552L427.659 351.224C428.401 349.891 427.437 348.252 425.912 348.252H400.145C399.292 348.252 398.533 348.793 398.255 349.599L383.439 392.508C382.991 393.807 383.956 395.161 385.33 395.161H395.857C397.247 395.161 398.213 396.544 397.735 397.849Z" fill="#E4C55A" stroke="#393939" stroke-width="1.3" stroke-linejoin="round"/>
<path d="M452.733 397.849L441.89 427.443C441.106 429.584 443.94 431.159 445.344 429.363L481.784 382.757C482.811 381.444 481.875 379.525 480.208 379.525H470.316C468.791 379.525 467.827 377.885 468.568 376.552L482.657 351.224C483.399 349.891 482.435 348.252 480.91 348.252H455.143C454.29 348.252 453.531 348.793 453.253 349.599L438.437 392.508C437.989 393.807 438.954 395.161 440.328 395.161H450.855C452.245 395.161 453.211 396.544 452.733 397.849Z" fill="#E4C55A" stroke="#393939" stroke-width="1.3" stroke-linejoin="round"/>
<path d="M507.731 397.849L496.888 427.443C496.104 429.584 498.938 431.159 500.342 429.363L536.782 382.757C537.809 381.444 536.873 379.525 535.206 379.525H525.314C523.789 379.525 522.825 377.885 523.566 376.552L537.656 351.224C538.397 349.891 537.433 348.252 535.908 348.252H510.141C509.288 348.252 508.529 348.793 508.251 349.599L493.435 392.508C492.987 393.807 493.952 395.161 495.326 395.161H505.853C507.243 395.161 508.209 396.544 507.731 397.849Z" fill="#E4C55A" stroke="#393939" stroke-width="1.3" stroke-linejoin="round"/>
<path d="M561.909 397.849L551.066 427.443C550.282 429.584 553.116 431.159 554.52 429.363L590.96 382.757C591.986 381.444 591.051 379.525 589.384 379.525H579.492C577.966 379.525 577.002 377.885 577.744 376.552L591.833 351.224C592.575 349.891 591.611 348.252 590.085 348.252H564.319C563.466 348.252 562.707 348.793 562.428 349.599L547.613 392.508C547.165 393.807 548.13 395.161 549.504 395.161H560.031C561.421 395.161 562.387 396.544 561.909 397.849Z" fill="#E4C55A" stroke="#393939" stroke-width="1.3" stroke-linejoin="round"/>
<path d="M15.2115 488.965L4.36892 518.559C3.58472 520.699 6.41835 522.275 7.82245 520.479L44.2625 473.872C45.289 472.559 44.3536 470.64 42.6869 470.64H32.7945C31.269 470.64 30.3051 469.001 31.0467 467.668L45.136 442.34C45.8776 441.007 44.9137 439.368 43.3882 439.368H17.6216C16.7687 439.368 16.0095 439.909 15.7311 440.715L0.915911 483.624C0.467441 484.923 1.43226 486.277 2.8064 486.277H13.3336C14.7235 486.277 15.6897 487.66 15.2115 488.965Z" fill="#E4C55A" stroke="#393939" stroke-width="1.3" stroke-linejoin="round"/>
<path d="M69.3892 488.965L58.5467 518.559C57.7625 520.699 60.5961 522.275 62.0002 520.479L98.4402 473.872C99.4668 472.559 98.5313 470.64 96.8646 470.64H86.9722C85.4468 470.64 84.4829 469.001 85.2244 467.668L99.3137 442.34C100.055 441.007 99.0914 439.368 97.566 439.368H71.7994C70.9464 439.368 70.1873 439.909 69.9089 440.715L55.0936 483.624C54.6452 484.923 55.61 486.277 56.9841 486.277H67.5113C68.9013 486.277 69.8674 487.66 69.3892 488.965Z" fill="#E4C55A" stroke="#393939" stroke-width="1.3" stroke-linejoin="round"/>
<path d="M124.387 488.965L113.545 518.559C112.761 520.699 115.594 522.275 116.998 520.479L153.438 473.872C154.465 472.559 153.529 470.64 151.863 470.64H141.97C140.445 470.64 139.481 469.001 140.222 467.668L154.312 442.34C155.053 441.007 154.089 439.368 152.564 439.368H126.797C125.944 439.368 125.185 439.909 124.907 440.715L110.092 483.624C109.643 484.923 110.608 486.277 111.982 486.277H122.509C123.899 486.277 124.865 487.66 124.387 488.965Z" fill="#E4C55A" stroke="#393939" stroke-width="1.3" stroke-linejoin="round"/>
<path d="M178.563 488.965L167.72 518.559C166.936 520.699 169.77 522.275 171.174 520.479L207.614 473.872C208.641 472.559 207.705 470.64 206.038 470.64H196.146C194.621 470.64 193.657 469.001 194.398 467.668L208.488 442.34C209.229 441.007 208.265 439.368 206.74 439.368H180.973C180.12 439.368 179.361 439.909 179.083 440.715L164.267 483.624C163.819 484.923 164.784 486.277 166.158 486.277H176.685C178.075 486.277 179.041 487.66 178.563 488.965Z" fill="#E4C55A" stroke="#393939" stroke-width="1.3" stroke-linejoin="round"/>
<path d="M233.561 488.965L222.719 518.559C221.934 520.699 224.768 522.275 226.172 520.479L262.612 473.872C263.639 472.559 262.703 470.64 261.037 470.64H251.144C249.619 470.64 248.655 469.001 249.396 467.668L263.486 442.34C264.227 441.007 263.263 439.368 261.738 439.368H235.971C235.118 439.368 234.359 439.909 234.081 440.715L219.266 483.624C218.817 484.923 219.782 486.277 221.156 486.277H231.683C233.073 486.277 234.039 487.66 233.561 488.965Z" fill="#E4C55A" stroke="#393939" stroke-width="1.3" stroke-linejoin="round"/>
<path d="M287.739 488.965L276.896 518.559C276.112 520.699 278.946 522.275 280.35 520.479L316.79 473.872C317.816 472.559 316.881 470.64 315.214 470.64H305.322C303.796 470.64 302.832 469.001 303.574 467.668L317.663 442.34C318.405 441.007 317.441 439.368 315.916 439.368H290.149C289.296 439.368 288.537 439.909 288.258 440.715L273.443 483.624C272.995 484.923 273.96 486.277 275.334 486.277H285.861C287.251 486.277 288.217 487.66 287.739 488.965Z" fill="#E4C55A" stroke="#393939" stroke-width="1.3" stroke-linejoin="round"/>
<path d="M342.737 488.965L331.894 518.559C331.11 520.699 333.944 522.275 335.348 520.479L371.788 473.872C372.814 472.559 371.879 470.64 370.212 470.64H360.32C358.794 470.64 357.831 469.001 358.572 467.668L372.661 442.34C373.403 441.007 372.439 439.368 370.914 439.368H345.147C344.294 439.368 343.535 439.909 343.257 440.715L328.441 483.624C327.993 484.923 328.958 486.277 330.332 486.277H340.859C342.249 486.277 343.215 487.66 342.737 488.965Z" fill="#E4C55A" stroke="#393939" stroke-width="1.3" stroke-linejoin="round"/>
<path d="M397.735 488.965L386.892 518.559C386.108 520.699 388.942 522.275 390.346 520.479L426.786 473.872C427.812 472.559 426.877 470.64 425.21 470.64H415.318C413.792 470.64 412.829 469.001 413.57 467.668L427.659 442.34C428.401 441.007 427.437 439.368 425.912 439.368H400.145C399.292 439.368 398.533 439.909 398.255 440.715L383.439 483.624C382.991 484.923 383.956 486.277 385.33 486.277H395.857C397.247 486.277 398.213 487.66 397.735 488.965Z" fill="#E4C55A" stroke="#393939" stroke-width="1.3" stroke-linejoin="round"/>
<path d="M452.733 488.965L441.89 518.559C441.106 520.699 443.94 522.275 445.344 520.479L481.784 473.872C482.811 472.559 481.875 470.64 480.208 470.64H470.316C468.791 470.64 467.827 469.001 468.568 467.668L482.657 442.34C483.399 441.007 482.435 439.368 480.91 439.368H455.143C454.29 439.368 453.531 439.909 453.253 440.715L438.437 483.624C437.989 484.923 438.954 486.277 440.328 486.277H450.855C452.245 486.277 453.211 487.66 452.733 488.965Z" fill="#E4C55A" stroke="#393939" stroke-width="1.3" stroke-linejoin="round"/>
<path d="M507.731 488.965L496.888 518.559C496.104 520.699 498.938 522.275 500.342 520.479L536.782 473.872C537.809 472.559 536.873 470.64 535.206 470.64H525.314C523.789 470.64 522.825 469.001 523.566 467.668L537.656 442.34C538.397 441.007 537.433 439.368 535.908 439.368H510.141C509.288 439.368 508.529 439.909 508.251 440.715L493.435 483.624C492.987 484.923 493.952 486.277 495.326 486.277H505.853C507.243 486.277 508.209 487.66 507.731 488.965Z" fill="#E4C55A" stroke="#393939" stroke-width="1.3" stroke-linejoin="round"/>
<path d="M561.909 488.965L551.066 518.559C550.282 520.699 553.116 522.275 554.52 520.479L590.96 473.872C591.986 472.559 591.051 470.64 589.384 470.64H579.492C577.966 470.64 577.002 469.001 577.744 467.668L591.833 442.34C592.575 441.007 591.611 439.368 590.085 439.368H564.319C563.466 439.368 562.707 439.909 562.428 440.715L547.613 483.624C547.165 484.923 548.13 486.277 549.504 486.277H560.031C561.421 486.277 562.387 487.66 561.909 488.965Z" fill="#E4C55A" stroke="#393939" stroke-width="1.3" stroke-linejoin="round"/>
<path d="M15.2115 583.365L4.36892 612.959C3.58472 615.099 6.41835 616.675 7.82245 614.879L44.2625 568.272C45.289 566.959 44.3536 565.04 42.6869 565.04H32.7945C31.269 565.04 30.3051 563.401 31.0467 562.068L45.136 536.74C45.8776 535.407 44.9137 533.768 43.3882 533.768H17.6216C16.7687 533.768 16.0095 534.309 15.7311 535.115L0.915911 578.024C0.467441 579.323 1.43226 580.677 2.8064 580.677H13.3336C14.7235 580.677 15.6897 582.059 15.2115 583.365Z" fill="#E4C55A" stroke="#393939" stroke-width="1.3" stroke-linejoin="round"/>
<path d="M69.3892 583.365L58.5467 612.959C57.7625 615.099 60.5961 616.675 62.0002 614.879L98.4402 568.272C99.4668 566.959 98.5313 565.04 96.8646 565.04H86.9722C85.4468 565.04 84.4829 563.401 85.2244 562.068L99.3137 536.74C100.055 535.407 99.0914 533.768 97.566 533.768H71.7994C70.9464 533.768 70.1873 534.309 69.9089 535.115L55.0936 578.024C54.6452 579.323 55.61 580.677 56.9841 580.677H67.5113C68.9013 580.677 69.8674 582.059 69.3892 583.365Z" fill="#E4C55A" stroke="#393939" stroke-width="1.3" stroke-linejoin="round"/>
<path d="M124.387 583.365L113.545 612.959C112.761 615.099 115.594 616.675 116.998 614.879L153.438 568.272C154.465 566.959 153.529 565.04 151.863 565.04H141.97C140.445 565.04 139.481 563.401 140.222 562.068L154.312 536.74C155.053 535.407 154.089 533.768 152.564 533.768H126.797C125.944 533.768 125.185 534.309 124.907 535.115L110.092 578.024C109.643 579.323 110.608 580.677 111.982 580.677H122.509C123.899 580.677 124.865 582.059 124.387 583.365Z" fill="#E4C55A" stroke="#393939" stroke-width="1.3" stroke-linejoin="round"/>
<path d="M178.563 583.365L167.72 612.959C166.936 615.099 169.77 616.675 171.174 614.879L207.614 568.272C208.641 566.959 207.705 565.04 206.038 565.04H196.146C194.621 565.04 193.657 563.401 194.398 562.068L208.488 536.74C209.229 535.407 208.265 533.768 206.74 533.768H180.973C180.12 533.768 179.361 534.309 179.083 535.115L164.267 578.024C163.819 579.323 164.784 580.677 166.158 580.677H176.685C178.075 580.677 179.041 582.059 178.563 583.365Z" fill="#E4C55A" stroke="#393939" stroke-width="1.3" stroke-linejoin="round"/>
<path d="M233.561 583.365L222.719 612.959C221.934 615.099 224.768 616.675 226.172 614.879L262.612 568.272C263.639 566.959 262.703 565.04 261.037 565.04H251.144C249.619 565.04 248.655 563.401 249.396 562.068L263.486 536.74C264.227 535.407 263.263 533.768 261.738 533.768H235.971C235.118 533.768 234.359 534.309 234.081 535.115L219.266 578.024C218.817 579.323 219.782 580.677 221.156 580.677H231.683C233.073 580.677 234.039 582.059 233.561 583.365Z" fill="#E4C55A" stroke="#393939" stroke-width="1.3" stroke-linejoin="round"/>
<path d="M287.739 583.365L276.896 612.959C276.112 615.099 278.946 616.675 280.35 614.879L316.79 568.272C317.816 566.959 316.881 565.04 315.214 565.04H305.322C303.796 565.04 302.832 563.401 303.574 562.068L317.663 536.74C318.405 535.407 317.441 533.768 315.916 533.768H290.149C289.296 533.768 288.537 534.309 288.258 535.115L273.443 578.024C272.995 579.323 273.96 580.677 275.334 580.677H285.861C287.251 580.677 288.217 582.059 287.739 583.365Z" fill="#E4C55A" stroke="#393939" stroke-width="1.3" stroke-linejoin="round"/>
<path d="M342.737 583.365L331.894 612.959C331.11 615.099 333.944 616.675 335.348 614.879L371.788 568.272C372.814 566.959 371.879 565.04 370.212 565.04H360.32C358.794 565.04 357.831 563.401 358.572 562.068L372.661 536.74C373.403 535.407 372.439 533.768 370.914 533.768H345.147C344.294 533.768 343.535 534.309 343.257 535.115L328.441 578.024C327.993 579.323 328.958 580.677 330.332 580.677H340.859C342.249 580.677 343.215 582.059 342.737 583.365Z" fill="#E4C55A" stroke="#393939" stroke-width="1.3" stroke-linejoin="round"/>
<path d="M397.735 583.365L386.892 612.959C386.108 615.099 388.942 616.675 390.346 614.879L426.786 568.272C427.812 566.959 426.877 565.04 425.21 565.04H415.318C413.792 565.04 412.829 563.401 413.57 562.068L427.659 536.74C428.401 535.407 427.437 533.768 425.912 533.768H400.145C399.292 533.768 398.533 534.309 398.255 535.115L383.439 578.024C382.991 579.323 383.956 580.677 385.33 580.677H395.857C397.247 580.677 398.213 582.059 397.735 583.365Z" fill="#E4C55A" stroke="#393939" stroke-width="1.3" stroke-linejoin="round"/>
<path d="M452.733 583.365L441.89 612.959C441.106 615.099 443.94 616.675 445.344 614.879L481.784 568.272C482.811 566.959 481.875 565.04 480.208 565.04H470.316C468.791 565.04 467.827 563.401 468.568 562.068L482.657 536.74C483.399 535.407 482.435 533.768 480.91 533.768H455.143C454.29 533.768 453.531 534.309 453.253 535.115L438.437 578.024C437.989 579.323 438.954 580.677 440.328 580.677H450.855C452.245 580.677 453.211 582.059 452.733 583.365Z" fill="#E4C55A" stroke="#393939" stroke-width="1.3" stroke-linejoin="round"/>
<path d="M507.731 583.365L496.888 612.959C496.104 615.099 498.938 616.675 500.342 614.879L536.782 568.272C537.809 566.959 536.873 565.04 535.206 565.04H525.314C523.789 565.04 522.825 563.401 523.566 562.068L537.656 536.74C538.397 535.407 537.433 533.768 535.908 533.768H510.141C509.288 533.768 508.529 534.309 508.251 535.115L493.435 578.024C492.987 579.323 493.952 580.677 495.326 580.677H505.853C507.243 580.677 508.209 582.059 507.731 583.365Z" fill="#E4C55A" stroke="#393939" stroke-width="1.3" stroke-linejoin="round"/>
<path d="M561.909 583.365L551.066 612.959C550.282 615.099 553.116 616.675 554.52 614.879L590.96 568.272C591.986 566.959 591.051 565.04 589.384 565.04H579.492C577.966 565.04 577.002 563.401 577.744 562.068L591.833 536.74C592.575 535.407 591.611 533.768 590.085 533.768H564.319C563.466 533.768 562.707 534.309 562.428 535.115L547.613 578.024C547.165 579.323 548.13 580.677 549.504 580.677H560.031C561.421 580.677 562.387 582.059 561.909 583.365Z" fill="#E4C55A" stroke="#393939" stroke-width="1.3" stroke-linejoin="round"/>
<path d="M15.2115 674.481L4.36892 704.075C3.58472 706.216 6.41835 707.791 7.82245 705.995L44.2625 659.388C45.289 658.075 44.3536 656.156 42.6869 656.156H32.7945C31.269 656.156 30.3051 654.517 31.0467 653.184L45.136 627.856C45.8776 626.523 44.9137 624.884 43.3882 624.884H17.6216C16.7687 624.884 16.0095 625.425 15.7311 626.231L0.915911 669.14C0.467441 670.439 1.43226 671.793 2.8064 671.793H13.3336C14.7235 671.793 15.6897 673.176 15.2115 674.481Z" fill="#E4C55A" stroke="#393939" stroke-width="1.3" stroke-linejoin="round"/>
<path d="M69.3892 674.481L58.5467 704.075C57.7625 706.216 60.5961 707.791 62.0002 705.995L98.4402 659.388C99.4668 658.075 98.5313 656.156 96.8646 656.156H86.9722C85.4468 656.156 84.4829 654.517 85.2244 653.184L99.3137 627.856C100.055 626.523 99.0914 624.884 97.566 624.884H71.7994C70.9464 624.884 70.1873 625.425 69.9089 626.231L55.0936 669.14C54.6452 670.439 55.61 671.793 56.9841 671.793H67.5113C68.9013 671.793 69.8674 673.176 69.3892 674.481Z" fill="#E4C55A" stroke="#393939" stroke-width="1.3" stroke-linejoin="round"/>
<path d="M124.387 674.481L113.545 704.075C112.761 706.216 115.594 707.791 116.998 705.995L153.438 659.388C154.465 658.075 153.529 656.156 151.863 656.156H141.97C140.445 656.156 139.481 654.517 140.222 653.184L154.312 627.856C155.053 626.523 154.089 624.884 152.564 624.884H126.797C125.944 624.884 125.185 625.425 124.907 626.231L110.092 669.14C109.643 670.439 110.608 671.793 111.982 671.793H122.509C123.899 671.793 124.865 673.176 124.387 674.481Z" fill="#E4C55A" stroke="#393939" stroke-width="1.3" stroke-linejoin="round"/>
<path d="M178.563 674.481L167.72 704.075C166.936 706.216 169.77 707.791 171.174 705.995L207.614 659.388C208.641 658.075 207.705 656.156 206.038 656.156H196.146C194.621 656.156 193.657 654.517 194.398 653.184L208.488 627.856C209.229 626.523 208.265 624.884 206.74 624.884H180.973C180.12 624.884 179.361 625.425 179.083 626.231L164.267 669.14C163.819 670.439 164.784 671.793 166.158 671.793H176.685C178.075 671.793 179.041 673.176 178.563 674.481Z" fill="#E4C55A" stroke="#393939" stroke-width="1.3" stroke-linejoin="round"/>
<path d="M233.561 674.481L222.719 704.075C221.934 706.216 224.768 707.791 226.172 705.995L262.612 659.388C263.639 658.075 262.703 656.156 261.037 656.156H251.144C249.619 656.156 248.655 654.517 249.396 653.184L263.486 627.856C264.227 626.523 263.263 624.884 261.738 624.884H235.971C235.118 624.884 234.359 625.425 234.081 626.231L219.266 669.14C218.817 670.439 219.782 671.793 221.156 671.793H231.683C233.073 671.793 234.039 673.176 233.561 674.481Z" fill="#E4C55A" stroke="#393939" stroke-width="1.3" stroke-linejoin="round"/>
<path d="M287.739 674.481L276.896 704.075C276.112 706.216 278.946 707.791 280.35 705.995L316.79 659.388C317.816 658.075 316.881 656.156 315.214 656.156H305.322C303.796 656.156 302.832 654.517 303.574 653.184L317.663 627.856C318.405 626.523 317.441 624.884 315.916 624.884H290.149C289.296 624.884 288.537 625.425 288.258 626.231L273.443 669.14C272.995 670.439 273.96 671.793 275.334 671.793H285.861C287.251 671.793 288.217 673.176 287.739 674.481Z" fill="#E4C55A" stroke="#393939" stroke-width="1.3" stroke-linejoin="round"/>
<path d="M342.737 674.481L331.894 704.075C331.11 706.216 333.944 707.791 335.348 705.995L371.788 659.388C372.814 658.075 371.879 656.156 370.212 656.156H360.32C358.794 656.156 357.831 654.517 358.572 653.184L372.661 627.856C373.403 626.523 372.439 624.884 370.914 624.884H345.147C344.294 624.884 343.535 625.425 343.257 626.231L328.441 669.14C327.993 670.439 328.958 671.793 330.332 671.793H340.859C342.249 671.793 343.215 673.176 342.737 674.481Z" fill="#E4C55A" stroke="#393939" stroke-width="1.3" stroke-linejoin="round"/>
<path d="M397.735 674.481L386.892 704.075C386.108 706.216 388.942 707.791 390.346 705.995L426.786 659.388C427.812 658.075 426.877 656.156 425.21 656.156H415.318C413.792 656.156 412.829 654.517 413.57 653.184L427.659 627.856C428.401 626.523 427.437 624.884 425.912 624.884H400.145C399.292 624.884 398.533 625.425 398.255 626.231L383.439 669.14C382.991 670.439 383.956 671.793 385.33 671.793H395.857C397.247 671.793 398.213 673.176 397.735 674.481Z" fill="#E4C55A" stroke="#393939" stroke-width="1.3" stroke-linejoin="round"/>
<path d="M452.733 674.481L441.89 704.075C441.106 706.216 443.94 707.791 445.344 705.995L481.784 659.388C482.811 658.075 481.875 656.156 480.208 656.156H470.316C468.791 656.156 467.827 654.517 468.568 653.184L482.657 627.856C483.399 626.523 482.435 624.884 480.91 624.884H455.143C454.29 624.884 453.531 625.425 453.253 626.231L438.437 669.14C437.989 670.439 438.954 671.793 440.328 671.793H450.855C452.245 671.793 453.211 673.176 452.733 674.481Z" fill="#E4C55A" stroke="#393939" stroke-width="1.3" stroke-linejoin="round"/>
<path d="M507.731 674.481L496.888 704.075C496.104 706.216 498.938 707.791 500.342 705.995L536.782 659.388C537.809 658.075 536.873 656.156 535.206 656.156H525.314C523.789 656.156 522.825 654.517 523.566 653.184L537.656 627.856C538.397 626.523 537.433 624.884 535.908 624.884H510.141C509.288 624.884 508.529 625.425 508.251 626.231L493.435 669.14C492.987 670.439 493.952 671.793 495.326 671.793H505.853C507.243 671.793 508.209 673.176 507.731 674.481Z" fill="#E4C55A" stroke="#393939" stroke-width="1.3" stroke-linejoin="round"/>
<path d="M561.909 674.481L551.066 704.075C550.282 706.216 553.116 707.791 554.52 705.995L590.96 659.388C591.986 658.075 591.051 656.156 589.384 656.156H579.492C577.966 656.156 577.002 654.517 577.744 653.184L591.833 627.856C592.575 626.523 591.611 624.884 590.085 624.884H564.319C563.466 624.884 562.707 625.425 562.428 626.231L547.613 669.14C547.165 670.439 548.13 671.793 549.504 671.793H560.031C561.421 671.793 562.387 673.176 561.909 674.481Z" fill="#E4C55A" stroke="#393939" stroke-width="1.3" stroke-linejoin="round"/>
<path d="M117.093 144.677L113.549 154.322C112.763 156.461 115.594 158.04 117 156.246L126.073 144.677H117.093Z" fill="#73B3C0" stroke="#393939" stroke-width="1.3" stroke-linejoin="round"/>
<path d="M15.208 124.365L4.37347 153.85C3.58742 155.99 6.41827 157.568 7.82458 155.774L44.2533 109.319C45.2825 108.006 44.3475 106.084 42.6795 106.084H32.7993C31.2728 106.084 30.309 104.443 31.0528 103.11L45.1299 77.8777C45.8737 76.5446 44.9099 74.9033 43.3834 74.9033H17.6203C16.768 74.9033 16.0093 75.4435 15.7304 76.2489L0.919194 119.021C0.469298 120.32 1.43419 121.675 2.80909 121.675H13.3307C14.7215 121.675 15.6876 123.059 15.208 124.365Z" fill="#73B3C0" stroke="#393939" stroke-width="1.3" stroke-linejoin="round"/>
<mask id="mask0" mask-type="alpha" maskUnits="userSpaceOnUse" x="4" y="83" width="37" height="49">
<path d="M26.123 85.8204C26.123 85.8204 30.2029 84.0657 32.5566 85.8204C34.9103 87.575 38.9901 85.8204 38.9901 85.8204" stroke="white" stroke-width="3" stroke-linecap="round"/>
<path d="M6.23828 97.9078C6.23828 97.9078 10.3181 96.1532 12.6718 97.9078C15.0256 99.6624 19.1054 97.9078 19.1054 97.9078" stroke="white" stroke-width="3" stroke-linecap="round"/>
<path d="M24.9551 110.774C24.9551 110.774 29.0349 109.02 31.3886 110.774C33.7424 112.529 37.8222 110.774 37.8222 110.774" stroke="white" stroke-width="3" stroke-linecap="round"/>
<path d="M10.916 129.101C10.916 129.101 14.9958 127.346 17.3496 129.101C19.7033 130.855 23.7831 129.101 23.7831 129.101" stroke="white" stroke-width="3" stroke-linecap="round"/>
</mask>
<g mask="url(#mask0)">
<path d="M15.5966 123.194L4.76214 152.68C3.9761 154.819 6.80694 156.397 8.21325 154.604L44.642 108.148C45.6712 106.836 44.7361 104.914 43.0682 104.914H33.188C31.6614 104.914 30.6977 103.273 31.4414 101.94L45.5186 76.7073C46.2624 75.3742 45.2986 73.7329 43.772 73.7329H18.0089C17.1566 73.7329 16.3979 74.2731 16.119 75.0785L1.30787 117.85C0.857969 119.149 1.82286 120.505 3.19776 120.505H13.7193C15.1101 120.505 16.0763 121.889 15.5966 123.194Z" fill="white" stroke="#393939" stroke-width="1.3" stroke-linejoin="round"/>
</g>
<path d="M69.3857 124.365L58.5512 153.85C57.7652 155.99 60.596 157.568 62.0023 155.774L98.431 109.319C99.4603 108.006 98.5252 106.084 96.8572 106.084H86.9771C85.4505 106.084 84.4867 104.443 85.2305 103.11L99.3077 77.8777C100.051 76.5446 99.0877 74.9033 97.5611 74.9033H71.798C70.9457 74.9033 70.187 75.4435 69.9081 76.2489L55.0969 119.021C54.647 120.32 55.6119 121.675 56.9868 121.675H67.5084C68.8992 121.675 69.8654 123.059 69.3857 124.365Z" fill="#73B3C0" stroke="#393939" stroke-width="1.3" stroke-linejoin="round"/>
<mask id="mask1" mask-type="alpha" maskUnits="userSpaceOnUse" x="58" y="83" width="37" height="49">
<path d="M80.2988 85.8204C80.2988 85.8204 84.3786 84.0657 86.7324 85.8204C89.0861 87.575 93.1659 85.8204 93.1659 85.8204" stroke="white" stroke-width="3" stroke-linecap="round"/>
<path d="M60.4141 97.9078C60.4141 97.9078 64.4939 96.1532 66.8476 97.9078C69.2013 99.6624 73.2811 97.9078 73.2811 97.9078" stroke="white" stroke-width="3" stroke-linecap="round"/>
<path d="M79.1309 110.774C79.1309 110.774 83.2107 109.02 85.5644 110.774C87.9181 112.529 91.9979 110.774 91.9979 110.774" stroke="white" stroke-width="3" stroke-linecap="round"/>
<path d="M65.0918 129.101C65.0918 129.101 69.1716 127.346 71.5253 129.101C73.8791 130.855 77.9589 129.101 77.9589 129.101" stroke="white" stroke-width="3" stroke-linecap="round"/>
</mask>
<g mask="url(#mask1)">
<path d="M69.7724 123.195L58.9379 152.681C58.1519 154.82 60.9827 156.398 62.389 154.604L98.8178 108.149C99.847 106.836 98.9119 104.914 97.2439 104.914H87.3638C85.8372 104.914 84.8735 103.273 85.6172 101.94L99.6944 76.7078C100.438 75.3747 99.4744 73.7334 97.9478 73.7334H72.1847C71.3324 73.7334 70.5737 74.2736 70.2948 75.079L55.4836 117.851C55.0338 119.15 55.9986 120.505 57.3735 120.505H67.8951C69.2859 120.505 70.2521 121.889 69.7724 123.195Z" fill="white" stroke="#393939" stroke-width="1.3" stroke-linejoin="round"/>
</g>
</svg>
