<svg width="342" height="449" viewBox="0 0 342 449" fill="none" xmlns="http://www.w3.org/2000/svg">
<path d="M8.33947 108.694L4.36892 119.531C3.58472 121.672 6.41834 123.247 7.82243 121.451L24.41 100.236C25.4365 98.9227 24.501 97.0038 22.8344 97.0038H20.323C18.7976 97.0038 17.8337 95.3647 18.5752 94.0316L25.2835 81.9722C26.025 80.6392 25.0612 79 23.5357 79H10.7496C9.89662 79 9.13751 79.541 8.85912 80.3473L0.915911 103.353C0.467441 104.652 1.43226 106.006 2.8064 106.006H6.46154C7.85152 106.006 8.81764 107.389 8.33947 108.694Z" fill="#E4C55A" stroke="#393939" stroke-width="1.3" stroke-linejoin="round"/>
<path d="M39.5299 108.694L35.5594 119.531C34.7751 121.672 37.6088 123.247 39.0129 121.451L55.6004 100.236C56.627 98.9227 55.6915 97.0038 54.0248 97.0038H51.5135C49.988 97.0038 49.0241 95.3647 49.7657 94.0316L56.4739 81.9722C57.2155 80.6392 56.2516 79 54.7261 79H41.94C41.0871 79 40.3279 79.541 40.0496 80.3473L32.1063 103.353C31.6579 104.652 32.6227 106.006 33.9968 106.006H37.652C39.042 106.006 40.0081 107.389 39.5299 108.694Z" fill="#E4C55A" stroke="#393939" stroke-width="1.3" stroke-linejoin="round"/>
<path d="M71.192 108.694L67.2215 119.531C66.4373 121.672 69.2709 123.247 70.675 121.451L87.2625 100.236C88.2891 98.9227 87.3536 97.0038 85.6869 97.0038H83.1756C81.6501 97.0038 80.6862 95.3647 81.4278 94.0316L88.136 81.9722C88.8776 80.6392 87.9137 79 86.3882 79H73.6021C72.7492 79 71.99 79.541 71.7117 80.3473L63.7685 103.353C63.32 104.652 64.2848 106.006 65.6589 106.006H69.3141C70.7041 106.006 71.6702 107.389 71.192 108.694Z" fill="#E4C55A" stroke="#393939" stroke-width="1.3" stroke-linejoin="round"/>
<path d="M102.382 108.694L98.4119 119.531C97.6277 121.672 100.461 123.247 101.865 121.451L118.453 100.236C119.479 98.9227 118.544 97.0038 116.877 97.0038H114.366C112.841 97.0038 111.877 95.3647 112.618 94.0316L119.326 81.9722C120.068 80.6392 119.104 79 117.579 79H104.793C103.94 79 103.18 79.541 102.902 80.3473L94.9589 103.353C94.5104 104.652 95.4752 106.006 96.8494 106.006H100.505C101.894 106.006 102.861 107.389 102.382 108.694Z" fill="#E4C55A" stroke="#393939" stroke-width="1.3" stroke-linejoin="round"/>
<path d="M134.045 108.694L130.074 119.531C129.29 121.672 132.123 123.247 133.528 121.451L150.115 100.236C151.142 98.9227 150.206 97.0038 148.539 97.0038H146.028C144.503 97.0038 143.539 95.3647 144.28 94.0316L150.989 81.9722C151.73 80.6392 150.766 79 149.241 79H136.455C135.602 79 134.843 79.541 134.564 80.3473L126.621 103.353C126.173 104.652 127.137 106.006 128.511 106.006H132.167C133.557 106.006 134.523 107.389 134.045 108.694Z" fill="#E4C55A" stroke="#393939" stroke-width="1.3" stroke-linejoin="round"/>
<path d="M165.234 108.694L161.263 119.531C160.479 121.672 163.313 123.247 164.717 121.451L181.304 100.236C182.331 98.9227 181.396 97.0038 179.729 97.0038H177.218C175.692 97.0038 174.728 95.3647 175.47 94.0316L182.178 81.9722C182.92 80.6392 181.956 79 180.43 79H167.644C166.791 79 166.032 79.541 165.754 80.3473L157.81 103.353C157.362 104.652 158.327 106.006 159.701 106.006H163.356C164.746 106.006 165.712 107.389 165.234 108.694Z" fill="#E4C55A" stroke="#393939" stroke-width="1.3" stroke-linejoin="round"/>
<path d="M196.897 108.694L192.927 119.531C192.142 121.672 194.976 123.247 196.38 121.451L212.968 100.236C213.994 98.9227 213.059 97.0038 211.392 97.0038H208.881C207.355 97.0038 206.391 95.3647 207.133 94.0316L213.841 81.9722C214.583 80.6392 213.619 79 212.093 79H199.307C198.454 79 197.695 79.541 197.417 80.3473L189.474 103.353C189.025 104.652 189.99 106.006 191.364 106.006H195.019C196.409 106.006 197.375 107.389 196.897 108.694Z" fill="#E4C55A" stroke="#393939" stroke-width="1.3" stroke-linejoin="round"/>
<path d="M228.56 108.694L224.59 119.531C223.805 121.672 226.639 123.247 228.043 121.451L244.631 100.236C245.657 98.9227 244.722 97.0038 243.055 97.0038H240.544C239.018 97.0038 238.054 95.3647 238.796 94.0316L245.504 81.9722C246.246 80.6392 245.282 79 243.756 79H230.97C230.117 79 229.358 79.541 229.08 80.3473L221.137 103.353C220.688 104.652 221.653 106.006 223.027 106.006H226.682C228.072 106.006 229.038 107.389 228.56 108.694Z" fill="#E4C55A" stroke="#393939" stroke-width="1.3" stroke-linejoin="round"/>
<path d="M260.222 108.694L256.252 119.531C255.468 121.672 258.301 123.247 259.705 121.451L276.293 100.236C277.319 98.9227 276.384 97.0038 274.717 97.0038H272.206C270.68 97.0038 269.716 95.3647 270.458 94.0316L277.166 81.9722C277.908 80.6392 276.944 79 275.419 79H262.632C261.779 79 261.02 79.541 260.742 80.3473L252.799 103.353C252.35 104.652 253.315 106.006 254.689 106.006H258.344C259.734 106.006 260.7 107.389 260.222 108.694Z" fill="#E4C55A" stroke="#393939" stroke-width="1.3" stroke-linejoin="round"/>
<path d="M291.884 108.694L287.914 119.531C287.13 121.672 289.963 123.247 291.367 121.451L307.955 100.236C308.981 98.9227 308.046 97.0038 306.379 97.0038H303.868C302.342 97.0038 301.379 95.3647 302.12 94.0316L308.828 81.9722C309.57 80.6392 308.606 79 307.081 79H294.295C293.442 79 292.682 79.541 292.404 80.3473L284.461 103.353C284.012 104.652 284.977 106.006 286.351 106.006H290.006C291.396 106.006 292.363 107.389 291.884 108.694Z" fill="#E4C55A" stroke="#393939" stroke-width="1.3" stroke-linejoin="round"/>
<path d="M323.076 108.694L319.105 119.531C318.321 121.672 321.155 123.247 322.559 121.451L339.146 100.236C340.173 98.9227 339.237 97.0038 337.571 97.0038H335.059C333.534 97.0038 332.57 95.3647 333.312 94.0316L340.02 81.9722C340.761 80.6392 339.797 79 338.272 79H325.486C324.633 79 323.874 79.541 323.595 80.3473L315.652 103.353C315.204 104.652 316.169 106.006 317.543 106.006H321.198C322.588 106.006 323.554 107.389 323.076 108.694Z" fill="#E4C55A" stroke="#393939" stroke-width="1.3" stroke-linejoin="round"/>
<path d="M8.33947 161.15L4.36892 171.987C3.58472 174.128 6.41834 175.703 7.82243 173.907L24.41 152.692C25.4365 151.379 24.501 149.46 22.8344 149.46H20.323C18.7976 149.46 17.8337 147.821 18.5752 146.488L25.2835 134.428C26.025 133.095 25.0612 131.456 23.5357 131.456H10.7496C9.89662 131.456 9.13751 131.997 8.85912 132.803L0.915911 155.809C0.467441 157.108 1.43226 158.462 2.8064 158.462H6.46154C7.85152 158.462 8.81764 159.845 8.33947 161.15Z" fill="#E4C55A" stroke="#393939" stroke-width="1.3" stroke-linejoin="round"/>
<path d="M39.5299 161.15L35.5594 171.987C34.7751 174.128 37.6088 175.703 39.0129 173.907L55.6004 152.692C56.627 151.379 55.6915 149.46 54.0248 149.46H51.5135C49.988 149.46 49.0241 147.821 49.7657 146.488L56.4739 134.428C57.2155 133.095 56.2516 131.456 54.7261 131.456H41.94C41.0871 131.456 40.3279 131.997 40.0496 132.803L32.1063 155.809C31.6579 157.108 32.6227 158.462 33.9968 158.462H37.652C39.042 158.462 40.0081 159.845 39.5299 161.15Z" fill="#E4C55A" stroke="#393939" stroke-width="1.3" stroke-linejoin="round"/>
<path d="M71.192 161.15L67.2215 171.987C66.4373 174.128 69.2709 175.703 70.675 173.907L87.2625 152.692C88.2891 151.379 87.3536 149.46 85.6869 149.46H83.1756C81.6501 149.46 80.6862 147.821 81.4278 146.488L88.136 134.428C88.8776 133.095 87.9137 131.456 86.3882 131.456H73.6021C72.7492 131.456 71.99 131.997 71.7117 132.803L63.7685 155.809C63.32 157.108 64.2848 158.462 65.6589 158.462H69.3141C70.7041 158.462 71.6702 159.845 71.192 161.15Z" fill="#E4C55A" stroke="#393939" stroke-width="1.3" stroke-linejoin="round"/>
<path d="M102.382 161.15L98.4119 171.987C97.6277 174.128 100.461 175.703 101.865 173.907L118.453 152.692C119.479 151.379 118.544 149.46 116.877 149.46H114.366C112.841 149.46 111.877 147.821 112.618 146.488L119.326 134.428C120.068 133.095 119.104 131.456 117.579 131.456H104.793C103.94 131.456 103.18 131.997 102.902 132.803L94.9589 155.809C94.5104 157.108 95.4752 158.462 96.8494 158.462H100.505C101.894 158.462 102.861 159.845 102.382 161.15Z" fill="#E4C55A" stroke="#393939" stroke-width="1.3" stroke-linejoin="round"/>
<path d="M134.045 161.15L130.074 171.987C129.29 174.128 132.123 175.703 133.528 173.907L150.115 152.692C151.142 151.379 150.206 149.46 148.539 149.46H146.028C144.503 149.46 143.539 147.821 144.28 146.488L150.989 134.428C151.73 133.095 150.766 131.456 149.241 131.456H136.455C135.602 131.456 134.843 131.997 134.564 132.803L126.621 155.809C126.173 157.108 127.137 158.462 128.511 158.462H132.167C133.557 158.462 134.523 159.845 134.045 161.15Z" fill="#E4C55A" stroke="#393939" stroke-width="1.3" stroke-linejoin="round"/>
<path d="M165.234 161.15L161.263 171.987C160.479 174.128 163.313 175.703 164.717 173.907L181.304 152.692C182.331 151.379 181.396 149.46 179.729 149.46H177.218C175.692 149.46 174.728 147.821 175.47 146.488L182.178 134.428C182.92 133.095 181.956 131.456 180.43 131.456H167.644C166.791 131.456 166.032 131.997 165.754 132.803L157.81 155.809C157.362 157.108 158.327 158.462 159.701 158.462H163.356C164.746 158.462 165.712 159.845 165.234 161.15Z" fill="#E4C55A" stroke="#393939" stroke-width="1.3" stroke-linejoin="round"/>
<path d="M196.897 161.15L192.927 171.987C192.142 174.128 194.976 175.703 196.38 173.907L212.968 152.692C213.994 151.379 213.059 149.46 211.392 149.46H208.881C207.355 149.46 206.391 147.821 207.133 146.488L213.841 134.428C214.583 133.095 213.619 131.456 212.093 131.456H199.307C198.454 131.456 197.695 131.997 197.417 132.803L189.474 155.809C189.025 157.108 189.99 158.462 191.364 158.462H195.019C196.409 158.462 197.375 159.845 196.897 161.15Z" fill="#E4C55A" stroke="#393939" stroke-width="1.3" stroke-linejoin="round"/>
<path d="M228.56 161.15L224.59 171.987C223.805 174.128 226.639 175.703 228.043 173.907L244.631 152.692C245.657 151.379 244.722 149.46 243.055 149.46H240.544C239.018 149.46 238.054 147.821 238.796 146.488L245.504 134.428C246.246 133.095 245.282 131.456 243.756 131.456H230.97C230.117 131.456 229.358 131.997 229.08 132.803L221.137 155.809C220.688 157.108 221.653 158.462 223.027 158.462H226.682C228.072 158.462 229.038 159.845 228.56 161.15Z" fill="#E4C55A" stroke="#393939" stroke-width="1.3" stroke-linejoin="round"/>
<path d="M260.222 161.15L256.252 171.987C255.468 174.128 258.301 175.703 259.705 173.907L276.293 152.692C277.319 151.379 276.384 149.46 274.717 149.46H272.206C270.68 149.46 269.716 147.821 270.458 146.488L277.166 134.428C277.908 133.095 276.944 131.456 275.419 131.456H262.632C261.779 131.456 261.02 131.997 260.742 132.803L252.799 155.809C252.35 157.108 253.315 158.462 254.689 158.462H258.344C259.734 158.462 260.7 159.845 260.222 161.15Z" fill="#E4C55A" stroke="#393939" stroke-width="1.3" stroke-linejoin="round"/>
<path d="M291.884 161.15L287.914 171.987C287.13 174.128 289.963 175.703 291.367 173.907L307.955 152.692C308.981 151.379 308.046 149.46 306.379 149.46H303.868C302.342 149.46 301.379 147.821 302.12 146.488L308.828 134.428C309.57 133.095 308.606 131.456 307.081 131.456H294.295C293.442 131.456 292.682 131.997 292.404 132.803L284.461 155.809C284.012 157.108 284.977 158.462 286.351 158.462H290.006C291.396 158.462 292.363 159.845 291.884 161.15Z" fill="#E4C55A" stroke="#393939" stroke-width="1.3" stroke-linejoin="round"/>
<path d="M323.076 161.15L319.105 171.987C318.321 174.128 321.155 175.703 322.559 173.907L339.146 152.692C340.173 151.379 339.237 149.46 337.571 149.46H335.059C333.534 149.46 332.57 147.821 333.312 146.488L340.02 134.428C340.761 133.095 339.797 131.456 338.272 131.456H325.486C324.633 131.456 323.874 131.997 323.595 132.803L315.652 155.809C315.204 157.108 316.169 158.462 317.543 158.462H321.198C322.588 158.462 323.554 159.845 323.076 161.15Z" fill="#E4C55A" stroke="#393939" stroke-width="1.3" stroke-linejoin="round"/>
<path d="M8.33947 213.606L4.36892 224.443C3.58472 226.584 6.41834 228.159 7.82243 226.363L24.41 205.148C25.4365 203.835 24.501 201.916 22.8344 201.916H20.323C18.7976 201.916 17.8337 200.277 18.5752 198.944L25.2835 186.884C26.025 185.551 25.0612 183.912 23.5357 183.912H10.7496C9.89662 183.912 9.13751 184.453 8.85912 185.259L0.915911 208.265C0.467441 209.564 1.43226 210.918 2.8064 210.918H6.46154C7.85152 210.918 8.81764 212.301 8.33947 213.606Z" fill="#E4C55A" stroke="#393939" stroke-width="1.3" stroke-linejoin="round"/>
<path d="M39.5299 213.606L35.5594 224.443C34.7751 226.584 37.6088 228.159 39.0129 226.363L55.6004 205.148C56.627 203.835 55.6915 201.916 54.0248 201.916H51.5135C49.988 201.916 49.0241 200.277 49.7657 198.944L56.4739 186.884C57.2155 185.551 56.2516 183.912 54.7261 183.912H41.94C41.0871 183.912 40.3279 184.453 40.0496 185.259L32.1063 208.265C31.6579 209.564 32.6227 210.918 33.9968 210.918H37.652C39.042 210.918 40.0081 212.301 39.5299 213.606Z" fill="#E4C55A" stroke="#393939" stroke-width="1.3" stroke-linejoin="round"/>
<path d="M71.192 213.606L67.2215 224.443C66.4373 226.584 69.2709 228.159 70.675 226.363L87.2625 205.148C88.2891 203.835 87.3536 201.916 85.6869 201.916H83.1756C81.6501 201.916 80.6862 200.277 81.4278 198.944L88.136 186.884C88.8776 185.551 87.9137 183.912 86.3882 183.912H73.6021C72.7492 183.912 71.99 184.453 71.7117 185.259L63.7685 208.265C63.32 209.564 64.2848 210.918 65.6589 210.918H69.3141C70.7041 210.918 71.6702 212.301 71.192 213.606Z" fill="#E4C55A" stroke="#393939" stroke-width="1.3" stroke-linejoin="round"/>
<path d="M102.382 213.606L98.4119 224.443C97.6277 226.584 100.461 228.159 101.865 226.363L118.453 205.148C119.479 203.835 118.544 201.916 116.877 201.916H114.366C112.841 201.916 111.877 200.277 112.618 198.944L119.326 186.884C120.068 185.551 119.104 183.912 117.579 183.912H104.793C103.94 183.912 103.18 184.453 102.902 185.259L94.9589 208.265C94.5104 209.564 95.4752 210.918 96.8494 210.918H100.505C101.894 210.918 102.861 212.301 102.382 213.606Z" fill="#E4C55A" stroke="#393939" stroke-width="1.3" stroke-linejoin="round"/>
<path d="M134.045 213.606L130.074 224.443C129.29 226.584 132.123 228.159 133.528 226.363L150.115 205.148C151.142 203.835 150.206 201.916 148.539 201.916H146.028C144.503 201.916 143.539 200.277 144.28 198.944L150.989 186.884C151.73 185.551 150.766 183.912 149.241 183.912H136.455C135.602 183.912 134.843 184.453 134.564 185.259L126.621 208.265C126.173 209.564 127.137 210.918 128.511 210.918H132.167C133.557 210.918 134.523 212.301 134.045 213.606Z" fill="#E4C55A" stroke="#393939" stroke-width="1.3" stroke-linejoin="round"/>
<path d="M165.234 213.606L161.263 224.443C160.479 226.584 163.313 228.159 164.717 226.363L181.304 205.148C182.331 203.835 181.396 201.916 179.729 201.916H177.218C175.692 201.916 174.728 200.277 175.47 198.944L182.178 186.884C182.92 185.551 181.956 183.912 180.43 183.912H167.644C166.791 183.912 166.032 184.453 165.754 185.259L157.81 208.265C157.362 209.564 158.327 210.918 159.701 210.918H163.356C164.746 210.918 165.712 212.301 165.234 213.606Z" fill="#E4C55A" stroke="#393939" stroke-width="1.3" stroke-linejoin="round"/>
<path d="M196.897 213.606L192.927 224.443C192.142 226.584 194.976 228.159 196.38 226.363L212.968 205.148C213.994 203.835 213.059 201.916 211.392 201.916H208.881C207.355 201.916 206.391 200.277 207.133 198.944L213.841 186.884C214.583 185.551 213.619 183.912 212.093 183.912H199.307C198.454 183.912 197.695 184.453 197.417 185.259L189.474 208.265C189.025 209.564 189.99 210.918 191.364 210.918H195.019C196.409 210.918 197.375 212.301 196.897 213.606Z" fill="#E4C55A" stroke="#393939" stroke-width="1.3" stroke-linejoin="round"/>
<path d="M228.56 213.606L224.59 224.443C223.805 226.584 226.639 228.159 228.043 226.363L244.631 205.148C245.657 203.835 244.722 201.916 243.055 201.916H240.544C239.018 201.916 238.054 200.277 238.796 198.944L245.504 186.884C246.246 185.551 245.282 183.912 243.756 183.912H230.97C230.117 183.912 229.358 184.453 229.08 185.259L221.137 208.265C220.688 209.564 221.653 210.918 223.027 210.918H226.682C228.072 210.918 229.038 212.301 228.56 213.606Z" fill="#E4C55A" stroke="#393939" stroke-width="1.3" stroke-linejoin="round"/>
<path d="M260.222 213.606L256.252 224.443C255.468 226.584 258.301 228.159 259.705 226.363L276.293 205.148C277.319 203.835 276.384 201.916 274.717 201.916H272.206C270.68 201.916 269.716 200.277 270.458 198.944L277.166 186.884C277.908 185.551 276.944 183.912 275.419 183.912H262.632C261.779 183.912 261.02 184.453 260.742 185.259L252.799 208.265C252.35 209.564 253.315 210.918 254.689 210.918H258.344C259.734 210.918 260.7 212.301 260.222 213.606Z" fill="#E4C55A" stroke="#393939" stroke-width="1.3" stroke-linejoin="round"/>
<path d="M291.884 213.606L287.914 224.443C287.13 226.584 289.963 228.159 291.367 226.363L307.955 205.148C308.981 203.835 308.046 201.916 306.379 201.916H303.868C302.342 201.916 301.379 200.277 302.12 198.944L308.828 186.884C309.57 185.551 308.606 183.912 307.081 183.912H294.295C293.442 183.912 292.682 184.453 292.404 185.259L284.461 208.265C284.012 209.564 284.977 210.918 286.351 210.918H290.006C291.396 210.918 292.363 212.301 291.884 213.606Z" fill="#E4C55A" stroke="#393939" stroke-width="1.3" stroke-linejoin="round"/>
<path d="M323.076 213.606L319.105 224.443C318.321 226.584 321.155 228.159 322.559 226.363L339.146 205.148C340.173 203.835 339.237 201.916 337.571 201.916H335.059C333.534 201.916 332.57 200.277 333.312 198.944L340.02 186.884C340.761 185.551 339.797 183.912 338.272 183.912H325.486C324.633 183.912 323.874 184.453 323.595 185.259L315.652 208.265C315.204 209.564 316.169 210.918 317.543 210.918H321.198C322.588 210.918 323.554 212.301 323.076 213.606Z" fill="#E4C55A" stroke="#393939" stroke-width="1.3" stroke-linejoin="round"/>
<path d="M8.33947 266.062L4.36892 276.899C3.58472 279.04 6.41834 280.615 7.82243 278.819L24.41 257.604C25.4365 256.291 24.501 254.372 22.8344 254.372H20.323C18.7976 254.372 17.8337 252.733 18.5752 251.4L25.2835 239.34C26.025 238.007 25.0612 236.368 23.5357 236.368H10.7496C9.89662 236.368 9.13751 236.909 8.85912 237.715L0.915911 260.721C0.467441 262.02 1.43226 263.374 2.8064 263.374H6.46154C7.85152 263.374 8.81764 264.757 8.33947 266.062Z" fill="#E4C55A" stroke="#393939" stroke-width="1.3" stroke-linejoin="round"/>
<path d="M39.5299 266.062L35.5594 276.899C34.7751 279.04 37.6088 280.615 39.0129 278.819L55.6004 257.604C56.627 256.291 55.6915 254.372 54.0248 254.372H51.5135C49.988 254.372 49.0241 252.733 49.7657 251.4L56.4739 239.34C57.2155 238.007 56.2516 236.368 54.7261 236.368H41.94C41.0871 236.368 40.3279 236.909 40.0496 237.715L32.1063 260.721C31.6579 262.02 32.6227 263.374 33.9968 263.374H37.652C39.042 263.374 40.0081 264.757 39.5299 266.062Z" fill="#E4C55A" stroke="#393939" stroke-width="1.3" stroke-linejoin="round"/>
<path d="M71.192 266.062L67.2215 276.899C66.4373 279.04 69.2709 280.615 70.675 278.819L87.2625 257.604C88.2891 256.291 87.3536 254.372 85.6869 254.372H83.1756C81.6501 254.372 80.6862 252.733 81.4278 251.4L88.136 239.34C88.8776 238.007 87.9137 236.368 86.3882 236.368H73.6021C72.7492 236.368 71.99 236.909 71.7117 237.715L63.7685 260.721C63.32 262.02 64.2848 263.374 65.6589 263.374H69.3141C70.7041 263.374 71.6702 264.757 71.192 266.062Z" fill="#E4C55A" stroke="#393939" stroke-width="1.3" stroke-linejoin="round"/>
<path d="M102.382 266.062L98.4119 276.899C97.6277 279.04 100.461 280.615 101.865 278.819L118.453 257.604C119.479 256.291 118.544 254.372 116.877 254.372H114.366C112.841 254.372 111.877 252.733 112.618 251.4L119.326 239.34C120.068 238.007 119.104 236.368 117.579 236.368H104.793C103.94 236.368 103.18 236.909 102.902 237.715L94.9589 260.721C94.5104 262.02 95.4752 263.374 96.8494 263.374H100.505C101.894 263.374 102.861 264.757 102.382 266.062Z" fill="#E4C55A" stroke="#393939" stroke-width="1.3" stroke-linejoin="round"/>
<path d="M134.045 266.062L130.074 276.899C129.29 279.04 132.123 280.615 133.528 278.819L150.115 257.604C151.142 256.291 150.206 254.372 148.539 254.372H146.028C144.503 254.372 143.539 252.733 144.28 251.4L150.989 239.34C151.73 238.007 150.766 236.368 149.241 236.368H136.455C135.602 236.368 134.843 236.909 134.564 237.715L126.621 260.721C126.173 262.02 127.137 263.374 128.511 263.374H132.167C133.557 263.374 134.523 264.757 134.045 266.062Z" fill="#E4C55A" stroke="#393939" stroke-width="1.3" stroke-linejoin="round"/>
<path d="M165.234 266.062L161.263 276.899C160.479 279.04 163.313 280.615 164.717 278.819L181.304 257.604C182.331 256.291 181.396 254.372 179.729 254.372H177.218C175.692 254.372 174.728 252.733 175.47 251.4L182.178 239.34C182.92 238.007 181.956 236.368 180.43 236.368H167.644C166.791 236.368 166.032 236.909 165.754 237.715L157.81 260.721C157.362 262.02 158.327 263.374 159.701 263.374H163.356C164.746 263.374 165.712 264.757 165.234 266.062Z" fill="#E4C55A" stroke="#393939" stroke-width="1.3" stroke-linejoin="round"/>
<path d="M196.897 266.062L192.927 276.899C192.142 279.04 194.976 280.615 196.38 278.819L212.968 257.604C213.994 256.291 213.059 254.372 211.392 254.372H208.881C207.355 254.372 206.391 252.733 207.133 251.4L213.841 239.34C214.583 238.007 213.619 236.368 212.093 236.368H199.307C198.454 236.368 197.695 236.909 197.417 237.715L189.474 260.721C189.025 262.02 189.99 263.374 191.364 263.374H195.019C196.409 263.374 197.375 264.757 196.897 266.062Z" fill="#E4C55A" stroke="#393939" stroke-width="1.3" stroke-linejoin="round"/>
<path d="M228.56 266.062L224.59 276.899C223.805 279.04 226.639 280.615 228.043 278.819L244.631 257.604C245.657 256.291 244.722 254.372 243.055 254.372H240.544C239.018 254.372 238.054 252.733 238.796 251.4L245.504 239.34C246.246 238.007 245.282 236.368 243.756 236.368H230.97C230.117 236.368 229.358 236.909 229.08 237.715L221.137 260.721C220.688 262.02 221.653 263.374 223.027 263.374H226.682C228.072 263.374 229.038 264.757 228.56 266.062Z" fill="#E4C55A" stroke="#393939" stroke-width="1.3" stroke-linejoin="round"/>
<path d="M260.222 266.062L256.252 276.899C255.468 279.04 258.301 280.615 259.705 278.819L276.293 257.604C277.319 256.291 276.384 254.372 274.717 254.372H272.206C270.68 254.372 269.716 252.733 270.458 251.4L277.166 239.34C277.908 238.007 276.944 236.368 275.419 236.368H262.632C261.779 236.368 261.02 236.909 260.742 237.715L252.799 260.721C252.35 262.02 253.315 263.374 254.689 263.374H258.344C259.734 263.374 260.7 264.757 260.222 266.062Z" fill="#E4C55A" stroke="#393939" stroke-width="1.3" stroke-linejoin="round"/>
<path d="M291.884 266.062L287.914 276.899C287.13 279.04 289.963 280.615 291.367 278.819L307.955 257.604C308.981 256.291 308.046 254.372 306.379 254.372H303.868C302.342 254.372 301.379 252.733 302.12 251.4L308.828 239.34C309.57 238.007 308.606 236.368 307.081 236.368H294.295C293.442 236.368 292.682 236.909 292.404 237.715L284.461 260.721C284.012 262.02 284.977 263.374 286.351 263.374H290.006C291.396 263.374 292.363 264.757 291.884 266.062Z" fill="#E4C55A" stroke="#393939" stroke-width="1.3" stroke-linejoin="round"/>
<path d="M323.076 266.062L319.105 276.899C318.321 279.04 321.155 280.615 322.559 278.819L339.146 257.604C340.173 256.291 339.237 254.372 337.571 254.372H335.059C333.534 254.372 332.57 252.733 333.312 251.4L340.02 239.34C340.761 238.007 339.797 236.368 338.272 236.368H325.486C324.633 236.368 323.874 236.909 323.595 237.715L315.652 260.721C315.204 262.02 316.169 263.374 317.543 263.374H321.198C322.588 263.374 323.554 264.757 323.076 266.062Z" fill="#E4C55A" stroke="#393939" stroke-width="1.3" stroke-linejoin="round"/>
<path d="M8.33947 318.518L4.36892 329.355C3.58472 331.496 6.41834 333.071 7.82243 331.275L24.41 310.06C25.4365 308.747 24.501 306.828 22.8344 306.828H20.323C18.7976 306.828 17.8337 305.189 18.5752 303.856L25.2835 291.796C26.025 290.463 25.0612 288.824 23.5357 288.824H10.7496C9.89662 288.824 9.13751 289.365 8.85912 290.171L0.915911 313.177C0.467441 314.476 1.43226 315.83 2.8064 315.83H6.46154C7.85152 315.83 8.81764 317.213 8.33947 318.518Z" fill="#E4C55A" stroke="#393939" stroke-width="1.3" stroke-linejoin="round"/>
<path d="M39.5299 318.518L35.5594 329.355C34.7751 331.496 37.6088 333.071 39.0129 331.275L55.6004 310.06C56.627 308.747 55.6915 306.828 54.0248 306.828H51.5135C49.988 306.828 49.0241 305.189 49.7657 303.856L56.4739 291.796C57.2155 290.463 56.2516 288.824 54.7261 288.824H41.94C41.0871 288.824 40.3279 289.365 40.0496 290.171L32.1063 313.177C31.6579 314.476 32.6227 315.83 33.9968 315.83H37.652C39.042 315.83 40.0081 317.213 39.5299 318.518Z" fill="#E4C55A" stroke="#393939" stroke-width="1.3" stroke-linejoin="round"/>
<path d="M71.192 318.518L67.2215 329.355C66.4373 331.496 69.2709 333.071 70.675 331.275L87.2625 310.06C88.2891 308.747 87.3536 306.828 85.6869 306.828H83.1756C81.6501 306.828 80.6862 305.189 81.4278 303.856L88.136 291.796C88.8776 290.463 87.9137 288.824 86.3882 288.824H73.6021C72.7492 288.824 71.99 289.365 71.7117 290.171L63.7685 313.177C63.32 314.476 64.2848 315.83 65.6589 315.83H69.3141C70.7041 315.83 71.6702 317.213 71.192 318.518Z" fill="#E4C55A" stroke="#393939" stroke-width="1.3" stroke-linejoin="round"/>
<path d="M102.382 318.518L98.4119 329.355C97.6277 331.496 100.461 333.071 101.865 331.275L118.453 310.06C119.479 308.747 118.544 306.828 116.877 306.828H114.366C112.841 306.828 111.877 305.189 112.618 303.856L119.326 291.796C120.068 290.463 119.104 288.824 117.579 288.824H104.793C103.94 288.824 103.18 289.365 102.902 290.171L94.9589 313.177C94.5104 314.476 95.4752 315.83 96.8494 315.83H100.505C101.894 315.83 102.861 317.213 102.382 318.518Z" fill="#E4C55A" stroke="#393939" stroke-width="1.3" stroke-linejoin="round"/>
<path d="M134.045 318.518L130.074 329.355C129.29 331.496 132.123 333.071 133.528 331.275L150.115 310.06C151.142 308.747 150.206 306.828 148.539 306.828H146.028C144.503 306.828 143.539 305.189 144.28 303.856L150.989 291.796C151.73 290.463 150.766 288.824 149.241 288.824H136.455C135.602 288.824 134.843 289.365 134.564 290.171L126.621 313.177C126.173 314.476 127.137 315.83 128.511 315.83H132.167C133.557 315.83 134.523 317.213 134.045 318.518Z" fill="#E4C55A" stroke="#393939" stroke-width="1.3" stroke-linejoin="round"/>
<path d="M165.234 318.518L161.263 329.355C160.479 331.496 163.313 333.071 164.717 331.275L181.304 310.06C182.331 308.747 181.396 306.828 179.729 306.828H177.218C175.692 306.828 174.728 305.189 175.47 303.856L182.178 291.796C182.92 290.463 181.956 288.824 180.43 288.824H167.644C166.791 288.824 166.032 289.365 165.754 290.171L157.81 313.177C157.362 314.476 158.327 315.83 159.701 315.83H163.356C164.746 315.83 165.712 317.213 165.234 318.518Z" fill="#E4C55A" stroke="#393939" stroke-width="1.3" stroke-linejoin="round"/>
<path d="M196.897 318.518L192.927 329.355C192.142 331.496 194.976 333.071 196.38 331.275L212.968 310.06C213.994 308.747 213.059 306.828 211.392 306.828H208.881C207.355 306.828 206.391 305.189 207.133 303.856L213.841 291.796C214.583 290.463 213.619 288.824 212.093 288.824H199.307C198.454 288.824 197.695 289.365 197.417 290.171L189.474 313.177C189.025 314.476 189.99 315.83 191.364 315.83H195.019C196.409 315.83 197.375 317.213 196.897 318.518Z" fill="#E4C55A" stroke="#393939" stroke-width="1.3" stroke-linejoin="round"/>
<path d="M228.56 318.518L224.59 329.355C223.805 331.496 226.639 333.071 228.043 331.275L244.631 310.06C245.657 308.747 244.722 306.828 243.055 306.828H240.544C239.018 306.828 238.054 305.189 238.796 303.856L245.504 291.796C246.246 290.463 245.282 288.824 243.756 288.824H230.97C230.117 288.824 229.358 289.365 229.08 290.171L221.137 313.177C220.688 314.476 221.653 315.83 223.027 315.83H226.682C228.072 315.83 229.038 317.213 228.56 318.518Z" fill="#E4C55A" stroke="#393939" stroke-width="1.3" stroke-linejoin="round"/>
<path d="M260.222 318.518L256.252 329.355C255.468 331.496 258.301 333.071 259.705 331.275L276.293 310.06C277.319 308.747 276.384 306.828 274.717 306.828H272.206C270.68 306.828 269.716 305.189 270.458 303.856L277.166 291.796C277.908 290.463 276.944 288.824 275.419 288.824H262.632C261.779 288.824 261.02 289.365 260.742 290.171L252.799 313.177C252.35 314.476 253.315 315.83 254.689 315.83H258.344C259.734 315.83 260.7 317.213 260.222 318.518Z" fill="#E4C55A" stroke="#393939" stroke-width="1.3" stroke-linejoin="round"/>
<path d="M291.884 318.518L287.914 329.355C287.13 331.496 289.963 333.071 291.367 331.275L307.955 310.06C308.981 308.747 308.046 306.828 306.379 306.828H303.868C302.342 306.828 301.379 305.189 302.12 303.856L308.828 291.796C309.57 290.463 308.606 288.824 307.081 288.824H294.295C293.442 288.824 292.682 289.365 292.404 290.171L284.461 313.177C284.012 314.476 284.977 315.83 286.351 315.83H290.006C291.396 315.83 292.363 317.213 291.884 318.518Z" fill="#E4C55A" stroke="#393939" stroke-width="1.3" stroke-linejoin="round"/>
<path d="M323.076 318.518L319.105 329.355C318.321 331.496 321.155 333.071 322.559 331.275L339.146 310.06C340.173 308.747 339.237 306.828 337.571 306.828H335.059C333.534 306.828 332.57 305.189 333.312 303.856L340.02 291.796C340.761 290.463 339.797 288.824 338.272 288.824H325.486C324.633 288.824 323.874 289.365 323.595 290.171L315.652 313.177C315.204 314.476 316.169 315.83 317.543 315.83H321.198C322.588 315.83 323.554 317.213 323.076 318.518Z" fill="#E4C55A" stroke="#393939" stroke-width="1.3" stroke-linejoin="round"/>
<path d="M8.33947 372.864L4.36892 383.702C3.58472 385.842 6.41834 387.417 7.82243 385.622L24.41 364.406C25.4365 363.093 24.501 361.174 22.8344 361.174H20.323C18.7976 361.174 17.8337 359.535 18.5752 358.202L25.2835 346.143C26.025 344.81 25.0612 343.17 23.5357 343.17H10.7496C9.89662 343.17 9.13751 343.711 8.85912 344.518L0.915911 367.523C0.467441 368.822 1.43226 370.176 2.8064 370.176H6.46154C7.85152 370.176 8.81764 371.559 8.33947 372.864Z" fill="#E4C55A" stroke="#393939" stroke-width="1.3" stroke-linejoin="round"/>
<path d="M39.5299 372.864L35.5594 383.702C34.7751 385.842 37.6088 387.417 39.0129 385.622L55.6004 364.406C56.627 363.093 55.6915 361.174 54.0248 361.174H51.5135C49.988 361.174 49.0241 359.535 49.7657 358.202L56.4739 346.143C57.2155 344.81 56.2516 343.17 54.7261 343.17H41.94C41.0871 343.17 40.3279 343.711 40.0496 344.518L32.1063 367.523C31.6579 368.822 32.6227 370.176 33.9968 370.176H37.652C39.042 370.176 40.0081 371.559 39.5299 372.864Z" fill="#E4C55A" stroke="#393939" stroke-width="1.3" stroke-linejoin="round"/>
<path d="M71.192 372.864L67.2215 383.702C66.4373 385.842 69.2709 387.417 70.675 385.622L87.2625 364.406C88.2891 363.093 87.3536 361.174 85.6869 361.174H83.1756C81.6501 361.174 80.6862 359.535 81.4278 358.202L88.136 346.143C88.8776 344.81 87.9137 343.17 86.3882 343.17H73.6021C72.7492 343.17 71.99 343.711 71.7117 344.518L63.7685 367.523C63.32 368.822 64.2848 370.176 65.6589 370.176H69.3141C70.7041 370.176 71.6702 371.559 71.192 372.864Z" fill="#E4C55A" stroke="#393939" stroke-width="1.3" stroke-linejoin="round"/>
<path d="M102.382 372.864L98.4119 383.702C97.6277 385.842 100.461 387.417 101.865 385.622L118.453 364.406C119.479 363.093 118.544 361.174 116.877 361.174H114.366C112.841 361.174 111.877 359.535 112.618 358.202L119.326 346.143C120.068 344.81 119.104 343.17 117.579 343.17H104.793C103.94 343.17 103.18 343.711 102.902 344.518L94.9589 367.523C94.5104 368.822 95.4752 370.176 96.8494 370.176H100.505C101.894 370.176 102.861 371.559 102.382 372.864Z" fill="#E4C55A" stroke="#393939" stroke-width="1.3" stroke-linejoin="round"/>
<path d="M134.045 372.864L130.074 383.702C129.29 385.842 132.123 387.417 133.528 385.622L150.115 364.406C151.142 363.093 150.206 361.174 148.539 361.174H146.028C144.503 361.174 143.539 359.535 144.28 358.202L150.989 346.143C151.73 344.81 150.766 343.17 149.241 343.17H136.455C135.602 343.17 134.843 343.711 134.564 344.518L126.621 367.523C126.173 368.822 127.137 370.176 128.511 370.176H132.167C133.557 370.176 134.523 371.559 134.045 372.864Z" fill="#E4C55A" stroke="#393939" stroke-width="1.3" stroke-linejoin="round"/>
<path d="M165.234 372.864L161.263 383.702C160.479 385.842 163.313 387.417 164.717 385.622L181.304 364.406C182.331 363.093 181.396 361.174 179.729 361.174H177.218C175.692 361.174 174.728 359.535 175.47 358.202L182.178 346.143C182.92 344.81 181.956 343.17 180.43 343.17H167.644C166.791 343.17 166.032 343.711 165.754 344.518L157.81 367.523C157.362 368.822 158.327 370.176 159.701 370.176H163.356C164.746 370.176 165.712 371.559 165.234 372.864Z" fill="#E4C55A" stroke="#393939" stroke-width="1.3" stroke-linejoin="round"/>
<path d="M196.897 372.864L192.927 383.702C192.142 385.842 194.976 387.417 196.38 385.622L212.968 364.406C213.994 363.093 213.059 361.174 211.392 361.174H208.881C207.355 361.174 206.391 359.535 207.133 358.202L213.841 346.143C214.583 344.81 213.619 343.17 212.093 343.17H199.307C198.454 343.17 197.695 343.711 197.417 344.518L189.474 367.523C189.025 368.822 189.99 370.176 191.364 370.176H195.019C196.409 370.176 197.375 371.559 196.897 372.864Z" fill="#E4C55A" stroke="#393939" stroke-width="1.3" stroke-linejoin="round"/>
<path d="M228.56 372.864L224.59 383.702C223.805 385.842 226.639 387.417 228.043 385.622L244.631 364.406C245.657 363.093 244.722 361.174 243.055 361.174H240.544C239.018 361.174 238.054 359.535 238.796 358.202L245.504 346.143C246.246 344.81 245.282 343.17 243.756 343.17H230.97C230.117 343.17 229.358 343.711 229.08 344.518L221.137 367.523C220.688 368.822 221.653 370.176 223.027 370.176H226.682C228.072 370.176 229.038 371.559 228.56 372.864Z" fill="#E4C55A" stroke="#393939" stroke-width="1.3" stroke-linejoin="round"/>
<path d="M260.222 372.864L256.252 383.702C255.468 385.842 258.301 387.417 259.705 385.622L276.293 364.406C277.319 363.093 276.384 361.174 274.717 361.174H272.206C270.68 361.174 269.716 359.535 270.458 358.202L277.166 346.143C277.908 344.81 276.944 343.17 275.419 343.17H262.632C261.779 343.17 261.02 343.711 260.742 344.518L252.799 367.523C252.35 368.822 253.315 370.176 254.689 370.176H258.344C259.734 370.176 260.7 371.559 260.222 372.864Z" fill="#E4C55A" stroke="#393939" stroke-width="1.3" stroke-linejoin="round"/>
<path d="M291.884 372.864L287.914 383.702C287.13 385.842 289.963 387.417 291.367 385.622L307.955 364.406C308.981 363.093 308.046 361.174 306.379 361.174H303.868C302.342 361.174 301.379 359.535 302.12 358.202L308.828 346.143C309.57 344.81 308.606 343.17 307.081 343.17H294.295C293.442 343.17 292.682 343.711 292.404 344.518L284.461 367.523C284.012 368.822 284.977 370.176 286.351 370.176H290.006C291.396 370.176 292.363 371.559 291.884 372.864Z" fill="#E4C55A" stroke="#393939" stroke-width="1.3" stroke-linejoin="round"/>
<path d="M323.076 372.864L319.105 383.702C318.321 385.842 321.155 387.417 322.559 385.622L339.146 364.406C340.173 363.093 339.237 361.174 337.571 361.174H335.059C333.534 361.174 332.57 359.535 333.312 358.202L340.02 346.143C340.761 344.81 339.797 343.17 338.272 343.17H325.486C324.633 343.17 323.874 343.711 323.595 344.518L315.652 367.523C315.204 368.822 316.169 370.176 317.543 370.176H321.198C322.588 370.176 323.554 371.559 323.076 372.864Z" fill="#E4C55A" stroke="#393939" stroke-width="1.3" stroke-linejoin="round"/>
<path d="M8.33947 425.32L4.36892 436.158C3.58472 438.298 6.41834 439.873 7.82243 438.078L24.41 416.862C25.4365 415.549 24.501 413.63 22.8344 413.63H20.323C18.7976 413.63 17.8337 411.991 18.5752 410.658L25.2835 398.599C26.025 397.266 25.0612 395.626 23.5357 395.626H10.7496C9.89662 395.626 9.13751 396.167 8.85912 396.974L0.915911 419.979C0.467441 421.278 1.43226 422.632 2.8064 422.632H6.46154C7.85152 422.632 8.81764 424.015 8.33947 425.32Z" fill="#E4C55A" stroke="#393939" stroke-width="1.3" stroke-linejoin="round"/>
<path d="M39.5299 425.32L35.5594 436.158C34.7751 438.298 37.6088 439.873 39.0129 438.078L55.6004 416.862C56.627 415.549 55.6915 413.63 54.0248 413.63H51.5135C49.988 413.63 49.0241 411.991 49.7657 410.658L56.4739 398.599C57.2155 397.266 56.2516 395.626 54.7261 395.626H41.94C41.0871 395.626 40.3279 396.167 40.0496 396.974L32.1063 419.979C31.6579 421.278 32.6227 422.632 33.9968 422.632H37.652C39.042 422.632 40.0081 424.015 39.5299 425.32Z" fill="#E4C55A" stroke="#393939" stroke-width="1.3" stroke-linejoin="round"/>
<path d="M71.192 425.32L67.2215 436.158C66.4373 438.298 69.2709 439.873 70.675 438.078L87.2625 416.862C88.2891 415.549 87.3536 413.63 85.6869 413.63H83.1756C81.6501 413.63 80.6862 411.991 81.4278 410.658L88.136 398.599C88.8776 397.266 87.9137 395.626 86.3882 395.626H73.6021C72.7492 395.626 71.99 396.167 71.7117 396.974L63.7685 419.979C63.32 421.278 64.2848 422.632 65.6589 422.632H69.3141C70.7041 422.632 71.6702 424.015 71.192 425.32Z" fill="#E4C55A" stroke="#393939" stroke-width="1.3" stroke-linejoin="round"/>
<path d="M102.382 425.32L98.4119 436.158C97.6277 438.298 100.461 439.873 101.865 438.078L118.453 416.862C119.479 415.549 118.544 413.63 116.877 413.63H114.366C112.841 413.63 111.877 411.991 112.618 410.658L119.326 398.599C120.068 397.266 119.104 395.626 117.579 395.626H104.793C103.94 395.626 103.18 396.167 102.902 396.974L94.9589 419.979C94.5104 421.278 95.4752 422.632 96.8494 422.632H100.505C101.894 422.632 102.861 424.015 102.382 425.32Z" fill="#E4C55A" stroke="#393939" stroke-width="1.3" stroke-linejoin="round"/>
<path d="M134.045 425.32L130.074 436.158C129.29 438.298 132.123 439.873 133.528 438.078L150.115 416.862C151.142 415.549 150.206 413.63 148.539 413.63H146.028C144.503 413.63 143.539 411.991 144.28 410.658L150.989 398.599C151.73 397.266 150.766 395.626 149.241 395.626H136.455C135.602 395.626 134.843 396.167 134.564 396.974L126.621 419.979C126.173 421.278 127.137 422.632 128.511 422.632H132.167C133.557 422.632 134.523 424.015 134.045 425.32Z" fill="#E4C55A" stroke="#393939" stroke-width="1.3" stroke-linejoin="round"/>
<path d="M165.234 425.32L161.263 436.158C160.479 438.298 163.313 439.873 164.717 438.078L181.304 416.862C182.331 415.549 181.396 413.63 179.729 413.63H177.218C175.692 413.63 174.728 411.991 175.47 410.658L182.178 398.599C182.92 397.266 181.956 395.626 180.43 395.626H167.644C166.791 395.626 166.032 396.167 165.754 396.974L157.81 419.979C157.362 421.278 158.327 422.632 159.701 422.632H163.356C164.746 422.632 165.712 424.015 165.234 425.32Z" fill="#E4C55A" stroke="#393939" stroke-width="1.3" stroke-linejoin="round"/>
<path d="M196.897 425.32L192.927 436.158C192.142 438.298 194.976 439.873 196.38 438.078L212.968 416.862C213.994 415.549 213.059 413.63 211.392 413.63H208.881C207.355 413.63 206.391 411.991 207.133 410.658L213.841 398.599C214.583 397.266 213.619 395.626 212.093 395.626H199.307C198.454 395.626 197.695 396.167 197.417 396.974L189.474 419.979C189.025 421.278 189.99 422.632 191.364 422.632H195.019C196.409 422.632 197.375 424.015 196.897 425.32Z" fill="#E4C55A" stroke="#393939" stroke-width="1.3" stroke-linejoin="round"/>
<path d="M228.56 425.32L224.59 436.158C223.805 438.298 226.639 439.873 228.043 438.078L244.631 416.862C245.657 415.549 244.722 413.63 243.055 413.63H240.544C239.018 413.63 238.054 411.991 238.796 410.658L245.504 398.599C246.246 397.266 245.282 395.626 243.756 395.626H230.97C230.117 395.626 229.358 396.167 229.08 396.974L221.137 419.979C220.688 421.278 221.653 422.632 223.027 422.632H226.682C228.072 422.632 229.038 424.015 228.56 425.32Z" fill="#E4C55A" stroke="#393939" stroke-width="1.3" stroke-linejoin="round"/>
<path d="M260.222 425.32L256.252 436.158C255.468 438.298 258.301 439.873 259.705 438.078L276.293 416.862C277.319 415.549 276.384 413.63 274.717 413.63H272.206C270.68 413.63 269.716 411.991 270.458 410.658L277.166 398.599C277.908 397.266 276.944 395.626 275.419 395.626H262.632C261.779 395.626 261.02 396.167 260.742 396.974L252.799 419.979C252.35 421.278 253.315 422.632 254.689 422.632H258.344C259.734 422.632 260.7 424.015 260.222 425.32Z" fill="#E4C55A" stroke="#393939" stroke-width="1.3" stroke-linejoin="round"/>
<path d="M291.884 425.32L287.914 436.158C287.13 438.298 289.963 439.873 291.367 438.078L307.955 416.862C308.981 415.549 308.046 413.63 306.379 413.63H303.868C302.342 413.63 301.379 411.991 302.12 410.658L308.828 398.599C309.57 397.266 308.606 395.626 307.081 395.626H294.295C293.442 395.626 292.682 396.167 292.404 396.974L284.461 419.979C284.012 421.278 284.977 422.632 286.351 422.632H290.006C291.396 422.632 292.363 424.015 291.884 425.32Z" fill="#E4C55A" stroke="#393939" stroke-width="1.3" stroke-linejoin="round"/>
<path d="M323.076 425.32L319.105 436.158C318.321 438.298 321.155 439.873 322.559 438.078L339.146 416.862C340.173 415.549 339.237 413.63 337.571 413.63H335.059C333.534 413.63 332.57 411.991 333.312 410.658L340.02 398.599C340.761 397.266 339.797 395.626 338.272 395.626H325.486C324.633 395.626 323.874 396.167 323.595 396.974L315.652 419.979C315.204 421.278 316.169 422.632 317.543 422.632H321.198C322.588 422.632 323.554 424.015 323.076 425.32Z" fill="#E4C55A" stroke="#393939" stroke-width="1.3" stroke-linejoin="round"/>
<path d="M62.3395 30.6937L58.3689 41.5312C57.5847 43.6716 60.4183 45.2469 61.8224 43.4511L78.41 22.2357C79.4365 20.9227 78.501 19.0038 76.8344 19.0038H74.323C72.7976 19.0038 71.8337 17.3647 72.5752 16.0316L79.2835 3.97224C80.025 2.63916 79.0612 1 77.5357 1H64.7496C63.8966 1 63.1375 1.54099 62.8591 2.34727L54.9159 25.353C54.4674 26.6519 55.4323 28.0057 56.8064 28.0057H60.4615C61.8515 28.0057 62.8176 29.3886 62.3395 30.6937Z" fill="#E4C55A" stroke="#393939" stroke-width="1.3" stroke-linejoin="round"/>
<path d="M85.0961 23.356H96.6141V25.748H85.0961V23.356ZM85.0961 18.78H96.6141V21.159H85.0961V18.78ZM101.907 28.595H105.716V17.636C105.716 17.2113 105.729 16.765 105.755 16.297L103.051 18.559C102.938 18.6543 102.821 18.7193 102.7 18.754C102.587 18.7887 102.475 18.806 102.362 18.806C102.189 18.806 102.028 18.7713 101.881 18.702C101.742 18.624 101.638 18.5373 101.569 18.442L100.555 17.051L106.288 12.176H108.927V28.595H112.307V31H101.907V28.595ZM127.922 21.601C127.922 23.239 127.745 24.6647 127.389 25.878C127.043 27.0827 126.557 28.0793 125.933 28.868C125.318 29.6567 124.586 30.246 123.736 30.636C122.896 31.0173 121.986 31.208 121.006 31.208C120.027 31.208 119.117 31.0173 118.276 30.636C117.444 30.246 116.721 29.6567 116.105 28.868C115.49 28.0793 115.009 27.0827 114.662 25.878C114.316 24.6647 114.142 23.239 114.142 21.601C114.142 19.9543 114.316 18.5287 114.662 17.324C115.009 16.1193 115.49 15.1227 116.105 14.334C116.721 13.5453 117.444 12.9603 118.276 12.579C119.117 12.189 120.027 11.994 121.006 11.994C121.986 11.994 122.896 12.189 123.736 12.579C124.586 12.9603 125.318 13.5453 125.933 14.334C126.557 15.1227 127.043 16.1193 127.389 17.324C127.745 18.5287 127.922 19.9543 127.922 21.601ZM124.607 21.601C124.607 20.2403 124.508 19.1137 124.308 18.221C124.109 17.3283 123.84 16.6177 123.502 16.089C123.173 15.5603 122.792 15.192 122.358 14.984C121.925 14.7673 121.474 14.659 121.006 14.659C120.547 14.659 120.101 14.7673 119.667 14.984C119.243 15.192 118.866 15.5603 118.536 16.089C118.207 16.6177 117.943 17.3283 117.743 18.221C117.553 19.1137 117.457 20.2403 117.457 21.601C117.457 22.9617 117.553 24.0883 117.743 24.981C117.943 25.8737 118.207 26.5843 118.536 27.113C118.866 27.6417 119.243 28.0143 119.667 28.231C120.101 28.439 120.547 28.543 121.006 28.543C121.474 28.543 121.925 28.439 122.358 28.231C122.792 28.0143 123.173 27.6417 123.502 27.113C123.84 26.5843 124.109 25.8737 124.308 24.981C124.508 24.0883 124.607 22.9617 124.607 21.601ZM143.004 21.601C143.004 23.239 142.827 24.6647 142.471 25.878C142.125 27.0827 141.639 28.0793 141.015 28.868C140.4 29.6567 139.668 30.246 138.818 30.636C137.978 31.0173 137.068 31.208 136.088 31.208C135.109 31.208 134.199 31.0173 133.358 30.636C132.526 30.246 131.803 29.6567 131.187 28.868C130.572 28.0793 130.091 27.0827 129.744 25.878C129.398 24.6647 129.224 23.239 129.224 21.601C129.224 19.9543 129.398 18.5287 129.744 17.324C130.091 16.1193 130.572 15.1227 131.187 14.334C131.803 13.5453 132.526 12.9603 133.358 12.579C134.199 12.189 135.109 11.994 136.088 11.994C137.068 11.994 137.978 12.189 138.818 12.579C139.668 12.9603 140.4 13.5453 141.015 14.334C141.639 15.1227 142.125 16.1193 142.471 17.324C142.827 18.5287 143.004 19.9543 143.004 21.601ZM139.689 21.601C139.689 20.2403 139.59 19.1137 139.39 18.221C139.191 17.3283 138.922 16.6177 138.584 16.089C138.255 15.5603 137.874 15.192 137.44 14.984C137.007 14.7673 136.556 14.659 136.088 14.659C135.629 14.659 135.183 14.7673 134.749 14.984C134.325 15.192 133.948 15.5603 133.618 16.089C133.289 16.6177 133.025 17.3283 132.825 18.221C132.635 19.1137 132.539 20.2403 132.539 21.601C132.539 22.9617 132.635 24.0883 132.825 24.981C133.025 25.8737 133.289 26.5843 133.618 27.113C133.948 27.6417 134.325 28.0143 134.749 28.231C135.183 28.439 135.629 28.543 136.088 28.543C136.556 28.543 137.007 28.439 137.44 28.231C137.874 28.0143 138.255 27.6417 138.584 27.113C138.922 26.5843 139.191 25.8737 139.39 24.981C139.59 24.0883 139.689 22.9617 139.689 21.601ZM158.086 21.601C158.086 23.239 157.909 24.6647 157.553 25.878C157.207 27.0827 156.721 28.0793 156.097 28.868C155.482 29.6567 154.75 30.246 153.9 30.636C153.06 31.0173 152.15 31.208 151.17 31.208C150.191 31.208 149.281 31.0173 148.44 30.636C147.608 30.246 146.885 29.6567 146.269 28.868C145.654 28.0793 145.173 27.0827 144.826 25.878C144.48 24.6647 144.306 23.239 144.306 21.601C144.306 19.9543 144.48 18.5287 144.826 17.324C145.173 16.1193 145.654 15.1227 146.269 14.334C146.885 13.5453 147.608 12.9603 148.44 12.579C149.281 12.189 150.191 11.994 151.17 11.994C152.15 11.994 153.06 12.189 153.9 12.579C154.75 12.9603 155.482 13.5453 156.097 14.334C156.721 15.1227 157.207 16.1193 157.553 17.324C157.909 18.5287 158.086 19.9543 158.086 21.601ZM154.771 21.601C154.771 20.2403 154.672 19.1137 154.472 18.221C154.273 17.3283 154.004 16.6177 153.666 16.089C153.337 15.5603 152.956 15.192 152.522 14.984C152.089 14.7673 151.638 14.659 151.17 14.659C150.711 14.659 150.265 14.7673 149.831 14.984C149.407 15.192 149.03 15.5603 148.7 16.089C148.371 16.6177 148.107 17.3283 147.907 18.221C147.717 19.1137 147.621 20.2403 147.621 21.601C147.621 22.9617 147.717 24.0883 147.907 24.981C148.107 25.8737 148.371 26.5843 148.7 27.113C149.03 27.6417 149.407 28.0143 149.831 28.231C150.265 28.439 150.711 28.543 151.17 28.543C151.638 28.543 152.089 28.439 152.522 28.231C152.956 28.0143 153.337 27.6417 153.666 27.113C154.004 26.5843 154.273 25.8737 154.472 24.981C154.672 24.0883 154.771 22.9617 154.771 21.601ZM174.296 28.426C175.084 28.426 175.769 28.3567 176.35 28.218C176.939 28.0707 177.498 27.8713 178.027 27.62V24.201H175.674C175.448 24.201 175.271 24.1403 175.141 24.019C175.011 23.889 174.946 23.733 174.946 23.551V21.575H181.199V29.18C180.722 29.5267 180.224 29.83 179.704 30.09C179.192 30.3413 178.642 30.5493 178.053 30.714C177.472 30.8787 176.848 31 176.181 31.078C175.513 31.1647 174.794 31.208 174.023 31.208C172.653 31.208 171.392 30.9697 170.24 30.493C169.087 30.0163 168.09 29.3533 167.25 28.504C166.409 27.6547 165.75 26.6407 165.274 25.462C164.806 24.2833 164.572 22.9963 164.572 21.601C164.572 20.1883 164.801 18.8927 165.261 17.714C165.72 16.5353 166.37 15.5213 167.211 14.672C168.06 13.8227 169.087 13.164 170.292 12.696C171.496 12.228 172.848 11.994 174.348 11.994C175.882 11.994 177.208 12.2237 178.326 12.683C179.452 13.1337 180.406 13.723 181.186 14.451L180.172 16.037C179.972 16.3577 179.708 16.518 179.379 16.518C179.171 16.518 178.958 16.4487 178.742 16.31C178.464 16.1453 178.178 15.9807 177.884 15.816C177.598 15.6513 177.277 15.5083 176.922 15.387C176.575 15.2657 176.181 15.166 175.739 15.088C175.305 15.01 174.803 14.971 174.231 14.971C173.303 14.971 172.463 15.127 171.709 15.439C170.963 15.751 170.326 16.1973 169.798 16.778C169.269 17.3587 168.862 18.0563 168.576 18.871C168.29 19.6857 168.147 20.5957 168.147 21.601C168.147 22.6843 168.298 23.6507 168.602 24.5C168.905 25.3407 169.33 26.0513 169.876 26.632C170.422 27.2127 171.072 27.659 171.826 27.971C172.58 28.2743 173.403 28.426 174.296 28.426ZM187.69 17.662V31H184.479V17.662H187.69ZM188.171 13.775C188.171 14.0523 188.114 14.3123 188.002 14.555C187.889 14.7977 187.737 15.01 187.547 15.192C187.365 15.374 187.148 15.5213 186.897 15.634C186.645 15.738 186.377 15.79 186.091 15.79C185.813 15.79 185.549 15.738 185.298 15.634C185.055 15.5213 184.843 15.374 184.661 15.192C184.479 15.01 184.331 14.7977 184.219 14.555C184.115 14.3123 184.063 14.0523 184.063 13.775C184.063 13.489 184.115 13.2203 184.219 12.969C184.331 12.7177 184.479 12.501 184.661 12.319C184.843 12.137 185.055 11.994 185.298 11.89C185.549 11.7773 185.813 11.721 186.091 11.721C186.377 11.721 186.645 11.7773 186.897 11.89C187.148 11.994 187.365 12.137 187.547 12.319C187.737 12.501 187.889 12.7177 188.002 12.969C188.114 13.2203 188.171 13.489 188.171 13.775ZM195.944 17.428C196.516 17.428 197.054 17.4887 197.556 17.61C198.059 17.7227 198.518 17.8917 198.934 18.117H202.769V19.313C202.769 19.5123 202.717 19.6683 202.613 19.781C202.509 19.8937 202.332 19.9717 202.08 20.015L200.884 20.236C200.971 20.4613 201.036 20.6997 201.079 20.951C201.131 21.2023 201.157 21.4667 201.157 21.744C201.157 22.4027 201.023 23.0007 200.754 23.538C200.494 24.0667 200.13 24.5173 199.662 24.89C199.203 25.2627 198.653 25.553 198.011 25.761C197.379 25.9603 196.69 26.06 195.944 26.06C195.442 26.06 194.952 26.0123 194.475 25.917C194.059 26.1683 193.851 26.45 193.851 26.762C193.851 27.0307 193.973 27.23 194.215 27.36C194.467 27.4813 194.792 27.568 195.19 27.62C195.598 27.672 196.057 27.7067 196.568 27.724C197.08 27.7327 197.604 27.7587 198.141 27.802C198.679 27.8453 199.203 27.9233 199.714 28.036C200.226 28.14 200.681 28.309 201.079 28.543C201.487 28.777 201.812 29.0977 202.054 29.505C202.306 29.9037 202.431 30.4193 202.431 31.052C202.431 31.6413 202.284 32.2133 201.989 32.768C201.703 33.3227 201.283 33.8167 200.728 34.25C200.182 34.6833 199.511 35.03 198.713 35.29C197.916 35.5587 197.006 35.693 195.983 35.693C194.969 35.693 194.09 35.5933 193.344 35.394C192.599 35.2033 191.979 34.9433 191.485 34.614C191 34.2933 190.636 33.9207 190.393 33.496C190.151 33.0713 190.029 32.6293 190.029 32.17C190.029 31.546 190.22 31.0217 190.601 30.597C190.983 30.1723 191.511 29.8343 192.187 29.583C191.858 29.401 191.594 29.1583 191.394 28.855C191.195 28.5517 191.095 28.1573 191.095 27.672C191.095 27.4727 191.13 27.269 191.199 27.061C191.269 26.8443 191.373 26.632 191.511 26.424C191.659 26.216 191.841 26.021 192.057 25.839C192.274 25.6483 192.53 25.4793 192.824 25.332C192.148 24.968 191.615 24.4827 191.225 23.876C190.844 23.2693 190.653 22.5587 190.653 21.744C190.653 21.0853 190.783 20.4917 191.043 19.963C191.312 19.4257 191.68 18.9707 192.148 18.598C192.625 18.2167 193.184 17.9263 193.825 17.727C194.475 17.5277 195.182 17.428 195.944 17.428ZM199.467 31.598C199.467 31.338 199.389 31.1257 199.233 30.961C199.077 30.7963 198.865 30.6707 198.596 30.584C198.328 30.4887 198.011 30.4193 197.647 30.376C197.292 30.3327 196.911 30.3023 196.503 30.285C196.105 30.259 195.689 30.2373 195.255 30.22C194.831 30.194 194.419 30.155 194.02 30.103C193.656 30.3023 193.362 30.5407 193.136 30.818C192.92 31.0867 192.811 31.3987 192.811 31.754C192.811 31.988 192.868 32.2047 192.98 32.404C193.102 32.612 193.288 32.7897 193.539 32.937C193.799 33.0843 194.133 33.197 194.54 33.275C194.948 33.3617 195.446 33.405 196.035 33.405C196.633 33.405 197.149 33.3573 197.582 33.262C198.016 33.1753 198.371 33.0497 198.648 32.885C198.934 32.729 199.142 32.5383 199.272 32.313C199.402 32.0963 199.467 31.858 199.467 31.598ZM195.944 24.006C196.343 24.006 196.69 23.954 196.984 23.85C197.279 23.7373 197.522 23.5857 197.712 23.395C197.912 23.2043 198.059 22.9747 198.154 22.706C198.258 22.4373 198.31 22.1427 198.31 21.822C198.31 21.1633 198.111 20.6433 197.712 20.262C197.322 19.872 196.733 19.677 195.944 19.677C195.156 19.677 194.562 19.872 194.163 20.262C193.773 20.6433 193.578 21.1633 193.578 21.822C193.578 22.134 193.626 22.4243 193.721 22.693C193.825 22.9617 193.973 23.1957 194.163 23.395C194.363 23.5857 194.61 23.7373 194.904 23.85C195.208 23.954 195.554 24.006 195.944 24.006ZM215.238 31H213.795C213.492 31 213.254 30.9567 213.08 30.87C212.907 30.7747 212.777 30.5883 212.69 30.311L212.404 29.362C212.066 29.6653 211.733 29.934 211.403 30.168C211.083 30.3933 210.749 30.584 210.402 30.74C210.056 30.896 209.687 31.013 209.297 31.091C208.907 31.169 208.474 31.208 207.997 31.208C207.434 31.208 206.914 31.1343 206.437 30.987C205.961 30.831 205.549 30.6013 205.202 30.298C204.864 29.9947 204.6 29.6177 204.409 29.167C204.219 28.7163 204.123 28.192 204.123 27.594C204.123 27.0913 204.253 26.5973 204.513 26.112C204.782 25.618 205.224 25.176 205.839 24.786C206.455 24.3873 207.274 24.058 208.296 23.798C209.319 23.538 210.589 23.3907 212.105 23.356V22.576C212.105 21.6833 211.915 21.0247 211.533 20.6C211.161 20.1667 210.615 19.95 209.895 19.95C209.375 19.95 208.942 20.0107 208.595 20.132C208.249 20.2533 207.945 20.392 207.685 20.548C207.434 20.6953 207.2 20.8297 206.983 20.951C206.767 21.0723 206.528 21.133 206.268 21.133C206.052 21.133 205.865 21.0767 205.709 20.964C205.553 20.8513 205.428 20.7127 205.332 20.548L204.747 19.521C206.281 18.117 208.132 17.415 210.298 17.415C211.078 17.415 211.772 17.545 212.378 17.805C212.994 18.0563 213.514 18.4117 213.938 18.871C214.363 19.3217 214.684 19.8633 214.9 20.496C215.126 21.1287 215.238 21.822 215.238 22.576V31ZM208.998 28.998C209.328 28.998 209.631 28.9677 209.908 28.907C210.186 28.8463 210.446 28.7553 210.688 28.634C210.94 28.5127 211.178 28.3653 211.403 28.192C211.637 28.01 211.871 27.7977 212.105 27.555V25.306C211.169 25.3493 210.385 25.4317 209.752 25.553C209.128 25.6657 208.626 25.813 208.244 25.995C207.863 26.177 207.59 26.3893 207.425 26.632C207.269 26.8747 207.191 27.139 207.191 27.425C207.191 27.9883 207.356 28.3913 207.685 28.634C208.023 28.8767 208.461 28.998 208.998 28.998ZM216.836 12.202H219.774C220.077 12.202 220.328 12.2757 220.528 12.423C220.736 12.5617 220.874 12.7523 220.944 12.995L224.142 24.24C224.22 24.5173 224.289 24.8207 224.35 25.15C224.419 25.4707 224.484 25.813 224.545 26.177C224.614 25.813 224.688 25.4707 224.766 25.15C224.852 24.8207 224.943 24.5173 225.039 24.24L228.731 12.995C228.8 12.7957 228.934 12.6137 229.134 12.449C229.342 12.2843 229.593 12.202 229.888 12.202H230.915C231.218 12.202 231.469 12.2757 231.669 12.423C231.868 12.5617 232.007 12.7523 232.085 12.995L235.751 24.24C235.941 24.7947 236.106 25.41 236.245 26.086C236.305 25.748 236.366 25.423 236.427 25.111C236.496 24.799 236.565 24.5087 236.635 24.24L239.833 12.995C239.893 12.7783 240.028 12.592 240.236 12.436C240.444 12.28 240.695 12.202 240.99 12.202H243.733L237.896 31H234.737L230.629 18.156C230.577 17.9913 230.52 17.8137 230.46 17.623C230.408 17.4323 230.356 17.2287 230.304 17.012C230.252 17.2287 230.195 17.4323 230.135 17.623C230.083 17.8137 230.031 17.9913 229.979 18.156L225.832 31H222.673L216.836 12.202ZM254.772 31H253.329C253.025 31 252.787 30.9567 252.614 30.87C252.44 30.7747 252.31 30.5883 252.224 30.311L251.938 29.362C251.6 29.6653 251.266 29.934 250.937 30.168C250.616 30.3933 250.282 30.584 249.936 30.74C249.589 30.896 249.221 31.013 248.831 31.091C248.441 31.169 248.007 31.208 247.531 31.208C246.967 31.208 246.447 31.1343 245.971 30.987C245.494 30.831 245.082 30.6013 244.736 30.298C244.398 29.9947 244.133 29.6177 243.943 29.167C243.752 28.7163 243.657 28.192 243.657 27.594C243.657 27.0913 243.787 26.5973 244.047 26.112C244.315 25.618 244.757 25.176 245.373 24.786C245.988 24.3873 246.807 24.058 247.83 23.798C248.852 23.538 250.122 23.3907 251.639 23.356V22.576C251.639 21.6833 251.448 21.0247 251.067 20.6C250.694 20.1667 250.148 19.95 249.429 19.95C248.909 19.95 248.475 20.0107 248.129 20.132C247.782 20.2533 247.479 20.392 247.219 20.548C246.967 20.6953 246.733 20.8297 246.517 20.951C246.3 21.0723 246.062 21.133 245.802 21.133C245.585 21.133 245.399 21.0767 245.243 20.964C245.087 20.8513 244.961 20.7127 244.866 20.548L244.281 19.521C245.815 18.117 247.665 17.415 249.832 17.415C250.612 17.415 251.305 17.545 251.912 17.805C252.527 18.0563 253.047 18.4117 253.472 18.871C253.896 19.3217 254.217 19.8633 254.434 20.496C254.659 21.1287 254.772 21.822 254.772 22.576V31ZM248.532 28.998C248.861 28.998 249.164 28.9677 249.442 28.907C249.719 28.8463 249.979 28.7553 250.222 28.634C250.473 28.5127 250.711 28.3653 250.937 28.192C251.171 28.01 251.405 27.7977 251.639 27.555V25.306C250.703 25.3493 249.918 25.4317 249.286 25.553C248.662 25.6657 248.159 25.813 247.778 25.995C247.396 26.177 247.123 26.3893 246.959 26.632C246.803 26.8747 246.725 27.139 246.725 27.425C246.725 27.9883 246.889 28.3913 247.219 28.634C247.557 28.8767 247.994 28.998 248.532 28.998ZM262.31 31.208C261.157 31.208 260.269 30.883 259.645 30.233C259.021 29.5743 258.709 28.6687 258.709 27.516V20.067H257.357C257.184 20.067 257.032 20.0107 256.902 19.898C256.781 19.7853 256.72 19.6163 256.72 19.391V18.117L258.865 17.766L259.541 14.126C259.576 13.9527 259.654 13.8183 259.775 13.723C259.905 13.6277 260.065 13.58 260.256 13.58H261.92V17.779H265.43V20.067H261.92V27.295C261.92 27.711 262.024 28.036 262.232 28.27C262.44 28.504 262.717 28.621 263.064 28.621C263.263 28.621 263.428 28.5993 263.558 28.556C263.697 28.504 263.814 28.452 263.909 28.4C264.013 28.348 264.104 28.3003 264.182 28.257C264.26 28.205 264.338 28.179 264.416 28.179C264.511 28.179 264.589 28.205 264.65 28.257C264.711 28.3003 264.776 28.3697 264.845 28.465L265.807 30.025C265.339 30.415 264.802 30.7097 264.195 30.909C263.588 31.1083 262.96 31.208 262.31 31.208ZM272.365 31.208C271.212 31.208 270.324 30.883 269.7 30.233C269.076 29.5743 268.764 28.6687 268.764 27.516V20.067H267.412C267.238 20.067 267.087 20.0107 266.957 19.898C266.835 19.7853 266.775 19.6163 266.775 19.391V18.117L268.92 17.766L269.596 14.126C269.63 13.9527 269.708 13.8183 269.83 13.723C269.96 13.6277 270.12 13.58 270.311 13.58H271.975V17.779H275.485V20.067H271.975V27.295C271.975 27.711 272.079 28.036 272.287 28.27C272.495 28.504 272.772 28.621 273.119 28.621C273.318 28.621 273.483 28.5993 273.613 28.556C273.751 28.504 273.868 28.452 273.964 28.4C274.068 28.348 274.159 28.3003 274.237 28.257C274.315 28.205 274.393 28.179 274.471 28.179C274.566 28.179 274.644 28.205 274.705 28.257C274.765 28.3003 274.83 28.3697 274.9 28.465L275.862 30.025C275.394 30.415 274.856 30.7097 274.25 30.909C273.643 31.1083 273.015 31.208 272.365 31.208ZM285.955 20.262C285.869 20.4007 285.778 20.5003 285.682 20.561C285.587 20.613 285.466 20.639 285.318 20.639C285.162 20.639 284.993 20.5957 284.811 20.509C284.638 20.4223 284.434 20.327 284.2 20.223C283.966 20.1103 283.698 20.0107 283.394 19.924C283.1 19.8373 282.749 19.794 282.341 19.794C281.709 19.794 281.21 19.9283 280.846 20.197C280.482 20.4657 280.3 20.8167 280.3 21.25C280.3 21.536 280.391 21.7787 280.573 21.978C280.764 22.1687 281.011 22.3377 281.314 22.485C281.626 22.6323 281.977 22.7667 282.367 22.888C282.757 23.0007 283.156 23.1263 283.563 23.265C283.971 23.4037 284.369 23.564 284.759 23.746C285.149 23.9193 285.496 24.1447 285.799 24.422C286.111 24.6907 286.358 25.0157 286.54 25.397C286.731 25.7783 286.826 26.2377 286.826 26.775C286.826 27.4163 286.709 28.01 286.475 28.556C286.241 29.0933 285.899 29.5613 285.448 29.96C284.998 30.35 284.439 30.6577 283.771 30.883C283.113 31.0997 282.354 31.208 281.496 31.208C281.037 31.208 280.586 31.1647 280.144 31.078C279.711 31 279.291 30.8873 278.883 30.74C278.485 30.5927 278.112 30.4193 277.765 30.22C277.427 30.0207 277.128 29.804 276.868 29.57L277.609 28.348C277.705 28.2007 277.817 28.088 277.947 28.01C278.077 27.932 278.242 27.893 278.441 27.893C278.641 27.893 278.827 27.9493 279 28.062C279.182 28.1747 279.39 28.296 279.624 28.426C279.858 28.556 280.131 28.6773 280.443 28.79C280.764 28.9027 281.167 28.959 281.652 28.959C282.034 28.959 282.359 28.9157 282.627 28.829C282.905 28.7337 283.13 28.6123 283.303 28.465C283.485 28.3177 283.615 28.1487 283.693 27.958C283.78 27.7587 283.823 27.555 283.823 27.347C283.823 27.035 283.728 26.7793 283.537 26.58C283.355 26.3807 283.108 26.2073 282.796 26.06C282.493 25.9127 282.142 25.7827 281.743 25.67C281.353 25.5487 280.95 25.4187 280.534 25.28C280.127 25.1413 279.724 24.981 279.325 24.799C278.935 24.6083 278.584 24.37 278.272 24.084C277.969 23.798 277.722 23.447 277.531 23.031C277.349 22.615 277.258 22.1123 277.258 21.523C277.258 20.977 277.367 20.457 277.583 19.963C277.8 19.469 278.116 19.04 278.532 18.676C278.957 18.3033 279.481 18.0087 280.105 17.792C280.738 17.5667 281.466 17.454 282.289 17.454C283.208 17.454 284.044 17.6057 284.798 17.909C285.552 18.2123 286.181 18.611 286.683 19.105L285.955 20.262Z" fill="#393939"/>
</svg>
