<svg width="342" height="449" viewBox="0 0 342 449" fill="none" xmlns="http://www.w3.org/2000/svg">
<path d="M8.33947 108.933L4.36892 119.77C3.58472 121.91 6.41834 123.486 7.82243 121.69L24.41 100.474C25.4365 99.1615 24.501 97.2426 22.8344 97.2426H20.323C18.7976 97.2426 17.8337 95.6034 18.5752 94.2703L25.2835 82.211C26.025 80.8779 25.0612 79.2388 23.5357 79.2388H10.7496C9.89662 79.2388 9.13751 79.7798 8.85912 80.586L0.915911 103.592C0.467441 104.891 1.43226 106.244 2.8064 106.244H6.46154C7.85152 106.244 8.81764 107.627 8.33947 108.933Z" fill="#E4C55A" stroke="#393939" stroke-width="1.3" stroke-linejoin="round"/>
<path d="M39.5289 108.933L35.5584 119.77C34.7742 121.91 37.6078 123.486 39.0119 121.69L55.5994 100.474C56.626 99.1615 55.6905 97.2426 54.0238 97.2426H51.5125C49.987 97.2426 49.0231 95.6034 49.7647 94.2703L56.4729 82.211C57.2145 80.8779 56.2506 79.2388 54.7252 79.2388H41.9391C41.0861 79.2388 40.327 79.7798 40.0486 80.586L32.1054 103.592C31.6569 104.891 32.6217 106.244 33.9958 106.244H37.651C39.041 106.244 40.0071 107.627 39.5289 108.933Z" fill="#E4C55A" stroke="#393939" stroke-width="1.3" stroke-linejoin="round"/>
<path d="M71.192 108.933L67.2215 119.77C66.4373 121.91 69.2709 123.486 70.675 121.69L87.2625 100.474C88.2891 99.1615 87.3536 97.2426 85.6869 97.2426H83.1756C81.6501 97.2426 80.6862 95.6034 81.4278 94.2703L88.136 82.211C88.8776 80.8779 87.9137 79.2388 86.3882 79.2388H73.6021C72.7492 79.2388 71.99 79.7798 71.7117 80.586L63.7685 103.592C63.32 104.891 64.2848 106.244 65.6589 106.244H69.3141C70.7041 106.244 71.6702 107.627 71.192 108.933Z" fill="#E4C55A" stroke="#393939" stroke-width="1.3" stroke-linejoin="round"/>
<path d="M102.382 108.933L98.4119 119.77C97.6277 121.91 100.461 123.486 101.865 121.69L118.453 100.474C119.479 99.1615 118.544 97.2426 116.877 97.2426H114.366C112.841 97.2426 111.877 95.6034 112.618 94.2703L119.326 82.211C120.068 80.8779 119.104 79.2388 117.579 79.2388H104.793C103.94 79.2388 103.18 79.7798 102.902 80.586L94.9589 103.592C94.5104 104.891 95.4752 106.244 96.8494 106.244H100.505C101.894 106.244 102.861 107.627 102.382 108.933Z" fill="#E4C55A" stroke="#393939" stroke-width="1.3" stroke-linejoin="round"/>
<path d="M134.045 108.933L130.074 119.77C129.29 121.91 132.123 123.486 133.528 121.69L150.115 100.474C151.142 99.1615 150.206 97.2426 148.539 97.2426H146.028C144.503 97.2426 143.539 95.6034 144.28 94.2703L150.989 82.211C151.73 80.8779 150.766 79.2388 149.241 79.2388H136.455C135.602 79.2388 134.843 79.7798 134.564 80.586L126.621 103.592C126.173 104.891 127.137 106.244 128.511 106.244H132.167C133.557 106.244 134.523 107.627 134.045 108.933Z" fill="#E4C55A" stroke="#393939" stroke-width="1.3" stroke-linejoin="round"/>
<path d="M165.234 108.933L161.263 119.77C160.479 121.91 163.313 123.486 164.717 121.69L181.304 100.474C182.331 99.1615 181.396 97.2426 179.729 97.2426H177.218C175.692 97.2426 174.728 95.6034 175.47 94.2703L182.178 82.211C182.92 80.8779 181.956 79.2388 180.43 79.2388H167.644C166.791 79.2388 166.032 79.7798 165.754 80.586L157.81 103.592C157.362 104.891 158.327 106.244 159.701 106.244H163.356C164.746 106.244 165.712 107.627 165.234 108.933Z" fill="#E4C55A" stroke="#393939" stroke-width="1.3" stroke-linejoin="round"/>
<path d="M196.897 108.933L192.927 119.77C192.142 121.91 194.976 123.486 196.38 121.69L212.968 100.474C213.994 99.1615 213.059 97.2426 211.392 97.2426H208.881C207.355 97.2426 206.391 95.6034 207.133 94.2703L213.841 82.211C214.583 80.8779 213.619 79.2388 212.093 79.2388H199.307C198.454 79.2388 197.695 79.7798 197.417 80.586L189.474 103.592C189.025 104.891 189.99 106.244 191.364 106.244H195.019C196.409 106.244 197.375 107.627 196.897 108.933Z" fill="#E4C55A" stroke="#393939" stroke-width="1.3" stroke-linejoin="round"/>
<path d="M228.56 108.933L224.59 119.77C223.805 121.91 226.639 123.486 228.043 121.69L244.631 100.474C245.657 99.1615 244.722 97.2426 243.055 97.2426H240.544C239.018 97.2426 238.054 95.6034 238.796 94.2703L245.504 82.211C246.246 80.8779 245.282 79.2388 243.756 79.2388H230.97C230.117 79.2388 229.358 79.7798 229.08 80.586L221.137 103.592C220.688 104.891 221.653 106.244 223.027 106.244H226.682C228.072 106.244 229.038 107.627 228.56 108.933Z" fill="#E4C55A" stroke="#393939" stroke-width="1.3" stroke-linejoin="round"/>
<path d="M260.222 108.933L256.252 119.77C255.468 121.91 258.301 123.486 259.705 121.69L276.293 100.474C277.319 99.1615 276.384 97.2426 274.717 97.2426H272.206C270.68 97.2426 269.716 95.6034 270.458 94.2703L277.166 82.211C277.908 80.8779 276.944 79.2388 275.419 79.2388H262.632C261.779 79.2388 261.02 79.7798 260.742 80.586L252.799 103.592C252.35 104.891 253.315 106.244 254.689 106.244H258.344C259.734 106.244 260.7 107.627 260.222 108.933Z" fill="#E4C55A" stroke="#393939" stroke-width="1.3" stroke-linejoin="round"/>
<path d="M291.884 108.933L287.914 119.77C287.13 121.91 289.963 123.486 291.367 121.69L307.955 100.474C308.981 99.1615 308.046 97.2426 306.379 97.2426H303.868C302.342 97.2426 301.379 95.6034 302.12 94.2703L308.828 82.211C309.57 80.8779 308.606 79.2388 307.081 79.2388H294.295C293.442 79.2388 292.682 79.7798 292.404 80.586L284.461 103.592C284.012 104.891 284.977 106.244 286.351 106.244H290.006C291.396 106.244 292.363 107.627 291.884 108.933Z" fill="#E4C55A" stroke="#393939" stroke-width="1.3" stroke-linejoin="round"/>
<path d="M323.076 108.933L319.105 119.77C318.321 121.91 321.155 123.486 322.559 121.69L339.146 100.474C340.173 99.1615 339.237 97.2426 337.571 97.2426H335.059C333.534 97.2426 332.57 95.6034 333.312 94.2703L340.02 82.211C340.761 80.8779 339.797 79.2388 338.272 79.2388H325.486C324.633 79.2388 323.874 79.7798 323.595 80.586L315.652 103.592C315.204 104.891 316.169 106.244 317.543 106.244H321.198C322.588 106.244 323.554 107.627 323.076 108.933Z" fill="#E4C55A" stroke="#393939" stroke-width="1.3" stroke-linejoin="round"/>
<path d="M8.33947 161.389L4.36892 172.226C3.58472 174.366 6.41834 175.942 7.82243 174.146L24.41 152.931C25.4365 151.618 24.501 149.699 22.8344 149.699H20.323C18.7976 149.699 17.8337 148.059 18.5752 146.726L25.2835 134.667C26.025 133.334 25.0612 131.695 23.5357 131.695H10.7496C9.89662 131.695 9.13751 132.236 8.85912 133.042L0.915911 156.048C0.467441 157.347 1.43226 158.701 2.8064 158.701H6.46154C7.85152 158.701 8.81764 160.083 8.33947 161.389Z" fill="#E4C55A" stroke="#393939" stroke-width="1.3" stroke-linejoin="round"/>
<path d="M39.5289 161.389L35.5584 172.226C34.7742 174.366 37.6078 175.942 39.0119 174.146L55.5994 152.931C56.626 151.618 55.6905 149.699 54.0238 149.699H51.5125C49.987 149.699 49.0231 148.059 49.7647 146.726L56.4729 134.667C57.2145 133.334 56.2506 131.695 54.7252 131.695H41.9391C41.0861 131.695 40.327 132.236 40.0486 133.042L32.1054 156.048C31.6569 157.347 32.6217 158.701 33.9958 158.701H37.651C39.041 158.701 40.0071 160.083 39.5289 161.389Z" fill="#E4C55A" stroke="#393939" stroke-width="1.3" stroke-linejoin="round"/>
<path d="M71.192 161.389L67.2215 172.226C66.4373 174.366 69.2709 175.942 70.675 174.146L87.2625 152.931C88.2891 151.618 87.3536 149.699 85.6869 149.699H83.1756C81.6501 149.699 80.6862 148.059 81.4278 146.726L88.136 134.667C88.8776 133.334 87.9137 131.695 86.3882 131.695H73.6021C72.7492 131.695 71.99 132.236 71.7117 133.042L63.7685 156.048C63.32 157.347 64.2848 158.701 65.6589 158.701H69.3141C70.7041 158.701 71.6702 160.083 71.192 161.389Z" fill="#E4C55A" stroke="#393939" stroke-width="1.3" stroke-linejoin="round"/>
<path d="M102.382 161.389L98.4119 172.226C97.6277 174.366 100.461 175.942 101.865 174.146L118.453 152.931C119.479 151.618 118.544 149.699 116.877 149.699H114.366C112.841 149.699 111.877 148.059 112.618 146.726L119.326 134.667C120.068 133.334 119.104 131.695 117.579 131.695H104.793C103.94 131.695 103.18 132.236 102.902 133.042L94.9589 156.048C94.5104 157.347 95.4752 158.701 96.8494 158.701H100.505C101.894 158.701 102.861 160.083 102.382 161.389Z" fill="#E4C55A" stroke="#393939" stroke-width="1.3" stroke-linejoin="round"/>
<path d="M134.045 161.389L130.074 172.226C129.29 174.366 132.123 175.942 133.528 174.146L150.115 152.931C151.142 151.618 150.206 149.699 148.539 149.699H146.028C144.503 149.699 143.539 148.059 144.28 146.726L150.989 134.667C151.73 133.334 150.766 131.695 149.241 131.695H136.455C135.602 131.695 134.843 132.236 134.564 133.042L126.621 156.048C126.173 157.347 127.137 158.701 128.511 158.701H132.167C133.557 158.701 134.523 160.083 134.045 161.389Z" fill="#E4C55A" stroke="#393939" stroke-width="1.3" stroke-linejoin="round"/>
<path d="M165.234 161.389L161.263 172.226C160.479 174.366 163.313 175.942 164.717 174.146L181.304 152.931C182.331 151.618 181.396 149.699 179.729 149.699H177.218C175.692 149.699 174.728 148.059 175.47 146.726L182.178 134.667C182.92 133.334 181.956 131.695 180.43 131.695H167.644C166.791 131.695 166.032 132.236 165.754 133.042L157.81 156.048C157.362 157.347 158.327 158.701 159.701 158.701H163.356C164.746 158.701 165.712 160.083 165.234 161.389Z" fill="#E4C55A" stroke="#393939" stroke-width="1.3" stroke-linejoin="round"/>
<path d="M196.897 161.389L192.927 172.226C192.142 174.366 194.976 175.942 196.38 174.146L212.968 152.931C213.994 151.618 213.059 149.699 211.392 149.699H208.881C207.355 149.699 206.391 148.059 207.133 146.726L213.841 134.667C214.583 133.334 213.619 131.695 212.093 131.695H199.307C198.454 131.695 197.695 132.236 197.417 133.042L189.474 156.048C189.025 157.347 189.99 158.701 191.364 158.701H195.019C196.409 158.701 197.375 160.083 196.897 161.389Z" fill="#E4C55A" stroke="#393939" stroke-width="1.3" stroke-linejoin="round"/>
<path d="M228.56 161.389L224.59 172.226C223.805 174.366 226.639 175.942 228.043 174.146L244.631 152.931C245.657 151.618 244.722 149.699 243.055 149.699H240.544C239.018 149.699 238.054 148.059 238.796 146.726L245.504 134.667C246.246 133.334 245.282 131.695 243.756 131.695H230.97C230.117 131.695 229.358 132.236 229.08 133.042L221.137 156.048C220.688 157.347 221.653 158.701 223.027 158.701H226.682C228.072 158.701 229.038 160.083 228.56 161.389Z" fill="#E4C55A" stroke="#393939" stroke-width="1.3" stroke-linejoin="round"/>
<path d="M260.222 161.389L256.252 172.226C255.468 174.366 258.301 175.942 259.705 174.146L276.293 152.931C277.319 151.618 276.384 149.699 274.717 149.699H272.206C270.68 149.699 269.716 148.059 270.458 146.726L277.166 134.667C277.908 133.334 276.944 131.695 275.419 131.695H262.632C261.779 131.695 261.02 132.236 260.742 133.042L252.799 156.048C252.35 157.347 253.315 158.701 254.689 158.701H258.344C259.734 158.701 260.7 160.083 260.222 161.389Z" fill="#E4C55A" stroke="#393939" stroke-width="1.3" stroke-linejoin="round"/>
<path d="M291.884 161.389L287.914 172.226C287.13 174.366 289.963 175.942 291.367 174.146L307.955 152.931C308.981 151.618 308.046 149.699 306.379 149.699H303.868C302.342 149.699 301.379 148.059 302.12 146.726L308.828 134.667C309.57 133.334 308.606 131.695 307.081 131.695H294.295C293.442 131.695 292.682 132.236 292.404 133.042L284.461 156.048C284.012 157.347 284.977 158.701 286.351 158.701H290.006C291.396 158.701 292.363 160.083 291.884 161.389Z" fill="#E4C55A" stroke="#393939" stroke-width="1.3" stroke-linejoin="round"/>
<path d="M323.076 161.389L319.105 172.226C318.321 174.366 321.155 175.942 322.559 174.146L339.146 152.931C340.173 151.618 339.237 149.699 337.571 149.699H335.059C333.534 149.699 332.57 148.059 333.312 146.726L340.02 134.667C340.761 133.334 339.797 131.695 338.272 131.695H325.486C324.633 131.695 323.874 132.236 323.595 133.042L315.652 156.048C315.204 157.347 316.169 158.701 317.543 158.701H321.198C322.588 158.701 323.554 160.083 323.076 161.389Z" fill="#E4C55A" stroke="#393939" stroke-width="1.3" stroke-linejoin="round"/>
<path d="M8.33947 213.845L4.36892 224.682C3.58472 226.823 6.41834 228.398 7.82243 226.602L24.41 205.387C25.4365 204.074 24.501 202.155 22.8344 202.155H20.323C18.7976 202.155 17.8337 200.516 18.5752 199.182L25.2835 187.123C26.025 185.79 25.0612 184.151 23.5357 184.151H10.7496C9.89662 184.151 9.13751 184.692 8.85912 185.498L0.915911 208.504C0.467441 209.803 1.43226 211.157 2.8064 211.157H6.46154C7.85152 211.157 8.81764 212.539 8.33947 213.845Z" fill="#E4C55A" stroke="#393939" stroke-width="1.3" stroke-linejoin="round"/>
<path d="M39.5289 213.845L35.5584 224.682C34.7742 226.823 37.6078 228.398 39.0119 226.602L55.5994 205.387C56.626 204.074 55.6905 202.155 54.0238 202.155H51.5125C49.987 202.155 49.0231 200.516 49.7647 199.182L56.4729 187.123C57.2145 185.79 56.2506 184.151 54.7252 184.151H41.9391C41.0861 184.151 40.327 184.692 40.0486 185.498L32.1054 208.504C31.6569 209.803 32.6217 211.157 33.9958 211.157H37.651C39.041 211.157 40.0071 212.539 39.5289 213.845Z" fill="#E4C55A" stroke="#393939" stroke-width="1.3" stroke-linejoin="round"/>
<path d="M71.192 213.845L67.2215 224.682C66.4373 226.823 69.2709 228.398 70.675 226.602L87.2625 205.387C88.2891 204.074 87.3536 202.155 85.6869 202.155H83.1756C81.6501 202.155 80.6862 200.516 81.4278 199.182L88.136 187.123C88.8776 185.79 87.9137 184.151 86.3882 184.151H73.6021C72.7492 184.151 71.99 184.692 71.7117 185.498L63.7685 208.504C63.32 209.803 64.2848 211.157 65.6589 211.157H69.3141C70.7041 211.157 71.6702 212.539 71.192 213.845Z" fill="#E4C55A" stroke="#393939" stroke-width="1.3" stroke-linejoin="round"/>
<path d="M102.382 213.845L98.4119 224.682C97.6277 226.823 100.461 228.398 101.865 226.602L118.453 205.387C119.479 204.074 118.544 202.155 116.877 202.155H114.366C112.841 202.155 111.877 200.516 112.618 199.182L119.326 187.123C120.068 185.79 119.104 184.151 117.579 184.151H104.793C103.94 184.151 103.18 184.692 102.902 185.498L94.9589 208.504C94.5104 209.803 95.4752 211.157 96.8494 211.157H100.505C101.894 211.157 102.861 212.539 102.382 213.845Z" fill="#E4C55A" stroke="#393939" stroke-width="1.3" stroke-linejoin="round"/>
<path d="M134.045 213.845L130.074 224.682C129.29 226.823 132.123 228.398 133.528 226.602L150.115 205.387C151.142 204.074 150.206 202.155 148.539 202.155H146.028C144.503 202.155 143.539 200.516 144.28 199.182L150.989 187.123C151.73 185.79 150.766 184.151 149.241 184.151H136.455C135.602 184.151 134.843 184.692 134.564 185.498L126.621 208.504C126.173 209.803 127.137 211.157 128.511 211.157H132.167C133.557 211.157 134.523 212.539 134.045 213.845Z" fill="#E4C55A" stroke="#393939" stroke-width="1.3" stroke-linejoin="round"/>
<path d="M165.234 213.845L161.263 224.682C160.479 226.823 163.313 228.398 164.717 226.602L181.304 205.387C182.331 204.074 181.396 202.155 179.729 202.155H177.218C175.692 202.155 174.728 200.516 175.47 199.182L182.178 187.123C182.92 185.79 181.956 184.151 180.43 184.151H167.644C166.791 184.151 166.032 184.692 165.754 185.498L157.81 208.504C157.362 209.803 158.327 211.157 159.701 211.157H163.356C164.746 211.157 165.712 212.539 165.234 213.845Z" fill="#E4C55A" stroke="#393939" stroke-width="1.3" stroke-linejoin="round"/>
<path d="M196.897 213.845L192.927 224.682C192.142 226.823 194.976 228.398 196.38 226.602L212.968 205.387C213.994 204.074 213.059 202.155 211.392 202.155H208.881C207.355 202.155 206.391 200.516 207.133 199.182L213.841 187.123C214.583 185.79 213.619 184.151 212.093 184.151H199.307C198.454 184.151 197.695 184.692 197.417 185.498L189.474 208.504C189.025 209.803 189.99 211.157 191.364 211.157H195.019C196.409 211.157 197.375 212.539 196.897 213.845Z" fill="#E4C55A" stroke="#393939" stroke-width="1.3" stroke-linejoin="round"/>
<path d="M228.56 213.845L224.59 224.682C223.805 226.823 226.639 228.398 228.043 226.602L244.631 205.387C245.657 204.074 244.722 202.155 243.055 202.155H240.544C239.018 202.155 238.054 200.516 238.796 199.182L245.504 187.123C246.246 185.79 245.282 184.151 243.756 184.151H230.97C230.117 184.151 229.358 184.692 229.08 185.498L221.137 208.504C220.688 209.803 221.653 211.157 223.027 211.157H226.682C228.072 211.157 229.038 212.539 228.56 213.845Z" fill="#E4C55A" stroke="#393939" stroke-width="1.3" stroke-linejoin="round"/>
<path d="M260.222 213.845L256.252 224.682C255.468 226.823 258.301 228.398 259.705 226.602L276.293 205.387C277.319 204.074 276.384 202.155 274.717 202.155H272.206C270.68 202.155 269.716 200.516 270.458 199.182L277.166 187.123C277.908 185.79 276.944 184.151 275.419 184.151H262.632C261.779 184.151 261.02 184.692 260.742 185.498L252.799 208.504C252.35 209.803 253.315 211.157 254.689 211.157H258.344C259.734 211.157 260.7 212.539 260.222 213.845Z" fill="#E4C55A" stroke="#393939" stroke-width="1.3" stroke-linejoin="round"/>
<path d="M291.884 213.845L287.914 224.682C287.13 226.823 289.963 228.398 291.367 226.602L307.955 205.387C308.981 204.074 308.046 202.155 306.379 202.155H303.868C302.342 202.155 301.379 200.516 302.12 199.182L308.828 187.123C309.57 185.79 308.606 184.151 307.081 184.151H294.295C293.442 184.151 292.682 184.692 292.404 185.498L284.461 208.504C284.012 209.803 284.977 211.157 286.351 211.157H290.006C291.396 211.157 292.363 212.539 291.884 213.845Z" fill="#E4C55A" stroke="#393939" stroke-width="1.3" stroke-linejoin="round"/>
<path d="M323.076 213.845L319.105 224.682C318.321 226.823 321.155 228.398 322.559 226.602L339.146 205.387C340.173 204.074 339.237 202.155 337.571 202.155H335.059C333.534 202.155 332.57 200.516 333.312 199.182L340.02 187.123C340.761 185.79 339.797 184.151 338.272 184.151H325.486C324.633 184.151 323.874 184.692 323.595 185.498L315.652 208.504C315.204 209.803 316.169 211.157 317.543 211.157H321.198C322.588 211.157 323.554 212.539 323.076 213.845Z" fill="#E4C55A" stroke="#393939" stroke-width="1.3" stroke-linejoin="round"/>
<path d="M8.33947 266.301L4.36892 277.138C3.58472 279.279 6.41834 280.854 7.82243 279.058L24.41 257.843C25.4365 256.53 24.501 254.611 22.8344 254.611H20.323C18.7976 254.611 17.8337 252.972 18.5752 251.639L25.2835 239.579C26.025 238.246 25.0612 236.607 23.5357 236.607H10.7496C9.89662 236.607 9.13751 237.148 8.85912 237.954L0.915911 260.96C0.467441 262.259 1.43226 263.613 2.8064 263.613H6.46154C7.85152 263.613 8.81764 264.996 8.33947 266.301Z" fill="#E4C55A" stroke="#393939" stroke-width="1.3" stroke-linejoin="round"/>
<path d="M39.5289 266.301L35.5584 277.138C34.7742 279.279 37.6078 280.854 39.0119 279.058L55.5994 257.843C56.626 256.53 55.6905 254.611 54.0238 254.611H51.5125C49.987 254.611 49.0231 252.972 49.7647 251.639L56.4729 239.579C57.2145 238.246 56.2506 236.607 54.7252 236.607H41.9391C41.0861 236.607 40.327 237.148 40.0486 237.954L32.1054 260.96C31.6569 262.259 32.6217 263.613 33.9958 263.613H37.651C39.041 263.613 40.0071 264.996 39.5289 266.301Z" fill="#E4C55A" stroke="#393939" stroke-width="1.3" stroke-linejoin="round"/>
<path d="M71.192 266.301L67.2215 277.138C66.4373 279.279 69.2709 280.854 70.675 279.058L87.2625 257.843C88.2891 256.53 87.3536 254.611 85.6869 254.611H83.1756C81.6501 254.611 80.6862 252.972 81.4278 251.639L88.136 239.579C88.8776 238.246 87.9137 236.607 86.3882 236.607H73.6021C72.7492 236.607 71.99 237.148 71.7117 237.954L63.7685 260.96C63.32 262.259 64.2848 263.613 65.6589 263.613H69.3141C70.7041 263.613 71.6702 264.996 71.192 266.301Z" fill="#E4C55A" stroke="#393939" stroke-width="1.3" stroke-linejoin="round"/>
<path d="M102.382 266.301L98.4119 277.138C97.6277 279.279 100.461 280.854 101.865 279.058L118.453 257.843C119.479 256.53 118.544 254.611 116.877 254.611H114.366C112.841 254.611 111.877 252.972 112.618 251.639L119.326 239.579C120.068 238.246 119.104 236.607 117.579 236.607H104.793C103.94 236.607 103.18 237.148 102.902 237.954L94.9589 260.96C94.5104 262.259 95.4752 263.613 96.8494 263.613H100.505C101.894 263.613 102.861 264.996 102.382 266.301Z" fill="#E4C55A" stroke="#393939" stroke-width="1.3" stroke-linejoin="round"/>
<path d="M134.045 266.301L130.074 277.138C129.29 279.279 132.123 280.854 133.528 279.058L150.115 257.843C151.142 256.53 150.206 254.611 148.539 254.611H146.028C144.503 254.611 143.539 252.972 144.28 251.639L150.989 239.579C151.73 238.246 150.766 236.607 149.241 236.607H136.455C135.602 236.607 134.843 237.148 134.564 237.954L126.621 260.96C126.173 262.259 127.137 263.613 128.511 263.613H132.167C133.557 263.613 134.523 264.996 134.045 266.301Z" fill="#E4C55A" stroke="#393939" stroke-width="1.3" stroke-linejoin="round"/>
<path d="M165.234 266.301L161.263 277.138C160.479 279.279 163.313 280.854 164.717 279.058L181.304 257.843C182.331 256.53 181.396 254.611 179.729 254.611H177.218C175.692 254.611 174.728 252.972 175.47 251.639L182.178 239.579C182.92 238.246 181.956 236.607 180.43 236.607H167.644C166.791 236.607 166.032 237.148 165.754 237.954L157.81 260.96C157.362 262.259 158.327 263.613 159.701 263.613H163.356C164.746 263.613 165.712 264.996 165.234 266.301Z" fill="#E4C55A" stroke="#393939" stroke-width="1.3" stroke-linejoin="round"/>
<path d="M196.897 266.301L192.927 277.138C192.142 279.279 194.976 280.854 196.38 279.058L212.968 257.843C213.994 256.53 213.059 254.611 211.392 254.611H208.881C207.355 254.611 206.391 252.972 207.133 251.639L213.841 239.579C214.583 238.246 213.619 236.607 212.093 236.607H199.307C198.454 236.607 197.695 237.148 197.417 237.954L189.474 260.96C189.025 262.259 189.99 263.613 191.364 263.613H195.019C196.409 263.613 197.375 264.996 196.897 266.301Z" fill="#E4C55A" stroke="#393939" stroke-width="1.3" stroke-linejoin="round"/>
<path d="M228.56 266.301L224.59 277.138C223.805 279.279 226.639 280.854 228.043 279.058L244.631 257.843C245.657 256.53 244.722 254.611 243.055 254.611H240.544C239.018 254.611 238.054 252.972 238.796 251.639L245.504 239.579C246.246 238.246 245.282 236.607 243.756 236.607H230.97C230.117 236.607 229.358 237.148 229.08 237.954L221.137 260.96C220.688 262.259 221.653 263.613 223.027 263.613H226.682C228.072 263.613 229.038 264.996 228.56 266.301Z" fill="#E4C55A" stroke="#393939" stroke-width="1.3" stroke-linejoin="round"/>
<path d="M260.222 266.301L256.252 277.138C255.468 279.279 258.301 280.854 259.705 279.058L276.293 257.843C277.319 256.53 276.384 254.611 274.717 254.611H272.206C270.68 254.611 269.716 252.972 270.458 251.639L277.166 239.579C277.908 238.246 276.944 236.607 275.419 236.607H262.632C261.779 236.607 261.02 237.148 260.742 237.954L252.799 260.96C252.35 262.259 253.315 263.613 254.689 263.613H258.344C259.734 263.613 260.7 264.996 260.222 266.301Z" fill="#E4C55A" stroke="#393939" stroke-width="1.3" stroke-linejoin="round"/>
<path d="M291.884 266.301L287.914 277.138C287.13 279.279 289.963 280.854 291.367 279.058L307.955 257.843C308.981 256.53 308.046 254.611 306.379 254.611H303.868C302.342 254.611 301.379 252.972 302.12 251.639L308.828 239.579C309.57 238.246 308.606 236.607 307.081 236.607H294.295C293.442 236.607 292.682 237.148 292.404 237.954L284.461 260.96C284.012 262.259 284.977 263.613 286.351 263.613H290.006C291.396 263.613 292.363 264.996 291.884 266.301Z" fill="#E4C55A" stroke="#393939" stroke-width="1.3" stroke-linejoin="round"/>
<path d="M323.076 266.301L319.105 277.138C318.321 279.279 321.155 280.854 322.559 279.058L339.146 257.843C340.173 256.53 339.237 254.611 337.571 254.611H335.059C333.534 254.611 332.57 252.972 333.312 251.639L340.02 239.579C340.761 238.246 339.797 236.607 338.272 236.607H325.486C324.633 236.607 323.874 237.148 323.595 237.954L315.652 260.96C315.204 262.259 316.169 263.613 317.543 263.613H321.198C322.588 263.613 323.554 264.996 323.076 266.301Z" fill="#E4C55A" stroke="#393939" stroke-width="1.3" stroke-linejoin="round"/>
<path d="M8.33947 318.757L4.36892 329.594C3.58472 331.735 6.41834 333.31 7.82243 331.514L24.41 310.299C25.4365 308.986 24.501 307.067 22.8344 307.067H20.323C18.7976 307.067 17.8337 305.428 18.5752 304.095L25.2835 292.035C26.025 290.702 25.0612 289.063 23.5357 289.063H10.7496C9.89662 289.063 9.13751 289.604 8.85912 290.41L0.915911 313.416C0.467441 314.715 1.43226 316.069 2.8064 316.069H6.46154C7.85152 316.069 8.81764 317.452 8.33947 318.757Z" fill="#E4C55A" stroke="#393939" stroke-width="1.3" stroke-linejoin="round"/>
<path d="M39.5289 318.757L35.5584 329.594C34.7742 331.735 37.6078 333.31 39.0119 331.514L55.5994 310.299C56.626 308.986 55.6905 307.067 54.0238 307.067H51.5125C49.987 307.067 49.0231 305.428 49.7647 304.095L56.4729 292.035C57.2145 290.702 56.2506 289.063 54.7252 289.063H41.9391C41.0861 289.063 40.327 289.604 40.0486 290.41L32.1054 313.416C31.6569 314.715 32.6217 316.069 33.9958 316.069H37.651C39.041 316.069 40.0071 317.452 39.5289 318.757Z" fill="#E4C55A" stroke="#393939" stroke-width="1.3" stroke-linejoin="round"/>
<path d="M71.192 318.757L67.2215 329.594C66.4373 331.735 69.2709 333.31 70.675 331.514L87.2625 310.299C88.2891 308.986 87.3536 307.067 85.6869 307.067H83.1756C81.6501 307.067 80.6862 305.428 81.4278 304.095L88.136 292.035C88.8776 290.702 87.9137 289.063 86.3882 289.063H73.6021C72.7492 289.063 71.99 289.604 71.7117 290.41L63.7685 313.416C63.32 314.715 64.2848 316.069 65.6589 316.069H69.3141C70.7041 316.069 71.6702 317.452 71.192 318.757Z" fill="#E4C55A" stroke="#393939" stroke-width="1.3" stroke-linejoin="round"/>
<path d="M102.382 318.757L98.4119 329.594C97.6277 331.735 100.461 333.31 101.865 331.514L118.453 310.299C119.479 308.986 118.544 307.067 116.877 307.067H114.366C112.841 307.067 111.877 305.428 112.618 304.095L119.326 292.035C120.068 290.702 119.104 289.063 117.579 289.063H104.793C103.94 289.063 103.18 289.604 102.902 290.41L94.9589 313.416C94.5104 314.715 95.4752 316.069 96.8494 316.069H100.505C101.894 316.069 102.861 317.452 102.382 318.757Z" fill="#E4C55A" stroke="#393939" stroke-width="1.3" stroke-linejoin="round"/>
<path d="M134.045 318.757L130.074 329.594C129.29 331.735 132.123 333.31 133.528 331.514L150.115 310.299C151.142 308.986 150.206 307.067 148.539 307.067H146.028C144.503 307.067 143.539 305.428 144.28 304.095L150.989 292.035C151.73 290.702 150.766 289.063 149.241 289.063H136.455C135.602 289.063 134.843 289.604 134.564 290.41L126.621 313.416C126.173 314.715 127.137 316.069 128.511 316.069H132.167C133.557 316.069 134.523 317.452 134.045 318.757Z" fill="#E4C55A" stroke="#393939" stroke-width="1.3" stroke-linejoin="round"/>
<path d="M165.234 318.757L161.263 329.594C160.479 331.735 163.313 333.31 164.717 331.514L181.304 310.299C182.331 308.986 181.396 307.067 179.729 307.067H177.218C175.692 307.067 174.728 305.428 175.47 304.095L182.178 292.035C182.92 290.702 181.956 289.063 180.43 289.063H167.644C166.791 289.063 166.032 289.604 165.754 290.41L157.81 313.416C157.362 314.715 158.327 316.069 159.701 316.069H163.356C164.746 316.069 165.712 317.452 165.234 318.757Z" fill="#E4C55A" stroke="#393939" stroke-width="1.3" stroke-linejoin="round"/>
<path d="M196.897 318.757L192.927 329.594C192.142 331.735 194.976 333.31 196.38 331.514L212.968 310.299C213.994 308.986 213.059 307.067 211.392 307.067H208.881C207.355 307.067 206.391 305.428 207.133 304.095L213.841 292.035C214.583 290.702 213.619 289.063 212.093 289.063H199.307C198.454 289.063 197.695 289.604 197.417 290.41L189.474 313.416C189.025 314.715 189.99 316.069 191.364 316.069H195.019C196.409 316.069 197.375 317.452 196.897 318.757Z" fill="#E4C55A" stroke="#393939" stroke-width="1.3" stroke-linejoin="round"/>
<path d="M228.56 318.757L224.59 329.594C223.805 331.735 226.639 333.31 228.043 331.514L244.631 310.299C245.657 308.986 244.722 307.067 243.055 307.067H240.544C239.018 307.067 238.054 305.428 238.796 304.095L245.504 292.035C246.246 290.702 245.282 289.063 243.756 289.063H230.97C230.117 289.063 229.358 289.604 229.08 290.41L221.137 313.416C220.688 314.715 221.653 316.069 223.027 316.069H226.682C228.072 316.069 229.038 317.452 228.56 318.757Z" fill="#E4C55A" stroke="#393939" stroke-width="1.3" stroke-linejoin="round"/>
<path d="M260.222 318.757L256.252 329.594C255.468 331.735 258.301 333.31 259.705 331.514L276.293 310.299C277.319 308.986 276.384 307.067 274.717 307.067H272.206C270.68 307.067 269.716 305.428 270.458 304.095L277.166 292.035C277.908 290.702 276.944 289.063 275.419 289.063H262.632C261.779 289.063 261.02 289.604 260.742 290.41L252.799 313.416C252.35 314.715 253.315 316.069 254.689 316.069H258.344C259.734 316.069 260.7 317.452 260.222 318.757Z" fill="#E4C55A" stroke="#393939" stroke-width="1.3" stroke-linejoin="round"/>
<path d="M291.884 318.757L287.914 329.594C287.13 331.735 289.963 333.31 291.367 331.514L307.955 310.299C308.981 308.986 308.046 307.067 306.379 307.067H303.868C302.342 307.067 301.379 305.428 302.12 304.095L308.828 292.035C309.57 290.702 308.606 289.063 307.081 289.063H294.295C293.442 289.063 292.682 289.604 292.404 290.41L284.461 313.416C284.012 314.715 284.977 316.069 286.351 316.069H290.006C291.396 316.069 292.363 317.452 291.884 318.757Z" fill="#E4C55A" stroke="#393939" stroke-width="1.3" stroke-linejoin="round"/>
<path d="M323.076 318.757L319.105 329.594C318.321 331.735 321.155 333.31 322.559 331.514L339.146 310.299C340.173 308.986 339.237 307.067 337.571 307.067H335.059C333.534 307.067 332.57 305.428 333.312 304.095L340.02 292.035C340.761 290.702 339.797 289.063 338.272 289.063H325.486C324.633 289.063 323.874 289.604 323.595 290.41L315.652 313.416C315.204 314.715 316.169 316.069 317.543 316.069H321.198C322.588 316.069 323.554 317.452 323.076 318.757Z" fill="#E4C55A" stroke="#393939" stroke-width="1.3" stroke-linejoin="round"/>
<path d="M8.33947 373.103L4.36892 383.94C3.58472 386.081 6.41834 387.656 7.82243 385.86L24.41 364.645C25.4365 363.332 24.501 361.413 22.8344 361.413H20.323C18.7976 361.413 17.8337 359.774 18.5752 358.441L25.2835 346.381C26.025 345.048 25.0612 343.409 23.5357 343.409H10.7496C9.89662 343.409 9.13751 343.95 8.85912 344.756L0.915911 367.762C0.467441 369.061 1.43226 370.415 2.8064 370.415H6.46154C7.85152 370.415 8.81764 371.798 8.33947 373.103Z" fill="#E4C55A" stroke="#393939" stroke-width="1.3" stroke-linejoin="round"/>
<path d="M39.5289 373.103L35.5584 383.94C34.7742 386.081 37.6078 387.656 39.0119 385.86L55.5994 364.645C56.626 363.332 55.6905 361.413 54.0238 361.413H51.5125C49.987 361.413 49.0231 359.774 49.7647 358.441L56.4729 346.381C57.2145 345.048 56.2506 343.409 54.7252 343.409H41.9391C41.0861 343.409 40.327 343.95 40.0486 344.756L32.1054 367.762C31.6569 369.061 32.6217 370.415 33.9958 370.415H37.651C39.041 370.415 40.0071 371.798 39.5289 373.103Z" fill="#E4C55A" stroke="#393939" stroke-width="1.3" stroke-linejoin="round"/>
<path d="M71.192 373.103L67.2215 383.94C66.4373 386.081 69.2709 387.656 70.675 385.86L87.2625 364.645C88.2891 363.332 87.3536 361.413 85.6869 361.413H83.1756C81.6501 361.413 80.6862 359.774 81.4278 358.441L88.136 346.381C88.8776 345.048 87.9137 343.409 86.3882 343.409H73.6021C72.7492 343.409 71.99 343.95 71.7117 344.756L63.7685 367.762C63.32 369.061 64.2848 370.415 65.6589 370.415H69.3141C70.7041 370.415 71.6702 371.798 71.192 373.103Z" fill="#E4C55A" stroke="#393939" stroke-width="1.3" stroke-linejoin="round"/>
<path d="M102.382 373.103L98.4119 383.94C97.6277 386.081 100.461 387.656 101.865 385.86L118.453 364.645C119.479 363.332 118.544 361.413 116.877 361.413H114.366C112.841 361.413 111.877 359.774 112.618 358.441L119.326 346.381C120.068 345.048 119.104 343.409 117.579 343.409H104.793C103.94 343.409 103.18 343.95 102.902 344.756L94.9589 367.762C94.5104 369.061 95.4752 370.415 96.8494 370.415H100.505C101.894 370.415 102.861 371.798 102.382 373.103Z" fill="#E4C55A" stroke="#393939" stroke-width="1.3" stroke-linejoin="round"/>
<path d="M134.045 373.103L130.074 383.94C129.29 386.081 132.123 387.656 133.528 385.86L150.115 364.645C151.142 363.332 150.206 361.413 148.539 361.413H146.028C144.503 361.413 143.539 359.774 144.28 358.441L150.989 346.381C151.73 345.048 150.766 343.409 149.241 343.409H136.455C135.602 343.409 134.843 343.95 134.564 344.756L126.621 367.762C126.173 369.061 127.137 370.415 128.511 370.415H132.167C133.557 370.415 134.523 371.798 134.045 373.103Z" fill="#E4C55A" stroke="#393939" stroke-width="1.3" stroke-linejoin="round"/>
<path d="M165.234 373.103L161.263 383.94C160.479 386.081 163.313 387.656 164.717 385.86L181.304 364.645C182.331 363.332 181.396 361.413 179.729 361.413H177.218C175.692 361.413 174.728 359.774 175.47 358.441L182.178 346.381C182.92 345.048 181.956 343.409 180.43 343.409H167.644C166.791 343.409 166.032 343.95 165.754 344.756L157.81 367.762C157.362 369.061 158.327 370.415 159.701 370.415H163.356C164.746 370.415 165.712 371.798 165.234 373.103Z" fill="#E4C55A" stroke="#393939" stroke-width="1.3" stroke-linejoin="round"/>
<path d="M196.897 373.103L192.927 383.94C192.142 386.081 194.976 387.656 196.38 385.86L212.968 364.645C213.994 363.332 213.059 361.413 211.392 361.413H208.881C207.355 361.413 206.391 359.774 207.133 358.441L213.841 346.381C214.583 345.048 213.619 343.409 212.093 343.409H199.307C198.454 343.409 197.695 343.95 197.417 344.756L189.474 367.762C189.025 369.061 189.99 370.415 191.364 370.415H195.019C196.409 370.415 197.375 371.798 196.897 373.103Z" fill="#E4C55A" stroke="#393939" stroke-width="1.3" stroke-linejoin="round"/>
<path d="M228.56 373.103L224.59 383.94C223.805 386.081 226.639 387.656 228.043 385.86L244.631 364.645C245.657 363.332 244.722 361.413 243.055 361.413H240.544C239.018 361.413 238.054 359.774 238.796 358.441L245.504 346.381C246.246 345.048 245.282 343.409 243.756 343.409H230.97C230.117 343.409 229.358 343.95 229.08 344.756L221.137 367.762C220.688 369.061 221.653 370.415 223.027 370.415H226.682C228.072 370.415 229.038 371.798 228.56 373.103Z" fill="#E4C55A" stroke="#393939" stroke-width="1.3" stroke-linejoin="round"/>
<path d="M260.222 373.103L256.252 383.94C255.468 386.081 258.301 387.656 259.705 385.86L276.293 364.645C277.319 363.332 276.384 361.413 274.717 361.413H272.206C270.68 361.413 269.716 359.774 270.458 358.441L277.166 346.381C277.908 345.048 276.944 343.409 275.419 343.409H262.632C261.779 343.409 261.02 343.95 260.742 344.756L252.799 367.762C252.35 369.061 253.315 370.415 254.689 370.415H258.344C259.734 370.415 260.7 371.798 260.222 373.103Z" fill="#E4C55A" stroke="#393939" stroke-width="1.3" stroke-linejoin="round"/>
<path d="M291.884 373.103L287.914 383.94C287.13 386.081 289.963 387.656 291.367 385.86L307.955 364.645C308.981 363.332 308.046 361.413 306.379 361.413H303.868C302.342 361.413 301.379 359.774 302.12 358.441L308.828 346.381C309.57 345.048 308.606 343.409 307.081 343.409H294.295C293.442 343.409 292.682 343.95 292.404 344.756L284.461 367.762C284.012 369.061 284.977 370.415 286.351 370.415H290.006C291.396 370.415 292.363 371.798 291.884 373.103Z" fill="#E4C55A" stroke="#393939" stroke-width="1.3" stroke-linejoin="round"/>
<path d="M323.076 373.103L319.105 383.94C318.321 386.081 321.155 387.656 322.559 385.86L339.146 364.645C340.173 363.332 339.237 361.413 337.571 361.413H335.059C333.534 361.413 332.57 359.774 333.312 358.441L340.02 346.381C340.761 345.048 339.797 343.409 338.272 343.409H325.486C324.633 343.409 323.874 343.95 323.595 344.756L315.652 367.762C315.204 369.061 316.169 370.415 317.543 370.415H321.198C322.588 370.415 323.554 371.798 323.076 373.103Z" fill="#E4C55A" stroke="#393939" stroke-width="1.3" stroke-linejoin="round"/>
<path d="M8.33947 425.559L4.36892 436.396C3.58472 438.537 6.41834 440.112 7.82243 438.316L24.41 417.101C25.4365 415.788 24.501 413.869 22.8344 413.869H20.323C18.7976 413.869 17.8337 412.23 18.5752 410.897L25.2835 398.837C26.025 397.504 25.0612 395.865 23.5357 395.865H10.7496C9.89662 395.865 9.13751 396.406 8.85912 397.213L0.915911 420.218C0.467441 421.517 1.43226 422.871 2.8064 422.871H6.46154C7.85152 422.871 8.81764 424.254 8.33947 425.559Z" fill="#E4C55A" stroke="#393939" stroke-width="1.3" stroke-linejoin="round"/>
<path d="M39.5289 425.559L35.5584 436.396C34.7742 438.537 37.6078 440.112 39.0119 438.316L55.5994 417.101C56.626 415.788 55.6905 413.869 54.0238 413.869H51.5125C49.987 413.869 49.0231 412.23 49.7647 410.897L56.4729 398.837C57.2145 397.504 56.2506 395.865 54.7252 395.865H41.9391C41.0861 395.865 40.327 396.406 40.0486 397.213L32.1054 420.218C31.6569 421.517 32.6217 422.871 33.9958 422.871H37.651C39.041 422.871 40.0071 424.254 39.5289 425.559Z" fill="#E4C55A" stroke="#393939" stroke-width="1.3" stroke-linejoin="round"/>
<path d="M71.192 425.559L67.2215 436.396C66.4373 438.537 69.2709 440.112 70.675 438.316L87.2625 417.101C88.2891 415.788 87.3536 413.869 85.6869 413.869H83.1756C81.6501 413.869 80.6862 412.23 81.4278 410.897L88.136 398.837C88.8776 397.504 87.9137 395.865 86.3882 395.865H73.6021C72.7492 395.865 71.99 396.406 71.7117 397.213L63.7685 420.218C63.32 421.517 64.2848 422.871 65.6589 422.871H69.3141C70.7041 422.871 71.6702 424.254 71.192 425.559Z" fill="#E4C55A" stroke="#393939" stroke-width="1.3" stroke-linejoin="round"/>
<path d="M102.382 425.559L98.4119 436.396C97.6277 438.537 100.461 440.112 101.865 438.316L118.453 417.101C119.479 415.788 118.544 413.869 116.877 413.869H114.366C112.841 413.869 111.877 412.23 112.618 410.897L119.326 398.837C120.068 397.504 119.104 395.865 117.579 395.865H104.793C103.94 395.865 103.18 396.406 102.902 397.213L94.9589 420.218C94.5104 421.517 95.4752 422.871 96.8494 422.871H100.505C101.894 422.871 102.861 424.254 102.382 425.559Z" fill="#E4C55A" stroke="#393939" stroke-width="1.3" stroke-linejoin="round"/>
<path d="M134.045 425.559L130.074 436.396C129.29 438.537 132.123 440.112 133.528 438.316L150.115 417.101C151.142 415.788 150.206 413.869 148.539 413.869H146.028C144.503 413.869 143.539 412.23 144.28 410.897L150.989 398.837C151.73 397.504 150.766 395.865 149.241 395.865H136.455C135.602 395.865 134.843 396.406 134.564 397.213L126.621 420.218C126.173 421.517 127.137 422.871 128.511 422.871H132.167C133.557 422.871 134.523 424.254 134.045 425.559Z" fill="#E4C55A" stroke="#393939" stroke-width="1.3" stroke-linejoin="round"/>
<path d="M165.234 425.559L161.263 436.396C160.479 438.537 163.313 440.112 164.717 438.316L181.304 417.101C182.331 415.788 181.396 413.869 179.729 413.869H177.218C175.692 413.869 174.728 412.23 175.47 410.897L182.178 398.837C182.92 397.504 181.956 395.865 180.43 395.865H167.644C166.791 395.865 166.032 396.406 165.754 397.213L157.81 420.218C157.362 421.517 158.327 422.871 159.701 422.871H163.356C164.746 422.871 165.712 424.254 165.234 425.559Z" fill="#E4C55A" stroke="#393939" stroke-width="1.3" stroke-linejoin="round"/>
<path d="M196.897 425.559L192.927 436.396C192.142 438.537 194.976 440.112 196.38 438.316L212.968 417.101C213.994 415.788 213.059 413.869 211.392 413.869H208.881C207.355 413.869 206.391 412.23 207.133 410.897L213.841 398.837C214.583 397.504 213.619 395.865 212.093 395.865H199.307C198.454 395.865 197.695 396.406 197.417 397.213L189.474 420.218C189.025 421.517 189.99 422.871 191.364 422.871H195.019C196.409 422.871 197.375 424.254 196.897 425.559Z" fill="#E4C55A" stroke="#393939" stroke-width="1.3" stroke-linejoin="round"/>
<path d="M228.56 425.559L224.59 436.396C223.805 438.537 226.639 440.112 228.043 438.316L244.631 417.101C245.657 415.788 244.722 413.869 243.055 413.869H240.544C239.018 413.869 238.054 412.23 238.796 410.897L245.504 398.837C246.246 397.504 245.282 395.865 243.756 395.865H230.97C230.117 395.865 229.358 396.406 229.08 397.213L221.137 420.218C220.688 421.517 221.653 422.871 223.027 422.871H226.682C228.072 422.871 229.038 424.254 228.56 425.559Z" fill="#E4C55A" stroke="#393939" stroke-width="1.3" stroke-linejoin="round"/>
<path d="M260.222 425.559L256.252 436.396C255.468 438.537 258.301 440.112 259.705 438.316L276.293 417.101C277.319 415.788 276.384 413.869 274.717 413.869H272.206C270.68 413.869 269.716 412.23 270.458 410.897L277.166 398.837C277.908 397.504 276.944 395.865 275.419 395.865H262.632C261.779 395.865 261.02 396.406 260.742 397.213L252.799 420.218C252.35 421.517 253.315 422.871 254.689 422.871H258.344C259.734 422.871 260.7 424.254 260.222 425.559Z" fill="#E4C55A" stroke="#393939" stroke-width="1.3" stroke-linejoin="round"/>
<path d="M291.884 425.559L287.914 436.396C287.13 438.537 289.963 440.112 291.367 438.316L307.955 417.101C308.981 415.788 308.046 413.869 306.379 413.869H303.868C302.342 413.869 301.379 412.23 302.12 410.897L308.828 398.837C309.57 397.504 308.606 395.865 307.081 395.865H294.295C293.442 395.865 292.682 396.406 292.404 397.213L284.461 420.218C284.012 421.517 284.977 422.871 286.351 422.871H290.006C291.396 422.871 292.363 424.254 291.884 425.559Z" fill="#E4C55A" stroke="#393939" stroke-width="1.3" stroke-linejoin="round"/>
<path d="M323.076 425.559L319.105 436.396C318.321 438.537 321.155 440.112 322.559 438.316L339.146 417.101C340.173 415.788 339.237 413.869 337.571 413.869H335.059C333.534 413.869 332.57 412.23 333.312 410.897L340.02 398.837C340.761 397.504 339.797 395.865 338.272 395.865H325.486C324.633 395.865 323.874 396.406 323.595 397.213L315.652 420.218C315.204 421.517 316.169 422.871 317.543 422.871H321.198C322.588 422.871 323.554 424.254 323.076 425.559Z" fill="#E4C55A" stroke="#393939" stroke-width="1.3" stroke-linejoin="round"/>
<path d="M67.4108 119.408L67.226 119.911C66.44 122.05 69.2708 123.628 70.6771 121.835L72.5801 119.408H67.4108Z" fill="#73B3C0" stroke="#393939" stroke-width="1.3" stroke-linejoin="round"/>
<path d="M8.33593 108.855L4.37347 119.639C3.58742 121.778 6.41827 123.356 7.82458 121.563L24.4008 100.424C25.43 99.1115 24.4949 97.1899 22.827 97.1899H20.3279C18.8013 97.1899 17.8376 95.5486 18.5813 94.2155L25.2774 82.2132C26.0212 80.8801 25.0574 79.2388 23.5308 79.2388H10.7482C9.89592 79.2388 9.13725 79.7789 8.85835 80.5843L0.919194 103.511C0.469298 104.81 1.43419 106.165 2.80909 106.165H6.45865C7.84943 106.165 8.81561 107.55 8.33593 108.855Z" fill="#73B3C0" stroke="#393939" stroke-width="1.3" stroke-linejoin="round"/>
<mask id="mask0" mask-type="alpha" maskUnits="userSpaceOnUse" x="2" y="83" width="22" height="30">
<path d="M15.0391 85.5237C15.0391 85.5237 17.3878 84.5135 18.7429 85.5237C20.0979 86.5338 22.4467 85.5237 22.4467 85.5237" stroke="white" stroke-width="3" stroke-linecap="round"/>
<path d="M3.59082 92.4822C3.59082 92.4822 5.93958 91.472 7.29464 92.4822C8.64969 93.4923 10.9985 92.4822 10.9985 92.4822" stroke="white" stroke-width="3" stroke-linecap="round"/>
<path d="M14.3662 99.8899C14.3662 99.8899 16.715 98.8797 18.07 99.8899C19.4251 100.9 21.7738 99.8899 21.7738 99.8899" stroke="white" stroke-width="3" stroke-linecap="round"/>
<path d="M6.28418 110.44C6.28418 110.44 8.63294 109.43 9.988 110.44C11.3431 111.45 13.6918 110.44 13.6918 110.44" stroke="white" stroke-width="3" stroke-linecap="round"/>
</mask>
<g mask="url(#mask0)">
<path d="M8.55956 108.181L4.5971 118.965C3.81106 121.104 6.6419 122.682 8.04821 120.889L24.6244 99.7502C25.6537 98.4376 24.7186 96.516 23.0506 96.516H20.5515C19.025 96.516 18.0612 94.8747 18.8049 93.5416L25.501 81.5394C26.2448 80.2062 25.281 78.5649 23.7545 78.5649H10.9719C10.1196 78.5649 9.36088 79.1051 9.08198 79.9105L1.14283 102.837C0.69293 104.136 1.65782 105.492 3.03272 105.492H6.68228C8.07306 105.492 9.03924 106.876 8.55956 108.181Z" fill="white" stroke="#393939" stroke-width="1.3" stroke-linejoin="round"/>
</g>
<path d="M39.5254 108.855L35.5629 119.639C34.7769 121.778 37.6077 123.356 39.014 121.563L55.5902 100.424C56.6195 99.1115 55.6844 97.1899 54.0164 97.1899H51.5173C49.9908 97.1899 49.027 95.5486 49.7708 94.2155L56.4669 82.2132C57.2106 80.8801 56.2469 79.2388 54.7203 79.2388H41.9377C41.0854 79.2388 40.3267 79.7789 40.0478 80.5843L32.1086 103.511C31.6588 104.81 32.6236 106.165 33.9985 106.165H37.6481C39.0389 106.165 40.0051 107.55 39.5254 108.855Z" fill="#73B3C0" stroke="#393939" stroke-width="1.3" stroke-linejoin="round"/>
<mask id="mask1" mask-type="alpha" maskUnits="userSpaceOnUse" x="33" y="83" width="23" height="30">
<path d="M46.2305 85.5237C46.2305 85.5237 48.5792 84.5135 49.9343 85.5237C51.2893 86.5338 53.6381 85.5237 53.6381 85.5237" stroke="white" stroke-width="3" stroke-linecap="round"/>
<path d="M34.7822 92.4822C34.7822 92.4822 37.131 91.472 38.486 92.4822C39.8411 93.4923 42.1899 92.4822 42.1899 92.4822" stroke="white" stroke-width="3" stroke-linecap="round"/>
<path d="M45.5576 99.8899C45.5576 99.8899 47.9064 98.8797 49.2614 99.8899C50.6165 100.9 52.9653 99.8899 52.9653 99.8899" stroke="white" stroke-width="3" stroke-linecap="round"/>
<path d="M37.4756 110.44C37.4756 110.44 39.8243 109.43 41.1794 110.44C42.5345 111.45 44.8832 110.44 44.8832 110.44" stroke="white" stroke-width="3" stroke-linecap="round"/>
</mask>
<g mask="url(#mask1)">
<path d="M39.751 108.182L35.7885 118.966C35.0025 121.105 37.8333 122.683 39.2396 120.89L55.8158 99.7507C56.8451 98.4381 55.91 96.5165 54.242 96.5165H51.7429C50.2164 96.5165 49.2526 94.8752 49.9963 93.5421L56.6925 81.5398C57.4362 80.2067 56.4724 78.5654 54.9459 78.5654H42.1633C41.311 78.5654 40.5523 79.1056 40.2734 79.911L32.3342 102.838C31.8843 104.137 32.8492 105.492 34.2241 105.492H37.8737C39.2645 105.492 40.2307 106.876 39.751 108.182Z" fill="white" stroke="#393939" stroke-width="1.3" stroke-linejoin="round"/>
</g>
<path d="M62.3395 30.6937L58.3689 41.5312C57.5847 43.6716 60.4183 45.2469 61.8224 43.4511L78.41 22.2357C79.4365 20.9227 78.501 19.0038 76.8344 19.0038H74.323C72.7976 19.0038 71.8337 17.3647 72.5752 16.0316L79.2835 3.97224C80.025 2.63916 79.0612 1 77.5357 1H64.7496C63.8966 1 63.1375 1.54099 62.8591 2.34727L54.9159 25.353C54.4674 26.6519 55.4323 28.0057 56.8064 28.0057H60.4615C61.8515 28.0057 62.8176 29.3886 62.3395 30.6937Z" fill="#E4C55A" stroke="#393939" stroke-width="1.3" stroke-linejoin="round"/>
<path d="M85.0961 23.356H96.6141V25.748H85.0961V23.356ZM85.0961 18.78H96.6141V21.159H85.0961V18.78ZM101.907 28.595H105.716V17.636C105.716 17.2113 105.729 16.765 105.755 16.297L103.051 18.559C102.938 18.6543 102.821 18.7193 102.7 18.754C102.587 18.7887 102.475 18.806 102.362 18.806C102.189 18.806 102.028 18.7713 101.881 18.702C101.742 18.624 101.638 18.5373 101.569 18.442L100.555 17.051L106.288 12.176H108.927V28.595H112.307V31H101.907V28.595ZM127.922 21.601C127.922 23.239 127.745 24.6647 127.389 25.878C127.043 27.0827 126.557 28.0793 125.933 28.868C125.318 29.6567 124.586 30.246 123.736 30.636C122.896 31.0173 121.986 31.208 121.006 31.208C120.027 31.208 119.117 31.0173 118.276 30.636C117.444 30.246 116.721 29.6567 116.105 28.868C115.49 28.0793 115.009 27.0827 114.662 25.878C114.316 24.6647 114.142 23.239 114.142 21.601C114.142 19.9543 114.316 18.5287 114.662 17.324C115.009 16.1193 115.49 15.1227 116.105 14.334C116.721 13.5453 117.444 12.9603 118.276 12.579C119.117 12.189 120.027 11.994 121.006 11.994C121.986 11.994 122.896 12.189 123.736 12.579C124.586 12.9603 125.318 13.5453 125.933 14.334C126.557 15.1227 127.043 16.1193 127.389 17.324C127.745 18.5287 127.922 19.9543 127.922 21.601ZM124.607 21.601C124.607 20.2403 124.508 19.1137 124.308 18.221C124.109 17.3283 123.84 16.6177 123.502 16.089C123.173 15.5603 122.792 15.192 122.358 14.984C121.925 14.7673 121.474 14.659 121.006 14.659C120.547 14.659 120.101 14.7673 119.667 14.984C119.243 15.192 118.866 15.5603 118.536 16.089C118.207 16.6177 117.943 17.3283 117.743 18.221C117.553 19.1137 117.457 20.2403 117.457 21.601C117.457 22.9617 117.553 24.0883 117.743 24.981C117.943 25.8737 118.207 26.5843 118.536 27.113C118.866 27.6417 119.243 28.0143 119.667 28.231C120.101 28.439 120.547 28.543 121.006 28.543C121.474 28.543 121.925 28.439 122.358 28.231C122.792 28.0143 123.173 27.6417 123.502 27.113C123.84 26.5843 124.109 25.8737 124.308 24.981C124.508 24.0883 124.607 22.9617 124.607 21.601ZM143.004 21.601C143.004 23.239 142.827 24.6647 142.471 25.878C142.125 27.0827 141.639 28.0793 141.015 28.868C140.4 29.6567 139.668 30.246 138.818 30.636C137.978 31.0173 137.068 31.208 136.088 31.208C135.109 31.208 134.199 31.0173 133.358 30.636C132.526 30.246 131.803 29.6567 131.187 28.868C130.572 28.0793 130.091 27.0827 129.744 25.878C129.398 24.6647 129.224 23.239 129.224 21.601C129.224 19.9543 129.398 18.5287 129.744 17.324C130.091 16.1193 130.572 15.1227 131.187 14.334C131.803 13.5453 132.526 12.9603 133.358 12.579C134.199 12.189 135.109 11.994 136.088 11.994C137.068 11.994 137.978 12.189 138.818 12.579C139.668 12.9603 140.4 13.5453 141.015 14.334C141.639 15.1227 142.125 16.1193 142.471 17.324C142.827 18.5287 143.004 19.9543 143.004 21.601ZM139.689 21.601C139.689 20.2403 139.59 19.1137 139.39 18.221C139.191 17.3283 138.922 16.6177 138.584 16.089C138.255 15.5603 137.874 15.192 137.44 14.984C137.007 14.7673 136.556 14.659 136.088 14.659C135.629 14.659 135.183 14.7673 134.749 14.984C134.325 15.192 133.948 15.5603 133.618 16.089C133.289 16.6177 133.025 17.3283 132.825 18.221C132.635 19.1137 132.539 20.2403 132.539 21.601C132.539 22.9617 132.635 24.0883 132.825 24.981C133.025 25.8737 133.289 26.5843 133.618 27.113C133.948 27.6417 134.325 28.0143 134.749 28.231C135.183 28.439 135.629 28.543 136.088 28.543C136.556 28.543 137.007 28.439 137.44 28.231C137.874 28.0143 138.255 27.6417 138.584 27.113C138.922 26.5843 139.191 25.8737 139.39 24.981C139.59 24.0883 139.689 22.9617 139.689 21.601ZM158.086 21.601C158.086 23.239 157.909 24.6647 157.553 25.878C157.207 27.0827 156.721 28.0793 156.097 28.868C155.482 29.6567 154.75 30.246 153.9 30.636C153.06 31.0173 152.15 31.208 151.17 31.208C150.191 31.208 149.281 31.0173 148.44 30.636C147.608 30.246 146.885 29.6567 146.269 28.868C145.654 28.0793 145.173 27.0827 144.826 25.878C144.48 24.6647 144.306 23.239 144.306 21.601C144.306 19.9543 144.48 18.5287 144.826 17.324C145.173 16.1193 145.654 15.1227 146.269 14.334C146.885 13.5453 147.608 12.9603 148.44 12.579C149.281 12.189 150.191 11.994 151.17 11.994C152.15 11.994 153.06 12.189 153.9 12.579C154.75 12.9603 155.482 13.5453 156.097 14.334C156.721 15.1227 157.207 16.1193 157.553 17.324C157.909 18.5287 158.086 19.9543 158.086 21.601ZM154.771 21.601C154.771 20.2403 154.672 19.1137 154.472 18.221C154.273 17.3283 154.004 16.6177 153.666 16.089C153.337 15.5603 152.956 15.192 152.522 14.984C152.089 14.7673 151.638 14.659 151.17 14.659C150.711 14.659 150.265 14.7673 149.831 14.984C149.407 15.192 149.03 15.5603 148.7 16.089C148.371 16.6177 148.107 17.3283 147.907 18.221C147.717 19.1137 147.621 20.2403 147.621 21.601C147.621 22.9617 147.717 24.0883 147.907 24.981C148.107 25.8737 148.371 26.5843 148.7 27.113C149.03 27.6417 149.407 28.0143 149.831 28.231C150.265 28.439 150.711 28.543 151.17 28.543C151.638 28.543 152.089 28.439 152.522 28.231C152.956 28.0143 153.337 27.6417 153.666 27.113C154.004 26.5843 154.273 25.8737 154.472 24.981C154.672 24.0883 154.771 22.9617 154.771 21.601ZM174.296 28.426C175.084 28.426 175.769 28.3567 176.35 28.218C176.939 28.0707 177.498 27.8713 178.027 27.62V24.201H175.674C175.448 24.201 175.271 24.1403 175.141 24.019C175.011 23.889 174.946 23.733 174.946 23.551V21.575H181.199V29.18C180.722 29.5267 180.224 29.83 179.704 30.09C179.192 30.3413 178.642 30.5493 178.053 30.714C177.472 30.8787 176.848 31 176.181 31.078C175.513 31.1647 174.794 31.208 174.023 31.208C172.653 31.208 171.392 30.9697 170.24 30.493C169.087 30.0163 168.09 29.3533 167.25 28.504C166.409 27.6547 165.75 26.6407 165.274 25.462C164.806 24.2833 164.572 22.9963 164.572 21.601C164.572 20.1883 164.801 18.8927 165.261 17.714C165.72 16.5353 166.37 15.5213 167.211 14.672C168.06 13.8227 169.087 13.164 170.292 12.696C171.496 12.228 172.848 11.994 174.348 11.994C175.882 11.994 177.208 12.2237 178.326 12.683C179.452 13.1337 180.406 13.723 181.186 14.451L180.172 16.037C179.972 16.3577 179.708 16.518 179.379 16.518C179.171 16.518 178.958 16.4487 178.742 16.31C178.464 16.1453 178.178 15.9807 177.884 15.816C177.598 15.6513 177.277 15.5083 176.922 15.387C176.575 15.2657 176.181 15.166 175.739 15.088C175.305 15.01 174.803 14.971 174.231 14.971C173.303 14.971 172.463 15.127 171.709 15.439C170.963 15.751 170.326 16.1973 169.798 16.778C169.269 17.3587 168.862 18.0563 168.576 18.871C168.29 19.6857 168.147 20.5957 168.147 21.601C168.147 22.6843 168.298 23.6507 168.602 24.5C168.905 25.3407 169.33 26.0513 169.876 26.632C170.422 27.2127 171.072 27.659 171.826 27.971C172.58 28.2743 173.403 28.426 174.296 28.426ZM187.69 17.662V31H184.479V17.662H187.69ZM188.171 13.775C188.171 14.0523 188.114 14.3123 188.002 14.555C187.889 14.7977 187.737 15.01 187.547 15.192C187.365 15.374 187.148 15.5213 186.897 15.634C186.645 15.738 186.377 15.79 186.091 15.79C185.813 15.79 185.549 15.738 185.298 15.634C185.055 15.5213 184.843 15.374 184.661 15.192C184.479 15.01 184.331 14.7977 184.219 14.555C184.115 14.3123 184.063 14.0523 184.063 13.775C184.063 13.489 184.115 13.2203 184.219 12.969C184.331 12.7177 184.479 12.501 184.661 12.319C184.843 12.137 185.055 11.994 185.298 11.89C185.549 11.7773 185.813 11.721 186.091 11.721C186.377 11.721 186.645 11.7773 186.897 11.89C187.148 11.994 187.365 12.137 187.547 12.319C187.737 12.501 187.889 12.7177 188.002 12.969C188.114 13.2203 188.171 13.489 188.171 13.775ZM195.944 17.428C196.516 17.428 197.054 17.4887 197.556 17.61C198.059 17.7227 198.518 17.8917 198.934 18.117H202.769V19.313C202.769 19.5123 202.717 19.6683 202.613 19.781C202.509 19.8937 202.332 19.9717 202.08 20.015L200.884 20.236C200.971 20.4613 201.036 20.6997 201.079 20.951C201.131 21.2023 201.157 21.4667 201.157 21.744C201.157 22.4027 201.023 23.0007 200.754 23.538C200.494 24.0667 200.13 24.5173 199.662 24.89C199.203 25.2627 198.653 25.553 198.011 25.761C197.379 25.9603 196.69 26.06 195.944 26.06C195.442 26.06 194.952 26.0123 194.475 25.917C194.059 26.1683 193.851 26.45 193.851 26.762C193.851 27.0307 193.973 27.23 194.215 27.36C194.467 27.4813 194.792 27.568 195.19 27.62C195.598 27.672 196.057 27.7067 196.568 27.724C197.08 27.7327 197.604 27.7587 198.141 27.802C198.679 27.8453 199.203 27.9233 199.714 28.036C200.226 28.14 200.681 28.309 201.079 28.543C201.487 28.777 201.812 29.0977 202.054 29.505C202.306 29.9037 202.431 30.4193 202.431 31.052C202.431 31.6413 202.284 32.2133 201.989 32.768C201.703 33.3227 201.283 33.8167 200.728 34.25C200.182 34.6833 199.511 35.03 198.713 35.29C197.916 35.5587 197.006 35.693 195.983 35.693C194.969 35.693 194.09 35.5933 193.344 35.394C192.599 35.2033 191.979 34.9433 191.485 34.614C191 34.2933 190.636 33.9207 190.393 33.496C190.151 33.0713 190.029 32.6293 190.029 32.17C190.029 31.546 190.22 31.0217 190.601 30.597C190.983 30.1723 191.511 29.8343 192.187 29.583C191.858 29.401 191.594 29.1583 191.394 28.855C191.195 28.5517 191.095 28.1573 191.095 27.672C191.095 27.4727 191.13 27.269 191.199 27.061C191.269 26.8443 191.373 26.632 191.511 26.424C191.659 26.216 191.841 26.021 192.057 25.839C192.274 25.6483 192.53 25.4793 192.824 25.332C192.148 24.968 191.615 24.4827 191.225 23.876C190.844 23.2693 190.653 22.5587 190.653 21.744C190.653 21.0853 190.783 20.4917 191.043 19.963C191.312 19.4257 191.68 18.9707 192.148 18.598C192.625 18.2167 193.184 17.9263 193.825 17.727C194.475 17.5277 195.182 17.428 195.944 17.428ZM199.467 31.598C199.467 31.338 199.389 31.1257 199.233 30.961C199.077 30.7963 198.865 30.6707 198.596 30.584C198.328 30.4887 198.011 30.4193 197.647 30.376C197.292 30.3327 196.911 30.3023 196.503 30.285C196.105 30.259 195.689 30.2373 195.255 30.22C194.831 30.194 194.419 30.155 194.02 30.103C193.656 30.3023 193.362 30.5407 193.136 30.818C192.92 31.0867 192.811 31.3987 192.811 31.754C192.811 31.988 192.868 32.2047 192.98 32.404C193.102 32.612 193.288 32.7897 193.539 32.937C193.799 33.0843 194.133 33.197 194.54 33.275C194.948 33.3617 195.446 33.405 196.035 33.405C196.633 33.405 197.149 33.3573 197.582 33.262C198.016 33.1753 198.371 33.0497 198.648 32.885C198.934 32.729 199.142 32.5383 199.272 32.313C199.402 32.0963 199.467 31.858 199.467 31.598ZM195.944 24.006C196.343 24.006 196.69 23.954 196.984 23.85C197.279 23.7373 197.522 23.5857 197.712 23.395C197.912 23.2043 198.059 22.9747 198.154 22.706C198.258 22.4373 198.31 22.1427 198.31 21.822C198.31 21.1633 198.111 20.6433 197.712 20.262C197.322 19.872 196.733 19.677 195.944 19.677C195.156 19.677 194.562 19.872 194.163 20.262C193.773 20.6433 193.578 21.1633 193.578 21.822C193.578 22.134 193.626 22.4243 193.721 22.693C193.825 22.9617 193.973 23.1957 194.163 23.395C194.363 23.5857 194.61 23.7373 194.904 23.85C195.208 23.954 195.554 24.006 195.944 24.006ZM215.238 31H213.795C213.492 31 213.254 30.9567 213.08 30.87C212.907 30.7747 212.777 30.5883 212.69 30.311L212.404 29.362C212.066 29.6653 211.733 29.934 211.403 30.168C211.083 30.3933 210.749 30.584 210.402 30.74C210.056 30.896 209.687 31.013 209.297 31.091C208.907 31.169 208.474 31.208 207.997 31.208C207.434 31.208 206.914 31.1343 206.437 30.987C205.961 30.831 205.549 30.6013 205.202 30.298C204.864 29.9947 204.6 29.6177 204.409 29.167C204.219 28.7163 204.123 28.192 204.123 27.594C204.123 27.0913 204.253 26.5973 204.513 26.112C204.782 25.618 205.224 25.176 205.839 24.786C206.455 24.3873 207.274 24.058 208.296 23.798C209.319 23.538 210.589 23.3907 212.105 23.356V22.576C212.105 21.6833 211.915 21.0247 211.533 20.6C211.161 20.1667 210.615 19.95 209.895 19.95C209.375 19.95 208.942 20.0107 208.595 20.132C208.249 20.2533 207.945 20.392 207.685 20.548C207.434 20.6953 207.2 20.8297 206.983 20.951C206.767 21.0723 206.528 21.133 206.268 21.133C206.052 21.133 205.865 21.0767 205.709 20.964C205.553 20.8513 205.428 20.7127 205.332 20.548L204.747 19.521C206.281 18.117 208.132 17.415 210.298 17.415C211.078 17.415 211.772 17.545 212.378 17.805C212.994 18.0563 213.514 18.4117 213.938 18.871C214.363 19.3217 214.684 19.8633 214.9 20.496C215.126 21.1287 215.238 21.822 215.238 22.576V31ZM208.998 28.998C209.328 28.998 209.631 28.9677 209.908 28.907C210.186 28.8463 210.446 28.7553 210.688 28.634C210.94 28.5127 211.178 28.3653 211.403 28.192C211.637 28.01 211.871 27.7977 212.105 27.555V25.306C211.169 25.3493 210.385 25.4317 209.752 25.553C209.128 25.6657 208.626 25.813 208.244 25.995C207.863 26.177 207.59 26.3893 207.425 26.632C207.269 26.8747 207.191 27.139 207.191 27.425C207.191 27.9883 207.356 28.3913 207.685 28.634C208.023 28.8767 208.461 28.998 208.998 28.998ZM216.836 12.202H219.774C220.077 12.202 220.328 12.2757 220.528 12.423C220.736 12.5617 220.874 12.7523 220.944 12.995L224.142 24.24C224.22 24.5173 224.289 24.8207 224.35 25.15C224.419 25.4707 224.484 25.813 224.545 26.177C224.614 25.813 224.688 25.4707 224.766 25.15C224.852 24.8207 224.943 24.5173 225.039 24.24L228.731 12.995C228.8 12.7957 228.934 12.6137 229.134 12.449C229.342 12.2843 229.593 12.202 229.888 12.202H230.915C231.218 12.202 231.469 12.2757 231.669 12.423C231.868 12.5617 232.007 12.7523 232.085 12.995L235.751 24.24C235.941 24.7947 236.106 25.41 236.245 26.086C236.305 25.748 236.366 25.423 236.427 25.111C236.496 24.799 236.565 24.5087 236.635 24.24L239.833 12.995C239.893 12.7783 240.028 12.592 240.236 12.436C240.444 12.28 240.695 12.202 240.99 12.202H243.733L237.896 31H234.737L230.629 18.156C230.577 17.9913 230.52 17.8137 230.46 17.623C230.408 17.4323 230.356 17.2287 230.304 17.012C230.252 17.2287 230.195 17.4323 230.135 17.623C230.083 17.8137 230.031 17.9913 229.979 18.156L225.832 31H222.673L216.836 12.202ZM254.772 31H253.329C253.025 31 252.787 30.9567 252.614 30.87C252.44 30.7747 252.31 30.5883 252.224 30.311L251.938 29.362C251.6 29.6653 251.266 29.934 250.937 30.168C250.616 30.3933 250.282 30.584 249.936 30.74C249.589 30.896 249.221 31.013 248.831 31.091C248.441 31.169 248.007 31.208 247.531 31.208C246.967 31.208 246.447 31.1343 245.971 30.987C245.494 30.831 245.082 30.6013 244.736 30.298C244.398 29.9947 244.133 29.6177 243.943 29.167C243.752 28.7163 243.657 28.192 243.657 27.594C243.657 27.0913 243.787 26.5973 244.047 26.112C244.315 25.618 244.757 25.176 245.373 24.786C245.988 24.3873 246.807 24.058 247.83 23.798C248.852 23.538 250.122 23.3907 251.639 23.356V22.576C251.639 21.6833 251.448 21.0247 251.067 20.6C250.694 20.1667 250.148 19.95 249.429 19.95C248.909 19.95 248.475 20.0107 248.129 20.132C247.782 20.2533 247.479 20.392 247.219 20.548C246.967 20.6953 246.733 20.8297 246.517 20.951C246.3 21.0723 246.062 21.133 245.802 21.133C245.585 21.133 245.399 21.0767 245.243 20.964C245.087 20.8513 244.961 20.7127 244.866 20.548L244.281 19.521C245.815 18.117 247.665 17.415 249.832 17.415C250.612 17.415 251.305 17.545 251.912 17.805C252.527 18.0563 253.047 18.4117 253.472 18.871C253.896 19.3217 254.217 19.8633 254.434 20.496C254.659 21.1287 254.772 21.822 254.772 22.576V31ZM248.532 28.998C248.861 28.998 249.164 28.9677 249.442 28.907C249.719 28.8463 249.979 28.7553 250.222 28.634C250.473 28.5127 250.711 28.3653 250.937 28.192C251.171 28.01 251.405 27.7977 251.639 27.555V25.306C250.703 25.3493 249.918 25.4317 249.286 25.553C248.662 25.6657 248.159 25.813 247.778 25.995C247.396 26.177 247.123 26.3893 246.959 26.632C246.803 26.8747 246.725 27.139 246.725 27.425C246.725 27.9883 246.889 28.3913 247.219 28.634C247.557 28.8767 247.994 28.998 248.532 28.998ZM262.31 31.208C261.157 31.208 260.269 30.883 259.645 30.233C259.021 29.5743 258.709 28.6687 258.709 27.516V20.067H257.357C257.184 20.067 257.032 20.0107 256.902 19.898C256.781 19.7853 256.72 19.6163 256.72 19.391V18.117L258.865 17.766L259.541 14.126C259.576 13.9527 259.654 13.8183 259.775 13.723C259.905 13.6277 260.065 13.58 260.256 13.58H261.92V17.779H265.43V20.067H261.92V27.295C261.92 27.711 262.024 28.036 262.232 28.27C262.44 28.504 262.717 28.621 263.064 28.621C263.263 28.621 263.428 28.5993 263.558 28.556C263.697 28.504 263.814 28.452 263.909 28.4C264.013 28.348 264.104 28.3003 264.182 28.257C264.26 28.205 264.338 28.179 264.416 28.179C264.511 28.179 264.589 28.205 264.65 28.257C264.711 28.3003 264.776 28.3697 264.845 28.465L265.807 30.025C265.339 30.415 264.802 30.7097 264.195 30.909C263.588 31.1083 262.96 31.208 262.31 31.208ZM272.365 31.208C271.212 31.208 270.324 30.883 269.7 30.233C269.076 29.5743 268.764 28.6687 268.764 27.516V20.067H267.412C267.238 20.067 267.087 20.0107 266.957 19.898C266.835 19.7853 266.775 19.6163 266.775 19.391V18.117L268.92 17.766L269.596 14.126C269.63 13.9527 269.708 13.8183 269.83 13.723C269.96 13.6277 270.12 13.58 270.311 13.58H271.975V17.779H275.485V20.067H271.975V27.295C271.975 27.711 272.079 28.036 272.287 28.27C272.495 28.504 272.772 28.621 273.119 28.621C273.318 28.621 273.483 28.5993 273.613 28.556C273.751 28.504 273.868 28.452 273.964 28.4C274.068 28.348 274.159 28.3003 274.237 28.257C274.315 28.205 274.393 28.179 274.471 28.179C274.566 28.179 274.644 28.205 274.705 28.257C274.765 28.3003 274.83 28.3697 274.9 28.465L275.862 30.025C275.394 30.415 274.856 30.7097 274.25 30.909C273.643 31.1083 273.015 31.208 272.365 31.208ZM285.955 20.262C285.869 20.4007 285.778 20.5003 285.682 20.561C285.587 20.613 285.466 20.639 285.318 20.639C285.162 20.639 284.993 20.5957 284.811 20.509C284.638 20.4223 284.434 20.327 284.2 20.223C283.966 20.1103 283.698 20.0107 283.394 19.924C283.1 19.8373 282.749 19.794 282.341 19.794C281.709 19.794 281.21 19.9283 280.846 20.197C280.482 20.4657 280.3 20.8167 280.3 21.25C280.3 21.536 280.391 21.7787 280.573 21.978C280.764 22.1687 281.011 22.3377 281.314 22.485C281.626 22.6323 281.977 22.7667 282.367 22.888C282.757 23.0007 283.156 23.1263 283.563 23.265C283.971 23.4037 284.369 23.564 284.759 23.746C285.149 23.9193 285.496 24.1447 285.799 24.422C286.111 24.6907 286.358 25.0157 286.54 25.397C286.731 25.7783 286.826 26.2377 286.826 26.775C286.826 27.4163 286.709 28.01 286.475 28.556C286.241 29.0933 285.899 29.5613 285.448 29.96C284.998 30.35 284.439 30.6577 283.771 30.883C283.113 31.0997 282.354 31.208 281.496 31.208C281.037 31.208 280.586 31.1647 280.144 31.078C279.711 31 279.291 30.8873 278.883 30.74C278.485 30.5927 278.112 30.4193 277.765 30.22C277.427 30.0207 277.128 29.804 276.868 29.57L277.609 28.348C277.705 28.2007 277.817 28.088 277.947 28.01C278.077 27.932 278.242 27.893 278.441 27.893C278.641 27.893 278.827 27.9493 279 28.062C279.182 28.1747 279.39 28.296 279.624 28.426C279.858 28.556 280.131 28.6773 280.443 28.79C280.764 28.9027 281.167 28.959 281.652 28.959C282.034 28.959 282.359 28.9157 282.627 28.829C282.905 28.7337 283.13 28.6123 283.303 28.465C283.485 28.3177 283.615 28.1487 283.693 27.958C283.78 27.7587 283.823 27.555 283.823 27.347C283.823 27.035 283.728 26.7793 283.537 26.58C283.355 26.3807 283.108 26.2073 282.796 26.06C282.493 25.9127 282.142 25.7827 281.743 25.67C281.353 25.5487 280.95 25.4187 280.534 25.28C280.127 25.1413 279.724 24.981 279.325 24.799C278.935 24.6083 278.584 24.37 278.272 24.084C277.969 23.798 277.722 23.447 277.531 23.031C277.349 22.615 277.258 22.1123 277.258 21.523C277.258 20.977 277.367 20.457 277.583 19.963C277.8 19.469 278.116 19.04 278.532 18.676C278.957 18.3033 279.481 18.0087 280.105 17.792C280.738 17.5667 281.466 17.454 282.289 17.454C283.208 17.454 284.044 17.6057 284.798 17.909C285.552 18.2123 286.181 18.611 286.683 19.105L285.955 20.262Z" fill="#393939"/>
</svg>
