<svg width="123" height="147" viewBox="0 0 123 147" fill="none" xmlns="http://www.w3.org/2000/svg">
<path d="M29.7076 65.2868L72.8195 38.9822L93.764 52.1345V41.735H106.147V59.9107L114.708 65.2868V145.73H88.719H56.9201H29.7076V65.2868Z" fill="#E4C55A"/>
<path d="M52.6395 24.9124H2.1893C-3.68126 -0.780483 13.6043 0.341099 22.9809 4.11349C28.3622 -2.73792 36.6381 3.29781 40.1034 7.17209C53.8014 2.76761 54.1683 17.1637 52.6395 24.9124Z" fill="#E4C55A"/>
<path d="M22.9809 70.7924L29.7076 65.2868M122.047 70.7924L114.708 65.2868M29.7076 65.2868L72.8196 38.9822L93.764 52.1345M29.7076 65.2868V145.73H56.9201M114.708 65.2868V145.73H88.719M114.708 65.2868L106.147 59.9107M56.9201 145.73V105.355H88.719V145.73M56.9201 145.73H88.719M72.8196 69.8748H88.719V82.2624M72.8196 69.8748H56.9201V82.2624M72.8196 69.8748V82.2624M72.8196 94.65H56.9201V82.2624M72.8196 94.65H88.719V82.2624M72.8196 94.65V82.2624M56.9201 82.2624H72.8196M72.8196 82.2624H88.719M93.764 52.1345V41.735H106.147V59.9107M93.764 52.1345L106.147 59.9107M2.1893 24.9124H52.6395C54.1683 17.1637 53.8014 2.76761 40.1034 7.17209C36.6381 3.2978 28.3622 -2.73792 22.9809 4.11349C13.6043 0.341099 -3.68127 -0.780483 2.1893 24.9124Z" stroke="#393939" stroke-width="1.3"/>
<path d="M57.1367 105.381V145.73H88.7141V105.381H57.1367Z" fill="#B77E4A" stroke="#393939" stroke-width="1.3"/>
<path d="M72.9254 69.4175H88.7141V82.1362V94.8548H72.9254H57.1367V82.1362V69.4175H72.9254Z" fill="#73B3C0"/>
<path d="M72.9254 69.4175H88.7141V82.1362M72.9254 69.4175H57.1367V82.1362M72.9254 69.4175V82.1362M72.9254 94.8548H57.1367V82.1362M72.9254 94.8548H88.7141V82.1362M72.9254 94.8548V82.1362M57.1367 82.1362H72.9254M72.9254 82.1362H88.7141" stroke="#393939" stroke-width="1.3"/>
<path d="M52.1424 24.683H2.17785C-3.63621 -0.763408 13.483 0.347418 22.7693 4.08364C28.0989 -2.70207 36.2951 3.27577 39.727 7.1129C53.2931 2.75066 53.6565 17.0087 52.1424 24.683Z" fill="#E6E6E6" stroke="#393939" stroke-width="1.3"/>
</svg>
